//Event file generated from Sappy .s format.
        #include "MPlayDef.event"

        #define    ChapterIntro1_grp  MusicVoices
        #define    ChapterIntro1_pri  0
        #define    ChapterIntro1_rev  0
        #define    ChapterIntro1_key  0

        // .rodata
        // ChapterIntro1
        ALIGN 4

//****************** Track 0 (Midi-Chn.0) ******************//

ChapterIntro1_0:
        BYTE   KEYSH   ChapterIntro1_key+0
// 000   ----------------------------------------
        BYTE   TEMPO   120/2
        BYTE           VOICE   81
        BYTE           VOL     79
        BYTE           N60     Cn1   v100   gtp3
        BYTE   W30
        BYTE           VOL     75
        BYTE   W03
        BYTE                   69
        BYTE   W03
        BYTE                   63
        BYTE   W03
        BYTE                   56
        BYTE   W03
        BYTE                   50
        BYTE   W03
        BYTE                   44
        BYTE   W03
        BYTE                   38
        BYTE   W03
        BYTE                   31
        BYTE   W03
        BYTE                   25
        BYTE   W03
        BYTE                   19
        BYTE   W03
        BYTE                   13
        BYTE   W36
// 001   ----------------------------------------
        BYTE   W96
// 002   ----------------------------------------
        BYTE   W96
// 003   ----------------------------------------
        BYTE   W96
// 004   ----------------------------------------
        BYTE   W24
ChapterIntro1_0_LOOP:
        BYTE   W72
// 005   ----------------------------------------
        BYTE   W96
// 006   ----------------------------------------
        BYTE   W96
// 007   ----------------------------------------
        BYTE   W96
// 008   ----------------------------------------
        BYTE   W96
// 009   ----------------------------------------
        BYTE   W96
// 010   ----------------------------------------
        BYTE   W96
// 011   ----------------------------------------
        BYTE   W96
// 012   ----------------------------------------
        BYTE   W96
// 013   ----------------------------------------
        BYTE   W96
// 014   ----------------------------------------
        BYTE   W96
// 015   ----------------------------------------
        BYTE   W96
// 016   ----------------------------------------
        BYTE   W96
// 017   ----------------------------------------
        BYTE   W96
// 018   ----------------------------------------
        BYTE   W96
// 019   ----------------------------------------
        BYTE   W96
// 020   ----------------------------------------
        BYTE   W24
        BYTE   GoTo
         POIN2  ChapterIntro1_0_LOOP
        BYTE   FINE

//****************** Track 1 (Midi-Chn.3) ******************//

ChapterIntro1_1:
        BYTE   KEYSH   ChapterIntro1_key+0
// 000   ----------------------------------------
        BYTE           VOICE   111
        BYTE           VOL     63
        BYTE   W54
        BYTE           N24     Ds4   v100
        BYTE   W42
// 001   ----------------------------------------
        BYTE   W96
// 002   ----------------------------------------
        BYTE   W96
// 003   ----------------------------------------
        BYTE   W96
// 004   ----------------------------------------
        BYTE   W24
ChapterIntro1_1_LOOP:
        BYTE   W72
// 005   ----------------------------------------
        BYTE   W96
// 006   ----------------------------------------
        BYTE   W96
// 007   ----------------------------------------
        BYTE   W96
// 008   ----------------------------------------
        BYTE   W96
// 009   ----------------------------------------
        BYTE   W96
// 010   ----------------------------------------
        BYTE   W96
// 011   ----------------------------------------
        BYTE   W96
// 012   ----------------------------------------
        BYTE   W96
// 013   ----------------------------------------
        BYTE   W96
// 014   ----------------------------------------
        BYTE   W96
// 015   ----------------------------------------
        BYTE   W96
// 016   ----------------------------------------
        BYTE   W96
// 017   ----------------------------------------
        BYTE   W96
// 018   ----------------------------------------
        BYTE   W96
// 019   ----------------------------------------
        BYTE   W96
// 020   ----------------------------------------
        BYTE   W24
        BYTE   GoTo
         POIN2  ChapterIntro1_1_LOOP
        BYTE   FINE

//****************** Track 2 (Midi-Chn.4) ******************//

ChapterIntro1_2:
        BYTE   KEYSH   ChapterIntro1_key+0
// 000   ----------------------------------------
        BYTE           VOICE   81
        BYTE           VOL     79
        BYTE   W78
        BYTE           N12     Gn2   v100
        BYTE   W12
        BYTE                   Gn2
        BYTE   W06
// 001   ----------------------------------------
ChapterIntro1_2_1:
        BYTE   W18
        BYTE           N12     Fn2   v100
        BYTE   W12
        BYTE                   Gn2
        BYTE   W12
        BYTE                   Gn2
        BYTE   W24
        BYTE                   Fn2
        BYTE   W12
        BYTE                   Gn2
        BYTE   W12
        BYTE                   Gn2
        BYTE   W06
        BYTE   PEND
// 002   ----------------------------------------
ChapterIntro1_2_2:
        BYTE   W18
        BYTE           N12     Fn2   v100
        BYTE   W12
        BYTE                   Gn2
        BYTE   W12
        BYTE                   Gn2
        BYTE   W24
        BYTE                   As2
        BYTE   W12
        BYTE                   Ds2
        BYTE   W12
        BYTE                   Ds2
        BYTE   W06
        BYTE   PEND
// 003   ----------------------------------------
ChapterIntro1_2_3:
        BYTE   W18
        BYTE           N12     Dn2   v100
        BYTE   W12
        BYTE                   Ds2
        BYTE   W12
        BYTE                   Ds2
        BYTE   W24
        BYTE                   Dn2
        BYTE   W12
        BYTE                   Ds2
        BYTE   W12
        BYTE                   Ds2
        BYTE   W06
        BYTE   PEND
// 004   ----------------------------------------
        BYTE   W18
        BYTE                   Dn2
        BYTE   W06
ChapterIntro1_2_LOOP:
        BYTE   W06
        BYTE           N12     Ds2   v100
        BYTE   W12
        BYTE                   Ds2
        BYTE   W24
        BYTE                   Bn2
        BYTE   W12
        BYTE                   Cn3
        BYTE   W12
        BYTE                   Cn3
        BYTE   W06
// 005   ----------------------------------------
ChapterIntro1_2_5:
        BYTE   W18
        BYTE           N12     Bn2   v100
        BYTE   W12
        BYTE                   Cn3
        BYTE   W12
        BYTE                   Cn3
        BYTE   W24
        BYTE                   Bn2
        BYTE   W12
        BYTE                   Cn3
        BYTE   W12
        BYTE                   Cn3
        BYTE   W06
        BYTE   PEND
// 006   ----------------------------------------
ChapterIntro1_2_6:
        BYTE   W18
        BYTE           N12     Bn2   v100
        BYTE   W12
        BYTE                   Cn3
        BYTE   W12
        BYTE                   Cn3
        BYTE   W24
        BYTE                   Cs3
        BYTE   W12
        BYTE                   Dn3
        BYTE   W12
        BYTE                   Dn3
        BYTE   W06
        BYTE   PEND
// 007   ----------------------------------------
ChapterIntro1_2_7:
        BYTE   W18
        BYTE           N12     Cs3   v100
        BYTE   W12
        BYTE                   Dn3
        BYTE   W12
        BYTE                   Dn3
        BYTE   W24
        BYTE                   Cs3
        BYTE   W12
        BYTE                   Dn3
        BYTE   W12
        BYTE                   Dn3
        BYTE   W06
        BYTE   PEND
// 008   ----------------------------------------
ChapterIntro1_2_8:
        BYTE   W18
        BYTE           N12     Cs3   v100
        BYTE   W12
        BYTE                   Fn3
        BYTE   W12
        BYTE           N24     Fs3
        BYTE   W24
        BYTE           N12     An2
        BYTE   W12
        BYTE                   Gn2
        BYTE   W12
        BYTE                   Gn2
        BYTE   W06
        BYTE   PEND
// 009   ----------------------------------------
        BYTE   PATT
         POIN2  ChapterIntro1_2_1
// 010   ----------------------------------------
        BYTE   PATT
         POIN2  ChapterIntro1_2_2
// 011   ----------------------------------------
        BYTE   PATT
         POIN2  ChapterIntro1_2_3
// 012   ----------------------------------------
        BYTE   W18
        BYTE           N12     Dn2   v100
        BYTE   W12
        BYTE                   Ds2
        BYTE   W12
        BYTE                   Ds2
        BYTE   W24
        BYTE                   Fn2
        BYTE   W12
        BYTE                   Cn3
        BYTE   W12
        BYTE                   Cn3
        BYTE   W06
// 013   ----------------------------------------
        BYTE   PATT
         POIN2  ChapterIntro1_2_5
// 014   ----------------------------------------
        BYTE   PATT
         POIN2  ChapterIntro1_2_6
// 015   ----------------------------------------
        BYTE   PATT
         POIN2  ChapterIntro1_2_7
// 016   ----------------------------------------
        BYTE   PATT
         POIN2  ChapterIntro1_2_8
// 017   ----------------------------------------
        BYTE   PATT
         POIN2  ChapterIntro1_2_1
// 018   ----------------------------------------
        BYTE   W18
        BYTE           N12     Fn2   v100
        BYTE   W12
        BYTE                   Gn2
        BYTE   W12
        BYTE                   Gn2
        BYTE   W24
        BYTE                   As2
        BYTE   W30
// 019   ----------------------------------------
        BYTE   W96
// 020   ----------------------------------------
        BYTE   W24
        BYTE   GoTo
         POIN2  ChapterIntro1_2_LOOP
        BYTE   FINE

//****************** Track 3 (Midi-Chn.5) ******************//

ChapterIntro1_3:
        BYTE   KEYSH   ChapterIntro1_key+0
// 000   ----------------------------------------
        BYTE           VOICE   127
        BYTE           VOL     79
        BYTE   W96
// 001   ----------------------------------------
ChapterIntro1_3_1:
        BYTE   W06
        BYTE           N12     Cn3   v100
        BYTE   W48
        BYTE                   Cn3
        BYTE   W42
        BYTE   PEND
// 002   ----------------------------------------
        BYTE   PATT
         POIN2  ChapterIntro1_3_1
// 003   ----------------------------------------
        BYTE   PATT
         POIN2  ChapterIntro1_3_1
// 004   ----------------------------------------
        BYTE   W06
        BYTE           N12     Cn3   v100
        BYTE   W18
ChapterIntro1_3_LOOP:
        BYTE   W30
        BYTE           N12     Cn3   v100
        BYTE   W42
// 005   ----------------------------------------
        BYTE   PATT
         POIN2  ChapterIntro1_3_1
// 006   ----------------------------------------
        BYTE   PATT
         POIN2  ChapterIntro1_3_1
// 007   ----------------------------------------
        BYTE   PATT
         POIN2  ChapterIntro1_3_1
// 008   ----------------------------------------
        BYTE   PATT
         POIN2  ChapterIntro1_3_1
// 009   ----------------------------------------
        BYTE   PATT
         POIN2  ChapterIntro1_3_1
// 010   ----------------------------------------
        BYTE   PATT
         POIN2  ChapterIntro1_3_1
// 011   ----------------------------------------
        BYTE   PATT
         POIN2  ChapterIntro1_3_1
// 012   ----------------------------------------
        BYTE   PATT
         POIN2  ChapterIntro1_3_1
// 013   ----------------------------------------
        BYTE   PATT
         POIN2  ChapterIntro1_3_1
// 014   ----------------------------------------
        BYTE   PATT
         POIN2  ChapterIntro1_3_1
// 015   ----------------------------------------
        BYTE   PATT
         POIN2  ChapterIntro1_3_1
// 016   ----------------------------------------
        BYTE   PATT
         POIN2  ChapterIntro1_3_1
// 017   ----------------------------------------
        BYTE   PATT
         POIN2  ChapterIntro1_3_1
// 018   ----------------------------------------
        BYTE   PATT
         POIN2  ChapterIntro1_3_1
// 019   ----------------------------------------
        BYTE   W96
// 020   ----------------------------------------
        BYTE   W24
        BYTE   GoTo
         POIN2  ChapterIntro1_3_LOOP
        BYTE   FINE

//****************** Track 4 (Midi-Chn.6) ******************//

ChapterIntro1_4:
        BYTE   KEYSH   ChapterIntro1_key+0
// 000   ----------------------------------------
        BYTE           VOICE   127
        BYTE           VOL     79
        BYTE   W96
// 001   ----------------------------------------
ChapterIntro1_4_1:
        BYTE   W54
        BYTE           N12     Ds4   v100
        BYTE   W24
        BYTE                   Ds4
        BYTE   W18
        BYTE   PEND
// 002   ----------------------------------------
ChapterIntro1_4_2:
        BYTE   W06
        BYTE           N12     Ds4   v100
        BYTE   W12
        BYTE                   Ds4
        BYTE   W12
        BYTE                   Ds4
        BYTE   W24
        BYTE                   Ds4
        BYTE   W42
        BYTE   PEND
// 003   ----------------------------------------
        BYTE   PATT
         POIN2  ChapterIntro1_4_1
// 004   ----------------------------------------
        BYTE   W06
        BYTE           N12     Ds4   v100
        BYTE   W12
        BYTE                   Ds4
        BYTE   W06
ChapterIntro1_4_LOOP:
        BYTE   W06
        BYTE           N12     Ds4   v100
        BYTE   W24
        BYTE                   Ds4
        BYTE   W42
// 005   ----------------------------------------
        BYTE   PATT
         POIN2  ChapterIntro1_4_1
// 006   ----------------------------------------
        BYTE   PATT
         POIN2  ChapterIntro1_4_2
// 007   ----------------------------------------
        BYTE   PATT
         POIN2  ChapterIntro1_4_1
// 008   ----------------------------------------
        BYTE   PATT
         POIN2  ChapterIntro1_4_2
// 009   ----------------------------------------
        BYTE   PATT
         POIN2  ChapterIntro1_4_1
// 010   ----------------------------------------
        BYTE   PATT
         POIN2  ChapterIntro1_4_2
// 011   ----------------------------------------
        BYTE   PATT
         POIN2  ChapterIntro1_4_1
// 012   ----------------------------------------
        BYTE   PATT
         POIN2  ChapterIntro1_4_2
// 013   ----------------------------------------
        BYTE   PATT
         POIN2  ChapterIntro1_4_1
// 014   ----------------------------------------
        BYTE   PATT
         POIN2  ChapterIntro1_4_2
// 015   ----------------------------------------
        BYTE   PATT
         POIN2  ChapterIntro1_4_1
// 016   ----------------------------------------
        BYTE   PATT
         POIN2  ChapterIntro1_4_2
// 017   ----------------------------------------
        BYTE   PATT
         POIN2  ChapterIntro1_4_1
// 018   ----------------------------------------
        BYTE   PATT
         POIN2  ChapterIntro1_4_2
// 019   ----------------------------------------
        BYTE   W96
// 020   ----------------------------------------
        BYTE   W24
        BYTE   GoTo
         POIN2  ChapterIntro1_4_LOOP
        BYTE   FINE

//****************** Track 5 (Midi-Chn.7) ******************//

ChapterIntro1_5:
        BYTE   KEYSH   ChapterIntro1_key+0
// 000   ----------------------------------------
        BYTE           VOICE   91
        BYTE           VOL     38
        BYTE           PAN     c_v+63
        BYTE   W36
        BYTE           TIE     As3   v100
        BYTE   W03
        BYTE           PAN     c_v+61
        BYTE   W01
        BYTE                   c_v+56
        BYTE   W01
        BYTE                   c_v+51
        BYTE   W01
        BYTE                   c_v+46
        BYTE   W01
        BYTE                   c_v+41
        BYTE   W01
        BYTE                   c_v+36
        BYTE   W01
        BYTE                   c_v+31
        BYTE   W01
        BYTE                   c_v+26
        BYTE   W01
        BYTE                   c_v+21
        BYTE   W01
        BYTE                   c_v+16
        BYTE   W01
        BYTE                   c_v+11
        BYTE   W01
        BYTE                   c_v+6
        BYTE   W01
        BYTE                   c_v+1
        BYTE   W01
        BYTE                   c_v+0
        BYTE   W44
// 001   ----------------------------------------
        BYTE   W96
// 002   ----------------------------------------
        BYTE   W54
        BYTE           EOT
        BYTE   W42
// 003   ----------------------------------------
        BYTE   W96
// 004   ----------------------------------------
        BYTE   W24
ChapterIntro1_5_LOOP:
        BYTE   W72
// 005   ----------------------------------------
        BYTE   W96
// 006   ----------------------------------------
        BYTE   W96
// 007   ----------------------------------------
        BYTE   W96
// 008   ----------------------------------------
        BYTE   W96
// 009   ----------------------------------------
        BYTE   W96
// 010   ----------------------------------------
        BYTE   W96
// 011   ----------------------------------------
        BYTE   W96
// 012   ----------------------------------------
        BYTE   W96
// 013   ----------------------------------------
        BYTE   W96
// 014   ----------------------------------------
        BYTE   W96
// 015   ----------------------------------------
        BYTE   W96
// 016   ----------------------------------------
        BYTE   W96
// 017   ----------------------------------------
        BYTE   W96
// 018   ----------------------------------------
        BYTE   W96
// 019   ----------------------------------------
        BYTE   W96
// 020   ----------------------------------------
        BYTE   W24
        BYTE   GoTo
         POIN2  ChapterIntro1_5_LOOP
        BYTE   FINE

//****************** Track 6 (Midi-Chn.8) ******************//

ChapterIntro1_6:
        BYTE   KEYSH   ChapterIntro1_key+0
// 000   ----------------------------------------
        BYTE           VOICE   105
        BYTE           VOL     0
        BYTE   W78
        BYTE           TIE     Gn1   v100
        BYTE   W18
// 001   ----------------------------------------
        BYTE   W96
// 002   ----------------------------------------
        BYTE   W66
        BYTE           EOT
        BYTE           N12     As1
        BYTE   W12
        BYTE           TIE     Ds1
        BYTE   W13
        BYTE           VOL     6
        BYTE   W05
// 003   ----------------------------------------
        BYTE   W14
        BYTE                   13
        BYTE   W19
        BYTE                   19
        BYTE   W19
        BYTE                   25
        BYTE   W20
        BYTE                   31
        BYTE   W19
        BYTE                   38
        BYTE   W05
// 004   ----------------------------------------
        BYTE   W14
        BYTE                   44
        BYTE   W10
ChapterIntro1_6_LOOP:
        BYTE   W09
        BYTE           VOL     50
        BYTE   W19
        BYTE                   56
        BYTE   W14
        BYTE           EOT     Ds1
        BYTE           N12     Gn1   v100
        BYTE   W01
        BYTE           VOL     63
        BYTE   W11
        BYTE           TIE     Cn2
        BYTE   W18
// 005   ----------------------------------------
        BYTE   W96
// 006   ----------------------------------------
ChapterIntro1_6_6:
        BYTE   W66
        BYTE           EOT     Cn2
        BYTE           N12     Cs2   v100
        BYTE   W12
        BYTE           TIE     Dn2
        BYTE   W18
        BYTE   PEND
// 007   ----------------------------------------
        BYTE   W96
// 008   ----------------------------------------
ChapterIntro1_6_8:
        BYTE   W66
        BYTE           EOT     Dn2
        BYTE           N12     An1   v100
        BYTE   W12
        BYTE           TIE     Gn1
        BYTE   W18
        BYTE   PEND
// 009   ----------------------------------------
        BYTE   W96
// 010   ----------------------------------------
        BYTE   W66
        BYTE           EOT
        BYTE           N12     As1
        BYTE   W12
        BYTE           TIE     Ds1
        BYTE   W18
// 011   ----------------------------------------
        BYTE   W96
// 012   ----------------------------------------
        BYTE   W66
        BYTE           EOT
        BYTE           N12     Gn1
        BYTE   W12
        BYTE           TIE     Cn2
        BYTE   W18
// 013   ----------------------------------------
        BYTE   W96
// 014   ----------------------------------------
        BYTE   PATT
         POIN2  ChapterIntro1_6_6
// 015   ----------------------------------------
        BYTE   W96
// 016   ----------------------------------------
        BYTE   PATT
         POIN2  ChapterIntro1_6_8
// 017   ----------------------------------------
        BYTE   W96
// 018   ----------------------------------------
        BYTE   W66
        BYTE           EOT     Gn1
        BYTE           N12     As1   v100
        BYTE   W30
// 019   ----------------------------------------
        BYTE   W96
// 020   ----------------------------------------
        BYTE   W24
        BYTE           VOL     44
        BYTE   GoTo
         POIN2  ChapterIntro1_6_LOOP
        BYTE   FINE

//***************** Track 7 (Midi-Chn.10) ******************//

ChapterIntro1_7:
        BYTE   KEYSH   ChapterIntro1_key+0
// 000   ----------------------------------------
        BYTE   W28
        BYTE           VOICE   74
        BYTE   W04
        BYTE           VOL     63
        BYTE   W64
// 001   ----------------------------------------
        BYTE   W96
// 002   ----------------------------------------
        BYTE   W96
// 003   ----------------------------------------
        BYTE   W96
// 004   ----------------------------------------
        BYTE   W24
ChapterIntro1_7_LOOP:
        BYTE   W72
// 005   ----------------------------------------
        BYTE   W96
// 006   ----------------------------------------
        BYTE   W96
// 007   ----------------------------------------
        BYTE   W96
// 008   ----------------------------------------
        BYTE   W78
        BYTE           N24     Gn4   v100
        BYTE   W18
// 009   ----------------------------------------
        BYTE   W06
        BYTE           N12
        BYTE   W12
        BYTE                   Fs4
        BYTE   W12
        BYTE           N24     Gn4
        BYTE   W24
        BYTE           N12
        BYTE   W12
        BYTE                   Fs4
        BYTE   W12
        BYTE           N24     Gn4
        BYTE   W18
// 010   ----------------------------------------
        BYTE   W06
        BYTE           N12
        BYTE   W12
        BYTE                   Fs4
        BYTE   W12
        BYTE                   Gn4
        BYTE   W12
        BYTE                   As4
        BYTE   W12
        BYTE                   Gn4
        BYTE   W12
        BYTE                   Fs4
        BYTE   W12
        BYTE           N24     Ds4
        BYTE   W18
// 011   ----------------------------------------
        BYTE   W06
        BYTE           N12
        BYTE   W12
        BYTE                   Dn4
        BYTE   W12
        BYTE           N24     Ds4
        BYTE   W24
        BYTE           N12
        BYTE   W12
        BYTE                   Dn4
        BYTE   W12
        BYTE           N24     Ds4
        BYTE   W18
// 012   ----------------------------------------
        BYTE   W06
        BYTE           N12
        BYTE   W12
        BYTE                   Dn4
        BYTE   W12
        BYTE                   Ds4
        BYTE   W12
        BYTE                   Fs4
        BYTE   W12
        BYTE                   Ds4
        BYTE   W12
        BYTE                   Dn4
        BYTE   W12
        BYTE           N24     Cn4
        BYTE   W18
// 013   ----------------------------------------
        BYTE   W06
        BYTE           N12
        BYTE   W12
        BYTE                   Bn3
        BYTE   W12
        BYTE           N24     Cn4
        BYTE   W24
        BYTE           N12
        BYTE   W12
        BYTE                   Bn3
        BYTE   W12
        BYTE           N24     Cn4
        BYTE   W18
// 014   ----------------------------------------
        BYTE   W06
        BYTE           N12
        BYTE   W12
        BYTE                   Bn3
        BYTE   W12
        BYTE                   Cn4
        BYTE   W12
        BYTE                   Ds4
        BYTE   W12
        BYTE                   Cn4
        BYTE   W12
        BYTE                   Cs4
        BYTE   W12
        BYTE           N24     Dn4
        BYTE   W18
// 015   ----------------------------------------
        BYTE   W06
        BYTE           N12
        BYTE   W12
        BYTE                   Cs4
        BYTE   W12
        BYTE           N24     Dn4
        BYTE   W24
        BYTE           N12
        BYTE   W12
        BYTE                   Cs4
        BYTE   W12
        BYTE           N24     Dn4
        BYTE   W18
// 016   ----------------------------------------
        BYTE   W06
        BYTE           N12
        BYTE   W12
        BYTE                   Cs4
        BYTE   W12
        BYTE                   Dn4
        BYTE   W12
        BYTE           N24     Fs4
        BYTE   W54
// 017   ----------------------------------------
        BYTE   W96
// 018   ----------------------------------------
        BYTE   W96
// 019   ----------------------------------------
        BYTE   W96
// 020   ----------------------------------------
        BYTE   W24
        BYTE   GoTo
         POIN2  ChapterIntro1_7_LOOP
        BYTE   FINE


//********************** End of Song ***********************//

        ALIGN 4
ChapterIntro1:
        BYTE   8                       // Num Tracks
        BYTE   0                       // Unknown
        BYTE   ChapterIntro1_pri       // Priority
        BYTE   ChapterIntro1_rev       // Reverb

        POIN2   ChapterIntro1_grp      

        POIN2   ChapterIntro1_0
        POIN2   ChapterIntro1_1
        POIN2   ChapterIntro1_2
        POIN2   ChapterIntro1_3
        POIN2   ChapterIntro1_4
        POIN2   ChapterIntro1_5
        POIN2   ChapterIntro1_6
        POIN2   ChapterIntro1_7

        
