//Event file generated from Sappy .s format.
        #include "MPlayDef.event"

        #define    CloseQuarters_grp  OSRS
        #define    CloseQuarters_pri  0
        #define    CloseQuarters_rev  0
        #define    CloseQuarters_key  0

        // .rodata
        // CloseQuarters
        ALIGN 4

//****************** Track 0 (Midi-Chn.0) ******************//

CloseQuarters_0:
        BYTE   KEYSH   CloseQuarters_key+0
// 000   ----------------------------------------
        BYTE   TEMPO   150/2
        BYTE           VOICE   4
        BYTE           VOL     63
        BYTE           PAN     c_v-22
        BYTE   W96
// 001   ----------------------------------------
        BYTE   W96
// 002   ----------------------------------------
        BYTE   W96
// 003   ----------------------------------------
        BYTE   W96
// 004   ----------------------------------------
        BYTE   W96
// 005   ----------------------------------------
        BYTE   W96
// 006   ----------------------------------------
        BYTE   W96
// 007   ----------------------------------------
        BYTE   W96
// 008   ----------------------------------------
        BYTE   W96
// 009   ----------------------------------------
        BYTE   W96
// 010   ----------------------------------------
        BYTE   W96
// 011   ----------------------------------------
        BYTE   W96
// 012   ----------------------------------------
        BYTE   W96
// 013   ----------------------------------------
        BYTE   W96
// 014   ----------------------------------------
        BYTE   W96
// 015   ----------------------------------------
        BYTE   W96
// 016   ----------------------------------------
        BYTE   W96
// 017   ----------------------------------------
        BYTE   W96
// 018   ----------------------------------------
CloseQuarters_0_18:
        BYTE           TIE     Gs2   v112
        BYTE   W12
        BYTE                   Bn2   v076
        BYTE   W12
        BYTE                   Cs3   v088
        BYTE   W12
        BYTE                   Gs3   v112
        BYTE   W60
        BYTE   PEND
// 019   ----------------------------------------
        BYTE   W84
        BYTE   W03
        BYTE           EOT     Gs2
        BYTE   W09
// 020   ----------------------------------------
CloseQuarters_0_20:
        BYTE           EOT     Bn2
        BYTE           TIE     Gs2   v124
        BYTE   W02
        BYTE           EOT     Gs3
        BYTE   W01
        BYTE                   Cs3
        BYTE   W09
        BYTE           TIE     Bn2   v096
        BYTE   W12
        BYTE                   Cs3   v112
        BYTE   W12
        BYTE                   Gs3   v096
        BYTE   W12
        BYTE                   Fs3   v088
        BYTE   W48
        BYTE   PEND
// 021   ----------------------------------------
        BYTE   W84
        BYTE   W03
        BYTE           EOT     Gs2
        BYTE   W09
// 022   ----------------------------------------
CloseQuarters_0_22:
        BYTE           TIE     Gs2   v124
        BYTE   W02
        BYTE           EOT     Bn2
        BYTE   W01
        BYTE                   Fs3
        BYTE                   Gs3
        BYTE   W04
        BYTE                   Cs3
        BYTE   W05
        BYTE           TIE     Bn2   v112
        BYTE   W12
        BYTE                   Cs3
        BYTE   W12
        BYTE                   Gs3   v120
        BYTE   W60
        BYTE   PEND
// 023   ----------------------------------------
        BYTE   W84
        BYTE   W03
        BYTE           EOT     Gs2
        BYTE   W09
// 024   ----------------------------------------
CloseQuarters_0_24:
        BYTE           TIE     Gs2   v116
        BYTE   W01
        BYTE           EOT     Bn2
        BYTE   W02
        BYTE                   Cs3
        BYTE                   Gs3
        BYTE   W09
        BYTE           TIE     Bn2   v104
        BYTE   W12
        BYTE                   Cs3   v096
        BYTE   W12
        BYTE                   Gs3   v120
        BYTE   W12
        BYTE                   Fs3   v104
        BYTE   W48
        BYTE   PEND
// 025   ----------------------------------------
CloseQuarters_0_25:
        BYTE   W88
        BYTE   W01
        BYTE           EOT     Gs2
        BYTE   W01
        BYTE                   Cs3
        BYTE                   Fs3
        BYTE   W01
        BYTE                   Bn2
        BYTE                   Gs3
        BYTE   W05
        BYTE   PEND
// 026   ----------------------------------------
        BYTE   W96
// 027   ----------------------------------------
        BYTE   W96
// 028   ----------------------------------------
        BYTE   W96
// 029   ----------------------------------------
        BYTE   W96
// 030   ----------------------------------------
        BYTE   W96
// 031   ----------------------------------------
        BYTE   W96
// 032   ----------------------------------------
        BYTE   W96
// 033   ----------------------------------------
        BYTE   W96
// 034   ----------------------------------------
        BYTE   PATT
         POIN2  CloseQuarters_0_18
// 035   ----------------------------------------
        BYTE   W84
        BYTE   W03
        BYTE           EOT     Gs2
        BYTE   W09
// 036   ----------------------------------------
        BYTE   PATT
         POIN2  CloseQuarters_0_20
// 037   ----------------------------------------
        BYTE   W84
        BYTE   W03
        BYTE           EOT     Gs2
        BYTE   W09
// 038   ----------------------------------------
        BYTE   PATT
         POIN2  CloseQuarters_0_22
// 039   ----------------------------------------
        BYTE   W84
        BYTE   W03
        BYTE           EOT     Gs2
        BYTE   W09
// 040   ----------------------------------------
        BYTE   PATT
         POIN2  CloseQuarters_0_24
// 041   ----------------------------------------
        BYTE   PATT
         POIN2  CloseQuarters_0_25
// 042   ----------------------------------------
        BYTE   PATT
         POIN2  CloseQuarters_0_18
// 043   ----------------------------------------
        BYTE   W84
        BYTE   W03
        BYTE           EOT     Gs2
        BYTE   W09
// 044   ----------------------------------------
        BYTE   PATT
         POIN2  CloseQuarters_0_20
// 045   ----------------------------------------
        BYTE   W84
        BYTE   W03
        BYTE           EOT     Gs2
        BYTE   W09
// 046   ----------------------------------------
        BYTE   PATT
         POIN2  CloseQuarters_0_22
// 047   ----------------------------------------
        BYTE   W84
        BYTE   W03
        BYTE           EOT     Gs2
        BYTE   W09
// 048   ----------------------------------------
        BYTE   PATT
         POIN2  CloseQuarters_0_24
// 049   ----------------------------------------
        BYTE   PATT
         POIN2  CloseQuarters_0_25
// 050   ----------------------------------------
CloseQuarters_0_LOOP:
        BYTE           TIE     Gs2   v112
        BYTE   W12
        BYTE                   Bn2   v076
        BYTE   W12
        BYTE                   Cs3   v088
        BYTE   W12
        BYTE                   Gs3   v112
        BYTE   W60
// 051   ----------------------------------------
        BYTE   W84
        BYTE   W03
        BYTE           EOT     Gs2
        BYTE   W09
// 052   ----------------------------------------
        BYTE   PATT
         POIN2  CloseQuarters_0_20
// 053   ----------------------------------------
        BYTE   W84
        BYTE   W03
        BYTE           EOT     Gs2
        BYTE   W09
// 054   ----------------------------------------
        BYTE   PATT
         POIN2  CloseQuarters_0_22
// 055   ----------------------------------------
        BYTE   W84
        BYTE   W03
        BYTE           EOT     Gs2
        BYTE   W09
// 056   ----------------------------------------
        BYTE   PATT
         POIN2  CloseQuarters_0_24
// 057   ----------------------------------------
        BYTE   PATT
         POIN2  CloseQuarters_0_25
// 058   ----------------------------------------
        BYTE   PATT
         POIN2  CloseQuarters_0_18
// 059   ----------------------------------------
        BYTE   W84
        BYTE   W03
        BYTE           EOT     Gs2
        BYTE   W09
// 060   ----------------------------------------
        BYTE   PATT
         POIN2  CloseQuarters_0_20
// 061   ----------------------------------------
        BYTE   W84
        BYTE   W03
        BYTE           EOT     Gs2
        BYTE   W09
// 062   ----------------------------------------
        BYTE   PATT
         POIN2  CloseQuarters_0_22
// 063   ----------------------------------------
        BYTE   W84
        BYTE   W03
        BYTE           EOT     Gs2
        BYTE   W09
// 064   ----------------------------------------
        BYTE   PATT
         POIN2  CloseQuarters_0_24
// 065   ----------------------------------------
        BYTE   PATT
         POIN2  CloseQuarters_0_25
// 066   ----------------------------------------
        BYTE   W96
// 067   ----------------------------------------
        BYTE   W96
// 068   ----------------------------------------
        BYTE   W96
// 069   ----------------------------------------
        BYTE   W96
// 070   ----------------------------------------
        BYTE   W96
// 071   ----------------------------------------
        BYTE   W96
// 072   ----------------------------------------
        BYTE   W96
// 073   ----------------------------------------
        BYTE   W96
// 074   ----------------------------------------
        BYTE   PATT
         POIN2  CloseQuarters_0_18
// 075   ----------------------------------------
        BYTE   W84
        BYTE   W03
        BYTE           EOT     Gs2
        BYTE   W09
// 076   ----------------------------------------
        BYTE   PATT
         POIN2  CloseQuarters_0_20
// 077   ----------------------------------------
        BYTE   W84
        BYTE   W03
        BYTE           EOT     Gs2
        BYTE   W09
// 078   ----------------------------------------
        BYTE   PATT
         POIN2  CloseQuarters_0_22
// 079   ----------------------------------------
        BYTE   W84
        BYTE   W03
        BYTE           EOT     Gs2
        BYTE   W09
// 080   ----------------------------------------
        BYTE   PATT
         POIN2  CloseQuarters_0_24
// 081   ----------------------------------------
        BYTE   PATT
         POIN2  CloseQuarters_0_25
// 082   ----------------------------------------
        BYTE   PATT
         POIN2  CloseQuarters_0_18
// 083   ----------------------------------------
        BYTE   W84
        BYTE   W03
        BYTE           EOT     Gs2
        BYTE   W09
// 084   ----------------------------------------
        BYTE   PATT
         POIN2  CloseQuarters_0_20
// 085   ----------------------------------------
        BYTE   W84
        BYTE   W03
        BYTE           EOT     Gs2
        BYTE   W09
// 086   ----------------------------------------
        BYTE   PATT
         POIN2  CloseQuarters_0_22
// 087   ----------------------------------------
        BYTE   W84
        BYTE   W03
        BYTE           EOT     Gs2
        BYTE   W09
// 088   ----------------------------------------
        BYTE   PATT
         POIN2  CloseQuarters_0_24
// 089   ----------------------------------------
        BYTE   PATT
         POIN2  CloseQuarters_0_25
// 090   ----------------------------------------
        BYTE   W96
// 091   ----------------------------------------
        BYTE   W96
// 092   ----------------------------------------
        BYTE   W96
// 093   ----------------------------------------
        BYTE   W96
// 094   ----------------------------------------
        BYTE   W96
// 095   ----------------------------------------
        BYTE   W96
// 096   ----------------------------------------
        BYTE   W96
// 097   ----------------------------------------
        BYTE   W96
// 098   ----------------------------------------
        BYTE           N03     Cs2   v120
        BYTE   W12
        BYTE                   Cs2   v116
        BYTE   W24
        BYTE           N04     Cs2   v112
        BYTE   W12
        BYTE           N05     En2   v100
        BYTE   W12
        BYTE                   En2   v092
        BYTE   W24
        BYTE                   En2
        BYTE   W12
// 099   ----------------------------------------
        BYTE           N04     Ds2   v112
        BYTE   W12
        BYTE           N05     Ds2   v092
        BYTE   W24
        BYTE           N04     Ds2   v112
        BYTE   W12
        BYTE                   Fs2
        BYTE   W12
        BYTE           N05     Fs2   v116
        BYTE   W24
        BYTE                   Fs2   v112
        BYTE   W12
// 100   ----------------------------------------
        BYTE           N04     En2   v100
        BYTE   W12
        BYTE           N05     En2   v088
        BYTE   W24
        BYTE                   En2   v096
        BYTE   W12
        BYTE                   Gs2   v104
        BYTE   W12
        BYTE           N06     Gs2   v100
        BYTE   W24
        BYTE                   Gs2   v112
        BYTE   W12
// 101   ----------------------------------------
        BYTE           N05     Fs2
        BYTE   W12
        BYTE                   Fs2   v096
        BYTE   W24
        BYTE           N04     Fs2   v112
        BYTE   W12
        BYTE           N06     An2   v104
        BYTE   W12
        BYTE           N07
        BYTE   W24
        BYTE           N06     An2   v100
        BYTE   W12
// 102   ----------------------------------------
        BYTE           N05     Gs2   v112
        BYTE   W12
        BYTE           N06     Gs2   v096
        BYTE   W24
        BYTE           N05     Gs2   v104
        BYTE   W12
        BYTE                   Bn2   v108
        BYTE   W12
        BYTE           N06     Bn2   v092
        BYTE   W24
        BYTE           N05     Bn2   v104
        BYTE   W12
// 103   ----------------------------------------
        BYTE                   An2   v092
        BYTE   W12
        BYTE                   An2   v084
        BYTE   W24
        BYTE                   An2   v100
        BYTE   W12
        BYTE                   Cs3   v112
        BYTE   W12
        BYTE           N06     Cs3   v116
        BYTE   W24
        BYTE           N05     Cs3   v112
        BYTE   W12
// 104   ----------------------------------------
        BYTE                   Bn2   v100
        BYTE   W12
        BYTE           N06     Bn2   v092
        BYTE   W24
        BYTE           N05     Bn2   v100
        BYTE   W12
        BYTE                   Dn3   v108
        BYTE   W12
        BYTE           N07     Dn3   v084
        BYTE   W24
        BYTE           N05     Dn3   v112
        BYTE   W12
// 105   ----------------------------------------
        BYTE           N03     Cs3   v120
        BYTE           N03     Cs2   v112
        BYTE   W12
        BYTE           N04     Cs3   v104
        BYTE           N05     Cs2   v116
        BYTE   W12
        BYTE           N04     Dn3   v100
        BYTE           N04     Dn2   v088
        BYTE   W12
        BYTE           N05     Dn3   v080
        BYTE           N05     Dn2   v092
        BYTE   W12
        BYTE           N04     Cs3   v112
        BYTE           N04     Cs2   v116
        BYTE   W12
        BYTE                   Cs3   v112
        BYTE           N04     Cs2   v116
        BYTE   W36
// 106   ----------------------------------------
        BYTE   PATT
         POIN2  CloseQuarters_0_18
// 107   ----------------------------------------
        BYTE   W84
        BYTE   W03
        BYTE           EOT     Gs2
        BYTE   W09
// 108   ----------------------------------------
        BYTE   PATT
         POIN2  CloseQuarters_0_20
// 109   ----------------------------------------
        BYTE   W84
        BYTE   W03
        BYTE           EOT     Gs2
        BYTE   W09
// 110   ----------------------------------------
        BYTE   PATT
         POIN2  CloseQuarters_0_22
// 111   ----------------------------------------
        BYTE   W84
        BYTE   W03
        BYTE           EOT     Gs2
        BYTE   W09
// 112   ----------------------------------------
        BYTE   PATT
         POIN2  CloseQuarters_0_24
// 113   ----------------------------------------
        BYTE   PATT
         POIN2  CloseQuarters_0_25
// 114   ----------------------------------------
        BYTE   GoTo
         POIN2  CloseQuarters_0_LOOP
        BYTE   FINE

//****************** Track 1 (Midi-Chn.1) ******************//

CloseQuarters_1:
        BYTE   KEYSH   CloseQuarters_key+0
// 000   ----------------------------------------
        BYTE           VOICE   45
        BYTE           VOL     70
        BYTE           PAN     c_v+15
        BYTE   W96
// 001   ----------------------------------------
        BYTE   W96
// 002   ----------------------------------------
CloseQuarters_1_2:
        BYTE           N04     Cs1   v124
        BYTE   W36
        BYTE           N05     En1   v120
        BYTE   W36
        BYTE           N06     Fn1   v104
        BYTE   W24
        BYTE   PEND
// 003   ----------------------------------------
CloseQuarters_1_3:
        BYTE   W24
        BYTE           N06     Fn1   v100
        BYTE   W24
        BYTE           N05     En1   v104
        BYTE   W48
        BYTE   PEND
// 004   ----------------------------------------
CloseQuarters_1_4:
        BYTE           N07     Cs1   v104
        BYTE   W36
        BYTE           N06     En1
        BYTE   W36
        BYTE           N05     Fn1   v112
        BYTE   W24
        BYTE   PEND
// 005   ----------------------------------------
CloseQuarters_1_5:
        BYTE   W24
        BYTE           N04     En1   v112
        BYTE   W24
        BYTE           N07     Cs1   v104
        BYTE   W48
        BYTE   PEND
// 006   ----------------------------------------
CloseQuarters_1_6:
        BYTE           N06     Cs1   v112
        BYTE   W36
        BYTE           N05     En1   v104
        BYTE   W36
        BYTE           N06     Fn1   v100
        BYTE   W24
        BYTE   PEND
// 007   ----------------------------------------
CloseQuarters_1_7:
        BYTE   W24
        BYTE           N06     Fn1   v100
        BYTE   W24
        BYTE                   En1   v108
        BYTE   W48
        BYTE   PEND
// 008   ----------------------------------------
CloseQuarters_1_8:
        BYTE           N05     Cs1   v112
        BYTE   W36
        BYTE                   En1   v100
        BYTE   W36
        BYTE                   Fn1   v108
        BYTE   W24
        BYTE   PEND
// 009   ----------------------------------------
CloseQuarters_1_9:
        BYTE   W24
        BYTE           N04     En1   v104
        BYTE   W24
        BYTE                   Cs1   v112
        BYTE   W48
        BYTE   PEND
// 010   ----------------------------------------
        BYTE   PATT
         POIN2  CloseQuarters_1_2
// 011   ----------------------------------------
        BYTE   PATT
         POIN2  CloseQuarters_1_3
// 012   ----------------------------------------
        BYTE   PATT
         POIN2  CloseQuarters_1_4
// 013   ----------------------------------------
        BYTE   PATT
         POIN2  CloseQuarters_1_5
// 014   ----------------------------------------
        BYTE   PATT
         POIN2  CloseQuarters_1_6
// 015   ----------------------------------------
        BYTE   PATT
         POIN2  CloseQuarters_1_7
// 016   ----------------------------------------
        BYTE   PATT
         POIN2  CloseQuarters_1_8
// 017   ----------------------------------------
        BYTE   PATT
         POIN2  CloseQuarters_1_9
// 018   ----------------------------------------
        BYTE   PATT
         POIN2  CloseQuarters_1_2
// 019   ----------------------------------------
        BYTE   PATT
         POIN2  CloseQuarters_1_3
// 020   ----------------------------------------
        BYTE   PATT
         POIN2  CloseQuarters_1_4
// 021   ----------------------------------------
        BYTE   PATT
         POIN2  CloseQuarters_1_5
// 022   ----------------------------------------
        BYTE   PATT
         POIN2  CloseQuarters_1_6
// 023   ----------------------------------------
        BYTE   PATT
         POIN2  CloseQuarters_1_7
// 024   ----------------------------------------
        BYTE   PATT
         POIN2  CloseQuarters_1_8
// 025   ----------------------------------------
        BYTE   PATT
         POIN2  CloseQuarters_1_9
// 026   ----------------------------------------
        BYTE   PATT
         POIN2  CloseQuarters_1_2
// 027   ----------------------------------------
        BYTE   PATT
         POIN2  CloseQuarters_1_3
// 028   ----------------------------------------
        BYTE   PATT
         POIN2  CloseQuarters_1_4
// 029   ----------------------------------------
        BYTE   PATT
         POIN2  CloseQuarters_1_5
// 030   ----------------------------------------
        BYTE   PATT
         POIN2  CloseQuarters_1_6
// 031   ----------------------------------------
        BYTE   PATT
         POIN2  CloseQuarters_1_7
// 032   ----------------------------------------
        BYTE   PATT
         POIN2  CloseQuarters_1_8
// 033   ----------------------------------------
        BYTE   PATT
         POIN2  CloseQuarters_1_9
// 034   ----------------------------------------
        BYTE   PATT
         POIN2  CloseQuarters_1_2
// 035   ----------------------------------------
        BYTE   PATT
         POIN2  CloseQuarters_1_3
// 036   ----------------------------------------
        BYTE   PATT
         POIN2  CloseQuarters_1_4
// 037   ----------------------------------------
        BYTE   PATT
         POIN2  CloseQuarters_1_5
// 038   ----------------------------------------
        BYTE   PATT
         POIN2  CloseQuarters_1_6
// 039   ----------------------------------------
        BYTE   PATT
         POIN2  CloseQuarters_1_7
// 040   ----------------------------------------
        BYTE   PATT
         POIN2  CloseQuarters_1_8
// 041   ----------------------------------------
        BYTE   PATT
         POIN2  CloseQuarters_1_9
// 042   ----------------------------------------
        BYTE   PATT
         POIN2  CloseQuarters_1_2
// 043   ----------------------------------------
        BYTE   PATT
         POIN2  CloseQuarters_1_3
// 044   ----------------------------------------
        BYTE   PATT
         POIN2  CloseQuarters_1_4
// 045   ----------------------------------------
        BYTE   PATT
         POIN2  CloseQuarters_1_5
// 046   ----------------------------------------
        BYTE   PATT
         POIN2  CloseQuarters_1_6
// 047   ----------------------------------------
        BYTE   PATT
         POIN2  CloseQuarters_1_7
// 048   ----------------------------------------
        BYTE   PATT
         POIN2  CloseQuarters_1_8
// 049   ----------------------------------------
        BYTE   PATT
         POIN2  CloseQuarters_1_9
// 050   ----------------------------------------
CloseQuarters_1_LOOP:
        BYTE           N04     Cs1   v124
        BYTE   W36
        BYTE           N05     En1   v120
        BYTE   W36
        BYTE           N06     Fn1   v104
        BYTE   W24
// 051   ----------------------------------------
        BYTE   PATT
         POIN2  CloseQuarters_1_3
// 052   ----------------------------------------
        BYTE   PATT
         POIN2  CloseQuarters_1_4
// 053   ----------------------------------------
        BYTE   PATT
         POIN2  CloseQuarters_1_5
// 054   ----------------------------------------
        BYTE   PATT
         POIN2  CloseQuarters_1_6
// 055   ----------------------------------------
        BYTE   PATT
         POIN2  CloseQuarters_1_7
// 056   ----------------------------------------
        BYTE   PATT
         POIN2  CloseQuarters_1_8
// 057   ----------------------------------------
        BYTE   PATT
         POIN2  CloseQuarters_1_9
// 058   ----------------------------------------
        BYTE   PATT
         POIN2  CloseQuarters_1_2
// 059   ----------------------------------------
        BYTE   PATT
         POIN2  CloseQuarters_1_3
// 060   ----------------------------------------
        BYTE   PATT
         POIN2  CloseQuarters_1_4
// 061   ----------------------------------------
        BYTE   PATT
         POIN2  CloseQuarters_1_5
// 062   ----------------------------------------
        BYTE   PATT
         POIN2  CloseQuarters_1_6
// 063   ----------------------------------------
        BYTE   PATT
         POIN2  CloseQuarters_1_7
// 064   ----------------------------------------
        BYTE   PATT
         POIN2  CloseQuarters_1_8
// 065   ----------------------------------------
        BYTE   PATT
         POIN2  CloseQuarters_1_9
// 066   ----------------------------------------
        BYTE   PATT
         POIN2  CloseQuarters_1_2
// 067   ----------------------------------------
        BYTE   PATT
         POIN2  CloseQuarters_1_3
// 068   ----------------------------------------
        BYTE   PATT
         POIN2  CloseQuarters_1_4
// 069   ----------------------------------------
        BYTE   PATT
         POIN2  CloseQuarters_1_5
// 070   ----------------------------------------
        BYTE   PATT
         POIN2  CloseQuarters_1_6
// 071   ----------------------------------------
        BYTE   PATT
         POIN2  CloseQuarters_1_7
// 072   ----------------------------------------
        BYTE   PATT
         POIN2  CloseQuarters_1_8
// 073   ----------------------------------------
        BYTE   PATT
         POIN2  CloseQuarters_1_9
// 074   ----------------------------------------
        BYTE   PATT
         POIN2  CloseQuarters_1_2
// 075   ----------------------------------------
        BYTE   PATT
         POIN2  CloseQuarters_1_3
// 076   ----------------------------------------
        BYTE   PATT
         POIN2  CloseQuarters_1_4
// 077   ----------------------------------------
        BYTE   PATT
         POIN2  CloseQuarters_1_5
// 078   ----------------------------------------
        BYTE   PATT
         POIN2  CloseQuarters_1_6
// 079   ----------------------------------------
        BYTE   PATT
         POIN2  CloseQuarters_1_7
// 080   ----------------------------------------
        BYTE   PATT
         POIN2  CloseQuarters_1_8
// 081   ----------------------------------------
        BYTE   PATT
         POIN2  CloseQuarters_1_9
// 082   ----------------------------------------
        BYTE   PATT
         POIN2  CloseQuarters_1_2
// 083   ----------------------------------------
        BYTE   PATT
         POIN2  CloseQuarters_1_3
// 084   ----------------------------------------
        BYTE   PATT
         POIN2  CloseQuarters_1_4
// 085   ----------------------------------------
        BYTE   PATT
         POIN2  CloseQuarters_1_5
// 086   ----------------------------------------
        BYTE   PATT
         POIN2  CloseQuarters_1_6
// 087   ----------------------------------------
        BYTE   PATT
         POIN2  CloseQuarters_1_7
// 088   ----------------------------------------
        BYTE   PATT
         POIN2  CloseQuarters_1_8
// 089   ----------------------------------------
        BYTE   PATT
         POIN2  CloseQuarters_1_9
// 090   ----------------------------------------
        BYTE   PATT
         POIN2  CloseQuarters_1_2
// 091   ----------------------------------------
        BYTE   PATT
         POIN2  CloseQuarters_1_3
// 092   ----------------------------------------
        BYTE   PATT
         POIN2  CloseQuarters_1_4
// 093   ----------------------------------------
        BYTE   PATT
         POIN2  CloseQuarters_1_5
// 094   ----------------------------------------
        BYTE   PATT
         POIN2  CloseQuarters_1_6
// 095   ----------------------------------------
        BYTE   PATT
         POIN2  CloseQuarters_1_7
// 096   ----------------------------------------
        BYTE   PATT
         POIN2  CloseQuarters_1_8
// 097   ----------------------------------------
        BYTE   PATT
         POIN2  CloseQuarters_1_9
// 098   ----------------------------------------
        BYTE   PATT
         POIN2  CloseQuarters_1_2
// 099   ----------------------------------------
        BYTE   PATT
         POIN2  CloseQuarters_1_3
// 100   ----------------------------------------
        BYTE   PATT
         POIN2  CloseQuarters_1_4
// 101   ----------------------------------------
        BYTE   PATT
         POIN2  CloseQuarters_1_5
// 102   ----------------------------------------
        BYTE   PATT
         POIN2  CloseQuarters_1_6
// 103   ----------------------------------------
        BYTE   PATT
         POIN2  CloseQuarters_1_7
// 104   ----------------------------------------
        BYTE   PATT
         POIN2  CloseQuarters_1_8
// 105   ----------------------------------------
        BYTE   PATT
         POIN2  CloseQuarters_1_9
// 106   ----------------------------------------
        BYTE   PATT
         POIN2  CloseQuarters_1_2
// 107   ----------------------------------------
        BYTE   PATT
         POIN2  CloseQuarters_1_3
// 108   ----------------------------------------
        BYTE   PATT
         POIN2  CloseQuarters_1_4
// 109   ----------------------------------------
        BYTE   PATT
         POIN2  CloseQuarters_1_5
// 110   ----------------------------------------
        BYTE   PATT
         POIN2  CloseQuarters_1_6
// 111   ----------------------------------------
        BYTE   PATT
         POIN2  CloseQuarters_1_7
// 112   ----------------------------------------
        BYTE   PATT
         POIN2  CloseQuarters_1_8
// 113   ----------------------------------------
        BYTE   PATT
         POIN2  CloseQuarters_1_9
// 114   ----------------------------------------
        BYTE   GoTo
         POIN2  CloseQuarters_1_LOOP
        BYTE   FINE

//****************** Track 2 (Midi-Chn.2) ******************//

CloseQuarters_2:
        BYTE   KEYSH   CloseQuarters_key+0
// 000   ----------------------------------------
        BYTE           VOICE   45
        BYTE           VOL     64
        BYTE           PAN     c_v-26
        BYTE   W96
// 001   ----------------------------------------
        BYTE   W96
// 002   ----------------------------------------
CloseQuarters_2_2:
        BYTE           N04     Cs2   v116
        BYTE           N04     Cs1   v124
        BYTE   W36
        BYTE           N05     Cs2   v104
        BYTE           N05     Cs1   v112
        BYTE   W12
        BYTE           N06     Bn1   v108
        BYTE           N06     Bn0   v104
        BYTE   W24
        BYTE           N04     Cs2   v116
        BYTE           N04     Cs1   v120
        BYTE   W24
        BYTE   PEND
// 003   ----------------------------------------
CloseQuarters_2_3:
        BYTE   W24
        BYTE           N04     Fn2   v108
        BYTE           N04     Fn1   v100
        BYTE   W12
        BYTE                   Fn2   v096
        BYTE           N04     Fn1   v100
        BYTE   W12
        BYTE                   En2   v084
        BYTE           N04     En1   v100
        BYTE   W06
        BYTE           N05     En1   v084
        BYTE   W06
        BYTE                   En2   v080
        BYTE   W12
        BYTE           N04     Dn2   v092
        BYTE           N05     Dn1   v100
        BYTE   W12
        BYTE           N04     Dn2   v084
        BYTE           N05     Dn1   v096
        BYTE   W12
        BYTE   PEND
// 004   ----------------------------------------
CloseQuarters_2_4:
        BYTE           N04     Cs2   v112
        BYTE           N04     Cs1   v124
        BYTE   W36
        BYTE           N05     Cs2   v112
        BYTE           N04     Cs1
        BYTE   W12
        BYTE           N07     Bn1   v100
        BYTE           N06     Bn0   v108
        BYTE   W24
        BYTE           N04     Cs2   v124
        BYTE           N04     Cs1   v120
        BYTE   W24
        BYTE   PEND
// 005   ----------------------------------------
CloseQuarters_2_5:
        BYTE   W24
        BYTE           N05     Dn2   v112
        BYTE           N05     Dn1
        BYTE   W12
        BYTE                   Dn2
        BYTE           N05     Dn1   v104
        BYTE   W12
        BYTE                   Cs2   v112
        BYTE           N05     Cs1   v116
        BYTE   W48
        BYTE   PEND
// 006   ----------------------------------------
        BYTE   PATT
         POIN2  CloseQuarters_2_2
// 007   ----------------------------------------
        BYTE   PATT
         POIN2  CloseQuarters_2_3
// 008   ----------------------------------------
        BYTE   PATT
         POIN2  CloseQuarters_2_4
// 009   ----------------------------------------
        BYTE   PATT
         POIN2  CloseQuarters_2_5
// 010   ----------------------------------------
        BYTE   PATT
         POIN2  CloseQuarters_2_2
// 011   ----------------------------------------
        BYTE   PATT
         POIN2  CloseQuarters_2_3
// 012   ----------------------------------------
        BYTE   PATT
         POIN2  CloseQuarters_2_4
// 013   ----------------------------------------
        BYTE   PATT
         POIN2  CloseQuarters_2_5
// 014   ----------------------------------------
        BYTE   PATT
         POIN2  CloseQuarters_2_2
// 015   ----------------------------------------
        BYTE   PATT
         POIN2  CloseQuarters_2_3
// 016   ----------------------------------------
        BYTE   PATT
         POIN2  CloseQuarters_2_4
// 017   ----------------------------------------
        BYTE   PATT
         POIN2  CloseQuarters_2_5
// 018   ----------------------------------------
        BYTE   PATT
         POIN2  CloseQuarters_2_2
// 019   ----------------------------------------
        BYTE   PATT
         POIN2  CloseQuarters_2_3
// 020   ----------------------------------------
        BYTE   PATT
         POIN2  CloseQuarters_2_4
// 021   ----------------------------------------
        BYTE   PATT
         POIN2  CloseQuarters_2_5
// 022   ----------------------------------------
        BYTE   PATT
         POIN2  CloseQuarters_2_2
// 023   ----------------------------------------
        BYTE   PATT
         POIN2  CloseQuarters_2_3
// 024   ----------------------------------------
        BYTE   PATT
         POIN2  CloseQuarters_2_4
// 025   ----------------------------------------
        BYTE   PATT
         POIN2  CloseQuarters_2_5
// 026   ----------------------------------------
        BYTE   PATT
         POIN2  CloseQuarters_2_2
// 027   ----------------------------------------
        BYTE   PATT
         POIN2  CloseQuarters_2_3
// 028   ----------------------------------------
        BYTE   PATT
         POIN2  CloseQuarters_2_4
// 029   ----------------------------------------
        BYTE   PATT
         POIN2  CloseQuarters_2_5
// 030   ----------------------------------------
        BYTE   PATT
         POIN2  CloseQuarters_2_2
// 031   ----------------------------------------
        BYTE   PATT
         POIN2  CloseQuarters_2_3
// 032   ----------------------------------------
        BYTE   PATT
         POIN2  CloseQuarters_2_4
// 033   ----------------------------------------
        BYTE   PATT
         POIN2  CloseQuarters_2_5
// 034   ----------------------------------------
        BYTE   PATT
         POIN2  CloseQuarters_2_2
// 035   ----------------------------------------
        BYTE   PATT
         POIN2  CloseQuarters_2_3
// 036   ----------------------------------------
        BYTE   PATT
         POIN2  CloseQuarters_2_4
// 037   ----------------------------------------
        BYTE   PATT
         POIN2  CloseQuarters_2_5
// 038   ----------------------------------------
        BYTE   PATT
         POIN2  CloseQuarters_2_2
// 039   ----------------------------------------
        BYTE   PATT
         POIN2  CloseQuarters_2_3
// 040   ----------------------------------------
        BYTE   PATT
         POIN2  CloseQuarters_2_4
// 041   ----------------------------------------
        BYTE   PATT
         POIN2  CloseQuarters_2_5
// 042   ----------------------------------------
        BYTE   PATT
         POIN2  CloseQuarters_2_2
// 043   ----------------------------------------
        BYTE   PATT
         POIN2  CloseQuarters_2_3
// 044   ----------------------------------------
        BYTE   PATT
         POIN2  CloseQuarters_2_4
// 045   ----------------------------------------
        BYTE   PATT
         POIN2  CloseQuarters_2_5
// 046   ----------------------------------------
        BYTE   PATT
         POIN2  CloseQuarters_2_2
// 047   ----------------------------------------
        BYTE   PATT
         POIN2  CloseQuarters_2_3
// 048   ----------------------------------------
        BYTE   PATT
         POIN2  CloseQuarters_2_4
// 049   ----------------------------------------
        BYTE   PATT
         POIN2  CloseQuarters_2_5
// 050   ----------------------------------------
CloseQuarters_2_LOOP:
        BYTE           N04     Cs2   v116
        BYTE           N04     Cs1   v124
        BYTE   W36
        BYTE           N05     Cs2   v104
        BYTE           N05     Cs1   v112
        BYTE   W12
        BYTE           N06     Bn1   v108
        BYTE           N06     Bn0   v104
        BYTE   W24
        BYTE           N04     Cs2   v116
        BYTE           N04     Cs1   v120
        BYTE   W24
// 051   ----------------------------------------
        BYTE   PATT
         POIN2  CloseQuarters_2_3
// 052   ----------------------------------------
        BYTE   PATT
         POIN2  CloseQuarters_2_4
// 053   ----------------------------------------
        BYTE   PATT
         POIN2  CloseQuarters_2_5
// 054   ----------------------------------------
        BYTE   PATT
         POIN2  CloseQuarters_2_2
// 055   ----------------------------------------
        BYTE   PATT
         POIN2  CloseQuarters_2_3
// 056   ----------------------------------------
        BYTE   PATT
         POIN2  CloseQuarters_2_4
// 057   ----------------------------------------
        BYTE   PATT
         POIN2  CloseQuarters_2_5
// 058   ----------------------------------------
        BYTE   PATT
         POIN2  CloseQuarters_2_2
// 059   ----------------------------------------
        BYTE   PATT
         POIN2  CloseQuarters_2_3
// 060   ----------------------------------------
        BYTE   PATT
         POIN2  CloseQuarters_2_4
// 061   ----------------------------------------
        BYTE   PATT
         POIN2  CloseQuarters_2_5
// 062   ----------------------------------------
        BYTE   PATT
         POIN2  CloseQuarters_2_2
// 063   ----------------------------------------
        BYTE   PATT
         POIN2  CloseQuarters_2_3
// 064   ----------------------------------------
        BYTE   PATT
         POIN2  CloseQuarters_2_4
// 065   ----------------------------------------
        BYTE   PATT
         POIN2  CloseQuarters_2_5
// 066   ----------------------------------------
        BYTE   PATT
         POIN2  CloseQuarters_2_2
// 067   ----------------------------------------
        BYTE   PATT
         POIN2  CloseQuarters_2_3
// 068   ----------------------------------------
        BYTE   PATT
         POIN2  CloseQuarters_2_4
// 069   ----------------------------------------
        BYTE   PATT
         POIN2  CloseQuarters_2_5
// 070   ----------------------------------------
        BYTE   PATT
         POIN2  CloseQuarters_2_2
// 071   ----------------------------------------
        BYTE   PATT
         POIN2  CloseQuarters_2_3
// 072   ----------------------------------------
        BYTE   PATT
         POIN2  CloseQuarters_2_4
// 073   ----------------------------------------
        BYTE   PATT
         POIN2  CloseQuarters_2_5
// 074   ----------------------------------------
        BYTE   PATT
         POIN2  CloseQuarters_2_2
// 075   ----------------------------------------
        BYTE   PATT
         POIN2  CloseQuarters_2_3
// 076   ----------------------------------------
        BYTE   PATT
         POIN2  CloseQuarters_2_4
// 077   ----------------------------------------
        BYTE   PATT
         POIN2  CloseQuarters_2_5
// 078   ----------------------------------------
        BYTE   PATT
         POIN2  CloseQuarters_2_2
// 079   ----------------------------------------
        BYTE   PATT
         POIN2  CloseQuarters_2_3
// 080   ----------------------------------------
        BYTE   PATT
         POIN2  CloseQuarters_2_4
// 081   ----------------------------------------
        BYTE   PATT
         POIN2  CloseQuarters_2_5
// 082   ----------------------------------------
        BYTE   PATT
         POIN2  CloseQuarters_2_2
// 083   ----------------------------------------
        BYTE   PATT
         POIN2  CloseQuarters_2_3
// 084   ----------------------------------------
        BYTE   PATT
         POIN2  CloseQuarters_2_4
// 085   ----------------------------------------
        BYTE   PATT
         POIN2  CloseQuarters_2_5
// 086   ----------------------------------------
        BYTE   PATT
         POIN2  CloseQuarters_2_2
// 087   ----------------------------------------
        BYTE   PATT
         POIN2  CloseQuarters_2_3
// 088   ----------------------------------------
        BYTE   PATT
         POIN2  CloseQuarters_2_4
// 089   ----------------------------------------
        BYTE   PATT
         POIN2  CloseQuarters_2_5
// 090   ----------------------------------------
        BYTE   PATT
         POIN2  CloseQuarters_2_2
// 091   ----------------------------------------
        BYTE   PATT
         POIN2  CloseQuarters_2_3
// 092   ----------------------------------------
        BYTE   PATT
         POIN2  CloseQuarters_2_4
// 093   ----------------------------------------
        BYTE   PATT
         POIN2  CloseQuarters_2_5
// 094   ----------------------------------------
        BYTE   PATT
         POIN2  CloseQuarters_2_2
// 095   ----------------------------------------
        BYTE   PATT
         POIN2  CloseQuarters_2_3
// 096   ----------------------------------------
        BYTE   PATT
         POIN2  CloseQuarters_2_4
// 097   ----------------------------------------
        BYTE   PATT
         POIN2  CloseQuarters_2_5
// 098   ----------------------------------------
        BYTE           N03     Gs3   v092
        BYTE           N04     Cs2   v116
        BYTE           N04     Cs1   v124
        BYTE   W12
        BYTE                   Gs3   v084
        BYTE   W12
        BYTE           N02     Gs3   v060
        BYTE   W12
        BYTE           N04     Gs3   v104
        BYTE           N05     Cs2
        BYTE           N05     Cs1   v112
        BYTE   W12
        BYTE           N03     Gs3   v084
        BYTE           N06     Bn1   v108
        BYTE           N06     Bn0   v104
        BYTE   W12
        BYTE           N04     Gs3   v092
        BYTE   W12
        BYTE                   Gs3   v088
        BYTE           N04     Cs2   v116
        BYTE           N04     Cs1   v120
        BYTE   W24
// 099   ----------------------------------------
        BYTE                   Gs3   v104
        BYTE   W24
        BYTE           N05
        BYTE           N04     Fn2   v108
        BYTE           N04     Fn1   v100
        BYTE   W12
        BYTE           N03     Gs3   v084
        BYTE           N04     Fn2   v096
        BYTE           N04     Fn1   v100
        BYTE   W12
        BYTE                   Gs3   v096
        BYTE           N04     En2   v084
        BYTE           N04     En1   v100
        BYTE   W06
        BYTE           N05     En1   v084
        BYTE   W06
        BYTE           N04     Gs3   v096
        BYTE           N05     En2   v080
        BYTE   W12
        BYTE           N03     Gs3   v072
        BYTE           N04     Dn2   v092
        BYTE           N05     Dn1   v100
        BYTE   W12
        BYTE                   Gs3   v096
        BYTE           N04     Dn2   v084
        BYTE           N05     Dn1   v096
        BYTE   W12
// 100   ----------------------------------------
        BYTE           N04     Cs2   v112
        BYTE           N04     Cs1   v124
        BYTE   W12
        BYTE           N03     Gs3   v088
        BYTE   W12
        BYTE           N04
        BYTE   W12
        BYTE           N03     Gs3   v072
        BYTE           N05     Cs2   v112
        BYTE           N04     Cs1
        BYTE   W12
        BYTE                   Gs3   v096
        BYTE           N07     Bn1   v100
        BYTE           N06     Bn0   v108
        BYTE   W12
        BYTE           N04     Gs3   v088
        BYTE   W12
        BYTE           N03     Gs3   v084
        BYTE           N04     Cs2   v124
        BYTE           N04     Cs1   v120
        BYTE   W12
        BYTE           N05     Gs3   v096
        BYTE   W12
// 101   ----------------------------------------
        BYTE   W12
        BYTE                   Gs3   v092
        BYTE   W12
        BYTE                   Dn2   v112
        BYTE           N05     Dn1
        BYTE   W12
        BYTE           N03     Gs3   v088
        BYTE           N05     Dn2   v112
        BYTE           N05     Dn1   v104
        BYTE   W12
        BYTE           N04     Gs3   v092
        BYTE           N05     Cs2   v112
        BYTE           N05     Cs1   v116
        BYTE   W12
        BYTE           N01     Gs3   v056
        BYTE   W12
        BYTE           N05     Gs3   v092
        BYTE   W12
        BYTE           N01     Gs3   v060
        BYTE   W12
// 102   ----------------------------------------
        BYTE           N04     Gs3   v096
        BYTE           N04     Cs2   v116
        BYTE           N04     Cs1   v124
        BYTE   W24
        BYTE           N05     Gs3   v104
        BYTE   W12
        BYTE           N03     Gs3   v080
        BYTE           N05     Cs2   v104
        BYTE           N05     Cs1   v112
        BYTE   W12
        BYTE           N04     Gs3   v104
        BYTE           N06     Bn1   v108
        BYTE           N06     Bn0   v104
        BYTE   W12
        BYTE           N04     Gs3   v092
        BYTE   W12
        BYTE                   Gs3   v100
        BYTE           N04     Cs2   v116
        BYTE           N04     Cs1   v120
        BYTE   W12
        BYTE                   Gs3   v092
        BYTE   W12
// 103   ----------------------------------------
        BYTE           N03     Gs3   v088
        BYTE   W12
        BYTE                   Gs3
        BYTE   W12
        BYTE           N04     Gs3   v092
        BYTE           N04     Fn2   v108
        BYTE           N04     Fn1   v100
        BYTE   W12
        BYTE                   Fn2   v096
        BYTE           N04     Fn1   v100
        BYTE   W12
        BYTE                   Gs3   v096
        BYTE           N04     En2   v084
        BYTE           N04     En1   v100
        BYTE   W06
        BYTE           N05     En1   v084
        BYTE   W06
        BYTE                   En2   v080
        BYTE   W12
        BYTE           N04     Gs3   v104
        BYTE           N04     Dn2   v092
        BYTE           N05     Dn1   v100
        BYTE   W12
        BYTE           N04     Gs3   v080
        BYTE           N04     Dn2   v084
        BYTE           N05     Dn1   v096
        BYTE   W12
// 104   ----------------------------------------
        BYTE           N03     Gs3   v088
        BYTE           N04     Cs2   v112
        BYTE           N04     Cs1   v124
        BYTE   W12
        BYTE                   Gs3   v084
        BYTE   W12
        BYTE           N02     Gs3   v080
        BYTE   W12
        BYTE           N05     Gs3   v092
        BYTE           N05     Cs2   v112
        BYTE           N04     Cs1
        BYTE   W12
        BYTE           N03     Gs3   v084
        BYTE           N07     Bn1   v100
        BYTE           N06     Bn0   v108
        BYTE   W12
        BYTE           N03     Gs3   v088
        BYTE   W12
        BYTE           N04
        BYTE           N04     Cs2   v124
        BYTE           N04     Cs1   v120
        BYTE   W12
        BYTE           N02     Gs3   v068
        BYTE   W12
// 105   ----------------------------------------
        BYTE   W12
        BYTE           N03     Gs3   v060
        BYTE   W12
        BYTE                   Gs3   v088
        BYTE           N05     Dn2   v112
        BYTE           N05     Dn1
        BYTE   W12
        BYTE           N04     Gs3   v084
        BYTE           N05     Dn2   v112
        BYTE           N05     Dn1   v104
        BYTE   W12
        BYTE           N01     Gs3   v060
        BYTE           N05     Cs2   v112
        BYTE           N05     Cs1   v116
        BYTE   W12
        BYTE           N03     Gs3   v084
        BYTE   W12
        BYTE                   Gs3   v112
        BYTE   W24
// 106   ----------------------------------------
        BYTE   PATT
         POIN2  CloseQuarters_2_2
// 107   ----------------------------------------
        BYTE   PATT
         POIN2  CloseQuarters_2_3
// 108   ----------------------------------------
        BYTE   PATT
         POIN2  CloseQuarters_2_4
// 109   ----------------------------------------
        BYTE   PATT
         POIN2  CloseQuarters_2_5
// 110   ----------------------------------------
        BYTE   PATT
         POIN2  CloseQuarters_2_2
// 111   ----------------------------------------
        BYTE   PATT
         POIN2  CloseQuarters_2_3
// 112   ----------------------------------------
        BYTE   PATT
         POIN2  CloseQuarters_2_4
// 113   ----------------------------------------
        BYTE   PATT
         POIN2  CloseQuarters_2_5
// 114   ----------------------------------------
        BYTE   GoTo
         POIN2  CloseQuarters_2_LOOP
        BYTE   FINE

//****************** Track 3 (Midi-Chn.3) ******************//

CloseQuarters_3:
        BYTE   KEYSH   CloseQuarters_key+0
// 000   ----------------------------------------
        BYTE           VOICE   65
        BYTE           VOL     52
        BYTE           PAN     c_v-6
        BYTE   W96
// 001   ----------------------------------------
        BYTE   W96
// 002   ----------------------------------------
        BYTE   W96
// 003   ----------------------------------------
        BYTE   W96
// 004   ----------------------------------------
        BYTE   W96
// 005   ----------------------------------------
        BYTE   W96
// 006   ----------------------------------------
        BYTE   W96
// 007   ----------------------------------------
        BYTE   W96
// 008   ----------------------------------------
        BYTE   W96
// 009   ----------------------------------------
        BYTE   W96
// 010   ----------------------------------------
CloseQuarters_3_10:
        BYTE           N02     Gs2   v116
        BYTE           N03     Gs1
        BYTE   W36
        BYTE           N10     An2   v108
        BYTE           N06     An1
        BYTE   W12
        BYTE           N04     Gs2   v116
        BYTE           N03     Gs1   v127
        BYTE   W12
        BYTE                   Fs2   v116
        BYTE           N03     Fs1
        BYTE   W12
        BYTE           N02     Gs2   v127
        BYTE           N02     Gs1
        BYTE   W24
        BYTE   PEND
// 011   ----------------------------------------
CloseQuarters_3_11:
        BYTE   W24
        BYTE           N03     Gs2   v124
        BYTE           N03     Gs1   v112
        BYTE   W12
        BYTE                   An2   v100
        BYTE           N03     An1   v096
        BYTE   W12
        BYTE           N09     Bn2   v100
        BYTE           N05     Bn1   v108
        BYTE   W12
        BYTE           N04     An2   v112
        BYTE           N04     An1   v088
        BYTE   W12
        BYTE           N12     Bn2   v108
        BYTE           N10     Bn1   v092
        BYTE   W06
        BYTE           N07     An1
        BYTE   W06
        BYTE           N04     An2   v112
        BYTE   W12
        BYTE   PEND
// 012   ----------------------------------------
CloseQuarters_3_12:
        BYTE           N02     Gs2   v116
        BYTE           N03     Gs1
        BYTE   W36
        BYTE           N12     An2   v112
        BYTE           N07     An1   v108
        BYTE   W12
        BYTE           N03     Gs2   v127
        BYTE           N03     Gs1   v124
        BYTE   W12
        BYTE           N02     Fs2   v104
        BYTE           N02     Fs1   v124
        BYTE   W12
        BYTE                   Gs2   v127
        BYTE           N02     Gs1   v124
        BYTE   W12
        BYTE                   Gs2   v120
        BYTE           N03     Gs1   v116
        BYTE   W12
        BYTE   PEND
// 013   ----------------------------------------
CloseQuarters_3_13:
        BYTE   W12
        BYTE           N10     An2   v092
        BYTE           N08     An1   v108
        BYTE   W12
        BYTE           N03     Gs2   v120
        BYTE           N02     Gs1   v104
        BYTE   W12
        BYTE           N03     Fs2   v112
        BYTE           N02     Fs1   v104
        BYTE   W12
        BYTE           N01     Gs2   v112
        BYTE           N03     Gs1   v124
        BYTE   W48
        BYTE   PEND
// 014   ----------------------------------------
        BYTE   PATT
         POIN2  CloseQuarters_3_10
// 015   ----------------------------------------
        BYTE   PATT
         POIN2  CloseQuarters_3_11
// 016   ----------------------------------------
        BYTE   PATT
         POIN2  CloseQuarters_3_12
// 017   ----------------------------------------
        BYTE   PATT
         POIN2  CloseQuarters_3_13
// 018   ----------------------------------------
        BYTE   W96
// 019   ----------------------------------------
        BYTE   W96
// 020   ----------------------------------------
        BYTE   W96
// 021   ----------------------------------------
        BYTE   W96
// 022   ----------------------------------------
        BYTE   W96
// 023   ----------------------------------------
        BYTE   W96
// 024   ----------------------------------------
        BYTE   W96
// 025   ----------------------------------------
        BYTE   W96
// 026   ----------------------------------------
        BYTE   PATT
         POIN2  CloseQuarters_3_10
// 027   ----------------------------------------
        BYTE   PATT
         POIN2  CloseQuarters_3_11
// 028   ----------------------------------------
        BYTE   PATT
         POIN2  CloseQuarters_3_12
// 029   ----------------------------------------
        BYTE   PATT
         POIN2  CloseQuarters_3_13
// 030   ----------------------------------------
        BYTE   PATT
         POIN2  CloseQuarters_3_10
// 031   ----------------------------------------
        BYTE   PATT
         POIN2  CloseQuarters_3_11
// 032   ----------------------------------------
        BYTE   PATT
         POIN2  CloseQuarters_3_12
// 033   ----------------------------------------
        BYTE   PATT
         POIN2  CloseQuarters_3_13
// 034   ----------------------------------------
        BYTE   W96
// 035   ----------------------------------------
        BYTE   W96
// 036   ----------------------------------------
        BYTE   W96
// 037   ----------------------------------------
        BYTE   W96
// 038   ----------------------------------------
        BYTE   W96
// 039   ----------------------------------------
        BYTE   W96
// 040   ----------------------------------------
        BYTE   W96
// 041   ----------------------------------------
        BYTE   W96
// 042   ----------------------------------------
        BYTE   W96
// 043   ----------------------------------------
        BYTE   W96
// 044   ----------------------------------------
        BYTE   W96
// 045   ----------------------------------------
        BYTE   W96
// 046   ----------------------------------------
        BYTE   W96
// 047   ----------------------------------------
        BYTE   W96
// 048   ----------------------------------------
        BYTE   W96
// 049   ----------------------------------------
        BYTE   W96
// 050   ----------------------------------------
CloseQuarters_3_LOOP:
        BYTE   W96
// 051   ----------------------------------------
        BYTE   W96
// 052   ----------------------------------------
        BYTE   W96
// 053   ----------------------------------------
        BYTE   W96
// 054   ----------------------------------------
        BYTE   W96
// 055   ----------------------------------------
        BYTE   W96
// 056   ----------------------------------------
        BYTE   W96
// 057   ----------------------------------------
        BYTE   W96
// 058   ----------------------------------------
        BYTE   W96
// 059   ----------------------------------------
        BYTE   W96
// 060   ----------------------------------------
        BYTE   W96
// 061   ----------------------------------------
        BYTE   W96
// 062   ----------------------------------------
        BYTE   W96
// 063   ----------------------------------------
        BYTE   W96
// 064   ----------------------------------------
        BYTE   W96
// 065   ----------------------------------------
        BYTE   W96
// 066   ----------------------------------------
        BYTE   W96
// 067   ----------------------------------------
        BYTE   W96
// 068   ----------------------------------------
        BYTE   W96
// 069   ----------------------------------------
        BYTE   W96
// 070   ----------------------------------------
        BYTE   W96
// 071   ----------------------------------------
        BYTE   W96
// 072   ----------------------------------------
        BYTE   W96
// 073   ----------------------------------------
        BYTE   W96
// 074   ----------------------------------------
        BYTE   W96
// 075   ----------------------------------------
        BYTE   W96
// 076   ----------------------------------------
        BYTE   W96
// 077   ----------------------------------------
        BYTE   W96
// 078   ----------------------------------------
        BYTE   W96
// 079   ----------------------------------------
        BYTE   W96
// 080   ----------------------------------------
        BYTE   W96
// 081   ----------------------------------------
        BYTE   W96
// 082   ----------------------------------------
        BYTE   W96
// 083   ----------------------------------------
        BYTE   W96
// 084   ----------------------------------------
        BYTE   W96
// 085   ----------------------------------------
        BYTE   W96
// 086   ----------------------------------------
        BYTE   W96
// 087   ----------------------------------------
        BYTE   W96
// 088   ----------------------------------------
        BYTE   W96
// 089   ----------------------------------------
        BYTE   W96
// 090   ----------------------------------------
        BYTE   PATT
         POIN2  CloseQuarters_3_10
// 091   ----------------------------------------
        BYTE   PATT
         POIN2  CloseQuarters_3_11
// 092   ----------------------------------------
        BYTE   PATT
         POIN2  CloseQuarters_3_12
// 093   ----------------------------------------
        BYTE   PATT
         POIN2  CloseQuarters_3_13
// 094   ----------------------------------------
        BYTE   PATT
         POIN2  CloseQuarters_3_10
// 095   ----------------------------------------
        BYTE   PATT
         POIN2  CloseQuarters_3_11
// 096   ----------------------------------------
        BYTE   PATT
         POIN2  CloseQuarters_3_12
// 097   ----------------------------------------
        BYTE   PATT
         POIN2  CloseQuarters_3_13
// 098   ----------------------------------------
        BYTE   PATT
         POIN2  CloseQuarters_3_10
// 099   ----------------------------------------
        BYTE   PATT
         POIN2  CloseQuarters_3_11
// 100   ----------------------------------------
        BYTE   PATT
         POIN2  CloseQuarters_3_12
// 101   ----------------------------------------
        BYTE   PATT
         POIN2  CloseQuarters_3_13
// 102   ----------------------------------------
        BYTE   PATT
         POIN2  CloseQuarters_3_10
// 103   ----------------------------------------
        BYTE   PATT
         POIN2  CloseQuarters_3_11
// 104   ----------------------------------------
        BYTE   PATT
         POIN2  CloseQuarters_3_12
// 105   ----------------------------------------
        BYTE   PATT
         POIN2  CloseQuarters_3_13
// 106   ----------------------------------------
        BYTE   W96
// 107   ----------------------------------------
        BYTE   W96
// 108   ----------------------------------------
        BYTE   W96
// 109   ----------------------------------------
        BYTE   W96
// 110   ----------------------------------------
        BYTE   W96
// 111   ----------------------------------------
        BYTE   W96
// 112   ----------------------------------------
        BYTE   W96
// 113   ----------------------------------------
        BYTE   W96
// 114   ----------------------------------------
        BYTE   GoTo
         POIN2  CloseQuarters_3_LOOP
        BYTE   FINE

//****************** Track 4 (Midi-Chn.4) ******************//

CloseQuarters_4:
        BYTE   KEYSH   CloseQuarters_key+0
// 000   ----------------------------------------
        BYTE           VOICE   60
        BYTE           VOL     66
        BYTE           PAN     c_v-38
        BYTE   W96
// 001   ----------------------------------------
        BYTE   W96
// 002   ----------------------------------------
        BYTE   W96
// 003   ----------------------------------------
        BYTE   W96
// 004   ----------------------------------------
        BYTE   W96
// 005   ----------------------------------------
        BYTE   W96
// 006   ----------------------------------------
        BYTE   W96
// 007   ----------------------------------------
        BYTE   W96
// 008   ----------------------------------------
        BYTE   W96
// 009   ----------------------------------------
        BYTE   W96
// 010   ----------------------------------------
        BYTE   W96
// 011   ----------------------------------------
        BYTE   W96
// 012   ----------------------------------------
        BYTE   W96
// 013   ----------------------------------------
        BYTE   W96
// 014   ----------------------------------------
        BYTE   W96
// 015   ----------------------------------------
        BYTE   W96
// 016   ----------------------------------------
        BYTE   W96
// 017   ----------------------------------------
        BYTE   W96
// 018   ----------------------------------------
        BYTE   W96
// 019   ----------------------------------------
        BYTE   W96
// 020   ----------------------------------------
        BYTE   W96
// 021   ----------------------------------------
        BYTE   W96
// 022   ----------------------------------------
        BYTE   W96
// 023   ----------------------------------------
        BYTE   W96
// 024   ----------------------------------------
        BYTE   W96
// 025   ----------------------------------------
        BYTE   W96
// 026   ----------------------------------------
CloseQuarters_4_26:
        BYTE   W24
        BYTE           N03     Cs3   v112
        BYTE           N03     Gs2   v124
        BYTE           N03     Cs2   v112
        BYTE   W48
        BYTE           N04     Cs3
        BYTE           N03     Gs2   v124
        BYTE           N04     Cs2   v112
        BYTE   W24
        BYTE   PEND
// 027   ----------------------------------------
CloseQuarters_4_27:
        BYTE   W24
        BYTE           N04     Cs3   v116
        BYTE           N03     Gs2   v124
        BYTE           N03     Cs2   v112
        BYTE   W48
        BYTE           N04     Cs3
        BYTE           N03     Gs2   v124
        BYTE           N03     Cs2   v104
        BYTE   W24
        BYTE   PEND
// 028   ----------------------------------------
CloseQuarters_4_28:
        BYTE   W24
        BYTE           N04     Cs3   v116
        BYTE           N03     Gs2   v112
        BYTE           N03     Cs2
        BYTE   W48
        BYTE                   Cs3
        BYTE           N03     Gs2   v124
        BYTE           N03     Cs2   v112
        BYTE   W12
        BYTE           N04     Cs3
        BYTE           N03     Gs2   v124
        BYTE           N03     Cs2   v116
        BYTE   W12
        BYTE   PEND
// 029   ----------------------------------------
CloseQuarters_4_29:
        BYTE   W24
        BYTE           N04     Cs3   v104
        BYTE           N03     Gs2   v116
        BYTE           N04     Cs2   v104
        BYTE   W48
        BYTE                   Cs3   v112
        BYTE           N03     Gs2
        BYTE           N04     Cs2
        BYTE   W24
        BYTE   PEND
// 030   ----------------------------------------
CloseQuarters_4_30:
        BYTE   W24
        BYTE           N04     Cs3   v112
        BYTE           N03     Gs2
        BYTE           N04     Cs2
        BYTE   W48
        BYTE                   Cs3
        BYTE           N02     Gs2
        BYTE           N03     Cs2
        BYTE   W24
        BYTE   PEND
// 031   ----------------------------------------
CloseQuarters_4_31:
        BYTE   W24
        BYTE           N04     Cs3   v112
        BYTE           N03     Gs2   v124
        BYTE           N03     Cs2   v104
        BYTE   W48
        BYTE           N04     Cs3   v112
        BYTE           N03     Gs2   v120
        BYTE           N04     Cs2   v112
        BYTE   W24
        BYTE   PEND
// 032   ----------------------------------------
CloseQuarters_4_32:
        BYTE   W24
        BYTE           N04     Cs3   v112
        BYTE           N03     Gs2   v120
        BYTE           N03     Cs2   v112
        BYTE   W12
        BYTE           N04     Cs3   v104
        BYTE           N02     Gs2
        BYTE           N03     Cs2
        BYTE   W36
        BYTE           N04     Cs3   v100
        BYTE           N03     Gs2   v112
        BYTE           N04     Cs2
        BYTE   W24
        BYTE   PEND
// 033   ----------------------------------------
CloseQuarters_4_33:
        BYTE   W24
        BYTE           N03     Cs3   v112
        BYTE           N02     Gs2
        BYTE           N03     Cs2   v100
        BYTE   W48
        BYTE                   Cs3   v112
        BYTE           N03     Gs2   v116
        BYTE           N03     Cs2   v112
        BYTE   W24
        BYTE   PEND
// 034   ----------------------------------------
        BYTE   W96
// 035   ----------------------------------------
        BYTE   W96
// 036   ----------------------------------------
        BYTE   W96
// 037   ----------------------------------------
        BYTE   W96
// 038   ----------------------------------------
        BYTE   W96
// 039   ----------------------------------------
        BYTE   W96
// 040   ----------------------------------------
        BYTE   W96
// 041   ----------------------------------------
        BYTE   W96
// 042   ----------------------------------------
        BYTE   W96
// 043   ----------------------------------------
        BYTE   W96
// 044   ----------------------------------------
        BYTE   W96
// 045   ----------------------------------------
        BYTE   W96
// 046   ----------------------------------------
        BYTE   W96
// 047   ----------------------------------------
        BYTE   W96
// 048   ----------------------------------------
        BYTE   W96
// 049   ----------------------------------------
        BYTE   W96
// 050   ----------------------------------------
CloseQuarters_4_LOOP:
        BYTE   W96
// 051   ----------------------------------------
        BYTE   W96
// 052   ----------------------------------------
        BYTE   W96
// 053   ----------------------------------------
        BYTE   W96
// 054   ----------------------------------------
        BYTE   W96
// 055   ----------------------------------------
        BYTE   W96
// 056   ----------------------------------------
        BYTE   W96
// 057   ----------------------------------------
        BYTE   W96
// 058   ----------------------------------------
        BYTE   W96
// 059   ----------------------------------------
        BYTE   W96
// 060   ----------------------------------------
        BYTE   W96
// 061   ----------------------------------------
        BYTE   W96
// 062   ----------------------------------------
        BYTE   W96
// 063   ----------------------------------------
        BYTE   W96
// 064   ----------------------------------------
        BYTE   W96
// 065   ----------------------------------------
        BYTE   W84
        BYTE           N03     Gs1   v096
        BYTE   W01
        BYTE           N09     Bn1   v112
        BYTE   W02
        BYTE           N05     Gs2
        BYTE   W05
        BYTE           N03     Bn2   v084
        BYTE   W01
        BYTE           N08     Cs2   v116
        BYTE   W01
        BYTE                   Cs3   v100
        BYTE   W02
// 066   ----------------------------------------
        BYTE   W96
// 067   ----------------------------------------
        BYTE   W84
        BYTE           N04     Gs2   v116
        BYTE           N05     Gs1   v100
        BYTE   W06
        BYTE           N04     Bn2   v088
        BYTE           N09     Bn1   v112
        BYTE   W06
// 068   ----------------------------------------
        BYTE           N08     Cs3   v100
        BYTE           N13     Cs2   v124
        BYTE   W96
// 069   ----------------------------------------
        BYTE   W84
        BYTE           N04     Gs2   v116
        BYTE           N06     Gs1   v124
        BYTE   W06
        BYTE           N04     Bn2   v080
        BYTE           N11     Bn1   v092
        BYTE   W06
// 070   ----------------------------------------
        BYTE           N06     Cs3   v112
        BYTE           N10     Cs2
        BYTE   W96
// 071   ----------------------------------------
        BYTE   W84
        BYTE           N05     Gs2   v116
        BYTE           N07     Gs1   v112
        BYTE   W06
        BYTE           N03     Bn2   v084
        BYTE           N06     Bn1   v040
        BYTE   W06
// 072   ----------------------------------------
        BYTE           N07     Cs3   v112
        BYTE           N11     Cs2   v092
        BYTE   W96
// 073   ----------------------------------------
        BYTE   W72
        BYTE           N04     Cs3   v120
        BYTE           N03     Cs2
        BYTE           N06     Cs1
        BYTE   W24
// 074   ----------------------------------------
        BYTE   W96
// 075   ----------------------------------------
        BYTE   W96
// 076   ----------------------------------------
        BYTE   W96
// 077   ----------------------------------------
        BYTE   W96
// 078   ----------------------------------------
        BYTE   W96
// 079   ----------------------------------------
        BYTE   W96
// 080   ----------------------------------------
        BYTE   W96
// 081   ----------------------------------------
        BYTE   W96
// 082   ----------------------------------------
        BYTE   W96
// 083   ----------------------------------------
        BYTE   W96
// 084   ----------------------------------------
        BYTE   W96
// 085   ----------------------------------------
        BYTE   W96
// 086   ----------------------------------------
        BYTE   W96
// 087   ----------------------------------------
        BYTE   W96
// 088   ----------------------------------------
        BYTE   W96
// 089   ----------------------------------------
        BYTE   W96
// 090   ----------------------------------------
        BYTE   PATT
         POIN2  CloseQuarters_4_26
// 091   ----------------------------------------
        BYTE   PATT
         POIN2  CloseQuarters_4_27
// 092   ----------------------------------------
        BYTE   PATT
         POIN2  CloseQuarters_4_28
// 093   ----------------------------------------
        BYTE   PATT
         POIN2  CloseQuarters_4_29
// 094   ----------------------------------------
        BYTE   PATT
         POIN2  CloseQuarters_4_30
// 095   ----------------------------------------
        BYTE   PATT
         POIN2  CloseQuarters_4_31
// 096   ----------------------------------------
        BYTE   PATT
         POIN2  CloseQuarters_4_32
// 097   ----------------------------------------
        BYTE   PATT
         POIN2  CloseQuarters_4_33
// 098   ----------------------------------------
        BYTE   PATT
         POIN2  CloseQuarters_4_26
// 099   ----------------------------------------
        BYTE   PATT
         POIN2  CloseQuarters_4_27
// 100   ----------------------------------------
        BYTE   PATT
         POIN2  CloseQuarters_4_28
// 101   ----------------------------------------
        BYTE   PATT
         POIN2  CloseQuarters_4_29
// 102   ----------------------------------------
        BYTE   PATT
         POIN2  CloseQuarters_4_30
// 103   ----------------------------------------
        BYTE   PATT
         POIN2  CloseQuarters_4_31
// 104   ----------------------------------------
        BYTE   PATT
         POIN2  CloseQuarters_4_32
// 105   ----------------------------------------
        BYTE   PATT
         POIN2  CloseQuarters_4_33
// 106   ----------------------------------------
        BYTE   W96
// 107   ----------------------------------------
        BYTE   W96
// 108   ----------------------------------------
        BYTE   W96
// 109   ----------------------------------------
        BYTE   W96
// 110   ----------------------------------------
        BYTE   W96
// 111   ----------------------------------------
        BYTE   W96
// 112   ----------------------------------------
        BYTE   W96
// 113   ----------------------------------------
        BYTE   W96
// 114   ----------------------------------------
        BYTE   GoTo
         POIN2  CloseQuarters_4_LOOP
        BYTE   FINE

//****************** Track 5 (Midi-Chn.5) ******************//

CloseQuarters_5:
        BYTE   KEYSH   CloseQuarters_key+0
// 000   ----------------------------------------
        BYTE           VOICE   52
        BYTE           VOL     49
        BYTE           PAN     c_v-22
        BYTE   W96
// 001   ----------------------------------------
        BYTE   W96
// 002   ----------------------------------------
        BYTE   W96
// 003   ----------------------------------------
        BYTE   W96
// 004   ----------------------------------------
        BYTE   W96
// 005   ----------------------------------------
        BYTE   W96
// 006   ----------------------------------------
        BYTE   W96
// 007   ----------------------------------------
        BYTE   W96
// 008   ----------------------------------------
        BYTE   W96
// 009   ----------------------------------------
        BYTE   W96
// 010   ----------------------------------------
        BYTE   W96
// 011   ----------------------------------------
        BYTE   W96
// 012   ----------------------------------------
        BYTE   W96
// 013   ----------------------------------------
        BYTE   W96
// 014   ----------------------------------------
        BYTE   W96
// 015   ----------------------------------------
        BYTE   W96
// 016   ----------------------------------------
        BYTE   W96
// 017   ----------------------------------------
        BYTE   W96
// 018   ----------------------------------------
        BYTE   W96
// 019   ----------------------------------------
        BYTE   W96
// 020   ----------------------------------------
        BYTE   W96
// 021   ----------------------------------------
        BYTE   W96
// 022   ----------------------------------------
        BYTE   W96
// 023   ----------------------------------------
        BYTE   W96
// 024   ----------------------------------------
        BYTE   W96
// 025   ----------------------------------------
        BYTE   W96
// 026   ----------------------------------------
        BYTE   W96
// 027   ----------------------------------------
        BYTE   W96
// 028   ----------------------------------------
        BYTE   W96
// 029   ----------------------------------------
        BYTE   W96
// 030   ----------------------------------------
        BYTE   W96
// 031   ----------------------------------------
        BYTE   W96
// 032   ----------------------------------------
        BYTE   W96
// 033   ----------------------------------------
        BYTE   W96
// 034   ----------------------------------------
        BYTE   W96
// 035   ----------------------------------------
        BYTE   W96
// 036   ----------------------------------------
        BYTE   W96
// 037   ----------------------------------------
        BYTE   W96
// 038   ----------------------------------------
        BYTE   W96
// 039   ----------------------------------------
        BYTE   W96
// 040   ----------------------------------------
        BYTE   W96
// 041   ----------------------------------------
        BYTE   W96
// 042   ----------------------------------------
        BYTE   W96
// 043   ----------------------------------------
        BYTE   W96
// 044   ----------------------------------------
        BYTE   W96
// 045   ----------------------------------------
        BYTE   W96
// 046   ----------------------------------------
        BYTE   W96
// 047   ----------------------------------------
        BYTE   W96
// 048   ----------------------------------------
        BYTE   W96
// 049   ----------------------------------------
        BYTE   W96
// 050   ----------------------------------------
CloseQuarters_5_LOOP:
        BYTE           N48     An3   v108
        BYTE           N44     An2   v104
        BYTE   W48
        BYTE           N88     Gs3   v116
        BYTE           N84     Gs2   v112
        BYTE   W48
// 051   ----------------------------------------
        BYTE   W48
        BYTE           N19     Fs3   v127
        BYTE           N18     Fs2   v124
        BYTE   W24
        BYTE           N17     Gs3   v120
        BYTE           N16     Gs2   v124
        BYTE   W24
// 052   ----------------------------------------
        BYTE           N48     Bn3   v112
        BYTE           N44     Bn2
        BYTE   W48
        BYTE           N88     Gs3
        BYTE           N84     Gs2   v116
        BYTE   W48
// 053   ----------------------------------------
        BYTE   W48
        BYTE           N20     Cs4
        BYTE           N19     Cs3   v124
        BYTE   W24
        BYTE                   An3   v108
        BYTE           N16     An2
        BYTE   W24
// 054   ----------------------------------------
        BYTE           N44     Bn3
        BYTE           N42     Bn2   v112
        BYTE   W48
        BYTE           N66     Fs3   v116
        BYTE           N64     Fs2
        BYTE   W48
// 055   ----------------------------------------
        BYTE   W24
        BYTE           N20     An3   v108
        BYTE           N18     An2   v112
        BYTE   W24
        BYTE                   Bn3
        BYTE           N15     Bn2
        BYTE   W24
        BYTE           N20     Cs4   v116
        BYTE           N20     Cs3
        BYTE   W24
// 056   ----------------------------------------
        BYTE           TIE     Gs3   v124
        BYTE           TIE     Gs2   v112
        BYTE   W96
// 057   ----------------------------------------
        BYTE   W84
        BYTE   W02
        BYTE           EOT
        BYTE   W05
        BYTE                   Gs3
        BYTE   W05
// 058   ----------------------------------------
        BYTE           N48     Ds4   v124
        BYTE           N44     Ds3   v112
        BYTE   W48
        BYTE           N92     Bn3   v104
        BYTE           N90     Bn2
        BYTE   W48
// 059   ----------------------------------------
        BYTE   W48
        BYTE           N20     Gs3   v112
        BYTE           N19     Gs2
        BYTE   W24
        BYTE           N23     Bn3   v092
        BYTE           N20     Bn2   v116
        BYTE   W24
// 060   ----------------------------------------
        BYTE           N44     Cs4
        BYTE           N44     Cs3   v120
        BYTE   W48
        BYTE           N68     Ds4
        BYTE           N66     Ds3   v116
        BYTE   W48
// 061   ----------------------------------------
        BYTE   W24
        BYTE           N23     En4   v104
        BYTE           N18     En3   v112
        BYTE   W24
        BYTE           N20     Ds4   v124
        BYTE           N19     Ds3   v116
        BYTE   W24
        BYTE           N23     Cs4   v112
        BYTE           N18     Cs3   v116
        BYTE   W24
// 062   ----------------------------------------
        BYTE           N44     Bn3   v124
        BYTE           N42     Bn2   v112
        BYTE   W48
        BYTE           N92     Cs4
        BYTE           N90     Cs3   v124
        BYTE   W48
// 063   ----------------------------------------
        BYTE   W48
        BYTE           N22     Ds4
        BYTE           N16     Ds3   v112
        BYTE   W24
        BYTE           N21     An3   v120
        BYTE           N19     An2   v100
        BYTE   W24
// 064   ----------------------------------------
        BYTE           TIE     Gs3   v116
        BYTE           TIE     Gs2   v124
        BYTE   W96
// 065   ----------------------------------------
        BYTE   W80
        BYTE   W02
        BYTE           EOT
        BYTE   W02
        BYTE                   Gs3
        BYTE   W12
// 066   ----------------------------------------
        BYTE   W96
// 067   ----------------------------------------
        BYTE   W96
// 068   ----------------------------------------
        BYTE   W96
// 069   ----------------------------------------
        BYTE   W96
// 070   ----------------------------------------
        BYTE   W96
// 071   ----------------------------------------
        BYTE   W96
// 072   ----------------------------------------
        BYTE   W96
// 073   ----------------------------------------
        BYTE   W96
// 074   ----------------------------------------
        BYTE   W96
// 075   ----------------------------------------
        BYTE   W96
// 076   ----------------------------------------
        BYTE   W96
// 077   ----------------------------------------
        BYTE   W96
// 078   ----------------------------------------
        BYTE   W96
// 079   ----------------------------------------
        BYTE   W96
// 080   ----------------------------------------
        BYTE   W96
// 081   ----------------------------------------
        BYTE   W96
// 082   ----------------------------------------
        BYTE   W96
// 083   ----------------------------------------
        BYTE   W96
// 084   ----------------------------------------
        BYTE   W96
// 085   ----------------------------------------
        BYTE   W96
// 086   ----------------------------------------
        BYTE   W96
// 087   ----------------------------------------
        BYTE   W96
// 088   ----------------------------------------
        BYTE   W96
// 089   ----------------------------------------
        BYTE   W96
// 090   ----------------------------------------
        BYTE   W96
// 091   ----------------------------------------
        BYTE   W96
// 092   ----------------------------------------
        BYTE   W96
// 093   ----------------------------------------
        BYTE   W96
// 094   ----------------------------------------
        BYTE   W96
// 095   ----------------------------------------
        BYTE   W96
// 096   ----------------------------------------
        BYTE   W96
// 097   ----------------------------------------
        BYTE   W96
// 098   ----------------------------------------
        BYTE   W96
// 099   ----------------------------------------
        BYTE   W96
// 100   ----------------------------------------
        BYTE   W96
// 101   ----------------------------------------
        BYTE   W96
// 102   ----------------------------------------
        BYTE   W96
// 103   ----------------------------------------
        BYTE   W96
// 104   ----------------------------------------
        BYTE   W96
// 105   ----------------------------------------
        BYTE   W96
// 106   ----------------------------------------
        BYTE   W96
// 107   ----------------------------------------
        BYTE   W96
// 108   ----------------------------------------
        BYTE   W96
// 109   ----------------------------------------
        BYTE   W96
// 110   ----------------------------------------
        BYTE   W96
// 111   ----------------------------------------
        BYTE   W96
// 112   ----------------------------------------
        BYTE   W96
// 113   ----------------------------------------
        BYTE   W96
// 114   ----------------------------------------
        BYTE   GoTo
         POIN2  CloseQuarters_5_LOOP
        BYTE   FINE

//****************** Track 6 (Midi-Chn.6) ******************//

CloseQuarters_6:
        BYTE   KEYSH   CloseQuarters_key+0
// 000   ----------------------------------------
        BYTE           VOICE   62
        BYTE           VOL     44
        BYTE           PAN     c_v-26
        BYTE   W96
// 001   ----------------------------------------
        BYTE   W96
// 002   ----------------------------------------
        BYTE   W96
// 003   ----------------------------------------
        BYTE   W96
// 004   ----------------------------------------
        BYTE   W96
// 005   ----------------------------------------
        BYTE   W96
// 006   ----------------------------------------
        BYTE   W96
// 007   ----------------------------------------
        BYTE   W96
// 008   ----------------------------------------
        BYTE   W96
// 009   ----------------------------------------
        BYTE   W96
// 010   ----------------------------------------
        BYTE   W96
// 011   ----------------------------------------
        BYTE   W96
// 012   ----------------------------------------
        BYTE   W96
// 013   ----------------------------------------
        BYTE   W96
// 014   ----------------------------------------
        BYTE   W96
// 015   ----------------------------------------
        BYTE   W96
// 016   ----------------------------------------
        BYTE   W96
// 017   ----------------------------------------
        BYTE   W96
// 018   ----------------------------------------
        BYTE   W96
// 019   ----------------------------------------
        BYTE   W96
// 020   ----------------------------------------
        BYTE   W96
// 021   ----------------------------------------
        BYTE   W96
// 022   ----------------------------------------
        BYTE   W96
// 023   ----------------------------------------
        BYTE   W96
// 024   ----------------------------------------
        BYTE   W96
// 025   ----------------------------------------
        BYTE   W96
// 026   ----------------------------------------
        BYTE   W96
// 027   ----------------------------------------
        BYTE   W96
// 028   ----------------------------------------
        BYTE   W96
// 029   ----------------------------------------
        BYTE   W96
// 030   ----------------------------------------
        BYTE   W96
// 031   ----------------------------------------
        BYTE   W96
// 032   ----------------------------------------
        BYTE   W96
// 033   ----------------------------------------
        BYTE   W96
// 034   ----------------------------------------
        BYTE   W96
// 035   ----------------------------------------
        BYTE   W96
// 036   ----------------------------------------
        BYTE   W96
// 037   ----------------------------------------
        BYTE   W96
// 038   ----------------------------------------
        BYTE   W96
// 039   ----------------------------------------
        BYTE   W96
// 040   ----------------------------------------
        BYTE   W96
// 041   ----------------------------------------
        BYTE   W96
// 042   ----------------------------------------
CloseQuarters_6_42:
        BYTE           N04     En3   v100
        BYTE           N04     Cs3   v116
        BYTE   W12
        BYTE                   En3   v096
        BYTE           N04     Cs3   v112
        BYTE   W24
        BYTE                   En3   v096
        BYTE           N04     Cs3   v104
        BYTE   W12
        BYTE                   Fs3   v116
        BYTE           N04     Dn3   v112
        BYTE   W12
        BYTE           N05     Fs3   v116
        BYTE           N04     Dn3   v112
        BYTE   W24
        BYTE           N05     Fs3
        BYTE           N03     Dn3   v092
        BYTE   W12
        BYTE   PEND
// 043   ----------------------------------------
CloseQuarters_6_43:
        BYTE           N05     En3   v100
        BYTE           N04     Cs3   v112
        BYTE   W12
        BYTE           N06     En3   v096
        BYTE           N05     Cs3   v112
        BYTE   W24
        BYTE           N04     En3   v084
        BYTE           N04     Cs3   v104
        BYTE   W12
        BYTE                   Fs3
        BYTE           N04     Dn3
        BYTE   W12
        BYTE                   Fs3   v112
        BYTE           N02     Dn3   v084
        BYTE   W12
        BYTE           N05     Gs3   v104
        BYTE           N04     En3   v100
        BYTE   W12
        BYTE           N05     Gs3
        BYTE           N04     En3   v108
        BYTE   W12
        BYTE   PEND
// 044   ----------------------------------------
CloseQuarters_6_44:
        BYTE           N05     En3   v112
        BYTE           N04     Cs3
        BYTE   W12
        BYTE           N05     En3   v100
        BYTE           N05     Cs3   v112
        BYTE   W24
        BYTE           N04     En3   v092
        BYTE           N04     Cs3   v100
        BYTE   W12
        BYTE                   Fs3   v116
        BYTE           N04     Dn3   v112
        BYTE   W12
        BYTE           N05     Fs3   v116
        BYTE           N04     Dn3   v112
        BYTE   W24
        BYTE                   Fs3
        BYTE           N03     Dn3   v104
        BYTE   W12
        BYTE   PEND
// 045   ----------------------------------------
CloseQuarters_6_45:
        BYTE           N04     En3   v096
        BYTE           N04     Cs3   v112
        BYTE   W12
        BYTE           N05     En3   v092
        BYTE           N04     Cs3   v112
        BYTE   W12
        BYTE           N03     Fs3
        BYTE           N04     Dn3   v108
        BYTE   W12
        BYTE                   Fs3   v112
        BYTE           N01     Dn3   v080
        BYTE   W12
        BYTE           N03     Gs3   v116
        BYTE           N04     En3   v112
        BYTE   W12
        BYTE                   Gs3   v120
        BYTE           N03     En3   v116
        BYTE   W36
        BYTE   PEND
// 046   ----------------------------------------
CloseQuarters_6_46:
        BYTE           N05     En3   v092
        BYTE           N04     Cs3   v112
        BYTE   W12
        BYTE           N05     En3   v092
        BYTE           N04     Cs3   v112
        BYTE   W24
        BYTE                   En3   v080
        BYTE           N04     Cs3   v104
        BYTE   W12
        BYTE           N03     Fs3
        BYTE           N04     Dn3   v108
        BYTE   W12
        BYTE           N05     Fs3   v116
        BYTE           N04     Dn3   v108
        BYTE   W24
        BYTE                   Fs3   v116
        BYTE           N03     Dn3   v108
        BYTE   W12
        BYTE   PEND
// 047   ----------------------------------------
        BYTE                   En3   v080
        BYTE           N04     Cs3   v104
        BYTE   W12
        BYTE           N06     En3   v100
        BYTE           N05     Cs3   v104
        BYTE   W24
        BYTE                   En3   v088
        BYTE           N04     Cs3   v100
        BYTE   W12
        BYTE                   Fs3   v112
        BYTE           N04     Dn3   v104
        BYTE   W12
        BYTE                   Fs3
        BYTE           N03     Dn3   v084
        BYTE   W12
        BYTE           N04     Gs3   v124
        BYTE           N04     Ds3   v104
        BYTE   W12
        BYTE                   Gs3   v112
        BYTE           N03     Ds3   v104
        BYTE   W12
// 048   ----------------------------------------
CloseQuarters_6_48:
        BYTE           N04     En3   v100
        BYTE           N04     Cs3   v112
        BYTE   W12
        BYTE           N05     En3   v108
        BYTE           N04     Cs3   v112
        BYTE   W24
        BYTE                   En3   v088
        BYTE           N04     Cs3   v100
        BYTE   W12
        BYTE                   Fs3   v104
        BYTE           N04     Dn3
        BYTE   W12
        BYTE           N05     Fs3   v116
        BYTE           N04     Dn3   v104
        BYTE   W24
        BYTE                   Fs3   v112
        BYTE           N03     Dn3   v088
        BYTE   W12
        BYTE   PEND
// 049   ----------------------------------------
CloseQuarters_6_49:
        BYTE           N04     En3   v100
        BYTE           N04     Cs3   v104
        BYTE   W12
        BYTE           N03     En3   v096
        BYTE           N03     Cs3   v104
        BYTE   W12
        BYTE           N04     Gs3   v112
        BYTE           N04     Ds3
        BYTE   W12
        BYTE                   Gs3
        BYTE           N03     Ds3   v104
        BYTE   W12
        BYTE           N04     En3
        BYTE           N04     Cs3
        BYTE   W12
        BYTE           N06     En3   v092
        BYTE           N04     Cs3   v100
        BYTE   W36
        BYTE   PEND
// 050   ----------------------------------------
CloseQuarters_6_LOOP:
        BYTE   W96
// 051   ----------------------------------------
        BYTE   W96
// 052   ----------------------------------------
        BYTE   W96
// 053   ----------------------------------------
        BYTE   W96
// 054   ----------------------------------------
        BYTE   W96
// 055   ----------------------------------------
        BYTE   W96
// 056   ----------------------------------------
        BYTE   W96
// 057   ----------------------------------------
        BYTE   W96
// 058   ----------------------------------------
        BYTE   W96
// 059   ----------------------------------------
        BYTE   W96
// 060   ----------------------------------------
        BYTE   W96
// 061   ----------------------------------------
        BYTE   W96
// 062   ----------------------------------------
        BYTE   W96
// 063   ----------------------------------------
        BYTE   W96
// 064   ----------------------------------------
        BYTE   W96
// 065   ----------------------------------------
        BYTE   W96
// 066   ----------------------------------------
        BYTE   W96
// 067   ----------------------------------------
        BYTE   W96
// 068   ----------------------------------------
        BYTE   W96
// 069   ----------------------------------------
        BYTE   W96
// 070   ----------------------------------------
        BYTE   W96
// 071   ----------------------------------------
        BYTE   W96
// 072   ----------------------------------------
        BYTE   W96
// 073   ----------------------------------------
        BYTE   W96
// 074   ----------------------------------------
        BYTE   W96
// 075   ----------------------------------------
        BYTE   W96
// 076   ----------------------------------------
        BYTE   W96
// 077   ----------------------------------------
        BYTE   W96
// 078   ----------------------------------------
        BYTE   W96
// 079   ----------------------------------------
        BYTE   W96
// 080   ----------------------------------------
        BYTE   W96
// 081   ----------------------------------------
        BYTE   W96
// 082   ----------------------------------------
        BYTE   PATT
         POIN2  CloseQuarters_6_42
// 083   ----------------------------------------
        BYTE   PATT
         POIN2  CloseQuarters_6_43
// 084   ----------------------------------------
        BYTE   PATT
         POIN2  CloseQuarters_6_44
// 085   ----------------------------------------
        BYTE   PATT
         POIN2  CloseQuarters_6_45
// 086   ----------------------------------------
        BYTE   PATT
         POIN2  CloseQuarters_6_46
// 087   ----------------------------------------
CloseQuarters_6_87:
        BYTE           N03     En3   v080
        BYTE           N04     Cs3   v104
        BYTE   W12
        BYTE           N06     En3   v100
        BYTE           N05     Cs3   v104
        BYTE   W24
        BYTE                   En3   v088
        BYTE           N04     Cs3   v100
        BYTE   W12
        BYTE                   Fs3   v112
        BYTE           N04     Dn3   v104
        BYTE   W12
        BYTE                   Fs3
        BYTE           N03     Dn3   v084
        BYTE   W12
        BYTE           N04     Gs3   v124
        BYTE           N04     En3   v104
        BYTE   W12
        BYTE                   Gs3   v112
        BYTE           N03     En3   v104
        BYTE   W12
        BYTE   PEND
// 088   ----------------------------------------
        BYTE   PATT
         POIN2  CloseQuarters_6_48
// 089   ----------------------------------------
        BYTE   PATT
         POIN2  CloseQuarters_6_49
// 090   ----------------------------------------
        BYTE   W96
// 091   ----------------------------------------
        BYTE   W96
// 092   ----------------------------------------
        BYTE   W96
// 093   ----------------------------------------
        BYTE   W96
// 094   ----------------------------------------
        BYTE   W96
// 095   ----------------------------------------
        BYTE   W96
// 096   ----------------------------------------
        BYTE   W96
// 097   ----------------------------------------
        BYTE   W96
// 098   ----------------------------------------
        BYTE   W96
// 099   ----------------------------------------
        BYTE   W96
// 100   ----------------------------------------
        BYTE   W96
// 101   ----------------------------------------
        BYTE   W96
// 102   ----------------------------------------
        BYTE   W96
// 103   ----------------------------------------
        BYTE   W96
// 104   ----------------------------------------
        BYTE   W96
// 105   ----------------------------------------
        BYTE   W96
// 106   ----------------------------------------
        BYTE   PATT
         POIN2  CloseQuarters_6_42
// 107   ----------------------------------------
        BYTE   PATT
         POIN2  CloseQuarters_6_43
// 108   ----------------------------------------
        BYTE   PATT
         POIN2  CloseQuarters_6_44
// 109   ----------------------------------------
        BYTE   PATT
         POIN2  CloseQuarters_6_45
// 110   ----------------------------------------
        BYTE   PATT
         POIN2  CloseQuarters_6_46
// 111   ----------------------------------------
        BYTE   PATT
         POIN2  CloseQuarters_6_87
// 112   ----------------------------------------
        BYTE   PATT
         POIN2  CloseQuarters_6_48
// 113   ----------------------------------------
        BYTE   PATT
         POIN2  CloseQuarters_6_49
// 114   ----------------------------------------
        BYTE   GoTo
         POIN2  CloseQuarters_6_LOOP
        BYTE   FINE

//****************** Track 7 (Midi-Chn.7) ******************//

CloseQuarters_7:
        BYTE   KEYSH   CloseQuarters_key+0
// 000   ----------------------------------------
        BYTE           VOICE   13
        BYTE           VOL     71
        BYTE           PAN     c_v+23
        BYTE   W96
// 001   ----------------------------------------
        BYTE   W96
// 002   ----------------------------------------
        BYTE   W96
// 003   ----------------------------------------
        BYTE   W96
// 004   ----------------------------------------
        BYTE   W96
// 005   ----------------------------------------
        BYTE   W96
// 006   ----------------------------------------
        BYTE   W96
// 007   ----------------------------------------
        BYTE   W96
// 008   ----------------------------------------
        BYTE   W96
// 009   ----------------------------------------
        BYTE   W96
// 010   ----------------------------------------
        BYTE   W96
// 011   ----------------------------------------
        BYTE   W96
// 012   ----------------------------------------
        BYTE   W96
// 013   ----------------------------------------
        BYTE   W96
// 014   ----------------------------------------
        BYTE   W96
// 015   ----------------------------------------
        BYTE   W96
// 016   ----------------------------------------
        BYTE   W96
// 017   ----------------------------------------
        BYTE   W96
// 018   ----------------------------------------
        BYTE   W96
// 019   ----------------------------------------
        BYTE   W96
// 020   ----------------------------------------
        BYTE   W96
// 021   ----------------------------------------
        BYTE   W96
// 022   ----------------------------------------
        BYTE   W96
// 023   ----------------------------------------
        BYTE   W96
// 024   ----------------------------------------
        BYTE   W96
// 025   ----------------------------------------
        BYTE   W96
// 026   ----------------------------------------
        BYTE   W96
// 027   ----------------------------------------
        BYTE   W96
// 028   ----------------------------------------
        BYTE   W96
// 029   ----------------------------------------
        BYTE   W96
// 030   ----------------------------------------
        BYTE   W96
// 031   ----------------------------------------
        BYTE   W96
// 032   ----------------------------------------
        BYTE   W96
// 033   ----------------------------------------
        BYTE   W96
// 034   ----------------------------------------
CloseQuarters_7_34:
        BYTE           N03     Cs3   v120
        BYTE   W12
        BYTE                   Cs3   v076
        BYTE   W12
        BYTE           N04     Dn3   v088
        BYTE   W12
        BYTE                   Dn3   v092
        BYTE   W12
        BYTE                   En3
        BYTE   W12
        BYTE                   En3
        BYTE   W12
        BYTE                   En3   v108
        BYTE   W24
        BYTE   PEND
// 035   ----------------------------------------
CloseQuarters_7_35:
        BYTE   W24
        BYTE           N03     Cs3   v100
        BYTE   W12
        BYTE           N04     Cs3   v112
        BYTE   W12
        BYTE                   En3   v092
        BYTE   W12
        BYTE           N05
        BYTE   W12
        BYTE           N04     Dn3   v100
        BYTE   W12
        BYTE                   Dn3   v080
        BYTE   W12
        BYTE   PEND
// 036   ----------------------------------------
CloseQuarters_7_36:
        BYTE           N04     Cs3   v112
        BYTE   W12
        BYTE                   Cs3   v104
        BYTE   W24
        BYTE                   Dn3   v092
        BYTE   W12
        BYTE                   Cs3   v104
        BYTE   W12
        BYTE                   Cs3   v092
        BYTE   W12
        BYTE           N03     Bn2   v096
        BYTE   W12
        BYTE                   Bn2   v092
        BYTE   W12
        BYTE   PEND
// 037   ----------------------------------------
CloseQuarters_7_37:
        BYTE   W24
        BYTE           N04     Dn3   v084
        BYTE   W12
        BYTE           N05
        BYTE   W12
        BYTE           N04     Cs3   v112
        BYTE   W48
        BYTE   PEND
// 038   ----------------------------------------
CloseQuarters_7_38:
        BYTE           N04     Cs3   v124
        BYTE   W12
        BYTE                   Cs3   v088
        BYTE   W12
        BYTE           N05     Bn2   v092
        BYTE   W12
        BYTE                   Bn2   v080
        BYTE   W12
        BYTE                   En3
        BYTE   W12
        BYTE           N06     En3   v084
        BYTE   W12
        BYTE           N05
        BYTE   W12
        BYTE                   En3   v088
        BYTE   W12
        BYTE   PEND
// 039   ----------------------------------------
CloseQuarters_7_39:
        BYTE   W24
        BYTE           N03     Cs3   v104
        BYTE   W12
        BYTE                   Cs3
        BYTE   W12
        BYTE           N04     En3   v080
        BYTE   W12
        BYTE           N05
        BYTE   W12
        BYTE           N04     Dn3   v088
        BYTE   W12
        BYTE                   Dn3   v052
        BYTE   W12
        BYTE   PEND
// 040   ----------------------------------------
CloseQuarters_7_40:
        BYTE           N03     Cs3   v096
        BYTE   W12
        BYTE                   Cs3
        BYTE   W24
        BYTE           N04     Dn3   v092
        BYTE   W12
        BYTE           N05     Dn3   v096
        BYTE   W12
        BYTE           N06     Dn3   v080
        BYTE   W12
        BYTE           N04     Cs3   v100
        BYTE   W12
        BYTE                   Cs3   v092
        BYTE   W12
        BYTE   PEND
// 041   ----------------------------------------
CloseQuarters_7_41:
        BYTE   W24
        BYTE           N05     Bn2   v096
        BYTE   W12
        BYTE                   Bn2   v088
        BYTE   W12
        BYTE           N04     Cs3   v096
        BYTE   W12
        BYTE                   Cs3   v112
        BYTE   W36
        BYTE   PEND
// 042   ----------------------------------------
        BYTE   W96
// 043   ----------------------------------------
        BYTE   W96
// 044   ----------------------------------------
        BYTE   W96
// 045   ----------------------------------------
        BYTE   W96
// 046   ----------------------------------------
        BYTE   W96
// 047   ----------------------------------------
        BYTE   W96
// 048   ----------------------------------------
        BYTE   W96
// 049   ----------------------------------------
        BYTE   W96
// 050   ----------------------------------------
CloseQuarters_7_LOOP:
        BYTE           N03     Cs3   v120
        BYTE   W12
        BYTE                   Cs3   v076
        BYTE   W12
        BYTE           N04     Dn3   v088
        BYTE   W12
        BYTE                   Dn3   v092
        BYTE   W12
        BYTE                   En3
        BYTE   W12
        BYTE                   En3
        BYTE   W12
        BYTE                   En3   v108
        BYTE   W24
// 051   ----------------------------------------
        BYTE   PATT
         POIN2  CloseQuarters_7_35
// 052   ----------------------------------------
        BYTE   PATT
         POIN2  CloseQuarters_7_36
// 053   ----------------------------------------
        BYTE   PATT
         POIN2  CloseQuarters_7_37
// 054   ----------------------------------------
        BYTE   PATT
         POIN2  CloseQuarters_7_38
// 055   ----------------------------------------
        BYTE   PATT
         POIN2  CloseQuarters_7_39
// 056   ----------------------------------------
        BYTE   PATT
         POIN2  CloseQuarters_7_40
// 057   ----------------------------------------
        BYTE   PATT
         POIN2  CloseQuarters_7_41
// 058   ----------------------------------------
        BYTE   PATT
         POIN2  CloseQuarters_7_34
// 059   ----------------------------------------
        BYTE   PATT
         POIN2  CloseQuarters_7_35
// 060   ----------------------------------------
        BYTE   PATT
         POIN2  CloseQuarters_7_36
// 061   ----------------------------------------
        BYTE   PATT
         POIN2  CloseQuarters_7_37
// 062   ----------------------------------------
        BYTE   PATT
         POIN2  CloseQuarters_7_38
// 063   ----------------------------------------
        BYTE   PATT
         POIN2  CloseQuarters_7_39
// 064   ----------------------------------------
        BYTE   PATT
         POIN2  CloseQuarters_7_40
// 065   ----------------------------------------
        BYTE   PATT
         POIN2  CloseQuarters_7_41
// 066   ----------------------------------------
        BYTE   W96
// 067   ----------------------------------------
        BYTE   W96
// 068   ----------------------------------------
        BYTE   W96
// 069   ----------------------------------------
        BYTE   W96
// 070   ----------------------------------------
        BYTE   W96
// 071   ----------------------------------------
        BYTE   W96
// 072   ----------------------------------------
        BYTE   W96
// 073   ----------------------------------------
        BYTE   W96
// 074   ----------------------------------------
        BYTE   PATT
         POIN2  CloseQuarters_7_34
// 075   ----------------------------------------
        BYTE   PATT
         POIN2  CloseQuarters_7_35
// 076   ----------------------------------------
        BYTE   PATT
         POIN2  CloseQuarters_7_36
// 077   ----------------------------------------
        BYTE   PATT
         POIN2  CloseQuarters_7_37
// 078   ----------------------------------------
        BYTE   PATT
         POIN2  CloseQuarters_7_38
// 079   ----------------------------------------
        BYTE   PATT
         POIN2  CloseQuarters_7_39
// 080   ----------------------------------------
        BYTE   PATT
         POIN2  CloseQuarters_7_40
// 081   ----------------------------------------
        BYTE   PATT
         POIN2  CloseQuarters_7_41
// 082   ----------------------------------------
        BYTE   W96
// 083   ----------------------------------------
        BYTE   W96
// 084   ----------------------------------------
        BYTE   W96
// 085   ----------------------------------------
        BYTE   W96
// 086   ----------------------------------------
        BYTE   W96
// 087   ----------------------------------------
        BYTE   W96
// 088   ----------------------------------------
        BYTE   W96
// 089   ----------------------------------------
        BYTE   W96
// 090   ----------------------------------------
        BYTE   W96
// 091   ----------------------------------------
        BYTE   W96
// 092   ----------------------------------------
        BYTE   W96
// 093   ----------------------------------------
        BYTE   W96
// 094   ----------------------------------------
        BYTE   W96
// 095   ----------------------------------------
        BYTE   W96
// 096   ----------------------------------------
        BYTE   W96
// 097   ----------------------------------------
        BYTE   W96
// 098   ----------------------------------------
        BYTE   W96
// 099   ----------------------------------------
        BYTE   W96
// 100   ----------------------------------------
        BYTE   W96
// 101   ----------------------------------------
        BYTE   W96
// 102   ----------------------------------------
        BYTE   W96
// 103   ----------------------------------------
        BYTE   W96
// 104   ----------------------------------------
        BYTE   W96
// 105   ----------------------------------------
        BYTE   W96
// 106   ----------------------------------------
        BYTE   W96
// 107   ----------------------------------------
        BYTE   W96
// 108   ----------------------------------------
        BYTE   W96
// 109   ----------------------------------------
        BYTE   W96
// 110   ----------------------------------------
        BYTE   W96
// 111   ----------------------------------------
        BYTE   W96
// 112   ----------------------------------------
        BYTE   W96
// 113   ----------------------------------------
        BYTE   W96
// 114   ----------------------------------------
        BYTE   GoTo
         POIN2  CloseQuarters_7_LOOP
        BYTE   FINE

//****************** Track 8 (Midi-Chn.8) ******************//

CloseQuarters_8:
        BYTE   KEYSH   CloseQuarters_key+0
// 000   ----------------------------------------
        BYTE           VOICE   127
        BYTE           VOL     62
        BYTE           PAN     c_v+1
        BYTE           N03     An3   v100
        BYTE   W06
        BYTE           N04
        BYTE   W06
        BYTE           N03
        BYTE   W06
        BYTE           N04
        BYTE   W06
        BYTE           N03     An3   v096
        BYTE   W06
        BYTE           N04
        BYTE   W06
        BYTE                   An3
        BYTE   W06
        BYTE                   An3   v092
        BYTE   W06
        BYTE           N03     An3   v088
        BYTE   W06
        BYTE           N06     An3   v084
        BYTE   W06
        BYTE           N04     An3   v080
        BYTE   W06
        BYTE           N03     An3   v076
        BYTE   W06
        BYTE           N04     An3   v072
        BYTE   W06
        BYTE           N03     An3   v064
        BYTE   W06
        BYTE           N05     An3   v056
        BYTE   W06
        BYTE           N04     An3   v052
        BYTE   W06
// 001   ----------------------------------------
        BYTE                   An3   v048
        BYTE   W06
        BYTE                   An3   v040
        BYTE   W06
        BYTE           N05     An3   v036
        BYTE   W06
        BYTE           N04     An3   v032
        BYTE   W06
        BYTE           N05     An3   v028
        BYTE   W06
        BYTE           N04     An3   v020
        BYTE   W06
        BYTE                   An3   v016
        BYTE   W06
        BYTE                   An3   v012
        BYTE   W06
        BYTE                   An3
        BYTE   W06
        BYTE           N05     An3   v008
        BYTE   W42
// 002   ----------------------------------------
CloseQuarters_8_2:
        BYTE           N05     Bn0   v124
        BYTE   W24
        BYTE           N04     Dn1   v120
        BYTE   W36
        BYTE           N03     Bn0   v112
        BYTE   W12
        BYTE           N04     Dn1   v124
        BYTE   W24
        BYTE   PEND
// 003   ----------------------------------------
CloseQuarters_8_3:
        BYTE           N04     Bn0   v124
        BYTE   W24
        BYTE                   Dn1   v120
        BYTE   W36
        BYTE                   Bn0   v100
        BYTE   W12
        BYTE                   Dn1   v116
        BYTE   W24
        BYTE   PEND
// 004   ----------------------------------------
CloseQuarters_8_4:
        BYTE           N04     Bn0   v127
        BYTE   W24
        BYTE           N05     Dn1   v116
        BYTE   W36
        BYTE                   Bn0   v120
        BYTE   W12
        BYTE           N06     Dn1   v124
        BYTE   W24
        BYTE   PEND
// 005   ----------------------------------------
CloseQuarters_8_5:
        BYTE           N05     Bn0   v127
        BYTE   W24
        BYTE                   Dn1   v124
        BYTE   W36
        BYTE           N04     Bn0   v112
        BYTE   W12
        BYTE           N05     Dn1   v120
        BYTE   W24
        BYTE   PEND
// 006   ----------------------------------------
CloseQuarters_8_6:
        BYTE           N05     Bn0   v120
        BYTE   W24
        BYTE           N06     Dn1   v116
        BYTE   W36
        BYTE           N04     Bn0   v108
        BYTE   W12
        BYTE           N06     Dn1   v120
        BYTE   W24
        BYTE   PEND
// 007   ----------------------------------------
CloseQuarters_8_7:
        BYTE           N06     Bn0   v120
        BYTE   W24
        BYTE                   Dn1   v112
        BYTE   W36
        BYTE           N05     Bn0   v096
        BYTE   W12
        BYTE           N06     Dn1   v120
        BYTE   W24
        BYTE   PEND
// 008   ----------------------------------------
CloseQuarters_8_8:
        BYTE           N05     Bn0   v116
        BYTE   W24
        BYTE           N06     Dn1
        BYTE   W36
        BYTE           N05     Bn0   v092
        BYTE   W12
        BYTE           N06     Dn1   v116
        BYTE   W24
        BYTE   PEND
// 009   ----------------------------------------
CloseQuarters_8_9:
        BYTE           N06     Bn0   v120
        BYTE   W24
        BYTE                   Dn1   v112
        BYTE   W36
        BYTE           N05     Bn0   v108
        BYTE   W12
        BYTE           N06     Dn1   v116
        BYTE   W24
        BYTE   PEND
// 010   ----------------------------------------
CloseQuarters_8_10:
        BYTE           N03     Cn2   v108
        BYTE           N05     Bn0   v124
        BYTE   W12
        BYTE           N04     Cn2   v104
        BYTE   W12
        BYTE           N05     Dn2   v116
        BYTE           N04     Dn1   v120
        BYTE   W12
        BYTE           N06     An1   v112
        BYTE   W12
        BYTE                   Dn2   v100
        BYTE   W12
        BYTE           N05     An1
        BYTE           N03     Bn0   v112
        BYTE   W12
        BYTE           N05     Cn2   v108
        BYTE           N04     Dn1   v124
        BYTE   W12
        BYTE           N06     Dn2   v112
        BYTE   W12
        BYTE   PEND
// 011   ----------------------------------------
CloseQuarters_8_11:
        BYTE           N05     Fn1   v100
        BYTE           N04     Bn0   v124
        BYTE   W12
        BYTE           N05     Fn1   v088
        BYTE   W12
        BYTE           N06     Dn2   v112
        BYTE           N04     Dn1   v120
        BYTE   W12
        BYTE           N05     An1   v104
        BYTE   W12
        BYTE           N04     Cn2   v112
        BYTE   W12
        BYTE           N06     Dn2
        BYTE           N04     Bn0   v100
        BYTE   W12
        BYTE           N05     An1
        BYTE           N04     Dn1   v116
        BYTE   W12
        BYTE           N05     Dn2   v112
        BYTE   W12
        BYTE   PEND
// 012   ----------------------------------------
CloseQuarters_8_12:
        BYTE           N04     An1   v100
        BYTE           N04     Bn0   v127
        BYTE   W12
        BYTE           N05     An1   v100
        BYTE   W12
        BYTE                   Dn2   v112
        BYTE           N05     Dn1   v116
        BYTE   W12
        BYTE           N06     An1   v104
        BYTE   W12
        BYTE           N05     En2   v084
        BYTE           N06     Dn2   v104
        BYTE   W12
        BYTE                   An1
        BYTE           N05     Bn0   v120
        BYTE   W12
        BYTE                   Cn2   v104
        BYTE           N06     Dn1   v124
        BYTE   W12
        BYTE           N07     Dn2   v108
        BYTE   W12
        BYTE   PEND
// 013   ----------------------------------------
CloseQuarters_8_13:
        BYTE           N06     Fn1   v092
        BYTE           N05     Bn0   v127
        BYTE   W12
        BYTE                   Fn1   v092
        BYTE   W12
        BYTE           N06     Dn2   v112
        BYTE           N05     Dn1   v124
        BYTE   W12
        BYTE           N06     An1   v108
        BYTE   W12
        BYTE                   Dn2   v112
        BYTE   W12
        BYTE                   Cn2   v096
        BYTE           N04     Bn0   v112
        BYTE   W12
        BYTE           N06     An1   v108
        BYTE           N05     Dn1   v120
        BYTE   W12
        BYTE           N06     Cn2   v112
        BYTE   W12
        BYTE   PEND
// 014   ----------------------------------------
CloseQuarters_8_14:
        BYTE           N05     Fn1   v108
        BYTE           N05     Bn0   v120
        BYTE   W12
        BYTE                   Fn1   v088
        BYTE   W12
        BYTE           N07     Dn2   v112
        BYTE           N06     Dn1   v116
        BYTE   W12
        BYTE           N05     An1   v104
        BYTE   W12
        BYTE           N07     Dn2   v108
        BYTE   W12
        BYTE           N06     An1   v100
        BYTE           N04     Bn0   v108
        BYTE   W12
        BYTE           N05     Cn2   v100
        BYTE           N06     Dn1   v120
        BYTE   W12
        BYTE           N07     Dn2   v108
        BYTE   W12
        BYTE   PEND
// 015   ----------------------------------------
CloseQuarters_8_15:
        BYTE           N06     Fn1   v096
        BYTE           N06     Bn0   v120
        BYTE   W12
        BYTE                   Fn1   v096
        BYTE   W12
        BYTE           N07     Dn2   v104
        BYTE           N06     Dn1   v112
        BYTE   W12
        BYTE                   An1   v088
        BYTE           N04     Gn1   v076
        BYTE   W12
        BYTE           N06     Dn2   v092
        BYTE   W12
        BYTE                   Cn2   v104
        BYTE           N05     Bn0   v096
        BYTE   W12
        BYTE           N07     An1   v100
        BYTE           N06     Dn1   v120
        BYTE   W12
        BYTE           N05     En2   v108
        BYTE   W12
        BYTE   PEND
// 016   ----------------------------------------
CloseQuarters_8_16:
        BYTE           N06     An1   v100
        BYTE           N05     Bn0   v116
        BYTE   W12
        BYTE           N06     An1   v088
        BYTE   W12
        BYTE           N07     Dn2   v112
        BYTE           N06     Dn1   v116
        BYTE   W12
        BYTE           N05     Cn2   v112
        BYTE   W12
        BYTE           N06     Dn2   v100
        BYTE   W12
        BYTE                   Cn2   v104
        BYTE           N05     Bn0   v092
        BYTE   W12
        BYTE           N06     An1   v096
        BYTE           N06     Dn1   v116
        BYTE   W12
        BYTE           N07     Dn2   v100
        BYTE   W12
        BYTE   PEND
// 017   ----------------------------------------
CloseQuarters_8_17:
        BYTE           N05     Fn1   v100
        BYTE           N06     Bn0   v120
        BYTE   W12
        BYTE           N05     Fn1   v084
        BYTE   W12
        BYTE           N07     Dn2   v104
        BYTE           N06     Dn1   v112
        BYTE   W12
        BYTE                   An1   v100
        BYTE   W12
        BYTE           N05     Cn2   v104
        BYTE   W12
        BYTE           N07     Dn2   v116
        BYTE           N05     Bn0   v108
        BYTE   W12
        BYTE           N06     Fn1   v104
        BYTE           N06     Dn1   v116
        BYTE   W24
        BYTE   PEND
// 018   ----------------------------------------
CloseQuarters_8_18:
        BYTE           N03     Cn2   v108
        BYTE           N02     As1   v104
        BYTE           N05     Bn0   v124
        BYTE   W12
        BYTE           N04     Cn2   v104
        BYTE   W12
        BYTE           N05     Dn2   v116
        BYTE           N03     Fs1   v112
        BYTE           N04     Dn1   v120
        BYTE   W12
        BYTE           N01     As1   v100
        BYTE           N06     An1   v112
        BYTE   W12
        BYTE                   Dn2   v100
        BYTE           N01     As1   v104
        BYTE   W12
        BYTE           N05     An1   v100
        BYTE           N03     Bn0   v112
        BYTE   W12
        BYTE           N05     Cn2   v108
        BYTE           N01     Fs1   v096
        BYTE           N04     Dn1   v124
        BYTE   W12
        BYTE           N06     Dn2   v112
        BYTE   W12
        BYTE   PEND
// 019   ----------------------------------------
CloseQuarters_8_19:
        BYTE           N04     As1   v120
        BYTE           N05     Fn1   v100
        BYTE           N04     Bn0   v124
        BYTE   W12
        BYTE           N05     Fn1   v088
        BYTE   W12
        BYTE           N06     Dn2   v112
        BYTE           N03     Fs1   v104
        BYTE           N04     Dn1   v120
        BYTE   W12
        BYTE           N05     An1   v104
        BYTE           N03     Fs1   v100
        BYTE   W12
        BYTE           N04     Cn2   v112
        BYTE           N04     As1   v116
        BYTE   W12
        BYTE           N06     Dn2   v112
        BYTE           N04     Bn0   v100
        BYTE   W12
        BYTE           N05     An1
        BYTE           N02     Fs1   v104
        BYTE           N04     Dn1   v116
        BYTE   W12
        BYTE           N05     Dn2   v112
        BYTE   W12
        BYTE   PEND
// 020   ----------------------------------------
CloseQuarters_8_20:
        BYTE           N15     As1   v116
        BYTE           N04     An1   v100
        BYTE           N04     Bn0   v127
        BYTE   W12
        BYTE           N05     An1   v100
        BYTE   W12
        BYTE                   Dn2   v112
        BYTE           N02     Fs1   v084
        BYTE           N05     Dn1   v116
        BYTE   W12
        BYTE           N06     An1   v104
        BYTE   W12
        BYTE           N05     En2   v084
        BYTE           N06     Dn2   v104
        BYTE           N03     As1   v112
        BYTE   W12
        BYTE           N06     An1   v104
        BYTE           N05     Bn0   v120
        BYTE   W12
        BYTE                   Cn2   v104
        BYTE           N03     Fs1   v112
        BYTE           N06     Dn1   v124
        BYTE   W12
        BYTE           N07     Dn2   v108
        BYTE   W12
        BYTE   PEND
// 021   ----------------------------------------
CloseQuarters_8_21:
        BYTE           N04     As1   v104
        BYTE           N06     Fn1   v092
        BYTE           N05     Bn0   v127
        BYTE   W12
        BYTE                   Fn1   v092
        BYTE   W12
        BYTE           N06     Dn2   v112
        BYTE           N04     Fs1
        BYTE           N05     Dn1   v124
        BYTE   W12
        BYTE           N06     An1   v108
        BYTE           N03     Fs1   v088
        BYTE   W12
        BYTE           N06     Dn2   v112
        BYTE           N03     As1   v116
        BYTE   W12
        BYTE           N06     Cn2   v096
        BYTE           N03     As1   v112
        BYTE           N04     Bn0
        BYTE   W12
        BYTE           N06     An1   v108
        BYTE           N03     Fs1   v092
        BYTE           N05     Dn1   v120
        BYTE   W12
        BYTE           N06     Cn2   v112
        BYTE           N03     Fs1   v096
        BYTE   W12
        BYTE   PEND
// 022   ----------------------------------------
CloseQuarters_8_22:
        BYTE           N13     As1   v116
        BYTE           N05     Fn1   v108
        BYTE           N05     Bn0   v120
        BYTE   W12
        BYTE                   Fn1   v088
        BYTE   W12
        BYTE           N07     Dn2   v112
        BYTE           N03     Fs1   v088
        BYTE           N06     Dn1   v116
        BYTE   W12
        BYTE           N02     As1   v104
        BYTE           N05     An1
        BYTE   W12
        BYTE           N07     Dn2   v108
        BYTE           N03     As1   v112
        BYTE   W12
        BYTE           N06     An1   v100
        BYTE           N04     Bn0   v108
        BYTE   W12
        BYTE           N05     Cn2   v100
        BYTE           N03     Fs1   v096
        BYTE           N06     Dn1   v120
        BYTE   W12
        BYTE           N07     Dn2   v108
        BYTE   W12
        BYTE   PEND
// 023   ----------------------------------------
CloseQuarters_8_23:
        BYTE           N04     As1   v104
        BYTE           N06     Fn1   v096
        BYTE           N06     Bn0   v120
        BYTE   W12
        BYTE                   Fn1   v096
        BYTE   W12
        BYTE           N07     Dn2   v104
        BYTE           N03     Fs1   v096
        BYTE           N06     Dn1   v112
        BYTE   W12
        BYTE                   An1   v088
        BYTE           N04     Gn1   v076
        BYTE   W12
        BYTE           N06     Dn2   v092
        BYTE           N03     As1   v112
        BYTE   W12
        BYTE           N06     Cn2   v104
        BYTE           N03     As1   v096
        BYTE           N05     Bn0
        BYTE   W12
        BYTE           N07     An1   v100
        BYTE           N03     Fs1   v092
        BYTE           N06     Dn1   v120
        BYTE   W12
        BYTE           N05     En2   v108
        BYTE           N04     Fs1   v088
        BYTE   W12
        BYTE   PEND
// 024   ----------------------------------------
CloseQuarters_8_24:
        BYTE           N18     As1   v112
        BYTE           N06     An1   v100
        BYTE           N05     Bn0   v116
        BYTE   W12
        BYTE           N06     An1   v088
        BYTE   W12
        BYTE           N07     Dn2   v112
        BYTE           N02     Fs1   v084
        BYTE           N06     Dn1   v116
        BYTE   W12
        BYTE           N05     Cn2   v112
        BYTE           N02     As1   v116
        BYTE   W12
        BYTE           N06     Dn2   v100
        BYTE           N03     As1   v112
        BYTE   W12
        BYTE           N06     Cn2   v104
        BYTE           N05     Bn0   v092
        BYTE   W12
        BYTE           N06     An1   v096
        BYTE           N02     Fs1   v092
        BYTE           N06     Dn1   v116
        BYTE   W12
        BYTE           N07     Dn2   v100
        BYTE   W12
        BYTE   PEND
// 025   ----------------------------------------
CloseQuarters_8_25:
        BYTE           N02     As1   v096
        BYTE           N05     Fn1   v100
        BYTE           N06     Bn0   v120
        BYTE   W12
        BYTE           N05     Fn1   v084
        BYTE   W12
        BYTE           N07     Dn2   v104
        BYTE           N03     Fs1   v112
        BYTE           N06     Dn1
        BYTE   W12
        BYTE                   An1   v100
        BYTE   W12
        BYTE           N05     Cn2   v104
        BYTE           N02     As1   v120
        BYTE   W12
        BYTE           N07     Dn2   v116
        BYTE           N05     Bn0   v108
        BYTE   W12
        BYTE           N06     Fn1   v104
        BYTE           N06     Dn1   v116
        BYTE   W24
        BYTE   PEND
// 026   ----------------------------------------
        BYTE   PATT
         POIN2  CloseQuarters_8_10
// 027   ----------------------------------------
        BYTE   PATT
         POIN2  CloseQuarters_8_11
// 028   ----------------------------------------
        BYTE   PATT
         POIN2  CloseQuarters_8_12
// 029   ----------------------------------------
        BYTE   PATT
         POIN2  CloseQuarters_8_13
// 030   ----------------------------------------
        BYTE   PATT
         POIN2  CloseQuarters_8_14
// 031   ----------------------------------------
        BYTE   PATT
         POIN2  CloseQuarters_8_15
// 032   ----------------------------------------
        BYTE   PATT
         POIN2  CloseQuarters_8_16
// 033   ----------------------------------------
        BYTE   PATT
         POIN2  CloseQuarters_8_17
// 034   ----------------------------------------
        BYTE   PATT
         POIN2  CloseQuarters_8_18
// 035   ----------------------------------------
        BYTE   PATT
         POIN2  CloseQuarters_8_19
// 036   ----------------------------------------
        BYTE   PATT
         POIN2  CloseQuarters_8_20
// 037   ----------------------------------------
        BYTE   PATT
         POIN2  CloseQuarters_8_21
// 038   ----------------------------------------
        BYTE   PATT
         POIN2  CloseQuarters_8_22
// 039   ----------------------------------------
        BYTE   PATT
         POIN2  CloseQuarters_8_23
// 040   ----------------------------------------
        BYTE   PATT
         POIN2  CloseQuarters_8_24
// 041   ----------------------------------------
        BYTE   PATT
         POIN2  CloseQuarters_8_25
// 042   ----------------------------------------
        BYTE   PATT
         POIN2  CloseQuarters_8_18
// 043   ----------------------------------------
        BYTE   PATT
         POIN2  CloseQuarters_8_19
// 044   ----------------------------------------
        BYTE   PATT
         POIN2  CloseQuarters_8_20
// 045   ----------------------------------------
        BYTE   PATT
         POIN2  CloseQuarters_8_21
// 046   ----------------------------------------
        BYTE   PATT
         POIN2  CloseQuarters_8_22
// 047   ----------------------------------------
        BYTE   PATT
         POIN2  CloseQuarters_8_23
// 048   ----------------------------------------
        BYTE   PATT
         POIN2  CloseQuarters_8_24
// 049   ----------------------------------------
        BYTE   PATT
         POIN2  CloseQuarters_8_25
// 050   ----------------------------------------
CloseQuarters_8_LOOP:
        BYTE           N03     Cn2   v108
        BYTE           N02     As1   v104
        BYTE           N05     Bn0   v124
        BYTE   W12
        BYTE           N04     Cn2   v104
        BYTE   W12
        BYTE           N05     Dn2   v116
        BYTE           N03     Fs1   v112
        BYTE           N04     Dn1   v120
        BYTE   W12
        BYTE           N01     As1   v100
        BYTE           N06     An1   v112
        BYTE   W12
        BYTE                   Dn2   v100
        BYTE           N01     As1   v104
        BYTE   W12
        BYTE           N05     An1   v100
        BYTE           N03     Bn0   v112
        BYTE   W12
        BYTE           N05     Cn2   v108
        BYTE           N01     Fs1   v096
        BYTE           N04     Dn1   v124
        BYTE   W12
        BYTE           N06     Dn2   v112
        BYTE   W12
// 051   ----------------------------------------
        BYTE   PATT
         POIN2  CloseQuarters_8_19
// 052   ----------------------------------------
        BYTE   PATT
         POIN2  CloseQuarters_8_20
// 053   ----------------------------------------
        BYTE   PATT
         POIN2  CloseQuarters_8_21
// 054   ----------------------------------------
        BYTE   PATT
         POIN2  CloseQuarters_8_22
// 055   ----------------------------------------
        BYTE   PATT
         POIN2  CloseQuarters_8_23
// 056   ----------------------------------------
        BYTE   PATT
         POIN2  CloseQuarters_8_24
// 057   ----------------------------------------
        BYTE   PATT
         POIN2  CloseQuarters_8_25
// 058   ----------------------------------------
        BYTE   PATT
         POIN2  CloseQuarters_8_18
// 059   ----------------------------------------
        BYTE   PATT
         POIN2  CloseQuarters_8_19
// 060   ----------------------------------------
        BYTE   PATT
         POIN2  CloseQuarters_8_20
// 061   ----------------------------------------
        BYTE   PATT
         POIN2  CloseQuarters_8_21
// 062   ----------------------------------------
        BYTE   PATT
         POIN2  CloseQuarters_8_22
// 063   ----------------------------------------
        BYTE   PATT
         POIN2  CloseQuarters_8_23
// 064   ----------------------------------------
        BYTE   PATT
         POIN2  CloseQuarters_8_24
// 065   ----------------------------------------
        BYTE   PATT
         POIN2  CloseQuarters_8_25
// 066   ----------------------------------------
        BYTE   PATT
         POIN2  CloseQuarters_8_2
// 067   ----------------------------------------
        BYTE   PATT
         POIN2  CloseQuarters_8_3
// 068   ----------------------------------------
        BYTE   PATT
         POIN2  CloseQuarters_8_4
// 069   ----------------------------------------
        BYTE   PATT
         POIN2  CloseQuarters_8_5
// 070   ----------------------------------------
        BYTE   PATT
         POIN2  CloseQuarters_8_6
// 071   ----------------------------------------
        BYTE   PATT
         POIN2  CloseQuarters_8_7
// 072   ----------------------------------------
        BYTE   PATT
         POIN2  CloseQuarters_8_8
// 073   ----------------------------------------
        BYTE   PATT
         POIN2  CloseQuarters_8_9
// 074   ----------------------------------------
        BYTE   PATT
         POIN2  CloseQuarters_8_18
// 075   ----------------------------------------
        BYTE   PATT
         POIN2  CloseQuarters_8_19
// 076   ----------------------------------------
        BYTE   PATT
         POIN2  CloseQuarters_8_20
// 077   ----------------------------------------
        BYTE   PATT
         POIN2  CloseQuarters_8_21
// 078   ----------------------------------------
        BYTE   PATT
         POIN2  CloseQuarters_8_22
// 079   ----------------------------------------
        BYTE   PATT
         POIN2  CloseQuarters_8_23
// 080   ----------------------------------------
        BYTE   PATT
         POIN2  CloseQuarters_8_24
// 081   ----------------------------------------
        BYTE   PATT
         POIN2  CloseQuarters_8_25
// 082   ----------------------------------------
        BYTE   PATT
         POIN2  CloseQuarters_8_18
// 083   ----------------------------------------
        BYTE   PATT
         POIN2  CloseQuarters_8_19
// 084   ----------------------------------------
        BYTE   PATT
         POIN2  CloseQuarters_8_20
// 085   ----------------------------------------
        BYTE   PATT
         POIN2  CloseQuarters_8_21
// 086   ----------------------------------------
        BYTE   PATT
         POIN2  CloseQuarters_8_22
// 087   ----------------------------------------
        BYTE   PATT
         POIN2  CloseQuarters_8_23
// 088   ----------------------------------------
        BYTE   PATT
         POIN2  CloseQuarters_8_24
// 089   ----------------------------------------
        BYTE   PATT
         POIN2  CloseQuarters_8_25
// 090   ----------------------------------------
        BYTE   PATT
         POIN2  CloseQuarters_8_10
// 091   ----------------------------------------
        BYTE   PATT
         POIN2  CloseQuarters_8_11
// 092   ----------------------------------------
        BYTE   PATT
         POIN2  CloseQuarters_8_12
// 093   ----------------------------------------
        BYTE   PATT
         POIN2  CloseQuarters_8_13
// 094   ----------------------------------------
        BYTE   PATT
         POIN2  CloseQuarters_8_14
// 095   ----------------------------------------
        BYTE   PATT
         POIN2  CloseQuarters_8_15
// 096   ----------------------------------------
        BYTE   PATT
         POIN2  CloseQuarters_8_16
// 097   ----------------------------------------
        BYTE   PATT
         POIN2  CloseQuarters_8_17
// 098   ----------------------------------------
        BYTE   PATT
         POIN2  CloseQuarters_8_10
// 099   ----------------------------------------
        BYTE   PATT
         POIN2  CloseQuarters_8_11
// 100   ----------------------------------------
        BYTE   PATT
         POIN2  CloseQuarters_8_12
// 101   ----------------------------------------
        BYTE   PATT
         POIN2  CloseQuarters_8_13
// 102   ----------------------------------------
        BYTE   PATT
         POIN2  CloseQuarters_8_14
// 103   ----------------------------------------
        BYTE   PATT
         POIN2  CloseQuarters_8_15
// 104   ----------------------------------------
        BYTE   PATT
         POIN2  CloseQuarters_8_16
// 105   ----------------------------------------
        BYTE   PATT
         POIN2  CloseQuarters_8_17
// 106   ----------------------------------------
        BYTE   PATT
         POIN2  CloseQuarters_8_18
// 107   ----------------------------------------
        BYTE   PATT
         POIN2  CloseQuarters_8_19
// 108   ----------------------------------------
        BYTE   PATT
         POIN2  CloseQuarters_8_20
// 109   ----------------------------------------
        BYTE   PATT
         POIN2  CloseQuarters_8_21
// 110   ----------------------------------------
        BYTE   PATT
         POIN2  CloseQuarters_8_22
// 111   ----------------------------------------
        BYTE   PATT
         POIN2  CloseQuarters_8_23
// 112   ----------------------------------------
        BYTE   PATT
         POIN2  CloseQuarters_8_24
// 113   ----------------------------------------
        BYTE   PATT
         POIN2  CloseQuarters_8_25
// 114   ----------------------------------------
        BYTE   GoTo
         POIN2  CloseQuarters_8_LOOP
        BYTE   FINE

//***************** Track 9 (Midi-Chn.10) ******************//

CloseQuarters_9:
        BYTE   KEYSH   CloseQuarters_key+0
// 000   ----------------------------------------
        BYTE           VOICE   115
        BYTE           VOL     45
        BYTE           PAN     c_v+31
        BYTE   W96
// 001   ----------------------------------------
        BYTE   W96
// 002   ----------------------------------------
        BYTE   W96
// 003   ----------------------------------------
        BYTE   W96
// 004   ----------------------------------------
        BYTE   W96
// 005   ----------------------------------------
        BYTE   W96
// 006   ----------------------------------------
        BYTE   W96
// 007   ----------------------------------------
        BYTE   W96
// 008   ----------------------------------------
        BYTE   W96
// 009   ----------------------------------------
        BYTE   W96
// 010   ----------------------------------------
        BYTE   W96
// 011   ----------------------------------------
        BYTE   W96
// 012   ----------------------------------------
        BYTE   W96
// 013   ----------------------------------------
        BYTE   W96
// 014   ----------------------------------------
        BYTE   W96
// 015   ----------------------------------------
        BYTE   W96
// 016   ----------------------------------------
        BYTE   W96
// 017   ----------------------------------------
        BYTE   W96
// 018   ----------------------------------------
        BYTE   W96
// 019   ----------------------------------------
        BYTE   W96
// 020   ----------------------------------------
        BYTE   W96
// 021   ----------------------------------------
        BYTE   W96
// 022   ----------------------------------------
        BYTE   W96
// 023   ----------------------------------------
        BYTE   W96
// 024   ----------------------------------------
        BYTE   W96
// 025   ----------------------------------------
        BYTE   W96
// 026   ----------------------------------------
        BYTE   W96
// 027   ----------------------------------------
        BYTE   W96
// 028   ----------------------------------------
        BYTE   W96
// 029   ----------------------------------------
        BYTE   W96
// 030   ----------------------------------------
        BYTE   W96
// 031   ----------------------------------------
        BYTE   W96
// 032   ----------------------------------------
        BYTE   W96
// 033   ----------------------------------------
        BYTE   W96
// 034   ----------------------------------------
CloseQuarters_9_34:
        BYTE   W24
        BYTE           N03     Dn3   v112
        BYTE   W48
        BYTE           N04     Dn3   v120
        BYTE           N03     Cn3   v112
        BYTE   W24
        BYTE   PEND
// 035   ----------------------------------------
CloseQuarters_9_35:
        BYTE   W24
        BYTE           N03     Dn3   v124
        BYTE   W24
        BYTE                   Dn3   v112
        BYTE   W06
        BYTE                   Dn3
        BYTE   W06
        BYTE                   Dn3   v096
        BYTE   W06
        BYTE           N04     Dn3   v108
        BYTE   W06
        BYTE           N03
        BYTE   W12
        BYTE                   Dn3   v104
        BYTE   W12
        BYTE   PEND
// 036   ----------------------------------------
CloseQuarters_9_36:
        BYTE   W24
        BYTE           N04     Dn3   v104
        BYTE   W48
        BYTE                   Dn3   v112
        BYTE   W24
        BYTE   PEND
// 037   ----------------------------------------
CloseQuarters_9_37:
        BYTE   W24
        BYTE           N04     Dn3   v108
        BYTE   W24
        BYTE           N03     Dn3   v104
        BYTE   W12
        BYTE                   Dn3   v108
        BYTE   W12
        BYTE           N04     Dn3   v112
        BYTE   W24
        BYTE   PEND
// 038   ----------------------------------------
CloseQuarters_9_38:
        BYTE   W24
        BYTE           N04     Dn3   v112
        BYTE   W48
        BYTE           N03     Dn3   v108
        BYTE   W24
        BYTE   PEND
// 039   ----------------------------------------
CloseQuarters_9_39:
        BYTE   W24
        BYTE           N03     Dn3   v108
        BYTE   W24
        BYTE                   Dn3
        BYTE   W06
        BYTE                   Dn3   v092
        BYTE   W06
        BYTE                   Dn3
        BYTE   W06
        BYTE           N04     Dn3   v100
        BYTE   W06
        BYTE                   Dn3   v104
        BYTE   W12
        BYTE                   Dn3   v112
        BYTE   W12
        BYTE   PEND
// 040   ----------------------------------------
        BYTE   PATT
         POIN2  CloseQuarters_9_36
// 041   ----------------------------------------
CloseQuarters_9_41:
        BYTE   W24
        BYTE           N03     Dn3   v112
        BYTE   W24
        BYTE                   Dn3
        BYTE   W12
        BYTE                   Dn3
        BYTE   W12
        BYTE                   Dn3   v116
        BYTE   W24
        BYTE   PEND
// 042   ----------------------------------------
        BYTE   PATT
         POIN2  CloseQuarters_9_34
// 043   ----------------------------------------
        BYTE   PATT
         POIN2  CloseQuarters_9_35
// 044   ----------------------------------------
        BYTE   PATT
         POIN2  CloseQuarters_9_36
// 045   ----------------------------------------
        BYTE   PATT
         POIN2  CloseQuarters_9_37
// 046   ----------------------------------------
        BYTE   PATT
         POIN2  CloseQuarters_9_38
// 047   ----------------------------------------
        BYTE   PATT
         POIN2  CloseQuarters_9_39
// 048   ----------------------------------------
        BYTE   PATT
         POIN2  CloseQuarters_9_36
// 049   ----------------------------------------
        BYTE   PATT
         POIN2  CloseQuarters_9_41
// 050   ----------------------------------------
CloseQuarters_9_LOOP:
        BYTE   W24
        BYTE           N03     Dn3   v112
        BYTE   W48
        BYTE           N04     Dn3   v120
        BYTE           N03     Cn3   v112
        BYTE   W24
// 051   ----------------------------------------
        BYTE   PATT
         POIN2  CloseQuarters_9_35
// 052   ----------------------------------------
        BYTE   PATT
         POIN2  CloseQuarters_9_36
// 053   ----------------------------------------
        BYTE   PATT
         POIN2  CloseQuarters_9_37
// 054   ----------------------------------------
        BYTE   PATT
         POIN2  CloseQuarters_9_38
// 055   ----------------------------------------
        BYTE   PATT
         POIN2  CloseQuarters_9_39
// 056   ----------------------------------------
        BYTE   PATT
         POIN2  CloseQuarters_9_36
// 057   ----------------------------------------
        BYTE   PATT
         POIN2  CloseQuarters_9_41
// 058   ----------------------------------------
        BYTE   PATT
         POIN2  CloseQuarters_9_34
// 059   ----------------------------------------
        BYTE   PATT
         POIN2  CloseQuarters_9_35
// 060   ----------------------------------------
        BYTE   PATT
         POIN2  CloseQuarters_9_36
// 061   ----------------------------------------
        BYTE   PATT
         POIN2  CloseQuarters_9_37
// 062   ----------------------------------------
        BYTE   PATT
         POIN2  CloseQuarters_9_38
// 063   ----------------------------------------
        BYTE   PATT
         POIN2  CloseQuarters_9_39
// 064   ----------------------------------------
        BYTE   PATT
         POIN2  CloseQuarters_9_36
// 065   ----------------------------------------
        BYTE   PATT
         POIN2  CloseQuarters_9_41
// 066   ----------------------------------------
        BYTE   W96
// 067   ----------------------------------------
        BYTE   W96
// 068   ----------------------------------------
        BYTE   W96
// 069   ----------------------------------------
        BYTE   W96
// 070   ----------------------------------------
        BYTE   W96
// 071   ----------------------------------------
        BYTE   W96
// 072   ----------------------------------------
        BYTE   W96
// 073   ----------------------------------------
        BYTE   W96
// 074   ----------------------------------------
        BYTE   PATT
         POIN2  CloseQuarters_9_34
// 075   ----------------------------------------
        BYTE   PATT
         POIN2  CloseQuarters_9_35
// 076   ----------------------------------------
        BYTE   PATT
         POIN2  CloseQuarters_9_36
// 077   ----------------------------------------
        BYTE   PATT
         POIN2  CloseQuarters_9_37
// 078   ----------------------------------------
        BYTE   PATT
         POIN2  CloseQuarters_9_38
// 079   ----------------------------------------
        BYTE   PATT
         POIN2  CloseQuarters_9_39
// 080   ----------------------------------------
        BYTE   PATT
         POIN2  CloseQuarters_9_36
// 081   ----------------------------------------
        BYTE   PATT
         POIN2  CloseQuarters_9_41
// 082   ----------------------------------------
        BYTE   PATT
         POIN2  CloseQuarters_9_34
// 083   ----------------------------------------
        BYTE   PATT
         POIN2  CloseQuarters_9_35
// 084   ----------------------------------------
        BYTE   PATT
         POIN2  CloseQuarters_9_36
// 085   ----------------------------------------
        BYTE   PATT
         POIN2  CloseQuarters_9_37
// 086   ----------------------------------------
        BYTE   PATT
         POIN2  CloseQuarters_9_38
// 087   ----------------------------------------
        BYTE   PATT
         POIN2  CloseQuarters_9_39
// 088   ----------------------------------------
        BYTE   PATT
         POIN2  CloseQuarters_9_36
// 089   ----------------------------------------
        BYTE   PATT
         POIN2  CloseQuarters_9_41
// 090   ----------------------------------------
        BYTE   W96
// 091   ----------------------------------------
        BYTE   W96
// 092   ----------------------------------------
        BYTE   W96
// 093   ----------------------------------------
        BYTE   W96
// 094   ----------------------------------------
        BYTE   W96
// 095   ----------------------------------------
        BYTE   W96
// 096   ----------------------------------------
        BYTE   W96
// 097   ----------------------------------------
        BYTE   W96
// 098   ----------------------------------------
        BYTE           PAN     c_v+33
        BYTE           N04     En4   v092
        BYTE   W24
        BYTE                   En4   v084
        BYTE   W12
        BYTE           N03     En4   v088
        BYTE   W12
        BYTE           N04     En4   v100
        BYTE   W12
        BYTE                   En4   v092
        BYTE   W12
        BYTE           N06     En4   v104
        BYTE   W12
        BYTE           N05     En4   v092
        BYTE   W12
// 099   ----------------------------------------
        BYTE           N06     En4   v096
        BYTE   W24
        BYTE           N04     En4   v092
        BYTE   W24
        BYTE           N05     En4   v088
        BYTE   W12
        BYTE           N06     En4   v100
        BYTE   W12
        BYTE                   En4
        BYTE   W12
        BYTE                   En4
        BYTE   W12
// 100   ----------------------------------------
        BYTE           N05
        BYTE   W24
        BYTE           N06     En4   v084
        BYTE   W12
        BYTE           N07     En4   v108
        BYTE   W12
        BYTE           N04     En4   v096
        BYTE   W12
        BYTE           N06     En4   v088
        BYTE   W12
        BYTE                   En4   v112
        BYTE   W12
        BYTE           N05     En4   v088
        BYTE   W12
// 101   ----------------------------------------
        BYTE           N06     En4   v084
        BYTE   W12
        BYTE                   En4   v104
        BYTE   W12
        BYTE           N05     En4   v092
        BYTE   W24
        BYTE           N04     En4   v096
        BYTE   W24
        BYTE           N05     En4   v100
        BYTE   W12
        BYTE           N06     En4   v104
        BYTE   W12
// 102   ----------------------------------------
        BYTE                   En4
        BYTE   W24
        BYTE           N05     En4   v100
        BYTE   W24
        BYTE           N06     En4   v096
        BYTE   W12
        BYTE           N05     En4   v084
        BYTE   W12
        BYTE           N04     En4   v096
        BYTE   W12
        BYTE           N06
        BYTE   W12
// 103   ----------------------------------------
        BYTE                   En4   v108
        BYTE   W24
        BYTE           N04     En4   v096
        BYTE   W12
        BYTE           N06     En4   v104
        BYTE   W12
        BYTE           N03     En4   v096
        BYTE   W12
        BYTE           N06     En4   v088
        BYTE   W12
        BYTE           N05     En4   v112
        BYTE   W12
        BYTE           N06     En4   v100
        BYTE   W12
// 104   ----------------------------------------
        BYTE                   En4   v112
        BYTE   W24
        BYTE           N04     En4   v096
        BYTE   W24
        BYTE           N06     En4   v100
        BYTE   W12
        BYTE                   En4   v104
        BYTE   W12
        BYTE           N04     En4   v096
        BYTE   W12
        BYTE           N05     En4   v084
        BYTE   W12
// 105   ----------------------------------------
        BYTE           N06     En4   v112
        BYTE   W24
        BYTE                   En4   v096
        BYTE   W12
        BYTE                   En4   v116
        BYTE   W12
        BYTE           N05     En4   v096
        BYTE   W24
        BYTE           N03     En4   v104
        BYTE   W24
// 106   ----------------------------------------
        BYTE   PATT
         POIN2  CloseQuarters_9_34
// 107   ----------------------------------------
        BYTE   PATT
         POIN2  CloseQuarters_9_35
// 108   ----------------------------------------
        BYTE   PATT
         POIN2  CloseQuarters_9_36
// 109   ----------------------------------------
        BYTE   PATT
         POIN2  CloseQuarters_9_37
// 110   ----------------------------------------
        BYTE   PATT
         POIN2  CloseQuarters_9_38
// 111   ----------------------------------------
        BYTE   PATT
         POIN2  CloseQuarters_9_39
// 112   ----------------------------------------
        BYTE   PATT
         POIN2  CloseQuarters_9_36
// 113   ----------------------------------------
        BYTE   PATT
         POIN2  CloseQuarters_9_41
// 114   ----------------------------------------
        BYTE           PAN     c_v+31
        BYTE   GoTo
         POIN2  CloseQuarters_9_LOOP
        BYTE   FINE

//***************** Track 10 (Midi-Chn.11) *****************//

CloseQuarters_10:
        BYTE   KEYSH   CloseQuarters_key+0
// 000   ----------------------------------------
        BYTE           VOICE   62
        BYTE           VOL     0
        BYTE           PAN     c_v-42
        BYTE   W96
// 001   ----------------------------------------
        BYTE   W07
        BYTE           MOD     5
        BYTE   W40
        BYTE   W01
        BYTE           TIE     Cs3   v116
        BYTE   W05
        BYTE           VOL     1
        BYTE   W03
        BYTE                   2
        BYTE   W01
        BYTE                   3
        BYTE   W02
        BYTE                   4
        BYTE   W02
        BYTE                   5
        BYTE   W01
        BYTE                   6
        BYTE   W04
        BYTE                   7
        BYTE   W01
        BYTE                   8
        BYTE   W04
        BYTE                   9
        BYTE   W01
        BYTE                   10
        BYTE   W01
        BYTE                   11
        BYTE   W04
        BYTE                   13
        BYTE   W03
        BYTE                   14
        BYTE   W03
        BYTE                   15
        BYTE   W02
        BYTE                   16
        BYTE   W04
        BYTE                   17
        BYTE   W02
        BYTE                   18
        BYTE   W03
        BYTE                   19
        BYTE   W02
// 002   ----------------------------------------
CloseQuarters_10_2:
        BYTE           VOL     20
        BYTE   W01
        BYTE                   21
        BYTE   W04
        BYTE                   22
        BYTE   W01
        BYTE                   23
        BYTE   W03
        BYTE                   24
        BYTE   W04
        BYTE                   25
        BYTE   W01
        BYTE                   26
        BYTE   W04
        BYTE                   27
        BYTE   W02
        BYTE                   28
        BYTE   W05
        BYTE                   29
        BYTE   W04
        BYTE                   30
        BYTE   W03
        BYTE                   31
        BYTE   W24
        BYTE   W02
        BYTE                   30
        BYTE   W03
        BYTE                   29
        BYTE   W09
        BYTE                   28
        BYTE   W07
        BYTE                   27
        BYTE   W02
        BYTE                   26
        BYTE   W07
        BYTE                   25
        BYTE   W10
        BYTE   PEND
// 003   ----------------------------------------
CloseQuarters_10_3:
        BYTE   W01
        BYTE           VOL     24
        BYTE   W13
        BYTE                   23
        BYTE   W09
        BYTE                   22
        BYTE   W02
        BYTE                   21
        BYTE   W04
        BYTE                   20
        BYTE   W02
        BYTE                   19
        BYTE   W07
        BYTE                   18
        BYTE   W05
        BYTE                   17
        BYTE   W02
        BYTE                   16
        BYTE   W03
        BYTE                   15
        BYTE   W01
        BYTE                   14
        BYTE   W04
        BYTE                   13
        BYTE   W06
        BYTE                   12
        BYTE   W04
        BYTE                   11
        BYTE   W07
        BYTE                   10
        BYTE   W03
        BYTE                   9
        BYTE   W07
        BYTE                   8
        BYTE   W07
        BYTE                   7
        BYTE   W05
        BYTE                   6
        BYTE   W04
        BYTE   PEND
// 004   ----------------------------------------
CloseQuarters_10_4:
        BYTE   W06
        BYTE           VOL     5
        BYTE   W04
        BYTE                   4
        BYTE   W09
        BYTE                   3
        BYTE   W07
        BYTE                   2
        BYTE   W08
        BYTE                   1
        BYTE   W28
        BYTE                   0
        BYTE   W32
        BYTE   W02
        BYTE   PEND
// 005   ----------------------------------------
        BYTE   W96
// 006   ----------------------------------------
        BYTE           EOT     Cs3
        BYTE   W96
// 007   ----------------------------------------
        BYTE   W96
// 008   ----------------------------------------
        BYTE   W96
// 009   ----------------------------------------
        BYTE   W96
// 010   ----------------------------------------
        BYTE   W96
// 011   ----------------------------------------
        BYTE   W96
// 012   ----------------------------------------
        BYTE   W96
// 013   ----------------------------------------
        BYTE   W96
// 014   ----------------------------------------
        BYTE   W96
// 015   ----------------------------------------
        BYTE   W96
// 016   ----------------------------------------
        BYTE   W96
// 017   ----------------------------------------
        BYTE   W96
// 018   ----------------------------------------
        BYTE   W96
// 019   ----------------------------------------
        BYTE   W96
// 020   ----------------------------------------
        BYTE   W96
// 021   ----------------------------------------
        BYTE   W96
// 022   ----------------------------------------
        BYTE   W96
// 023   ----------------------------------------
        BYTE   W96
// 024   ----------------------------------------
        BYTE   W96
// 025   ----------------------------------------
        BYTE   W96
// 026   ----------------------------------------
        BYTE   W96
// 027   ----------------------------------------
        BYTE   W96
// 028   ----------------------------------------
        BYTE   W96
// 029   ----------------------------------------
        BYTE   W96
// 030   ----------------------------------------
        BYTE   W96
// 031   ----------------------------------------
        BYTE   W96
// 032   ----------------------------------------
        BYTE   W96
// 033   ----------------------------------------
        BYTE   W96
// 034   ----------------------------------------
        BYTE   W96
// 035   ----------------------------------------
        BYTE   W96
// 036   ----------------------------------------
        BYTE   W96
// 037   ----------------------------------------
        BYTE   W96
// 038   ----------------------------------------
        BYTE   W96
// 039   ----------------------------------------
        BYTE   W96
// 040   ----------------------------------------
        BYTE   W96
// 041   ----------------------------------------
        BYTE   W96
// 042   ----------------------------------------
        BYTE   W96
// 043   ----------------------------------------
        BYTE   W96
// 044   ----------------------------------------
        BYTE   W96
// 045   ----------------------------------------
        BYTE   W96
// 046   ----------------------------------------
        BYTE   W96
// 047   ----------------------------------------
        BYTE   W96
// 048   ----------------------------------------
        BYTE   W96
// 049   ----------------------------------------
        BYTE   W96
// 050   ----------------------------------------
CloseQuarters_10_LOOP:
        BYTE   W96
// 051   ----------------------------------------
        BYTE   W96
// 052   ----------------------------------------
        BYTE   W96
// 053   ----------------------------------------
        BYTE   W96
// 054   ----------------------------------------
        BYTE   W96
// 055   ----------------------------------------
        BYTE   W96
// 056   ----------------------------------------
        BYTE   W96
// 057   ----------------------------------------
        BYTE   W96
// 058   ----------------------------------------
        BYTE   W96
// 059   ----------------------------------------
        BYTE   W96
// 060   ----------------------------------------
        BYTE   W96
// 061   ----------------------------------------
        BYTE   W96
// 062   ----------------------------------------
        BYTE   W96
// 063   ----------------------------------------
        BYTE   W96
// 064   ----------------------------------------
        BYTE   W96
// 065   ----------------------------------------
        BYTE   W96
// 066   ----------------------------------------
        BYTE   W96
// 067   ----------------------------------------
        BYTE   W96
// 068   ----------------------------------------
        BYTE   W96
// 069   ----------------------------------------
        BYTE   W96
// 070   ----------------------------------------
        BYTE   W96
// 071   ----------------------------------------
        BYTE   W96
// 072   ----------------------------------------
        BYTE   W96
// 073   ----------------------------------------
        BYTE   W96
// 074   ----------------------------------------
        BYTE   W96
// 075   ----------------------------------------
        BYTE   W96
// 076   ----------------------------------------
        BYTE   W96
// 077   ----------------------------------------
        BYTE   W96
// 078   ----------------------------------------
        BYTE   W96
// 079   ----------------------------------------
        BYTE   W96
// 080   ----------------------------------------
        BYTE   W96
// 081   ----------------------------------------
        BYTE   W96
// 082   ----------------------------------------
        BYTE   W96
// 083   ----------------------------------------
        BYTE   W96
// 084   ----------------------------------------
        BYTE   W96
// 085   ----------------------------------------
        BYTE   W96
// 086   ----------------------------------------
        BYTE   W96
// 087   ----------------------------------------
        BYTE   W96
// 088   ----------------------------------------
        BYTE   W96
// 089   ----------------------------------------
        BYTE   W96
// 090   ----------------------------------------
        BYTE   W96
// 091   ----------------------------------------
        BYTE   W96
// 092   ----------------------------------------
        BYTE   W96
// 093   ----------------------------------------
        BYTE   W96
// 094   ----------------------------------------
        BYTE   W96
// 095   ----------------------------------------
        BYTE   W96
// 096   ----------------------------------------
        BYTE   W96
// 097   ----------------------------------------
        BYTE   W96
// 098   ----------------------------------------
        BYTE   W96
// 099   ----------------------------------------
        BYTE   W96
// 100   ----------------------------------------
        BYTE   W96
// 101   ----------------------------------------
        BYTE   W96
// 102   ----------------------------------------
        BYTE   W96
// 103   ----------------------------------------
        BYTE   W96
// 104   ----------------------------------------
        BYTE   W96
// 105   ----------------------------------------
        BYTE   W96
// 106   ----------------------------------------
        BYTE   W96
// 107   ----------------------------------------
        BYTE   W96
// 108   ----------------------------------------
        BYTE   W96
// 109   ----------------------------------------
        BYTE   W96
// 110   ----------------------------------------
        BYTE   W96
// 111   ----------------------------------------
        BYTE   W96
// 112   ----------------------------------------
        BYTE   W96
// 113   ----------------------------------------
        BYTE   W96
// 114   ----------------------------------------
        BYTE   GoTo
         POIN2  CloseQuarters_10_LOOP
        BYTE   FINE

//***************** Track 11 (Midi-Chn.12) *****************//

CloseQuarters_11:
        BYTE   KEYSH   CloseQuarters_key+0
// 000   ----------------------------------------
        BYTE           VOICE   62
        BYTE           VOL     0
        BYTE           PAN     c_v+41
        BYTE   W96
// 001   ----------------------------------------
        BYTE   W07
        BYTE           MOD     5
        BYTE   W40
        BYTE   W01
        BYTE           TIE     En3   v116
        BYTE   W05
        BYTE           VOL     1
        BYTE   W03
        BYTE                   2
        BYTE   W01
        BYTE                   3
        BYTE   W02
        BYTE                   4
        BYTE   W02
        BYTE                   5
        BYTE   W01
        BYTE                   6
        BYTE   W04
        BYTE                   7
        BYTE   W01
        BYTE                   8
        BYTE   W04
        BYTE                   9
        BYTE   W01
        BYTE                   10
        BYTE   W01
        BYTE                   11
        BYTE   W04
        BYTE                   13
        BYTE   W03
        BYTE                   14
        BYTE   W03
        BYTE                   15
        BYTE   W02
        BYTE                   16
        BYTE   W04
        BYTE                   17
        BYTE   W02
        BYTE                   18
        BYTE   W03
        BYTE                   19
        BYTE   W02
// 002   ----------------------------------------
        BYTE   PATT
         POIN2  CloseQuarters_10_2
// 003   ----------------------------------------
        BYTE   PATT
         POIN2  CloseQuarters_10_3
// 004   ----------------------------------------
        BYTE   PATT
         POIN2  CloseQuarters_10_4
// 005   ----------------------------------------
        BYTE   W96
// 006   ----------------------------------------
        BYTE           EOT     En3
        BYTE   W96
// 007   ----------------------------------------
        BYTE   W96
// 008   ----------------------------------------
        BYTE   W96
// 009   ----------------------------------------
        BYTE   W96
// 010   ----------------------------------------
        BYTE   W96
// 011   ----------------------------------------
        BYTE   W96
// 012   ----------------------------------------
        BYTE   W96
// 013   ----------------------------------------
        BYTE   W96
// 014   ----------------------------------------
        BYTE   W96
// 015   ----------------------------------------
        BYTE   W96
// 016   ----------------------------------------
        BYTE   W96
// 017   ----------------------------------------
        BYTE   W96
// 018   ----------------------------------------
        BYTE   W96
// 019   ----------------------------------------
        BYTE   W96
// 020   ----------------------------------------
        BYTE   W96
// 021   ----------------------------------------
        BYTE   W96
// 022   ----------------------------------------
        BYTE   W96
// 023   ----------------------------------------
        BYTE   W96
// 024   ----------------------------------------
        BYTE   W96
// 025   ----------------------------------------
        BYTE   W96
// 026   ----------------------------------------
        BYTE   W96
// 027   ----------------------------------------
        BYTE   W96
// 028   ----------------------------------------
        BYTE   W96
// 029   ----------------------------------------
        BYTE   W96
// 030   ----------------------------------------
        BYTE   W96
// 031   ----------------------------------------
        BYTE   W96
// 032   ----------------------------------------
        BYTE   W96
// 033   ----------------------------------------
        BYTE   W96
// 034   ----------------------------------------
        BYTE   W96
// 035   ----------------------------------------
        BYTE   W96
// 036   ----------------------------------------
        BYTE   W96
// 037   ----------------------------------------
        BYTE   W96
// 038   ----------------------------------------
        BYTE   W96
// 039   ----------------------------------------
        BYTE   W96
// 040   ----------------------------------------
        BYTE   W96
// 041   ----------------------------------------
        BYTE   W96
// 042   ----------------------------------------
        BYTE   W96
// 043   ----------------------------------------
        BYTE   W96
// 044   ----------------------------------------
        BYTE   W96
// 045   ----------------------------------------
        BYTE   W96
// 046   ----------------------------------------
        BYTE   W96
// 047   ----------------------------------------
        BYTE   W96
// 048   ----------------------------------------
        BYTE   W96
// 049   ----------------------------------------
        BYTE   W96
// 050   ----------------------------------------
CloseQuarters_11_LOOP:
        BYTE   W96
// 051   ----------------------------------------
        BYTE   W96
// 052   ----------------------------------------
        BYTE   W96
// 053   ----------------------------------------
        BYTE   W96
// 054   ----------------------------------------
        BYTE   W96
// 055   ----------------------------------------
        BYTE   W96
// 056   ----------------------------------------
        BYTE   W96
// 057   ----------------------------------------
        BYTE   W96
// 058   ----------------------------------------
        BYTE   W96
// 059   ----------------------------------------
        BYTE   W96
// 060   ----------------------------------------
        BYTE   W96
// 061   ----------------------------------------
        BYTE   W96
// 062   ----------------------------------------
        BYTE   W96
// 063   ----------------------------------------
        BYTE   W96
// 064   ----------------------------------------
        BYTE   W96
// 065   ----------------------------------------
        BYTE   W96
// 066   ----------------------------------------
        BYTE   W96
// 067   ----------------------------------------
        BYTE   W96
// 068   ----------------------------------------
        BYTE   W96
// 069   ----------------------------------------
        BYTE   W96
// 070   ----------------------------------------
        BYTE   W96
// 071   ----------------------------------------
        BYTE   W96
// 072   ----------------------------------------
        BYTE   W96
// 073   ----------------------------------------
        BYTE   W96
// 074   ----------------------------------------
        BYTE   W96
// 075   ----------------------------------------
        BYTE   W96
// 076   ----------------------------------------
        BYTE   W96
// 077   ----------------------------------------
        BYTE   W96
// 078   ----------------------------------------
        BYTE   W96
// 079   ----------------------------------------
        BYTE   W96
// 080   ----------------------------------------
        BYTE   W96
// 081   ----------------------------------------
        BYTE   W96
// 082   ----------------------------------------
        BYTE   W96
// 083   ----------------------------------------
        BYTE   W96
// 084   ----------------------------------------
        BYTE   W96
// 085   ----------------------------------------
        BYTE   W96
// 086   ----------------------------------------
        BYTE   W96
// 087   ----------------------------------------
        BYTE   W96
// 088   ----------------------------------------
        BYTE   W96
// 089   ----------------------------------------
        BYTE   W96
// 090   ----------------------------------------
        BYTE   W96
// 091   ----------------------------------------
        BYTE   W96
// 092   ----------------------------------------
        BYTE   W96
// 093   ----------------------------------------
        BYTE   W96
// 094   ----------------------------------------
        BYTE   W96
// 095   ----------------------------------------
        BYTE   W96
// 096   ----------------------------------------
        BYTE   W96
// 097   ----------------------------------------
        BYTE   W96
// 098   ----------------------------------------
        BYTE   W96
// 099   ----------------------------------------
        BYTE   W96
// 100   ----------------------------------------
        BYTE   W96
// 101   ----------------------------------------
        BYTE   W96
// 102   ----------------------------------------
        BYTE   W96
// 103   ----------------------------------------
        BYTE   W96
// 104   ----------------------------------------
        BYTE   W96
// 105   ----------------------------------------
        BYTE   W96
// 106   ----------------------------------------
        BYTE   W96
// 107   ----------------------------------------
        BYTE   W96
// 108   ----------------------------------------
        BYTE   W96
// 109   ----------------------------------------
        BYTE   W96
// 110   ----------------------------------------
        BYTE   W96
// 111   ----------------------------------------
        BYTE   W96
// 112   ----------------------------------------
        BYTE   W96
// 113   ----------------------------------------
        BYTE   W96
// 114   ----------------------------------------
        BYTE   GoTo
         POIN2  CloseQuarters_11_LOOP
        BYTE   FINE


//********************** End of Song ***********************//

        ALIGN 4
CloseQuarters:
        BYTE   12                      // Num Tracks
        BYTE   0                       // Unknown
        BYTE   CloseQuarters_pri       // Priority
        BYTE   CloseQuarters_rev       // Reverb

        POIN2   CloseQuarters_grp      

        POIN2   CloseQuarters_0
        POIN2   CloseQuarters_1
        POIN2   CloseQuarters_2
        POIN2   CloseQuarters_3
        POIN2   CloseQuarters_4
        POIN2   CloseQuarters_5
        POIN2   CloseQuarters_6
        POIN2   CloseQuarters_7
        POIN2   CloseQuarters_8
        POIN2   CloseQuarters_9
        POIN2   CloseQuarters_10
        POIN2   CloseQuarters_11

        
