//Event file generated from Sappy .s format.
        #include "MPlayDef.event"

        #define    DarkSong_grp  OSRS
        #define    DarkSong_pri  0
        #define    DarkSong_rev  0
        #define    DarkSong_key  0

        // .rodata
        // DarkSong
        ALIGN 4

//****************** Track 0 (Midi-Chn.0) ******************//

DarkSong_0:
        BYTE   KEYSH   DarkSong_key+0
// 000   ----------------------------------------
        BYTE   TEMPO   114/2
        BYTE           VOICE   49
        BYTE           VOL     61
        BYTE   W06
        BYTE           TIE     An1   v084
        BYTE           TIE     An0   v096
        BYTE   W90
// 001   ----------------------------------------
        BYTE   W90
        BYTE           EOT
        BYTE           EOT     An1
        BYTE   W06
// 002   ----------------------------------------
        BYTE           N44     Fn1   v104
        BYTE           N44     Fn0   v084
        BYTE   W48
        BYTE           N40     Cn2   v100
        BYTE           N40     Cn1   v088
        BYTE   W48
// 003   ----------------------------------------
        BYTE           N78     En2   v096
        BYTE           N76     En1   v104
        BYTE   W96
// 004   ----------------------------------------
        BYTE           TIE     An1
        BYTE           TIE     An0   v096
        BYTE   W96
// 005   ----------------------------------------
DarkSong_0_5:
        BYTE   W88
        BYTE           EOT     An0
        BYTE   W01
        BYTE                   An1
        BYTE   W07
        BYTE   PEND
// 006   ----------------------------------------
DarkSong_0_6:
        BYTE           N42     Fn1   v100
        BYTE           N42     Fn0   v088
        BYTE   W48
        BYTE           N44     Dn2   v096
        BYTE           N42     Dn1   v092
        BYTE   W48
        BYTE   PEND
// 007   ----------------------------------------
DarkSong_0_7:
        BYTE           N78     An1   v096
        BYTE           N84     An0   v080
        BYTE   W96
        BYTE   PEND
// 008   ----------------------------------------
        BYTE           TIE     Dn2   v104
        BYTE           TIE     Dn1
        BYTE   W96
// 009   ----------------------------------------
        BYTE   W84
        BYTE   W03
        BYTE           EOT     Dn2
        BYTE   W01
        BYTE                   Dn1
        BYTE   W08
// 010   ----------------------------------------
        BYTE           N40     Fn2   v108
        BYTE           N40     Fn1
        BYTE   W48
        BYTE           N28     En2   v104
        BYTE           N32     En1
        BYTE   W48
// 011   ----------------------------------------
        BYTE           N84     Dn2
        BYTE           N80     Dn1
        BYTE   W96
// 012   ----------------------------------------
        BYTE           PAN     c_v-5
        BYTE           TIE     An1
        BYTE           TIE     An0   v096
        BYTE   W96
// 013   ----------------------------------------
        BYTE   PATT
         POIN2  DarkSong_0_5
// 014   ----------------------------------------
        BYTE   PATT
         POIN2  DarkSong_0_6
// 015   ----------------------------------------
        BYTE   PATT
         POIN2  DarkSong_0_7
// 016   ----------------------------------------
DarkSong_0_LOOP:
        BYTE   W96
// 017   ----------------------------------------
        BYTE   W96
// 018   ----------------------------------------
        BYTE   W96
// 019   ----------------------------------------
        BYTE   W96
// 020   ----------------------------------------
        BYTE   W96
// 021   ----------------------------------------
        BYTE   W96
// 022   ----------------------------------------
        BYTE   W96
// 023   ----------------------------------------
        BYTE   W96
// 024   ----------------------------------------
        BYTE   W96
// 025   ----------------------------------------
        BYTE   W96
// 026   ----------------------------------------
        BYTE   W96
// 027   ----------------------------------------
        BYTE   W96
// 028   ----------------------------------------
        BYTE   W96
// 029   ----------------------------------------
        BYTE   W96
// 030   ----------------------------------------
        BYTE   W96
// 031   ----------------------------------------
        BYTE   W96
// 032   ----------------------------------------
        BYTE   W96
// 033   ----------------------------------------
        BYTE   W96
// 034   ----------------------------------------
        BYTE   W96
// 035   ----------------------------------------
        BYTE   W96
// 036   ----------------------------------------
        BYTE   W96
// 037   ----------------------------------------
        BYTE   W96
// 038   ----------------------------------------
        BYTE   W96
// 039   ----------------------------------------
        BYTE   W96
// 040   ----------------------------------------
        BYTE   W96
// 041   ----------------------------------------
        BYTE   W96
// 042   ----------------------------------------
        BYTE           TIE     An0   v096
        BYTE   W96
// 043   ----------------------------------------
        BYTE   W40
        BYTE   W01
        BYTE           EOT
        BYTE   W01
        BYTE           N44     Dn1   v120
        BYTE   W48
        BYTE           N90     Cn1   v112
        BYTE   W06
// 044   ----------------------------------------
        BYTE   W90
        BYTE           N80     Bn0   v108
        BYTE   W06
// 045   ----------------------------------------
        BYTE   W96
// 046   ----------------------------------------
        BYTE           TIE     An0   v112
        BYTE   W96
// 047   ----------------------------------------
DarkSong_0_47:
        BYTE   W36
        BYTE   W03
        BYTE           EOT     An0
        BYTE   W03
        BYTE           N44     Cn1   v120
        BYTE   W54
        BYTE   PEND
// 048   ----------------------------------------
        BYTE           TIE     Fn0   v108
        BYTE   W96
// 049   ----------------------------------------
DarkSong_0_49:
        BYTE   W44
        BYTE   W01
        BYTE           EOT     Fn0
        BYTE   W03
        BYTE           N48     En1   v096
        BYTE   W48
        BYTE   PEND
// 050   ----------------------------------------
        BYTE           TIE     An0   v112
        BYTE   W96
// 051   ----------------------------------------
        BYTE   PATT
         POIN2  DarkSong_0_47
// 052   ----------------------------------------
        BYTE           TIE     Fn0   v108
        BYTE   W96
// 053   ----------------------------------------
        BYTE   PATT
         POIN2  DarkSong_0_49
// 054   ----------------------------------------
        BYTE           TIE     An0   v112
        BYTE   W96
// 055   ----------------------------------------
        BYTE   PATT
         POIN2  DarkSong_0_47
// 056   ----------------------------------------
        BYTE           TIE     Fn0   v108
        BYTE   W96
// 057   ----------------------------------------
        BYTE   PATT
         POIN2  DarkSong_0_49
// 058   ----------------------------------------
        BYTE   W96
// 059   ----------------------------------------
        BYTE   W96
// 060   ----------------------------------------
        BYTE   W96
// 061   ----------------------------------------
        BYTE   W96
// 062   ----------------------------------------
        BYTE   W96
// 063   ----------------------------------------
        BYTE   W96
// 064   ----------------------------------------
        BYTE   W96
// 065   ----------------------------------------
        BYTE   W96
// 066   ----------------------------------------
        BYTE   W96
// 067   ----------------------------------------
        BYTE   W96
// 068   ----------------------------------------
        BYTE   W96
// 069   ----------------------------------------
        BYTE   W96
// 070   ----------------------------------------
        BYTE   W96
// 071   ----------------------------------------
        BYTE   W96
// 072   ----------------------------------------
        BYTE   W96
// 073   ----------------------------------------
        BYTE   W96
// 074   ----------------------------------------
        BYTE   GoTo
         POIN2  DarkSong_0_LOOP
        BYTE   FINE

//****************** Track 1 (Midi-Chn.1) ******************//

DarkSong_1:
        BYTE   KEYSH   DarkSong_key+0
// 000   ----------------------------------------
        BYTE           VOL     61
        BYTE           VOICE   14
        BYTE   W96
// 001   ----------------------------------------
        BYTE   W96
// 002   ----------------------------------------
        BYTE   W96
// 003   ----------------------------------------
        BYTE   W96
// 004   ----------------------------------------
        BYTE   W96
// 005   ----------------------------------------
        BYTE   W96
// 006   ----------------------------------------
        BYTE   W96
// 007   ----------------------------------------
        BYTE   W96
// 008   ----------------------------------------
        BYTE   W96
// 009   ----------------------------------------
        BYTE   W96
// 010   ----------------------------------------
        BYTE   W96
// 011   ----------------------------------------
        BYTE   W96
// 012   ----------------------------------------
        BYTE   W96
// 013   ----------------------------------------
        BYTE   W96
// 014   ----------------------------------------
        BYTE   W96
// 015   ----------------------------------------
        BYTE   W96
// 016   ----------------------------------------
DarkSong_1_LOOP:
        BYTE           N42     Dn3   v124
        BYTE           N40     Dn2
        BYTE   W96
// 017   ----------------------------------------
        BYTE   W96
// 018   ----------------------------------------
        BYTE           N44     Dn3
        BYTE           N36     Dn2   v116
        BYTE   W96
// 019   ----------------------------------------
        BYTE   W96
// 020   ----------------------------------------
        BYTE           N44     Dn3   v124
        BYTE           N42     Dn2   v120
        BYTE   W96
// 021   ----------------------------------------
        BYTE   W96
// 022   ----------------------------------------
        BYTE           N44     Dn3   v127
        BYTE           N44     Dn2   v116
        BYTE   W96
// 023   ----------------------------------------
        BYTE   W96
// 024   ----------------------------------------
        BYTE   W96
// 025   ----------------------------------------
        BYTE   W96
// 026   ----------------------------------------
        BYTE   W96
// 027   ----------------------------------------
        BYTE   W96
// 028   ----------------------------------------
        BYTE   W96
// 029   ----------------------------------------
        BYTE   W96
// 030   ----------------------------------------
        BYTE   W96
// 031   ----------------------------------------
        BYTE   W96
// 032   ----------------------------------------
        BYTE   W96
// 033   ----------------------------------------
        BYTE   W96
// 034   ----------------------------------------
        BYTE   W96
// 035   ----------------------------------------
        BYTE   W96
// 036   ----------------------------------------
        BYTE   W96
// 037   ----------------------------------------
        BYTE   W96
// 038   ----------------------------------------
        BYTE   W96
// 039   ----------------------------------------
        BYTE   W96
// 040   ----------------------------------------
        BYTE   W96
// 041   ----------------------------------------
        BYTE   W96
// 042   ----------------------------------------
        BYTE           N48     An1   v092
        BYTE   W96
// 043   ----------------------------------------
        BYTE           N64     An1   v076
        BYTE   W96
// 044   ----------------------------------------
        BYTE   W96
// 045   ----------------------------------------
DarkSong_1_45:
        BYTE           N36     An1   v076
        BYTE   W48
        BYTE           N44     An1   v096
        BYTE   W48
        BYTE   PEND
// 046   ----------------------------------------
        BYTE   W96
// 047   ----------------------------------------
        BYTE           N48     An1   v092
        BYTE   W96
// 048   ----------------------------------------
        BYTE   W96
// 049   ----------------------------------------
DarkSong_1_49:
        BYTE           N36     An1   v092
        BYTE   W48
        BYTE           N44
        BYTE   W48
        BYTE   PEND
// 050   ----------------------------------------
        BYTE   W96
// 051   ----------------------------------------
        BYTE           N64     An1   v076
        BYTE   W96
// 052   ----------------------------------------
        BYTE   W96
// 053   ----------------------------------------
        BYTE   PATT
         POIN2  DarkSong_1_45
// 054   ----------------------------------------
        BYTE   W96
// 055   ----------------------------------------
        BYTE           N48     An1   v092
        BYTE   W96
// 056   ----------------------------------------
        BYTE   W96
// 057   ----------------------------------------
        BYTE   PATT
         POIN2  DarkSong_1_49
// 058   ----------------------------------------
        BYTE   W96
// 059   ----------------------------------------
        BYTE           TIE     An2   v120
        BYTE   W96
// 060   ----------------------------------------
        BYTE   W18
        BYTE           EOT
        BYTE   W78
// 061   ----------------------------------------
        BYTE   W96
// 062   ----------------------------------------
        BYTE   W96
// 063   ----------------------------------------
        BYTE   W96
// 064   ----------------------------------------
        BYTE   W96
// 065   ----------------------------------------
DarkSong_1_65:
        BYTE   W72
        BYTE           N24     An3   v127
        BYTE   W24
        BYTE   PEND
// 066   ----------------------------------------
        BYTE   W96
// 067   ----------------------------------------
        BYTE           TIE     An2   v120
        BYTE   W96
// 068   ----------------------------------------
        BYTE   W18
        BYTE           EOT
        BYTE   W78
// 069   ----------------------------------------
        BYTE   W96
// 070   ----------------------------------------
        BYTE   W96
// 071   ----------------------------------------
        BYTE   W96
// 072   ----------------------------------------
        BYTE   W96
// 073   ----------------------------------------
        BYTE   PATT
         POIN2  DarkSong_1_65
// 074   ----------------------------------------
        BYTE   GoTo
         POIN2  DarkSong_1_LOOP
        BYTE   FINE

//****************** Track 2 (Midi-Chn.2) ******************//

DarkSong_2:
        BYTE   KEYSH   DarkSong_key+0
// 000   ----------------------------------------
        BYTE           VOICE   60
        BYTE           VOL     77
        BYTE           N18     An3   v092
        BYTE   W24
        BYTE           N06     Gn3   v068
        BYTE   W12
        BYTE           N05     Fn3   v060
        BYTE   W12
        BYTE           N15     En3   v092
        BYTE   W24
        BYTE           N06     Dn3   v084
        BYTE   W12
        BYTE                   En3   v076
        BYTE   W12
// 001   ----------------------------------------
        BYTE           N17     Fn3
        BYTE   W24
        BYTE           N05     En3   v060
        BYTE   W12
        BYTE                   Fn3   v076
        BYTE   W12
        BYTE           N14     En3
        BYTE   W24
        BYTE           N12     An2   v084
        BYTE   W24
// 002   ----------------------------------------
        BYTE           N06     An2   v076
        BYTE   W12
        BYTE           N07     Bn2   v072
        BYTE   W12
        BYTE           N05     Cn3   v060
        BYTE   W12
        BYTE                   Dn3   v076
        BYTE   W12
        BYTE                   En3
        BYTE   W12
        BYTE                   Dn3   v064
        BYTE   W12
        BYTE           N06     Cn3   v076
        BYTE   W12
        BYTE           N05     Dn3   v080
        BYTE   W12
// 003   ----------------------------------------
        BYTE           N72     En3
        BYTE   W96
// 004   ----------------------------------------
DarkSong_2_4:
        BYTE           N15     An3   v088
        BYTE   W24
        BYTE           N06     Gn3   v080
        BYTE   W12
        BYTE           N05     Fn3   v084
        BYTE   W12
        BYTE           N16     En3   v080
        BYTE   W24
        BYTE           N06     Dn3   v084
        BYTE   W12
        BYTE                   En3   v072
        BYTE   W12
        BYTE   PEND
// 005   ----------------------------------------
DarkSong_2_5:
        BYTE           N16     Fn3   v084
        BYTE   W24
        BYTE           N06     En3   v080
        BYTE   W12
        BYTE                   Fn3   v092
        BYTE   W12
        BYTE           N16     En3   v084
        BYTE   W24
        BYTE           N14     An2
        BYTE   W24
        BYTE   PEND
// 006   ----------------------------------------
DarkSong_2_6:
        BYTE           N05     An2   v084
        BYTE   W12
        BYTE                   Gn2   v080
        BYTE   W12
        BYTE           N06     An2   v068
        BYTE   W12
        BYTE                   Bn2   v060
        BYTE   W12
        BYTE                   Cn3   v080
        BYTE   W12
        BYTE           N05     Bn2   v060
        BYTE   W12
        BYTE                   Cn3   v076
        BYTE   W12
        BYTE                   Bn2   v080
        BYTE   W12
        BYTE   PEND
// 007   ----------------------------------------
        BYTE           N68     An2   v076
        BYTE   W96
// 008   ----------------------------------------
        BYTE           N04     Dn3   v092
        BYTE   W12
        BYTE                   An2   v084
        BYTE   W12
        BYTE           N07     Dn2   v080
        BYTE   W12
        BYTE           N05     An2
        BYTE   W12
        BYTE                   Dn3   v100
        BYTE   W12
        BYTE           N06     Dn2   v076
        BYTE   W12
        BYTE           N05     An2   v080
        BYTE   W12
        BYTE           N04     Dn3
        BYTE   W12
// 009   ----------------------------------------
        BYTE                   Fn3   v088
        BYTE   W12
        BYTE                   En3   v084
        BYTE   W12
        BYTE           N05     Fn3   v076
        BYTE   W12
        BYTE           N04     En3   v072
        BYTE   W12
        BYTE           N22     Dn3   v088
        BYTE   W24
        BYTE           N05     En3   v080
        BYTE   W12
        BYTE                   Fn3   v072
        BYTE   W12
// 010   ----------------------------------------
        BYTE           N20     Gn3   v080
        BYTE   W24
        BYTE           N06     Fn3   v088
        BYTE   W12
        BYTE                   En3   v096
        BYTE   W12
        BYTE           N16     Dn3   v092
        BYTE   W24
        BYTE           N06     En3   v080
        BYTE   W12
        BYTE           N05     Fn3   v092
        BYTE   W12
// 011   ----------------------------------------
        BYTE           N42     Dn3   v076
        BYTE   W96
// 012   ----------------------------------------
        BYTE   PATT
         POIN2  DarkSong_2_4
// 013   ----------------------------------------
        BYTE   PATT
         POIN2  DarkSong_2_5
// 014   ----------------------------------------
        BYTE   PATT
         POIN2  DarkSong_2_6
// 015   ----------------------------------------
        BYTE           N68     An2   v076
        BYTE   W96
// 016   ----------------------------------------
DarkSong_2_LOOP:
        BYTE   W96
// 017   ----------------------------------------
        BYTE   W96
// 018   ----------------------------------------
        BYTE   W96
// 019   ----------------------------------------
        BYTE   W96
// 020   ----------------------------------------
        BYTE   W96
// 021   ----------------------------------------
        BYTE   W96
// 022   ----------------------------------------
        BYTE   W96
// 023   ----------------------------------------
        BYTE   W96
// 024   ----------------------------------------
        BYTE   W96
// 025   ----------------------------------------
        BYTE   W96
// 026   ----------------------------------------
        BYTE   W96
// 027   ----------------------------------------
        BYTE   W96
// 028   ----------------------------------------
        BYTE   W96
// 029   ----------------------------------------
        BYTE   W96
// 030   ----------------------------------------
        BYTE   W96
// 031   ----------------------------------------
        BYTE   W96
// 032   ----------------------------------------
        BYTE   W96
// 033   ----------------------------------------
        BYTE   W96
// 034   ----------------------------------------
        BYTE   W96
// 035   ----------------------------------------
        BYTE   W96
// 036   ----------------------------------------
        BYTE   W96
// 037   ----------------------------------------
        BYTE   W96
// 038   ----------------------------------------
        BYTE   W96
// 039   ----------------------------------------
        BYTE   W96
// 040   ----------------------------------------
        BYTE   W96
// 041   ----------------------------------------
        BYTE   W96
// 042   ----------------------------------------
DarkSong_2_42:
        BYTE   W72
        BYTE           N24     Cn4   v068
        BYTE   W24
        BYTE   PEND
// 043   ----------------------------------------
DarkSong_2_43:
        BYTE           N40     Bn3   v100
        BYTE   W48
        BYTE           TIE     Cn3   v092
        BYTE   W48
        BYTE   PEND
// 044   ----------------------------------------
DarkSong_2_44:
        BYTE   W68
        BYTE   W02
        BYTE           EOT     Cn3
        BYTE   W02
        BYTE           N22     Fn3   v088
        BYTE   W24
        BYTE   PEND
// 045   ----------------------------------------
DarkSong_2_45:
        BYTE           N44     En3   v076
        BYTE   W48
        BYTE           N48     Fn3   v080
        BYTE   W48
        BYTE   PEND
// 046   ----------------------------------------
DarkSong_2_46:
        BYTE           N68     En3   v080
        BYTE   W72
        BYTE           N11     Dn3
        BYTE   W12
        BYTE           N12     Cn3
        BYTE   W12
        BYTE   PEND
// 047   ----------------------------------------
DarkSong_2_47:
        BYTE           N44     Dn3   v080
        BYTE   W48
        BYTE           N48     En3   v072
        BYTE   W48
        BYTE   PEND
// 048   ----------------------------------------
DarkSong_2_48:
        BYTE           N11     Dn3   v088
        BYTE   W12
        BYTE           N36     Cn3   v072
        BYTE   W36
        BYTE           N48     Bn2   v080
        BYTE   W48
        BYTE   PEND
// 049   ----------------------------------------
        BYTE           N78     En2   v088
        BYTE   W96
// 050   ----------------------------------------
        BYTE   PATT
         POIN2  DarkSong_2_42
// 051   ----------------------------------------
        BYTE   PATT
         POIN2  DarkSong_2_43
// 052   ----------------------------------------
        BYTE   PATT
         POIN2  DarkSong_2_44
// 053   ----------------------------------------
        BYTE   PATT
         POIN2  DarkSong_2_45
// 054   ----------------------------------------
        BYTE   PATT
         POIN2  DarkSong_2_46
// 055   ----------------------------------------
        BYTE   PATT
         POIN2  DarkSong_2_47
// 056   ----------------------------------------
        BYTE   PATT
         POIN2  DarkSong_2_48
// 057   ----------------------------------------
        BYTE           N78     En2   v088
        BYTE   W96
// 058   ----------------------------------------
        BYTE   W96
// 059   ----------------------------------------
        BYTE   W96
// 060   ----------------------------------------
        BYTE   W96
// 061   ----------------------------------------
        BYTE   W96
// 062   ----------------------------------------
        BYTE   W96
// 063   ----------------------------------------
        BYTE   W96
// 064   ----------------------------------------
        BYTE   W96
// 065   ----------------------------------------
        BYTE   W96
// 066   ----------------------------------------
        BYTE   W96
// 067   ----------------------------------------
        BYTE   W96
// 068   ----------------------------------------
        BYTE   W96
// 069   ----------------------------------------
        BYTE   W96
// 070   ----------------------------------------
        BYTE   W96
// 071   ----------------------------------------
        BYTE   W96
// 072   ----------------------------------------
        BYTE   W96
// 073   ----------------------------------------
        BYTE   W96
// 074   ----------------------------------------
        BYTE   GoTo
         POIN2  DarkSong_2_LOOP
        BYTE   FINE

//****************** Track 3 (Midi-Chn.3) ******************//

DarkSong_3:
        BYTE   KEYSH   DarkSong_key+0
// 000   ----------------------------------------
        BYTE           VOL     66
        BYTE           VOICE   52
        BYTE   W96
// 001   ----------------------------------------
        BYTE   W96
// 002   ----------------------------------------
        BYTE   W96
// 003   ----------------------------------------
        BYTE   W96
// 004   ----------------------------------------
        BYTE   W96
// 005   ----------------------------------------
        BYTE   W96
// 006   ----------------------------------------
        BYTE   W96
// 007   ----------------------------------------
        BYTE   W96
// 008   ----------------------------------------
        BYTE   W96
// 009   ----------------------------------------
        BYTE   W96
// 010   ----------------------------------------
        BYTE   W96
// 011   ----------------------------------------
        BYTE   W96
// 012   ----------------------------------------
        BYTE   W96
// 013   ----------------------------------------
        BYTE   W96
// 014   ----------------------------------------
        BYTE   W96
// 015   ----------------------------------------
        BYTE   W96
// 016   ----------------------------------------
DarkSong_3_LOOP:
        BYTE   W48
        BYTE           N16     Dn3   v104
        BYTE           N17     An2   v096
        BYTE           N17     Fn2   v100
        BYTE   W24
        BYTE           N14     Cn3   v104
        BYTE           N14     An2
        BYTE           N13     En2   v096
        BYTE   W24
// 017   ----------------------------------------
DarkSong_3_17:
        BYTE           N36     Fn3   v100
        BYTE           N36     Cn3   v112
        BYTE           N36     An2   v104
        BYTE   W48
        BYTE           N28     Dn3   v100
        BYTE           N28     An2
        BYTE           N28     Fn2   v092
        BYTE   W48
        BYTE   PEND
// 018   ----------------------------------------
DarkSong_3_18:
        BYTE   W48
        BYTE           N16     Dn3   v096
        BYTE           N17     An2   v104
        BYTE           N16     Fn2   v096
        BYTE   W24
        BYTE           N14     Cn3   v092
        BYTE           N14     An2
        BYTE           N13     En2
        BYTE   W24
        BYTE   PEND
// 019   ----------------------------------------
DarkSong_3_19:
        BYTE           N32     Fn3   v104
        BYTE           N32     Cn3
        BYTE           N32     An2   v096
        BYTE   W48
        BYTE           N24     En3   v100
        BYTE           N24     Cn3
        BYTE           N28     An2   v092
        BYTE   W48
        BYTE   PEND
// 020   ----------------------------------------
        BYTE   W48
        BYTE           N16     Dn3   v104
        BYTE           N17     An2   v096
        BYTE           N17     Fn2   v100
        BYTE   W24
        BYTE           N14     Cn3   v104
        BYTE           N14     An2
        BYTE           N13     En2   v096
        BYTE   W24
// 021   ----------------------------------------
        BYTE   PATT
         POIN2  DarkSong_3_17
// 022   ----------------------------------------
        BYTE   PATT
         POIN2  DarkSong_3_18
// 023   ----------------------------------------
        BYTE   PATT
         POIN2  DarkSong_3_19
// 024   ----------------------------------------
        BYTE   W96
// 025   ----------------------------------------
        BYTE   W96
// 026   ----------------------------------------
        BYTE   W96
// 027   ----------------------------------------
DarkSong_3_27:
        BYTE   W48
        BYTE           N16     An2   v112
        BYTE   W22
        BYTE           N14     Bn2   v120
        BYTE   W24
        BYTE   W02
        BYTE   PEND
// 028   ----------------------------------------
        BYTE           N24     Cn3   v104
        BYTE   W96
// 029   ----------------------------------------
DarkSong_3_29:
        BYTE   W44
        BYTE   W02
        BYTE           N16     An2   v112
        BYTE   W24
        BYTE   W02
        BYTE                   Cn3   v104
        BYTE   W24
        BYTE   PEND
// 030   ----------------------------------------
        BYTE           N20     An2   v127
        BYTE   W96
// 031   ----------------------------------------
DarkSong_3_31:
        BYTE   W44
        BYTE   W02
        BYTE           N17     Fn2   v120
        BYTE   W24
        BYTE           N14     Gn2   v112
        BYTE   W24
        BYTE   W02
        BYTE   PEND
// 032   ----------------------------------------
        BYTE           N22     An2   v124
        BYTE   W96
// 033   ----------------------------------------
DarkSong_3_33:
        BYTE   W48
        BYTE           N17     Gn2   v116
        BYTE   W22
        BYTE           N15     Bn2   v120
        BYTE   W24
        BYTE   W02
        BYTE   PEND
// 034   ----------------------------------------
        BYTE                   An2   v124
        BYTE   W96
// 035   ----------------------------------------
        BYTE   PATT
         POIN2  DarkSong_3_27
// 036   ----------------------------------------
        BYTE           N24     Cn3   v104
        BYTE   W96
// 037   ----------------------------------------
        BYTE   PATT
         POIN2  DarkSong_3_29
// 038   ----------------------------------------
        BYTE           N20     An2   v127
        BYTE   W96
// 039   ----------------------------------------
        BYTE   PATT
         POIN2  DarkSong_3_31
// 040   ----------------------------------------
        BYTE           N22     An2   v124
        BYTE   W96
// 041   ----------------------------------------
        BYTE   PATT
         POIN2  DarkSong_3_33
// 042   ----------------------------------------
        BYTE   W96
// 043   ----------------------------------------
        BYTE   W96
// 044   ----------------------------------------
        BYTE   W96
// 045   ----------------------------------------
        BYTE   W96
// 046   ----------------------------------------
        BYTE   W96
// 047   ----------------------------------------
        BYTE   W96
// 048   ----------------------------------------
        BYTE   W96
// 049   ----------------------------------------
        BYTE   W96
// 050   ----------------------------------------
        BYTE   W96
// 051   ----------------------------------------
        BYTE   W96
// 052   ----------------------------------------
        BYTE   W96
// 053   ----------------------------------------
        BYTE   W96
// 054   ----------------------------------------
        BYTE   W96
// 055   ----------------------------------------
        BYTE   W96
// 056   ----------------------------------------
        BYTE   W96
// 057   ----------------------------------------
        BYTE   W96
// 058   ----------------------------------------
        BYTE   W96
// 059   ----------------------------------------
        BYTE   W96
// 060   ----------------------------------------
        BYTE   W96
// 061   ----------------------------------------
        BYTE   W96
// 062   ----------------------------------------
        BYTE   W96
// 063   ----------------------------------------
        BYTE   W96
// 064   ----------------------------------------
        BYTE   W96
// 065   ----------------------------------------
        BYTE   W96
// 066   ----------------------------------------
        BYTE   W96
// 067   ----------------------------------------
        BYTE   W96
// 068   ----------------------------------------
        BYTE   W96
// 069   ----------------------------------------
        BYTE   W96
// 070   ----------------------------------------
        BYTE   W96
// 071   ----------------------------------------
        BYTE   W96
// 072   ----------------------------------------
        BYTE   W96
// 073   ----------------------------------------
        BYTE   W96
// 074   ----------------------------------------
        BYTE   GoTo
         POIN2  DarkSong_3_LOOP
        BYTE   FINE

//****************** Track 4 (Midi-Chn.4) ******************//

DarkSong_4:
        BYTE   KEYSH   DarkSong_key+0
// 000   ----------------------------------------
        BYTE           VOL     79
        BYTE           VOICE   62
        BYTE   W96
// 001   ----------------------------------------
        BYTE   W96
// 002   ----------------------------------------
        BYTE   W96
// 003   ----------------------------------------
        BYTE   W96
// 004   ----------------------------------------
        BYTE   W96
// 005   ----------------------------------------
        BYTE   W96
// 006   ----------------------------------------
        BYTE   W96
// 007   ----------------------------------------
        BYTE   W96
// 008   ----------------------------------------
        BYTE   W96
// 009   ----------------------------------------
        BYTE   W96
// 010   ----------------------------------------
        BYTE   W96
// 011   ----------------------------------------
        BYTE   W96
// 012   ----------------------------------------
        BYTE   W96
// 013   ----------------------------------------
        BYTE   W96
// 014   ----------------------------------------
        BYTE   W96
// 015   ----------------------------------------
        BYTE   W96
// 016   ----------------------------------------
DarkSong_4_LOOP:
        BYTE   W96
// 017   ----------------------------------------
        BYTE   W96
// 018   ----------------------------------------
        BYTE   W96
// 019   ----------------------------------------
        BYTE   W96
// 020   ----------------------------------------
        BYTE   W96
// 021   ----------------------------------------
        BYTE   W96
// 022   ----------------------------------------
        BYTE   W96
// 023   ----------------------------------------
        BYTE   W96
// 024   ----------------------------------------
        BYTE           N06     An1   v084
        BYTE   W24
        BYTE                   An1   v092
        BYTE   W24
        BYTE           N05     An1   v104
        BYTE   W24
        BYTE                   An1   v108
        BYTE   W24
// 025   ----------------------------------------
        BYTE           N06     An1   v112
        BYTE   W24
        BYTE                   An1   v108
        BYTE   W24
        BYTE                   An1
        BYTE   W24
        BYTE                   An1   v120
        BYTE   W06
        BYTE           N04     En2   v080
        BYTE   W06
        BYTE           N06     An2
        BYTE   W06
        BYTE           N02     Cn3   v060
        BYTE   W06
// 026   ----------------------------------------
DarkSong_4_26:
        BYTE           N36     En3   v092
        BYTE           N05     An1   v116
        BYTE   W24
        BYTE           N06     An1   v124
        BYTE   W12
        BYTE           N05     Dn3   v112
        BYTE   W06
        BYTE           N04     Cn3   v092
        BYTE   W06
        BYTE           N32     Bn2   v108
        BYTE           N04     An1   v112
        BYTE   W24
        BYTE           N05     An1   v120
        BYTE   W12
        BYTE           N04     An2   v080
        BYTE   W06
        BYTE                   Bn2   v096
        BYTE   W06
        BYTE   PEND
// 027   ----------------------------------------
DarkSong_4_27:
        BYTE           N04     Cn3   v124
        BYTE           N04     An1   v112
        BYTE   W12
        BYTE           N03     Bn2   v092
        BYTE   W06
        BYTE                   An2   v100
        BYTE   W06
        BYTE           N36     Bn2   v120
        BYTE           N04     An1   v108
        BYTE   W24
        BYTE           N07     An1   v112
        BYTE   W24
        BYTE           N05     An1   v120
        BYTE   W06
        BYTE           N04     En2   v096
        BYTE   W06
        BYTE           N05     An2   v084
        BYTE   W12
        BYTE   PEND
// 028   ----------------------------------------
DarkSong_4_28:
        BYTE           N32     En3   v116
        BYTE           N04     An1
        BYTE   W24
        BYTE           N06     An1   v108
        BYTE   W12
        BYTE           N05     Dn3   v096
        BYTE   W06
        BYTE           N03     Cn3   v076
        BYTE   W06
        BYTE           N32     Bn2   v108
        BYTE           N05     An1   v104
        BYTE   W24
        BYTE           N06     An1   v108
        BYTE   W12
        BYTE           N04     An2   v096
        BYTE   W06
        BYTE           N05     Bn2   v092
        BYTE   W06
        BYTE   PEND
// 029   ----------------------------------------
DarkSong_4_29:
        BYTE           N04     Cn3   v112
        BYTE           N05     An1   v108
        BYTE   W12
        BYTE           N04     Bn2   v116
        BYTE   W06
        BYTE           N68     An2
        BYTE   W06
        BYTE           N05     An1   v112
        BYTE   W24
        BYTE                   An1
        BYTE   W24
        BYTE                   An1
        BYTE   W24
        BYTE   PEND
// 030   ----------------------------------------
DarkSong_4_30:
        BYTE           N32     En3   v104
        BYTE           N07     Fn1   v112
        BYTE   W24
        BYTE           N05     Fn1   v108
        BYTE   W12
        BYTE           N04     Dn3
        BYTE   W06
        BYTE           N03     Cn3   v092
        BYTE   W06
        BYTE           N32     Bn2   v104
        BYTE           N05     Fn1
        BYTE   W24
        BYTE                   Fn1   v112
        BYTE   W12
        BYTE                   An2   v088
        BYTE   W06
        BYTE                   Bn2   v084
        BYTE   W06
        BYTE   PEND
// 031   ----------------------------------------
DarkSong_4_31:
        BYTE           N03     Cn3   v108
        BYTE           N04     Fn1   v112
        BYTE   W12
        BYTE           N03     Bn2   v100
        BYTE   W06
        BYTE           N05     An2   v112
        BYTE   W06
        BYTE           N56     Bn2   v108
        BYTE           N06     Fn1   v116
        BYTE   W24
        BYTE           N07     Fn1   v108
        BYTE   W24
        BYTE           N08
        BYTE   W12
        BYTE           N05     An2   v092
        BYTE   W06
        BYTE                   Bn2   v100
        BYTE   W06
        BYTE   PEND
// 032   ----------------------------------------
DarkSong_4_32:
        BYTE           N32     Cn3   v112
        BYTE           N04     Gn1   v108
        BYTE   W24
        BYTE           N07     Gn1   v112
        BYTE   W12
        BYTE           N04     Bn2   v096
        BYTE   W06
        BYTE                   An2
        BYTE   W06
        BYTE           N32     Bn2   v112
        BYTE           N06     Gn1   v108
        BYTE   W24
        BYTE           N10     Gn1   v104
        BYTE   W12
        BYTE           N04     An2   v080
        BYTE   W06
        BYTE           N05     Bn2   v084
        BYTE   W06
        BYTE   PEND
// 033   ----------------------------------------
DarkSong_4_33:
        BYTE           N04     Cn3   v112
        BYTE           N05     Gn1   v108
        BYTE   W12
        BYTE           N04     Bn2   v084
        BYTE   W06
        BYTE                   An2   v112
        BYTE   W06
        BYTE           N56     Bn2   v100
        BYTE           N06     Gn1   v092
        BYTE   W24
        BYTE           N05     Gn1   v112
        BYTE   W24
        BYTE           N07
        BYTE   W24
        BYTE   PEND
// 034   ----------------------------------------
        BYTE   PATT
         POIN2  DarkSong_4_26
// 035   ----------------------------------------
        BYTE   PATT
         POIN2  DarkSong_4_27
// 036   ----------------------------------------
        BYTE   PATT
         POIN2  DarkSong_4_28
// 037   ----------------------------------------
        BYTE   PATT
         POIN2  DarkSong_4_29
// 038   ----------------------------------------
        BYTE   PATT
         POIN2  DarkSong_4_30
// 039   ----------------------------------------
        BYTE   PATT
         POIN2  DarkSong_4_31
// 040   ----------------------------------------
        BYTE   PATT
         POIN2  DarkSong_4_32
// 041   ----------------------------------------
        BYTE   PATT
         POIN2  DarkSong_4_33
// 042   ----------------------------------------
        BYTE   W96
// 043   ----------------------------------------
        BYTE   W96
// 044   ----------------------------------------
        BYTE   W96
// 045   ----------------------------------------
        BYTE   W96
// 046   ----------------------------------------
        BYTE   W96
// 047   ----------------------------------------
        BYTE   W96
// 048   ----------------------------------------
        BYTE   W96
// 049   ----------------------------------------
        BYTE   W96
// 050   ----------------------------------------
        BYTE   W96
// 051   ----------------------------------------
        BYTE   W96
// 052   ----------------------------------------
        BYTE   W96
// 053   ----------------------------------------
        BYTE   W96
// 054   ----------------------------------------
        BYTE   W96
// 055   ----------------------------------------
        BYTE   W96
// 056   ----------------------------------------
        BYTE   W96
// 057   ----------------------------------------
        BYTE   W96
// 058   ----------------------------------------
        BYTE   W96
// 059   ----------------------------------------
        BYTE   W96
// 060   ----------------------------------------
        BYTE   W96
// 061   ----------------------------------------
        BYTE   W96
// 062   ----------------------------------------
        BYTE   W96
// 063   ----------------------------------------
        BYTE   W96
// 064   ----------------------------------------
        BYTE   W96
// 065   ----------------------------------------
        BYTE   W96
// 066   ----------------------------------------
        BYTE   W96
// 067   ----------------------------------------
        BYTE   W96
// 068   ----------------------------------------
        BYTE   W96
// 069   ----------------------------------------
        BYTE   W96
// 070   ----------------------------------------
        BYTE   W96
// 071   ----------------------------------------
        BYTE   W96
// 072   ----------------------------------------
        BYTE   W96
// 073   ----------------------------------------
        BYTE   W96
// 074   ----------------------------------------
        BYTE   GoTo
         POIN2  DarkSong_4_LOOP
        BYTE   FINE

//****************** Track 5 (Midi-Chn.5) ******************//

DarkSong_5:
        BYTE   KEYSH   DarkSong_key+0
// 000   ----------------------------------------
        BYTE           VOL     79
        BYTE           VOICE   45
        BYTE   W96
// 001   ----------------------------------------
        BYTE   W96
// 002   ----------------------------------------
        BYTE   W96
// 003   ----------------------------------------
        BYTE   W96
// 004   ----------------------------------------
        BYTE   W96
// 005   ----------------------------------------
        BYTE   W96
// 006   ----------------------------------------
        BYTE   W96
// 007   ----------------------------------------
        BYTE   W96
// 008   ----------------------------------------
        BYTE   W96
// 009   ----------------------------------------
        BYTE   W96
// 010   ----------------------------------------
        BYTE   W96
// 011   ----------------------------------------
        BYTE   W96
// 012   ----------------------------------------
        BYTE   W96
// 013   ----------------------------------------
        BYTE   W96
// 014   ----------------------------------------
        BYTE   W96
// 015   ----------------------------------------
        BYTE   W96
// 016   ----------------------------------------
DarkSong_5_LOOP:
        BYTE   W96
// 017   ----------------------------------------
        BYTE   W96
// 018   ----------------------------------------
        BYTE   W96
// 019   ----------------------------------------
        BYTE   W96
// 020   ----------------------------------------
        BYTE   W96
// 021   ----------------------------------------
        BYTE   W96
// 022   ----------------------------------------
        BYTE   W96
// 023   ----------------------------------------
        BYTE   W96
// 024   ----------------------------------------
        BYTE           N03     An1   v072
        BYTE   W24
        BYTE                   An1   v076
        BYTE   W24
        BYTE                   An1
        BYTE   W24
        BYTE                   An1   v084
        BYTE   W24
// 025   ----------------------------------------
        BYTE                   An1
        BYTE   W24
        BYTE                   An1
        BYTE   W24
        BYTE                   An1
        BYTE   W24
        BYTE           N04     An1   v096
        BYTE   W24
// 026   ----------------------------------------
        BYTE                   An1
        BYTE           N03     An0   v104
        BYTE   W24
        BYTE                   An1   v092
        BYTE   W24
        BYTE                   An1   v084
        BYTE   W24
        BYTE                   An1
        BYTE   W24
// 027   ----------------------------------------
        BYTE                   An1
        BYTE   W24
        BYTE                   An1   v080
        BYTE   W24
        BYTE                   An1
        BYTE   W24
        BYTE           N04     An1   v088
        BYTE   W24
// 028   ----------------------------------------
        BYTE                   An1   v096
        BYTE           N04     An0   v080
        BYTE   W24
        BYTE           N03     An1   v084
        BYTE   W24
        BYTE           N04
        BYTE   W24
        BYTE           N03     An1   v092
        BYTE   W24
// 029   ----------------------------------------
        BYTE                   An1   v096
        BYTE   W24
        BYTE                   An1   v092
        BYTE   W24
        BYTE                   An1
        BYTE   W24
        BYTE           N04     An1   v104
        BYTE   W24
// 030   ----------------------------------------
        BYTE           N03     Fn1   v092
        BYTE           N04     Fn0   v084
        BYTE   W24
        BYTE           N03     Fn1   v092
        BYTE   W24
        BYTE                   Fn1   v088
        BYTE   W24
        BYTE           N04     Fn1   v076
        BYTE   W24
// 031   ----------------------------------------
        BYTE           N03     Fn1   v100
        BYTE   W24
        BYTE                   Fn1   v092
        BYTE   W24
        BYTE                   Fn1
        BYTE   W24
        BYTE                   Fn1   v100
        BYTE   W24
// 032   ----------------------------------------
        BYTE                   Gn1   v092
        BYTE           N03     Gn0   v084
        BYTE   W24
        BYTE                   Gn1   v100
        BYTE   W24
        BYTE                   Gn1   v092
        BYTE   W24
        BYTE                   Gn1   v100
        BYTE   W24
// 033   ----------------------------------------
        BYTE                   Gn1   v096
        BYTE   W24
        BYTE                   Gn1   v092
        BYTE   W24
        BYTE                   Gn1   v104
        BYTE   W24
        BYTE                   Gn1   v100
        BYTE   W24
// 034   ----------------------------------------
        BYTE                   An1   v096
        BYTE           N04     An0   v100
        BYTE   W24
        BYTE           N03     An1   v084
        BYTE   W24
        BYTE                   An1   v092
        BYTE   W24
        BYTE                   An1   v096
        BYTE   W24
// 035   ----------------------------------------
        BYTE                   An1   v080
        BYTE   W24
        BYTE                   An1
        BYTE   W24
        BYTE                   An1   v084
        BYTE   W24
        BYTE                   An1   v088
        BYTE   W24
// 036   ----------------------------------------
        BYTE                   An1   v092
        BYTE           N03     An0   v080
        BYTE   W24
        BYTE                   An1   v092
        BYTE   W24
        BYTE                   An1   v096
        BYTE   W24
        BYTE                   An1   v088
        BYTE   W24
// 037   ----------------------------------------
        BYTE                   An1
        BYTE   W24
        BYTE                   An1   v092
        BYTE   W24
        BYTE                   An1
        BYTE   W24
        BYTE                   An1
        BYTE   W24
// 038   ----------------------------------------
        BYTE                   Fn1   v096
        BYTE           N04     Fn0
        BYTE   W24
        BYTE           N03     Fn1   v092
        BYTE   W24
        BYTE                   Fn1
        BYTE   W24
        BYTE                   Fn1
        BYTE   W24
// 039   ----------------------------------------
        BYTE                   Fn1   v096
        BYTE   W24
        BYTE                   Fn1   v092
        BYTE   W24
        BYTE                   Fn1   v096
        BYTE   W24
        BYTE                   Fn1   v100
        BYTE   W24
// 040   ----------------------------------------
        BYTE                   Gn1
        BYTE           N03     Gn0   v080
        BYTE   W24
        BYTE                   Gn1   v092
        BYTE   W24
        BYTE                   Gn1   v100
        BYTE   W24
        BYTE                   Gn1   v096
        BYTE   W24
// 041   ----------------------------------------
        BYTE           N04     Gn1   v100
        BYTE   W24
        BYTE                   Gn1
        BYTE   W24
        BYTE           N03     Gn1   v092
        BYTE   W24
        BYTE                   Gn1   v096
        BYTE   W24
// 042   ----------------------------------------
        BYTE   W96
// 043   ----------------------------------------
        BYTE   W96
// 044   ----------------------------------------
        BYTE   W96
// 045   ----------------------------------------
        BYTE   W96
// 046   ----------------------------------------
        BYTE   W96
// 047   ----------------------------------------
        BYTE   W96
// 048   ----------------------------------------
        BYTE   W96
// 049   ----------------------------------------
        BYTE   W96
// 050   ----------------------------------------
        BYTE   W96
// 051   ----------------------------------------
        BYTE   W96
// 052   ----------------------------------------
        BYTE   W96
// 053   ----------------------------------------
        BYTE   W96
// 054   ----------------------------------------
        BYTE   W96
// 055   ----------------------------------------
        BYTE   W96
// 056   ----------------------------------------
        BYTE   W96
// 057   ----------------------------------------
        BYTE   W96
// 058   ----------------------------------------
DarkSong_5_58:
        BYTE           N06     En3   v068
        BYTE           N04     An2   v076
        BYTE           N05     An1   v072
        BYTE   W36
        BYTE           N07     En3
        BYTE           N05     An2
        BYTE           N07     An1   v068
        BYTE   W12
        BYTE           N05     An3   v056
        BYTE   W12
        BYTE                   Cn4   v068
        BYTE   W12
        BYTE                   En4   v056
        BYTE           N05     An2   v068
        BYTE           N07     An1   v064
        BYTE   W24
        BYTE   PEND
// 059   ----------------------------------------
DarkSong_5_59:
        BYTE   W12
        BYTE           N07     En3   v056
        BYTE           N04     An2   v072
        BYTE           N07     An1   v064
        BYTE   W12
        BYTE           N05     An3   v060
        BYTE   W12
        BYTE                   En4   v040
        BYTE   W12
        BYTE           N06     Dn4   v064
        BYTE           N04     As2   v084
        BYTE           N05     As1   v088
        BYTE   W24
        BYTE           N04     Gn2   v060
        BYTE           N04     Gn1
        BYTE   W24
        BYTE   PEND
// 060   ----------------------------------------
DarkSong_5_60:
        BYTE           N03     An2   v056
        BYTE           N04     An1   v064
        BYTE   W36
        BYTE           N06     En3   v068
        BYTE           N03     An2   v072
        BYTE           N05     An1   v076
        BYTE   W12
        BYTE           N06     An3   v068
        BYTE   W12
        BYTE           N05     Cn4   v056
        BYTE   W12
        BYTE           N07     En4   v068
        BYTE           N03     An2   v060
        BYTE           N05     An1   v064
        BYTE   W24
        BYTE   PEND
// 061   ----------------------------------------
DarkSong_5_61:
        BYTE   W12
        BYTE           N06     En3   v052
        BYTE           N03     An2   v064
        BYTE           N05     An1   v068
        BYTE   W12
        BYTE                   An3   v052
        BYTE   W12
        BYTE                   En4
        BYTE   W12
        BYTE                   Dn4   v044
        BYTE           N05     As2   v068
        BYTE           N06     As1   v080
        BYTE   W12
        BYTE                   Cn4   v064
        BYTE   W12
        BYTE           N08     An3   v060
        BYTE           N07     Gn2   v064
        BYTE           N05     Gn1   v068
        BYTE   W24
        BYTE   PEND
// 062   ----------------------------------------
DarkSong_5_62:
        BYTE           N04     An2   v072
        BYTE           N05     An1   v068
        BYTE   W36
        BYTE                   En3   v064
        BYTE           N04     An2   v076
        BYTE           N05     An1   v068
        BYTE   W12
        BYTE           N06     An3   v064
        BYTE   W12
        BYTE           N05     Cn4   v060
        BYTE   W12
        BYTE           N07     En4   v056
        BYTE           N04     An2   v076
        BYTE           N05     An1   v068
        BYTE   W24
        BYTE   PEND
// 063   ----------------------------------------
DarkSong_5_63:
        BYTE   W12
        BYTE           N06     En3   v056
        BYTE           N05     An2   v072
        BYTE           N08     An1   v068
        BYTE   W12
        BYTE           N05     An3   v056
        BYTE   W12
        BYTE           N06     En4   v060
        BYTE   W12
        BYTE           N09     Dn4   v052
        BYTE           N07     As2   v076
        BYTE           N06     As1   v084
        BYTE   W24
        BYTE           N07     Gn2   v064
        BYTE           N06     Gn1   v072
        BYTE   W24
        BYTE   PEND
// 064   ----------------------------------------
DarkSong_5_64:
        BYTE           N05     An2   v068
        BYTE           N06     An1
        BYTE   W36
        BYTE                   En3   v052
        BYTE           N04     An2   v072
        BYTE           N06     An1   v076
        BYTE   W12
        BYTE                   An3   v072
        BYTE   W12
        BYTE                   Cn4   v060
        BYTE   W12
        BYTE                   En4   v064
        BYTE           N04     An2   v060
        BYTE           N06     An1   v068
        BYTE   W24
        BYTE   PEND
// 065   ----------------------------------------
DarkSong_5_65:
        BYTE   W12
        BYTE           N06     En3   v060
        BYTE           N04     An2   v068
        BYTE           N07     An1
        BYTE   W12
        BYTE           N05     Dn4   v044
        BYTE   W12
        BYTE                   An3   v056
        BYTE   W12
        BYTE           N04     Cn4   v052
        BYTE           N05     As2   v068
        BYTE           N06     As1   v072
        BYTE   W12
        BYTE           N04     Gn3   v044
        BYTE   W12
        BYTE           N05     Bn3
        BYTE           N07     Gn2   v060
        BYTE           N05     Gn1   v068
        BYTE   W12
        BYTE           N04     Fn3   v048
        BYTE   W12
        BYTE   PEND
// 066   ----------------------------------------
        BYTE   PATT
         POIN2  DarkSong_5_58
// 067   ----------------------------------------
        BYTE   PATT
         POIN2  DarkSong_5_59
// 068   ----------------------------------------
        BYTE   PATT
         POIN2  DarkSong_5_60
// 069   ----------------------------------------
        BYTE   PATT
         POIN2  DarkSong_5_61
// 070   ----------------------------------------
        BYTE   PATT
         POIN2  DarkSong_5_62
// 071   ----------------------------------------
        BYTE   PATT
         POIN2  DarkSong_5_63
// 072   ----------------------------------------
        BYTE   PATT
         POIN2  DarkSong_5_64
// 073   ----------------------------------------
        BYTE   PATT
         POIN2  DarkSong_5_65
// 074   ----------------------------------------
        BYTE   GoTo
         POIN2  DarkSong_5_LOOP
        BYTE   FINE

//****************** Track 6 (Midi-Chn.6) ******************//

DarkSong_6:
        BYTE   KEYSH   DarkSong_key+0
// 000   ----------------------------------------
        BYTE           VOICE   127
        BYTE           VOL     59
        BYTE           N10     Cn1   v108
        BYTE   W48
        BYTE           N06     Cn1   v112
        BYTE   W12
        BYTE                   Fn1   v064
        BYTE   W06
        BYTE           N05     Gn1   v068
        BYTE   W06
        BYTE           N07     An1   v076
        BYTE   W06
        BYTE           N05     Gn1
        BYTE   W06
        BYTE           N07     Fn1   v080
        BYTE   W12
// 001   ----------------------------------------
DarkSong_6_1:
        BYTE           N12     Cn1   v104
        BYTE   W48
        BYTE           N08     Cn1   v108
        BYTE   W12
        BYTE           N07     Fn1   v060
        BYTE   W06
        BYTE           N05     Gn1   v072
        BYTE   W06
        BYTE           N08     An1
        BYTE   W06
        BYTE           N05     Gn1   v064
        BYTE   W06
        BYTE           N07     Fn1   v076
        BYTE   W12
        BYTE   PEND
// 002   ----------------------------------------
DarkSong_6_2:
        BYTE           N10     Cn1   v100
        BYTE   W48
        BYTE           N07     Cn1   v104
        BYTE   W12
        BYTE                   Fn1   v060
        BYTE   W06
        BYTE           N05     Gn1   v072
        BYTE   W06
        BYTE           N08     An1   v068
        BYTE   W06
        BYTE           N06     Gn1   v060
        BYTE   W06
        BYTE           N07     Fn1
        BYTE   W12
        BYTE   PEND
// 003   ----------------------------------------
DarkSong_6_3:
        BYTE           N13     Cn1   v100
        BYTE   W48
        BYTE           N08     Cn1   v108
        BYTE   W12
        BYTE           N07     Fn1   v052
        BYTE   W06
        BYTE           N05     Gn1   v060
        BYTE   W06
        BYTE           N07     An1   v068
        BYTE   W06
        BYTE           N04     Gn1
        BYTE   W06
        BYTE           N06     Fn1
        BYTE   W12
        BYTE   PEND
// 004   ----------------------------------------
DarkSong_6_4:
        BYTE           N10     Cn1   v108
        BYTE   W48
        BYTE           N06     Cn1   v112
        BYTE   W12
        BYTE                   Fn1   v064
        BYTE   W06
        BYTE           N05     Gn1   v068
        BYTE   W06
        BYTE           N07     An1   v076
        BYTE   W06
        BYTE           N05     Gn1
        BYTE   W06
        BYTE           N07     Fn1   v080
        BYTE   W12
        BYTE   PEND
// 005   ----------------------------------------
        BYTE   PATT
         POIN2  DarkSong_6_1
// 006   ----------------------------------------
        BYTE   PATT
         POIN2  DarkSong_6_2
// 007   ----------------------------------------
        BYTE   PATT
         POIN2  DarkSong_6_3
// 008   ----------------------------------------
        BYTE   PATT
         POIN2  DarkSong_6_4
// 009   ----------------------------------------
        BYTE   PATT
         POIN2  DarkSong_6_1
// 010   ----------------------------------------
        BYTE   PATT
         POIN2  DarkSong_6_2
// 011   ----------------------------------------
        BYTE   PATT
         POIN2  DarkSong_6_3
// 012   ----------------------------------------
        BYTE   PATT
         POIN2  DarkSong_6_4
// 013   ----------------------------------------
        BYTE   PATT
         POIN2  DarkSong_6_1
// 014   ----------------------------------------
        BYTE   PATT
         POIN2  DarkSong_6_2
// 015   ----------------------------------------
        BYTE   PATT
         POIN2  DarkSong_6_3
// 016   ----------------------------------------
DarkSong_6_LOOP:
        BYTE   W96
// 017   ----------------------------------------
        BYTE   W96
// 018   ----------------------------------------
        BYTE   W96
// 019   ----------------------------------------
        BYTE   W96
// 020   ----------------------------------------
        BYTE   W96
// 021   ----------------------------------------
        BYTE   W96
// 022   ----------------------------------------
        BYTE   W96
// 023   ----------------------------------------
        BYTE   W96
// 024   ----------------------------------------
DarkSong_6_24:
        BYTE   W02
        BYTE           N02     En1   v108
        BYTE   W10
        BYTE                   En1   v104
        BYTE   W04
        BYTE                   En1
        BYTE   W04
        BYTE           N03
        BYTE   W04
        BYTE           N05     En1   v120
        BYTE   W12
        BYTE           N03     En1   v108
        BYTE   W12
        BYTE           N04     En1   v112
        BYTE   W12
        BYTE           N02     En1   v104
        BYTE   W12
        BYTE                   En1
        BYTE   W12
        BYTE                   En1
        BYTE   W04
        BYTE                   En1   v108
        BYTE   W04
        BYTE           N03     En1   v104
        BYTE   W04
        BYTE   PEND
// 025   ----------------------------------------
DarkSong_6_25:
        BYTE           N05     En1   v120
        BYTE   W12
        BYTE           N02     En1   v096
        BYTE   W04
        BYTE                   En1   v120
        BYTE   W04
        BYTE           N03     En1   v100
        BYTE   W04
        BYTE           N06     En1   v124
        BYTE   W12
        BYTE           N03     En1   v104
        BYTE   W12
        BYTE           N04     En1   v112
        BYTE   W12
        BYTE           N02     En1   v104
        BYTE   W12
        BYTE                   En1   v108
        BYTE   W24
        BYTE   PEND
// 026   ----------------------------------------
        BYTE   PATT
         POIN2  DarkSong_6_24
// 027   ----------------------------------------
        BYTE   PATT
         POIN2  DarkSong_6_25
// 028   ----------------------------------------
        BYTE   PATT
         POIN2  DarkSong_6_24
// 029   ----------------------------------------
        BYTE   PATT
         POIN2  DarkSong_6_25
// 030   ----------------------------------------
        BYTE   PATT
         POIN2  DarkSong_6_24
// 031   ----------------------------------------
        BYTE   PATT
         POIN2  DarkSong_6_25
// 032   ----------------------------------------
        BYTE   PATT
         POIN2  DarkSong_6_24
// 033   ----------------------------------------
        BYTE   PATT
         POIN2  DarkSong_6_25
// 034   ----------------------------------------
        BYTE   PATT
         POIN2  DarkSong_6_24
// 035   ----------------------------------------
        BYTE   PATT
         POIN2  DarkSong_6_25
// 036   ----------------------------------------
        BYTE   PATT
         POIN2  DarkSong_6_24
// 037   ----------------------------------------
        BYTE   PATT
         POIN2  DarkSong_6_25
// 038   ----------------------------------------
        BYTE   PATT
         POIN2  DarkSong_6_24
// 039   ----------------------------------------
        BYTE   PATT
         POIN2  DarkSong_6_25
// 040   ----------------------------------------
        BYTE   PATT
         POIN2  DarkSong_6_24
// 041   ----------------------------------------
        BYTE   PATT
         POIN2  DarkSong_6_25
// 042   ----------------------------------------
        BYTE   W96
// 043   ----------------------------------------
        BYTE   W96
// 044   ----------------------------------------
        BYTE   W96
// 045   ----------------------------------------
        BYTE   W96
// 046   ----------------------------------------
        BYTE   W96
// 047   ----------------------------------------
        BYTE   W96
// 048   ----------------------------------------
        BYTE   W96
// 049   ----------------------------------------
        BYTE   W96
// 050   ----------------------------------------
        BYTE   W96
// 051   ----------------------------------------
        BYTE   W96
// 052   ----------------------------------------
        BYTE   W96
// 053   ----------------------------------------
        BYTE   W96
// 054   ----------------------------------------
        BYTE   W96
// 055   ----------------------------------------
        BYTE   W96
// 056   ----------------------------------------
        BYTE   W96
// 057   ----------------------------------------
        BYTE   W96
// 058   ----------------------------------------
DarkSong_6_58:
        BYTE           N10     Cn1   v088
        BYTE           N10     Ds2   v068
        BYTE   W48
        BYTE           N06     Cn1   v092
        BYTE   W12
        BYTE                   Fn1   v044
        BYTE   W06
        BYTE           N05     Gn1   v048
        BYTE   W06
        BYTE           N07     An1   v056
        BYTE           N10     Ds2
        BYTE   W06
        BYTE           N05     Gn1
        BYTE   W06
        BYTE           N07     Fn1   v060
        BYTE           N07     Ds2   v068
        BYTE   W12
        BYTE   PEND
// 059   ----------------------------------------
DarkSong_6_59:
        BYTE           N12     Cn1   v084
        BYTE           N09     Ds2   v068
        BYTE   W48
        BYTE           N08     Cn1   v088
        BYTE           N10     Ds2   v072
        BYTE   W12
        BYTE           N07     Fn1   v040
        BYTE   W06
        BYTE           N05     Gn1   v052
        BYTE   W06
        BYTE           N08     An1
        BYTE   W06
        BYTE           N05     Gn1   v044
        BYTE   W06
        BYTE           N07     Fn1   v056
        BYTE   W12
        BYTE   PEND
// 060   ----------------------------------------
DarkSong_6_60:
        BYTE           N10     Cn1   v080
        BYTE           N10     Ds2   v076
        BYTE   W48
        BYTE           N07     Cn1   v084
        BYTE   W12
        BYTE                   Fn1   v040
        BYTE   W06
        BYTE           N05     Gn1   v052
        BYTE   W06
        BYTE           N08     An1   v048
        BYTE           N08     Ds2   v080
        BYTE   W06
        BYTE           N06     Gn1   v040
        BYTE   W06
        BYTE           N07     Fn1
        BYTE   W12
        BYTE   PEND
// 061   ----------------------------------------
DarkSong_6_61:
        BYTE           N13     Cn1   v080
        BYTE           N10     Ds2   v084
        BYTE   W48
        BYTE           N08     Cn1   v088
        BYTE   W12
        BYTE           N07     Fn1   v032
        BYTE   W06
        BYTE           N05     Gn1   v040
        BYTE   W06
        BYTE           N07     An1   v048
        BYTE   W06
        BYTE           N04     Gn1
        BYTE   W06
        BYTE           N06     Fn1
        BYTE   W12
        BYTE   PEND
// 062   ----------------------------------------
DarkSong_6_62:
        BYTE           N10     Cn1   v088
        BYTE           N09     Ds2   v068
        BYTE   W48
        BYTE           N06     Cn1   v092
        BYTE   W12
        BYTE                   Fn1   v044
        BYTE   W06
        BYTE           N05     Gn1   v048
        BYTE   W06
        BYTE           N07     An1   v056
        BYTE           N09     Ds2   v064
        BYTE   W06
        BYTE           N05     Gn1   v056
        BYTE   W06
        BYTE           N07     Fn1   v060
        BYTE           N08     Ds2   v080
        BYTE   W12
        BYTE   PEND
// 063   ----------------------------------------
DarkSong_6_63:
        BYTE           N12     Cn1   v084
        BYTE           N09     Ds2   v068
        BYTE   W48
        BYTE           N08     Cn1   v088
        BYTE           N10     Ds2   v068
        BYTE   W12
        BYTE           N07     Fn1   v040
        BYTE   W06
        BYTE           N05     Gn1   v052
        BYTE   W06
        BYTE           N08     An1
        BYTE   W06
        BYTE           N05     Gn1   v044
        BYTE   W06
        BYTE           N07     Fn1   v056
        BYTE   W12
        BYTE   PEND
// 064   ----------------------------------------
DarkSong_6_64:
        BYTE           N10     Cn1   v080
        BYTE           N10     Ds2   v072
        BYTE   W48
        BYTE           N07     Cn1   v084
        BYTE   W12
        BYTE                   Fn1   v040
        BYTE   W06
        BYTE           N05     Gn1   v052
        BYTE   W06
        BYTE           N08     An1   v048
        BYTE           N09     Ds2   v068
        BYTE   W06
        BYTE           N06     Gn1   v040
        BYTE   W06
        BYTE           N07     Fn1
        BYTE   W12
        BYTE   PEND
// 065   ----------------------------------------
DarkSong_6_65:
        BYTE           N13     Cn1   v080
        BYTE           N10     Ds2   v068
        BYTE   W48
        BYTE           N08     Cn1   v088
        BYTE   W12
        BYTE           N07     Fn1   v032
        BYTE   W06
        BYTE           N05     Gn1   v040
        BYTE   W06
        BYTE           N07     An1   v048
        BYTE   W06
        BYTE           N04     Gn1
        BYTE   W06
        BYTE           N06     Fn1
        BYTE   W12
        BYTE   PEND
// 066   ----------------------------------------
        BYTE   PATT
         POIN2  DarkSong_6_58
// 067   ----------------------------------------
        BYTE   PATT
         POIN2  DarkSong_6_59
// 068   ----------------------------------------
        BYTE   PATT
         POIN2  DarkSong_6_60
// 069   ----------------------------------------
        BYTE   PATT
         POIN2  DarkSong_6_61
// 070   ----------------------------------------
        BYTE   PATT
         POIN2  DarkSong_6_62
// 071   ----------------------------------------
        BYTE   PATT
         POIN2  DarkSong_6_63
// 072   ----------------------------------------
        BYTE   PATT
         POIN2  DarkSong_6_64
// 073   ----------------------------------------
        BYTE   PATT
         POIN2  DarkSong_6_65
// 074   ----------------------------------------
        BYTE   GoTo
         POIN2  DarkSong_6_LOOP
        BYTE   FINE

//****************** Track 7 (Midi-Chn.7) ******************//

DarkSong_7:
        BYTE   KEYSH   DarkSong_key+0
// 000   ----------------------------------------
        BYTE           VOICE   127
        BYTE           VOL     79
        BYTE   W96
// 001   ----------------------------------------
        BYTE   W96
// 002   ----------------------------------------
        BYTE   W96
// 003   ----------------------------------------
        BYTE   W96
// 004   ----------------------------------------
        BYTE   W96
// 005   ----------------------------------------
        BYTE   W96
// 006   ----------------------------------------
        BYTE   W96
// 007   ----------------------------------------
        BYTE   W96
// 008   ----------------------------------------
        BYTE   W96
// 009   ----------------------------------------
        BYTE   W96
// 010   ----------------------------------------
        BYTE   W96
// 011   ----------------------------------------
        BYTE   W96
// 012   ----------------------------------------
        BYTE   W96
// 013   ----------------------------------------
        BYTE   W96
// 014   ----------------------------------------
        BYTE   W96
// 015   ----------------------------------------
        BYTE   W96
// 016   ----------------------------------------
DarkSong_7_LOOP:
        BYTE   W96
// 017   ----------------------------------------
        BYTE   W92
        BYTE           VOL     65
        BYTE   W04
// 018   ----------------------------------------
        BYTE   W02
        BYTE                   64
        BYTE   W01
        BYTE                   53
        BYTE   W01
        BYTE                   46
        BYTE   W01
        BYTE                   44
        BYTE   W01
        BYTE                   43
        BYTE   W01
        BYTE                   42
        BYTE   W01
        BYTE                   41
        BYTE   W02
        BYTE                   38
        BYTE   W01
        BYTE                   37
        BYTE   W02
        BYTE                   34
        BYTE   W01
        BYTE                   32
        BYTE   W01
        BYTE                   31
        BYTE   W01
        BYTE                   30
        BYTE   W01
        BYTE                   27
        BYTE   W01
        BYTE                   26
        BYTE   W78
// 019   ----------------------------------------
        BYTE   W96
// 020   ----------------------------------------
        BYTE   W96
// 021   ----------------------------------------
        BYTE   W96
// 022   ----------------------------------------
        BYTE   W96
// 023   ----------------------------------------
        BYTE   W96
// 024   ----------------------------------------
        BYTE   W96
// 025   ----------------------------------------
        BYTE   W96
// 026   ----------------------------------------
        BYTE   W96
// 027   ----------------------------------------
        BYTE   W96
// 028   ----------------------------------------
        BYTE   W96
// 029   ----------------------------------------
        BYTE   W96
// 030   ----------------------------------------
        BYTE   W96
// 031   ----------------------------------------
        BYTE   W96
// 032   ----------------------------------------
        BYTE   W96
// 033   ----------------------------------------
        BYTE   W96
// 034   ----------------------------------------
        BYTE   W96
// 035   ----------------------------------------
        BYTE   W96
// 036   ----------------------------------------
        BYTE   W96
// 037   ----------------------------------------
        BYTE   W96
// 038   ----------------------------------------
        BYTE   W96
// 039   ----------------------------------------
        BYTE   W96
// 040   ----------------------------------------
        BYTE   W96
// 041   ----------------------------------------
        BYTE   W96
// 042   ----------------------------------------
        BYTE   W96
// 043   ----------------------------------------
        BYTE   W96
// 044   ----------------------------------------
        BYTE   W18
        BYTE                   27
        BYTE   W01
        BYTE                   28
        BYTE   W01
        BYTE                   29
        BYTE   W01
        BYTE                   32
        BYTE   W01
        BYTE                   33
        BYTE   W01
        BYTE                   34
        BYTE   W02
        BYTE                   35
        BYTE   W01
        BYTE                   36
        BYTE   W03
        BYTE                   39
        BYTE   W01
        BYTE                   41
        BYTE   W02
        BYTE                   42
        BYTE   W01
        BYTE                   43
        BYTE   W03
        BYTE                   44
        BYTE   W01
        BYTE                   46
        BYTE   W03
        BYTE                   47
        BYTE   W01
        BYTE                   48
        BYTE   W02
        BYTE                   49
        BYTE   W02
        BYTE                   50
        BYTE   W02
        BYTE                   51
        BYTE   W02
        BYTE                   52
        BYTE   W01
        BYTE                   53
        BYTE   W02
        BYTE                   54
        BYTE   W04
        BYTE                   55
        BYTE   W02
        BYTE                   56
        BYTE   W03
        BYTE                   57
        BYTE   W03
        BYTE                   58
        BYTE   W05
        BYTE                   59
        BYTE   W02
        BYTE                   60
        BYTE   W01
        BYTE                   61
        BYTE   W06
        BYTE                   62
        BYTE   W02
        BYTE                   63
        BYTE   W06
        BYTE                   64
        BYTE   W03
        BYTE                   65
        BYTE   W05
        BYTE                   66
        BYTE   W02
// 045   ----------------------------------------
        BYTE   W08
        BYTE                   67
        BYTE   W04
        BYTE                   68
        BYTE   W01
        BYTE                   69
        BYTE   W22
        BYTE                   70
        BYTE   W28
        BYTE                   69
        BYTE   W14
        BYTE                   68
        BYTE   W19
// 046   ----------------------------------------
        BYTE   W96
// 047   ----------------------------------------
        BYTE   W96
// 048   ----------------------------------------
        BYTE   W96
// 049   ----------------------------------------
        BYTE   W96
// 050   ----------------------------------------
        BYTE   W96
// 051   ----------------------------------------
        BYTE   W96
// 052   ----------------------------------------
        BYTE   W96
// 053   ----------------------------------------
        BYTE   W96
// 054   ----------------------------------------
        BYTE   W96
// 055   ----------------------------------------
        BYTE   W96
// 056   ----------------------------------------
        BYTE   W96
// 057   ----------------------------------------
        BYTE   W96
// 058   ----------------------------------------
DarkSong_7_58:
        BYTE           N04     Bn0   v088
        BYTE   W24
        BYTE           N03     En1   v092
        BYTE           N03     Bn0
        BYTE   W24
        BYTE                   Bn0   v088
        BYTE   W24
        BYTE           N02     En1   v092
        BYTE           N03     Bn0   v088
        BYTE   W24
        BYTE   PEND
// 059   ----------------------------------------
DarkSong_7_59:
        BYTE           N04     Bn0   v088
        BYTE   W24
        BYTE           N03     En1   v092
        BYTE           N03     Bn0   v088
        BYTE   W24
        BYTE           N04
        BYTE   W24
        BYTE           N03     En1   v092
        BYTE           N03     Bn0   v084
        BYTE   W06
        BYTE           N04     En1   v092
        BYTE   W12
        BYTE                   En1   v088
        BYTE   W06
        BYTE   PEND
// 060   ----------------------------------------
DarkSong_7_60:
        BYTE           N03     Bn0   v080
        BYTE   W24
        BYTE           N02     En1   v088
        BYTE           N03     Bn0
        BYTE   W24
        BYTE                   Bn0   v084
        BYTE   W24
        BYTE                   En1
        BYTE           N04     Bn0   v080
        BYTE   W24
        BYTE   PEND
// 061   ----------------------------------------
DarkSong_7_61:
        BYTE           N03     Bn0   v084
        BYTE   W24
        BYTE                   En1   v088
        BYTE           N03     Bn0   v084
        BYTE   W24
        BYTE           N04     Bn0   v080
        BYTE   W12
        BYTE           N03     En1   v040
        BYTE   W06
        BYTE           N06     En1   v092
        BYTE   W06
        BYTE           N03     Bn0   v080
        BYTE   W06
        BYTE           N05     En1   v100
        BYTE   W06
        BYTE           N04     En1   v084
        BYTE   W12
        BYTE   PEND
// 062   ----------------------------------------
DarkSong_7_62:
        BYTE           N04     Bn0   v084
        BYTE   W24
        BYTE           N03     En1   v080
        BYTE           N03     Bn0
        BYTE   W24
        BYTE                   Bn0
        BYTE   W24
        BYTE                   En1   v088
        BYTE           N03     Bn0   v084
        BYTE   W24
        BYTE   PEND
// 063   ----------------------------------------
DarkSong_7_63:
        BYTE           N03     Bn0   v080
        BYTE   W24
        BYTE                   En1   v092
        BYTE           N03     Bn0   v084
        BYTE   W24
        BYTE                   Bn0
        BYTE   W24
        BYTE           N04     En1   v092
        BYTE           N03     Bn0   v084
        BYTE   W06
        BYTE           N04     En1   v092
        BYTE   W12
        BYTE                   En1   v080
        BYTE   W06
        BYTE   PEND
// 064   ----------------------------------------
DarkSong_7_64:
        BYTE           N03     Bn0   v084
        BYTE   W24
        BYTE                   En1   v100
        BYTE           N03     Bn0   v084
        BYTE   W24
        BYTE                   Bn0
        BYTE   W24
        BYTE                   En1   v092
        BYTE           N03     Bn0   v084
        BYTE   W24
        BYTE   PEND
// 065   ----------------------------------------
DarkSong_7_65:
        BYTE           N03     Bn0   v084
        BYTE   W24
        BYTE                   En1   v092
        BYTE           N03     Bn0   v080
        BYTE   W24
        BYTE                   En1   v076
        BYTE           N03     Bn0   v088
        BYTE   W06
        BYTE                   En1
        BYTE   W12
        BYTE           N04     En1   v096
        BYTE   W06
        BYTE                   Bn0   v084
        BYTE   W12
        BYTE                   En1
        BYTE   W12
        BYTE   PEND
// 066   ----------------------------------------
        BYTE   PATT
         POIN2  DarkSong_7_58
// 067   ----------------------------------------
        BYTE   PATT
         POIN2  DarkSong_7_59
// 068   ----------------------------------------
        BYTE   PATT
         POIN2  DarkSong_7_60
// 069   ----------------------------------------
        BYTE   PATT
         POIN2  DarkSong_7_61
// 070   ----------------------------------------
        BYTE   PATT
         POIN2  DarkSong_7_62
// 071   ----------------------------------------
        BYTE   PATT
         POIN2  DarkSong_7_63
// 072   ----------------------------------------
        BYTE   PATT
         POIN2  DarkSong_7_64
// 073   ----------------------------------------
        BYTE   PATT
         POIN2  DarkSong_7_65
// 074   ----------------------------------------
        BYTE           VOL     79
        BYTE   GoTo
         POIN2  DarkSong_7_LOOP
        BYTE   FINE

//****************** Track 8 (Midi-Chn.8) ******************//

DarkSong_8:
        BYTE   KEYSH   DarkSong_key+0
// 000   ----------------------------------------
        BYTE           VOL     79
        BYTE           VOICE   46
        BYTE   W96
// 001   ----------------------------------------
        BYTE   W96
// 002   ----------------------------------------
        BYTE   W96
// 003   ----------------------------------------
        BYTE   W96
// 004   ----------------------------------------
        BYTE   W96
// 005   ----------------------------------------
        BYTE   W96
// 006   ----------------------------------------
        BYTE   W96
// 007   ----------------------------------------
        BYTE   W96
// 008   ----------------------------------------
        BYTE   W96
// 009   ----------------------------------------
        BYTE   W96
// 010   ----------------------------------------
        BYTE   W96
// 011   ----------------------------------------
        BYTE   W96
// 012   ----------------------------------------
        BYTE   W96
// 013   ----------------------------------------
        BYTE   W96
// 014   ----------------------------------------
        BYTE   W96
// 015   ----------------------------------------
        BYTE   W96
// 016   ----------------------------------------
DarkSong_8_LOOP:
        BYTE   W96
// 017   ----------------------------------------
        BYTE   W96
// 018   ----------------------------------------
        BYTE   W96
// 019   ----------------------------------------
        BYTE   W96
// 020   ----------------------------------------
        BYTE   W96
// 021   ----------------------------------------
        BYTE   W96
// 022   ----------------------------------------
        BYTE   W96
// 023   ----------------------------------------
        BYTE   W48
        BYTE           N05     Fn2   v080
        BYTE   W06
        BYTE                   Gn2   v060
        BYTE   W03
        BYTE           N04     An2
        BYTE   W03
        BYTE           N03     Bn2   v076
        BYTE   W06
        BYTE           N02     Dn3   v072
        BYTE           N03     Cn3   v076
        BYTE   W03
        BYTE           N02     En3
        BYTE   W03
        BYTE                   Fn3   v068
        BYTE   W03
        BYTE                   Gn3   v060
        BYTE   W03
        BYTE                   An3
        BYTE   W03
        BYTE                   Bn3
        BYTE   W03
        BYTE           N01     Cn4
        BYTE   W03
        BYTE                   Dn4   v052
        BYTE   W03
        BYTE           N02     En4
        BYTE   W03
        BYTE                   Fn4   v060
        BYTE   W03
// 024   ----------------------------------------
        BYTE           N04     An2   v100
        BYTE           N04     Fn2   v092
        BYTE   W12
        BYTE                   An2   v076
        BYTE           N04     En2   v080
        BYTE   W12
        BYTE                   An2
        BYTE           N04     Fn2
        BYTE   W12
        BYTE                   An2   v100
        BYTE           N04     Gn2   v084
        BYTE   W12
        BYTE           N05     An2   v080
        BYTE           N04     Fn2
        BYTE   W12
        BYTE                   An2
        BYTE           N04     En2
        BYTE   W12
        BYTE                   An2   v084
        BYTE           N04     Fn2   v080
        BYTE   W12
        BYTE                   An2   v100
        BYTE           N04     Gn2   v088
        BYTE   W12
// 025   ----------------------------------------
        BYTE           N05     An2   v080
        BYTE           N04     Fn2
        BYTE   W12
        BYTE           N05     An2
        BYTE           N04     En2
        BYTE   W12
        BYTE                   An2   v092
        BYTE           N04     Fn2   v084
        BYTE   W12
        BYTE                   An2   v092
        BYTE           N04     Gn2   v080
        BYTE   W12
        BYTE                   An2   v084
        BYTE           N04     Fn2
        BYTE   W12
        BYTE           N05     An2   v080
        BYTE           N03     En2   v076
        BYTE   W12
        BYTE           N04     An2   v084
        BYTE           N04     Fn2   v080
        BYTE   W12
        BYTE                   An2   v084
        BYTE           N04     Gn2
        BYTE   W12
// 026   ----------------------------------------
        BYTE   W96
// 027   ----------------------------------------
        BYTE   W96
// 028   ----------------------------------------
        BYTE   W96
// 029   ----------------------------------------
        BYTE   W96
// 030   ----------------------------------------
        BYTE   W96
// 031   ----------------------------------------
        BYTE   W96
// 032   ----------------------------------------
        BYTE   W96
// 033   ----------------------------------------
        BYTE   W96
// 034   ----------------------------------------
        BYTE   W96
// 035   ----------------------------------------
        BYTE   W96
// 036   ----------------------------------------
        BYTE   W96
// 037   ----------------------------------------
        BYTE   W96
// 038   ----------------------------------------
        BYTE   W96
// 039   ----------------------------------------
        BYTE   W96
// 040   ----------------------------------------
        BYTE   W96
// 041   ----------------------------------------
        BYTE   W96
// 042   ----------------------------------------
        BYTE   W96
// 043   ----------------------------------------
        BYTE   W96
// 044   ----------------------------------------
        BYTE   W96
// 045   ----------------------------------------
        BYTE   W96
// 046   ----------------------------------------
        BYTE   W96
// 047   ----------------------------------------
        BYTE   W96
// 048   ----------------------------------------
        BYTE   W96
// 049   ----------------------------------------
        BYTE   W96
// 050   ----------------------------------------
        BYTE   W96
// 051   ----------------------------------------
        BYTE   W96
// 052   ----------------------------------------
        BYTE   W96
// 053   ----------------------------------------
        BYTE   W96
// 054   ----------------------------------------
        BYTE   W96
// 055   ----------------------------------------
        BYTE   W96
// 056   ----------------------------------------
        BYTE   W96
// 057   ----------------------------------------
        BYTE   W96
// 058   ----------------------------------------
        BYTE   W96
// 059   ----------------------------------------
        BYTE   W96
// 060   ----------------------------------------
        BYTE   W96
// 061   ----------------------------------------
        BYTE   W96
// 062   ----------------------------------------
        BYTE   W96
// 063   ----------------------------------------
        BYTE   W96
// 064   ----------------------------------------
        BYTE   W96
// 065   ----------------------------------------
        BYTE   W96
// 066   ----------------------------------------
        BYTE   W96
// 067   ----------------------------------------
        BYTE   W96
// 068   ----------------------------------------
        BYTE   W96
// 069   ----------------------------------------
        BYTE   W96
// 070   ----------------------------------------
        BYTE   W96
// 071   ----------------------------------------
        BYTE   W96
// 072   ----------------------------------------
        BYTE   W96
// 073   ----------------------------------------
        BYTE   W96
// 074   ----------------------------------------
        BYTE   GoTo
         POIN2  DarkSong_8_LOOP
        BYTE   FINE

//***************** Track 9 (Midi-Chn.10) ******************//

DarkSong_9:
        BYTE   KEYSH   DarkSong_key+0
// 000   ----------------------------------------
        BYTE           VOL     77
        BYTE           VOICE   47
        BYTE   W96
// 001   ----------------------------------------
        BYTE   W96
// 002   ----------------------------------------
        BYTE   W96
// 003   ----------------------------------------
        BYTE   W96
// 004   ----------------------------------------
        BYTE   W96
// 005   ----------------------------------------
        BYTE   W96
// 006   ----------------------------------------
        BYTE   W96
// 007   ----------------------------------------
        BYTE   W96
// 008   ----------------------------------------
        BYTE   W96
// 009   ----------------------------------------
        BYTE   W96
// 010   ----------------------------------------
        BYTE   W96
// 011   ----------------------------------------
        BYTE   W96
// 012   ----------------------------------------
        BYTE   W96
// 013   ----------------------------------------
        BYTE   W96
// 014   ----------------------------------------
        BYTE   W96
// 015   ----------------------------------------
        BYTE   W96
// 016   ----------------------------------------
DarkSong_9_LOOP:
        BYTE   W96
// 017   ----------------------------------------
        BYTE   W72
        BYTE           N03     Dn2   v084
        BYTE           N03     Dn1   v076
        BYTE   W12
        BYTE                   Dn2
        BYTE           N04     Dn1
        BYTE   W12
// 018   ----------------------------------------
        BYTE           N03     Dn2   v100
        BYTE           N04     Dn1   v108
        BYTE   W96
// 019   ----------------------------------------
        BYTE   W72
        BYTE           N03     Dn2   v060
        BYTE           N04     Dn1   v076
        BYTE   W12
        BYTE           N03     Dn2   v080
        BYTE           N04     Dn1
        BYTE   W12
// 020   ----------------------------------------
        BYTE                   Dn2   v092
        BYTE           N05     Dn1
        BYTE   W96
// 021   ----------------------------------------
        BYTE   W72
        BYTE           N03     Dn2   v068
        BYTE           N04     Dn1   v076
        BYTE   W12
        BYTE                   Dn2   v080
        BYTE           N05     Dn1   v068
        BYTE   W12
// 022   ----------------------------------------
        BYTE           N04     Dn2   v092
        BYTE           N05     Dn1   v100
        BYTE   W96
// 023   ----------------------------------------
        BYTE   W96
// 024   ----------------------------------------
        BYTE   W96
// 025   ----------------------------------------
        BYTE   W96
// 026   ----------------------------------------
        BYTE   W96
// 027   ----------------------------------------
DarkSong_9_27:
        BYTE   W72
        BYTE           N03     En2   v112
        BYTE           N03     An1
        BYTE   W12
        BYTE           N02     En2   v120
        BYTE           N03     An1   v112
        BYTE   W12
        BYTE   PEND
// 028   ----------------------------------------
        BYTE   W96
// 029   ----------------------------------------
DarkSong_9_29:
        BYTE   W84
        BYTE           N03     En2   v088
        BYTE           N03     An1   v096
        BYTE   W12
        BYTE   PEND
// 030   ----------------------------------------
DarkSong_9_30:
        BYTE           N02     Cn2   v104
        BYTE           N03     Fn1   v120
        BYTE   W96
        BYTE   PEND
// 031   ----------------------------------------
DarkSong_9_31:
        BYTE   W72
        BYTE           N03     Cn2   v108
        BYTE           N03     Fn1   v104
        BYTE   W12
        BYTE           N02     Cn2   v112
        BYTE           N03     Fn1
        BYTE   W12
        BYTE   PEND
// 032   ----------------------------------------
        BYTE   W96
// 033   ----------------------------------------
DarkSong_9_33:
        BYTE   W60
        BYTE           N06     Cn2   v064
        BYTE   W12
        BYTE           N03     Cn2   v096
        BYTE   W12
        BYTE                   Cn2   v112
        BYTE   W12
        BYTE   PEND
// 034   ----------------------------------------
        BYTE   W96
// 035   ----------------------------------------
        BYTE   PATT
         POIN2  DarkSong_9_27
// 036   ----------------------------------------
        BYTE   W96
// 037   ----------------------------------------
        BYTE   PATT
         POIN2  DarkSong_9_29
// 038   ----------------------------------------
        BYTE   PATT
         POIN2  DarkSong_9_30
// 039   ----------------------------------------
        BYTE   PATT
         POIN2  DarkSong_9_31
// 040   ----------------------------------------
        BYTE   W96
// 041   ----------------------------------------
        BYTE   PATT
         POIN2  DarkSong_9_33
// 042   ----------------------------------------
        BYTE   W96
// 043   ----------------------------------------
        BYTE   W96
// 044   ----------------------------------------
        BYTE   W96
// 045   ----------------------------------------
        BYTE   W96
// 046   ----------------------------------------
        BYTE   W96
// 047   ----------------------------------------
        BYTE   W96
// 048   ----------------------------------------
        BYTE   W96
// 049   ----------------------------------------
        BYTE   W96
// 050   ----------------------------------------
        BYTE   W96
// 051   ----------------------------------------
        BYTE   W96
// 052   ----------------------------------------
        BYTE   W96
// 053   ----------------------------------------
        BYTE   W96
// 054   ----------------------------------------
        BYTE   W96
// 055   ----------------------------------------
        BYTE   W96
// 056   ----------------------------------------
        BYTE   W96
// 057   ----------------------------------------
        BYTE   W96
// 058   ----------------------------------------
        BYTE   W96
// 059   ----------------------------------------
        BYTE   W96
// 060   ----------------------------------------
        BYTE   W96
// 061   ----------------------------------------
        BYTE   W96
// 062   ----------------------------------------
        BYTE   W96
// 063   ----------------------------------------
        BYTE   W96
// 064   ----------------------------------------
        BYTE   W96
// 065   ----------------------------------------
        BYTE   W96
// 066   ----------------------------------------
        BYTE   W96
// 067   ----------------------------------------
        BYTE   W96
// 068   ----------------------------------------
        BYTE   W96
// 069   ----------------------------------------
        BYTE   W96
// 070   ----------------------------------------
        BYTE   W96
// 071   ----------------------------------------
        BYTE   W96
// 072   ----------------------------------------
        BYTE   W96
// 073   ----------------------------------------
        BYTE   W96
// 074   ----------------------------------------
        BYTE   GoTo
         POIN2  DarkSong_9_LOOP
        BYTE   FINE

//***************** Track 10 (Midi-Chn.11) *****************//

DarkSong_10:
        BYTE   KEYSH   DarkSong_key+0
// 000   ----------------------------------------
        BYTE           VOICE   48
        BYTE           VOL     19
        BYTE   W96
// 001   ----------------------------------------
        BYTE   W96
// 002   ----------------------------------------
        BYTE   W96
// 003   ----------------------------------------
        BYTE   W96
// 004   ----------------------------------------
        BYTE   W96
// 005   ----------------------------------------
        BYTE   W96
// 006   ----------------------------------------
        BYTE   W96
// 007   ----------------------------------------
        BYTE   W96
// 008   ----------------------------------------
        BYTE   W96
// 009   ----------------------------------------
        BYTE   W96
// 010   ----------------------------------------
        BYTE   W96
// 011   ----------------------------------------
        BYTE   W96
// 012   ----------------------------------------
        BYTE   W96
// 013   ----------------------------------------
        BYTE   W96
// 014   ----------------------------------------
        BYTE   W96
// 015   ----------------------------------------
        BYTE   W96
// 016   ----------------------------------------
DarkSong_10_LOOP:
        BYTE   W96
// 017   ----------------------------------------
        BYTE   W96
// 018   ----------------------------------------
        BYTE   W96
// 019   ----------------------------------------
        BYTE   W96
// 020   ----------------------------------------
        BYTE   W96
// 021   ----------------------------------------
        BYTE   W96
// 022   ----------------------------------------
        BYTE   W96
// 023   ----------------------------------------
        BYTE   W96
// 024   ----------------------------------------
        BYTE   W96
// 025   ----------------------------------------
        BYTE   W96
// 026   ----------------------------------------
        BYTE   W96
// 027   ----------------------------------------
        BYTE   W96
// 028   ----------------------------------------
        BYTE   W96
// 029   ----------------------------------------
        BYTE   W96
// 030   ----------------------------------------
        BYTE   W96
// 031   ----------------------------------------
        BYTE   W96
// 032   ----------------------------------------
        BYTE   W96
// 033   ----------------------------------------
        BYTE   W96
// 034   ----------------------------------------
        BYTE   W96
// 035   ----------------------------------------
        BYTE   W96
// 036   ----------------------------------------
        BYTE   W96
// 037   ----------------------------------------
        BYTE   W96
// 038   ----------------------------------------
        BYTE   W96
// 039   ----------------------------------------
        BYTE   W96
// 040   ----------------------------------------
        BYTE   W96
// 041   ----------------------------------------
        BYTE   W96
// 042   ----------------------------------------
        BYTE           TIE     An5   v044
        BYTE   W96
// 043   ----------------------------------------
        BYTE   W96
// 044   ----------------------------------------
        BYTE   W96
// 045   ----------------------------------------
        BYTE   W96
// 046   ----------------------------------------
        BYTE   W96
// 047   ----------------------------------------
        BYTE   W96
// 048   ----------------------------------------
        BYTE   W96
// 049   ----------------------------------------
        BYTE   W96
// 050   ----------------------------------------
        BYTE   W96
// 051   ----------------------------------------
        BYTE   W96
// 052   ----------------------------------------
        BYTE   W96
// 053   ----------------------------------------
        BYTE   W96
// 054   ----------------------------------------
        BYTE   W96
// 055   ----------------------------------------
        BYTE   W96
// 056   ----------------------------------------
        BYTE   W96
// 057   ----------------------------------------
        BYTE   W92
        BYTE   W02
        BYTE           EOT
        BYTE   W02
// 058   ----------------------------------------
        BYTE           TIE     An4   v104
        BYTE   W96
// 059   ----------------------------------------
DarkSong_10_59:
        BYTE   W21
        BYTE           EOT     An4
        BYTE   W15
        BYTE           N10     An4   v112
        BYTE   W12
        BYTE           N15     Bn4   v100
        BYTE   W24
        BYTE           N14     Cn5   v112
        BYTE   W24
        BYTE   PEND
// 060   ----------------------------------------
        BYTE           TIE     En4   v104
        BYTE   W96
// 061   ----------------------------------------
        BYTE   W68
        BYTE   W01
        BYTE           EOT
        BYTE   W24
        BYTE   W03
// 062   ----------------------------------------
DarkSong_10_62:
        BYTE           N78     An4   v112
        BYTE   W84
        BYTE           N08     En5
        BYTE   W12
        BYTE   PEND
// 063   ----------------------------------------
DarkSong_10_63:
        BYTE           N36     Dn5   v080
        BYTE   W36
        BYTE           N11     Cn5   v096
        BYTE   W12
        BYTE           N32     Bn4   v108
        BYTE   W36
        BYTE           N09     Bn4   v092
        BYTE   W12
        BYTE   PEND
// 064   ----------------------------------------
DarkSong_10_64:
        BYTE           N09     Cn5   v104
        BYTE   W12
        BYTE           N06     Bn4   v108
        BYTE   W12
        BYTE           TIE     An4   v104
        BYTE   W72
        BYTE   PEND
// 065   ----------------------------------------
        BYTE   W66
        BYTE   W01
        BYTE           EOT
        BYTE   W28
        BYTE   W01
// 066   ----------------------------------------
        BYTE           TIE
        BYTE   W96
// 067   ----------------------------------------
        BYTE   PATT
         POIN2  DarkSong_10_59
// 068   ----------------------------------------
        BYTE           TIE     En4   v104
        BYTE   W96
// 069   ----------------------------------------
        BYTE   W68
        BYTE   W01
        BYTE           EOT
        BYTE   W24
        BYTE   W03
// 070   ----------------------------------------
        BYTE   PATT
         POIN2  DarkSong_10_62
// 071   ----------------------------------------
        BYTE   PATT
         POIN2  DarkSong_10_63
// 072   ----------------------------------------
        BYTE   PATT
         POIN2  DarkSong_10_64
// 073   ----------------------------------------
        BYTE   W66
        BYTE   W01
        BYTE           EOT     An4
        BYTE   W28
        BYTE   W01
// 074   ----------------------------------------
        BYTE   GoTo
         POIN2  DarkSong_10_LOOP
        BYTE   FINE

//***************** Track 11 (Midi-Chn.12) *****************//

DarkSong_11:
        BYTE   KEYSH   DarkSong_key+0
// 000   ----------------------------------------
        BYTE           VOICE   75
        BYTE           VOL     61
        BYTE   W96
// 001   ----------------------------------------
        BYTE   W96
// 002   ----------------------------------------
        BYTE   W96
// 003   ----------------------------------------
        BYTE   W96
// 004   ----------------------------------------
        BYTE   W96
// 005   ----------------------------------------
        BYTE   W96
// 006   ----------------------------------------
        BYTE   W96
// 007   ----------------------------------------
        BYTE   W96
// 008   ----------------------------------------
        BYTE   W96
// 009   ----------------------------------------
        BYTE   W96
// 010   ----------------------------------------
        BYTE   W96
// 011   ----------------------------------------
        BYTE   W96
// 012   ----------------------------------------
        BYTE   W96
// 013   ----------------------------------------
        BYTE   W96
// 014   ----------------------------------------
        BYTE   W96
// 015   ----------------------------------------
        BYTE   W96
// 016   ----------------------------------------
DarkSong_11_LOOP:
        BYTE   W96
// 017   ----------------------------------------
        BYTE   W96
// 018   ----------------------------------------
        BYTE   W96
// 019   ----------------------------------------
        BYTE   W96
// 020   ----------------------------------------
        BYTE   W96
// 021   ----------------------------------------
        BYTE   W96
// 022   ----------------------------------------
        BYTE   W96
// 023   ----------------------------------------
        BYTE   W96
// 024   ----------------------------------------
        BYTE   W96
// 025   ----------------------------------------
        BYTE   W96
// 026   ----------------------------------------
        BYTE   W96
// 027   ----------------------------------------
        BYTE   W96
// 028   ----------------------------------------
        BYTE   W96
// 029   ----------------------------------------
        BYTE   W96
// 030   ----------------------------------------
        BYTE   W96
// 031   ----------------------------------------
        BYTE   W96
// 032   ----------------------------------------
        BYTE   W96
// 033   ----------------------------------------
        BYTE   W96
// 034   ----------------------------------------
        BYTE   W96
// 035   ----------------------------------------
        BYTE   W96
// 036   ----------------------------------------
        BYTE   W96
// 037   ----------------------------------------
        BYTE   W96
// 038   ----------------------------------------
        BYTE   W96
// 039   ----------------------------------------
        BYTE   W96
// 040   ----------------------------------------
        BYTE   W96
// 041   ----------------------------------------
        BYTE   W96
// 042   ----------------------------------------
        BYTE   W96
// 043   ----------------------------------------
        BYTE   W96
// 044   ----------------------------------------
        BYTE   W96
// 045   ----------------------------------------
        BYTE   W96
// 046   ----------------------------------------
        BYTE   W96
// 047   ----------------------------------------
        BYTE   W96
// 048   ----------------------------------------
        BYTE   W96
// 049   ----------------------------------------
        BYTE   W96
// 050   ----------------------------------------
        BYTE   W96
// 051   ----------------------------------------
        BYTE   W96
// 052   ----------------------------------------
        BYTE   W96
// 053   ----------------------------------------
        BYTE   W96
// 054   ----------------------------------------
        BYTE   W96
// 055   ----------------------------------------
        BYTE   W96
// 056   ----------------------------------------
        BYTE   W96
// 057   ----------------------------------------
        BYTE   W96
// 058   ----------------------------------------
        BYTE   W96
// 059   ----------------------------------------
        BYTE   W96
// 060   ----------------------------------------
        BYTE   W96
// 061   ----------------------------------------
        BYTE   W96
// 062   ----------------------------------------
        BYTE   W96
// 063   ----------------------------------------
        BYTE   W96
// 064   ----------------------------------------
        BYTE   W96
// 065   ----------------------------------------
        BYTE   W96
// 066   ----------------------------------------
        BYTE   W96
// 067   ----------------------------------------
        BYTE   W96
// 068   ----------------------------------------
        BYTE   W36
        BYTE           N10     Fn4   v072
        BYTE   W12
        BYTE           N05     En4   v060
        BYTE   W12
        BYTE           N03     Dn4   v084
        BYTE   W12
        BYTE           N15     En4   v060
        BYTE   W24
// 069   ----------------------------------------
        BYTE   W12
        BYTE           N09     En4   v092
        BYTE   W24
        BYTE           N11     Fn4
        BYTE   W12
        BYTE           N04     En4   v080
        BYTE   W12
        BYTE           N03     Dn4   v092
        BYTE   W12
        BYTE           N28     Cn4
        BYTE   W24
// 070   ----------------------------------------
        BYTE   W96
// 071   ----------------------------------------
        BYTE   W96
// 072   ----------------------------------------
        BYTE   W36
        BYTE           N11     Fn4   v076
        BYTE   W12
        BYTE           N04     En4
        BYTE   W12
        BYTE                   Dn4
        BYTE   W12
        BYTE           N14     En4
        BYTE   W24
// 073   ----------------------------------------
        BYTE   W24
        BYTE           N03     En4   v068
        BYTE   W12
        BYTE           N11     En4   v064
        BYTE   W12
        BYTE           N03     Fn4
        BYTE   W12
        BYTE                   Gn4   v076
        BYTE   W12
        BYTE           N23     An4   v080
        BYTE   W24
// 074   ----------------------------------------
        BYTE   GoTo
         POIN2  DarkSong_11_LOOP
        BYTE   FINE


//********************** End of Song ***********************//

        ALIGN 4
DarkSong:
        BYTE   12                      // Num Tracks
        BYTE   0                       // Unknown
        BYTE   DarkSong_pri            // Priority
        BYTE   DarkSong_rev            // Reverb

        POIN2   DarkSong_grp           

        POIN2   DarkSong_0
        POIN2   DarkSong_1
        POIN2   DarkSong_2
        POIN2   DarkSong_3
        POIN2   DarkSong_4
        POIN2   DarkSong_5
        POIN2   DarkSong_6
        POIN2   DarkSong_7
        POIN2   DarkSong_8
        POIN2   DarkSong_9
        POIN2   DarkSong_10
        POIN2   DarkSong_11

        
