//Event file generated from Sappy .s format.
        #include "MPlayDef.event"

        #define    Principality_grp  OSRS
        #define    Principality_pri  0
        #define    Principality_rev  0
        #define    Principality_key  0

        // .rodata
        // Principality
        ALIGN 4

//****************** Track 0 (Midi-Chn.0) ******************//

Principality_0:
        BYTE   KEYSH   Principality_key+0
// 000   ----------------------------------------
        BYTE   TEMPO   114/2
        BYTE           VOICE   49
        BYTE           VOL     54
        BYTE   W96
// 001   ----------------------------------------
        BYTE   W96
// 002   ----------------------------------------
        BYTE   W96
// 003   ----------------------------------------
        BYTE   W96
// 004   ----------------------------------------
        BYTE   W96
// 005   ----------------------------------------
        BYTE   W96
// 006   ----------------------------------------
        BYTE   W96
// 007   ----------------------------------------
        BYTE   W96
// 008   ----------------------------------------
Principality_0_LOOP:
        BYTE   W96
// 009   ----------------------------------------
        BYTE   W96
// 010   ----------------------------------------
        BYTE   W96
// 011   ----------------------------------------
        BYTE   W96
// 012   ----------------------------------------
        BYTE   W96
// 013   ----------------------------------------
        BYTE   W96
// 014   ----------------------------------------
        BYTE   W96
// 015   ----------------------------------------
        BYTE   W96
// 016   ----------------------------------------
        BYTE   W96
// 017   ----------------------------------------
        BYTE   W96
// 018   ----------------------------------------
        BYTE   W96
// 019   ----------------------------------------
        BYTE   W96
// 020   ----------------------------------------
        BYTE   W96
// 021   ----------------------------------------
        BYTE   W96
// 022   ----------------------------------------
        BYTE   W96
// 023   ----------------------------------------
        BYTE   W96
// 024   ----------------------------------------
        BYTE   W96
// 025   ----------------------------------------
        BYTE   W96
// 026   ----------------------------------------
        BYTE   W96
// 027   ----------------------------------------
        BYTE   W96
// 028   ----------------------------------------
        BYTE   W96
// 029   ----------------------------------------
        BYTE   W96
// 030   ----------------------------------------
        BYTE   W96
// 031   ----------------------------------------
        BYTE   W96
// 032   ----------------------------------------
Principality_0_32:
        BYTE           TIE     En2   v096
        BYTE           TIE     En1   v104
        BYTE   W96
        BYTE   PEND
// 033   ----------------------------------------
        BYTE   W96
// 034   ----------------------------------------
        BYTE   W96
// 035   ----------------------------------------
Principality_0_35:
        BYTE   W80
        BYTE   W02
        BYTE           EOT     En2
        BYTE   W02
        BYTE                   En1
        BYTE   W12
        BYTE   PEND
// 036   ----------------------------------------
        BYTE   PATT
         POIN2  Principality_0_32
// 037   ----------------------------------------
        BYTE   W96
// 038   ----------------------------------------
        BYTE   W96
// 039   ----------------------------------------
        BYTE   PATT
         POIN2  Principality_0_35
// 040   ----------------------------------------
        BYTE   W96
// 041   ----------------------------------------
        BYTE   W96
// 042   ----------------------------------------
        BYTE   W96
// 043   ----------------------------------------
        BYTE   W96
// 044   ----------------------------------------
        BYTE   W96
// 045   ----------------------------------------
        BYTE   W96
// 046   ----------------------------------------
        BYTE   W96
// 047   ----------------------------------------
        BYTE   W96
// 048   ----------------------------------------
        BYTE   W96
// 049   ----------------------------------------
        BYTE   W96
// 050   ----------------------------------------
        BYTE   W96
// 051   ----------------------------------------
        BYTE   W96
// 052   ----------------------------------------
        BYTE   W96
// 053   ----------------------------------------
        BYTE   W96
// 054   ----------------------------------------
        BYTE   W96
// 055   ----------------------------------------
        BYTE   W96
// 056   ----------------------------------------
        BYTE   W96
// 057   ----------------------------------------
        BYTE   W96
// 058   ----------------------------------------
        BYTE   W96
// 059   ----------------------------------------
        BYTE   W96
// 060   ----------------------------------------
        BYTE   W96
// 061   ----------------------------------------
        BYTE   W96
// 062   ----------------------------------------
        BYTE   W96
// 063   ----------------------------------------
        BYTE   W96
// 064   ----------------------------------------
        BYTE   PATT
         POIN2  Principality_0_32
// 065   ----------------------------------------
        BYTE   W96
// 066   ----------------------------------------
        BYTE   W96
// 067   ----------------------------------------
        BYTE   PATT
         POIN2  Principality_0_35
// 068   ----------------------------------------
        BYTE   PATT
         POIN2  Principality_0_32
// 069   ----------------------------------------
        BYTE   W96
// 070   ----------------------------------------
        BYTE   W96
// 071   ----------------------------------------
        BYTE   PATT
         POIN2  Principality_0_35
// 072   ----------------------------------------
        BYTE   W96
// 073   ----------------------------------------
        BYTE   W96
// 074   ----------------------------------------
        BYTE   W96
// 075   ----------------------------------------
        BYTE   W96
// 076   ----------------------------------------
        BYTE   W96
// 077   ----------------------------------------
        BYTE   W96
// 078   ----------------------------------------
        BYTE   W96
// 079   ----------------------------------------
        BYTE   W96
// 080   ----------------------------------------
        BYTE   W96
// 081   ----------------------------------------
        BYTE   W96
// 082   ----------------------------------------
        BYTE   W96
// 083   ----------------------------------------
        BYTE   W96
// 084   ----------------------------------------
        BYTE   W96
// 085   ----------------------------------------
        BYTE   W96
// 086   ----------------------------------------
        BYTE   W96
// 087   ----------------------------------------
        BYTE   W96
// 088   ----------------------------------------
        BYTE   W96
// 089   ----------------------------------------
        BYTE   W96
// 090   ----------------------------------------
        BYTE   W96
// 091   ----------------------------------------
        BYTE   W96
// 092   ----------------------------------------
        BYTE   W96
// 093   ----------------------------------------
        BYTE   W96
// 094   ----------------------------------------
        BYTE   W96
// 095   ----------------------------------------
        BYTE   W96
// 096   ----------------------------------------
        BYTE   W96
// 097   ----------------------------------------
        BYTE   W96
// 098   ----------------------------------------
        BYTE   W96
// 099   ----------------------------------------
        BYTE   W96
// 100   ----------------------------------------
        BYTE   W96
// 101   ----------------------------------------
        BYTE   W96
// 102   ----------------------------------------
        BYTE   W96
// 103   ----------------------------------------
        BYTE   W96
// 104   ----------------------------------------
        BYTE   PATT
         POIN2  Principality_0_32
// 105   ----------------------------------------
        BYTE   W96
// 106   ----------------------------------------
        BYTE   W96
// 107   ----------------------------------------
        BYTE   PATT
         POIN2  Principality_0_35
// 108   ----------------------------------------
        BYTE   PATT
         POIN2  Principality_0_32
// 109   ----------------------------------------
        BYTE   W96
// 110   ----------------------------------------
        BYTE   W96
// 111   ----------------------------------------
        BYTE   PATT
         POIN2  Principality_0_35
// 112   ----------------------------------------
        BYTE   W96
// 113   ----------------------------------------
        BYTE   W96
// 114   ----------------------------------------
        BYTE   W96
// 115   ----------------------------------------
        BYTE   W96
// 116   ----------------------------------------
        BYTE   W96
// 117   ----------------------------------------
        BYTE   W96
// 118   ----------------------------------------
        BYTE   W96
// 119   ----------------------------------------
        BYTE   W96
// 120   ----------------------------------------
        BYTE   W96
// 121   ----------------------------------------
        BYTE   W96
// 122   ----------------------------------------
        BYTE   W96
// 123   ----------------------------------------
        BYTE   W96
// 124   ----------------------------------------
        BYTE   W96
// 125   ----------------------------------------
        BYTE   W96
// 126   ----------------------------------------
        BYTE   W96
// 127   ----------------------------------------
        BYTE   W96
// 128   ----------------------------------------
        BYTE   GoTo
         POIN2  Principality_0_LOOP
        BYTE   FINE

//****************** Track 1 (Midi-Chn.1) ******************//

Principality_1:
        BYTE   KEYSH   Principality_key+0
// 000   ----------------------------------------
        BYTE           VOICE   48
        BYTE           VOL     57
        BYTE           PAN     c_v+25
        BYTE   W96
// 001   ----------------------------------------
        BYTE   W96
// 002   ----------------------------------------
        BYTE   W96
// 003   ----------------------------------------
        BYTE   W96
// 004   ----------------------------------------
        BYTE   W96
// 005   ----------------------------------------
        BYTE   W96
// 006   ----------------------------------------
        BYTE   W96
// 007   ----------------------------------------
        BYTE   W96
// 008   ----------------------------------------
Principality_1_LOOP:
        BYTE   W96
// 009   ----------------------------------------
        BYTE   W96
// 010   ----------------------------------------
        BYTE   W96
// 011   ----------------------------------------
        BYTE   W60
        BYTE           N04     Bn1   v100
        BYTE   W06
        BYTE                   An1   v092
        BYTE   W06
        BYTE           N05     Bn1   v084
        BYTE   W06
        BYTE           N03     An1   v076
        BYTE   W06
        BYTE           N05     Bn1   v068
        BYTE   W06
        BYTE           N04     An1   v060
        BYTE   W06
// 012   ----------------------------------------
        BYTE           N05     Bn1   v056
        BYTE   W06
        BYTE           N04     An1   v048
        BYTE   W06
        BYTE           N05     Bn1   v040
        BYTE   W06
        BYTE           N03     An1   v032
        BYTE   W06
        BYTE           N04     Bn1   v024
        BYTE   W06
        BYTE                   An1   v016
        BYTE   W06
        BYTE                   Bn1   v008
        BYTE   W60
// 013   ----------------------------------------
        BYTE   W96
// 014   ----------------------------------------
        BYTE   W96
// 015   ----------------------------------------
        BYTE   W96
// 016   ----------------------------------------
Principality_1_16:
        BYTE           N21     En1   v116
        BYTE   W24
        BYTE           N24     En1   v112
        BYTE   W60
        BYTE           N04     Gn1   v104
        BYTE   W06
        BYTE                   An1   v108
        BYTE   W06
        BYTE   PEND
// 017   ----------------------------------------
Principality_1_17:
        BYTE           N84     Bn1   v116
        BYTE   W84
        BYTE           N05     An1   v112
        BYTE   W06
        BYTE           N04     Gn1   v108
        BYTE   W06
        BYTE   PEND
// 018   ----------------------------------------
Principality_1_18:
        BYTE           N19     En1   v120
        BYTE   W24
        BYTE           N36
        BYTE   W60
        BYTE           N04     Fs1
        BYTE   W06
        BYTE                   Gn1
        BYTE   W06
        BYTE   PEND
// 019   ----------------------------------------
Principality_1_19:
        BYTE           N80     Bn0   v112
        BYTE   W84
        BYTE           N13     Dn1
        BYTE   W12
        BYTE   PEND
// 020   ----------------------------------------
        BYTE   PATT
         POIN2  Principality_1_16
// 021   ----------------------------------------
        BYTE   PATT
         POIN2  Principality_1_17
// 022   ----------------------------------------
        BYTE   PATT
         POIN2  Principality_1_18
// 023   ----------------------------------------
        BYTE   PATT
         POIN2  Principality_1_19
// 024   ----------------------------------------
        BYTE   PATT
         POIN2  Principality_1_16
// 025   ----------------------------------------
        BYTE   PATT
         POIN2  Principality_1_17
// 026   ----------------------------------------
        BYTE   PATT
         POIN2  Principality_1_18
// 027   ----------------------------------------
        BYTE   PATT
         POIN2  Principality_1_19
// 028   ----------------------------------------
        BYTE   PATT
         POIN2  Principality_1_16
// 029   ----------------------------------------
        BYTE   PATT
         POIN2  Principality_1_17
// 030   ----------------------------------------
        BYTE   PATT
         POIN2  Principality_1_18
// 031   ----------------------------------------
        BYTE   PATT
         POIN2  Principality_1_19
// 032   ----------------------------------------
Principality_1_32:
        BYTE   W12
        BYTE           N03     En3   v080
        BYTE           N03     En2   v084
        BYTE   W12
        BYTE           N02     En3   v100
        BYTE           N02     As2   v084
        BYTE           N03     En2   v108
        BYTE   W06
        BYTE                   En3   v096
        BYTE           N04     As2   v080
        BYTE   W66
        BYTE   PEND
// 033   ----------------------------------------
Principality_1_33:
        BYTE   W12
        BYTE           N03     En3   v076
        BYTE           N03     En2   v092
        BYTE   W12
        BYTE           N02     En3   v100
        BYTE           N02     Bn2   v084
        BYTE           N03     En2   v112
        BYTE   W06
        BYTE                   En3   v092
        BYTE           N03     Bn2   v072
        BYTE           N03     En2   v092
        BYTE   W66
        BYTE   PEND
// 034   ----------------------------------------
Principality_1_34:
        BYTE   W12
        BYTE           N03     En3   v080
        BYTE           N03     En2   v088
        BYTE   W12
        BYTE           N02     En3   v100
        BYTE           N03     As2   v088
        BYTE           N03     En2   v112
        BYTE   W06
        BYTE                   En3   v104
        BYTE           N03     As2   v080
        BYTE           N03     En2   v084
        BYTE   W66
        BYTE   PEND
// 035   ----------------------------------------
Principality_1_35:
        BYTE   W12
        BYTE           N03     En3   v080
        BYTE           N03     En2   v084
        BYTE   W12
        BYTE           N02     En3   v108
        BYTE           N03     Bn2   v096
        BYTE           N03     En2   v112
        BYTE   W06
        BYTE                   En3   v108
        BYTE           N03     Bn2   v080
        BYTE           N03     En2   v096
        BYTE   W66
        BYTE   PEND
// 036   ----------------------------------------
Principality_1_36:
        BYTE   W12
        BYTE           N03     En3   v080
        BYTE           N03     En2   v084
        BYTE   W11
        BYTE           N02     As2
        BYTE   W01
        BYTE                   En3   v100
        BYTE           N03     En2   v108
        BYTE   W05
        BYTE           N04     As2   v080
        BYTE   W01
        BYTE           N03     En3   v096
        BYTE   W66
        BYTE   PEND
// 037   ----------------------------------------
        BYTE   PATT
         POIN2  Principality_1_33
// 038   ----------------------------------------
        BYTE   PATT
         POIN2  Principality_1_34
// 039   ----------------------------------------
        BYTE   PATT
         POIN2  Principality_1_35
// 040   ----------------------------------------
        BYTE   PATT
         POIN2  Principality_1_16
// 041   ----------------------------------------
        BYTE   PATT
         POIN2  Principality_1_17
// 042   ----------------------------------------
        BYTE   PATT
         POIN2  Principality_1_18
// 043   ----------------------------------------
        BYTE   PATT
         POIN2  Principality_1_19
// 044   ----------------------------------------
        BYTE   PATT
         POIN2  Principality_1_16
// 045   ----------------------------------------
        BYTE   PATT
         POIN2  Principality_1_17
// 046   ----------------------------------------
        BYTE   PATT
         POIN2  Principality_1_18
// 047   ----------------------------------------
        BYTE   PATT
         POIN2  Principality_1_19
// 048   ----------------------------------------
        BYTE   PATT
         POIN2  Principality_1_16
// 049   ----------------------------------------
        BYTE   PATT
         POIN2  Principality_1_17
// 050   ----------------------------------------
        BYTE   PATT
         POIN2  Principality_1_18
// 051   ----------------------------------------
        BYTE   PATT
         POIN2  Principality_1_19
// 052   ----------------------------------------
        BYTE   PATT
         POIN2  Principality_1_16
// 053   ----------------------------------------
        BYTE   PATT
         POIN2  Principality_1_17
// 054   ----------------------------------------
        BYTE   PATT
         POIN2  Principality_1_18
// 055   ----------------------------------------
        BYTE   PATT
         POIN2  Principality_1_19
// 056   ----------------------------------------
        BYTE   PATT
         POIN2  Principality_1_16
// 057   ----------------------------------------
        BYTE   PATT
         POIN2  Principality_1_17
// 058   ----------------------------------------
        BYTE   PATT
         POIN2  Principality_1_18
// 059   ----------------------------------------
        BYTE   PATT
         POIN2  Principality_1_19
// 060   ----------------------------------------
        BYTE   PATT
         POIN2  Principality_1_16
// 061   ----------------------------------------
        BYTE   PATT
         POIN2  Principality_1_17
// 062   ----------------------------------------
        BYTE   PATT
         POIN2  Principality_1_18
// 063   ----------------------------------------
        BYTE   PATT
         POIN2  Principality_1_19
// 064   ----------------------------------------
        BYTE   PATT
         POIN2  Principality_1_32
// 065   ----------------------------------------
        BYTE   PATT
         POIN2  Principality_1_33
// 066   ----------------------------------------
        BYTE   PATT
         POIN2  Principality_1_34
// 067   ----------------------------------------
        BYTE   PATT
         POIN2  Principality_1_35
// 068   ----------------------------------------
        BYTE   PATT
         POIN2  Principality_1_36
// 069   ----------------------------------------
        BYTE   PATT
         POIN2  Principality_1_33
// 070   ----------------------------------------
        BYTE   PATT
         POIN2  Principality_1_34
// 071   ----------------------------------------
        BYTE   PATT
         POIN2  Principality_1_35
// 072   ----------------------------------------
        BYTE   W96
// 073   ----------------------------------------
        BYTE   W96
// 074   ----------------------------------------
        BYTE   W96
// 075   ----------------------------------------
        BYTE   W96
// 076   ----------------------------------------
        BYTE   W96
// 077   ----------------------------------------
        BYTE   W96
// 078   ----------------------------------------
        BYTE   W96
// 079   ----------------------------------------
        BYTE   W96
// 080   ----------------------------------------
Principality_1_80:
        BYTE           N04     En3   v112
        BYTE   W24
        BYTE                   En3
        BYTE   W18
        BYTE           N01     Ds3   v104
        BYTE   W06
        BYTE           N04     En3
        BYTE   W12
        BYTE                   Gn3
        BYTE   W12
        BYTE                   An3   v112
        BYTE   W18
        BYTE                   Gn3   v104
        BYTE   W06
        BYTE   PEND
// 081   ----------------------------------------
Principality_1_81:
        BYTE           N05     An3   v100
        BYTE   W12
        BYTE           N03     Gn3   v112
        BYTE   W12
        BYTE                   Fs3   v120
        BYTE   W18
        BYTE           N04     Gn3   v108
        BYTE   W06
        BYTE                   Fs3   v124
        BYTE   W12
        BYTE                   Dn3   v112
        BYTE   W12
        BYTE                   En3   v116
        BYTE   W24
        BYTE   PEND
// 082   ----------------------------------------
        BYTE   W96
// 083   ----------------------------------------
        BYTE   W96
// 084   ----------------------------------------
        BYTE   PATT
         POIN2  Principality_1_80
// 085   ----------------------------------------
        BYTE   PATT
         POIN2  Principality_1_81
// 086   ----------------------------------------
        BYTE   W96
// 087   ----------------------------------------
        BYTE   W96
// 088   ----------------------------------------
        BYTE   PATT
         POIN2  Principality_1_16
// 089   ----------------------------------------
        BYTE   PATT
         POIN2  Principality_1_17
// 090   ----------------------------------------
        BYTE   PATT
         POIN2  Principality_1_18
// 091   ----------------------------------------
        BYTE   PATT
         POIN2  Principality_1_19
// 092   ----------------------------------------
        BYTE   PATT
         POIN2  Principality_1_16
// 093   ----------------------------------------
        BYTE   PATT
         POIN2  Principality_1_17
// 094   ----------------------------------------
        BYTE   PATT
         POIN2  Principality_1_18
// 095   ----------------------------------------
        BYTE   PATT
         POIN2  Principality_1_19
// 096   ----------------------------------------
        BYTE   PATT
         POIN2  Principality_1_16
// 097   ----------------------------------------
        BYTE   PATT
         POIN2  Principality_1_17
// 098   ----------------------------------------
        BYTE   PATT
         POIN2  Principality_1_18
// 099   ----------------------------------------
        BYTE   PATT
         POIN2  Principality_1_19
// 100   ----------------------------------------
        BYTE   PATT
         POIN2  Principality_1_16
// 101   ----------------------------------------
        BYTE   PATT
         POIN2  Principality_1_17
// 102   ----------------------------------------
        BYTE   PATT
         POIN2  Principality_1_18
// 103   ----------------------------------------
        BYTE   PATT
         POIN2  Principality_1_19
// 104   ----------------------------------------
        BYTE   PATT
         POIN2  Principality_1_32
// 105   ----------------------------------------
        BYTE   PATT
         POIN2  Principality_1_33
// 106   ----------------------------------------
        BYTE   PATT
         POIN2  Principality_1_34
// 107   ----------------------------------------
        BYTE   PATT
         POIN2  Principality_1_35
// 108   ----------------------------------------
        BYTE   PATT
         POIN2  Principality_1_36
// 109   ----------------------------------------
        BYTE   PATT
         POIN2  Principality_1_33
// 110   ----------------------------------------
        BYTE   PATT
         POIN2  Principality_1_34
// 111   ----------------------------------------
        BYTE   PATT
         POIN2  Principality_1_35
// 112   ----------------------------------------
        BYTE   PATT
         POIN2  Principality_1_16
// 113   ----------------------------------------
        BYTE   PATT
         POIN2  Principality_1_17
// 114   ----------------------------------------
        BYTE   PATT
         POIN2  Principality_1_18
// 115   ----------------------------------------
        BYTE   PATT
         POIN2  Principality_1_19
// 116   ----------------------------------------
        BYTE   PATT
         POIN2  Principality_1_16
// 117   ----------------------------------------
        BYTE   PATT
         POIN2  Principality_1_17
// 118   ----------------------------------------
        BYTE   PATT
         POIN2  Principality_1_18
// 119   ----------------------------------------
        BYTE   PATT
         POIN2  Principality_1_19
// 120   ----------------------------------------
        BYTE           N21     En1   v112
        BYTE   W24
        BYTE           N24     En1   v108
        BYTE   W60
        BYTE           N04     Gn1   v100
        BYTE   W06
        BYTE                   An1   v096
        BYTE   W06
// 121   ----------------------------------------
        BYTE           N84     Bn1
        BYTE   W84
        BYTE           N05     An1   v084
        BYTE   W06
        BYTE           N04     Gn1
        BYTE   W06
// 122   ----------------------------------------
        BYTE           N19     En1
        BYTE   W24
        BYTE           N36     En1   v080
        BYTE   W60
        BYTE           N04     Fs1   v072
        BYTE   W06
        BYTE                   Gn1
        BYTE   W06
// 123   ----------------------------------------
        BYTE           N80     Bn0   v068
        BYTE   W84
        BYTE           N13     Dn1   v056
        BYTE   W12
// 124   ----------------------------------------
        BYTE           N21     En1
        BYTE   W24
        BYTE           N24     En1   v052
        BYTE   W60
        BYTE           N04     Gn1   v044
        BYTE   W06
        BYTE                   An1
        BYTE   W06
// 125   ----------------------------------------
        BYTE           N84     Bn1
        BYTE   W84
        BYTE           N05     An1   v032
        BYTE   W06
        BYTE           N04     Gn1   v028
        BYTE   W06
// 126   ----------------------------------------
        BYTE           N19     En1
        BYTE   W24
        BYTE           N36     En1   v024
        BYTE   W60
        BYTE           N04     Fs1   v016
        BYTE   W06
        BYTE                   Gn1
        BYTE   W06
// 127   ----------------------------------------
        BYTE           N80     Bn0
        BYTE   W84
        BYTE           N12     Dn1   v004
        BYTE   W12
// 128   ----------------------------------------
        BYTE   GoTo
         POIN2  Principality_1_LOOP
        BYTE   FINE

//****************** Track 2 (Midi-Chn.2) ******************//

Principality_2:
        BYTE   KEYSH   Principality_key+0
// 000   ----------------------------------------
        BYTE           VOICE   60
        BYTE           VOL     48
        BYTE           PAN     c_v-26
        BYTE   W96
// 001   ----------------------------------------
        BYTE   W96
// 002   ----------------------------------------
        BYTE   W96
// 003   ----------------------------------------
        BYTE   W96
// 004   ----------------------------------------
        BYTE   W96
// 005   ----------------------------------------
        BYTE   W96
// 006   ----------------------------------------
        BYTE   W96
// 007   ----------------------------------------
        BYTE   W96
// 008   ----------------------------------------
Principality_2_LOOP:
        BYTE   W96
// 009   ----------------------------------------
        BYTE   W96
// 010   ----------------------------------------
        BYTE   W96
// 011   ----------------------------------------
        BYTE   W96
// 012   ----------------------------------------
        BYTE   W96
// 013   ----------------------------------------
        BYTE   W96
// 014   ----------------------------------------
        BYTE   W96
// 015   ----------------------------------------
        BYTE   W96
// 016   ----------------------------------------
        BYTE   W96
// 017   ----------------------------------------
        BYTE   W96
// 018   ----------------------------------------
        BYTE   W96
// 019   ----------------------------------------
        BYTE   W96
// 020   ----------------------------------------
        BYTE   W96
// 021   ----------------------------------------
        BYTE   W96
// 022   ----------------------------------------
        BYTE   W96
// 023   ----------------------------------------
        BYTE   W96
// 024   ----------------------------------------
        BYTE   W96
// 025   ----------------------------------------
        BYTE   W96
// 026   ----------------------------------------
        BYTE   W96
// 027   ----------------------------------------
        BYTE   W96
// 028   ----------------------------------------
        BYTE   W96
// 029   ----------------------------------------
        BYTE   W96
// 030   ----------------------------------------
        BYTE   W96
// 031   ----------------------------------------
        BYTE   W96
// 032   ----------------------------------------
Principality_2_32:
        BYTE           N80     En4   v084
        BYTE           N84     As3   v088
        BYTE   W84
        BYTE           N05     En4   v092
        BYTE           N05     An3
        BYTE   W06
        BYTE           N03     En4
        BYTE           N03     As3
        BYTE   W06
        BYTE   PEND
// 033   ----------------------------------------
Principality_2_33:
        BYTE           N72     Bn3   v096
        BYTE           N68     En3   v092
        BYTE   W96
        BYTE   PEND
// 034   ----------------------------------------
        BYTE   PATT
         POIN2  Principality_2_32
// 035   ----------------------------------------
        BYTE   PATT
         POIN2  Principality_2_33
// 036   ----------------------------------------
        BYTE   PATT
         POIN2  Principality_2_32
// 037   ----------------------------------------
        BYTE   PATT
         POIN2  Principality_2_33
// 038   ----------------------------------------
        BYTE   PATT
         POIN2  Principality_2_32
// 039   ----------------------------------------
        BYTE   PATT
         POIN2  Principality_2_33
// 040   ----------------------------------------
        BYTE   W96
// 041   ----------------------------------------
        BYTE   W96
// 042   ----------------------------------------
        BYTE   W96
// 043   ----------------------------------------
        BYTE   W96
// 044   ----------------------------------------
        BYTE   W96
// 045   ----------------------------------------
        BYTE   W96
// 046   ----------------------------------------
        BYTE   W96
// 047   ----------------------------------------
        BYTE   W96
// 048   ----------------------------------------
        BYTE   W96
// 049   ----------------------------------------
        BYTE   W96
// 050   ----------------------------------------
        BYTE   W96
// 051   ----------------------------------------
        BYTE   W96
// 052   ----------------------------------------
        BYTE   W96
// 053   ----------------------------------------
        BYTE   W96
// 054   ----------------------------------------
        BYTE   W96
// 055   ----------------------------------------
        BYTE   W96
// 056   ----------------------------------------
        BYTE   W96
// 057   ----------------------------------------
        BYTE   W96
// 058   ----------------------------------------
        BYTE   W96
// 059   ----------------------------------------
        BYTE   W96
// 060   ----------------------------------------
        BYTE   W96
// 061   ----------------------------------------
        BYTE   W96
// 062   ----------------------------------------
        BYTE   W96
// 063   ----------------------------------------
        BYTE   W96
// 064   ----------------------------------------
        BYTE   PATT
         POIN2  Principality_2_32
// 065   ----------------------------------------
        BYTE   PATT
         POIN2  Principality_2_33
// 066   ----------------------------------------
        BYTE   PATT
         POIN2  Principality_2_32
// 067   ----------------------------------------
        BYTE   PATT
         POIN2  Principality_2_33
// 068   ----------------------------------------
        BYTE   PATT
         POIN2  Principality_2_32
// 069   ----------------------------------------
        BYTE   PATT
         POIN2  Principality_2_33
// 070   ----------------------------------------
        BYTE   PATT
         POIN2  Principality_2_32
// 071   ----------------------------------------
        BYTE   PATT
         POIN2  Principality_2_33
// 072   ----------------------------------------
Principality_2_72:
        BYTE           N03     Bn2   v108
        BYTE           N04     En2   v104
        BYTE   W12
        BYTE                   Bn2   v092
        BYTE           N04     En2
        BYTE   W12
        BYTE           N03     Bn2   v068
        BYTE           N03     En2   v060
        BYTE   W12
        BYTE           N02     Bn3   v088
        BYTE           N02     Gn3   v100
        BYTE           N02     En3   v080
        BYTE           N04     Bn2   v092
        BYTE           N04     En2   v080
        BYTE   W06
        BYTE           N01     Bn3   v084
        BYTE           N01     Gn3   v100
        BYTE           N02     En3   v084
        BYTE   W06
        BYTE           N28     Bn3   v112
        BYTE           N24     Gn3   v116
        BYTE           N24     En3   v100
        BYTE           N04     Bn2   v116
        BYTE           N03     En2   v104
        BYTE   W12
        BYTE                   Bn2   v088
        BYTE           N03     En2   v084
        BYTE   W12
        BYTE           N02     Bn2   v076
        BYTE           N02     En2
        BYTE   W12
        BYTE           N10     Bn2   v116
        BYTE           N08     En2   v100
        BYTE   W12
        BYTE   PEND
// 073   ----------------------------------------
Principality_2_73:
        BYTE           N04     An2   v096
        BYTE           N04     Dn2   v092
        BYTE   W12
        BYTE           N03     An2   v088
        BYTE           N04     Dn2   v080
        BYTE   W12
        BYTE           N03     An2   v072
        BYTE           N04     Dn2
        BYTE   W12
        BYTE           N02     An3   v084
        BYTE           N02     Fs3   v104
        BYTE           N02     Dn3   v060
        BYTE           N03     An2   v112
        BYTE           N03     Dn2   v104
        BYTE   W06
        BYTE           N02     An3   v076
        BYTE           N02     Fs3   v096
        BYTE           N02     Dn3   v060
        BYTE   W06
        BYTE           N32     An3   v104
        BYTE           N30     Fs3   v112
        BYTE           N30     Dn3   v100
        BYTE           N03     An2   v104
        BYTE           N04     Dn2   v100
        BYTE   W12
        BYTE           N03     An2   v092
        BYTE           N03     Dn2   v080
        BYTE   W12
        BYTE                   An2   v076
        BYTE           N03     Dn2   v056
        BYTE   W12
        BYTE           N05     An2   v100
        BYTE           N06     Dn2   v088
        BYTE   W12
        BYTE   PEND
// 074   ----------------------------------------
Principality_2_74:
        BYTE           N03     Bn2   v092
        BYTE           N03     En2   v100
        BYTE   W12
        BYTE                   Bn2   v084
        BYTE           N04     En2   v080
        BYTE   W12
        BYTE           N03     Bn2
        BYTE           N03     En2   v076
        BYTE   W12
        BYTE           N02     Bn3   v072
        BYTE           N03     Gn3   v084
        BYTE           N03     En3   v068
        BYTE           N03     Bn2   v108
        BYTE           N03     En2   v096
        BYTE   W06
        BYTE           N02     Bn3   v060
        BYTE           N02     Gn3   v076
        BYTE           N02     En3   v060
        BYTE   W06
        BYTE           N32     Bn3   v112
        BYTE           N32     Gn3   v116
        BYTE           N32     En3   v108
        BYTE           N03     Bn2   v100
        BYTE           N03     En2   v084
        BYTE   W12
        BYTE                   Bn2   v088
        BYTE           N03     En2   v080
        BYTE   W12
        BYTE                   Bn2   v092
        BYTE           N03     En2   v084
        BYTE   W12
        BYTE           N11     Bn2   v120
        BYTE           N07     En2   v096
        BYTE   W12
        BYTE   PEND
// 075   ----------------------------------------
Principality_2_75:
        BYTE           N04     An2   v096
        BYTE           N04     Dn2   v084
        BYTE   W12
        BYTE           N03     An2
        BYTE           N04     Dn2   v080
        BYTE   W12
        BYTE           N03     An2
        BYTE           N04     Dn2
        BYTE   W12
        BYTE           N02     An3
        BYTE           N02     Fs3   v096
        BYTE           N02     Dn3   v056
        BYTE           N03     An2   v116
        BYTE           N04     Dn2   v104
        BYTE   W06
        BYTE           N01     An3   v080
        BYTE           N02     Fs3   v112
        BYTE           N02     Dn3   v080
        BYTE   W06
        BYTE           N32     An3   v096
        BYTE           N32     Fs3   v124
        BYTE           N30     Dn3   v084
        BYTE           N03     An2   v108
        BYTE           N04     Dn2   v096
        BYTE   W12
        BYTE           N03     An2   v084
        BYTE           N04     Dn2   v080
        BYTE   W12
        BYTE           N03     An2
        BYTE           N04     Dn2   v076
        BYTE   W12
        BYTE           N03     An2   v112
        BYTE           N03     Dn2   v104
        BYTE   W12
        BYTE   PEND
// 076   ----------------------------------------
Principality_2_76:
        BYTE           N03     Bn2   v108
        BYTE           N04     En2   v104
        BYTE   W12
        BYTE                   Bn2   v092
        BYTE           N04     En2
        BYTE   W12
        BYTE           N03     Bn2   v068
        BYTE           N03     En2   v060
        BYTE   W12
        BYTE           N02     Bn3   v072
        BYTE           N02     Gn3   v084
        BYTE           N03     En3   v080
        BYTE           N04     Bn2   v092
        BYTE           N04     En2   v080
        BYTE   W06
        BYTE           N02     Bn3   v076
        BYTE           N02     Gn3   v080
        BYTE           N02     En3   v072
        BYTE   W06
        BYTE           N30     Bn3   v092
        BYTE           N28     Gn3   v108
        BYTE           N28     En3   v088
        BYTE           N04     Bn2   v116
        BYTE           N03     En2   v104
        BYTE   W12
        BYTE                   Bn2   v088
        BYTE           N03     En2   v084
        BYTE   W12
        BYTE           N02     Bn2   v076
        BYTE           N02     En2
        BYTE   W12
        BYTE           N10     Bn2   v116
        BYTE           N08     En2   v100
        BYTE   W12
        BYTE   PEND
// 077   ----------------------------------------
Principality_2_77:
        BYTE           N04     An2   v096
        BYTE           N04     Dn2   v092
        BYTE   W12
        BYTE           N03     An2   v088
        BYTE           N04     Dn2   v080
        BYTE   W12
        BYTE           N03     An2   v072
        BYTE           N04     Dn2
        BYTE   W12
        BYTE           N03     An3   v080
        BYTE           N03     Fs3   v092
        BYTE           N02     Dn3   v060
        BYTE           N03     An2   v112
        BYTE           N03     Dn2   v104
        BYTE   W06
        BYTE           N02     An3   v076
        BYTE           N02     Fs3   v084
        BYTE           N02     Dn3   v068
        BYTE   W06
        BYTE           N30     An3   v096
        BYTE           N24     Fs3   v112
        BYTE           N24     Dn3   v092
        BYTE           N03     An2   v104
        BYTE           N04     Dn2   v100
        BYTE   W12
        BYTE           N03     An2   v092
        BYTE           N03     Dn2   v080
        BYTE   W12
        BYTE                   An2   v076
        BYTE           N03     Dn2   v056
        BYTE   W12
        BYTE           N05     An2   v100
        BYTE           N06     Dn2   v088
        BYTE   W12
        BYTE   PEND
// 078   ----------------------------------------
Principality_2_78:
        BYTE           N03     Bn2   v092
        BYTE           N03     En2   v100
        BYTE   W12
        BYTE                   Bn2   v084
        BYTE           N04     En2   v080
        BYTE   W12
        BYTE           N03     Bn2
        BYTE           N03     En2   v076
        BYTE   W12
        BYTE           N01     Bn3   v060
        BYTE           N02     Gn3   v080
        BYTE           N03     En3
        BYTE           N03     Bn2   v108
        BYTE           N03     En2   v096
        BYTE   W06
        BYTE                   Bn3   v076
        BYTE           N02     Gn3   v080
        BYTE           N03     En3   v072
        BYTE   W06
        BYTE           N32     Bn3   v096
        BYTE           N30     Gn3   v112
        BYTE           N30     En3   v096
        BYTE           N03     Bn2   v100
        BYTE           N03     En2   v084
        BYTE   W12
        BYTE                   Bn2   v088
        BYTE           N03     En2   v080
        BYTE   W12
        BYTE                   Bn2   v092
        BYTE           N03     En2   v084
        BYTE   W12
        BYTE           N11     Bn2   v120
        BYTE           N07     En2   v096
        BYTE   W12
        BYTE   PEND
// 079   ----------------------------------------
Principality_2_79:
        BYTE           N04     An2   v096
        BYTE           N04     Dn2   v084
        BYTE   W12
        BYTE           N03     An2
        BYTE           N04     Dn2   v080
        BYTE   W12
        BYTE           N03     An2
        BYTE           N04     Dn2
        BYTE   W12
        BYTE           N02     An3   v084
        BYTE           N02     Fs3   v104
        BYTE           N02     Dn3   v072
        BYTE           N03     An2   v116
        BYTE           N04     Dn2   v104
        BYTE   W06
        BYTE           N02     An3   v080
        BYTE           N02     Fs3   v104
        BYTE           N03     Dn3   v068
        BYTE   W06
        BYTE           N32     An3   v100
        BYTE           N32     Fs3   v116
        BYTE           N32     Dn3   v084
        BYTE           N03     An2   v108
        BYTE           N04     Dn2   v096
        BYTE   W12
        BYTE           N03     An2   v084
        BYTE           N04     Dn2   v080
        BYTE   W12
        BYTE           N03     An2
        BYTE           N04     Dn2   v076
        BYTE   W12
        BYTE           N03     An2   v112
        BYTE           N03     Dn2   v104
        BYTE   W12
        BYTE   PEND
// 080   ----------------------------------------
        BYTE   PATT
         POIN2  Principality_2_72
// 081   ----------------------------------------
        BYTE   PATT
         POIN2  Principality_2_73
// 082   ----------------------------------------
        BYTE   PATT
         POIN2  Principality_2_74
// 083   ----------------------------------------
        BYTE   PATT
         POIN2  Principality_2_75
// 084   ----------------------------------------
        BYTE   PATT
         POIN2  Principality_2_76
// 085   ----------------------------------------
        BYTE   PATT
         POIN2  Principality_2_77
// 086   ----------------------------------------
        BYTE   PATT
         POIN2  Principality_2_78
// 087   ----------------------------------------
        BYTE   PATT
         POIN2  Principality_2_79
// 088   ----------------------------------------
        BYTE   W96
// 089   ----------------------------------------
        BYTE   W96
// 090   ----------------------------------------
        BYTE   W96
// 091   ----------------------------------------
        BYTE   W96
// 092   ----------------------------------------
        BYTE   W96
// 093   ----------------------------------------
        BYTE   W96
// 094   ----------------------------------------
        BYTE   W96
// 095   ----------------------------------------
        BYTE   W96
// 096   ----------------------------------------
        BYTE   W96
// 097   ----------------------------------------
        BYTE   W96
// 098   ----------------------------------------
        BYTE   W96
// 099   ----------------------------------------
        BYTE   W96
// 100   ----------------------------------------
        BYTE   W96
// 101   ----------------------------------------
        BYTE   W96
// 102   ----------------------------------------
        BYTE   W96
// 103   ----------------------------------------
        BYTE   W96
// 104   ----------------------------------------
        BYTE   PATT
         POIN2  Principality_2_32
// 105   ----------------------------------------
        BYTE   PATT
         POIN2  Principality_2_33
// 106   ----------------------------------------
        BYTE   PATT
         POIN2  Principality_2_32
// 107   ----------------------------------------
        BYTE   PATT
         POIN2  Principality_2_33
// 108   ----------------------------------------
        BYTE   PATT
         POIN2  Principality_2_32
// 109   ----------------------------------------
        BYTE   PATT
         POIN2  Principality_2_33
// 110   ----------------------------------------
        BYTE   PATT
         POIN2  Principality_2_32
// 111   ----------------------------------------
        BYTE   PATT
         POIN2  Principality_2_33
// 112   ----------------------------------------
        BYTE   W96
// 113   ----------------------------------------
        BYTE   W96
// 114   ----------------------------------------
        BYTE   W96
// 115   ----------------------------------------
        BYTE   W96
// 116   ----------------------------------------
        BYTE   W96
// 117   ----------------------------------------
        BYTE   W96
// 118   ----------------------------------------
        BYTE   W96
// 119   ----------------------------------------
        BYTE   W96
// 120   ----------------------------------------
        BYTE   W96
// 121   ----------------------------------------
        BYTE   W96
// 122   ----------------------------------------
        BYTE   W96
// 123   ----------------------------------------
        BYTE   W96
// 124   ----------------------------------------
        BYTE   W96
// 125   ----------------------------------------
        BYTE   W96
// 126   ----------------------------------------
        BYTE   W96
// 127   ----------------------------------------
        BYTE   W96
// 128   ----------------------------------------
        BYTE   GoTo
         POIN2  Principality_2_LOOP
        BYTE   FINE

//****************** Track 3 (Midi-Chn.3) ******************//

Principality_3:
        BYTE   KEYSH   Principality_key+0
// 000   ----------------------------------------
        BYTE           VOICE   70
        BYTE           VOL     79
        BYTE           PAN     c_v+7
        BYTE   W96
// 001   ----------------------------------------
        BYTE   W96
// 002   ----------------------------------------
        BYTE   W96
// 003   ----------------------------------------
        BYTE   W96
// 004   ----------------------------------------
        BYTE   W96
// 005   ----------------------------------------
        BYTE   W96
// 006   ----------------------------------------
        BYTE   W96
// 007   ----------------------------------------
        BYTE   W96
// 008   ----------------------------------------
Principality_3_LOOP:
        BYTE   W96
// 009   ----------------------------------------
        BYTE   W96
// 010   ----------------------------------------
        BYTE   W96
// 011   ----------------------------------------
        BYTE   W96
// 012   ----------------------------------------
        BYTE   W96
// 013   ----------------------------------------
        BYTE   W96
// 014   ----------------------------------------
        BYTE   W96
// 015   ----------------------------------------
        BYTE   W96
// 016   ----------------------------------------
        BYTE   W96
// 017   ----------------------------------------
        BYTE   W96
// 018   ----------------------------------------
        BYTE   W96
// 019   ----------------------------------------
        BYTE   W96
// 020   ----------------------------------------
        BYTE   W96
// 021   ----------------------------------------
        BYTE   W96
// 022   ----------------------------------------
        BYTE   W96
// 023   ----------------------------------------
        BYTE   W96
// 024   ----------------------------------------
        BYTE   W96
// 025   ----------------------------------------
        BYTE   W96
// 026   ----------------------------------------
        BYTE   W96
// 027   ----------------------------------------
        BYTE   W96
// 028   ----------------------------------------
        BYTE   W96
// 029   ----------------------------------------
        BYTE   W96
// 030   ----------------------------------------
        BYTE   W96
// 031   ----------------------------------------
        BYTE   W96
// 032   ----------------------------------------
Principality_3_32:
        BYTE           N04     Bn1   v124
        BYTE   W06
        BYTE           N03     An1   v112
        BYTE   W06
        BYTE           N68     As1   v116
        BYTE   W72
        BYTE           N06     An1   v112
        BYTE   W06
        BYTE           N05     Bn1   v116
        BYTE   W06
        BYTE   PEND
// 033   ----------------------------------------
Principality_3_33:
        BYTE           N68     En1   v120
        BYTE   W72
        BYTE           N23     An1   v116
        BYTE   W24
        BYTE   PEND
// 034   ----------------------------------------
Principality_3_34:
        BYTE           N05     Bn1   v112
        BYTE   W06
        BYTE                   An1   v116
        BYTE   W06
        BYTE           N68     As1   v112
        BYTE   W72
        BYTE           N04     An1   v116
        BYTE   W06
        BYTE           N03     Bn1   v120
        BYTE   W06
        BYTE   PEND
// 035   ----------------------------------------
        BYTE           N90     En1   v112
        BYTE   W96
// 036   ----------------------------------------
Principality_3_36:
        BYTE           N05     Bn1   v116
        BYTE   W06
        BYTE           N06     An1   v112
        BYTE   W06
        BYTE           N72     As1
        BYTE   W72
        BYTE           N06     An1
        BYTE   W06
        BYTE           N05     Bn1   v108
        BYTE   W06
        BYTE   PEND
// 037   ----------------------------------------
Principality_3_37:
        BYTE           N68     En1   v108
        BYTE   W72
        BYTE           N20     An1   v112
        BYTE   W24
        BYTE   PEND
// 038   ----------------------------------------
Principality_3_38:
        BYTE           N05     Bn1   v108
        BYTE   W06
        BYTE           N04     An1   v112
        BYTE   W06
        BYTE           N72     As1
        BYTE   W72
        BYTE           N04     An1   v116
        BYTE   W06
        BYTE                   Bn1   v108
        BYTE   W06
        BYTE   PEND
// 039   ----------------------------------------
        BYTE           N88     En1   v120
        BYTE   W96
// 040   ----------------------------------------
        BYTE   W96
// 041   ----------------------------------------
        BYTE   W96
// 042   ----------------------------------------
        BYTE   W96
// 043   ----------------------------------------
        BYTE   W96
// 044   ----------------------------------------
        BYTE   W96
// 045   ----------------------------------------
        BYTE   W96
// 046   ----------------------------------------
        BYTE   W96
// 047   ----------------------------------------
        BYTE   W96
// 048   ----------------------------------------
        BYTE   W96
// 049   ----------------------------------------
        BYTE   W96
// 050   ----------------------------------------
        BYTE   W96
// 051   ----------------------------------------
        BYTE   W96
// 052   ----------------------------------------
        BYTE   W96
// 053   ----------------------------------------
        BYTE   W96
// 054   ----------------------------------------
        BYTE   W96
// 055   ----------------------------------------
        BYTE   W96
// 056   ----------------------------------------
        BYTE   W96
// 057   ----------------------------------------
        BYTE   W96
// 058   ----------------------------------------
        BYTE   W96
// 059   ----------------------------------------
        BYTE   W96
// 060   ----------------------------------------
        BYTE   W96
// 061   ----------------------------------------
        BYTE   W96
// 062   ----------------------------------------
        BYTE   W96
// 063   ----------------------------------------
        BYTE   W96
// 064   ----------------------------------------
        BYTE   PATT
         POIN2  Principality_3_32
// 065   ----------------------------------------
        BYTE   PATT
         POIN2  Principality_3_33
// 066   ----------------------------------------
        BYTE   PATT
         POIN2  Principality_3_34
// 067   ----------------------------------------
        BYTE           N90     En1   v112
        BYTE   W96
// 068   ----------------------------------------
        BYTE   PATT
         POIN2  Principality_3_36
// 069   ----------------------------------------
        BYTE   PATT
         POIN2  Principality_3_37
// 070   ----------------------------------------
        BYTE   PATT
         POIN2  Principality_3_38
// 071   ----------------------------------------
        BYTE           N88     En1   v120
        BYTE   W96
// 072   ----------------------------------------
        BYTE   W96
// 073   ----------------------------------------
        BYTE   W96
// 074   ----------------------------------------
        BYTE   W96
// 075   ----------------------------------------
        BYTE   W96
// 076   ----------------------------------------
        BYTE   W96
// 077   ----------------------------------------
        BYTE   W96
// 078   ----------------------------------------
        BYTE   W96
// 079   ----------------------------------------
        BYTE   W96
// 080   ----------------------------------------
        BYTE   W96
// 081   ----------------------------------------
        BYTE   W96
// 082   ----------------------------------------
        BYTE   W96
// 083   ----------------------------------------
        BYTE   W96
// 084   ----------------------------------------
        BYTE   W96
// 085   ----------------------------------------
        BYTE   W96
// 086   ----------------------------------------
        BYTE   W96
// 087   ----------------------------------------
        BYTE   W96
// 088   ----------------------------------------
        BYTE   W96
// 089   ----------------------------------------
        BYTE   W96
// 090   ----------------------------------------
        BYTE   W96
// 091   ----------------------------------------
        BYTE   W96
// 092   ----------------------------------------
        BYTE   W96
// 093   ----------------------------------------
        BYTE   W96
// 094   ----------------------------------------
        BYTE   W96
// 095   ----------------------------------------
        BYTE   W96
// 096   ----------------------------------------
        BYTE   W96
// 097   ----------------------------------------
        BYTE   W96
// 098   ----------------------------------------
        BYTE   W96
// 099   ----------------------------------------
        BYTE   W96
// 100   ----------------------------------------
        BYTE   W96
// 101   ----------------------------------------
        BYTE   W96
// 102   ----------------------------------------
        BYTE   W96
// 103   ----------------------------------------
        BYTE   W96
// 104   ----------------------------------------
        BYTE   PATT
         POIN2  Principality_3_32
// 105   ----------------------------------------
        BYTE   PATT
         POIN2  Principality_3_33
// 106   ----------------------------------------
        BYTE   PATT
         POIN2  Principality_3_34
// 107   ----------------------------------------
        BYTE           N90     En1   v112
        BYTE   W96
// 108   ----------------------------------------
        BYTE   PATT
         POIN2  Principality_3_36
// 109   ----------------------------------------
        BYTE   PATT
         POIN2  Principality_3_37
// 110   ----------------------------------------
        BYTE   PATT
         POIN2  Principality_3_38
// 111   ----------------------------------------
        BYTE           N88     En1   v120
        BYTE   W96
// 112   ----------------------------------------
        BYTE   W96
// 113   ----------------------------------------
        BYTE   W96
// 114   ----------------------------------------
        BYTE   W96
// 115   ----------------------------------------
        BYTE   W96
// 116   ----------------------------------------
        BYTE   W96
// 117   ----------------------------------------
        BYTE   W96
// 118   ----------------------------------------
        BYTE   W96
// 119   ----------------------------------------
        BYTE   W96
// 120   ----------------------------------------
        BYTE   W96
// 121   ----------------------------------------
        BYTE   W96
// 122   ----------------------------------------
        BYTE   W96
// 123   ----------------------------------------
        BYTE   W96
// 124   ----------------------------------------
        BYTE   W96
// 125   ----------------------------------------
        BYTE   W96
// 126   ----------------------------------------
        BYTE   W96
// 127   ----------------------------------------
        BYTE   W96
// 128   ----------------------------------------
        BYTE   GoTo
         POIN2  Principality_3_LOOP
        BYTE   FINE

//****************** Track 4 (Midi-Chn.4) ******************//

Principality_4:
        BYTE   KEYSH   Principality_key+0
// 000   ----------------------------------------
        BYTE           VOICE   32
        BYTE           VOL     38
        BYTE           PAN     c_v-24
        BYTE   W96
// 001   ----------------------------------------
        BYTE   W96
// 002   ----------------------------------------
        BYTE   W96
// 003   ----------------------------------------
        BYTE   W96
// 004   ----------------------------------------
        BYTE   W96
// 005   ----------------------------------------
        BYTE   W96
// 006   ----------------------------------------
        BYTE   W96
// 007   ----------------------------------------
        BYTE   W96
// 008   ----------------------------------------
Principality_4_LOOP:
        BYTE           N15     En1   v112
        BYTE   W24
        BYTE           N20     En1   v108
        BYTE   W24
        BYTE           N19     En1   v100
        BYTE   W24
        BYTE           N20     En1   v108
        BYTE   W24
// 009   ----------------------------------------
Principality_4_9:
        BYTE           N20     Bn0   v112
        BYTE   W24
        BYTE           N19     Bn0   v116
        BYTE   W24
        BYTE                   Bn1   v124
        BYTE   W24
        BYTE           N18     Bn1   v116
        BYTE   W24
        BYTE   PEND
// 010   ----------------------------------------
Principality_4_10:
        BYTE           N19     En1   v112
        BYTE   W24
        BYTE                   En1
        BYTE   W24
        BYTE           N17     En1   v108
        BYTE   W24
        BYTE           N19     En1   v112
        BYTE   W24
        BYTE   PEND
// 011   ----------------------------------------
Principality_4_11:
        BYTE           N18     Bn0   v112
        BYTE   W24
        BYTE                   Bn0   v120
        BYTE   W24
        BYTE           N19     Bn1
        BYTE   W24
        BYTE           N17     An1   v124
        BYTE   W24
        BYTE   PEND
// 012   ----------------------------------------
Principality_4_12:
        BYTE           N18     En1   v120
        BYTE   W24
        BYTE           N19     En1   v112
        BYTE   W24
        BYTE           N18
        BYTE   W24
        BYTE           N19
        BYTE   W24
        BYTE   PEND
// 013   ----------------------------------------
Principality_4_13:
        BYTE           N18     Bn0   v112
        BYTE   W24
        BYTE           N19
        BYTE   W24
        BYTE                   Bn1   v124
        BYTE   W24
        BYTE           N18     Bn1   v112
        BYTE   W24
        BYTE   PEND
// 014   ----------------------------------------
Principality_4_14:
        BYTE           N19     En1   v120
        BYTE   W24
        BYTE           N20     En1   v108
        BYTE   W24
        BYTE           N19     En1   v112
        BYTE   W24
        BYTE                   En1
        BYTE   W24
        BYTE   PEND
// 015   ----------------------------------------
Principality_4_15:
        BYTE           N19     Bn0   v112
        BYTE   W24
        BYTE                   Bn0
        BYTE   W24
        BYTE           N18     Bn1   v120
        BYTE   W24
        BYTE           N17     An1   v116
        BYTE   W24
        BYTE   PEND
// 016   ----------------------------------------
Principality_4_16:
        BYTE           N15     En1   v112
        BYTE   W24
        BYTE           N20     En1   v108
        BYTE   W24
        BYTE           N19     En1   v100
        BYTE   W24
        BYTE           N20     En1   v108
        BYTE   W24
        BYTE   PEND
// 017   ----------------------------------------
        BYTE   PATT
         POIN2  Principality_4_9
// 018   ----------------------------------------
        BYTE   PATT
         POIN2  Principality_4_10
// 019   ----------------------------------------
        BYTE   PATT
         POIN2  Principality_4_11
// 020   ----------------------------------------
        BYTE   PATT
         POIN2  Principality_4_12
// 021   ----------------------------------------
        BYTE   PATT
         POIN2  Principality_4_13
// 022   ----------------------------------------
        BYTE   PATT
         POIN2  Principality_4_14
// 023   ----------------------------------------
        BYTE   PATT
         POIN2  Principality_4_15
// 024   ----------------------------------------
        BYTE   PATT
         POIN2  Principality_4_16
// 025   ----------------------------------------
        BYTE   PATT
         POIN2  Principality_4_9
// 026   ----------------------------------------
        BYTE   PATT
         POIN2  Principality_4_10
// 027   ----------------------------------------
        BYTE   PATT
         POIN2  Principality_4_11
// 028   ----------------------------------------
        BYTE   PATT
         POIN2  Principality_4_12
// 029   ----------------------------------------
        BYTE   PATT
         POIN2  Principality_4_13
// 030   ----------------------------------------
        BYTE   PATT
         POIN2  Principality_4_14
// 031   ----------------------------------------
        BYTE   PATT
         POIN2  Principality_4_15
// 032   ----------------------------------------
        BYTE   W96
// 033   ----------------------------------------
Principality_4_33:
        BYTE   W48
        BYTE           N06     En2   v084
        BYTE   W12
        BYTE           N08     Bn2
        BYTE   W12
        BYTE                   Dn3
        BYTE   W12
        BYTE           N10     En3   v100
        BYTE   W12
        BYTE   PEND
// 034   ----------------------------------------
        BYTE   W96
// 035   ----------------------------------------
Principality_4_35:
        BYTE   W48
        BYTE           N08     En2   v080
        BYTE   W12
        BYTE                   Bn2   v076
        BYTE   W12
        BYTE                   Dn3
        BYTE   W12
        BYTE           N10     En3   v084
        BYTE   W12
        BYTE   PEND
// 036   ----------------------------------------
        BYTE   W96
// 037   ----------------------------------------
Principality_4_37:
        BYTE   W48
        BYTE           N07     En2   v080
        BYTE   W12
        BYTE                   Bn2
        BYTE   W12
        BYTE                   Dn3   v084
        BYTE   W12
        BYTE           N08     En3   v096
        BYTE   W12
        BYTE   PEND
// 038   ----------------------------------------
        BYTE   W96
// 039   ----------------------------------------
Principality_4_39:
        BYTE   W48
        BYTE           N08     En2   v084
        BYTE   W12
        BYTE           N07     Bn2   v096
        BYTE   W12
        BYTE                   Dn3   v084
        BYTE   W12
        BYTE                   En3   v092
        BYTE   W12
        BYTE   PEND
// 040   ----------------------------------------
        BYTE   PATT
         POIN2  Principality_4_16
// 041   ----------------------------------------
        BYTE   PATT
         POIN2  Principality_4_9
// 042   ----------------------------------------
        BYTE   PATT
         POIN2  Principality_4_10
// 043   ----------------------------------------
        BYTE   PATT
         POIN2  Principality_4_11
// 044   ----------------------------------------
        BYTE   PATT
         POIN2  Principality_4_12
// 045   ----------------------------------------
        BYTE   PATT
         POIN2  Principality_4_13
// 046   ----------------------------------------
        BYTE   PATT
         POIN2  Principality_4_14
// 047   ----------------------------------------
        BYTE   PATT
         POIN2  Principality_4_15
// 048   ----------------------------------------
        BYTE   PATT
         POIN2  Principality_4_16
// 049   ----------------------------------------
        BYTE   PATT
         POIN2  Principality_4_9
// 050   ----------------------------------------
        BYTE   PATT
         POIN2  Principality_4_10
// 051   ----------------------------------------
        BYTE   PATT
         POIN2  Principality_4_11
// 052   ----------------------------------------
        BYTE   PATT
         POIN2  Principality_4_12
// 053   ----------------------------------------
        BYTE   PATT
         POIN2  Principality_4_13
// 054   ----------------------------------------
        BYTE   PATT
         POIN2  Principality_4_14
// 055   ----------------------------------------
        BYTE   PATT
         POIN2  Principality_4_15
// 056   ----------------------------------------
        BYTE   PATT
         POIN2  Principality_4_16
// 057   ----------------------------------------
        BYTE   PATT
         POIN2  Principality_4_9
// 058   ----------------------------------------
        BYTE   PATT
         POIN2  Principality_4_10
// 059   ----------------------------------------
        BYTE   PATT
         POIN2  Principality_4_11
// 060   ----------------------------------------
        BYTE   PATT
         POIN2  Principality_4_12
// 061   ----------------------------------------
        BYTE   PATT
         POIN2  Principality_4_13
// 062   ----------------------------------------
        BYTE   PATT
         POIN2  Principality_4_14
// 063   ----------------------------------------
        BYTE   PATT
         POIN2  Principality_4_15
// 064   ----------------------------------------
        BYTE   W96
// 065   ----------------------------------------
        BYTE   PATT
         POIN2  Principality_4_33
// 066   ----------------------------------------
        BYTE   W96
// 067   ----------------------------------------
        BYTE   PATT
         POIN2  Principality_4_35
// 068   ----------------------------------------
        BYTE   W96
// 069   ----------------------------------------
        BYTE   PATT
         POIN2  Principality_4_37
// 070   ----------------------------------------
        BYTE   W96
// 071   ----------------------------------------
        BYTE   PATT
         POIN2  Principality_4_39
// 072   ----------------------------------------
Principality_4_72:
        BYTE           N16     En1   v116
        BYTE   W36
        BYTE           N04     En1   v112
        BYTE   W06
        BYTE           N06     En2   v104
        BYTE   W06
        BYTE           N17     En1   v112
        BYTE   W48
        BYTE   PEND
// 073   ----------------------------------------
Principality_4_73:
        BYTE           N20     Dn1   v124
        BYTE   W36
        BYTE           N05     Dn1   v112
        BYTE   W06
        BYTE                   Dn2   v108
        BYTE   W06
        BYTE           N19     Dn1   v112
        BYTE   W36
        BYTE           N10
        BYTE   W12
        BYTE   PEND
// 074   ----------------------------------------
Principality_4_74:
        BYTE           N19     En1   v100
        BYTE   W36
        BYTE           N05     En1   v120
        BYTE   W06
        BYTE                   En2   v112
        BYTE   W06
        BYTE           N22     En1
        BYTE   W48
        BYTE   PEND
// 075   ----------------------------------------
Principality_4_75:
        BYTE           N19     Dn1   v124
        BYTE   W36
        BYTE           N05     Dn1   v112
        BYTE   W06
        BYTE           N06     Dn2
        BYTE   W06
        BYTE           N21     Dn1   v096
        BYTE   W36
        BYTE           N08     Dn1   v116
        BYTE   W12
        BYTE   PEND
// 076   ----------------------------------------
Principality_4_76:
        BYTE           N16     En1   v100
        BYTE   W36
        BYTE           N04     En1   v112
        BYTE   W06
        BYTE           N05     En2   v100
        BYTE   W06
        BYTE           N20     En1   v112
        BYTE   W36
        BYTE           N09     En1   v116
        BYTE   W12
        BYTE   PEND
// 077   ----------------------------------------
Principality_4_77:
        BYTE           N19     Dn1   v096
        BYTE   W36
        BYTE           N04     Dn1   v112
        BYTE   W06
        BYTE                   Dn2   v104
        BYTE   W06
        BYTE           N21     Dn1   v100
        BYTE   W36
        BYTE           N10     Dn1   v120
        BYTE   W12
        BYTE   PEND
// 078   ----------------------------------------
Principality_4_78:
        BYTE           N18     En1   v096
        BYTE   W36
        BYTE           N04     En1   v112
        BYTE   W06
        BYTE                   En2   v104
        BYTE   W06
        BYTE           N20     En1   v108
        BYTE   W36
        BYTE           N08     En1   v112
        BYTE   W12
        BYTE   PEND
// 079   ----------------------------------------
Principality_4_79:
        BYTE           N15     Dn1   v112
        BYTE   W36
        BYTE           N05
        BYTE   W06
        BYTE                   Dn2   v120
        BYTE   W06
        BYTE           N22     Dn1   v096
        BYTE   W36
        BYTE           N13     Dn1   v112
        BYTE   W12
        BYTE   PEND
// 080   ----------------------------------------
        BYTE   PATT
         POIN2  Principality_4_72
// 081   ----------------------------------------
        BYTE   PATT
         POIN2  Principality_4_73
// 082   ----------------------------------------
        BYTE   PATT
         POIN2  Principality_4_74
// 083   ----------------------------------------
        BYTE   PATT
         POIN2  Principality_4_75
// 084   ----------------------------------------
        BYTE   PATT
         POIN2  Principality_4_76
// 085   ----------------------------------------
        BYTE   PATT
         POIN2  Principality_4_77
// 086   ----------------------------------------
        BYTE   PATT
         POIN2  Principality_4_78
// 087   ----------------------------------------
        BYTE   PATT
         POIN2  Principality_4_79
// 088   ----------------------------------------
        BYTE   PATT
         POIN2  Principality_4_16
// 089   ----------------------------------------
        BYTE   PATT
         POIN2  Principality_4_9
// 090   ----------------------------------------
        BYTE   PATT
         POIN2  Principality_4_10
// 091   ----------------------------------------
        BYTE   PATT
         POIN2  Principality_4_11
// 092   ----------------------------------------
        BYTE   PATT
         POIN2  Principality_4_12
// 093   ----------------------------------------
        BYTE   PATT
         POIN2  Principality_4_13
// 094   ----------------------------------------
        BYTE   PATT
         POIN2  Principality_4_14
// 095   ----------------------------------------
        BYTE   PATT
         POIN2  Principality_4_15
// 096   ----------------------------------------
        BYTE   PATT
         POIN2  Principality_4_16
// 097   ----------------------------------------
        BYTE   PATT
         POIN2  Principality_4_9
// 098   ----------------------------------------
        BYTE   PATT
         POIN2  Principality_4_10
// 099   ----------------------------------------
        BYTE   PATT
         POIN2  Principality_4_11
// 100   ----------------------------------------
        BYTE   PATT
         POIN2  Principality_4_12
// 101   ----------------------------------------
        BYTE   PATT
         POIN2  Principality_4_13
// 102   ----------------------------------------
        BYTE   PATT
         POIN2  Principality_4_14
// 103   ----------------------------------------
        BYTE   PATT
         POIN2  Principality_4_15
// 104   ----------------------------------------
        BYTE   W96
// 105   ----------------------------------------
        BYTE   PATT
         POIN2  Principality_4_33
// 106   ----------------------------------------
        BYTE   W96
// 107   ----------------------------------------
        BYTE   PATT
         POIN2  Principality_4_35
// 108   ----------------------------------------
        BYTE   W96
// 109   ----------------------------------------
        BYTE   PATT
         POIN2  Principality_4_37
// 110   ----------------------------------------
        BYTE   W96
// 111   ----------------------------------------
        BYTE   PATT
         POIN2  Principality_4_39
// 112   ----------------------------------------
        BYTE   PATT
         POIN2  Principality_4_16
// 113   ----------------------------------------
        BYTE   PATT
         POIN2  Principality_4_9
// 114   ----------------------------------------
        BYTE   PATT
         POIN2  Principality_4_10
// 115   ----------------------------------------
        BYTE   PATT
         POIN2  Principality_4_11
// 116   ----------------------------------------
        BYTE   PATT
         POIN2  Principality_4_12
// 117   ----------------------------------------
        BYTE   PATT
         POIN2  Principality_4_13
// 118   ----------------------------------------
        BYTE   PATT
         POIN2  Principality_4_14
// 119   ----------------------------------------
        BYTE   PATT
         POIN2  Principality_4_15
// 120   ----------------------------------------
        BYTE           N15     En1   v108
        BYTE   W24
        BYTE           N20     En1   v104
        BYTE   W24
        BYTE           N19     En1   v100
        BYTE   W24
        BYTE           N20     En1   v096
        BYTE   W24
// 121   ----------------------------------------
        BYTE                   Bn0   v092
        BYTE   W24
        BYTE           N19     Bn0   v088
        BYTE   W24
        BYTE                   Bn1
        BYTE   W24
        BYTE           N18     Bn1   v084
        BYTE   W24
// 122   ----------------------------------------
        BYTE           N19     En1   v080
        BYTE   W24
        BYTE                   En1   v076
        BYTE   W24
        BYTE           N17     En1   v072
        BYTE   W24
        BYTE           N19     En1   v068
        BYTE   W24
// 123   ----------------------------------------
        BYTE           N18     Bn0   v064
        BYTE   W24
        BYTE                   Bn0
        BYTE   W24
        BYTE           N19     Bn1   v060
        BYTE   W24
        BYTE           N17     An1   v056
        BYTE   W24
// 124   ----------------------------------------
        BYTE           N18     En1   v052
        BYTE   W24
        BYTE           N19     En1   v048
        BYTE   W24
        BYTE           N18     En1   v044
        BYTE   W24
        BYTE           N19
        BYTE   W24
// 125   ----------------------------------------
        BYTE           N18     Bn0   v040
        BYTE   W24
        BYTE           N19     Bn0   v036
        BYTE   W24
        BYTE                   Bn1   v032
        BYTE   W24
        BYTE           N18     Bn1   v028
        BYTE   W24
// 126   ----------------------------------------
        BYTE           N19     En1   v024
        BYTE   W24
        BYTE           N20
        BYTE   W24
        BYTE           N19     En1   v020
        BYTE   W24
        BYTE                   En1   v016
        BYTE   W24
// 127   ----------------------------------------
        BYTE                   Bn0   v012
        BYTE   W24
        BYTE                   Bn0   v008
        BYTE   W24
        BYTE           N18     Bn1   v004
        BYTE   W24
        BYTE           N17     An1
        BYTE   W24
// 128   ----------------------------------------
        BYTE   GoTo
         POIN2  Principality_4_LOOP
        BYTE   FINE

//****************** Track 5 (Midi-Chn.5) ******************//

Principality_5:
        BYTE   KEYSH   Principality_key+0
// 000   ----------------------------------------
        BYTE           VOICE   45
        BYTE           VOL     56
        BYTE           PAN     c_v-12
        BYTE           N04     En3   v092
        BYTE           N03     Bn2
        BYTE           N04     En2   v084
        BYTE   W36
        BYTE           N03     En3   v080
        BYTE           N03     Bn2   v084
        BYTE           N03     En2
        BYTE   W12
        BYTE                   En3   v092
        BYTE           N03     Bn2
        BYTE           N04     En2
        BYTE   W36
        BYTE                   En3   v076
        BYTE           N03     Bn2   v084
        BYTE           N04     En2   v080
        BYTE   W12
// 001   ----------------------------------------
Principality_5_1:
        BYTE           N04     Dn3   v088
        BYTE           N03     An2   v100
        BYTE           N04     En2   v092
        BYTE   W36
        BYTE           N03     Dn3   v088
        BYTE           N03     An2   v100
        BYTE           N02     En2   v080
        BYTE   W12
        BYTE           N04     Dn3   v100
        BYTE           N03     An2   v104
        BYTE           N03     En2   v084
        BYTE   W36
        BYTE           N02     Dn3   v048
        BYTE           N03     An2   v076
        BYTE           N03     En2
        BYTE   W12
        BYTE   PEND
// 002   ----------------------------------------
Principality_5_2:
        BYTE           N03     En3   v084
        BYTE           N03     Bn2   v112
        BYTE           N04     En2   v092
        BYTE   W36
        BYTE                   En3   v084
        BYTE           N04     Bn2   v080
        BYTE           N04     En2   v076
        BYTE   W12
        BYTE           N03     En3   v084
        BYTE           N03     Bn2   v092
        BYTE           N03     En2
        BYTE   W36
        BYTE                   En3   v084
        BYTE           N03     Bn2   v088
        BYTE           N03     En2   v076
        BYTE   W12
        BYTE   PEND
// 003   ----------------------------------------
Principality_5_3:
        BYTE           N03     Dn3   v092
        BYTE           N03     An2   v104
        BYTE           N04     En2   v092
        BYTE   W36
        BYTE           N03     Dn3   v088
        BYTE           N03     An2   v096
        BYTE           N03     En2   v084
        BYTE   W12
        BYTE           N04     Dn3   v100
        BYTE           N03     An2
        BYTE           N03     En2   v092
        BYTE   W48
        BYTE   PEND
// 004   ----------------------------------------
        BYTE           N04     En3
        BYTE           N03     Bn2
        BYTE           N04     En2   v084
        BYTE   W36
        BYTE           N03     En3   v080
        BYTE           N03     Bn2   v084
        BYTE           N03     En2
        BYTE   W12
        BYTE                   En3   v092
        BYTE           N03     Bn2
        BYTE           N04     En2
        BYTE   W36
        BYTE                   En3   v076
        BYTE           N03     Bn2   v084
        BYTE           N04     En2   v080
        BYTE   W12
// 005   ----------------------------------------
        BYTE   PATT
         POIN2  Principality_5_1
// 006   ----------------------------------------
        BYTE   PATT
         POIN2  Principality_5_2
// 007   ----------------------------------------
        BYTE   PATT
         POIN2  Principality_5_3
// 008   ----------------------------------------
Principality_5_LOOP:
        BYTE           N04     En3   v092
        BYTE           N03     Bn2
        BYTE           N04     En2   v084
        BYTE   W12
        BYTE           N03     Gn2
        BYTE           N03     En2   v096
        BYTE   W24
        BYTE                   En3   v080
        BYTE           N03     Bn2   v084
        BYTE           N03     Gn2   v080
        BYTE           N03     En2
        BYTE   W12
        BYTE                   En3   v092
        BYTE           N03     Bn2
        BYTE           N04     En2
        BYTE   W12
        BYTE           N03     Gn2   v072
        BYTE           N03     En2   v080
        BYTE   W24
        BYTE           N04     En3   v076
        BYTE           N03     Bn2   v084
        BYTE           N03     Gn2   v088
        BYTE           N04     En2   v092
        BYTE   W12
// 009   ----------------------------------------
        BYTE                   Dn3   v088
        BYTE           N03     An2   v100
        BYTE           N04     En2   v092
        BYTE   W12
        BYTE           N03     Fs2   v112
        BYTE           N03     Dn2   v080
        BYTE   W24
        BYTE                   Dn3   v088
        BYTE           N03     An2   v100
        BYTE           N03     Fs2
        BYTE           N02     En2   v080
        BYTE           N03     Dn2   v076
        BYTE   W12
        BYTE           N04     Dn3   v100
        BYTE           N03     An2   v104
        BYTE           N03     En2   v084
        BYTE   W12
        BYTE           N02     Fs2   v100
        BYTE           N03     Dn2   v080
        BYTE   W24
        BYTE           N02     Dn3   v048
        BYTE           N03     An2   v076
        BYTE           N03     Fs2   v104
        BYTE           N03     En2   v076
        BYTE           N03     Dn2
        BYTE   W12
// 010   ----------------------------------------
        BYTE                   En3   v084
        BYTE           N03     Bn2   v112
        BYTE           N04     En2   v092
        BYTE   W12
        BYTE           N03     Gn2   v072
        BYTE           N03     En2   v084
        BYTE   W24
        BYTE           N04     En3
        BYTE           N04     Bn2   v080
        BYTE           N03     Gn2
        BYTE           N04     En2   v092
        BYTE   W12
        BYTE           N03     En3   v084
        BYTE           N03     Bn2   v092
        BYTE           N03     En2
        BYTE   W12
        BYTE           N02     Gn2   v072
        BYTE           N03     En2   v092
        BYTE   W24
        BYTE                   En3   v084
        BYTE           N03     Bn2   v088
        BYTE           N03     Gn2   v084
        BYTE           N03     En2   v092
        BYTE   W12
// 011   ----------------------------------------
        BYTE                   Dn3
        BYTE           N03     An2   v104
        BYTE           N04     En2   v092
        BYTE   W12
        BYTE           N03     Fs2   v096
        BYTE           N03     Dn2   v076
        BYTE   W24
        BYTE                   Dn3   v088
        BYTE           N03     An2   v096
        BYTE           N03     Fs2   v092
        BYTE           N03     En2   v084
        BYTE           N03     Dn2   v080
        BYTE   W12
        BYTE           N04     Dn3   v100
        BYTE           N03     An2
        BYTE           N03     En2   v092
        BYTE   W12
        BYTE                   Fs2   v104
        BYTE           N03     Dn2   v080
        BYTE   W24
        BYTE           N04     Fs2   v096
        BYTE           N04     Dn2   v080
        BYTE   W12
// 012   ----------------------------------------
        BYTE           N05     En4   v088
        BYTE           N04     En3
        BYTE           N03     Bn2   v092
        BYTE           N04     En2   v084
        BYTE   W12
        BYTE           N05     En4   v100
        BYTE           N03     Gn3   v080
        BYTE           N04     En3   v088
        BYTE           N03     Gn2   v080
        BYTE           N03     En2   v088
        BYTE   W12
        BYTE           N06     An4   v084
        BYTE           N04     An3   v092
        BYTE   W12
        BYTE           N05     An4   v100
        BYTE           N05     An3
        BYTE           N03     Gn3   v084
        BYTE           N03     En3   v092
        BYTE           N03     Bn2   v084
        BYTE           N03     Gn2
        BYTE           N03     En2
        BYTE   W12
        BYTE           N05     Gn4   v080
        BYTE           N05     Gn3   v096
        BYTE           N03     En3   v092
        BYTE           N03     Bn2
        BYTE           N04     En2
        BYTE   W12
        BYTE           N05     Fs4   v112
        BYTE           N03     Gn3   v084
        BYTE           N05     Fs3   v100
        BYTE           N03     En3   v092
        BYTE           N03     Gn2   v084
        BYTE           N03     En2   v092
        BYTE   W12
        BYTE           N06     En4   v104
        BYTE           N05     En3   v100
        BYTE   W12
        BYTE                   Fs4   v104
        BYTE           N03     Gn3   v080
        BYTE           N03     Fs3   v116
        BYTE           N04     En3   v088
        BYTE           N03     Bn2   v084
        BYTE           N03     Gn2   v080
        BYTE           N04     En2
        BYTE   W12
// 013   ----------------------------------------
        BYTE           N06     Gn4   v100
        BYTE           N05     Gn3   v092
        BYTE           N04     Dn3   v088
        BYTE           N03     An2   v100
        BYTE           N04     En2   v092
        BYTE   W12
        BYTE           N03     Fs4   v104
        BYTE           N04     Fs3   v100
        BYTE           N04     Dn3   v080
        BYTE           N03     Fs2   v100
        BYTE           N04     Dn2   v080
        BYTE   W12
        BYTE           N06     Dn4   v096
        BYTE           N04     Dn3   v100
        BYTE   W12
        BYTE           N05     En4   v096
        BYTE           N03     Fs3   v100
        BYTE           N04     En3   v104
        BYTE           N03     Dn3   v076
        BYTE           N03     An2   v100
        BYTE           N03     Fs2
        BYTE           N02     En2   v080
        BYTE           N03     Dn2   v076
        BYTE   W12
        BYTE           N05     En4   v104
        BYTE           N02     En3   v096
        BYTE           N04     Dn3   v100
        BYTE           N03     An2   v104
        BYTE           N03     En2   v084
        BYTE   W12
        BYTE                   Fs3   v096
        BYTE           N03     Dn3   v076
        BYTE           N03     Fs2   v096
        BYTE           N03     Dn2   v076
        BYTE   W24
        BYTE                   Fs3   v088
        BYTE           N03     Dn3   v076
        BYTE           N03     An2
        BYTE           N03     Fs2   v088
        BYTE           N03     En2   v076
        BYTE           N03     Dn2
        BYTE   W12
// 014   ----------------------------------------
        BYTE           N04     En4
        BYTE           N04     En3   v084
        BYTE           N03     Bn2   v112
        BYTE           N04     En2   v092
        BYTE   W12
        BYTE           N05     En4   v100
        BYTE           N03     Gn3   v080
        BYTE           N05     En3   v100
        BYTE           N03     Gn2   v080
        BYTE           N03     En2   v100
        BYTE   W12
        BYTE           N05     Fs4   v112
        BYTE           N03     Fs3   v120
        BYTE   W12
        BYTE           N05     Gn4   v112
        BYTE           N05     Gn3   v080
        BYTE           N04     En3   v084
        BYTE           N04     Bn2   v080
        BYTE           N03     Gn2
        BYTE           N04     En2   v076
        BYTE   W12
        BYTE           N06     An4   v108
        BYTE           N05     An3   v092
        BYTE           N03     En3   v084
        BYTE           N03     Bn2   v092
        BYTE           N03     En2
        BYTE   W12
        BYTE           N05     Gn4   v100
        BYTE           N05     Gn3   v080
        BYTE           N03     En3   v084
        BYTE           N03     Gn2   v080
        BYTE           N03     En2   v084
        BYTE   W12
        BYTE           N04     Fs4   v116
        BYTE           N04     Fs3   v112
        BYTE   W12
        BYTE           N06     En4   v092
        BYTE           N03     Gn3   v080
        BYTE           N04     En3   v088
        BYTE           N03     Bn2
        BYTE           N03     Gn2   v080
        BYTE           N04     En2   v076
        BYTE   W12
// 015   ----------------------------------------
        BYTE           N05     Gn4   v092
        BYTE           N04     Gn3
        BYTE           N03     Dn3
        BYTE           N03     An2   v104
        BYTE           N04     En2   v092
        BYTE   W12
        BYTE                   Fs4   v112
        BYTE           N04     Fs3   v096
        BYTE           N04     Dn3   v080
        BYTE           N03     Fs2   v096
        BYTE           N04     Dn2   v080
        BYTE   W12
        BYTE           N06     En4   v100
        BYTE           N05     En3   v088
        BYTE   W12
        BYTE           N06     Dn4   v096
        BYTE           N03     Fs3   v100
        BYTE           N05     Dn3   v080
        BYTE           N03     An2   v096
        BYTE           N03     Fs2   v100
        BYTE           N03     En2   v084
        BYTE           N03     Dn2   v080
        BYTE   W12
        BYTE           N06     En4   v096
        BYTE           N05     En3   v104
        BYTE           N04     Dn3   v100
        BYTE           N03     An2
        BYTE           N03     En2   v092
        BYTE   W12
        BYTE           N05     Dn4   v096
        BYTE           N03     Fs3   v100
        BYTE           N04     Dn3   v080
        BYTE           N03     Fs2   v100
        BYTE           N04     Dn2   v080
        BYTE   W06
        BYTE           N02     Dn3   v076
        BYTE   W06
        BYTE           N04     Bn3   v108
        BYTE           N04     Bn2   v092
        BYTE   W12
        BYTE           N05     Bn3   v108
        BYTE           N03     Fs3   v100
        BYTE           N03     Dn3   v080
        BYTE           N05     Bn2   v104
        BYTE           N03     Fs2   v100
        BYTE           N03     Dn2   v080
        BYTE   W12
// 016   ----------------------------------------
Principality_5_16:
        BYTE           N04     En3   v092
        BYTE           N04     En2
        BYTE   W12
        BYTE                   En3   v088
        BYTE           N03     Gn2   v080
        BYTE           N05     En2   v088
        BYTE   W12
        BYTE           N06     An3   v080
        BYTE           N04     An2   v092
        BYTE   W12
        BYTE           N07     Gn3   v084
        BYTE           N05     Gn2   v092
        BYTE           N03     En2
        BYTE   W12
        BYTE           N05     Fs3   v104
        BYTE           N04     Fs2   v112
        BYTE   W12
        BYTE           N05     En3   v096
        BYTE           N03     Gn2   v084
        BYTE           N04     En2   v092
        BYTE   W12
        BYTE           N06     Dn3   v096
        BYTE           N04     Dn2   v088
        BYTE   W12
        BYTE           N05     En3   v084
        BYTE           N03     Gn2   v080
        BYTE           N05     En2   v084
        BYTE   W12
        BYTE   PEND
// 017   ----------------------------------------
Principality_5_17:
        BYTE           N05     Dn3   v092
        BYTE           N05     Dn2   v100
        BYTE   W12
        BYTE                   Dn3   v096
        BYTE           N03     Fs2   v100
        BYTE           N05     Dn2   v084
        BYTE   W12
        BYTE                   En3   v108
        BYTE           N04     En2
        BYTE   W12
        BYTE           N05     En3
        BYTE           N03     Fs2   v088
        BYTE           N05     En2   v104
        BYTE           N03     Dn2   v072
        BYTE   W24
        BYTE                   Fs2   v096
        BYTE           N04     Dn2   v080
        BYTE   W24
        BYTE           N03     Fs2   v100
        BYTE           N03     Dn2   v076
        BYTE   W12
        BYTE   PEND
// 018   ----------------------------------------
Principality_5_18:
        BYTE           N04     En3   v096
        BYTE           N04     En2   v088
        BYTE   W12
        BYTE                   En3   v092
        BYTE           N03     Gn2   v076
        BYTE           N05     En2   v092
        BYTE   W12
        BYTE           N06     An3   v096
        BYTE           N04     An2   v100
        BYTE   W12
        BYTE           N06     Gn3   v092
        BYTE           N04     Gn2   v084
        BYTE           N03     En2   v096
        BYTE   W12
        BYTE           N04     Fs3   v116
        BYTE           N04     Fs2   v112
        BYTE   W12
        BYTE           N05     En3   v104
        BYTE           N03     Gn2   v084
        BYTE           N04     En2   v100
        BYTE   W12
        BYTE           N06     Dn3
        BYTE           N05     Dn2   v096
        BYTE   W12
        BYTE                   En3   v104
        BYTE           N03     Gn2   v092
        BYTE           N05     En2
        BYTE   W12
        BYTE   PEND
// 019   ----------------------------------------
Principality_5_19:
        BYTE           N06     Gn3   v100
        BYTE           N04     Gn2   v116
        BYTE   W12
        BYTE           N05     Fs3   v112
        BYTE           N04     Fs2   v092
        BYTE           N04     Dn2   v080
        BYTE   W12
        BYTE           N05     En3   v096
        BYTE           N04     En2   v092
        BYTE   W12
        BYTE           N06     En3   v100
        BYTE           N03     Fs2   v096
        BYTE           N05     En2   v100
        BYTE           N04     Dn2   v080
        BYTE   W24
        BYTE           N03     Fs2   v100
        BYTE           N03     Dn2   v080
        BYTE   W24
        BYTE                   Fs2   v100
        BYTE           N04     Dn2   v084
        BYTE   W12
        BYTE   PEND
// 020   ----------------------------------------
Principality_5_20:
        BYTE           N05     En3   v088
        BYTE           N03     En2
        BYTE   W12
        BYTE           N05     En3   v100
        BYTE           N03     Gn2   v080
        BYTE           N04     En2   v088
        BYTE   W12
        BYTE           N06     An3   v084
        BYTE           N04     An2   v092
        BYTE   W12
        BYTE           N05     An3   v100
        BYTE           N05     An2
        BYTE           N03     Gn2   v080
        BYTE           N03     En2   v092
        BYTE   W12
        BYTE           N05     Gn3   v080
        BYTE           N05     Gn2   v096
        BYTE   W12
        BYTE                   Fs3   v112
        BYTE           N03     Gn2   v080
        BYTE           N05     Fs2   v100
        BYTE           N03     En2   v092
        BYTE   W12
        BYTE           N06     En3   v104
        BYTE           N05     En2   v100
        BYTE   W12
        BYTE                   Fs3   v104
        BYTE           N03     Gn2   v084
        BYTE           N03     Fs2   v116
        BYTE           N03     En2   v100
        BYTE   W12
        BYTE   PEND
// 021   ----------------------------------------
Principality_5_21:
        BYTE           N06     Gn3   v100
        BYTE           N05     Gn2   v092
        BYTE   W12
        BYTE           N03     Fs3   v104
        BYTE           N04     Fs2
        BYTE           N03     Dn2   v080
        BYTE   W12
        BYTE           N06     Dn3   v096
        BYTE           N04     Dn2   v100
        BYTE   W12
        BYTE           N05     En3   v096
        BYTE           N03     Fs2   v104
        BYTE           N04     En2
        BYTE           N04     Dn2   v080
        BYTE   W12
        BYTE           N05     En3   v104
        BYTE           N02     En2   v096
        BYTE   W12
        BYTE           N03     Fs2   v104
        BYTE           N04     Dn2   v092
        BYTE   W24
        BYTE                   Fs2   v104
        BYTE           N04     Dn2   v084
        BYTE   W12
        BYTE   PEND
// 022   ----------------------------------------
Principality_5_22:
        BYTE           N04     En3   v076
        BYTE           N02     Dn3
        BYTE           N04     En2   v084
        BYTE   W12
        BYTE           N05     En3   v100
        BYTE           N04     Gn2   v080
        BYTE           N05     En2   v096
        BYTE   W12
        BYTE                   Fs3   v112
        BYTE           N03     Fs2   v120
        BYTE   W12
        BYTE           N05     Gn3   v112
        BYTE           N05     Gn2   v096
        BYTE           N03     En2   v100
        BYTE   W12
        BYTE           N06     An3   v108
        BYTE           N05     An2   v092
        BYTE   W12
        BYTE                   Gn3   v100
        BYTE           N05     Gn2   v092
        BYTE           N03     En2   v096
        BYTE   W12
        BYTE           N04     Fs3   v116
        BYTE           N04     Fs2   v112
        BYTE   W12
        BYTE           N06     En3   v092
        BYTE           N04     Gn2   v084
        BYTE           N04     En2   v092
        BYTE   W12
        BYTE   PEND
// 023   ----------------------------------------
Principality_5_23:
        BYTE           N05     Gn3   v092
        BYTE           N04     Gn2
        BYTE   W12
        BYTE                   Fs3   v112
        BYTE           N04     Fs2   v104
        BYTE           N03     Dn2   v080
        BYTE   W12
        BYTE           N06     En3   v100
        BYTE           N05     En2   v088
        BYTE   W12
        BYTE           N06     Dn3   v096
        BYTE           N04     Fs2   v112
        BYTE           N05     Dn2   v092
        BYTE   W12
        BYTE           N06     En3   v096
        BYTE           N05     En2   v104
        BYTE   W12
        BYTE                   Dn3   v096
        BYTE           N04     Fs2   v104
        BYTE           N04     Dn2   v084
        BYTE   W06
        BYTE           N02     Dn2   v076
        BYTE   W06
        BYTE           N04     Bn2   v108
        BYTE           N04     Bn1   v092
        BYTE           N03     An1   v080
        BYTE   W12
        BYTE           N05     Bn2   v108
        BYTE           N03     Fs2   v104
        BYTE           N03     Dn2   v084
        BYTE           N05     Bn1   v104
        BYTE   W12
        BYTE   PEND
// 024   ----------------------------------------
Principality_5_24:
        BYTE           N04     En3   v092
        BYTE           N04     En2
        BYTE   W12
        BYTE                   En3   v088
        BYTE           N03     Gn2   v096
        BYTE           N05     En2   v084
        BYTE   W12
        BYTE           N06     An3   v080
        BYTE           N04     An2   v092
        BYTE   W12
        BYTE           N07     Gn3   v084
        BYTE           N05     Gn2   v100
        BYTE           N04     En2   v084
        BYTE   W12
        BYTE           N05     Fs3   v104
        BYTE           N04     Fs2   v112
        BYTE   W12
        BYTE           N05     En3   v096
        BYTE           N03     Gn2
        BYTE           N04     En2   v092
        BYTE   W12
        BYTE           N06     Dn3   v096
        BYTE           N04     Dn2   v088
        BYTE   W12
        BYTE           N05     En3   v084
        BYTE           N03     Gn2   v092
        BYTE           N05     En2   v084
        BYTE   W12
        BYTE   PEND
// 025   ----------------------------------------
Principality_5_25:
        BYTE           N05     Dn3   v092
        BYTE           N05     Dn2   v100
        BYTE   W12
        BYTE                   Dn3   v096
        BYTE           N04     Fs2   v100
        BYTE           N05     Dn2   v080
        BYTE   W12
        BYTE                   En3   v108
        BYTE           N04     En2
        BYTE   W12
        BYTE           N05     En3
        BYTE           N04     Fs2   v104
        BYTE           N05     En2
        BYTE           N04     Dn2   v084
        BYTE   W24
        BYTE                   Fs2   v104
        BYTE           N03     Dn2   v076
        BYTE   W24
        BYTE           N04     Fs2   v096
        BYTE           N03     Dn2   v080
        BYTE   W12
        BYTE   PEND
// 026   ----------------------------------------
Principality_5_26:
        BYTE           N04     En3   v096
        BYTE           N04     En2   v088
        BYTE   W12
        BYTE                   En3   v092
        BYTE           N04     Gn2   v096
        BYTE           N05     En2   v084
        BYTE   W12
        BYTE           N06     An3   v096
        BYTE           N04     An2   v100
        BYTE   W12
        BYTE           N06     Gn3   v092
        BYTE           N04     Gn2
        BYTE           N05     En2   v084
        BYTE   W12
        BYTE           N04     Fs3   v116
        BYTE           N04     Fs2   v112
        BYTE   W12
        BYTE           N05     En3   v104
        BYTE           N04     Gn2   v088
        BYTE           N04     En2   v080
        BYTE   W12
        BYTE           N06     Dn3   v100
        BYTE           N05     Dn2   v096
        BYTE   W12
        BYTE                   En3   v104
        BYTE           N04     Gn2   v084
        BYTE           N05     En2
        BYTE   W12
        BYTE   PEND
// 027   ----------------------------------------
Principality_5_27:
        BYTE           N06     Gn3   v100
        BYTE           N04     Gn2   v116
        BYTE   W12
        BYTE           N05     Fs3   v112
        BYTE           N04     Fs2   v092
        BYTE           N04     Dn2   v080
        BYTE   W12
        BYTE           N05     En3   v096
        BYTE           N04     En2   v092
        BYTE   W12
        BYTE           N06     En3   v100
        BYTE           N03     Fs2
        BYTE           N05     En2
        BYTE           N04     Dn2   v084
        BYTE   W24
        BYTE                   Fs2   v112
        BYTE           N03     Dn2   v080
        BYTE   W24
        BYTE           N04     Fs2   v096
        BYTE           N03     Dn2   v080
        BYTE   W12
        BYTE   PEND
// 028   ----------------------------------------
Principality_5_28:
        BYTE           N05     En3   v088
        BYTE           N03     En2
        BYTE   W12
        BYTE           N05     En3   v100
        BYTE           N04     Gn2   v092
        BYTE           N04     En2   v084
        BYTE   W12
        BYTE           N06     An3
        BYTE           N04     An2   v092
        BYTE   W12
        BYTE           N05     An3   v100
        BYTE           N05     An2
        BYTE           N04     Gn2   v092
        BYTE           N04     En2   v080
        BYTE   W12
        BYTE           N05     Gn3
        BYTE           N05     Gn2   v096
        BYTE   W12
        BYTE                   Fs3   v112
        BYTE           N04     Bn2   v080
        BYTE           N04     Gn2   v096
        BYTE           N05     Fs2   v100
        BYTE   W12
        BYTE           N06     En3   v104
        BYTE           N05     En2   v100
        BYTE   W12
        BYTE                   Fs3   v104
        BYTE           N05     Bn2   v092
        BYTE           N04     Gn2   v096
        BYTE           N03     Fs2   v116
        BYTE   W12
        BYTE   PEND
// 029   ----------------------------------------
Principality_5_29:
        BYTE           N06     Gn3   v100
        BYTE           N05     Gn2   v092
        BYTE   W12
        BYTE           N03     Fs3   v104
        BYTE           N04     Fs2
        BYTE           N04     Dn2   v060
        BYTE   W12
        BYTE           N06     Dn3   v096
        BYTE           N04     Dn2   v100
        BYTE   W12
        BYTE           N05     En3   v096
        BYTE           N04     Fs2   v112
        BYTE           N04     En2   v104
        BYTE           N04     Dn2   v084
        BYTE   W12
        BYTE           N05     En3   v104
        BYTE           N02     En2   v096
        BYTE   W12
        BYTE           N04     Fs2   v112
        BYTE           N03     Dn2   v084
        BYTE   W24
        BYTE           N04     Fs2   v104
        BYTE           N04     Dn2   v092
        BYTE   W12
        BYTE   PEND
// 030   ----------------------------------------
Principality_5_30:
        BYTE           N04     En3   v076
        BYTE           N02     Dn3
        BYTE           N04     En2   v084
        BYTE   W12
        BYTE           N05     En3   v100
        BYTE           N04     Gn2   v092
        BYTE           N05     En2   v080
        BYTE   W12
        BYTE                   Fs3   v112
        BYTE           N03     Fs2   v120
        BYTE   W12
        BYTE           N05     Gn3   v112
        BYTE           N05     Gn2   v100
        BYTE           N04     En2   v080
        BYTE   W12
        BYTE           N06     An3   v108
        BYTE           N05     An2   v092
        BYTE   W12
        BYTE                   Gn3   v100
        BYTE           N04     Bn2   v088
        BYTE           N05     Gn2   v096
        BYTE   W12
        BYTE           N04     Fs3   v116
        BYTE           N04     Fs2   v112
        BYTE   W12
        BYTE           N06     En3   v092
        BYTE           N04     Bn2   v088
        BYTE           N04     Gn2   v092
        BYTE           N04     En2   v100
        BYTE   W12
        BYTE   PEND
// 031   ----------------------------------------
Principality_5_31:
        BYTE           N05     Gn3   v092
        BYTE           N04     Gn2
        BYTE   W12
        BYTE                   Fs3   v112
        BYTE           N04     Fs2   v104
        BYTE           N03     Dn2   v084
        BYTE   W12
        BYTE           N06     En3   v100
        BYTE           N05     En2   v088
        BYTE   W12
        BYTE           N06     Dn3   v096
        BYTE           N04     Fs2   v112
        BYTE           N05     Dn2   v092
        BYTE   W12
        BYTE           N06     En3   v096
        BYTE           N05     En2   v104
        BYTE   W12
        BYTE                   Dn3   v096
        BYTE           N04     Fs2   v112
        BYTE           N04     Dn2   v096
        BYTE   W06
        BYTE           N02     Dn2   v076
        BYTE   W06
        BYTE           N04     Bn2   v108
        BYTE           N04     Bn1   v092
        BYTE           N03     An1   v080
        BYTE   W12
        BYTE           N05     Bn2   v108
        BYTE           N03     Fs2   v112
        BYTE           N03     Dn2   v092
        BYTE           N05     Bn1   v104
        BYTE   W12
        BYTE   PEND
// 032   ----------------------------------------
        BYTE   W96
// 033   ----------------------------------------
Principality_5_33:
        BYTE   W48
        BYTE           N05     En3   v096
        BYTE   W12
        BYTE           N08     An3   v088
        BYTE   W12
        BYTE           N07     Dn4
        BYTE   W12
        BYTE           N08     En4   v092
        BYTE   W12
        BYTE   PEND
// 034   ----------------------------------------
        BYTE   W96
// 035   ----------------------------------------
Principality_5_35:
        BYTE   W48
        BYTE           N06     En3   v076
        BYTE   W12
        BYTE           N08     An3   v080
        BYTE   W12
        BYTE           N06     Bn3   v084
        BYTE   W12
        BYTE           N07     En4   v100
        BYTE   W12
        BYTE   PEND
// 036   ----------------------------------------
        BYTE   W96
// 037   ----------------------------------------
Principality_5_37:
        BYTE   W48
        BYTE           N06     En3   v076
        BYTE   W12
        BYTE           N08     An3   v080
        BYTE   W12
        BYTE           N06     Dn4   v092
        BYTE   W12
        BYTE           N09     En4   v080
        BYTE   W12
        BYTE   PEND
// 038   ----------------------------------------
        BYTE   W96
// 039   ----------------------------------------
Principality_5_39:
        BYTE   W48
        BYTE           N06     En3   v092
        BYTE   W12
        BYTE           N07     An3   v080
        BYTE   W12
        BYTE           N06     Bn3   v096
        BYTE   W12
        BYTE                   En4   v112
        BYTE   W12
        BYTE   PEND
// 040   ----------------------------------------
        BYTE   PATT
         POIN2  Principality_5_16
// 041   ----------------------------------------
        BYTE   PATT
         POIN2  Principality_5_17
// 042   ----------------------------------------
        BYTE   PATT
         POIN2  Principality_5_18
// 043   ----------------------------------------
        BYTE   PATT
         POIN2  Principality_5_19
// 044   ----------------------------------------
        BYTE   PATT
         POIN2  Principality_5_20
// 045   ----------------------------------------
        BYTE   PATT
         POIN2  Principality_5_21
// 046   ----------------------------------------
        BYTE   PATT
         POIN2  Principality_5_22
// 047   ----------------------------------------
        BYTE   PATT
         POIN2  Principality_5_23
// 048   ----------------------------------------
        BYTE   PATT
         POIN2  Principality_5_24
// 049   ----------------------------------------
        BYTE   PATT
         POIN2  Principality_5_25
// 050   ----------------------------------------
        BYTE   PATT
         POIN2  Principality_5_26
// 051   ----------------------------------------
        BYTE   PATT
         POIN2  Principality_5_27
// 052   ----------------------------------------
        BYTE   PATT
         POIN2  Principality_5_28
// 053   ----------------------------------------
        BYTE   PATT
         POIN2  Principality_5_29
// 054   ----------------------------------------
        BYTE   PATT
         POIN2  Principality_5_30
// 055   ----------------------------------------
        BYTE   PATT
         POIN2  Principality_5_31
// 056   ----------------------------------------
        BYTE   PATT
         POIN2  Principality_5_24
// 057   ----------------------------------------
        BYTE   PATT
         POIN2  Principality_5_25
// 058   ----------------------------------------
        BYTE   PATT
         POIN2  Principality_5_26
// 059   ----------------------------------------
        BYTE   PATT
         POIN2  Principality_5_27
// 060   ----------------------------------------
        BYTE   PATT
         POIN2  Principality_5_28
// 061   ----------------------------------------
        BYTE   PATT
         POIN2  Principality_5_29
// 062   ----------------------------------------
        BYTE   PATT
         POIN2  Principality_5_30
// 063   ----------------------------------------
        BYTE   PATT
         POIN2  Principality_5_31
// 064   ----------------------------------------
        BYTE   W96
// 065   ----------------------------------------
        BYTE   PATT
         POIN2  Principality_5_33
// 066   ----------------------------------------
        BYTE   W96
// 067   ----------------------------------------
        BYTE   PATT
         POIN2  Principality_5_35
// 068   ----------------------------------------
        BYTE   W96
// 069   ----------------------------------------
        BYTE   PATT
         POIN2  Principality_5_37
// 070   ----------------------------------------
        BYTE   W96
// 071   ----------------------------------------
        BYTE   PATT
         POIN2  Principality_5_39
// 072   ----------------------------------------
Principality_5_72:
        BYTE   W12
        BYTE           N02     En3   v100
        BYTE           N03     Bn2
        BYTE   W06
        BYTE           N02     En3   v088
        BYTE           N03     Bn2   v100
        BYTE   W06
        BYTE           N05     En3   v104
        BYTE           N04     Bn2   v108
        BYTE   W72
        BYTE   PEND
// 073   ----------------------------------------
Principality_5_73:
        BYTE   W12
        BYTE           N02     Dn3   v112
        BYTE           N02     An2   v084
        BYTE   W06
        BYTE           N03     Dn3   v092
        BYTE           N03     An2   v096
        BYTE   W06
        BYTE           N06     Dn3   v104
        BYTE           N05     An2   v100
        BYTE   W72
        BYTE   PEND
// 074   ----------------------------------------
Principality_5_74:
        BYTE   W12
        BYTE           N02     En3   v100
        BYTE           N02     Bn2   v104
        BYTE   W06
        BYTE                   En3   v084
        BYTE           N02     Bn2   v088
        BYTE   W06
        BYTE           N05     En3   v100
        BYTE           N04     Bn2   v092
        BYTE   W72
        BYTE   PEND
// 075   ----------------------------------------
Principality_5_75:
        BYTE   W12
        BYTE           N02     Dn3   v112
        BYTE           N03     An2   v108
        BYTE   W06
        BYTE                   Dn3   v084
        BYTE           N03     An2   v088
        BYTE   W06
        BYTE           N06     Dn3   v092
        BYTE           N04     An2   v096
        BYTE   W72
        BYTE   PEND
// 076   ----------------------------------------
        BYTE   PATT
         POIN2  Principality_5_72
// 077   ----------------------------------------
        BYTE   PATT
         POIN2  Principality_5_73
// 078   ----------------------------------------
        BYTE   PATT
         POIN2  Principality_5_74
// 079   ----------------------------------------
        BYTE   PATT
         POIN2  Principality_5_75
// 080   ----------------------------------------
        BYTE   PATT
         POIN2  Principality_5_72
// 081   ----------------------------------------
        BYTE   PATT
         POIN2  Principality_5_73
// 082   ----------------------------------------
        BYTE   PATT
         POIN2  Principality_5_74
// 083   ----------------------------------------
        BYTE   PATT
         POIN2  Principality_5_75
// 084   ----------------------------------------
        BYTE   PATT
         POIN2  Principality_5_72
// 085   ----------------------------------------
        BYTE   PATT
         POIN2  Principality_5_73
// 086   ----------------------------------------
        BYTE   PATT
         POIN2  Principality_5_74
// 087   ----------------------------------------
        BYTE   PATT
         POIN2  Principality_5_75
// 088   ----------------------------------------
        BYTE   PATT
         POIN2  Principality_5_24
// 089   ----------------------------------------
        BYTE   PATT
         POIN2  Principality_5_25
// 090   ----------------------------------------
        BYTE   PATT
         POIN2  Principality_5_26
// 091   ----------------------------------------
        BYTE   PATT
         POIN2  Principality_5_27
// 092   ----------------------------------------
        BYTE   PATT
         POIN2  Principality_5_28
// 093   ----------------------------------------
        BYTE   PATT
         POIN2  Principality_5_29
// 094   ----------------------------------------
        BYTE   PATT
         POIN2  Principality_5_30
// 095   ----------------------------------------
        BYTE   PATT
         POIN2  Principality_5_31
// 096   ----------------------------------------
        BYTE   PATT
         POIN2  Principality_5_24
// 097   ----------------------------------------
        BYTE   PATT
         POIN2  Principality_5_25
// 098   ----------------------------------------
        BYTE   PATT
         POIN2  Principality_5_26
// 099   ----------------------------------------
        BYTE   PATT
         POIN2  Principality_5_27
// 100   ----------------------------------------
        BYTE   PATT
         POIN2  Principality_5_28
// 101   ----------------------------------------
        BYTE   PATT
         POIN2  Principality_5_29
// 102   ----------------------------------------
        BYTE   PATT
         POIN2  Principality_5_30
// 103   ----------------------------------------
        BYTE   PATT
         POIN2  Principality_5_31
// 104   ----------------------------------------
        BYTE   W96
// 105   ----------------------------------------
        BYTE   PATT
         POIN2  Principality_5_33
// 106   ----------------------------------------
        BYTE   W96
// 107   ----------------------------------------
        BYTE   PATT
         POIN2  Principality_5_35
// 108   ----------------------------------------
        BYTE   W96
// 109   ----------------------------------------
        BYTE   PATT
         POIN2  Principality_5_37
// 110   ----------------------------------------
        BYTE   W96
// 111   ----------------------------------------
        BYTE   PATT
         POIN2  Principality_5_39
// 112   ----------------------------------------
        BYTE   PATT
         POIN2  Principality_5_16
// 113   ----------------------------------------
        BYTE   PATT
         POIN2  Principality_5_17
// 114   ----------------------------------------
        BYTE   PATT
         POIN2  Principality_5_18
// 115   ----------------------------------------
        BYTE   PATT
         POIN2  Principality_5_19
// 116   ----------------------------------------
        BYTE   PATT
         POIN2  Principality_5_20
// 117   ----------------------------------------
        BYTE   PATT
         POIN2  Principality_5_21
// 118   ----------------------------------------
        BYTE   PATT
         POIN2  Principality_5_22
// 119   ----------------------------------------
        BYTE   PATT
         POIN2  Principality_5_23
// 120   ----------------------------------------
        BYTE           N04     En3   v100
        BYTE           N04     En2
        BYTE           N04     En3   v092
        BYTE           N03     Bn2
        BYTE           N04     En2   v084
        BYTE   W12
        BYTE                   En3   v100
        BYTE           N03     Gn2
        BYTE           N05     En2
        BYTE   W12
        BYTE           N06     An3   v096
        BYTE           N04     An2
        BYTE   W12
        BYTE           N07     Gn3
        BYTE           N05     Gn2
        BYTE           N03     En2
        BYTE           N03     En3   v080
        BYTE           N03     Bn2   v084
        BYTE           N03     En2
        BYTE   W12
        BYTE           N05     Fs3   v092
        BYTE           N04     Fs2
        BYTE           N03     En3
        BYTE           N03     Bn2
        BYTE           N04     En2
        BYTE   W12
        BYTE           N05     En3
        BYTE           N03     Gn2
        BYTE           N04     En2
        BYTE   W12
        BYTE           N06     Dn3
        BYTE           N04     Dn2
        BYTE   W12
        BYTE                   En3   v088
        BYTE           N03     Gn2
        BYTE           N04     En2
        BYTE           N05     En3   v076
        BYTE           N03     Bn2   v084
        BYTE           N05     En2   v080
        BYTE   W12
// 121   ----------------------------------------
        BYTE           N04     Dn3   v088
        BYTE           N05     Dn2
        BYTE           N05     Dn3
        BYTE           N03     An2   v100
        BYTE           N04     En2   v092
        BYTE   W12
        BYTE           N05     Dn3   v088
        BYTE           N03     Fs2
        BYTE           N05     Dn2
        BYTE   W12
        BYTE                   En3   v084
        BYTE           N04     En2
        BYTE   W12
        BYTE           N05     En3
        BYTE           N03     Fs2
        BYTE           N02     En2
        BYTE           N03     Dn2
        BYTE           N03     Dn3   v088
        BYTE           N03     An2   v100
        BYTE           N05     En2   v080
        BYTE   W12
        BYTE           N04     Dn3   v100
        BYTE           N03     An2   v104
        BYTE           N03     En2   v084
        BYTE   W12
        BYTE                   Fs2   v080
        BYTE           N04     Dn2
        BYTE   W24
        BYTE           N03     Fs2   v076
        BYTE           N03     Dn2
        BYTE           N02     Dn3   v048
        BYTE           N03     An2   v076
        BYTE           N03     En2
        BYTE   W12
// 122   ----------------------------------------
        BYTE                   En3
        BYTE           N04     En2
        BYTE           N04     En3   v084
        BYTE           N03     Bn2   v112
        BYTE           N04     En2   v092
        BYTE   W12
        BYTE                   En3   v072
        BYTE           N03     Gn2
        BYTE           N05     En2
        BYTE   W12
        BYTE           N06     An3
        BYTE           N04     An2
        BYTE   W12
        BYTE           N06     Gn3
        BYTE           N04     Gn2
        BYTE           N03     En2
        BYTE           N04     En3   v084
        BYTE           N04     Bn2   v080
        BYTE           N04     En2   v076
        BYTE   W12
        BYTE                   Fs3   v068
        BYTE           N04     Fs2
        BYTE           N03     En3   v084
        BYTE           N03     Bn2   v092
        BYTE           N03     En2
        BYTE   W12
        BYTE           N05     En3   v068
        BYTE           N03     Gn2
        BYTE           N04     En2
        BYTE   W12
        BYTE           N06     Dn3   v064
        BYTE           N05     Dn2
        BYTE   W12
        BYTE           N03     En3
        BYTE           N03     Gn2
        BYTE           N03     En2
        BYTE           N05     En3   v084
        BYTE           N03     Bn2   v088
        BYTE           N05     En2   v076
        BYTE   W12
// 123   ----------------------------------------
        BYTE           N06     Gn3   v064
        BYTE           N04     Gn2
        BYTE           N03     Dn3   v092
        BYTE           N03     An2   v104
        BYTE           N04     En2   v092
        BYTE   W12
        BYTE           N05     Fs3   v060
        BYTE           N04     Fs2
        BYTE           N04     Dn2
        BYTE   W12
        BYTE           N05     En3
        BYTE           N04     En2
        BYTE   W12
        BYTE           N06     En3
        BYTE           N03     Fs2
        BYTE           N03     En2
        BYTE           N04     Dn2
        BYTE           N03     Dn3   v088
        BYTE           N03     An2   v096
        BYTE           N05     En2   v084
        BYTE   W12
        BYTE           N04     Dn3   v100
        BYTE           N03     An2
        BYTE           N03     En2   v092
        BYTE   W12
        BYTE                   Fs2   v056
        BYTE           N03     Dn2
        BYTE   W24
        BYTE                   Fs2   v052
        BYTE           N04     Dn2
        BYTE   W12
// 124   ----------------------------------------
        BYTE                   En3
        BYTE           N03     En2
        BYTE           N05     En3   v092
        BYTE           N03     Bn2
        BYTE           N04     En2   v084
        BYTE   W12
        BYTE           N05     En3   v048
        BYTE           N03     Gn2
        BYTE           N04     En2
        BYTE   W12
        BYTE           N06     An3
        BYTE           N04     An2
        BYTE   W12
        BYTE           N05     An3   v044
        BYTE           N05     An2
        BYTE           N03     Gn2
        BYTE           N03     En2
        BYTE           N03     En3   v080
        BYTE           N03     Bn2   v084
        BYTE           N03     En2
        BYTE   W12
        BYTE           N05     Gn3   v044
        BYTE           N05     Gn2
        BYTE           N03     En3   v092
        BYTE           N03     Bn2
        BYTE           N04     En2
        BYTE   W12
        BYTE           N05     Fs3   v044
        BYTE           N03     Gn2
        BYTE           N05     Fs2
        BYTE           N03     En2
        BYTE   W12
        BYTE           N06     En3   v040
        BYTE           N05     En2
        BYTE   W12
        BYTE                   Fs3
        BYTE           N03     Gn2
        BYTE           N03     Fs2
        BYTE           N03     En2
        BYTE           N04     En3   v076
        BYTE           N03     Bn2   v084
        BYTE           N04     En2   v080
        BYTE   W12
// 125   ----------------------------------------
        BYTE           N06     Gn3   v036
        BYTE           N05     Gn2
        BYTE           N04     Dn3   v088
        BYTE           N03     An2   v100
        BYTE           N04     En2   v092
        BYTE   W12
        BYTE           N03     Fs3   v036
        BYTE           N04     Fs2
        BYTE           N03     Dn2
        BYTE   W12
        BYTE           N06     Dn3
        BYTE           N04     Dn2
        BYTE   W12
        BYTE           N05     En3   v032
        BYTE           N03     Fs2
        BYTE           N02     En2
        BYTE           N04     Dn2
        BYTE           N03     Dn3   v088
        BYTE           N03     An2   v100
        BYTE           N04     En2   v080
        BYTE   W12
        BYTE           N05     En3   v032
        BYTE           N02     En2
        BYTE           N04     Dn3   v100
        BYTE           N03     An2   v104
        BYTE           N03     En2   v084
        BYTE   W12
        BYTE                   Fs2   v032
        BYTE           N04     Dn2
        BYTE   W24
        BYTE                   Fs2   v028
        BYTE           N04     Dn2
        BYTE           N02     Dn3   v048
        BYTE           N03     An2   v076
        BYTE           N03     En2
        BYTE   W12
// 126   ----------------------------------------
        BYTE                   En3   v024
        BYTE           N02     Dn3
        BYTE           N04     En2
        BYTE           N04     En3   v084
        BYTE           N03     Bn2   v112
        BYTE           N04     En2   v092
        BYTE   W12
        BYTE           N05     En3   v024
        BYTE           N04     Gn2
        BYTE           N05     En2
        BYTE   W12
        BYTE                   Fs3
        BYTE           N03     Fs2
        BYTE   W12
        BYTE           N05     Gn3   v020
        BYTE           N05     Gn2
        BYTE           N03     En2
        BYTE           N04     En3   v084
        BYTE           N04     Bn2   v080
        BYTE           N04     En2   v076
        BYTE   W12
        BYTE           N06     An3   v020
        BYTE           N05     An2
        BYTE           N03     En3   v084
        BYTE           N03     Bn2   v092
        BYTE           N03     En2
        BYTE   W12
        BYTE           N05     Gn3   v016
        BYTE           N05     Gn2
        BYTE           N03     En2
        BYTE   W12
        BYTE           N04     Fs3
        BYTE           N04     Fs2
        BYTE   W12
        BYTE           N03     En3
        BYTE           N04     Gn2
        BYTE           N03     En2
        BYTE           N06     En3   v084
        BYTE           N03     Bn2   v088
        BYTE           N04     En2   v076
        BYTE   W12
// 127   ----------------------------------------
        BYTE           N05     Gn3   v012
        BYTE           N04     Gn2
        BYTE           N03     Dn3   v092
        BYTE           N03     An2   v104
        BYTE           N04     En2   v092
        BYTE   W12
        BYTE                   Fs3   v012
        BYTE           N04     Fs2
        BYTE           N03     Dn2
        BYTE   W12
        BYTE           N06     En3
        BYTE           N05     En2
        BYTE   W12
        BYTE           N03     Dn3   v008
        BYTE           N04     Fs2
        BYTE           N05     Dn2
        BYTE           N06     Dn3   v088
        BYTE           N03     An2   v096
        BYTE           N03     En2   v084
        BYTE   W12
        BYTE           N06     En3   v008
        BYTE           N03     En2
        BYTE           N04     Dn3   v100
        BYTE           N03     An2
        BYTE           N05     En2   v092
        BYTE   W12
        BYTE                   Dn3   v004
        BYTE           N04     Fs2
        BYTE           N04     Dn2
        BYTE   W06
        BYTE           N02
        BYTE   W06
        BYTE           N04     Bn2
        BYTE           N04     Bn1
        BYTE           N03     An1
        BYTE   W12
        BYTE           N05     Bn2
        BYTE           N03     Fs2
        BYTE           N03     Dn2
        BYTE           N05     Bn1
        BYTE   W12
// 128   ----------------------------------------
        BYTE   GoTo
         POIN2  Principality_5_LOOP
        BYTE   FINE

//****************** Track 6 (Midi-Chn.6) ******************//

Principality_6:
        BYTE   KEYSH   Principality_key+0
// 000   ----------------------------------------
        BYTE           VOICE   57
        BYTE           VOL     73
        BYTE           PAN     c_v+15
        BYTE   W96
// 001   ----------------------------------------
        BYTE   W96
// 002   ----------------------------------------
        BYTE   W96
// 003   ----------------------------------------
        BYTE   W96
// 004   ----------------------------------------
        BYTE   W96
// 005   ----------------------------------------
        BYTE   W96
// 006   ----------------------------------------
        BYTE   W96
// 007   ----------------------------------------
        BYTE   W96
// 008   ----------------------------------------
Principality_6_LOOP:
        BYTE   W96
// 009   ----------------------------------------
        BYTE   W96
// 010   ----------------------------------------
        BYTE   W96
// 011   ----------------------------------------
        BYTE   W96
// 012   ----------------------------------------
        BYTE   W96
// 013   ----------------------------------------
        BYTE   W96
// 014   ----------------------------------------
        BYTE   W96
// 015   ----------------------------------------
        BYTE   W96
// 016   ----------------------------------------
        BYTE   W96
// 017   ----------------------------------------
        BYTE   W96
// 018   ----------------------------------------
        BYTE   W96
// 019   ----------------------------------------
Principality_6_19:
        BYTE   W12
        BYTE           N05     En2   v092
        BYTE   W06
        BYTE           N07     Fs2   v088
        BYTE   W06
        BYTE           N05     Gn2   v076
        BYTE   W06
        BYTE           N08     An2   v084
        BYTE   W06
        BYTE           N04     Gn2   v100
        BYTE   W06
        BYTE           N05     Fs2   v108
        BYTE   W06
        BYTE                   En2   v092
        BYTE   W12
        BYTE           N04     En2   v100
        BYTE   W12
        BYTE           N17     En2   v104
        BYTE   W01
        BYTE           BEND    c_v-17
        BYTE   W01
        BYTE                   c_v-25
        BYTE   W01
        BYTE                   c_v-36
        BYTE   W01
        BYTE                   c_v-40
        BYTE   W01
        BYTE                   c_v-42
        BYTE   W06
        BYTE                   c_v-31
        BYTE   W01
        BYTE                   c_v-21
        BYTE   W01
        BYTE                   c_v+0
        BYTE   W11
        BYTE   PEND
// 020   ----------------------------------------
        BYTE   W96
// 021   ----------------------------------------
        BYTE   W96
// 022   ----------------------------------------
        BYTE   W96
// 023   ----------------------------------------
        BYTE   W96
// 024   ----------------------------------------
        BYTE   W96
// 025   ----------------------------------------
        BYTE   W96
// 026   ----------------------------------------
        BYTE   W96
// 027   ----------------------------------------
        BYTE   W96
// 028   ----------------------------------------
        BYTE   W96
// 029   ----------------------------------------
        BYTE   W96
// 030   ----------------------------------------
        BYTE   W96
// 031   ----------------------------------------
        BYTE   W96
// 032   ----------------------------------------
        BYTE   W96
// 033   ----------------------------------------
        BYTE   W96
// 034   ----------------------------------------
        BYTE   W96
// 035   ----------------------------------------
        BYTE   W96
// 036   ----------------------------------------
        BYTE   W96
// 037   ----------------------------------------
        BYTE   W96
// 038   ----------------------------------------
        BYTE   W96
// 039   ----------------------------------------
        BYTE   W96
// 040   ----------------------------------------
        BYTE   W96
// 041   ----------------------------------------
        BYTE   W96
// 042   ----------------------------------------
        BYTE   W96
// 043   ----------------------------------------
        BYTE   PATT
         POIN2  Principality_6_19
// 044   ----------------------------------------
        BYTE   W96
// 045   ----------------------------------------
        BYTE   W96
// 046   ----------------------------------------
        BYTE   W96
// 047   ----------------------------------------
        BYTE   W96
// 048   ----------------------------------------
        BYTE   W96
// 049   ----------------------------------------
        BYTE   W96
// 050   ----------------------------------------
        BYTE   W96
// 051   ----------------------------------------
        BYTE   W96
// 052   ----------------------------------------
        BYTE   W96
// 053   ----------------------------------------
        BYTE   W96
// 054   ----------------------------------------
        BYTE   W96
// 055   ----------------------------------------
        BYTE   W96
// 056   ----------------------------------------
        BYTE   W96
// 057   ----------------------------------------
        BYTE   W96
// 058   ----------------------------------------
        BYTE   W96
// 059   ----------------------------------------
        BYTE   W96
// 060   ----------------------------------------
        BYTE   W96
// 061   ----------------------------------------
        BYTE   W96
// 062   ----------------------------------------
        BYTE   W96
// 063   ----------------------------------------
        BYTE   W96
// 064   ----------------------------------------
        BYTE   W96
// 065   ----------------------------------------
        BYTE   W96
// 066   ----------------------------------------
        BYTE   W96
// 067   ----------------------------------------
        BYTE   W96
// 068   ----------------------------------------
        BYTE   W96
// 069   ----------------------------------------
        BYTE   W96
// 070   ----------------------------------------
        BYTE   W96
// 071   ----------------------------------------
        BYTE   W96
// 072   ----------------------------------------
        BYTE   W96
// 073   ----------------------------------------
        BYTE   W96
// 074   ----------------------------------------
        BYTE   W96
// 075   ----------------------------------------
        BYTE   W96
// 076   ----------------------------------------
        BYTE   W96
// 077   ----------------------------------------
        BYTE   W96
// 078   ----------------------------------------
        BYTE   W96
// 079   ----------------------------------------
        BYTE   W96
// 080   ----------------------------------------
        BYTE   PATT
         POIN2  Principality_1_80
// 081   ----------------------------------------
        BYTE   PATT
         POIN2  Principality_1_81
// 082   ----------------------------------------
        BYTE   W96
// 083   ----------------------------------------
        BYTE   W96
// 084   ----------------------------------------
        BYTE   PATT
         POIN2  Principality_1_80
// 085   ----------------------------------------
        BYTE   PATT
         POIN2  Principality_1_81
// 086   ----------------------------------------
        BYTE   W96
// 087   ----------------------------------------
        BYTE   W96
// 088   ----------------------------------------
        BYTE   W96
// 089   ----------------------------------------
        BYTE   W96
// 090   ----------------------------------------
        BYTE   W96
// 091   ----------------------------------------
        BYTE   W96
// 092   ----------------------------------------
        BYTE   W96
// 093   ----------------------------------------
        BYTE   W96
// 094   ----------------------------------------
        BYTE   W96
// 095   ----------------------------------------
        BYTE   W96
// 096   ----------------------------------------
        BYTE   W96
// 097   ----------------------------------------
        BYTE   W96
// 098   ----------------------------------------
        BYTE   W96
// 099   ----------------------------------------
        BYTE   W96
// 100   ----------------------------------------
        BYTE   W96
// 101   ----------------------------------------
        BYTE   W96
// 102   ----------------------------------------
        BYTE   W96
// 103   ----------------------------------------
        BYTE   W96
// 104   ----------------------------------------
        BYTE   W96
// 105   ----------------------------------------
        BYTE   W96
// 106   ----------------------------------------
        BYTE   W96
// 107   ----------------------------------------
        BYTE   W96
// 108   ----------------------------------------
        BYTE   W96
// 109   ----------------------------------------
        BYTE   W96
// 110   ----------------------------------------
        BYTE   W96
// 111   ----------------------------------------
        BYTE   W96
// 112   ----------------------------------------
        BYTE   W96
// 113   ----------------------------------------
        BYTE   W96
// 114   ----------------------------------------
        BYTE   W96
// 115   ----------------------------------------
        BYTE   PATT
         POIN2  Principality_6_19
// 116   ----------------------------------------
        BYTE   W96
// 117   ----------------------------------------
        BYTE   W96
// 118   ----------------------------------------
        BYTE   W96
// 119   ----------------------------------------
        BYTE   W96
// 120   ----------------------------------------
        BYTE   W96
// 121   ----------------------------------------
        BYTE   W96
// 122   ----------------------------------------
        BYTE   W96
// 123   ----------------------------------------
        BYTE   W12
        BYTE           N05     En2   v084
        BYTE   W06
        BYTE           N07     Fs2   v080
        BYTE   W06
        BYTE           N05     Gn2
        BYTE   W06
        BYTE           N08     An2   v076
        BYTE   W06
        BYTE           N04     Gn2   v072
        BYTE   W06
        BYTE           N05     Fs2
        BYTE   W06
        BYTE                   En2   v068
        BYTE   W12
        BYTE           N04     En2   v064
        BYTE   W12
        BYTE           N17     En2   v056
        BYTE   W01
        BYTE           BEND    c_v-17
        BYTE   W01
        BYTE                   c_v-25
        BYTE   W01
        BYTE                   c_v-36
        BYTE   W01
        BYTE                   c_v-40
        BYTE   W01
        BYTE                   c_v-42
        BYTE   W06
        BYTE                   c_v-31
        BYTE   W01
        BYTE                   c_v-21
        BYTE   W01
        BYTE                   c_v+0
        BYTE   W11
// 124   ----------------------------------------
        BYTE   W96
// 125   ----------------------------------------
        BYTE   W96
// 126   ----------------------------------------
        BYTE   W96
// 127   ----------------------------------------
        BYTE   W96
// 128   ----------------------------------------
        BYTE   GoTo
         POIN2  Principality_6_LOOP
        BYTE   FINE

//****************** Track 7 (Midi-Chn.7) ******************//

Principality_7:
        BYTE   KEYSH   Principality_key+0
// 000   ----------------------------------------
        BYTE           VOICE   102
        BYTE           VOL     55
        BYTE           PAN     c_v+29
        BYTE   W96
// 001   ----------------------------------------
        BYTE   W96
// 002   ----------------------------------------
        BYTE   W96
// 003   ----------------------------------------
        BYTE   W96
// 004   ----------------------------------------
        BYTE   W96
// 005   ----------------------------------------
        BYTE   W96
// 006   ----------------------------------------
        BYTE   W96
// 007   ----------------------------------------
        BYTE   W96
// 008   ----------------------------------------
Principality_7_LOOP:
        BYTE   W96
// 009   ----------------------------------------
        BYTE   W96
// 010   ----------------------------------------
        BYTE   W96
// 011   ----------------------------------------
        BYTE   W96
// 012   ----------------------------------------
        BYTE   W96
// 013   ----------------------------------------
        BYTE   W96
// 014   ----------------------------------------
        BYTE   W96
// 015   ----------------------------------------
        BYTE   W96
// 016   ----------------------------------------
Principality_7_16:
        BYTE           N18     En2   v124
        BYTE   W24
        BYTE           N32     Bn2   v127
        BYTE   W48
        BYTE           N18     Dn2   v112
        BYTE   W24
        BYTE   PEND
// 017   ----------------------------------------
Principality_7_17:
        BYTE           N40     An2   v124
        BYTE   W48
        BYTE           N19     Gn2   v120
        BYTE   W24
        BYTE           N17     Fs2   v124
        BYTE   W24
        BYTE   PEND
// 018   ----------------------------------------
Principality_7_18:
        BYTE           N18     Dn2   v108
        BYTE   W24
        BYTE                   En2   v124
        BYTE   W48
        BYTE                   Gn2   v127
        BYTE   W24
        BYTE   PEND
// 019   ----------------------------------------
        BYTE           N90     Bn1   v124
        BYTE   W96
// 020   ----------------------------------------
Principality_7_20:
        BYTE           N18     En2   v120
        BYTE   W24
        BYTE           N28     Bn2   v112
        BYTE   W48
        BYTE           N18     Dn2   v120
        BYTE   W24
        BYTE   PEND
// 021   ----------------------------------------
Principality_7_21:
        BYTE           N42     An2   v124
        BYTE   W48
        BYTE           N19     Gn2   v120
        BYTE   W24
        BYTE           N17     Fs2   v124
        BYTE   W24
        BYTE   PEND
// 022   ----------------------------------------
Principality_7_22:
        BYTE           N17     En2   v120
        BYTE   W24
        BYTE           N24     Dn2   v116
        BYTE   W48
        BYTE           N15     Gn2
        BYTE   W24
        BYTE   PEND
// 023   ----------------------------------------
        BYTE           N88     Bn1   v120
        BYTE   W96
// 024   ----------------------------------------
        BYTE   W96
// 025   ----------------------------------------
        BYTE   W96
// 026   ----------------------------------------
        BYTE   W96
// 027   ----------------------------------------
        BYTE   W96
// 028   ----------------------------------------
        BYTE   W96
// 029   ----------------------------------------
        BYTE   W96
// 030   ----------------------------------------
        BYTE   W96
// 031   ----------------------------------------
        BYTE   W96
// 032   ----------------------------------------
        BYTE   W96
// 033   ----------------------------------------
        BYTE   W96
// 034   ----------------------------------------
        BYTE   W96
// 035   ----------------------------------------
        BYTE   W96
// 036   ----------------------------------------
        BYTE   W96
// 037   ----------------------------------------
        BYTE   W96
// 038   ----------------------------------------
        BYTE   W96
// 039   ----------------------------------------
        BYTE   W96
// 040   ----------------------------------------
        BYTE   PATT
         POIN2  Principality_7_16
// 041   ----------------------------------------
        BYTE   PATT
         POIN2  Principality_7_17
// 042   ----------------------------------------
        BYTE   PATT
         POIN2  Principality_7_18
// 043   ----------------------------------------
        BYTE           N90     Bn1   v124
        BYTE   W96
// 044   ----------------------------------------
        BYTE   PATT
         POIN2  Principality_7_20
// 045   ----------------------------------------
        BYTE   PATT
         POIN2  Principality_7_21
// 046   ----------------------------------------
        BYTE   PATT
         POIN2  Principality_7_22
// 047   ----------------------------------------
        BYTE           N88     Bn1   v120
        BYTE   W96
// 048   ----------------------------------------
        BYTE   W96
// 049   ----------------------------------------
        BYTE   W96
// 050   ----------------------------------------
        BYTE   W96
// 051   ----------------------------------------
        BYTE   W96
// 052   ----------------------------------------
        BYTE   W96
// 053   ----------------------------------------
        BYTE   W96
// 054   ----------------------------------------
        BYTE   W96
// 055   ----------------------------------------
        BYTE   W96
// 056   ----------------------------------------
        BYTE   W96
// 057   ----------------------------------------
        BYTE   W96
// 058   ----------------------------------------
        BYTE   W96
// 059   ----------------------------------------
        BYTE   W96
// 060   ----------------------------------------
        BYTE   W96
// 061   ----------------------------------------
        BYTE   W96
// 062   ----------------------------------------
        BYTE   W96
// 063   ----------------------------------------
        BYTE   W96
// 064   ----------------------------------------
        BYTE   W96
// 065   ----------------------------------------
        BYTE   W96
// 066   ----------------------------------------
        BYTE   W96
// 067   ----------------------------------------
        BYTE   W96
// 068   ----------------------------------------
        BYTE   W96
// 069   ----------------------------------------
        BYTE   W96
// 070   ----------------------------------------
        BYTE   W96
// 071   ----------------------------------------
        BYTE   W96
// 072   ----------------------------------------
        BYTE   W96
// 073   ----------------------------------------
        BYTE   W96
// 074   ----------------------------------------
        BYTE   W96
// 075   ----------------------------------------
        BYTE   W96
// 076   ----------------------------------------
        BYTE   W96
// 077   ----------------------------------------
        BYTE   W96
// 078   ----------------------------------------
        BYTE   W96
// 079   ----------------------------------------
        BYTE   W96
// 080   ----------------------------------------
        BYTE   W96
// 081   ----------------------------------------
        BYTE   W96
// 082   ----------------------------------------
        BYTE   W96
// 083   ----------------------------------------
        BYTE   W96
// 084   ----------------------------------------
        BYTE   W96
// 085   ----------------------------------------
        BYTE   W96
// 086   ----------------------------------------
        BYTE   W96
// 087   ----------------------------------------
        BYTE   W96
// 088   ----------------------------------------
        BYTE   W96
// 089   ----------------------------------------
        BYTE   W96
// 090   ----------------------------------------
        BYTE   W96
// 091   ----------------------------------------
        BYTE   W96
// 092   ----------------------------------------
        BYTE   W96
// 093   ----------------------------------------
        BYTE   W96
// 094   ----------------------------------------
        BYTE   W96
// 095   ----------------------------------------
        BYTE   W96
// 096   ----------------------------------------
        BYTE   W96
// 097   ----------------------------------------
        BYTE   W96
// 098   ----------------------------------------
        BYTE   W96
// 099   ----------------------------------------
        BYTE   W96
// 100   ----------------------------------------
        BYTE   W96
// 101   ----------------------------------------
        BYTE   W96
// 102   ----------------------------------------
        BYTE   W96
// 103   ----------------------------------------
        BYTE   W96
// 104   ----------------------------------------
        BYTE   W96
// 105   ----------------------------------------
        BYTE   W96
// 106   ----------------------------------------
        BYTE   W96
// 107   ----------------------------------------
        BYTE   W96
// 108   ----------------------------------------
        BYTE   W96
// 109   ----------------------------------------
        BYTE   W96
// 110   ----------------------------------------
        BYTE   W96
// 111   ----------------------------------------
        BYTE   W96
// 112   ----------------------------------------
        BYTE   PATT
         POIN2  Principality_7_16
// 113   ----------------------------------------
        BYTE   PATT
         POIN2  Principality_7_17
// 114   ----------------------------------------
        BYTE   PATT
         POIN2  Principality_7_18
// 115   ----------------------------------------
        BYTE           N90     Bn1   v124
        BYTE   W96
// 116   ----------------------------------------
        BYTE   PATT
         POIN2  Principality_7_20
// 117   ----------------------------------------
        BYTE   PATT
         POIN2  Principality_7_21
// 118   ----------------------------------------
        BYTE   PATT
         POIN2  Principality_7_22
// 119   ----------------------------------------
        BYTE           N88     Bn1   v120
        BYTE   W96
// 120   ----------------------------------------
        BYTE           N18     En2   v116
        BYTE   W24
        BYTE           N32     Bn2   v112
        BYTE   W48
        BYTE           N18     Dn2   v104
        BYTE   W24
// 121   ----------------------------------------
        BYTE           N40     An2   v100
        BYTE   W48
        BYTE           N19     Gn2   v092
        BYTE   W24
        BYTE           N17     Fs2   v088
        BYTE   W24
// 122   ----------------------------------------
        BYTE           N18     Dn2   v084
        BYTE   W24
        BYTE                   En2   v080
        BYTE   W48
        BYTE                   Gn2   v072
        BYTE   W24
// 123   ----------------------------------------
        BYTE           N90     Bn1   v068
        BYTE   W96
// 124   ----------------------------------------
        BYTE           N18     En2   v052
        BYTE   W24
        BYTE           N28     Bn2   v048
        BYTE   W48
        BYTE           N18     Dn2   v040
        BYTE   W24
// 125   ----------------------------------------
        BYTE           N42     An2   v036
        BYTE   W48
        BYTE           N19     Gn2   v028
        BYTE   W24
        BYTE           N17     Fs2   v024
        BYTE   W24
// 126   ----------------------------------------
        BYTE                   En2   v020
        BYTE   W24
        BYTE           N24     Dn2   v016
        BYTE   W48
        BYTE           N15     Gn2   v008
        BYTE   W24
// 127   ----------------------------------------
        BYTE           N88     Bn1   v004
        BYTE   W96
// 128   ----------------------------------------
        BYTE   GoTo
         POIN2  Principality_7_LOOP
        BYTE   FINE

//****************** Track 8 (Midi-Chn.8) ******************//

Principality_8:
        BYTE   KEYSH   Principality_key+0
// 000   ----------------------------------------
        BYTE           VOICE   127
        BYTE           VOL     58
        BYTE           N04     Dn1   v088
        BYTE   W12
        BYTE           N03     Dn1   v104
        BYTE   W72
        BYTE                   Dn1   v084
        BYTE   W12
// 001   ----------------------------------------
        BYTE                   Dn1   v092
        BYTE   W06
        BYTE           N04
        BYTE   W06
        BYTE           N05     Dn1   v084
        BYTE   W78
        BYTE           N02     Dn1   v092
        BYTE   W06
// 002   ----------------------------------------
        BYTE           N04     Dn1   v084
        BYTE   W12
        BYTE           N02     Dn1   v100
        BYTE   W72
        BYTE           N03     Dn1   v084
        BYTE   W12
// 003   ----------------------------------------
        BYTE                   Dn1   v080
        BYTE   W06
        BYTE           N04     Dn1   v100
        BYTE   W06
        BYTE           N05     Dn1   v092
        BYTE   W36
        BYTE           N04
        BYTE   W24
        BYTE                   Dn1   v104
        BYTE   W24
// 004   ----------------------------------------
Principality_8_4:
        BYTE           N03     Cn2   v112
        BYTE   W12
        BYTE           N02     Cn2   v116
        BYTE           N03     Dn1   v080
        BYTE   W24
        BYTE                   Dn1   v084
        BYTE   W06
        BYTE           N01     Bn1   v076
        BYTE   W06
        BYTE           N02     Cn2   v112
        BYTE   W12
        BYTE                   Cn2   v116
        BYTE           N02     Dn1   v080
        BYTE   W24
        BYTE           N03     Dn1   v084
        BYTE   W12
        BYTE   PEND
// 005   ----------------------------------------
Principality_8_5:
        BYTE   W12
        BYTE           N03     Dn1   v080
        BYTE   W24
        BYTE                   Dn1   v084
        BYTE   W12
        BYTE                   Bn1   v100
        BYTE           N02     Dn1   v080
        BYTE   W06
        BYTE           N03     An1   v092
        BYTE           N03     Dn1   v080
        BYTE   W06
        BYTE                   An1   v096
        BYTE           N03     Dn1   v088
        BYTE   W06
        BYTE                   Gn1   v112
        BYTE   W06
        BYTE           N05
        BYTE   W12
        BYTE           N03     Dn1   v084
        BYTE   W12
        BYTE   PEND
// 006   ----------------------------------------
Principality_8_6:
        BYTE           N04     Cn2   v108
        BYTE   W12
        BYTE                   Cn2
        BYTE           N03     Dn1   v084
        BYTE   W24
        BYTE                   Dn1
        BYTE   W06
        BYTE           N01     Bn1
        BYTE   W06
        BYTE           N03     Cn2   v108
        BYTE   W12
        BYTE                   Cn2   v112
        BYTE           N03     Dn1   v084
        BYTE   W24
        BYTE                   Dn1   v088
        BYTE   W12
        BYTE   PEND
// 007   ----------------------------------------
Principality_8_7:
        BYTE   W12
        BYTE           N03     Dn1   v092
        BYTE   W24
        BYTE                   Dn1   v084
        BYTE   W12
        BYTE                   Gn1   v112
        BYTE           N03     Dn1   v084
        BYTE   W06
        BYTE           N04     Dn1   v088
        BYTE   W06
        BYTE           N02     Gn1   v112
        BYTE           N03     Dn1   v092
        BYTE   W06
        BYTE                   Gn1   v108
        BYTE   W06
        BYTE           N04     Gn1   v112
        BYTE   W12
        BYTE           N03     Dn1   v092
        BYTE   W12
        BYTE   PEND
// 008   ----------------------------------------
Principality_8_LOOP:
        BYTE           N03     Cn2   v112
        BYTE   W12
        BYTE           N02     Cn2   v116
        BYTE           N03     Dn1   v080
        BYTE   W24
        BYTE                   Dn1   v084
        BYTE   W06
        BYTE           N01     Bn1   v076
        BYTE   W06
        BYTE           N02     Cn2   v112
        BYTE   W12
        BYTE                   Cn2   v116
        BYTE           N02     Dn1   v080
        BYTE   W24
        BYTE           N03     Dn1   v084
        BYTE   W12
// 009   ----------------------------------------
        BYTE   PATT
         POIN2  Principality_8_5
// 010   ----------------------------------------
        BYTE   PATT
         POIN2  Principality_8_6
// 011   ----------------------------------------
        BYTE   PATT
         POIN2  Principality_8_7
// 012   ----------------------------------------
        BYTE   PATT
         POIN2  Principality_8_4
// 013   ----------------------------------------
        BYTE   PATT
         POIN2  Principality_8_5
// 014   ----------------------------------------
        BYTE   PATT
         POIN2  Principality_8_6
// 015   ----------------------------------------
        BYTE   PATT
         POIN2  Principality_8_7
// 016   ----------------------------------------
        BYTE   PATT
         POIN2  Principality_8_4
// 017   ----------------------------------------
        BYTE   PATT
         POIN2  Principality_8_5
// 018   ----------------------------------------
        BYTE   PATT
         POIN2  Principality_8_6
// 019   ----------------------------------------
        BYTE   PATT
         POIN2  Principality_8_7
// 020   ----------------------------------------
        BYTE   PATT
         POIN2  Principality_8_4
// 021   ----------------------------------------
        BYTE   PATT
         POIN2  Principality_8_5
// 022   ----------------------------------------
        BYTE   PATT
         POIN2  Principality_8_6
// 023   ----------------------------------------
        BYTE   PATT
         POIN2  Principality_8_7
// 024   ----------------------------------------
        BYTE   PATT
         POIN2  Principality_8_4
// 025   ----------------------------------------
        BYTE   PATT
         POIN2  Principality_8_5
// 026   ----------------------------------------
        BYTE   PATT
         POIN2  Principality_8_6
// 027   ----------------------------------------
        BYTE   PATT
         POIN2  Principality_8_7
// 028   ----------------------------------------
        BYTE   PATT
         POIN2  Principality_8_4
// 029   ----------------------------------------
        BYTE   PATT
         POIN2  Principality_8_5
// 030   ----------------------------------------
        BYTE   PATT
         POIN2  Principality_8_6
// 031   ----------------------------------------
        BYTE   PATT
         POIN2  Principality_8_7
// 032   ----------------------------------------
        BYTE           N66     Bn2   v084
        BYTE   W96
// 033   ----------------------------------------
Principality_8_33:
        BYTE           N80     Bn2   v060
        BYTE           N84     Fn2   v068
        BYTE   W96
        BYTE   PEND
// 034   ----------------------------------------
        BYTE           N76     Bn2   v092
        BYTE   W96
// 035   ----------------------------------------
Principality_8_35:
        BYTE           N80     Bn2   v080
        BYTE           N84     Fn2
        BYTE   W96
        BYTE   PEND
// 036   ----------------------------------------
        BYTE                   Bn2   v096
        BYTE   W96
// 037   ----------------------------------------
Principality_8_37:
        BYTE           N84     Bn2   v084
        BYTE           N80     Fn2   v092
        BYTE   W96
        BYTE   PEND
// 038   ----------------------------------------
        BYTE                   Bn2   v080
        BYTE   W96
// 039   ----------------------------------------
Principality_8_39:
        BYTE           N88     Bn2   v080
        BYTE           N90     Fn2   v084
        BYTE   W96
        BYTE   PEND
// 040   ----------------------------------------
        BYTE   PATT
         POIN2  Principality_8_4
// 041   ----------------------------------------
        BYTE   PATT
         POIN2  Principality_8_5
// 042   ----------------------------------------
        BYTE   PATT
         POIN2  Principality_8_6
// 043   ----------------------------------------
        BYTE   PATT
         POIN2  Principality_8_7
// 044   ----------------------------------------
        BYTE   PATT
         POIN2  Principality_8_4
// 045   ----------------------------------------
        BYTE   PATT
         POIN2  Principality_8_5
// 046   ----------------------------------------
        BYTE   PATT
         POIN2  Principality_8_6
// 047   ----------------------------------------
        BYTE   PATT
         POIN2  Principality_8_7
// 048   ----------------------------------------
        BYTE   PATT
         POIN2  Principality_8_4
// 049   ----------------------------------------
        BYTE   PATT
         POIN2  Principality_8_5
// 050   ----------------------------------------
        BYTE   PATT
         POIN2  Principality_8_6
// 051   ----------------------------------------
        BYTE   PATT
         POIN2  Principality_8_7
// 052   ----------------------------------------
        BYTE   PATT
         POIN2  Principality_8_4
// 053   ----------------------------------------
        BYTE   PATT
         POIN2  Principality_8_5
// 054   ----------------------------------------
        BYTE   PATT
         POIN2  Principality_8_6
// 055   ----------------------------------------
        BYTE   PATT
         POIN2  Principality_8_7
// 056   ----------------------------------------
        BYTE   PATT
         POIN2  Principality_8_4
// 057   ----------------------------------------
        BYTE   PATT
         POIN2  Principality_8_5
// 058   ----------------------------------------
        BYTE   PATT
         POIN2  Principality_8_6
// 059   ----------------------------------------
        BYTE   PATT
         POIN2  Principality_8_7
// 060   ----------------------------------------
        BYTE   PATT
         POIN2  Principality_8_4
// 061   ----------------------------------------
        BYTE   PATT
         POIN2  Principality_8_5
// 062   ----------------------------------------
        BYTE   PATT
         POIN2  Principality_8_6
// 063   ----------------------------------------
        BYTE   PATT
         POIN2  Principality_8_7
// 064   ----------------------------------------
        BYTE           N66     Bn2   v084
        BYTE   W96
// 065   ----------------------------------------
        BYTE   PATT
         POIN2  Principality_8_33
// 066   ----------------------------------------
        BYTE           N76     Bn2   v092
        BYTE   W96
// 067   ----------------------------------------
        BYTE   PATT
         POIN2  Principality_8_35
// 068   ----------------------------------------
        BYTE           N84     Bn2   v096
        BYTE   W96
// 069   ----------------------------------------
        BYTE   PATT
         POIN2  Principality_8_37
// 070   ----------------------------------------
        BYTE           N80     Bn2   v080
        BYTE   W96
// 071   ----------------------------------------
        BYTE   PATT
         POIN2  Principality_8_39
// 072   ----------------------------------------
Principality_8_72:
        BYTE           N04     Bn1   v120
        BYTE   W12
        BYTE                   Bn1   v104
        BYTE   W78
        BYTE           N02     Bn1   v116
        BYTE   W06
        BYTE   PEND
// 073   ----------------------------------------
Principality_8_73:
        BYTE           N01     An1   v088
        BYTE           N03     Gn1   v112
        BYTE   W12
        BYTE           N04     Gn1   v127
        BYTE   W78
        BYTE           N02     Gn1   v104
        BYTE   W06
        BYTE   PEND
// 074   ----------------------------------------
Principality_8_74:
        BYTE           N05     Bn1   v116
        BYTE   W12
        BYTE           N04     Bn1   v120
        BYTE   W78
        BYTE           N01     Bn1   v104
        BYTE   W06
        BYTE   PEND
// 075   ----------------------------------------
Principality_8_75:
        BYTE           N03     An1   v112
        BYTE   W12
        BYTE           N04     An1   v120
        BYTE   W36
        BYTE           N03     Fn1   v108
        BYTE   W06
        BYTE                   Fn1   v100
        BYTE   W06
        BYTE                   Fn1
        BYTE   W06
        BYTE                   Fn1   v112
        BYTE   W06
        BYTE                   Fn1   v108
        BYTE   W12
        BYTE                   Gn1   v112
        BYTE   W12
        BYTE   PEND
// 076   ----------------------------------------
Principality_8_76:
        BYTE           N04     Bn1   v112
        BYTE   W12
        BYTE                   Bn1
        BYTE   W72
        BYTE           N02     Bn1   v108
        BYTE   W06
        BYTE                   An1
        BYTE   W06
        BYTE   PEND
// 077   ----------------------------------------
Principality_8_77:
        BYTE           N04     Gn1   v100
        BYTE   W12
        BYTE           N03     Gn1   v127
        BYTE   W78
        BYTE           N02     Gn1   v104
        BYTE   W06
        BYTE   PEND
// 078   ----------------------------------------
Principality_8_78:
        BYTE           N02     Cn2   v104
        BYTE           N03     Bn1   v108
        BYTE   W12
        BYTE                   Bn1   v116
        BYTE   W72
        BYTE           N02     Bn1   v092
        BYTE   W06
        BYTE                   An1   v100
        BYTE   W06
        BYTE   PEND
// 079   ----------------------------------------
Principality_8_79:
        BYTE           N01     Gn1   v112
        BYTE           N03     Fn1
        BYTE   W12
        BYTE           N04     Fn1   v116
        BYTE   W36
        BYTE           N03     An1   v112
        BYTE   W06
        BYTE                   An1   v092
        BYTE   W06
        BYTE           N04     An1   v096
        BYTE   W06
        BYTE                   Gn1   v108
        BYTE   W06
        BYTE                   Gn1
        BYTE   W12
        BYTE           N03     Fn1   v112
        BYTE   W12
        BYTE   PEND
// 080   ----------------------------------------
        BYTE   PATT
         POIN2  Principality_8_72
// 081   ----------------------------------------
        BYTE   PATT
         POIN2  Principality_8_73
// 082   ----------------------------------------
        BYTE   PATT
         POIN2  Principality_8_74
// 083   ----------------------------------------
        BYTE   PATT
         POIN2  Principality_8_75
// 084   ----------------------------------------
        BYTE   PATT
         POIN2  Principality_8_76
// 085   ----------------------------------------
        BYTE   PATT
         POIN2  Principality_8_77
// 086   ----------------------------------------
        BYTE   PATT
         POIN2  Principality_8_78
// 087   ----------------------------------------
        BYTE   PATT
         POIN2  Principality_8_79
// 088   ----------------------------------------
        BYTE           N02     Gn2   v124
        BYTE           N03     Cn2   v112
        BYTE   W12
        BYTE           N02     Cn2   v116
        BYTE           N03     Dn1   v080
        BYTE   W24
        BYTE                   Dn1   v084
        BYTE   W06
        BYTE           N01     Bn1   v076
        BYTE   W06
        BYTE           N02     Cn2   v112
        BYTE   W12
        BYTE                   Cn2   v116
        BYTE           N02     Dn1   v080
        BYTE   W24
        BYTE           N03     Dn1   v084
        BYTE   W12
// 089   ----------------------------------------
        BYTE   PATT
         POIN2  Principality_8_5
// 090   ----------------------------------------
        BYTE   PATT
         POIN2  Principality_8_6
// 091   ----------------------------------------
        BYTE   PATT
         POIN2  Principality_8_7
// 092   ----------------------------------------
        BYTE   PATT
         POIN2  Principality_8_4
// 093   ----------------------------------------
        BYTE   PATT
         POIN2  Principality_8_5
// 094   ----------------------------------------
        BYTE   PATT
         POIN2  Principality_8_6
// 095   ----------------------------------------
        BYTE   PATT
         POIN2  Principality_8_7
// 096   ----------------------------------------
        BYTE   PATT
         POIN2  Principality_8_4
// 097   ----------------------------------------
        BYTE   PATT
         POIN2  Principality_8_5
// 098   ----------------------------------------
        BYTE   PATT
         POIN2  Principality_8_6
// 099   ----------------------------------------
        BYTE   PATT
         POIN2  Principality_8_7
// 100   ----------------------------------------
        BYTE   PATT
         POIN2  Principality_8_4
// 101   ----------------------------------------
        BYTE   PATT
         POIN2  Principality_8_5
// 102   ----------------------------------------
        BYTE   PATT
         POIN2  Principality_8_6
// 103   ----------------------------------------
        BYTE   PATT
         POIN2  Principality_8_7
// 104   ----------------------------------------
        BYTE           N66     Bn2   v084
        BYTE   W96
// 105   ----------------------------------------
        BYTE   PATT
         POIN2  Principality_8_33
// 106   ----------------------------------------
        BYTE           N76     Bn2   v092
        BYTE   W96
// 107   ----------------------------------------
        BYTE   PATT
         POIN2  Principality_8_35
// 108   ----------------------------------------
        BYTE           N84     Bn2   v096
        BYTE   W96
// 109   ----------------------------------------
        BYTE   PATT
         POIN2  Principality_8_37
// 110   ----------------------------------------
        BYTE           N80     Bn2   v080
        BYTE   W96
// 111   ----------------------------------------
        BYTE   PATT
         POIN2  Principality_8_39
// 112   ----------------------------------------
        BYTE   PATT
         POIN2  Principality_8_4
// 113   ----------------------------------------
        BYTE   PATT
         POIN2  Principality_8_5
// 114   ----------------------------------------
        BYTE   PATT
         POIN2  Principality_8_6
// 115   ----------------------------------------
        BYTE   PATT
         POIN2  Principality_8_7
// 116   ----------------------------------------
        BYTE   PATT
         POIN2  Principality_8_4
// 117   ----------------------------------------
        BYTE   PATT
         POIN2  Principality_8_5
// 118   ----------------------------------------
        BYTE   PATT
         POIN2  Principality_8_6
// 119   ----------------------------------------
        BYTE   PATT
         POIN2  Principality_8_7
// 120   ----------------------------------------
        BYTE           N03     Cn2   v092
        BYTE           N04     Dn1   v088
        BYTE   W12
        BYTE           N02     Cn2   v092
        BYTE           N03     Dn1
        BYTE           N03     Dn1   v104
        BYTE   W24
        BYTE                   Dn1   v088
        BYTE   W06
        BYTE           N01     Bn1
        BYTE   W06
        BYTE           N02     Cn2
        BYTE   W12
        BYTE                   Cn2   v084
        BYTE           N02     Dn1
        BYTE   W24
        BYTE           N03
        BYTE           N03
        BYTE   W12
// 121   ----------------------------------------
        BYTE                   Dn1   v092
        BYTE   W06
        BYTE           N04
        BYTE   W06
        BYTE           N03     Dn1   v080
        BYTE           N05     Dn1   v084
        BYTE   W24
        BYTE           N03     Dn1   v076
        BYTE   W12
        BYTE                   Bn1
        BYTE           N02     Dn1
        BYTE   W06
        BYTE           N03     An1
        BYTE           N03     Dn1
        BYTE   W06
        BYTE                   An1
        BYTE           N03     Dn1
        BYTE   W06
        BYTE                   Gn1   v072
        BYTE   W06
        BYTE           N05
        BYTE   W12
        BYTE           N03     Dn1
        BYTE   W06
        BYTE           N02     Dn1   v092
        BYTE   W06
// 122   ----------------------------------------
        BYTE           N04     Cn2   v072
        BYTE           N04     Dn1   v084
        BYTE   W12
        BYTE                   Cn2   v068
        BYTE           N02     Dn1
        BYTE           N03     Dn1   v100
        BYTE   W24
        BYTE                   Dn1   v068
        BYTE   W06
        BYTE           N01     Bn1   v064
        BYTE   W06
        BYTE           N03     Cn2
        BYTE   W12
        BYTE                   Cn2
        BYTE           N03     Dn1
        BYTE   W24
        BYTE                   Dn1   v060
        BYTE           N03     Dn1   v084
        BYTE   W12
// 123   ----------------------------------------
        BYTE                   Dn1   v080
        BYTE   W06
        BYTE           N04     Dn1   v100
        BYTE   W06
        BYTE           N03     Dn1   v056
        BYTE           N05     Dn1   v092
        BYTE   W24
        BYTE           N03     Dn1   v056
        BYTE   W12
        BYTE                   Gn1   v052
        BYTE           N03     Dn1
        BYTE           N04     Dn1   v092
        BYTE   W06
        BYTE                   Dn1   v052
        BYTE   W06
        BYTE           N02     Gn1
        BYTE           N03     Dn1
        BYTE   W06
        BYTE                   Gn1
        BYTE   W06
        BYTE           N04
        BYTE           N04     Dn1   v104
        BYTE   W12
        BYTE           N03     Dn1   v048
        BYTE   W12
// 124   ----------------------------------------
        BYTE                   Cn2
        BYTE           N03     Cn2   v112
        BYTE   W12
        BYTE           N02     Cn2   v048
        BYTE           N03     Dn1
        BYTE           N02     Cn2   v116
        BYTE           N03     Dn1   v080
        BYTE   W24
        BYTE                   Dn1   v044
        BYTE           N03     Dn1   v084
        BYTE   W06
        BYTE           N01     Bn1   v044
        BYTE           N01     Bn1   v076
        BYTE   W06
        BYTE           N02     Cn2   v040
        BYTE           N02     Cn2   v112
        BYTE   W12
        BYTE                   Cn2   v040
        BYTE           N02     Dn1
        BYTE           N02     Cn2   v116
        BYTE           N02     Dn1   v080
        BYTE   W24
        BYTE           N03     Dn1   v036
        BYTE           N03     Dn1   v084
        BYTE   W12
// 125   ----------------------------------------
        BYTE   W12
        BYTE                   Dn1   v036
        BYTE           N03     Dn1   v080
        BYTE   W24
        BYTE                   Dn1   v032
        BYTE           N03     Dn1   v084
        BYTE   W12
        BYTE                   Bn1   v032
        BYTE           N02     Dn1
        BYTE           N03     Bn1   v100
        BYTE           N02     Dn1   v080
        BYTE   W06
        BYTE           N03     An1   v028
        BYTE           N03     Dn1
        BYTE           N03     An1   v092
        BYTE           N03     Dn1   v080
        BYTE   W06
        BYTE                   An1   v028
        BYTE           N03     Dn1
        BYTE           N03     An1   v096
        BYTE           N03     Dn1   v088
        BYTE   W06
        BYTE                   Gn1   v028
        BYTE           N03     Gn1   v112
        BYTE   W06
        BYTE           N05     Gn1   v028
        BYTE           N05     Gn1   v112
        BYTE   W12
        BYTE           N03     Dn1   v028
        BYTE           N03     Dn1   v084
        BYTE   W12
// 126   ----------------------------------------
        BYTE           N04     Cn2   v024
        BYTE           N04     Cn2   v108
        BYTE   W12
        BYTE                   Cn2   v024
        BYTE           N03     Dn1
        BYTE           N04     Cn2   v108
        BYTE           N03     Dn1   v084
        BYTE   W24
        BYTE                   Dn1   v020
        BYTE           N03     Dn1   v084
        BYTE   W06
        BYTE           N01     Bn1   v020
        BYTE           N01     Bn1   v084
        BYTE   W06
        BYTE           N03     Cn2   v020
        BYTE           N03     Cn2   v108
        BYTE   W12
        BYTE                   Cn2   v016
        BYTE           N03     Dn1
        BYTE           N03     Cn2   v112
        BYTE           N03     Dn1   v084
        BYTE   W24
        BYTE                   Dn1   v016
        BYTE           N03     Dn1   v088
        BYTE   W12
// 127   ----------------------------------------
        BYTE   W12
        BYTE                   Dn1   v012
        BYTE           N03     Dn1   v092
        BYTE   W24
        BYTE                   Dn1   v008
        BYTE           N03     Dn1   v084
        BYTE   W12
        BYTE                   Gn1   v008
        BYTE           N03     Dn1
        BYTE           N03     Gn1   v112
        BYTE           N03     Dn1   v084
        BYTE   W06
        BYTE           N04     Dn1   v008
        BYTE           N04     Dn1   v088
        BYTE   W06
        BYTE           N02     Gn1   v008
        BYTE           N03     Dn1
        BYTE           N02     Gn1   v112
        BYTE           N03     Dn1   v092
        BYTE   W06
        BYTE                   Gn1   v004
        BYTE           N03     Gn1   v108
        BYTE   W06
        BYTE           N04     Gn1   v004
        BYTE           N04     Gn1   v112
        BYTE   W12
        BYTE           N03     Dn1   v004
        BYTE           N03     Dn1   v092
        BYTE   W12
// 128   ----------------------------------------
        BYTE   GoTo
         POIN2  Principality_8_LOOP
        BYTE   FINE

//***************** Track 9 (Midi-Chn.10) ******************//

Principality_9:
        BYTE   KEYSH   Principality_key+0
// 000   ----------------------------------------
        BYTE           VOICE   100
        BYTE           VOL     58
        BYTE           PAN     c_v+15
        BYTE   W96
// 001   ----------------------------------------
        BYTE   W96
// 002   ----------------------------------------
        BYTE   W96
// 003   ----------------------------------------
        BYTE   W96
// 004   ----------------------------------------
        BYTE   W96
// 005   ----------------------------------------
        BYTE   W96
// 006   ----------------------------------------
        BYTE   W96
// 007   ----------------------------------------
        BYTE   W96
// 008   ----------------------------------------
Principality_9_LOOP:
        BYTE   W96
// 009   ----------------------------------------
        BYTE   W96
// 010   ----------------------------------------
        BYTE   W96
// 011   ----------------------------------------
        BYTE   W96
// 012   ----------------------------------------
        BYTE   W96
// 013   ----------------------------------------
        BYTE   W96
// 014   ----------------------------------------
        BYTE   W96
// 015   ----------------------------------------
        BYTE   W96
// 016   ----------------------------------------
        BYTE   W96
// 017   ----------------------------------------
        BYTE   W96
// 018   ----------------------------------------
        BYTE   W96
// 019   ----------------------------------------
        BYTE   W96
// 020   ----------------------------------------
        BYTE   W96
// 021   ----------------------------------------
        BYTE   W96
// 022   ----------------------------------------
        BYTE   W96
// 023   ----------------------------------------
        BYTE   W96
// 024   ----------------------------------------
Principality_9_24:
        BYTE           N22     En3   v096
        BYTE   W72
        BYTE           N09     An3   v088
        BYTE   W24
        BYTE   PEND
// 025   ----------------------------------------
Principality_9_25:
        BYTE           N15     Bn3   v084
        BYTE   W48
        BYTE           N09     An3
        BYTE   W24
        BYTE           N10     Gn3   v092
        BYTE   W24
        BYTE   PEND
// 026   ----------------------------------------
Principality_9_26:
        BYTE           N08     Fs3   v096
        BYTE   W24
        BYTE           N09     Dn3   v092
        BYTE   W48
        BYTE           N05     Gn3
        BYTE   W24
        BYTE   PEND
// 027   ----------------------------------------
        BYTE           N72     Bn2   v104
        BYTE   W96
// 028   ----------------------------------------
Principality_9_28:
        BYTE           N32     En3   v084
        BYTE   W72
        BYTE           N11     An3   v096
        BYTE   W24
        BYTE   PEND
// 029   ----------------------------------------
Principality_9_29:
        BYTE           N30     Bn3   v076
        BYTE   W48
        BYTE           N07     An3   v084
        BYTE   W24
        BYTE           N08     Gn3   v092
        BYTE   W24
        BYTE   PEND
// 030   ----------------------------------------
Principality_9_30:
        BYTE           N06     Fs3   v100
        BYTE   W24
        BYTE           N08     Dn3   v092
        BYTE   W48
        BYTE           N06     Fs3   v112
        BYTE   W24
        BYTE   PEND
// 031   ----------------------------------------
        BYTE           N68     En3   v092
        BYTE   W96
// 032   ----------------------------------------
        BYTE   W96
// 033   ----------------------------------------
        BYTE   W96
// 034   ----------------------------------------
        BYTE   W96
// 035   ----------------------------------------
        BYTE   W96
// 036   ----------------------------------------
        BYTE   W96
// 037   ----------------------------------------
        BYTE   W96
// 038   ----------------------------------------
        BYTE   W96
// 039   ----------------------------------------
        BYTE   W96
// 040   ----------------------------------------
        BYTE   W96
// 041   ----------------------------------------
        BYTE   W96
// 042   ----------------------------------------
        BYTE   W96
// 043   ----------------------------------------
        BYTE   W96
// 044   ----------------------------------------
        BYTE   W96
// 045   ----------------------------------------
        BYTE   W96
// 046   ----------------------------------------
        BYTE   W96
// 047   ----------------------------------------
        BYTE   W96
// 048   ----------------------------------------
        BYTE   PATT
         POIN2  Principality_9_24
// 049   ----------------------------------------
        BYTE   PATT
         POIN2  Principality_9_25
// 050   ----------------------------------------
        BYTE   PATT
         POIN2  Principality_9_26
// 051   ----------------------------------------
        BYTE           N72     Bn2   v104
        BYTE   W96
// 052   ----------------------------------------
        BYTE   PATT
         POIN2  Principality_9_28
// 053   ----------------------------------------
        BYTE   PATT
         POIN2  Principality_9_29
// 054   ----------------------------------------
        BYTE   PATT
         POIN2  Principality_9_30
// 055   ----------------------------------------
        BYTE           N68     En3   v092
        BYTE   W96
// 056   ----------------------------------------
        BYTE   PATT
         POIN2  Principality_9_24
// 057   ----------------------------------------
        BYTE   PATT
         POIN2  Principality_9_25
// 058   ----------------------------------------
        BYTE   PATT
         POIN2  Principality_9_26
// 059   ----------------------------------------
        BYTE           N72     Bn2   v104
        BYTE   W96
// 060   ----------------------------------------
        BYTE   PATT
         POIN2  Principality_9_28
// 061   ----------------------------------------
        BYTE   PATT
         POIN2  Principality_9_29
// 062   ----------------------------------------
        BYTE   PATT
         POIN2  Principality_9_30
// 063   ----------------------------------------
        BYTE           N68     En3   v092
        BYTE   W96
// 064   ----------------------------------------
        BYTE   W96
// 065   ----------------------------------------
        BYTE   W96
// 066   ----------------------------------------
        BYTE   W96
// 067   ----------------------------------------
        BYTE   W96
// 068   ----------------------------------------
        BYTE   W96
// 069   ----------------------------------------
        BYTE   W96
// 070   ----------------------------------------
        BYTE   W96
// 071   ----------------------------------------
        BYTE   W96
// 072   ----------------------------------------
        BYTE   W96
// 073   ----------------------------------------
        BYTE   W96
// 074   ----------------------------------------
        BYTE   W48
        BYTE           N04     En5   v072
        BYTE   W48
// 075   ----------------------------------------
        BYTE                   Bn4   v068
        BYTE   W48
        BYTE           N06     An4
        BYTE   W48
// 076   ----------------------------------------
        BYTE           N02     Bn4
        BYTE   W96
// 077   ----------------------------------------
        BYTE   W96
// 078   ----------------------------------------
        BYTE   W48
        BYTE           N06     En5   v076
        BYTE   W48
// 079   ----------------------------------------
        BYTE           N04     Bn4   v072
        BYTE   W48
        BYTE                   An4   v068
        BYTE   W48
// 080   ----------------------------------------
        BYTE           N02     En4   v076
        BYTE   W96
// 081   ----------------------------------------
        BYTE   W96
// 082   ----------------------------------------
        BYTE   W48
        BYTE           N03     En5   v068
        BYTE   W48
// 083   ----------------------------------------
        BYTE           N04     Bn4
        BYTE   W48
        BYTE           N05     An4   v056
        BYTE   W48
// 084   ----------------------------------------
        BYTE           N03     Bn4   v076
        BYTE   W96
// 085   ----------------------------------------
        BYTE   W96
// 086   ----------------------------------------
        BYTE   W48
        BYTE                   En5
        BYTE   W48
// 087   ----------------------------------------
        BYTE           N05     Bn4
        BYTE   W48
        BYTE           N04     An4   v080
        BYTE   W48
// 088   ----------------------------------------
        BYTE   PATT
         POIN2  Principality_9_24
// 089   ----------------------------------------
        BYTE   PATT
         POIN2  Principality_9_25
// 090   ----------------------------------------
        BYTE   PATT
         POIN2  Principality_9_26
// 091   ----------------------------------------
        BYTE           N72     Bn2   v104
        BYTE   W96
// 092   ----------------------------------------
        BYTE   PATT
         POIN2  Principality_9_28
// 093   ----------------------------------------
        BYTE   PATT
         POIN2  Principality_9_29
// 094   ----------------------------------------
        BYTE   PATT
         POIN2  Principality_9_30
// 095   ----------------------------------------
        BYTE           N68     En3   v092
        BYTE   W96
// 096   ----------------------------------------
        BYTE   PATT
         POIN2  Principality_9_24
// 097   ----------------------------------------
        BYTE   PATT
         POIN2  Principality_9_25
// 098   ----------------------------------------
        BYTE   PATT
         POIN2  Principality_9_26
// 099   ----------------------------------------
        BYTE           N72     Bn2   v104
        BYTE   W96
// 100   ----------------------------------------
        BYTE   PATT
         POIN2  Principality_9_28
// 101   ----------------------------------------
        BYTE   PATT
         POIN2  Principality_9_29
// 102   ----------------------------------------
        BYTE   PATT
         POIN2  Principality_9_30
// 103   ----------------------------------------
        BYTE           N68     En3   v092
        BYTE   W96
// 104   ----------------------------------------
        BYTE   W96
// 105   ----------------------------------------
        BYTE   W96
// 106   ----------------------------------------
        BYTE   W96
// 107   ----------------------------------------
        BYTE   W96
// 108   ----------------------------------------
        BYTE   W96
// 109   ----------------------------------------
        BYTE   W96
// 110   ----------------------------------------
        BYTE   W96
// 111   ----------------------------------------
        BYTE   W96
// 112   ----------------------------------------
        BYTE   W96
// 113   ----------------------------------------
        BYTE   W96
// 114   ----------------------------------------
        BYTE   W96
// 115   ----------------------------------------
        BYTE   W96
// 116   ----------------------------------------
        BYTE   W96
// 117   ----------------------------------------
        BYTE   W96
// 118   ----------------------------------------
        BYTE   W96
// 119   ----------------------------------------
        BYTE   W96
// 120   ----------------------------------------
        BYTE   W96
// 121   ----------------------------------------
        BYTE   W96
// 122   ----------------------------------------
        BYTE   W96
// 123   ----------------------------------------
        BYTE   W96
// 124   ----------------------------------------
        BYTE   W96
// 125   ----------------------------------------
        BYTE   W96
// 126   ----------------------------------------
        BYTE   W96
// 127   ----------------------------------------
        BYTE   W96
// 128   ----------------------------------------
        BYTE   GoTo
         POIN2  Principality_9_LOOP
        BYTE   FINE

//***************** Track 10 (Midi-Chn.11) *****************//

Principality_10:
        BYTE   KEYSH   Principality_key+0
// 000   ----------------------------------------
        BYTE           VOICE   73
        BYTE           VOL     41
        BYTE           PAN     c_v-32
        BYTE   W96
// 001   ----------------------------------------
        BYTE   W96
// 002   ----------------------------------------
        BYTE   W96
// 003   ----------------------------------------
        BYTE   W96
// 004   ----------------------------------------
        BYTE   W96
// 005   ----------------------------------------
        BYTE   W96
// 006   ----------------------------------------
        BYTE   W96
// 007   ----------------------------------------
        BYTE   W96
// 008   ----------------------------------------
Principality_10_LOOP:
        BYTE   W96
// 009   ----------------------------------------
        BYTE   W96
// 010   ----------------------------------------
        BYTE   W96
// 011   ----------------------------------------
        BYTE   W96
// 012   ----------------------------------------
        BYTE   W96
// 013   ----------------------------------------
        BYTE   W96
// 014   ----------------------------------------
        BYTE   W96
// 015   ----------------------------------------
        BYTE   W96
// 016   ----------------------------------------
        BYTE   W96
// 017   ----------------------------------------
        BYTE   W96
// 018   ----------------------------------------
        BYTE   W96
// 019   ----------------------------------------
        BYTE   W96
// 020   ----------------------------------------
        BYTE   W96
// 021   ----------------------------------------
        BYTE   W96
// 022   ----------------------------------------
        BYTE   W96
// 023   ----------------------------------------
        BYTE   W96
// 024   ----------------------------------------
        BYTE   W96
// 025   ----------------------------------------
        BYTE   W96
// 026   ----------------------------------------
        BYTE   W96
// 027   ----------------------------------------
Principality_10_27:
        BYTE   W12
        BYTE           N04     Gn5   v100
        BYTE   W06
        BYTE                   An5
        BYTE   W05
        BYTE           N03     Gn5   v084
        BYTE   W01
        BYTE           N08     Bn5   v096
        BYTE   W07
        BYTE           N04     An5   v092
        BYTE   W06
        BYTE           N05     Gn5   v088
        BYTE   W06
        BYTE           N03     Fs5   v112
        BYTE   W05
        BYTE           N04     En5   v104
        BYTE   W12
        BYTE                   Gn5
        BYTE   W12
        BYTE                   En5   v116
        BYTE   W24
        BYTE   PEND
// 028   ----------------------------------------
        BYTE   W96
// 029   ----------------------------------------
        BYTE   W96
// 030   ----------------------------------------
        BYTE   W96
// 031   ----------------------------------------
Principality_10_31:
        BYTE           N04     En6   v100
        BYTE   W12
        BYTE           N06     En6   v104
        BYTE   W06
        BYTE           N04     Dn6   v092
        BYTE           N04     Bn5
        BYTE   W06
        BYTE                   An5   v084
        BYTE   W12
        BYTE           N03     Gn5   v092
        BYTE   W12
        BYTE                   An5   v108
        BYTE   W12
        BYTE           N05     Bn5   v112
        BYTE           N02     An5
        BYTE           N03     Gn5   v080
        BYTE   W12
        BYTE           N02     En5   v072
        BYTE   W03
        BYTE           N03     Dn5   v084
        BYTE   W03
        BYTE           N02     En5   v092
        BYTE   W03
        BYTE                   Dn5   v100
        BYTE   W03
        BYTE                   En5   v104
        BYTE   W03
        BYTE           N03     Dn5   v108
        BYTE   W03
        BYTE           N02     En5   v104
        BYTE   W03
        BYTE           N03     Dn5   v100
        BYTE   W03
        BYTE   PEND
// 032   ----------------------------------------
Principality_10_32:
        BYTE           N02     En5   v100
        BYTE   W03
        BYTE           N03     Dn5   v096
        BYTE   W03
        BYTE                   En5   v092
        BYTE   W03
        BYTE                   Dn5   v088
        BYTE   W03
        BYTE           N02     En5   v080
        BYTE   W03
        BYTE                   Dn5
        BYTE   W03
        BYTE           N03     En5   v076
        BYTE   W03
        BYTE                   Dn5   v072
        BYTE   W03
        BYTE           N02     En5   v068
        BYTE   W03
        BYTE           N03     Dn5   v064
        BYTE   W03
        BYTE           N02     En5   v060
        BYTE   W03
        BYTE                   Dn5   v056
        BYTE   W03
        BYTE                   En5   v052
        BYTE   W03
        BYTE           N03     Dn5   v048
        BYTE   W03
        BYTE           N02     En5   v044
        BYTE   W03
        BYTE           N03     Dn5   v040
        BYTE   W03
        BYTE           N02     En5   v036
        BYTE   W03
        BYTE           N03     Dn5   v032
        BYTE   W03
        BYTE                   En5   v028
        BYTE   W03
        BYTE                   Dn5   v024
        BYTE   W03
        BYTE           N02     En5   v020
        BYTE   W03
        BYTE                   Dn5   v016
        BYTE   W03
        BYTE           N03     En5   v012
        BYTE   W03
        BYTE                   Dn5   v008
        BYTE   W24
        BYTE   W03
        BYTE   PEND
// 033   ----------------------------------------
        BYTE   W96
// 034   ----------------------------------------
        BYTE   W96
// 035   ----------------------------------------
        BYTE   W96
// 036   ----------------------------------------
        BYTE   W96
// 037   ----------------------------------------
        BYTE   W96
// 038   ----------------------------------------
        BYTE   W96
// 039   ----------------------------------------
        BYTE   W96
// 040   ----------------------------------------
        BYTE   W96
// 041   ----------------------------------------
        BYTE   W96
// 042   ----------------------------------------
        BYTE   W96
// 043   ----------------------------------------
        BYTE   W96
// 044   ----------------------------------------
        BYTE   W96
// 045   ----------------------------------------
        BYTE   W96
// 046   ----------------------------------------
        BYTE   W96
// 047   ----------------------------------------
        BYTE   W96
// 048   ----------------------------------------
        BYTE   W96
// 049   ----------------------------------------
        BYTE   W96
// 050   ----------------------------------------
        BYTE   W96
// 051   ----------------------------------------
        BYTE   PATT
         POIN2  Principality_10_27
// 052   ----------------------------------------
        BYTE   W96
// 053   ----------------------------------------
        BYTE   W96
// 054   ----------------------------------------
        BYTE   W96
// 055   ----------------------------------------
        BYTE   W96
// 056   ----------------------------------------
        BYTE   W96
// 057   ----------------------------------------
        BYTE   W96
// 058   ----------------------------------------
        BYTE   W96
// 059   ----------------------------------------
        BYTE   PATT
         POIN2  Principality_10_27
// 060   ----------------------------------------
        BYTE   W96
// 061   ----------------------------------------
        BYTE   W96
// 062   ----------------------------------------
        BYTE   W96
// 063   ----------------------------------------
        BYTE   W96
// 064   ----------------------------------------
        BYTE   W96
// 065   ----------------------------------------
        BYTE   W96
// 066   ----------------------------------------
        BYTE   W96
// 067   ----------------------------------------
        BYTE   W96
// 068   ----------------------------------------
        BYTE   W96
// 069   ----------------------------------------
        BYTE   W96
// 070   ----------------------------------------
        BYTE   W96
// 071   ----------------------------------------
        BYTE   PATT
         POIN2  Principality_10_31
// 072   ----------------------------------------
        BYTE   PATT
         POIN2  Principality_10_32
// 073   ----------------------------------------
        BYTE   W96
// 074   ----------------------------------------
        BYTE   W96
// 075   ----------------------------------------
        BYTE   W96
// 076   ----------------------------------------
        BYTE   W96
// 077   ----------------------------------------
        BYTE   W96
// 078   ----------------------------------------
        BYTE   W96
// 079   ----------------------------------------
        BYTE   W96
// 080   ----------------------------------------
        BYTE   W96
// 081   ----------------------------------------
        BYTE   W96
// 082   ----------------------------------------
        BYTE   W96
// 083   ----------------------------------------
        BYTE   W96
// 084   ----------------------------------------
        BYTE   W96
// 085   ----------------------------------------
        BYTE   W96
// 086   ----------------------------------------
        BYTE   W96
// 087   ----------------------------------------
        BYTE   W96
// 088   ----------------------------------------
        BYTE   W96
// 089   ----------------------------------------
        BYTE   W96
// 090   ----------------------------------------
        BYTE   W96
// 091   ----------------------------------------
        BYTE   PATT
         POIN2  Principality_10_27
// 092   ----------------------------------------
        BYTE   W96
// 093   ----------------------------------------
        BYTE   W96
// 094   ----------------------------------------
        BYTE   W96
// 095   ----------------------------------------
        BYTE   W96
// 096   ----------------------------------------
        BYTE   W96
// 097   ----------------------------------------
        BYTE   W96
// 098   ----------------------------------------
        BYTE   W96
// 099   ----------------------------------------
        BYTE   PATT
         POIN2  Principality_10_27
// 100   ----------------------------------------
        BYTE   W96
// 101   ----------------------------------------
        BYTE   W96
// 102   ----------------------------------------
        BYTE   W96
// 103   ----------------------------------------
        BYTE   W96
// 104   ----------------------------------------
        BYTE   W96
// 105   ----------------------------------------
        BYTE   W96
// 106   ----------------------------------------
        BYTE   W96
// 107   ----------------------------------------
        BYTE   W96
// 108   ----------------------------------------
        BYTE   W96
// 109   ----------------------------------------
        BYTE   W96
// 110   ----------------------------------------
        BYTE   W96
// 111   ----------------------------------------
        BYTE   W96
// 112   ----------------------------------------
        BYTE   W96
// 113   ----------------------------------------
        BYTE   W96
// 114   ----------------------------------------
        BYTE   W96
// 115   ----------------------------------------
        BYTE   W96
// 116   ----------------------------------------
        BYTE   W96
// 117   ----------------------------------------
        BYTE   W96
// 118   ----------------------------------------
        BYTE   W96
// 119   ----------------------------------------
        BYTE   W96
// 120   ----------------------------------------
        BYTE   W96
// 121   ----------------------------------------
        BYTE   W96
// 122   ----------------------------------------
        BYTE   W96
// 123   ----------------------------------------
        BYTE   W96
// 124   ----------------------------------------
        BYTE   W96
// 125   ----------------------------------------
        BYTE   W96
// 126   ----------------------------------------
        BYTE   W96
// 127   ----------------------------------------
        BYTE   W96
// 128   ----------------------------------------
        BYTE   GoTo
         POIN2  Principality_10_LOOP
        BYTE   FINE

//***************** Track 11 (Midi-Chn.12) *****************//

Principality_11:
        BYTE   KEYSH   Principality_key+0
// 000   ----------------------------------------
        BYTE           VOICE   116
        BYTE           VOL     42
        BYTE           PAN     c_v-14
        BYTE   W96
// 001   ----------------------------------------
        BYTE   W96
// 002   ----------------------------------------
        BYTE   W96
// 003   ----------------------------------------
        BYTE   W96
// 004   ----------------------------------------
        BYTE   W96
// 005   ----------------------------------------
        BYTE   W96
// 006   ----------------------------------------
        BYTE   W96
// 007   ----------------------------------------
        BYTE   W96
// 008   ----------------------------------------
Principality_11_LOOP:
        BYTE   W96
// 009   ----------------------------------------
        BYTE   W96
// 010   ----------------------------------------
        BYTE   W96
// 011   ----------------------------------------
        BYTE   W96
// 012   ----------------------------------------
        BYTE   W96
// 013   ----------------------------------------
        BYTE   W96
// 014   ----------------------------------------
        BYTE   W96
// 015   ----------------------------------------
        BYTE   W96
// 016   ----------------------------------------
Principality_11_16:
        BYTE           N03     Cn2   v127
        BYTE   W12
        BYTE           N04     Cn2   v124
        BYTE   W84
        BYTE   PEND
// 017   ----------------------------------------
        BYTE   W96
// 018   ----------------------------------------
        BYTE   W96
// 019   ----------------------------------------
        BYTE   W96
// 020   ----------------------------------------
Principality_11_20:
        BYTE           N04     Cn2   v116
        BYTE   W12
        BYTE           N05     Cn2   v127
        BYTE   W84
        BYTE   PEND
// 021   ----------------------------------------
        BYTE   W96
// 022   ----------------------------------------
        BYTE   W96
// 023   ----------------------------------------
        BYTE   W96
// 024   ----------------------------------------
        BYTE   W96
// 025   ----------------------------------------
        BYTE   W96
// 026   ----------------------------------------
        BYTE   W96
// 027   ----------------------------------------
        BYTE   W96
// 028   ----------------------------------------
        BYTE   W96
// 029   ----------------------------------------
        BYTE   W96
// 030   ----------------------------------------
        BYTE   W96
// 031   ----------------------------------------
        BYTE   W96
// 032   ----------------------------------------
        BYTE   W96
// 033   ----------------------------------------
        BYTE   W96
// 034   ----------------------------------------
        BYTE   W96
// 035   ----------------------------------------
        BYTE   W96
// 036   ----------------------------------------
        BYTE   W96
// 037   ----------------------------------------
        BYTE   W96
// 038   ----------------------------------------
        BYTE   W96
// 039   ----------------------------------------
        BYTE   W96
// 040   ----------------------------------------
        BYTE   PATT
         POIN2  Principality_11_16
// 041   ----------------------------------------
        BYTE   W96
// 042   ----------------------------------------
        BYTE   W96
// 043   ----------------------------------------
        BYTE   W96
// 044   ----------------------------------------
        BYTE   PATT
         POIN2  Principality_11_20
// 045   ----------------------------------------
        BYTE   W96
// 046   ----------------------------------------
        BYTE   W96
// 047   ----------------------------------------
        BYTE   W96
// 048   ----------------------------------------
        BYTE   W96
// 049   ----------------------------------------
        BYTE   W96
// 050   ----------------------------------------
        BYTE   W96
// 051   ----------------------------------------
        BYTE   W96
// 052   ----------------------------------------
        BYTE   W96
// 053   ----------------------------------------
        BYTE   W96
// 054   ----------------------------------------
        BYTE   W96
// 055   ----------------------------------------
        BYTE   W96
// 056   ----------------------------------------
        BYTE   W96
// 057   ----------------------------------------
        BYTE   W96
// 058   ----------------------------------------
        BYTE   W96
// 059   ----------------------------------------
        BYTE   W96
// 060   ----------------------------------------
        BYTE   W96
// 061   ----------------------------------------
        BYTE   W96
// 062   ----------------------------------------
        BYTE   W96
// 063   ----------------------------------------
        BYTE   W96
// 064   ----------------------------------------
        BYTE   W96
// 065   ----------------------------------------
        BYTE   W96
// 066   ----------------------------------------
        BYTE   W96
// 067   ----------------------------------------
        BYTE   W96
// 068   ----------------------------------------
        BYTE   W96
// 069   ----------------------------------------
        BYTE   W96
// 070   ----------------------------------------
        BYTE   W96
// 071   ----------------------------------------
        BYTE   W96
// 072   ----------------------------------------
        BYTE           VOL     56
        BYTE           N03     Cn2   v108
        BYTE   W12
        BYTE                   Cn2   v096
        BYTE   W12
        BYTE                   Cn3   v108
        BYTE   W72
// 073   ----------------------------------------
Principality_11_73:
        BYTE           N04     Cn2   v104
        BYTE   W12
        BYTE           N05     Cn2   v092
        BYTE   W12
        BYTE                   Gn1   v096
        BYTE   W72
        BYTE   PEND
// 074   ----------------------------------------
Principality_11_74:
        BYTE           N04     Cn2   v108
        BYTE   W12
        BYTE                   Cn2   v096
        BYTE   W12
        BYTE                   Cn3   v108
        BYTE   W72
        BYTE   PEND
// 075   ----------------------------------------
Principality_11_75:
        BYTE           N04     Cn2   v108
        BYTE   W12
        BYTE           N05     Cn2   v100
        BYTE   W12
        BYTE                   Gn1
        BYTE   W72
        BYTE   PEND
// 076   ----------------------------------------
Principality_11_76:
        BYTE           N04     Cn2   v100
        BYTE   W12
        BYTE                   Cn2   v096
        BYTE   W12
        BYTE                   Cn3   v112
        BYTE   W72
        BYTE   PEND
// 077   ----------------------------------------
Principality_11_77:
        BYTE           N04     Cn2   v096
        BYTE   W12
        BYTE           N05
        BYTE   W12
        BYTE                   Gn1
        BYTE   W72
        BYTE   PEND
// 078   ----------------------------------------
Principality_11_78:
        BYTE           N04     Cn2   v104
        BYTE   W12
        BYTE                   Cn2   v096
        BYTE   W12
        BYTE                   Cn3   v108
        BYTE   W72
        BYTE   PEND
// 079   ----------------------------------------
Principality_11_79:
        BYTE           N04     Cn2   v100
        BYTE   W12
        BYTE                   Cn2   v096
        BYTE   W12
        BYTE           N01     An1   v084
        BYTE           N04     Gn1   v096
        BYTE   W72
        BYTE   PEND
// 080   ----------------------------------------
        BYTE           N03     Cn2   v108
        BYTE   W12
        BYTE                   Cn2   v096
        BYTE   W12
        BYTE                   Cn3   v108
        BYTE   W72
// 081   ----------------------------------------
        BYTE   PATT
         POIN2  Principality_11_73
// 082   ----------------------------------------
        BYTE   PATT
         POIN2  Principality_11_74
// 083   ----------------------------------------
        BYTE   PATT
         POIN2  Principality_11_75
// 084   ----------------------------------------
        BYTE   PATT
         POIN2  Principality_11_76
// 085   ----------------------------------------
        BYTE   PATT
         POIN2  Principality_11_77
// 086   ----------------------------------------
        BYTE   PATT
         POIN2  Principality_11_78
// 087   ----------------------------------------
        BYTE   PATT
         POIN2  Principality_11_79
// 088   ----------------------------------------
        BYTE   W96
// 089   ----------------------------------------
        BYTE   W96
// 090   ----------------------------------------
        BYTE   W96
// 091   ----------------------------------------
        BYTE   W96
// 092   ----------------------------------------
        BYTE   W96
// 093   ----------------------------------------
        BYTE   W96
// 094   ----------------------------------------
        BYTE   W96
// 095   ----------------------------------------
        BYTE   W96
// 096   ----------------------------------------
        BYTE   W96
// 097   ----------------------------------------
        BYTE   W96
// 098   ----------------------------------------
        BYTE   W96
// 099   ----------------------------------------
        BYTE   W96
// 100   ----------------------------------------
        BYTE   W96
// 101   ----------------------------------------
        BYTE   W96
// 102   ----------------------------------------
        BYTE   W96
// 103   ----------------------------------------
        BYTE   W96
// 104   ----------------------------------------
        BYTE   W96
// 105   ----------------------------------------
        BYTE   W96
// 106   ----------------------------------------
        BYTE   W96
// 107   ----------------------------------------
        BYTE   W96
// 108   ----------------------------------------
        BYTE   W96
// 109   ----------------------------------------
        BYTE   W96
// 110   ----------------------------------------
        BYTE   W96
// 111   ----------------------------------------
        BYTE   W96
// 112   ----------------------------------------
        BYTE   W96
// 113   ----------------------------------------
        BYTE   W96
// 114   ----------------------------------------
        BYTE   W96
// 115   ----------------------------------------
        BYTE   W96
// 116   ----------------------------------------
        BYTE   W96
// 117   ----------------------------------------
        BYTE   W96
// 118   ----------------------------------------
        BYTE   W96
// 119   ----------------------------------------
        BYTE   W96
// 120   ----------------------------------------
        BYTE   W96
// 121   ----------------------------------------
        BYTE   W96
// 122   ----------------------------------------
        BYTE   W96
// 123   ----------------------------------------
        BYTE   W96
// 124   ----------------------------------------
        BYTE   W96
// 125   ----------------------------------------
        BYTE   W96
// 126   ----------------------------------------
        BYTE   W96
// 127   ----------------------------------------
        BYTE   W96
// 128   ----------------------------------------
        BYTE           VOL     42
        BYTE   GoTo
         POIN2  Principality_11_LOOP
        BYTE   FINE

//***************** Track 12 (Midi-Chn.13) *****************//

Principality_12:
        BYTE   KEYSH   Principality_key+0
// 000   ----------------------------------------
        BYTE           VOICE   44
        BYTE           VOL     62
        BYTE           PAN     c_v-38
        BYTE   W96
// 001   ----------------------------------------
        BYTE   W96
// 002   ----------------------------------------
        BYTE   W96
// 003   ----------------------------------------
        BYTE   W96
// 004   ----------------------------------------
        BYTE   W96
// 005   ----------------------------------------
        BYTE   W96
// 006   ----------------------------------------
        BYTE   W96
// 007   ----------------------------------------
        BYTE   W96
// 008   ----------------------------------------
Principality_12_LOOP:
        BYTE   W96
// 009   ----------------------------------------
        BYTE   W96
// 010   ----------------------------------------
        BYTE   W96
// 011   ----------------------------------------
        BYTE   W96
// 012   ----------------------------------------
        BYTE   W96
// 013   ----------------------------------------
        BYTE   W96
// 014   ----------------------------------------
        BYTE   W96
// 015   ----------------------------------------
        BYTE   W96
// 016   ----------------------------------------
        BYTE   W96
// 017   ----------------------------------------
        BYTE   W96
// 018   ----------------------------------------
        BYTE   W96
// 019   ----------------------------------------
        BYTE   W96
// 020   ----------------------------------------
        BYTE   W96
// 021   ----------------------------------------
        BYTE   W96
// 022   ----------------------------------------
        BYTE   W96
// 023   ----------------------------------------
        BYTE   W96
// 024   ----------------------------------------
        BYTE   W96
// 025   ----------------------------------------
        BYTE   W96
// 026   ----------------------------------------
        BYTE   W96
// 027   ----------------------------------------
        BYTE   W96
// 028   ----------------------------------------
        BYTE   W96
// 029   ----------------------------------------
        BYTE   W96
// 030   ----------------------------------------
        BYTE   W96
// 031   ----------------------------------------
        BYTE   W96
// 032   ----------------------------------------
        BYTE   W96
// 033   ----------------------------------------
        BYTE   W96
// 034   ----------------------------------------
        BYTE   W96
// 035   ----------------------------------------
        BYTE   W96
// 036   ----------------------------------------
        BYTE   W96
// 037   ----------------------------------------
        BYTE   W96
// 038   ----------------------------------------
        BYTE   W96
// 039   ----------------------------------------
        BYTE   W96
// 040   ----------------------------------------
        BYTE   W96
// 041   ----------------------------------------
        BYTE   W96
// 042   ----------------------------------------
        BYTE   W96
// 043   ----------------------------------------
        BYTE   W96
// 044   ----------------------------------------
        BYTE   W96
// 045   ----------------------------------------
        BYTE   W96
// 046   ----------------------------------------
        BYTE   W96
// 047   ----------------------------------------
        BYTE   W96
// 048   ----------------------------------------
        BYTE   W96
// 049   ----------------------------------------
        BYTE   W96
// 050   ----------------------------------------
        BYTE   W96
// 051   ----------------------------------------
        BYTE   W96
// 052   ----------------------------------------
        BYTE   W96
// 053   ----------------------------------------
        BYTE   W96
// 054   ----------------------------------------
        BYTE   W96
// 055   ----------------------------------------
        BYTE   W96
// 056   ----------------------------------------
        BYTE   W96
// 057   ----------------------------------------
        BYTE   W96
// 058   ----------------------------------------
        BYTE   W96
// 059   ----------------------------------------
        BYTE   W96
// 060   ----------------------------------------
        BYTE   W96
// 061   ----------------------------------------
        BYTE   W96
// 062   ----------------------------------------
        BYTE   W96
// 063   ----------------------------------------
        BYTE   W96
// 064   ----------------------------------------
        BYTE   W96
// 065   ----------------------------------------
        BYTE   W96
// 066   ----------------------------------------
        BYTE   W96
// 067   ----------------------------------------
        BYTE   W96
// 068   ----------------------------------------
        BYTE   W96
// 069   ----------------------------------------
        BYTE   W96
// 070   ----------------------------------------
        BYTE   W96
// 071   ----------------------------------------
        BYTE   W96
// 072   ----------------------------------------
Principality_12_72:
        BYTE           N04     En3   v092
        BYTE           N05     Bn2   v100
        BYTE   W24
        BYTE           N06     En3   v092
        BYTE           N08     Bn2   v088
        BYTE   W18
        BYTE           N01     En3   v040
        BYTE           N02     Bn2   v060
        BYTE   W06
        BYTE           N05     En3   v100
        BYTE           N05     Bn2   v092
        BYTE           N04     En2   v080
        BYTE   W12
        BYTE           N03     Bn2   v020
        BYTE   W24
        BYTE           N08     En3   v104
        BYTE           N08     Bn2   v100
        BYTE   W12
        BYTE   PEND
// 073   ----------------------------------------
Principality_12_73:
        BYTE           N05     Dn3   v092
        BYTE           N05     An2
        BYTE   W24
        BYTE           N04     Dn3   v084
        BYTE           N05     An2   v096
        BYTE   W18
        BYTE           N02     An2   v028
        BYTE   W06
        BYTE           N06     Dn3   v104
        BYTE           N07     An2   v092
        BYTE           N05     Dn2   v084
        BYTE   W36
        BYTE           N10     Dn3   v104
        BYTE           N10     An2   v092
        BYTE   W12
        BYTE   PEND
// 074   ----------------------------------------
Principality_12_74:
        BYTE           N01     En3   v076
        BYTE           N05     Bn2
        BYTE           N05     En2
        BYTE   W24
        BYTE                   En3
        BYTE           N05     Bn2   v080
        BYTE   W18
        BYTE           N02     En3   v056
        BYTE           N02     Bn2   v052
        BYTE   W06
        BYTE           N06     En3   v092
        BYTE           N06     Bn2   v084
        BYTE           N04     En2
        BYTE   W24
        BYTE           N02     Bn2   v060
        BYTE   W12
        BYTE           N08     En3   v100
        BYTE           N08     Bn2   v096
        BYTE   W12
        BYTE   PEND
// 075   ----------------------------------------
Principality_12_75:
        BYTE           N05     Dn3   v084
        BYTE           N05     An2   v092
        BYTE           N04     Dn2   v076
        BYTE   W24
        BYTE           N05     Dn3   v096
        BYTE           N04     An2   v092
        BYTE   W18
        BYTE           N02     Dn3   v072
        BYTE           N03     An2   v076
        BYTE   W06
        BYTE           N06     Dn3   v108
        BYTE           N06     An2   v100
        BYTE           N05     Dn2   v092
        BYTE   W24
        BYTE           N03     An2   v060
        BYTE   W12
        BYTE           N10     Dn3   v112
        BYTE           N10     An2   v104
        BYTE           N04     Dn2   v096
        BYTE   W12
        BYTE   PEND
// 076   ----------------------------------------
        BYTE   PATT
         POIN2  Principality_12_72
// 077   ----------------------------------------
        BYTE   PATT
         POIN2  Principality_12_73
// 078   ----------------------------------------
        BYTE   PATT
         POIN2  Principality_12_74
// 079   ----------------------------------------
        BYTE   PATT
         POIN2  Principality_12_75
// 080   ----------------------------------------
        BYTE   PATT
         POIN2  Principality_12_72
// 081   ----------------------------------------
        BYTE   PATT
         POIN2  Principality_12_73
// 082   ----------------------------------------
        BYTE   PATT
         POIN2  Principality_12_74
// 083   ----------------------------------------
        BYTE   PATT
         POIN2  Principality_12_75
// 084   ----------------------------------------
        BYTE   PATT
         POIN2  Principality_12_72
// 085   ----------------------------------------
        BYTE   PATT
         POIN2  Principality_12_73
// 086   ----------------------------------------
        BYTE   PATT
         POIN2  Principality_12_74
// 087   ----------------------------------------
        BYTE   PATT
         POIN2  Principality_12_75
// 088   ----------------------------------------
        BYTE   W96
// 089   ----------------------------------------
        BYTE   W96
// 090   ----------------------------------------
        BYTE   W96
// 091   ----------------------------------------
        BYTE   W96
// 092   ----------------------------------------
        BYTE   W96
// 093   ----------------------------------------
        BYTE   W96
// 094   ----------------------------------------
        BYTE   W96
// 095   ----------------------------------------
        BYTE   W96
// 096   ----------------------------------------
        BYTE   W96
// 097   ----------------------------------------
        BYTE   W96
// 098   ----------------------------------------
        BYTE   W96
// 099   ----------------------------------------
        BYTE   W96
// 100   ----------------------------------------
        BYTE   W96
// 101   ----------------------------------------
        BYTE   W96
// 102   ----------------------------------------
        BYTE   W96
// 103   ----------------------------------------
        BYTE   W96
// 104   ----------------------------------------
        BYTE   W96
// 105   ----------------------------------------
        BYTE   W96
// 106   ----------------------------------------
        BYTE   W96
// 107   ----------------------------------------
        BYTE   W96
// 108   ----------------------------------------
        BYTE   W96
// 109   ----------------------------------------
        BYTE   W96
// 110   ----------------------------------------
        BYTE   W96
// 111   ----------------------------------------
        BYTE   W96
// 112   ----------------------------------------
        BYTE   W96
// 113   ----------------------------------------
        BYTE   W96
// 114   ----------------------------------------
        BYTE   W96
// 115   ----------------------------------------
        BYTE   W96
// 116   ----------------------------------------
        BYTE   W96
// 117   ----------------------------------------
        BYTE   W96
// 118   ----------------------------------------
        BYTE   W96
// 119   ----------------------------------------
        BYTE   W96
// 120   ----------------------------------------
        BYTE   W96
// 121   ----------------------------------------
        BYTE   W96
// 122   ----------------------------------------
        BYTE   W96
// 123   ----------------------------------------
        BYTE   W96
// 124   ----------------------------------------
        BYTE   W96
// 125   ----------------------------------------
        BYTE   W96
// 126   ----------------------------------------
        BYTE   W96
// 127   ----------------------------------------
        BYTE   W96
// 128   ----------------------------------------
        BYTE   GoTo
         POIN2  Principality_12_LOOP
        BYTE   FINE

//***************** Track 13 (Midi-Chn.14) *****************//

Principality_13:
        BYTE   KEYSH   Principality_key+0
// 000   ----------------------------------------
        BYTE           VOICE   46
        BYTE           VOL     61
        BYTE           PAN     c_v-34
        BYTE   W96
// 001   ----------------------------------------
        BYTE   W96
// 002   ----------------------------------------
        BYTE   W96
// 003   ----------------------------------------
        BYTE   W96
// 004   ----------------------------------------
        BYTE   W96
// 005   ----------------------------------------
        BYTE   W96
// 006   ----------------------------------------
        BYTE   W96
// 007   ----------------------------------------
        BYTE   W96
// 008   ----------------------------------------
Principality_13_LOOP:
        BYTE   W96
// 009   ----------------------------------------
        BYTE   W96
// 010   ----------------------------------------
        BYTE   W96
// 011   ----------------------------------------
        BYTE   W96
// 012   ----------------------------------------
        BYTE   W96
// 013   ----------------------------------------
        BYTE   W96
// 014   ----------------------------------------
        BYTE   W96
// 015   ----------------------------------------
        BYTE   W96
// 016   ----------------------------------------
        BYTE   W96
// 017   ----------------------------------------
        BYTE   W96
// 018   ----------------------------------------
        BYTE   W96
// 019   ----------------------------------------
        BYTE   W96
// 020   ----------------------------------------
        BYTE   W96
// 021   ----------------------------------------
        BYTE   W96
// 022   ----------------------------------------
        BYTE   W96
// 023   ----------------------------------------
        BYTE   W96
// 024   ----------------------------------------
        BYTE   W96
// 025   ----------------------------------------
        BYTE   W96
// 026   ----------------------------------------
        BYTE   W96
// 027   ----------------------------------------
        BYTE   W96
// 028   ----------------------------------------
        BYTE   W96
// 029   ----------------------------------------
        BYTE   W96
// 030   ----------------------------------------
        BYTE   W96
// 031   ----------------------------------------
        BYTE   W96
// 032   ----------------------------------------
        BYTE   W96
// 033   ----------------------------------------
        BYTE   W96
// 034   ----------------------------------------
        BYTE   W96
// 035   ----------------------------------------
        BYTE   W96
// 036   ----------------------------------------
        BYTE   W96
// 037   ----------------------------------------
        BYTE   W96
// 038   ----------------------------------------
        BYTE   W96
// 039   ----------------------------------------
        BYTE   W96
// 040   ----------------------------------------
        BYTE   W96
// 041   ----------------------------------------
        BYTE   W96
// 042   ----------------------------------------
        BYTE   W96
// 043   ----------------------------------------
        BYTE   W96
// 044   ----------------------------------------
        BYTE   W96
// 045   ----------------------------------------
        BYTE   W96
// 046   ----------------------------------------
        BYTE   W96
// 047   ----------------------------------------
        BYTE   W96
// 048   ----------------------------------------
Principality_13_48:
        BYTE           N05     Gn4   v092
        BYTE   W06
        BYTE           N04     En4   v080
        BYTE   W06
        BYTE           N07     Bn3   v072
        BYTE   W06
        BYTE           N06     En4   v068
        BYTE   W06
        BYTE           N09     Gn4   v080
        BYTE   W06
        BYTE           N05     En4   v072
        BYTE   W06
        BYTE           N08     Bn3   v068
        BYTE   W06
        BYTE           N07     En4   v072
        BYTE   W06
        BYTE           N09     Gn4   v084
        BYTE   W06
        BYTE           N05     En4   v068
        BYTE   W06
        BYTE           N08     Bn3
        BYTE   W06
        BYTE           N06     En4   v060
        BYTE   W06
        BYTE           N09     Gn4   v084
        BYTE   W06
        BYTE           N05     En4   v052
        BYTE   W06
        BYTE           N07     Bn3   v060
        BYTE   W06
        BYTE           N04     En4   v056
        BYTE   W06
        BYTE   PEND
// 049   ----------------------------------------
Principality_13_49:
        BYTE           N09     Fs4   v080
        BYTE   W06
        BYTE           N05     Dn4   v076
        BYTE   W06
        BYTE           N08     An3   v060
        BYTE   W06
        BYTE           N06     Dn4   v068
        BYTE   W06
        BYTE           N08     Fs4   v084
        BYTE   W06
        BYTE           N05     Dn4   v052
        BYTE   W06
        BYTE           N08     An3   v060
        BYTE   W06
        BYTE           N05     Dn4
        BYTE   W06
        BYTE           N08     Fs4   v080
        BYTE   W06
        BYTE           N04     Dn4   v060
        BYTE   W06
        BYTE           N08     An3
        BYTE   W06
        BYTE           N06     Dn4   v056
        BYTE   W06
        BYTE           N10     Fs4   v084
        BYTE   W06
        BYTE           N05     Dn4   v056
        BYTE   W06
        BYTE           N08     An3   v060
        BYTE   W06
        BYTE           N07     Dn4   v056
        BYTE   W06
        BYTE   PEND
// 050   ----------------------------------------
Principality_13_50:
        BYTE           N10     Gn4   v076
        BYTE   W06
        BYTE           N05     En4   v072
        BYTE   W06
        BYTE           N08     Bn3
        BYTE   W06
        BYTE           N06     En4
        BYTE   W06
        BYTE           N08     Gn4   v080
        BYTE   W06
        BYTE           N05     En4   v060
        BYTE   W06
        BYTE           N07     Bn3   v072
        BYTE   W06
        BYTE                   En4   v064
        BYTE   W06
        BYTE           N08     Gn4   v080
        BYTE   W06
        BYTE           N05     En4   v060
        BYTE   W06
        BYTE           N08     Bn3   v068
        BYTE   W06
        BYTE           N07     En4   v060
        BYTE   W06
        BYTE           N09     Gn4   v088
        BYTE   W06
        BYTE           N07     En4   v052
        BYTE   W06
        BYTE                   Bn3   v068
        BYTE   W12
        BYTE   PEND
// 051   ----------------------------------------
Principality_13_51:
        BYTE           N09     Fs4   v080
        BYTE           N02     En4   v020
        BYTE   W06
        BYTE           N05     Dn4   v064
        BYTE   W06
        BYTE           N07     An3
        BYTE   W06
        BYTE           N06     Dn4   v060
        BYTE   W06
        BYTE           N08     Fs4   v084
        BYTE   W06
        BYTE           N06     Dn4   v064
        BYTE   W06
        BYTE           N08     An3   v072
        BYTE   W06
        BYTE           N06     Dn4   v068
        BYTE   W06
        BYTE           N09     Fs4   v084
        BYTE   W06
        BYTE           N05     Dn4   v052
        BYTE   W06
        BYTE           N08     An3   v064
        BYTE   W06
        BYTE           N06     Dn4   v060
        BYTE   W06
        BYTE           N09     Fs4   v084
        BYTE   W06
        BYTE           N06     Dn4   v072
        BYTE   W06
        BYTE           N05     An3   v060
        BYTE   W12
        BYTE   PEND
// 052   ----------------------------------------
        BYTE   PATT
         POIN2  Principality_13_48
// 053   ----------------------------------------
        BYTE   PATT
         POIN2  Principality_13_49
// 054   ----------------------------------------
        BYTE   PATT
         POIN2  Principality_13_50
// 055   ----------------------------------------
        BYTE   PATT
         POIN2  Principality_13_51
// 056   ----------------------------------------
Principality_13_56:
        BYTE           N05     Gn4   v092
        BYTE           N05     Bn3   v096
        BYTE   W06
        BYTE           N04     En4   v080
        BYTE           N04     Gn3   v084
        BYTE   W06
        BYTE           N07     Bn3   v072
        BYTE           N07     Gn3   v068
        BYTE           N08     En3   v072
        BYTE   W06
        BYTE           N06     En4   v068
        BYTE   W06
        BYTE           N09     Gn4   v080
        BYTE           N08     Bn3   v092
        BYTE   W06
        BYTE           N05     En4   v072
        BYTE           N05     Gn3   v068
        BYTE   W06
        BYTE           N08     Bn3
        BYTE           N09     En3   v056
        BYTE   W06
        BYTE           N07     En4   v072
        BYTE           N06     Gn3
        BYTE   W06
        BYTE           N09     Gn4   v084
        BYTE           N08     Bn3   v088
        BYTE   W06
        BYTE           N05     En4   v068
        BYTE           N05     Gn3
        BYTE   W06
        BYTE           N08     Bn3
        BYTE           N09     En3
        BYTE   W06
        BYTE           N06     En4   v060
        BYTE           N06     Gn3
        BYTE   W06
        BYTE           N09     Gn4   v084
        BYTE           N09     Bn3   v096
        BYTE   W06
        BYTE           N05     En4   v052
        BYTE           N05     Gn3   v060
        BYTE   W06
        BYTE           N07     Bn3
        BYTE           N08     En3   v080
        BYTE   W06
        BYTE           N04     En4   v056
        BYTE           N04     An3   v060
        BYTE           N02     Gn3   v052
        BYTE   W06
        BYTE   PEND
// 057   ----------------------------------------
Principality_13_57:
        BYTE           N09     Fs4   v080
        BYTE           N08     Cs4   v088
        BYTE   W06
        BYTE           N05     Dn4   v076
        BYTE           N03     An3   v060
        BYTE   W06
        BYTE           N06
        BYTE           N08     En3   v064
        BYTE   W06
        BYTE           N06     Dn4   v068
        BYTE           N07     An3   v060
        BYTE   W06
        BYTE           N08     Fs4   v084
        BYTE           N07     Cs4   v088
        BYTE   W06
        BYTE           N05     Dn4   v052
        BYTE           N05     An3   v060
        BYTE   W06
        BYTE           N06
        BYTE           N08     En3   v068
        BYTE   W06
        BYTE           N05     Dn4   v060
        BYTE           N07     An3   v076
        BYTE   W06
        BYTE           N08     Fs4   v080
        BYTE           N07     Cs4   v100
        BYTE   W06
        BYTE           N04     Dn4   v060
        BYTE           N06     An3   v056
        BYTE   W06
        BYTE                   An3   v060
        BYTE           N09     En3   v076
        BYTE   W06
        BYTE           N06     Dn4   v056
        BYTE           N06     An3   v068
        BYTE   W06
        BYTE           N10     Fs4   v084
        BYTE           N07     Cs4   v088
        BYTE   W06
        BYTE           N05     Dn4   v056
        BYTE           N06     An3   v060
        BYTE   W06
        BYTE           N08
        BYTE           N09     En3   v076
        BYTE   W06
        BYTE           N07     Dn4   v056
        BYTE           N06     Gn3   v068
        BYTE   W06
        BYTE   PEND
// 058   ----------------------------------------
Principality_13_58:
        BYTE           N10     Gn4   v076
        BYTE           N09     Bn3   v092
        BYTE   W06
        BYTE           N05     En4   v072
        BYTE           N04     Gn3   v080
        BYTE   W06
        BYTE           N08     Bn3   v072
        BYTE           N08     En3   v076
        BYTE   W06
        BYTE           N06     En4   v072
        BYTE           N06     Gn3   v068
        BYTE   W06
        BYTE           N08     Gn4   v080
        BYTE           N08     Bn3   v100
        BYTE   W06
        BYTE           N05     En4   v060
        BYTE           N05     Gn3   v076
        BYTE   W06
        BYTE           N07     Bn3   v072
        BYTE           N09     En3   v080
        BYTE   W06
        BYTE           N07     En4   v064
        BYTE           N05     Gn3
        BYTE   W06
        BYTE           N08     Gn4   v080
        BYTE           N07     Bn3   v104
        BYTE   W06
        BYTE           N05     En4   v060
        BYTE           N04     Gn3   v072
        BYTE   W06
        BYTE           N08     Bn3   v068
        BYTE           N09     En3   v080
        BYTE   W06
        BYTE           N07     En4   v060
        BYTE           N06     Gn3   v068
        BYTE   W06
        BYTE           N09     Gn4   v088
        BYTE           N08     Bn3   v092
        BYTE   W06
        BYTE           N07     En4   v052
        BYTE           N05     Gn3   v060
        BYTE   W06
        BYTE           N07     Bn3   v068
        BYTE           N09     En3
        BYTE   W06
        BYTE           N05     Gn3   v072
        BYTE   W06
        BYTE   PEND
// 059   ----------------------------------------
Principality_13_59:
        BYTE           N09     Fs4   v080
        BYTE           N02     En4   v020
        BYTE           N08     Cs4   v092
        BYTE   W06
        BYTE           N05     Dn4   v064
        BYTE           N04     An3   v076
        BYTE   W06
        BYTE           N06     An3   v064
        BYTE           N09     En3   v056
        BYTE   W06
        BYTE           N06     Dn4   v060
        BYTE           N07     An3
        BYTE   W06
        BYTE           N08     Fs4   v084
        BYTE           N07     Cs4
        BYTE   W06
        BYTE           N06     Dn4   v064
        BYTE           N06     An3   v060
        BYTE   W06
        BYTE                   An3   v072
        BYTE           N09     En3   v076
        BYTE   W06
        BYTE           N06     Dn4   v068
        BYTE           N07     An3   v076
        BYTE   W06
        BYTE           N09     Fs4   v084
        BYTE           N08     Cs4
        BYTE   W06
        BYTE           N05     Dn4   v052
        BYTE           N05     An3   v060
        BYTE   W06
        BYTE           N06     An3   v064
        BYTE           N09     En3   v068
        BYTE   W06
        BYTE           N06     Dn4   v060
        BYTE           N07     An3   v068
        BYTE   W06
        BYTE           N09     Fs4   v084
        BYTE           N07     Cs4   v092
        BYTE   W06
        BYTE           N06     Dn4   v072
        BYTE           N06     An3   v056
        BYTE   W06
        BYTE           N05     An3   v060
        BYTE           N05     En3   v080
        BYTE   W12
        BYTE   PEND
// 060   ----------------------------------------
        BYTE   PATT
         POIN2  Principality_13_56
// 061   ----------------------------------------
        BYTE   PATT
         POIN2  Principality_13_57
// 062   ----------------------------------------
        BYTE   PATT
         POIN2  Principality_13_58
// 063   ----------------------------------------
        BYTE   PATT
         POIN2  Principality_13_59
// 064   ----------------------------------------
        BYTE   W96
// 065   ----------------------------------------
        BYTE   W96
// 066   ----------------------------------------
        BYTE   W96
// 067   ----------------------------------------
        BYTE   W96
// 068   ----------------------------------------
        BYTE   W96
// 069   ----------------------------------------
        BYTE   W96
// 070   ----------------------------------------
        BYTE   W96
// 071   ----------------------------------------
        BYTE   W96
// 072   ----------------------------------------
        BYTE   W96
// 073   ----------------------------------------
        BYTE   W96
// 074   ----------------------------------------
        BYTE   W96
// 075   ----------------------------------------
        BYTE   W96
// 076   ----------------------------------------
        BYTE   W96
// 077   ----------------------------------------
        BYTE   W96
// 078   ----------------------------------------
        BYTE   W96
// 079   ----------------------------------------
        BYTE   W96
// 080   ----------------------------------------
        BYTE   W96
// 081   ----------------------------------------
        BYTE   W96
// 082   ----------------------------------------
        BYTE   W96
// 083   ----------------------------------------
        BYTE   W96
// 084   ----------------------------------------
        BYTE   W96
// 085   ----------------------------------------
        BYTE   W96
// 086   ----------------------------------------
        BYTE   W96
// 087   ----------------------------------------
        BYTE   W96
// 088   ----------------------------------------
        BYTE   PATT
         POIN2  Principality_13_48
// 089   ----------------------------------------
        BYTE   PATT
         POIN2  Principality_13_49
// 090   ----------------------------------------
        BYTE   PATT
         POIN2  Principality_13_50
// 091   ----------------------------------------
        BYTE   PATT
         POIN2  Principality_13_51
// 092   ----------------------------------------
        BYTE   PATT
         POIN2  Principality_13_48
// 093   ----------------------------------------
        BYTE   PATT
         POIN2  Principality_13_49
// 094   ----------------------------------------
        BYTE   PATT
         POIN2  Principality_13_50
// 095   ----------------------------------------
        BYTE   PATT
         POIN2  Principality_13_51
// 096   ----------------------------------------
        BYTE   PATT
         POIN2  Principality_13_56
// 097   ----------------------------------------
        BYTE   PATT
         POIN2  Principality_13_57
// 098   ----------------------------------------
        BYTE   PATT
         POIN2  Principality_13_58
// 099   ----------------------------------------
        BYTE   PATT
         POIN2  Principality_13_59
// 100   ----------------------------------------
        BYTE   PATT
         POIN2  Principality_13_56
// 101   ----------------------------------------
        BYTE   PATT
         POIN2  Principality_13_57
// 102   ----------------------------------------
        BYTE   PATT
         POIN2  Principality_13_58
// 103   ----------------------------------------
        BYTE   PATT
         POIN2  Principality_13_59
// 104   ----------------------------------------
        BYTE   W96
// 105   ----------------------------------------
        BYTE   W96
// 106   ----------------------------------------
        BYTE   W96
// 107   ----------------------------------------
        BYTE   W96
// 108   ----------------------------------------
        BYTE   W96
// 109   ----------------------------------------
        BYTE   W96
// 110   ----------------------------------------
        BYTE   W96
// 111   ----------------------------------------
        BYTE   W96
// 112   ----------------------------------------
        BYTE   W96
// 113   ----------------------------------------
        BYTE   W96
// 114   ----------------------------------------
        BYTE   W96
// 115   ----------------------------------------
        BYTE   W96
// 116   ----------------------------------------
        BYTE   W96
// 117   ----------------------------------------
        BYTE   W96
// 118   ----------------------------------------
        BYTE   W96
// 119   ----------------------------------------
        BYTE   W96
// 120   ----------------------------------------
        BYTE           N05     En4   v088
        BYTE           N04     Bn3
        BYTE   W24
        BYTE           N03
        BYTE           N04     Gn3
        BYTE           N04     En3
        BYTE   W24
        BYTE                   En4   v084
        BYTE           N04     Bn3
        BYTE   W24
        BYTE                   Gn4   v080
        BYTE           N04     En4
        BYTE           N04     Bn3
        BYTE   W24
// 121   ----------------------------------------
        BYTE                   En4   v076
        BYTE           N04     Bn3
        BYTE   W24
        BYTE           N05
        BYTE           N05     Gn3
        BYTE           N05     En3
        BYTE   W24
        BYTE           N04     En4   v072
        BYTE           N04     Bn3
        BYTE   W24
        BYTE           N05     Gn4   v068
        BYTE           N04     En4
        BYTE           N05     Bn3
        BYTE   W24
// 122   ----------------------------------------
        BYTE           N04     En4
        BYTE           N05     Bn3
        BYTE   W24
        BYTE                   Bn3   v064
        BYTE           N05     Gn3
        BYTE           N04     En3
        BYTE   W24
        BYTE           N03     En4   v060
        BYTE           N03     Bn3
        BYTE   W24
        BYTE           N04     Gn4
        BYTE           N04     En4
        BYTE           N04     Bn3
        BYTE   W24
// 123   ----------------------------------------
        BYTE           N03     En4   v056
        BYTE           N05     Bn3
        BYTE   W24
        BYTE                   Bn3   v052
        BYTE           N05     Gn3
        BYTE           N06     En3
        BYTE   W24
        BYTE           N03     En4   v048
        BYTE           N04     Bn3
        BYTE   W24
        BYTE                   Gn4
        BYTE           N04     En4
        BYTE           N04     Bn3
        BYTE   W24
// 124   ----------------------------------------
        BYTE           N03     En4   v044
        BYTE           N05     Bn3
        BYTE   W24
        BYTE           N04     Bn3   v040
        BYTE           N05     Gn3
        BYTE           N06     En3
        BYTE   W24
        BYTE           N04     En4
        BYTE           N04     Bn3
        BYTE   W24
        BYTE                   Gn4   v036
        BYTE           N04     En4
        BYTE           N04     Bn3
        BYTE   W24
// 125   ----------------------------------------
        BYTE                   En4   v032
        BYTE           N04     Bn3
        BYTE   W24
        BYTE           N05
        BYTE           N05     Gn3
        BYTE           N06     En3
        BYTE   W24
        BYTE           N04     En4   v028
        BYTE           N04     Bn3
        BYTE   W24
        BYTE           N05     Gn4   v024
        BYTE           N04     En4
        BYTE           N05     Bn3
        BYTE   W24
// 126   ----------------------------------------
        BYTE           N04     En4   v020
        BYTE           N05     Bn3
        BYTE   W24
        BYTE           N04
        BYTE           N05     Gn3
        BYTE           N06     En3
        BYTE   W24
        BYTE           N04     En4   v016
        BYTE           N04     Bn3
        BYTE   W24
        BYTE                   Gn4   v012
        BYTE           N04     En4
        BYTE           N04     Bn3
        BYTE   W24
// 127   ----------------------------------------
        BYTE                   En4
        BYTE           N05     Bn3
        BYTE   W24
        BYTE                   Bn3   v008
        BYTE           N04     Gn3
        BYTE           N04     En3
        BYTE   W24
        BYTE                   En4   v004
        BYTE           N03     Bn3
        BYTE   W24
        BYTE                   Gn4
        BYTE           N03     En4
        BYTE           N03     Bn3
        BYTE   W24
// 128   ----------------------------------------
        BYTE   GoTo
         POIN2  Principality_13_LOOP
        BYTE   FINE

//***************** Track 14 (Midi-Chn.15) *****************//

Principality_14:
        BYTE   KEYSH   Principality_key+0
// 000   ----------------------------------------
        BYTE           VOICE   79
        BYTE           VOL     49
        BYTE           PAN     c_v-28
        BYTE   W96
// 001   ----------------------------------------
        BYTE   W96
// 002   ----------------------------------------
        BYTE   W96
// 003   ----------------------------------------
        BYTE   W96
// 004   ----------------------------------------
        BYTE   W96
// 005   ----------------------------------------
        BYTE   W96
// 006   ----------------------------------------
        BYTE   W96
// 007   ----------------------------------------
        BYTE   W96
// 008   ----------------------------------------
Principality_14_LOOP:
        BYTE   W96
// 009   ----------------------------------------
        BYTE   W96
// 010   ----------------------------------------
        BYTE   W96
// 011   ----------------------------------------
        BYTE   W96
// 012   ----------------------------------------
        BYTE   W96
// 013   ----------------------------------------
        BYTE   W96
// 014   ----------------------------------------
        BYTE   W96
// 015   ----------------------------------------
        BYTE   W96
// 016   ----------------------------------------
        BYTE   W96
// 017   ----------------------------------------
Principality_14_17:
        BYTE   W24
        BYTE           N02     Dn4   v120
        BYTE           N02     Bn3
        BYTE   W06
        BYTE                   Dn4   v116
        BYTE           N02     Bn3
        BYTE   W06
        BYTE           N04     Dn4   v112
        BYTE           N04     Bn3
        BYTE   W12
        BYTE           N01     Cs4   v116
        BYTE           N02     As3
        BYTE   W06
        BYTE                   Cs4   v112
        BYTE           N02     As3
        BYTE   W06
        BYTE           N03     Cs4   v108
        BYTE           N04     As3
        BYTE   W12
        BYTE           N01     Cn4   v112
        BYTE           N02     An3
        BYTE   W06
        BYTE                   Cn4   v108
        BYTE           N02     An3
        BYTE   W06
        BYTE           N04     Cn4   v104
        BYTE           N04     An3
        BYTE   W12
        BYTE   PEND
// 018   ----------------------------------------
Principality_14_18:
        BYTE           N03     Bn3   v104
        BYTE           N02     Gn3   v100
        BYTE   W12
        BYTE           N03     Bn3   v116
        BYTE           N03     Gn3
        BYTE   W84
        BYTE   PEND
// 019   ----------------------------------------
Principality_14_19:
        BYTE   W24
        BYTE           N02     Dn4   v120
        BYTE           N02     Bn3
        BYTE   W06
        BYTE           N03     Dn4   v112
        BYTE           N02     Bn3
        BYTE   W06
        BYTE           N04     Dn4   v108
        BYTE           N04     Bn3
        BYTE   W12
        BYTE           N01     Cs4   v116
        BYTE           N01     As3
        BYTE   W06
        BYTE           N02     Cs4   v104
        BYTE           N02     As3   v112
        BYTE   W06
        BYTE           N04     Cs4   v104
        BYTE           N04     As3
        BYTE   W12
        BYTE           N01     Cn4   v112
        BYTE           N01     Bn3
        BYTE           N01     An3
        BYTE   W06
        BYTE           N02     Cn4   v108
        BYTE           N02     An3
        BYTE   W06
        BYTE           N04     Cn4   v104
        BYTE           N03     An3
        BYTE   W06
        BYTE                   Cn4   v100
        BYTE           N03     An3
        BYTE   W06
        BYTE   PEND
// 020   ----------------------------------------
Principality_14_20:
        BYTE           N05     Bn3   v108
        BYTE           N04     Gn3
        BYTE   W12
        BYTE           N03     Bn3   v120
        BYTE           N03     Gn3
        BYTE   W84
        BYTE   PEND
// 021   ----------------------------------------
Principality_14_21:
        BYTE   W24
        BYTE           N02     Dn4   v116
        BYTE           N02     Bn3
        BYTE   W06
        BYTE                   Dn4   v108
        BYTE           N02     Bn3   v104
        BYTE   W06
        BYTE           N04     Dn4   v100
        BYTE           N04     Bn3
        BYTE   W12
        BYTE           N01     Cs4   v116
        BYTE           N01     As3
        BYTE   W06
        BYTE           N02     Cs4   v112
        BYTE           N02     As3
        BYTE   W06
        BYTE           N03     Cs4   v100
        BYTE           N03     As3
        BYTE   W12
        BYTE           N02     Cn4   v108
        BYTE           N02     An3   v112
        BYTE   W06
        BYTE           N03     Cn4   v104
        BYTE           N03     An3
        BYTE   W06
        BYTE           N04     Cn4   v096
        BYTE           N05     An3
        BYTE   W12
        BYTE   PEND
// 022   ----------------------------------------
Principality_14_22:
        BYTE           N04     Bn3   v108
        BYTE           N04     Gn3
        BYTE   W12
        BYTE           N02     Bn3   v120
        BYTE           N03     Gn3
        BYTE   W84
        BYTE   PEND
// 023   ----------------------------------------
Principality_14_23:
        BYTE   W12
        BYTE           N02     Dn4   v116
        BYTE           N02     Bn3
        BYTE   W06
        BYTE                   Dn4   v108
        BYTE           N02     Bn3
        BYTE   W06
        BYTE           N04     Dn4   v100
        BYTE           N03     Bn3
        BYTE   W12
        BYTE           N01     Ds4   v112
        BYTE           N01     Cs4
        BYTE           N01     Bn3
        BYTE           N01     As3
        BYTE   W06
        BYTE                   Cs4   v104
        BYTE           N02     As3
        BYTE   W06
        BYTE           N03     Cs4   v100
        BYTE           N04     As3
        BYTE   W12
        BYTE           N01     Cn4   v104
        BYTE           N01     An3
        BYTE   W06
        BYTE           N02     Cn4   v100
        BYTE           N03     An3
        BYTE   W06
        BYTE           N04     Cn4   v092
        BYTE           N04     An3
        BYTE   W12
        BYTE           N02     Cn4   v112
        BYTE           N02     An3
        BYTE   W12
        BYTE   PEND
// 024   ----------------------------------------
        BYTE   W96
// 025   ----------------------------------------
        BYTE   W96
// 026   ----------------------------------------
        BYTE   W96
// 027   ----------------------------------------
        BYTE   W96
// 028   ----------------------------------------
        BYTE   W96
// 029   ----------------------------------------
        BYTE   W96
// 030   ----------------------------------------
        BYTE   W96
// 031   ----------------------------------------
        BYTE   W96
// 032   ----------------------------------------
        BYTE   W96
// 033   ----------------------------------------
        BYTE   W96
// 034   ----------------------------------------
        BYTE   W96
// 035   ----------------------------------------
        BYTE   W96
// 036   ----------------------------------------
        BYTE   W96
// 037   ----------------------------------------
        BYTE   W96
// 038   ----------------------------------------
        BYTE   W96
// 039   ----------------------------------------
        BYTE   W96
// 040   ----------------------------------------
        BYTE   W96
// 041   ----------------------------------------
        BYTE   PATT
         POIN2  Principality_14_17
// 042   ----------------------------------------
        BYTE   PATT
         POIN2  Principality_14_18
// 043   ----------------------------------------
        BYTE   PATT
         POIN2  Principality_14_19
// 044   ----------------------------------------
        BYTE   PATT
         POIN2  Principality_14_20
// 045   ----------------------------------------
        BYTE   PATT
         POIN2  Principality_14_21
// 046   ----------------------------------------
        BYTE   PATT
         POIN2  Principality_14_22
// 047   ----------------------------------------
        BYTE   PATT
         POIN2  Principality_14_23
// 048   ----------------------------------------
        BYTE   W96
// 049   ----------------------------------------
        BYTE   W96
// 050   ----------------------------------------
        BYTE   W96
// 051   ----------------------------------------
        BYTE   W96
// 052   ----------------------------------------
        BYTE   W96
// 053   ----------------------------------------
        BYTE   W96
// 054   ----------------------------------------
        BYTE   W96
// 055   ----------------------------------------
        BYTE   W96
// 056   ----------------------------------------
        BYTE   W96
// 057   ----------------------------------------
        BYTE   W96
// 058   ----------------------------------------
        BYTE   W96
// 059   ----------------------------------------
        BYTE   W96
// 060   ----------------------------------------
        BYTE   W96
// 061   ----------------------------------------
        BYTE   W96
// 062   ----------------------------------------
        BYTE   W96
// 063   ----------------------------------------
        BYTE   W96
// 064   ----------------------------------------
        BYTE   W96
// 065   ----------------------------------------
        BYTE   W96
// 066   ----------------------------------------
        BYTE   W96
// 067   ----------------------------------------
        BYTE   W96
// 068   ----------------------------------------
        BYTE   W96
// 069   ----------------------------------------
        BYTE   W96
// 070   ----------------------------------------
        BYTE   W96
// 071   ----------------------------------------
        BYTE   W96
// 072   ----------------------------------------
        BYTE   W96
// 073   ----------------------------------------
        BYTE   W96
// 074   ----------------------------------------
        BYTE   W96
// 075   ----------------------------------------
        BYTE   W96
// 076   ----------------------------------------
        BYTE   W96
// 077   ----------------------------------------
        BYTE   W96
// 078   ----------------------------------------
        BYTE   W96
// 079   ----------------------------------------
        BYTE   W96
// 080   ----------------------------------------
        BYTE   W96
// 081   ----------------------------------------
        BYTE   W96
// 082   ----------------------------------------
        BYTE   W96
// 083   ----------------------------------------
        BYTE   W96
// 084   ----------------------------------------
        BYTE   W96
// 085   ----------------------------------------
        BYTE   W96
// 086   ----------------------------------------
        BYTE   W96
// 087   ----------------------------------------
        BYTE   W96
// 088   ----------------------------------------
        BYTE   W96
// 089   ----------------------------------------
        BYTE   W96
// 090   ----------------------------------------
        BYTE   W96
// 091   ----------------------------------------
        BYTE   W96
// 092   ----------------------------------------
        BYTE   W96
// 093   ----------------------------------------
        BYTE   W96
// 094   ----------------------------------------
        BYTE   W96
// 095   ----------------------------------------
        BYTE   W96
// 096   ----------------------------------------
        BYTE   W96
// 097   ----------------------------------------
        BYTE   W96
// 098   ----------------------------------------
        BYTE   W96
// 099   ----------------------------------------
        BYTE   W96
// 100   ----------------------------------------
        BYTE   W96
// 101   ----------------------------------------
        BYTE   W96
// 102   ----------------------------------------
        BYTE   W96
// 103   ----------------------------------------
        BYTE   W96
// 104   ----------------------------------------
        BYTE   W96
// 105   ----------------------------------------
        BYTE   W96
// 106   ----------------------------------------
        BYTE   W96
// 107   ----------------------------------------
        BYTE   W96
// 108   ----------------------------------------
        BYTE   W96
// 109   ----------------------------------------
        BYTE   W96
// 110   ----------------------------------------
        BYTE   W96
// 111   ----------------------------------------
        BYTE   W96
// 112   ----------------------------------------
        BYTE   W96
// 113   ----------------------------------------
        BYTE   W96
// 114   ----------------------------------------
        BYTE   W96
// 115   ----------------------------------------
        BYTE   W96
// 116   ----------------------------------------
        BYTE   W96
// 117   ----------------------------------------
        BYTE   W96
// 118   ----------------------------------------
        BYTE   W96
// 119   ----------------------------------------
        BYTE   W96
// 120   ----------------------------------------
        BYTE   W96
// 121   ----------------------------------------
        BYTE   W96
// 122   ----------------------------------------
        BYTE   W96
// 123   ----------------------------------------
        BYTE   W96
// 124   ----------------------------------------
        BYTE   W96
// 125   ----------------------------------------
        BYTE   W96
// 126   ----------------------------------------
        BYTE   W96
// 127   ----------------------------------------
        BYTE   W96
// 128   ----------------------------------------
        BYTE   GoTo
         POIN2  Principality_14_LOOP
        BYTE   FINE


//********************** End of Song ***********************//

        ALIGN 4
Principality:
        BYTE   15                      // Num Tracks
        BYTE   0                       // Unknown
        BYTE   Principality_pri        // Priority
        BYTE   Principality_rev        // Reverb

        POIN2   Principality_grp       

        POIN2   Principality_0
        POIN2   Principality_1
        POIN2   Principality_2
        POIN2   Principality_3
        POIN2   Principality_4
        POIN2   Principality_5
        POIN2   Principality_6
        POIN2   Principality_7
        POIN2   Principality_8
        POIN2   Principality_9
        POIN2   Principality_10
        POIN2   Principality_11
        POIN2   Principality_12
        POIN2   Principality_13
        POIN2   Principality_14

        
