//Event file generated from Sappy .s format.
        #include "MPlayDef.event"

        #define    SEQ_BGM_D_CHAMPROAD_grp  PkmnBWsoundbank
        #define    SEQ_BGM_D_CHAMPROAD_pri  0
        #define    SEQ_BGM_D_CHAMPROAD_rev  0
        #define    SEQ_BGM_D_CHAMPROAD_key  0

        // .rodata
        // SEQ_BGM_D_CHAMPROAD
        ALIGN 4

//****************** Track 0 (Midi-Chn.0) ******************//

SEQ_BGM_D_CHAMPROAD_0:
        BYTE   KEYSH   SEQ_BGM_D_CHAMPROAD_key+0
// 000   ----------------------------------------
        BYTE   TEMPO   86/2
        BYTE           BENDR   12
        BYTE           VOL     50
        BYTE           N05     As2   v125
        BYTE           N05     As3
        BYTE   W12
        BYTE           VOICE   42
        BYTE           PAN     c_v+10
        BYTE           N44     Gn3
        BYTE           N44     Gn4
        BYTE   W36
        BYTE           MOD     6
        BYTE           VOL     47
        BYTE   W03
        BYTE                   43
        BYTE   W03
        BYTE                   41
        BYTE   W03
        BYTE                   37
        BYTE   W03
        BYTE           MOD     0
        BYTE           VOL     50
        BYTE           N04     Ds3   v112
        BYTE           N04     Ds4
        BYTE   W12
        BYTE           N11     Cs3   v105
        BYTE           N11     Cs4
        BYTE   W12
        BYTE           N44     Ds3   v118
        BYTE           N44     Ds4
        BYTE   W12
// 001   ----------------------------------------
        BYTE   W24
        BYTE           MOD     8
        BYTE           VOL     48
        BYTE   W03
        BYTE                   43
        BYTE   W03
        BYTE                   39
        BYTE   W03
        BYTE                   35
        BYTE   W03
        BYTE                   50
        BYTE           MOD     0
        BYTE           N05     Cs3   v105
        BYTE           N05     Cs4
        BYTE   W12
        BYTE                   Bn2   v115
        BYTE           N05     Bn3
        BYTE   W12
        BYTE           N40     As2   v121   gtp1
        BYTE                   As3
        BYTE   W36
// 002   ----------------------------------------
        BYTE   W12
        BYTE           N05     Gs2   v105
        BYTE           N05     Gs3
        BYTE   W06
        BYTE           N01     As2   v094
        BYTE           N02     As3
        BYTE   W06
        BYTE           N05     Gs2   v100
        BYTE           N05     Gs3
        BYTE   W06
        BYTE           N02     As2   v097
        BYTE           N02     As3
        BYTE   W06
        BYTE           N44     Cs3   v123
        BYTE           N44     Cs4
        BYTE   W24
        BYTE           MOD     4
        BYTE   W12
        BYTE           VOL     48
        BYTE   W03
        BYTE                   47
        BYTE   W03
        BYTE                   43
        BYTE   W03
        BYTE                   38
        BYTE   W03
        BYTE           MOD     0
        BYTE           VOL     50
        BYTE           N04     As2   v110
        BYTE           N04     As3
        BYTE   W12
// 003   ----------------------------------------
        BYTE           N05     Gs2   v114
        BYTE           N05     Gs3
        BYTE   W12
        BYTE                   Gn2   v105
        BYTE           N05     Gn3   v112
        BYTE   W12
        BYTE           N56     Ds2   v113
        BYTE           N56     Ds3
        BYTE   W30
        BYTE           VOL     47
        BYTE   W03
        BYTE                   45
        BYTE   W03
        BYTE                   44
        BYTE   W03
        BYTE                   43
        BYTE   W03
        BYTE                   42
        BYTE   W03
        BYTE                   41
        BYTE   W03
        BYTE                   39
        BYTE   W03
        BYTE                   38
        BYTE   W03
        BYTE                   36
        BYTE   W03
        BYTE                   35
        BYTE   W03
        BYTE                   50
        BYTE           PAN     c_v+49
        BYTE           N32     As2   v105   gtp3
        BYTE   W12
// 004   ----------------------------------------
        BYTE   W24
        BYTE           N03     Gs2
        BYTE   W12
        BYTE           N17     Fn2
        BYTE   W18
        BYTE           N05     Gs2
        BYTE   W06
        BYTE           N52     Gn2   v105   gtp1
        BYTE   W32
        BYTE   W01
        BYTE           VOL     49
        BYTE   W03
// 005   ----------------------------------------
        BYTE                   48
        BYTE   W03
        BYTE                   46
        BYTE   W03
        BYTE                   44
        BYTE   W03
        BYTE                   40
        BYTE   W03
        BYTE                   36
        BYTE   W03
        BYTE                   30
        BYTE   W03
        BYTE                   26
        BYTE   W03
        BYTE                   23
        BYTE   W03
        BYTE                   50
        BYTE           N02
        BYTE   W03
        BYTE                   Gs2
        BYTE   W03
        BYTE                   An2
        BYTE   W03
        BYTE                   As2
        BYTE   W03
        BYTE           N32     Bn2   v112
        BYTE   W36
        BYTE           VOL     48
        BYTE           N20     As2
        BYTE   W03
        BYTE           VOL     47
        BYTE   W03
        BYTE                   45
        BYTE   W03
        BYTE                   41
        BYTE   W03
        BYTE                   36
        BYTE   W03
        BYTE                   31
        BYTE   W03
        BYTE                   28
        BYTE   W03
        BYTE                   20
        BYTE   W03
// 006   ----------------------------------------
        BYTE                   51
        BYTE           PAN     c_v+10
        BYTE           N02     Cs3   v105
        BYTE           N02     Cs4
        BYTE   W03
        BYTE                   Dn3   v123
        BYTE           N02     Dn4
        BYTE   W03
        BYTE                   Ds3   v127
        BYTE           N02     Ds4
        BYTE   W03
        BYTE                   Fn3
        BYTE           N02     Fn4
        BYTE   W03
        BYTE           N44     Gn3   v125   gtp2
        BYTE                   Gn4
        BYTE   W48
        BYTE           N04     Ds3   v100
        BYTE           N04     Ds4
        BYTE   W12
        BYTE           N11     As2   v118
        BYTE           N11     As3
        BYTE   W12
        BYTE           N44     Cs3
        BYTE           N44     Cs4
        BYTE   W12
// 007   ----------------------------------------
        BYTE   W36
        BYTE           N05     Ds3   v115
        BYTE           N05     Ds4
        BYTE   W12
        BYTE                   Cs3
        BYTE           N05     Cs4
        BYTE   W12
        BYTE                   Ds3   v123
        BYTE           N05     Ds4
        BYTE   W06
        BYTE                   Cs3
        BYTE           N05     Cs4
        BYTE   W12
        BYTE           N23     As2   v127
        BYTE           N23     As3
        BYTE   W18
// 008   ----------------------------------------
        BYTE   W12
        BYTE           N05     Gs2   v109
        BYTE           N05     Gs3
        BYTE   W06
        BYTE           N02     As2   v104
        BYTE           N02     As3
        BYTE   W06
        BYTE           N05     Gs2   v109
        BYTE           N05     Gs3
        BYTE   W06
        BYTE           N02     As2   v104
        BYTE           N02     As3
        BYTE   W06
        BYTE           N44     Cs3   v123   gtp3
        BYTE                   Cs4
        BYTE   W48
        BYTE           N04     As2   v105
        BYTE           N04     As3
        BYTE   W12
// 009   ----------------------------------------
        BYTE           N05     Gs2
        BYTE           N05     Gs3
        BYTE   W12
        BYTE                   Gn2
        BYTE           N05     Gn3
        BYTE   W06
        BYTE                   Fn2
        BYTE           N05     Fn3
        BYTE   W12
        BYTE           N52     Ds2   v105   gtp1
        BYTE                   Ds3
        BYTE   W54
        BYTE           N32     As2   v105   gtp3
        BYTE   W12
// 010   ----------------------------------------
        BYTE   W24
        BYTE           N03     Gs2
        BYTE   W12
        BYTE           N17     Fn2
        BYTE   W18
        BYTE           N05     Gs2
        BYTE   W06
        BYTE           N56     Gn2   v105   gtp3
        BYTE   W36
// 011   ----------------------------------------
        BYTE   W24
        BYTE           N02
        BYTE   W03
        BYTE                   Gs2
        BYTE   W03
        BYTE                   An2
        BYTE   W03
        BYTE                   As2
        BYTE   W03
        BYTE           N32     Bn2   v105   gtp3
        BYTE   W48
        BYTE           VOICE   30
        BYTE           PAN     c_v-10
        BYTE           VOL     55
        BYTE           N03     Gs2   v127
        BYTE           N03     Fs3
        BYTE   W04
        BYTE                   Bn2
        BYTE           N03     Gs3
        BYTE   W04
        BYTE                   Cs3   v123
        BYTE           N03     As3
        BYTE   W04
// 012   ----------------------------------------
        BYTE                   Ds3   v127
        BYTE           N03     Bn3
        BYTE   W04
        BYTE                   En3   v123
        BYTE           N03     Cs4
        BYTE   W04
        BYTE                   Fn3   v127
        BYTE           N03     Dn4
        BYTE   W04
        BYTE           N32     Fs3   v120   gtp3
        BYTE                   Ds4
        BYTE   W48
        BYTE           N11     Gs3
        BYTE           N11     Fn4
        BYTE   W12
        BYTE                   As3
        BYTE           N11     Fs4
        BYTE   W12
        BYTE           N44     Bn3   v120   gtp3
        BYTE                   Gs4
        BYTE   W12
// 013   ----------------------------------------
        BYTE   W36
        BYTE           N11     Gs3
        BYTE           N11     Fn4
        BYTE   W12
        BYTE                   Fs3
        BYTE           N11     Cs4
        BYTE   W12
        BYTE           N32     Gs3   v120   gtp3
        BYTE                   Fn4
        BYTE   W36
// 014   ----------------------------------------
        BYTE   W12
        BYTE           N11     Fs3
        BYTE           N11     Cs4
        BYTE   W12
        BYTE                   Fn3
        BYTE           N11     As3
        BYTE   W12
        BYTE           N44     Ds3   v120   gtp3
        BYTE                   Cn4
        BYTE   W60
// 015   ----------------------------------------
        BYTE   W12
        BYTE           N32     Fs3   v120   gtp3
        BYTE                   Ds4
        BYTE   W48
        BYTE           N11     Gs3
        BYTE           N11     Fn4
        BYTE   W12
        BYTE                   As3
        BYTE           N11     Fs4
        BYTE   W12
        BYTE           N56     Bn3   v120   gtp3
        BYTE                   Gs4
        BYTE   W12
// 016   ----------------------------------------
        BYTE   W48
        BYTE           N02     Gs3
        BYTE           N02     Fs4
        BYTE   W06
        BYTE                   Bn3
        BYTE           N02     Gs4
        BYTE   W06
        BYTE           N68     Fn3   v120   gtp3
        BYTE           N36     Ds4   v120   gtp2
        BYTE           N68     As4   v120   gtp3
        BYTE   W36
// 017   ----------------------------------------
        BYTE   W03
        BYTE           N19     Cn4
        BYTE   W21
        BYTE           N11     Cs4
        BYTE   W12
        BYTE           N68     Dn3   v120   gtp3
        BYTE           N32     Dn4   v120   gtp3
        BYTE           N68     As4   v120   gtp3
        BYTE   W36
        BYTE           N32     Fn4   v120   gtp3
        BYTE   W24
// 018   ----------------------------------------
        BYTE   W24
        BYTE   W01
        BYTE   FINE

//****************** Track 1 (Midi-Chn.1) ******************//

SEQ_BGM_D_CHAMPROAD_1:
        BYTE   KEYSH   SEQ_BGM_D_CHAMPROAD_key+0
// 000   ----------------------------------------
        BYTE           BENDR   12
        BYTE           VOICE   14
        BYTE           VOL     63
        BYTE   W12
        BYTE           PAN     c_v+21
        BYTE           N10     As2   v120
        BYTE   W12
        BYTE           PAN     c_v-35
        BYTE           N10     As2   v059
        BYTE   W12
        BYTE           PAN     c_v+52
        BYTE           N10     As2   v028
        BYTE   W12
        BYTE           PAN     c_v-40
        BYTE           N10     As2   v019
        BYTE   W12
        BYTE           PAN     c_v+52
        BYTE           N10     As2   v016
        BYTE   W12
        BYTE           PAN     c_v-37
        BYTE           N10
        BYTE   W12
        BYTE           PAN     c_v+21
        BYTE           N10     As2   v120
        BYTE   W12
// 001   ----------------------------------------
        BYTE           PAN     c_v-35
        BYTE           N10     As2   v059
        BYTE   W12
        BYTE           PAN     c_v+52
        BYTE           N10     As2   v028
        BYTE   W12
        BYTE           PAN     c_v-40
        BYTE           N10     As2   v019
        BYTE   W12
        BYTE           PAN     c_v+52
        BYTE           N10     As2   v016
        BYTE   W12
        BYTE           PAN     c_v-37
        BYTE           N10
        BYTE   W12
        BYTE           PAN     c_v+21
        BYTE           N10     As2   v120
        BYTE   W12
        BYTE           PAN     c_v-35
        BYTE           N10     As2   v059
        BYTE   W12
        BYTE           PAN     c_v+52
        BYTE           N10     As2   v028
        BYTE   W12
// 002   ----------------------------------------
SEQ_BGM_D_CHAMPROAD_1_2:
        BYTE           PAN     c_v-40
        BYTE           N10     As2   v019
        BYTE   W12
        BYTE           PAN     c_v+52
        BYTE           N10     As2   v016
        BYTE   W12
        BYTE           PAN     c_v-37
        BYTE           N10
        BYTE   W12
        BYTE           PAN     c_v+21
        BYTE           N10     As2   v120
        BYTE   W12
        BYTE           PAN     c_v-35
        BYTE           N10     As2   v059
        BYTE   W12
        BYTE           PAN     c_v+52
        BYTE           N10     As2   v028
        BYTE   W12
        BYTE           PAN     c_v-40
        BYTE           N10     As2   v019
        BYTE   W12
        BYTE           PAN     c_v+52
        BYTE           N10     As2   v016
        BYTE   W12
        BYTE   PEND
// 003   ----------------------------------------
SEQ_BGM_D_CHAMPROAD_1_3:
        BYTE           PAN     c_v-37
        BYTE           N10     As2   v016
        BYTE   W12
        BYTE           PAN     c_v+21
        BYTE           N10     As2   v120
        BYTE   W12
        BYTE           PAN     c_v-35
        BYTE           N10     As2   v059
        BYTE   W12
        BYTE           PAN     c_v+52
        BYTE           N10     As2   v044
        BYTE   W12
        BYTE           PAN     c_v-40
        BYTE           N10     As2   v019
        BYTE   W12
        BYTE           PAN     c_v+52
        BYTE           N10     As2   v016
        BYTE   W12
        BYTE           PAN     c_v-37
        BYTE           N10
        BYTE   W12
        BYTE           PAN     c_v+21
        BYTE           N10     Ds3   v120
        BYTE   W12
        BYTE   PEND
// 004   ----------------------------------------
SEQ_BGM_D_CHAMPROAD_1_4:
        BYTE           PAN     c_v-35
        BYTE           N10     Ds3   v059
        BYTE   W12
        BYTE           PAN     c_v+52
        BYTE           N10     Ds3   v044
        BYTE   W12
        BYTE           PAN     c_v+21
        BYTE           N11     Cs3   v120
        BYTE   W12
        BYTE                   Bn2
        BYTE   W12
        BYTE                   Gs2
        BYTE   W12
        BYTE           N10     As2
        BYTE   W12
        BYTE           PAN     c_v-35
        BYTE           N10     As2   v059
        BYTE   W12
        BYTE           PAN     c_v+52
        BYTE           N10     As2   v028
        BYTE   W12
        BYTE   PEND
// 005   ----------------------------------------
SEQ_BGM_D_CHAMPROAD_1_5:
        BYTE           PAN     c_v-40
        BYTE           N10     As2   v019
        BYTE   W12
        BYTE           PAN     c_v+52
        BYTE           N10     As2   v016
        BYTE   W12
        BYTE           PAN     c_v-37
        BYTE           N10
        BYTE   W12
        BYTE           PAN     c_v+21
        BYTE           N10     En3   v120
        BYTE   W12
        BYTE           PAN     c_v-35
        BYTE           N10     En3   v059
        BYTE   W12
        BYTE           PAN     c_v+52
        BYTE           N10     En3   v044
        BYTE   W12
        BYTE           PAN     c_v-40
        BYTE           N10     En3   v019
        BYTE   W12
        BYTE           PAN     c_v+52
        BYTE           N10     En3   v016
        BYTE   W12
        BYTE   PEND
// 006   ----------------------------------------
        BYTE           PAN     c_v-37
        BYTE           N10
        BYTE   W12
        BYTE           PAN     c_v+21
        BYTE           N10     As2   v120
        BYTE   W12
        BYTE           PAN     c_v-35
        BYTE           N10     As2   v059
        BYTE   W12
        BYTE           PAN     c_v+52
        BYTE           N10     As2   v028
        BYTE   W12
        BYTE           PAN     c_v-40
        BYTE           N10     As2   v019
        BYTE   W12
        BYTE           PAN     c_v+52
        BYTE           N10     As2   v016
        BYTE   W12
        BYTE           PAN     c_v-37
        BYTE           N10
        BYTE   W12
        BYTE           PAN     c_v+21
        BYTE           N10     As2   v120
        BYTE   W12
// 007   ----------------------------------------
        BYTE           PAN     c_v-35
        BYTE           N10     As2   v059
        BYTE   W12
        BYTE           PAN     c_v+52
        BYTE           N10     As2   v028
        BYTE   W12
        BYTE           PAN     c_v-40
        BYTE           N10     As2   v019
        BYTE   W36
        BYTE           PAN     c_v+21
        BYTE           N10     As2   v120
        BYTE   W12
        BYTE           PAN     c_v-35
        BYTE           N10     As2   v059
        BYTE   W12
        BYTE           PAN     c_v+52
        BYTE           N10     As2   v028
        BYTE   W12
// 008   ----------------------------------------
        BYTE   PATT
         POIN2  SEQ_BGM_D_CHAMPROAD_1_2
// 009   ----------------------------------------
        BYTE   PATT
         POIN2  SEQ_BGM_D_CHAMPROAD_1_3
// 010   ----------------------------------------
        BYTE   PATT
         POIN2  SEQ_BGM_D_CHAMPROAD_1_4
// 011   ----------------------------------------
        BYTE   PATT
         POIN2  SEQ_BGM_D_CHAMPROAD_1_5
// 012   ----------------------------------------
        BYTE           PAN     c_v-37
        BYTE           N10     En3   v016
        BYTE   W12
        BYTE           PAN     c_v+18
        BYTE           VOL     54
        BYTE   W12
        BYTE           N10     Fs3   v120
        BYTE   W12
        BYTE           N23     Bn3
        BYTE   W60
// 013   ----------------------------------------
        BYTE           N10     Fs3
        BYTE   W12
        BYTE           N11     Bn3
        BYTE   W12
        BYTE           N32     Bn2   v120   gtp3
        BYTE   W48
        BYTE           N10     Fs3
        BYTE   W12
        BYTE           N23     As3
        BYTE   W12
// 014   ----------------------------------------
        BYTE   W48
        BYTE           N10     Ds3
        BYTE   W12
        BYTE           N11     As3
        BYTE   W12
        BYTE                   Ds3
        BYTE   W12
        BYTE           N23     Cn3
        BYTE   W12
// 015   ----------------------------------------
        BYTE   W24
        BYTE           N10     Fs3
        BYTE   W12
        BYTE           N23     Bn3
        BYTE   W60
// 016   ----------------------------------------
        BYTE           N10     Fs3
        BYTE   W12
        BYTE           N11     Bn3
        BYTE   W12
        BYTE           N32     Bn2   v120   gtp3
        BYTE   W36
        BYTE                   As3
        BYTE   W36
// 017   ----------------------------------------
        BYTE                   An2
        BYTE   W36
        BYTE                   As3
        BYTE   W36
        BYTE                   Fn3
        BYTE   W24
// 018   ----------------------------------------
        BYTE   W24
        BYTE   W01
        BYTE   FINE

//****************** Track 2 (Midi-Chn.2) ******************//

SEQ_BGM_D_CHAMPROAD_2:
        BYTE   KEYSH   SEQ_BGM_D_CHAMPROAD_key+0
// 000   ----------------------------------------
        BYTE           BENDR   12
        BYTE           VOICE   33
        BYTE           VOL     63
        BYTE           PAN     c_v+20
        BYTE           N02     As0   v120
        BYTE   W06
        BYTE                   As0   v105
        BYTE   W06
        BYTE           N28     Ds1   v120   gtp1
        BYTE   W15
        BYTE           VOL     60
        BYTE   W01
        BYTE                   59
        BYTE   W02
        BYTE                   58
        BYTE   W01
        BYTE                   56
        BYTE   W02
        BYTE                   54
        BYTE   W01
        BYTE                   52
        BYTE   W02
        BYTE                   51
        BYTE   W01
        BYTE                   49
        BYTE   W02
        BYTE                   48
        BYTE   W01
        BYTE                   46
        BYTE   W02
        BYTE                   44
        BYTE   W01
        BYTE                   43
        BYTE   W02
        BYTE                   41
        BYTE   W01
        BYTE                   39
        BYTE   W02
        BYTE                   63
        BYTE           N05
        BYTE   W12
        BYTE                   En1   v106
        BYTE   W12
        BYTE           N11     Ds1
        BYTE   W12
        BYTE           N28     En1   v120   gtp1
        BYTE   W12
// 001   ----------------------------------------
        BYTE           VOL     59
        BYTE   W01
        BYTE                   58
        BYTE   W02
        BYTE                   57
        BYTE   W01
        BYTE                   56
        BYTE   W02
        BYTE                   54
        BYTE   W01
        BYTE                   52
        BYTE   W02
        BYTE                   51
        BYTE   W01
        BYTE                   49
        BYTE   W02
        BYTE                   48
        BYTE   W01
        BYTE                   46
        BYTE   W02
        BYTE                   44
        BYTE   W01
        BYTE                   43
        BYTE   W02
        BYTE                   41
        BYTE   W01
        BYTE                   39
        BYTE   W02
        BYTE                   38
        BYTE   W01
        BYTE                   37
        BYTE   W02
        BYTE                   63
        BYTE           N05
        BYTE   W12
        BYTE                   Fs1   v127
        BYTE   W12
        BYTE           N02     As0   v120
        BYTE   W06
        BYTE                   As0   v096
        BYTE   W06
        BYTE           N28     Ds1   v120   gtp1
        BYTE   W15
        BYTE           VOL     58
        BYTE   W01
        BYTE                   56
        BYTE   W02
        BYTE                   55
        BYTE   W01
        BYTE                   54
        BYTE   W02
        BYTE                   52
        BYTE   W01
        BYTE                   50
        BYTE   W02
        BYTE                   49
        BYTE   W01
        BYTE                   48
        BYTE   W02
        BYTE                   46
        BYTE   W01
        BYTE                   45
        BYTE   W02
        BYTE                   43
        BYTE   W01
        BYTE                   41
        BYTE   W02
        BYTE                   40
        BYTE   W01
        BYTE                   39
        BYTE   W02
// 002   ----------------------------------------
        BYTE                   63
        BYTE           N05
        BYTE   W12
        BYTE                   En1   v111
        BYTE   W12
        BYTE           N02     As0   v120
        BYTE   W06
        BYTE                   As0
        BYTE   W06
        BYTE           N32     Gs1   v124   gtp3
        BYTE   W18
        BYTE           VOL     59
        BYTE   W01
        BYTE                   58
        BYTE   W02
        BYTE                   56
        BYTE   W01
        BYTE                   55
        BYTE   W02
        BYTE                   53
        BYTE   W01
        BYTE                   51
        BYTE   W02
        BYTE                   49
        BYTE   W01
        BYTE                   48
        BYTE   W02
        BYTE                   46
        BYTE   W01
        BYTE                   44
        BYTE   W02
        BYTE                   43
        BYTE   W01
        BYTE                   41
        BYTE   W02
        BYTE                   63
        BYTE           N05     En1   v120
        BYTE   W12
        BYTE                   Cs1   v113
        BYTE   W12
// 003   ----------------------------------------
        BYTE           N02     Gs0   v127
        BYTE   W06
        BYTE                   Gs0   v123
        BYTE   W06
        BYTE           N30     Ds1   v120   gtp1
        BYTE   W21
        BYTE           VOL     61
        BYTE   W01
        BYTE                   59
        BYTE   W02
        BYTE                   58
        BYTE   W01
        BYTE                   56
        BYTE   W02
        BYTE                   54
        BYTE   W01
        BYTE                   53
        BYTE   W02
        BYTE                   51
        BYTE   W01
        BYTE                   49
        BYTE   W02
        BYTE                   48
        BYTE   W01
        BYTE                   46
        BYTE   W02
        BYTE                   64
        BYTE           N05
        BYTE   W06
        BYTE           VOL     62
        BYTE   W01
        BYTE                   59
        BYTE   W02
        BYTE                   56
        BYTE   W01
        BYTE                   54
        BYTE   W02
        BYTE                   65
        BYTE           N05     En1   v111
        BYTE   W06
        BYTE           VOL     63
        BYTE   W01
        BYTE                   59
        BYTE   W02
        BYTE                   56
        BYTE   W01
        BYTE                   53
        BYTE   W02
        BYTE                   64
        BYTE           N02     As0   v127
        BYTE   W06
        BYTE                   As0   v108
        BYTE   W06
        BYTE           N32     En1   v120   gtp3
        BYTE   W12
// 004   ----------------------------------------
SEQ_BGM_D_CHAMPROAD_2_4:
        BYTE   W07
        BYTE           VOL     62
        BYTE   W02
        BYTE                   59
        BYTE   W01
        BYTE                   58
        BYTE   W02
        BYTE                   56
        BYTE   W01
        BYTE                   54
        BYTE   W02
        BYTE                   51
        BYTE   W01
        BYTE                   49
        BYTE   W02
        BYTE                   48
        BYTE   W01
        BYTE                   46
        BYTE   W02
        BYTE                   43
        BYTE   W01
        BYTE                   41
        BYTE   W02
        BYTE                   64
        BYTE           N11     Cs1   v120
        BYTE   W12
        BYTE                   Bn0
        BYTE   W12
        BYTE                   As0
        BYTE   W12
        BYTE           N44     Ds1   v120   gtp3
        BYTE   W24
        BYTE   W01
        BYTE           VOL     63
        BYTE   W02
        BYTE                   62
        BYTE   W01
        BYTE                   60
        BYTE   W02
        BYTE                   59
        BYTE   W01
        BYTE                   58
        BYTE   W02
        BYTE                   56
        BYTE   W01
        BYTE                   54
        BYTE   W02
        BYTE   PEND
// 005   ----------------------------------------
        BYTE                   53
        BYTE   W01
        BYTE                   51
        BYTE   W02
        BYTE                   50
        BYTE   W01
        BYTE                   49
        BYTE   W02
        BYTE                   47
        BYTE   W01
        BYTE                   46
        BYTE   W02
        BYTE                   44
        BYTE   W01
        BYTE                   43
        BYTE   W02
        BYTE                   41
        BYTE   W01
        BYTE                   40
        BYTE   W02
        BYTE                   65
        BYTE   W09
        BYTE           N05     As0
        BYTE   W06
        BYTE                   As0
        BYTE   W06
        BYTE           N32     En1   v120   gtp3
        BYTE   W24
        BYTE   W03
        BYTE           VOL     64
        BYTE   W01
        BYTE                   63
        BYTE   W02
        BYTE                   61
        BYTE   W01
        BYTE                   59
        BYTE   W02
        BYTE                   58
        BYTE   W01
        BYTE                   56
        BYTE   W02
        BYTE                   55
        BYTE           N23     Cs1
        BYTE   W01
        BYTE           VOL     53
        BYTE   W02
        BYTE                   51
        BYTE   W01
        BYTE                   50
        BYTE   W02
        BYTE                   49
        BYTE   W01
        BYTE                   47
        BYTE   W02
        BYTE                   46
        BYTE   W01
        BYTE                   44
        BYTE   W02
        BYTE                   43
        BYTE   W01
        BYTE                   41
        BYTE   W02
        BYTE                   39
        BYTE   W01
        BYTE                   38
        BYTE   W02
        BYTE                   37
        BYTE   W01
        BYTE                   34
        BYTE   W02
        BYTE                   33
        BYTE   W01
        BYTE                   32
        BYTE   W02
// 006   ----------------------------------------
        BYTE                   64
        BYTE           N02     As0
        BYTE   W06
        BYTE           N05
        BYTE   W06
        BYTE           N28     Ds1   v120   gtp1
        BYTE   W14
        BYTE           VOL     60
        BYTE   W02
        BYTE                   59
        BYTE   W01
        BYTE                   58
        BYTE   W02
        BYTE                   56
        BYTE   W01
        BYTE                   54
        BYTE   W02
        BYTE                   52
        BYTE   W01
        BYTE                   51
        BYTE   W02
        BYTE                   49
        BYTE   W01
        BYTE                   48
        BYTE   W02
        BYTE                   46
        BYTE   W01
        BYTE                   44
        BYTE   W02
        BYTE                   43
        BYTE   W01
        BYTE                   41
        BYTE   W02
        BYTE                   39
        BYTE   W01
        BYTE                   63
        BYTE   W01
        BYTE           N05
        BYTE   W12
        BYTE                   En1   v106
        BYTE   W12
        BYTE           N11     Ds1
        BYTE   W12
        BYTE           N28     En1   v120   gtp1
        BYTE   W11
        BYTE           VOL     59
        BYTE   W01
// 007   ----------------------------------------
        BYTE   W01
        BYTE                   58
        BYTE   W01
        BYTE                   57
        BYTE   W02
        BYTE                   56
        BYTE   W01
        BYTE                   54
        BYTE   W02
        BYTE                   52
        BYTE   W01
        BYTE                   51
        BYTE   W02
        BYTE                   49
        BYTE   W01
        BYTE                   48
        BYTE   W02
        BYTE                   46
        BYTE   W01
        BYTE                   44
        BYTE   W02
        BYTE                   43
        BYTE   W01
        BYTE                   41
        BYTE   W02
        BYTE                   39
        BYTE   W01
        BYTE                   38
        BYTE   W02
        BYTE                   37
        BYTE   W01
        BYTE                   63
        BYTE   W01
        BYTE           N05
        BYTE   W12
        BYTE                   Fs1   v127
        BYTE   W12
        BYTE           N02     As0   v120
        BYTE   W06
        BYTE                   As0   v096
        BYTE   W06
        BYTE           N28     Ds1   v120   gtp1
        BYTE   W14
        BYTE           VOL     58
        BYTE   W02
        BYTE                   56
        BYTE   W01
        BYTE                   55
        BYTE   W02
        BYTE                   54
        BYTE   W01
        BYTE                   52
        BYTE   W02
        BYTE                   50
        BYTE   W01
        BYTE                   49
        BYTE   W02
        BYTE                   48
        BYTE   W01
        BYTE                   46
        BYTE   W02
        BYTE                   45
        BYTE   W01
        BYTE                   43
        BYTE   W02
        BYTE                   41
        BYTE   W01
        BYTE                   40
        BYTE   W02
        BYTE                   39
        BYTE   W01
        BYTE                   63
        BYTE   W01
// 008   ----------------------------------------
        BYTE           N05
        BYTE   W12
        BYTE                   En1   v111
        BYTE   W12
        BYTE           N02     As0
        BYTE   W06
        BYTE                   As0   v104
        BYTE   W06
        BYTE           N32     Gs1   v120   gtp3
        BYTE   W17
        BYTE           VOL     59
        BYTE   W02
        BYTE                   58
        BYTE   W01
        BYTE                   56
        BYTE   W02
        BYTE                   55
        BYTE   W01
        BYTE                   53
        BYTE   W02
        BYTE                   51
        BYTE   W01
        BYTE                   49
        BYTE   W02
        BYTE                   48
        BYTE   W01
        BYTE                   46
        BYTE   W02
        BYTE                   44
        BYTE   W01
        BYTE                   43
        BYTE   W02
        BYTE                   41
        BYTE   W02
        BYTE                   63
        BYTE           N05     En1
        BYTE   W12
        BYTE                   Cs1   v113
        BYTE   W12
// 009   ----------------------------------------
        BYTE           N02     Gs0   v127
        BYTE   W06
        BYTE                   Gs0   v123
        BYTE   W06
        BYTE           N32     Ds1   v120
        BYTE   W07
        BYTE           VOL     62
        BYTE   W02
        BYTE                   60
        BYTE   W01
        BYTE                   59
        BYTE   W02
        BYTE                   58
        BYTE   W01
        BYTE                   56
        BYTE   W02
        BYTE                   55
        BYTE   W01
        BYTE                   54
        BYTE   W02
        BYTE                   52
        BYTE   W01
        BYTE                   51
        BYTE   W02
        BYTE                   49
        BYTE   W01
        BYTE                   48
        BYTE   W02
        BYTE                   47
        BYTE   W01
        BYTE                   46
        BYTE   W02
        BYTE                   44
        BYTE   W01
        BYTE                   43
        BYTE   W02
        BYTE                   41
        BYTE   W01
        BYTE                   40
        BYTE   W02
        BYTE                   39
        BYTE   W01
        BYTE                   38
        BYTE   W02
        BYTE                   63
        BYTE           N05
        BYTE   W04
        BYTE           VOL     59
        BYTE   W02
        BYTE                   57
        BYTE   W01
        BYTE                   54
        BYTE   W05
        BYTE                   63
        BYTE           N05     En1   v111
        BYTE   W03
        BYTE           VOL     61
        BYTE   W01
        BYTE                   58
        BYTE   W02
        BYTE                   54
        BYTE   W06
        BYTE                   64
        BYTE           N02     As0   v127
        BYTE   W06
        BYTE                   As0   v108
        BYTE   W06
        BYTE           N32     En1   v120   gtp3
        BYTE   W12
// 010   ----------------------------------------
        BYTE   PATT
         POIN2  SEQ_BGM_D_CHAMPROAD_2_4
// 011   ----------------------------------------
        BYTE           VOL     53
        BYTE   W01
        BYTE                   51
        BYTE   W02
        BYTE                   50
        BYTE   W01
        BYTE                   49
        BYTE   W02
        BYTE                   47
        BYTE   W01
        BYTE                   46
        BYTE   W02
        BYTE                   44
        BYTE   W01
        BYTE                   43
        BYTE   W02
        BYTE                   41
        BYTE   W01
        BYTE                   40
        BYTE   W02
        BYTE                   65
        BYTE   W09
        BYTE           N02     As0   v120
        BYTE   W06
        BYTE                   As0
        BYTE   W06
        BYTE           N32     En1   v120   gtp3
        BYTE   W24
        BYTE   W03
        BYTE           VOL     64
        BYTE   W01
        BYTE                   63
        BYTE   W02
        BYTE                   61
        BYTE   W01
        BYTE                   59
        BYTE   W02
        BYTE                   58
        BYTE   W01
        BYTE                   56
        BYTE   W02
        BYTE                   65
        BYTE           N05     Cs1
        BYTE   W12
        BYTE           N11
        BYTE   W12
// 012   ----------------------------------------
        BYTE                   As0   v127
        BYTE   W24
        BYTE                   Bn0   v120
        BYTE   W12
        BYTE                   Ds1
        BYTE   W12
        BYTE                   Fs0
        BYTE   W48
// 013   ----------------------------------------
        BYTE                   Bn0
        BYTE   W12
        BYTE                   Ds1
        BYTE   W12
        BYTE                   Fs0
        BYTE   W48
        BYTE                   Cs1
        BYTE   W12
        BYTE                   Fn1
        BYTE   W12
// 014   ----------------------------------------
        BYTE                   Fs0
        BYTE   W36
        BYTE           N05     Gs1   v115
        BYTE   W12
        BYTE           N23     Gs0
        BYTE   W24
        BYTE           N11     Ds1
        BYTE   W12
        BYTE                   En1
        BYTE   W12
// 015   ----------------------------------------
        BYTE                   Fn1   v111
        BYTE   W12
        BYTE                   Fs1   v120
        BYTE   W12
        BYTE                   Bn0
        BYTE   W12
        BYTE                   Ds1
        BYTE   W12
        BYTE                   Fs0
        BYTE   W48
// 016   ----------------------------------------
        BYTE                   Bn0
        BYTE   W12
        BYTE                   Ds1
        BYTE   W12
        BYTE                   Fs0
        BYTE   W48
        BYTE                   Ds1
        BYTE   W12
        BYTE                   Fn1
        BYTE   W12
// 017   ----------------------------------------
        BYTE                   As0
        BYTE   W12
        BYTE                   Cn1
        BYTE   W12
        BYTE                   Cs1
        BYTE   W12
        BYTE                   Dn1
        BYTE   W12
        BYTE                   Ds1
        BYTE   W12
        BYTE                   Fn1
        BYTE   W12
        BYTE                   Gs1
        BYTE   W12
        BYTE                   An1
        BYTE   W12
// 018   ----------------------------------------
        BYTE                   As1
        BYTE   W24
        BYTE   W01
        BYTE   FINE

//****************** Track 3 (Midi-Chn.3) ******************//

SEQ_BGM_D_CHAMPROAD_3:
        BYTE   KEYSH   SEQ_BGM_D_CHAMPROAD_key+0
// 000   ----------------------------------------
        BYTE           BENDR   12
        BYTE           VOL     59
        BYTE   W12
        BYTE           VOICE   30
        BYTE           PAN     c_v-19
        BYTE           VOL     50
        BYTE           N14     Gn2   v115
        BYTE           N14     As2   v118
        BYTE   W01
        BYTE           VOL     54
        BYTE   W02
        BYTE                   60
        BYTE   W15
        BYTE           N02     Gn2   v111
        BYTE           N02     As2
        BYTE   W06
        BYTE                   Gn2
        BYTE           N02     As2   v110
        BYTE   W12
        BYTE                   Gn2   v111
        BYTE           N02     As2   v110
        BYTE   W12
        BYTE                   Gn2   v111
        BYTE           N02     As2   v110
        BYTE   W12
        BYTE           VOL     40
        BYTE           N11     Gn2   v104
        BYTE           N11     As2   v103
        BYTE   W01
        BYTE           VOL     45
        BYTE   W02
        BYTE                   50
        BYTE   W01
        BYTE                   54
        BYTE   W02
        BYTE                   60
        BYTE   W06
        BYTE                   40
        BYTE           N11     Gs2   v111
        BYTE           N11     As2   v115
        BYTE   W01
        BYTE           VOL     45
        BYTE   W02
        BYTE                   50
        BYTE   W01
        BYTE                   54
        BYTE   W02
        BYTE                   60
        BYTE   W06
// 001   ----------------------------------------
SEQ_BGM_D_CHAMPROAD_3_1:
        BYTE   W06
        BYTE           N02     Gs2   v101
        BYTE           N02     As2
        BYTE   W06
        BYTE                   Gs2   v104
        BYTE           N02     As2   v111
        BYTE   W12
        BYTE                   Gs2
        BYTE           N02     As2   v110
        BYTE   W06
        BYTE                   Gs2
        BYTE           N02     As2
        BYTE   W06
        BYTE                   As2   v108
        BYTE           N02     Cs3   v111
        BYTE   W12
        BYTE                   Gs2
        BYTE           N02     Bn2
        BYTE   W12
        BYTE           VOL     40
        BYTE           N11     Gn2   v115
        BYTE           N11     As2   v118
        BYTE   W01
        BYTE           VOL     45
        BYTE   W02
        BYTE                   50
        BYTE   W01
        BYTE                   54
        BYTE   W02
        BYTE                   60
        BYTE   W12
        BYTE           N02     Gn2   v111
        BYTE           N02     As2
        BYTE   W06
        BYTE                   Gn2
        BYTE           N02     As2
        BYTE   W12
        BYTE   PEND
// 002   ----------------------------------------
SEQ_BGM_D_CHAMPROAD_3_2:
        BYTE           N02     Gn2   v111
        BYTE           N02     As2   v110
        BYTE   W12
        BYTE           N05     Fs2   v111
        BYTE           N05     An2   v110
        BYTE   W06
        BYTE           N02     Gn2   v104
        BYTE           N02     As2   v103
        BYTE   W06
        BYTE                   Gn2   v104
        BYTE           N02     As2   v103
        BYTE   W12
        BYTE           VOL     40
        BYTE           N11     Gs2   v111
        BYTE           N11     As2   v115
        BYTE   W01
        BYTE           VOL     45
        BYTE   W02
        BYTE                   50
        BYTE   W01
        BYTE                   54
        BYTE   W02
        BYTE                   60
        BYTE   W12
        BYTE           N02     Gs2   v101
        BYTE           N02     As2
        BYTE   W06
        BYTE                   Gs2   v104
        BYTE           N02     As2   v111
        BYTE   W12
        BYTE                   Gs2
        BYTE           N02     As2   v110
        BYTE   W06
        BYTE                   Gs2   v111
        BYTE           N02     As2   v110
        BYTE   W06
        BYTE           N05     Gn2   v108
        BYTE           N05     An2   v111
        BYTE   W06
        BYTE           N02     Gs2
        BYTE           N02     As2
        BYTE   W06
        BYTE   PEND
// 003   ----------------------------------------
        BYTE                   Gs2
        BYTE           N02     As2
        BYTE   W06
        BYTE                   Gs2
        BYTE           N02     As2
        BYTE   W06
        BYTE           VOL     40
        BYTE           N14     Gn2   v115
        BYTE           N14     As2   v118
        BYTE   W01
        BYTE           VOL     45
        BYTE   W02
        BYTE                   50
        BYTE   W01
        BYTE                   54
        BYTE   W02
        BYTE                   60
        BYTE   W12
        BYTE           N02     Gn2   v111
        BYTE           N02     As2
        BYTE   W06
        BYTE                   Gn2
        BYTE           N02     As2
        BYTE   W06
        BYTE                   Gn2
        BYTE           N02     As2
        BYTE   W06
        BYTE                   Gn2
        BYTE           N02     As2   v110
        BYTE   W06
        BYTE                   Gn2   v111
        BYTE           N02     As2
        BYTE   W06
        BYTE           N05     Fs2
        BYTE           N05     An2   v110
        BYTE   W06
        BYTE           N02     Gn2   v111
        BYTE           N02     As2
        BYTE   W06
        BYTE                   Gn2   v104
        BYTE           N02     As2   v103
        BYTE   W06
        BYTE                   Gn2   v104
        BYTE           N02     As2   v103
        BYTE   W06
        BYTE           VOL     40
        BYTE           N14     Gs2   v111
        BYTE           N14     As2   v115
        BYTE   W01
        BYTE           VOL     45
        BYTE   W02
        BYTE                   50
        BYTE   W01
        BYTE                   54
        BYTE   W02
        BYTE                   60
        BYTE   W06
// 004   ----------------------------------------
        BYTE   W06
        BYTE           N02     Gs2   v101
        BYTE           N02     As2
        BYTE   W06
        BYTE                   Gs2   v104
        BYTE           N02     As2   v111
        BYTE   W12
        BYTE                   Gs2
        BYTE           N02     As2   v110
        BYTE   W12
        BYTE           VOL     40
        BYTE           N14     En2   v108
        BYTE           N14     Gs2
        BYTE   W01
        BYTE           VOL     45
        BYTE   W02
        BYTE                   50
        BYTE   W01
        BYTE                   54
        BYTE   W02
        BYTE                   60
        BYTE   W12
        BYTE           N02     Gs2   v111
        BYTE           N02     Bn2
        BYTE   W06
        BYTE           VOL     40
        BYTE           N14     Gn2   v115
        BYTE           N14     As2   v118
        BYTE   W01
        BYTE           VOL     45
        BYTE   W02
        BYTE                   50
        BYTE   W01
        BYTE                   54
        BYTE   W02
        BYTE                   60
        BYTE   W12
        BYTE           N02     Gn2   v111
        BYTE           N02     As2
        BYTE   W06
        BYTE                   Gn2
        BYTE           N02     As2
        BYTE   W12
// 005   ----------------------------------------
        BYTE                   Gn2
        BYTE           N02     As2   v110
        BYTE   W12
        BYTE                   Gn2   v111
        BYTE           N02     Cs3   v110
        BYTE   W12
        BYTE                   Gn2   v104
        BYTE           N02     Bn2   v103
        BYTE   W12
        BYTE           VOL     40
        BYTE           N14     Gs2   v111
        BYTE           N14     As2   v115
        BYTE   W01
        BYTE           VOL     45
        BYTE   W02
        BYTE                   50
        BYTE   W01
        BYTE                   54
        BYTE   W02
        BYTE                   60
        BYTE   W12
        BYTE           N02     Gs2   v101
        BYTE           N02     As2
        BYTE   W06
        BYTE                   Gs2   v104
        BYTE           N02     As2   v111
        BYTE   W06
        BYTE                   Gs2   v104
        BYTE           N02     As2   v111
        BYTE   W06
        BYTE                   As2
        BYTE           N02     Cs3   v110
        BYTE   W06
        BYTE                   As2   v111
        BYTE           N02     Cs3   v110
        BYTE   W06
        BYTE                   As2   v108
        BYTE           N02     Cs3   v111
        BYTE   W12
// 006   ----------------------------------------
        BYTE           VOL     40
        BYTE           N11     Gs2
        BYTE           N11     Dn3
        BYTE   W01
        BYTE           VOL     45
        BYTE   W02
        BYTE                   50
        BYTE   W01
        BYTE                   54
        BYTE   W02
        BYTE                   60
        BYTE   W06
        BYTE                   40
        BYTE           N14     Gn2   v115
        BYTE           N14     As2   v118
        BYTE   W01
        BYTE           VOL     45
        BYTE   W02
        BYTE                   50
        BYTE   W01
        BYTE                   54
        BYTE   W02
        BYTE                   60
        BYTE   W12
        BYTE           N02     Gn2   v111
        BYTE           N02     As2
        BYTE   W06
        BYTE                   Gn2
        BYTE           N02     As2   v110
        BYTE   W12
        BYTE                   Gn2   v111
        BYTE           N02     As2   v110
        BYTE   W12
        BYTE                   Gn2   v111
        BYTE           N02     As2   v110
        BYTE   W12
        BYTE           N11     Gn2   v104
        BYTE           N11     As2   v103
        BYTE   W12
        BYTE           VOL     40
        BYTE           N11     Gs2   v111
        BYTE           N11     As2   v115
        BYTE   W01
        BYTE           VOL     45
        BYTE   W02
        BYTE                   50
        BYTE   W01
        BYTE                   54
        BYTE   W02
        BYTE                   60
        BYTE   W06
// 007   ----------------------------------------
        BYTE   PATT
         POIN2  SEQ_BGM_D_CHAMPROAD_3_1
// 008   ----------------------------------------
        BYTE   PATT
         POIN2  SEQ_BGM_D_CHAMPROAD_3_2
// 009   ----------------------------------------
        BYTE           N02     Gs2   v111
        BYTE           N02     As2
        BYTE   W06
        BYTE                   Gs2
        BYTE           N02     As2
        BYTE   W06
        BYTE           VOL     40
        BYTE           N14     Gn2   v115
        BYTE           N14     As2   v118
        BYTE   W01
        BYTE           VOL     45
        BYTE   W02
        BYTE                   50
        BYTE   W01
        BYTE                   54
        BYTE   W02
        BYTE                   60
        BYTE   W12
        BYTE           N02     Gn2   v111
        BYTE           N02     As2
        BYTE   W06
        BYTE                   Gn2
        BYTE           N02     As2
        BYTE   W06
        BYTE                   Gn2
        BYTE           N02     As2
        BYTE   W06
        BYTE                   Gn2
        BYTE           N02     As2   v110
        BYTE   W06
        BYTE                   Gn2   v111
        BYTE           N02     As2
        BYTE   W06
        BYTE           VOL     40
        BYTE           N05     Fs2
        BYTE           N05     An2   v110
        BYTE   W01
        BYTE           VOL     45
        BYTE   W02
        BYTE                   50
        BYTE   W01
        BYTE                   54
        BYTE   W02
        BYTE                   60
        BYTE           N02     Gn2   v111
        BYTE           N02     As2
        BYTE   W06
        BYTE                   Gn2   v104
        BYTE           N02     As2   v103
        BYTE   W06
        BYTE                   Gn2   v104
        BYTE           N02     As2   v103
        BYTE   W06
        BYTE           VOL     40
        BYTE           N14     Gs2   v111
        BYTE           N14     As2   v115
        BYTE   W01
        BYTE           VOL     45
        BYTE   W02
        BYTE                   50
        BYTE   W01
        BYTE                   54
        BYTE   W02
        BYTE                   60
        BYTE   W06
// 010   ----------------------------------------
        BYTE   W06
        BYTE           N02     Gs2   v101
        BYTE           N02     As2
        BYTE   W06
        BYTE                   Gs2   v104
        BYTE           N02     As2   v111
        BYTE   W12
        BYTE                   Gs2
        BYTE           N02     As2   v110
        BYTE   W12
        BYTE           N14     En2   v108
        BYTE           N14     Gs2
        BYTE   W18
        BYTE           N02     Gs2   v111
        BYTE           N02     Bn2
        BYTE   W06
        BYTE           N14     Gn2   v115
        BYTE           N14     As2   v118
        BYTE   W18
        BYTE           N02     Gn2   v111
        BYTE           N02     As2
        BYTE   W06
        BYTE                   Gn2
        BYTE           N02     As2
        BYTE   W12
// 011   ----------------------------------------
        BYTE                   Gn2
        BYTE           N02     As2   v110
        BYTE   W12
        BYTE                   Gn2   v111
        BYTE           N02     Cs3   v110
        BYTE   W12
        BYTE                   Gn2   v104
        BYTE           N02     Bn2   v103
        BYTE   W12
        BYTE           N14     Gs2   v111
        BYTE           N14     As2   v115
        BYTE   W18
        BYTE           N02     Gs2   v101
        BYTE           N02     As2
        BYTE   W06
        BYTE                   Gs2   v104
        BYTE           N02     As2   v111
        BYTE   W06
        BYTE                   Gs2   v104
        BYTE           N02     As2   v111
        BYTE   W03
        BYTE           VOICE   42
        BYTE   W03
        BYTE           PAN     c_v+35
        BYTE           VOL     51
        BYTE           N05     As2   v127
        BYTE   W12
        BYTE           N11
        BYTE   W12
// 012   ----------------------------------------
        BYTE                   Gs2
        BYTE   W48
        BYTE           N05     Ds2   v115
        BYTE           N05     Bn2
        BYTE   W12
        BYTE                   Fn2
        BYTE           N05     Ds3
        BYTE   W12
        BYTE                   Fs2
        BYTE           N05     Fs3
        BYTE   W12
        BYTE           N32     Gs2   v107   gtp3
        BYTE                   Fn3
        BYTE   W12
// 013   ----------------------------------------
        BYTE   W24
        BYTE           N22     Bn2   v102
        BYTE           N23     Ds3
        BYTE   W24
        BYTE           N11     Cs3   v104
        BYTE           N11     Fn3
        BYTE   W12
        BYTE           N23     Cs3   v115
        BYTE           N23     Fs3
        BYTE   W24
        BYTE           N11     Fs3   v110
        BYTE           N11     As3
        BYTE   W12
// 014   ----------------------------------------
        BYTE           N05     Cs2   v099
        BYTE           N05     As2
        BYTE   W12
        BYTE                   Fs2
        BYTE           N05     Cs3
        BYTE   W12
        BYTE                   Cs3   v104
        BYTE           N05     Fn3
        BYTE   W12
        BYTE           N23     Gs2   v115
        BYTE           N23     Ds3
        BYTE   W24
        BYTE           N11
        BYTE           N11     As3
        BYTE   W12
        BYTE           N23     Cn3
        BYTE           N23     Gs3
        BYTE   W24
// 015   ----------------------------------------
        BYTE           N05     Bn2
        BYTE           N05     Fs3
        BYTE   W06
        BYTE                   As2
        BYTE           N05     Fn3
        BYTE   W06
        BYTE           N23     Bn2
        BYTE           N23     Ds3
        BYTE   W36
        BYTE           N05     Fs2
        BYTE           N05     Bn2
        BYTE   W12
        BYTE                   Bn2
        BYTE           N05     Ds3
        BYTE   W12
        BYTE                   Ds3
        BYTE           N05     Fs3
        BYTE   W12
        BYTE           N23     Gs2   v127
        BYTE           N23     Fn3
        BYTE   W12
// 016   ----------------------------------------
        BYTE   W12
        BYTE           N11     Fn3   v110
        BYTE           N11     Bn3
        BYTE   W24
        BYTE           N05     Bn2   v115
        BYTE           N05     Fs3
        BYTE   W12
        BYTE                   Fs2
        BYTE           N05     Ds3
        BYTE   W12
        BYTE           N56     Fn2   v115   gtp3
        BYTE           N32     Cn3   v115   gtp3
        BYTE   W36
// 017   ----------------------------------------
        BYTE           N23     Fn3
        BYTE   W24
        BYTE           N11     Gn2   v127
        BYTE           N11     Ds3
        BYTE   W12
        BYTE           N32     As2   v115   gtp3
        BYTE                   Dn3
        BYTE   W36
        BYTE                   Dn3
        BYTE           N32     As3   v123   gtp3
        BYTE   W24
// 018   ----------------------------------------
        BYTE   W24
        BYTE   W01
        BYTE   FINE

//****************** Track 4 (Midi-Chn.4) ******************//

SEQ_BGM_D_CHAMPROAD_4:
        BYTE   KEYSH   SEQ_BGM_D_CHAMPROAD_key+0
// 000   ----------------------------------------
        BYTE           BENDR   12
        BYTE           VOICE   38
        BYTE           VOL     60
        BYTE           PAN     c_v-20
        BYTE           BEND    c_v+1
        BYTE           N01     An2   v127
        BYTE   W01
        BYTE                   An2   v108
        BYTE   W02
        BYTE                   An2   v127
        BYTE   W01
        BYTE           N07     An2   v108
        BYTE   W08
        BYTE           N56     Ds3   v123
        BYTE   W60
        BYTE           N05     As2   v120
        BYTE   W12
        BYTE           N54     En3   v123   gtp1
        BYTE   W12
// 001   ----------------------------------------
        BYTE   W48
        BYTE           N04     As2   v120
        BYTE   W06
        BYTE                   As2   v085
        BYTE   W06
        BYTE           N54     Ds3   v123   gtp1
        BYTE   W36
// 002   ----------------------------------------
        BYTE   W24
        BYTE           N04     As2   v120
        BYTE   W06
        BYTE                   As2   v088
        BYTE   W06
        BYTE           N54     En3   v123   gtp1
        BYTE   W60
// 003   ----------------------------------------
        BYTE           N04     As2   v120
        BYTE   W06
        BYTE                   As2   v102
        BYTE   W06
        BYTE           N54     Ds3   v123   gtp1
        BYTE   W60
        BYTE           N04     As2   v120
        BYTE   W06
        BYTE                   As2   v096
        BYTE   W06
        BYTE           N09     En3   v120
        BYTE   W12
// 004   ----------------------------------------
        BYTE           N04     As2
        BYTE   W06
        BYTE                   As2   v100
        BYTE   W06
        BYTE           N30     En3   v123   gtp1
        BYTE   W36
        BYTE           N04     As2   v120
        BYTE   W06
        BYTE                   As2   v094
        BYTE   W06
        BYTE           N54     Ds3   v123   gtp1
        BYTE   W36
// 005   ----------------------------------------
        BYTE   W24
        BYTE           N04     An2   v120
        BYTE   W06
        BYTE                   An2   v105
        BYTE   W06
        BYTE           N09     En3   v120
        BYTE   W12
        BYTE           N04     An2
        BYTE   W06
        BYTE                   An2   v103
        BYTE   W06
        BYTE           N30     En3   v123   gtp1
        BYTE   W36
// 006   ----------------------------------------
        BYTE           N04     An2   v127
        BYTE   W06
        BYTE                   An2   v102
        BYTE   W06
        BYTE           N54     Ds3   v123   gtp1
        BYTE   W60
        BYTE           N05     As2   v120
        BYTE   W12
        BYTE           N54     En3   v123   gtp1
        BYTE   W12
// 007   ----------------------------------------
        BYTE   W48
        BYTE           N04     As2   v120
        BYTE   W06
        BYTE                   As2   v102
        BYTE   W06
        BYTE           N54     Ds3   v123   gtp1
        BYTE   W36
// 008   ----------------------------------------
        BYTE   W24
        BYTE           N04     As2   v120
        BYTE   W06
        BYTE                   As2   v105
        BYTE   W06
        BYTE           N54     En3   v123   gtp1
        BYTE   W60
// 009   ----------------------------------------
        BYTE           N04     As2   v120
        BYTE   W06
        BYTE                   As2   v103
        BYTE   W06
        BYTE           N54     Ds3   v123   gtp1
        BYTE   W60
        BYTE           N04     As2   v120
        BYTE   W06
        BYTE                   As2   v111
        BYTE   W06
        BYTE           N11     En3   v120
        BYTE   W12
// 010   ----------------------------------------
        BYTE           N04     As2
        BYTE   W06
        BYTE                   As2   v108
        BYTE   W06
        BYTE           N30     En3   v123   gtp1
        BYTE   W36
        BYTE           N04     As2   v120
        BYTE   W06
        BYTE                   As2   v108
        BYTE   W06
        BYTE           N54     Ds3   v123   gtp1
        BYTE   W36
// 011   ----------------------------------------
        BYTE   W24
        BYTE           N04     An2   v120
        BYTE   W06
        BYTE                   An2   v109
        BYTE   W06
        BYTE           N10     En3   v120
        BYTE   W12
        BYTE           N04     An2
        BYTE   W06
        BYTE                   An2   v108
        BYTE   W06
        BYTE           N11     En3   v123
        BYTE   W12
        BYTE           N10     As2
        BYTE   W12
        BYTE                   En3
        BYTE   W12
// 012   ----------------------------------------
        BYTE           N01     En2   v127
        BYTE   W01
        BYTE                   En2   v082
        BYTE   W02
        BYTE                   En2   v085
        BYTE   W01
        BYTE                   En2   v093
        BYTE   W02
        BYTE                   En2   v102
        BYTE   W01
        BYTE                   En2   v113
        BYTE   W02
        BYTE                   En2   v118
        BYTE   W01
        BYTE                   En2   v124
        BYTE   W02
        BYTE           N20     As2   v112
        BYTE   W36
        BYTE                   Fn2   v093
        BYTE   W36
        BYTE                   As2   v112
        BYTE   W12
// 013   ----------------------------------------
        BYTE   W24
        BYTE                   Fn2   v089
        BYTE   W36
        BYTE           N23     Fs3   v112
        BYTE   W36
// 014   ----------------------------------------
        BYTE                   Cs3   v093
        BYTE   W36
        BYTE                   Bn2   v112
        BYTE   W36
        BYTE                   Gs2   v089
        BYTE   W24
// 015   ----------------------------------------
        BYTE   W12
        BYTE           N20     As2   v112
        BYTE   W36
        BYTE                   Fn2   v093
        BYTE   W36
        BYTE                   As2   v112
        BYTE   W12
// 016   ----------------------------------------
        BYTE   W24
        BYTE                   Fn2   v096
        BYTE   W36
        BYTE                   An2   v112
        BYTE   W36
// 017   ----------------------------------------
        BYTE                   An2
        BYTE   W36
        BYTE                   An2
        BYTE   W36
        BYTE           N10
        BYTE   W12
        BYTE           N02     An2   v083
        BYTE   W03
        BYTE                   An2   v070
        BYTE   W03
        BYTE                   An2   v090
        BYTE   W03
        BYTE                   An2   v081
        BYTE   W03
// 018   ----------------------------------------
        BYTE                   An2   v096
        BYTE   W03
        BYTE                   An2   v085
        BYTE   W03
        BYTE                   An2   v104
        BYTE   W03
        BYTE                   An2   v109
        BYTE   W16
        BYTE   FINE

//****************** Track 5 (Midi-Chn.5) ******************//

SEQ_BGM_D_CHAMPROAD_5:
        BYTE   KEYSH   SEQ_BGM_D_CHAMPROAD_key+0
// 000   ----------------------------------------
        BYTE           BENDR   12
        BYTE           VOL     56
        BYTE   W12
        BYTE           VOICE   30
        BYTE           VOL     39
        BYTE           PAN     c_v-12
        BYTE           N14     Ds2   v121
        BYTE   W01
        BYTE           VOL     43
        BYTE   W02
        BYTE                   47
        BYTE   W01
        BYTE                   53
        BYTE   W02
        BYTE                   55
        BYTE   W12
        BYTE           N02     Ds2   v103
        BYTE   W06
        BYTE                   Ds2
        BYTE   W06
        BYTE                   As1
        BYTE   W06
        BYTE                   Ds2   v115
        BYTE   W06
        BYTE                   As1
        BYTE   W06
        BYTE           N03     Ds2   v113
        BYTE   W12
        BYTE           N11
        BYTE   W07
        BYTE           VOL     51
        BYTE   W02
        BYTE                   48
        BYTE   W01
        BYTE                   43
        BYTE   W02
        BYTE                   39
        BYTE           N12     En2   v118
        BYTE   W01
        BYTE           VOL     43
        BYTE   W02
        BYTE                   47
        BYTE   W01
        BYTE                   53
        BYTE   W02
        BYTE                   55
        BYTE   W06
// 001   ----------------------------------------
SEQ_BGM_D_CHAMPROAD_5_1:
        BYTE   W06
        BYTE           N02     En2   v113
        BYTE   W06
        BYTE           N03     En2   v111
        BYTE   W06
        BYTE           N02     As1
        BYTE   W06
        BYTE           N04     En2   v115
        BYTE   W06
        BYTE           N02     As1
        BYTE   W06
        BYTE           N03     Gs2
        BYTE   W12
        BYTE                   En2   v113
        BYTE   W12
        BYTE           VOL     39
        BYTE           N11     Ds2   v121
        BYTE   W01
        BYTE           VOL     43
        BYTE   W02
        BYTE                   47
        BYTE   W01
        BYTE                   53
        BYTE   W02
        BYTE                   55
        BYTE   W12
        BYTE           N02     Ds2   v113
        BYTE   W06
        BYTE                   Ds2   v103
        BYTE   W06
        BYTE                   As1
        BYTE   W06
        BYTE   PEND
// 002   ----------------------------------------
        BYTE                   Ds2   v115
        BYTE   W06
        BYTE                   As1   v103
        BYTE   W06
        BYTE           N05     Dn2   v113
        BYTE   W06
        BYTE           N03     Ds2
        BYTE   W06
        BYTE           N02
        BYTE   W06
        BYTE                   As1
        BYTE   W01
        BYTE           VOL     51
        BYTE   W02
        BYTE                   48
        BYTE   W01
        BYTE                   43
        BYTE   W02
        BYTE                   39
        BYTE           N12     En2   v118
        BYTE   W01
        BYTE           VOL     43
        BYTE   W02
        BYTE                   47
        BYTE   W01
        BYTE                   53
        BYTE   W02
        BYTE                   55
        BYTE   W12
        BYTE           N02     En2   v113
        BYTE   W06
        BYTE           N03     En2   v111
        BYTE   W06
        BYTE           N02     As1
        BYTE   W06
        BYTE           N04     En2   v115
        BYTE   W06
        BYTE           N02     As1   v111
        BYTE   W06
        BYTE           N05     Ds2   v115
        BYTE   W06
        BYTE           N02     En2   v113
        BYTE   W06
// 003   ----------------------------------------
        BYTE                   En2
        BYTE   W06
        BYTE                   En2
        BYTE   W06
        BYTE           VOL     39
        BYTE           N14     Ds2   v121
        BYTE   W01
        BYTE           VOL     43
        BYTE   W02
        BYTE                   47
        BYTE   W01
        BYTE                   53
        BYTE   W02
        BYTE                   55
        BYTE   W12
        BYTE           N02     Ds2   v113
        BYTE   W06
        BYTE                   Ds2   v112
        BYTE   W06
        BYTE           N01     As1   v111
        BYTE   W06
        BYTE           N02     Ds2   v115
        BYTE   W06
        BYTE           N01     As1
        BYTE   W06
        BYTE           N03     Ds2   v113
        BYTE   W06
        BYTE           N01     As1
        BYTE   W06
        BYTE           N02     Ds2
        BYTE   W06
        BYTE           N01     As1
        BYTE   W06
        BYTE           VOL     42
        BYTE           N14     En2   v118
        BYTE   W01
        BYTE           VOL     46
        BYTE   W02
        BYTE                   49
        BYTE   W01
        BYTE                   52
        BYTE   W02
        BYTE                   55
        BYTE   W06
// 004   ----------------------------------------
SEQ_BGM_D_CHAMPROAD_5_4:
        BYTE   W06
        BYTE           N02     En2   v113
        BYTE   W06
        BYTE           N03     En2   v111
        BYTE   W12
        BYTE           N04     En2   v115
        BYTE   W12
        BYTE           VOL     41
        BYTE           N14     Cs2
        BYTE   W01
        BYTE           VOL     46
        BYTE   W02
        BYTE                   49
        BYTE   W01
        BYTE                   52
        BYTE   W02
        BYTE                   55
        BYTE   W12
        BYTE           N02     En2   v113
        BYTE   W06
        BYTE           VOL     40
        BYTE           N14     Ds2   v121
        BYTE   W01
        BYTE           VOL     44
        BYTE   W02
        BYTE                   49
        BYTE   W01
        BYTE                   52
        BYTE   W02
        BYTE                   55
        BYTE   W12
        BYTE           N01     Ds2   v113
        BYTE   W06
        BYTE           N02     Ds2   v103
        BYTE   W06
        BYTE           N01     As1
        BYTE   W06
        BYTE   PEND
// 005   ----------------------------------------
        BYTE           N02     Ds2   v115
        BYTE   W06
        BYTE           N01     As1
        BYTE   W06
        BYTE           N03     Ds2   v113
        BYTE   W12
        BYTE           N02
        BYTE   W12
        BYTE           VOL     39
        BYTE           N14     En2   v118
        BYTE   W01
        BYTE           VOL     44
        BYTE   W02
        BYTE                   48
        BYTE   W01
        BYTE                   51
        BYTE   W02
        BYTE                   55
        BYTE   W12
        BYTE           N01     En2   v113
        BYTE   W06
        BYTE           N03     En2   v111
        BYTE   W06
        BYTE           N01     Bn1
        BYTE   W06
        BYTE           N02     En2   v115
        BYTE   W06
        BYTE                   Bn1
        BYTE   W06
        BYTE           N03     En2
        BYTE   W12
// 006   ----------------------------------------
        BYTE           N11     Cs2   v113
        BYTE   W06
        BYTE           VOL     51
        BYTE   W01
        BYTE                   48
        BYTE   W02
        BYTE                   43
        BYTE   W01
        BYTE                   39
        BYTE   W02
        BYTE           N14     Ds2   v121
        BYTE   W01
        BYTE           VOL     43
        BYTE   W02
        BYTE                   47
        BYTE   W01
        BYTE                   53
        BYTE   W02
        BYTE                   55
        BYTE   W12
        BYTE           N02     Ds2   v103
        BYTE   W06
        BYTE                   Ds2
        BYTE   W06
        BYTE                   As1
        BYTE   W06
        BYTE                   Ds2   v115
        BYTE   W06
        BYTE                   As1
        BYTE   W06
        BYTE           N03     Ds2   v113
        BYTE   W12
        BYTE           N11
        BYTE   W07
        BYTE           VOL     51
        BYTE   W02
        BYTE                   48
        BYTE   W01
        BYTE                   43
        BYTE   W02
        BYTE                   39
        BYTE           N12     En2   v118
        BYTE   W01
        BYTE           VOL     43
        BYTE   W02
        BYTE                   47
        BYTE   W01
        BYTE                   53
        BYTE   W02
        BYTE                   55
        BYTE   W06
// 007   ----------------------------------------
        BYTE   PATT
         POIN2  SEQ_BGM_D_CHAMPROAD_5_1
// 008   ----------------------------------------
        BYTE           N02     Ds2   v115
        BYTE   W06
        BYTE                   As1   v103
        BYTE   W06
        BYTE           N05     Dn2   v113
        BYTE   W06
        BYTE           N03     Ds2
        BYTE   W06
        BYTE           N02
        BYTE   W06
        BYTE                   As1
        BYTE   W01
        BYTE           VOL     51
        BYTE   W02
        BYTE                   48
        BYTE   W01
        BYTE                   43
        BYTE   W02
        BYTE                   39
        BYTE           N12     En2   v118
        BYTE   W01
        BYTE           VOL     43
        BYTE   W02
        BYTE                   47
        BYTE   W01
        BYTE                   53
        BYTE   W02
        BYTE                   55
        BYTE   W12
        BYTE           N02     En2   v113
        BYTE   W06
        BYTE           N03     En2   v111
        BYTE   W06
        BYTE                   As1
        BYTE   W06
        BYTE           N04     En2   v115
        BYTE   W06
        BYTE           N03     As1   v111
        BYTE   W06
        BYTE           N05     Ds2   v115
        BYTE   W06
        BYTE           N02     En2   v113
        BYTE   W06
// 009   ----------------------------------------
        BYTE                   En2
        BYTE   W06
        BYTE                   En2
        BYTE   W06
        BYTE           VOL     39
        BYTE           N14     Ds2   v121
        BYTE   W01
        BYTE           VOL     43
        BYTE   W02
        BYTE                   47
        BYTE   W01
        BYTE                   53
        BYTE   W02
        BYTE                   55
        BYTE   W12
        BYTE           N02     Ds2   v113
        BYTE   W06
        BYTE                   Ds2   v103
        BYTE   W06
        BYTE           N01     As1
        BYTE   W06
        BYTE           N02     Ds2   v115
        BYTE   W06
        BYTE           N01     As1
        BYTE   W06
        BYTE           N03     Ds2   v113
        BYTE   W06
        BYTE           N01     As1
        BYTE   W06
        BYTE           N02     Ds2
        BYTE   W06
        BYTE           N01     As1
        BYTE   W06
        BYTE           VOL     42
        BYTE           N14     En2   v118
        BYTE   W01
        BYTE           VOL     46
        BYTE   W02
        BYTE                   49
        BYTE   W01
        BYTE                   52
        BYTE   W02
        BYTE                   55
        BYTE   W06
// 010   ----------------------------------------
        BYTE   PATT
         POIN2  SEQ_BGM_D_CHAMPROAD_5_4
// 011   ----------------------------------------
        BYTE           N02     Ds2   v115
        BYTE   W06
        BYTE           N01     As1
        BYTE   W06
        BYTE           N03     Ds2   v113
        BYTE   W12
        BYTE           N02
        BYTE   W12
        BYTE           VOL     39
        BYTE           N14     En2   v118
        BYTE   W01
        BYTE           VOL     44
        BYTE   W02
        BYTE                   48
        BYTE   W01
        BYTE                   51
        BYTE   W02
        BYTE                   55
        BYTE   W12
        BYTE           N01     En2   v113
        BYTE   W06
        BYTE           N03     En2   v111
        BYTE   W06
        BYTE           N01     Bn1
        BYTE   W06
        BYTE           N05     En2   v115
        BYTE   W06
        BYTE           N02     Bn1
        BYTE   W06
        BYTE           N11     En2
        BYTE   W12
// 012   ----------------------------------------
        BYTE                   As2   v113
        BYTE   W12
        BYTE           VOICE   34
        BYTE           N11     Bn2   v120
        BYTE   W12
        BYTE           N02     Fs2
        BYTE   W06
        BYTE                   Bn2
        BYTE   W06
        BYTE                   Fs3
        BYTE   W06
        BYTE           N11     Fn3
        BYTE   W18
        BYTE                   Ds3
        BYTE   W24
        BYTE           N08     Bn2
        BYTE   W12
// 013   ----------------------------------------
        BYTE   W06
        BYTE           N02
        BYTE   W06
        BYTE                   Bn3
        BYTE   W06
        BYTE                   As3
        BYTE   W18
        BYTE           N11     Fs3
        BYTE   W12
        BYTE                   Cs3
        BYTE   W12
        BYTE                   As2
        BYTE   W12
        BYTE           N05     As1
        BYTE   W06
        BYTE                   Fs2
        BYTE   W06
        BYTE                   As2
        BYTE   W06
        BYTE                   Fs3
        BYTE   W06
// 014   ----------------------------------------
        BYTE   W12
        BYTE           N11
        BYTE   W12
        BYTE                   Fn3
        BYTE   W12
        BYTE                   Ds3
        BYTE   W12
        BYTE                   Cn3
        BYTE   W12
        BYTE                   As3
        BYTE   W12
        BYTE                   Gs3
        BYTE   W12
        BYTE                   Gs3
        BYTE   W12
// 015   ----------------------------------------
        BYTE           N05     Fs3
        BYTE   W06
        BYTE                   Fn3
        BYTE   W18
        BYTE           N11     Bn2
        BYTE   W12
        BYTE                   Ds3
        BYTE   W36
        BYTE                   Fs2
        BYTE   W24
// 016   ----------------------------------------
        BYTE                   Bn2
        BYTE   W12
        BYTE                   Ds3
        BYTE   W36
        BYTE                   Fs3
        BYTE   W12
        BYTE                   As3
        BYTE   W12
        BYTE                   Ds3
        BYTE   W12
        BYTE                   Fn3
        BYTE   W12
// 017   ----------------------------------------
        BYTE                   Fn2
        BYTE   W12
        BYTE                   Cn3
        BYTE   W12
        BYTE                   An2
        BYTE   W12
        BYTE                   As2
        BYTE   W12
        BYTE                   Cn3
        BYTE   W12
        BYTE                   Dn3
        BYTE   W12
        BYTE                   Fn3
        BYTE   W12
        BYTE                   Gs3
        BYTE   W12
// 018   ----------------------------------------
        BYTE                   As3
        BYTE   W24
        BYTE   W01
        BYTE   FINE

//****************** Track 6 (Midi-Chn.6) ******************//

SEQ_BGM_D_CHAMPROAD_6:
        BYTE   KEYSH   SEQ_BGM_D_CHAMPROAD_key+0
// 000   ----------------------------------------
        BYTE           BENDR   12
        BYTE           VOICE   43
        BYTE           VOL     59
        BYTE           PAN     c_v+56
        BYTE           N02     As0   v120
        BYTE   W06
        BYTE                   As0
        BYTE   W06
        BYTE           N54     As0   v120   gtp1
        BYTE   W60
        BYTE           N02     Ds1
        BYTE   W06
        BYTE                   Ds1
        BYTE   W06
        BYTE           N52     As0
        BYTE   W12
// 001   ----------------------------------------
SEQ_BGM_D_CHAMPROAD_6_1:
        BYTE   W48
        BYTE           N02     As0   v120
        BYTE   W06
        BYTE                   As0
        BYTE   W06
        BYTE           N56     Ds1   v120   gtp2
        BYTE   W36
        BYTE   PEND
// 002   ----------------------------------------
SEQ_BGM_D_CHAMPROAD_6_2:
        BYTE   W24
        BYTE           N11     As0   v120
        BYTE   W12
        BYTE           N56     En1   v120   gtp2
        BYTE   W60
        BYTE   PEND
// 003   ----------------------------------------
        BYTE           N11     As0
        BYTE   W12
        BYTE           N64     Ds1   v120   gtp1
        BYTE   W72
        BYTE           N32     As1   v120   gtp2
        BYTE   W12
// 004   ----------------------------------------
        BYTE   W24
        BYTE           N10     Gs1
        BYTE   W12
        BYTE                   Gn1
        BYTE   W12
        BYTE           N11     As0
        BYTE   W12
        BYTE           N44     Ds1   v120   gtp2
        BYTE   W36
// 005   ----------------------------------------
        BYTE   W24
        BYTE           N02     As0
        BYTE   W06
        BYTE                   As0
        BYTE   W06
        BYTE           N32     Bn1   v120   gtp2
        BYTE   W36
        BYTE           N22     As1
        BYTE   W24
// 006   ----------------------------------------
        BYTE           N02     Dn2
        BYTE   W06
        BYTE           N05     Fn1
        BYTE   W06
        BYTE           N54     As0   v120   gtp1
        BYTE   W60
        BYTE           N02     Ds1
        BYTE   W06
        BYTE                   Ds1
        BYTE   W06
        BYTE           N52     As0
        BYTE   W12
// 007   ----------------------------------------
        BYTE   PATT
         POIN2  SEQ_BGM_D_CHAMPROAD_6_1
// 008   ----------------------------------------
        BYTE   PATT
         POIN2  SEQ_BGM_D_CHAMPROAD_6_2
// 009   ----------------------------------------
        BYTE           N11     As0   v120
        BYTE   W12
        BYTE           N64     Ds1
        BYTE   W72
        BYTE           N32     As1   v120   gtp2
        BYTE   W12
// 010   ----------------------------------------
        BYTE   W24
        BYTE           N10     Gs1
        BYTE   W12
        BYTE                   Gn1
        BYTE   W24
        BYTE           N44     Ds1   v120   gtp2
        BYTE   W36
// 011   ----------------------------------------
        BYTE   W24
        BYTE           N02     As0
        BYTE   W06
        BYTE                   As0
        BYTE   W06
        BYTE           N32     Bn1   v127   gtp2
        BYTE   W36
        BYTE           N04     As1
        BYTE   W12
        BYTE           N10
        BYTE   W12
// 012   ----------------------------------------
        BYTE                   Gs1
        BYTE   W12
        BYTE                   Bn1   v120
        BYTE   W12
        BYTE           N02     Fs1
        BYTE   W06
        BYTE                   Fs1
        BYTE   W06
        BYTE           N04     Bn1
        BYTE   W12
        BYTE           N10     Fs1   v127
        BYTE   W36
        BYTE                   Bn1   v120
        BYTE   W12
// 013   ----------------------------------------
        BYTE           N02     Fs1
        BYTE   W06
        BYTE                   Fs1
        BYTE   W06
        BYTE           N04     Bn1
        BYTE   W12
        BYTE           N10     Fs1   v127
        BYTE   W36
        BYTE                   Fs1   v120
        BYTE   W12
        BYTE           N02     Cs1
        BYTE   W06
        BYTE                   Cs1
        BYTE   W06
        BYTE           N05     Fn1
        BYTE   W12
// 014   ----------------------------------------
        BYTE   W36
        BYTE           VOL     70
        BYTE           N10     Gs1
        BYTE   W12
        BYTE           N02     Ds1
        BYTE   W06
        BYTE                   Gs1
        BYTE   W06
        BYTE                   Cn2
        BYTE   W06
        BYTE                   Ds2
        BYTE   W06
        BYTE                   As2
        BYTE   W12
        BYTE           N05
        BYTE   W12
// 015   ----------------------------------------
        BYTE                   Gs2
        BYTE   W06
        BYTE                   Fs2
        BYTE   W06
        BYTE           VOL     59
        BYTE           N10     Bn1
        BYTE   W12
        BYTE           N02     Fs1
        BYTE   W06
        BYTE                   Fs1
        BYTE   W06
        BYTE           N04     Bn1
        BYTE   W48
        BYTE           N10
        BYTE   W12
// 016   ----------------------------------------
        BYTE           N02     Fs1
        BYTE   W06
        BYTE                   Fs1
        BYTE   W06
        BYTE           N04     Bn1
        BYTE   W48
        BYTE           N10     Fn1
        BYTE   W12
        BYTE           N02     Ds1
        BYTE   W06
        BYTE                   Fn1
        BYTE   W06
        BYTE                   Cn2
        BYTE   W06
        BYTE                   Fn1
        BYTE   W06
// 017   ----------------------------------------
        BYTE                   Cn2
        BYTE   W12
        BYTE           N05     Fn1
        BYTE   W12
        BYTE           N10     Cn2
        BYTE   W12
        BYTE                   As1
        BYTE   W12
        BYTE           N02     Fn1
        BYTE   W12
        BYTE                   As1
        BYTE   W12
        BYTE           N10     As0
        BYTE   W12
        BYTE                   Cn1
        BYTE   W12
// 018   ----------------------------------------
        BYTE                   Dn1
        BYTE   W24
        BYTE   W01
        BYTE   FINE

//****************** Track 7 (Midi-Chn.7) ******************//

SEQ_BGM_D_CHAMPROAD_7:
        BYTE   KEYSH   SEQ_BGM_D_CHAMPROAD_key+0
// 000   ----------------------------------------
        BYTE           BENDR   12
        BYTE           VOL     54
        BYTE   W12
        BYTE           VOICE   42
        BYTE           BEND    c_v+1
        BYTE           VOL     27
        BYTE           PAN     c_v+49
        BYTE   W12
        BYTE           N44     Gn4   v125   gtp3
        BYTE   W48
        BYTE           N05     Ds4   v113
        BYTE   W12
        BYTE           N11     Cs4   v118
        BYTE   W12
// 001   ----------------------------------------
        BYTE           N44     Ds4   v118   gtp2
        BYTE   W48
        BYTE           N05     Cs4   v105
        BYTE   W12
        BYTE                   Bn3   v115
        BYTE   W12
        BYTE           N32     As3   v123   gtp2
        BYTE   W24
// 002   ----------------------------------------
        BYTE   W24
        BYTE           N05     Gs3   v115
        BYTE   W06
        BYTE           N02     As3   v105
        BYTE   W06
        BYTE           N05     Gs3   v113
        BYTE   W06
        BYTE           N02     As3   v097
        BYTE   W06
        BYTE           N44     Cs4   v123   gtp3
        BYTE   W48
// 003   ----------------------------------------
        BYTE           N05     As3   v105
        BYTE   W12
        BYTE                   Gs3
        BYTE   W12
        BYTE                   Gn3
        BYTE   W12
        BYTE           N56     Ds3   v105   gtp3
        BYTE   W60
// 004   ----------------------------------------
        BYTE           PAN     c_v-42
        BYTE           N32     As2   v105   gtp3
        BYTE   W36
        BYTE           N04     Gs2
        BYTE   W12
        BYTE           N17     Fn2
        BYTE   W18
        BYTE           N05     Gs2
        BYTE   W06
        BYTE           N56     Gn2   v105   gtp3
        BYTE   W24
// 005   ----------------------------------------
        BYTE   W36
        BYTE           N02
        BYTE   W03
        BYTE                   Gs2
        BYTE   W03
        BYTE                   An2
        BYTE   W03
        BYTE                   As2
        BYTE   W03
        BYTE           N32     Bn2
        BYTE   W32
        BYTE   W01
        BYTE           N24     As2   v105   gtp2
        BYTE   W15
// 006   ----------------------------------------
        BYTE   W12
        BYTE           PAN     c_v+57
        BYTE           N02     Cs4
        BYTE   W03
        BYTE                   Dn4   v123
        BYTE   W03
        BYTE                   Ds4
        BYTE   W03
        BYTE                   Fn4
        BYTE   W03
        BYTE           N44     Gn4   v125   gtp3
        BYTE   W48
        BYTE           N05     Ds4   v113
        BYTE   W12
        BYTE           N11     As3   v118
        BYTE   W12
// 007   ----------------------------------------
        BYTE           N44     Cs4
        BYTE   W48
        BYTE           N05     Ds4   v115
        BYTE   W12
        BYTE                   Cs4
        BYTE   W12
        BYTE                   Ds4   v123
        BYTE   W18
        BYTE           N24     As3   v118   gtp2
        BYTE   W06
// 008   ----------------------------------------
        BYTE   W24
        BYTE           N02     Gs3   v115
        BYTE   W06
        BYTE                   As3   v105
        BYTE   W06
        BYTE                   Gs3   v113
        BYTE   W06
        BYTE                   As3   v097
        BYTE   W06
        BYTE           N44     Cs4   v123   gtp3
        BYTE   W48
// 009   ----------------------------------------
        BYTE           N05     As3   v105
        BYTE   W12
        BYTE                   Gs3
        BYTE   W12
        BYTE                   Gn3
        BYTE   W06
        BYTE                   Fn3
        BYTE   W12
        BYTE           N52     Ds3   v105   gtp1
        BYTE   W54
// 010   ----------------------------------------
        BYTE           N32     As2   v105   gtp3
        BYTE   W36
        BYTE           N04     Gs2
        BYTE   W12
        BYTE           N17     Fn2
        BYTE   W18
        BYTE           N05     Gs2
        BYTE   W06
        BYTE           N56     Gn2   v105   gtp3
        BYTE   W24
// 011   ----------------------------------------
        BYTE   W36
        BYTE           N02
        BYTE   W03
        BYTE                   Gs2
        BYTE   W03
        BYTE                   An2
        BYTE   W03
        BYTE                   As2
        BYTE   W03
        BYTE           N23     Bn2
        BYTE   W36
        BYTE           N05     As2
        BYTE   W12
// 012   ----------------------------------------
        BYTE           N11
        BYTE   W12
        BYTE           PAN     c_v+23
        BYTE           N05     Gs2
        BYTE   W06
        BYTE           VOICE   30
        BYTE   W07
        BYTE           N36     Ds4   v115
        BYTE   W48
        BYTE           N12     Fn4
        BYTE   W12
        BYTE                   Fs4
        BYTE   W11
// 013   ----------------------------------------
        BYTE   W01
        BYTE           N48     Gs4
        BYTE   W48
        BYTE           N12     Fn4
        BYTE   W12
        BYTE                   Cs4
        BYTE   W12
        BYTE           N36     Fn4
        BYTE   W23
// 014   ----------------------------------------
        BYTE   W24
        BYTE   W01
        BYTE           N12     Cs4
        BYTE   W05
        BYTE           N11     As3
        BYTE   W19
        BYTE           N48     Cn4
        BYTE   W44
        BYTE   W03
// 015   ----------------------------------------
        BYTE   W24
        BYTE   W01
        BYTE           N36     Ds4
        BYTE   W48
        BYTE           N12     Fn4
        BYTE   W12
        BYTE                   Fs4
        BYTE   W11
// 016   ----------------------------------------
        BYTE   W01
        BYTE           N60     Gs4
        BYTE   W60
        BYTE           N03     Fs4
        BYTE   W06
        BYTE                   Gs4
        BYTE   W06
        BYTE           N72     As4
        BYTE   W23
// 017   ----------------------------------------
        BYTE   W48
        BYTE   W01
        BYTE                   As4
        BYTE   W44
        BYTE   W03
// 018   ----------------------------------------
        BYTE   W24
        BYTE   W01
        BYTE   FINE

//****************** Track 8 (Midi-Chn.8) ******************//

SEQ_BGM_D_CHAMPROAD_8:
        BYTE   KEYSH   SEQ_BGM_D_CHAMPROAD_key+0
// 000   ----------------------------------------
        BYTE           BENDR   12
        BYTE           VOICE   80
        BYTE           VOL     63
        BYTE           PAN     c_v+20
        BYTE           N04     Dn1   v120
        BYTE   W06
        BYTE           N01
        BYTE   W03
        BYTE                   Dn1   v066
        BYTE   W01
        BYTE                   Dn1   v051
        BYTE   W02
        BYTE                   Dn1   v123
        BYTE   W01
        BYTE           N07     Dn1   v099
        BYTE   W11
        BYTE           N04     Dn1   v060
        BYTE   W06
        BYTE                   Dn1   v069
        BYTE   W06
        BYTE                   Dn1   v060
        BYTE   W06
        BYTE                   Dn1   v069
        BYTE   W06
        BYTE                   Dn1
        BYTE   W12
        BYTE           N01     Dn1   v127
        BYTE   W01
        BYTE           N09     Dn1   v120
        BYTE   W11
        BYTE           N01     Dn1   v124
        BYTE   W01
        BYTE                   Dn1   v103
        BYTE   W02
        BYTE                   Dn1   v110
        BYTE   W01
        BYTE                   Dn1   v086
        BYTE   W02
        BYTE                   Dn1   v093
        BYTE   W01
        BYTE                   Dn1   v075
        BYTE   W02
        BYTE                   Dn1   v082
        BYTE   W01
        BYTE                   Dn1   v070
        BYTE   W02
        BYTE           N08     Dn1   v120
        BYTE   W12
// 001   ----------------------------------------
SEQ_BGM_D_CHAMPROAD_8_1:
        BYTE           N04     Dn1   v060
        BYTE   W06
        BYTE                   Dn1   v081
        BYTE   W06
        BYTE                   Dn1   v060
        BYTE   W06
        BYTE                   Dn1   v084
        BYTE   W06
        BYTE                   Dn1   v069
        BYTE   W06
        BYTE                   Dn1   v096
        BYTE   W06
        BYTE           N11     Dn1   v127
        BYTE   W12
        BYTE           N01     Dn1   v124
        BYTE   W01
        BYTE                   Dn1   v103
        BYTE   W02
        BYTE                   Dn1   v110
        BYTE   W01
        BYTE                   Dn1   v086
        BYTE   W02
        BYTE                   Dn1   v093
        BYTE   W01
        BYTE                   Dn1   v075
        BYTE   W02
        BYTE                   Dn1   v082
        BYTE   W01
        BYTE                   Dn1   v070
        BYTE   W02
        BYTE           N08     Dn1   v120
        BYTE   W12
        BYTE           N04     Dn1   v060
        BYTE   W06
        BYTE                   Dn1   v084
        BYTE   W06
        BYTE                   Dn1   v060
        BYTE   W06
        BYTE                   Dn1   v099
        BYTE   W06
        BYTE   PEND
// 002   ----------------------------------------
SEQ_BGM_D_CHAMPROAD_8_2:
        BYTE           N04     Dn1   v120
        BYTE   W06
        BYTE                   Dn1   v096
        BYTE   W06
        BYTE           N11     Dn1   v120
        BYTE   W12
        BYTE           N01     Dn1   v124
        BYTE   W01
        BYTE                   Dn1   v103
        BYTE   W02
        BYTE                   Dn1   v110
        BYTE   W01
        BYTE                   Dn1   v086
        BYTE   W02
        BYTE                   Dn1   v093
        BYTE   W01
        BYTE                   Dn1   v075
        BYTE   W02
        BYTE                   Dn1   v082
        BYTE   W01
        BYTE                   Dn1   v070
        BYTE   W02
        BYTE           N08     Dn1   v120
        BYTE   W12
        BYTE           N04     Dn1   v060
        BYTE   W06
        BYTE                   Dn1   v069
        BYTE   W06
        BYTE                   Dn1   v060
        BYTE   W06
        BYTE                   Dn1   v093
        BYTE   W06
        BYTE                   Dn1   v069
        BYTE   W06
        BYTE                   Dn1   v120
        BYTE   W06
        BYTE           N05     Dn1   v123
        BYTE   W06
        BYTE                   Dn1   v102
        BYTE   W06
        BYTE   PEND
// 003   ----------------------------------------
        BYTE                   Dn1   v127
        BYTE   W06
        BYTE           N02     Dn1   v114
        BYTE   W03
        BYTE           N01     Dn1   v085
        BYTE   W01
        BYTE                   Dn1   v072
        BYTE   W02
        BYTE                   Dn1   v127
        BYTE   W01
        BYTE           N07     Dn1   v099
        BYTE   W11
        BYTE           N04     Dn1   v060
        BYTE   W06
        BYTE                   Dn1   v069
        BYTE   W06
        BYTE                   Dn1   v060
        BYTE   W06
        BYTE                   Dn1   v069
        BYTE   W06
        BYTE                   Dn1   v051
        BYTE   W06
        BYTE                   Dn1   v075
        BYTE   W06
        BYTE           N01     Dn1   v120
        BYTE   W01
        BYTE           N04     Dn1   v127
        BYTE   W05
        BYTE                   Dn1
        BYTE   W06
        BYTE           N02
        BYTE   W06
        BYTE                   Dn1   v123
        BYTE   W03
        BYTE           N01     Dn1   v069
        BYTE   W01
        BYTE                   Dn1   v052
        BYTE   W02
        BYTE           N08     Dn1   v120
        BYTE   W12
// 004   ----------------------------------------
        BYTE           N04     Dn1   v060
        BYTE   W06
        BYTE                   Dn1   v069
        BYTE   W06
        BYTE                   Dn1   v060
        BYTE   W06
        BYTE                   Dn1   v069
        BYTE   W06
        BYTE                   Dn1   v120
        BYTE   W12
        BYTE           N01     Dn1   v124
        BYTE   W01
        BYTE                   Dn1   v103
        BYTE   W02
        BYTE                   Dn1   v110
        BYTE   W01
        BYTE                   Dn1   v086
        BYTE   W02
        BYTE                   Dn1   v093
        BYTE   W01
        BYTE                   Dn1   v075
        BYTE   W02
        BYTE                   Dn1   v082
        BYTE   W01
        BYTE                   Dn1   v070
        BYTE   W02
        BYTE                   Dn1
        BYTE   W01
        BYTE                   Dn1   v059
        BYTE   W02
        BYTE                   Dn1   v066
        BYTE   W01
        BYTE                   Dn1   v047
        BYTE   W02
        BYTE           N02     Dn1   v119
        BYTE   W03
        BYTE           N01     Dn1   v072
        BYTE   W01
        BYTE                   Dn1   v070
        BYTE   W02
        BYTE           N10     Dn1   v127
        BYTE   W12
        BYTE           N04     Dn1   v060
        BYTE   W06
        BYTE                   Dn1   v084
        BYTE   W06
        BYTE                   Dn1   v060
        BYTE   W06
        BYTE                   Dn1   v099
        BYTE   W06
// 005   ----------------------------------------
        BYTE                   Dn1   v069
        BYTE   W12
        BYTE           N11     Dn1   v127
        BYTE   W12
        BYTE           N01     Dn1   v124
        BYTE   W01
        BYTE                   Dn1   v103
        BYTE   W02
        BYTE                   Dn1   v110
        BYTE   W01
        BYTE                   Dn1   v086
        BYTE   W02
        BYTE                   Dn1   v093
        BYTE   W01
        BYTE                   Dn1   v075
        BYTE   W02
        BYTE                   Dn1   v082
        BYTE   W01
        BYTE                   Dn1   v070
        BYTE   W02
        BYTE           N08     Dn1   v126
        BYTE   W12
        BYTE           N04     Dn1   v060
        BYTE   W06
        BYTE                   Dn1   v069
        BYTE   W06
        BYTE                   Dn1   v060
        BYTE   W06
        BYTE                   Dn1   v069
        BYTE   W12
        BYTE                   Dn1
        BYTE   W06
        BYTE           N11     Dn1   v127
        BYTE   W12
// 006   ----------------------------------------
        BYTE           N01     Dn1   v124
        BYTE   W01
        BYTE                   Dn1   v103
        BYTE   W02
        BYTE                   Dn1   v110
        BYTE   W01
        BYTE                   Dn1   v086
        BYTE   W02
        BYTE                   Dn1   v093
        BYTE   W01
        BYTE                   Dn1   v075
        BYTE   W02
        BYTE                   Dn1   v082
        BYTE   W01
        BYTE                   Dn1   v070
        BYTE   W02
        BYTE                   Dn1   v123
        BYTE   W01
        BYTE           N07     Dn1   v099
        BYTE   W11
        BYTE           N04     Dn1   v060
        BYTE   W06
        BYTE                   Dn1   v069
        BYTE   W06
        BYTE                   Dn1   v060
        BYTE   W06
        BYTE                   Dn1   v069
        BYTE   W06
        BYTE                   Dn1
        BYTE   W11
        BYTE           N01     Dn1   v111
        BYTE   W01
        BYTE           N09     Dn1   v120
        BYTE   W12
        BYTE           N01     Dn1   v124
        BYTE   W01
        BYTE                   Dn1   v103
        BYTE   W02
        BYTE                   Dn1   v110
        BYTE   W01
        BYTE                   Dn1   v086
        BYTE   W02
        BYTE                   Dn1   v093
        BYTE   W01
        BYTE                   Dn1   v075
        BYTE   W02
        BYTE                   Dn1   v082
        BYTE   W01
        BYTE                   Dn1   v070
        BYTE   W02
        BYTE           N08     Dn1   v120
        BYTE   W12
// 007   ----------------------------------------
        BYTE           N04     Dn1   v060
        BYTE   W06
        BYTE                   Dn1   v081
        BYTE   W06
        BYTE                   Dn1   v060
        BYTE   W06
        BYTE                   Dn1   v084
        BYTE   W06
        BYTE                   Dn1   v069
        BYTE   W06
        BYTE                   Dn1   v096
        BYTE   W06
        BYTE           N11     Dn1   v127
        BYTE   W12
        BYTE           N01     Dn1   v124
        BYTE   W01
        BYTE                   Dn1   v103
        BYTE   W02
        BYTE                   Dn1   v110
        BYTE   W01
        BYTE                   Dn1   v086
        BYTE   W02
        BYTE                   Dn1   v093
        BYTE   W01
        BYTE                   Dn1   v075
        BYTE   W02
        BYTE                   Dn1   v082
        BYTE   W01
        BYTE                   Dn1   v070
        BYTE   W02
        BYTE           N05     Dn1   v120
        BYTE   W06
        BYTE                   Dn1   v093
        BYTE   W12
        BYTE           N04     Dn1   v110
        BYTE   W06
        BYTE                   Dn1   v060
        BYTE   W06
        BYTE                   Dn1   v099
        BYTE   W06
// 008   ----------------------------------------
        BYTE   PATT
         POIN2  SEQ_BGM_D_CHAMPROAD_8_2
// 009   ----------------------------------------
        BYTE           N05     Dn1   v127
        BYTE   W06
        BYTE           N02     Dn1   v114
        BYTE   W03
        BYTE           N01     Dn1   v090
        BYTE   W01
        BYTE                   Dn1   v079
        BYTE   W02
        BYTE                   Dn1   v115
        BYTE   W01
        BYTE           N04     Dn1   v099
        BYTE   W05
        BYTE                   Dn1   v060
        BYTE   W12
        BYTE                   Dn1   v099
        BYTE   W06
        BYTE                   Dn1   v060
        BYTE   W06
        BYTE                   Dn1   v069
        BYTE   W06
        BYTE                   Dn1   v051
        BYTE   W06
        BYTE                   Dn1   v075
        BYTE   W06
        BYTE           N01     Dn1   v120
        BYTE   W01
        BYTE           N04     Dn1   v127
        BYTE   W05
        BYTE                   Dn1   v114
        BYTE   W06
        BYTE           N02     Dn1   v127
        BYTE   W06
        BYTE                   Dn1   v114
        BYTE   W03
        BYTE           N01     Dn1   v069
        BYTE   W01
        BYTE                   Dn1   v061
        BYTE   W02
        BYTE           N08     Dn1   v127
        BYTE   W12
// 010   ----------------------------------------
        BYTE           N04     Dn1   v060
        BYTE   W06
        BYTE                   Dn1   v069
        BYTE   W06
        BYTE                   Dn1   v060
        BYTE   W06
        BYTE                   Dn1   v069
        BYTE   W06
        BYTE                   Dn1   v120
        BYTE   W12
        BYTE           N01     Dn1   v127
        BYTE   W01
        BYTE                   Dn1   v109
        BYTE   W02
        BYTE                   Dn1   v114
        BYTE   W01
        BYTE                   Dn1   v094
        BYTE   W02
        BYTE                   Dn1   v101
        BYTE   W01
        BYTE                   Dn1   v083
        BYTE   W02
        BYTE                   Dn1   v089
        BYTE   W01
        BYTE                   Dn1   v074
        BYTE   W02
        BYTE                   Dn1   v083
        BYTE   W01
        BYTE                   Dn1   v063
        BYTE   W02
        BYTE                   Dn1   v075
        BYTE   W03
        BYTE           N02     Dn1   v122
        BYTE   W03
        BYTE           N01     Dn1   v070
        BYTE   W01
        BYTE                   Dn1   v063
        BYTE   W02
        BYTE           N08     Dn1   v126
        BYTE   W12
        BYTE           N04     Dn1   v060
        BYTE   W06
        BYTE                   Dn1   v084
        BYTE   W06
        BYTE                   Dn1   v060
        BYTE   W06
        BYTE                   Dn1   v099
        BYTE   W06
// 011   ----------------------------------------
        BYTE                   Dn1   v069
        BYTE   W12
        BYTE           N11     Dn1   v127
        BYTE   W12
        BYTE           N01     Dn1   v124
        BYTE   W01
        BYTE                   Dn1   v103
        BYTE   W02
        BYTE                   Dn1   v110
        BYTE   W01
        BYTE                   Dn1   v086
        BYTE   W02
        BYTE                   Dn1   v093
        BYTE   W01
        BYTE                   Dn1   v075
        BYTE   W02
        BYTE                   Dn1   v082
        BYTE   W01
        BYTE                   Dn1   v070
        BYTE   W02
        BYTE           N08     Dn1   v127
        BYTE   W12
        BYTE           N04     Dn1   v060
        BYTE   W06
        BYTE                   Dn1   v069
        BYTE   W06
        BYTE                   Dn1   v060
        BYTE   W06
        BYTE                   Dn1   v069
        BYTE   W12
        BYTE                   Dn1
        BYTE   W06
        BYTE           N11     Dn1   v127
        BYTE   W12
// 012   ----------------------------------------
        BYTE           N01     Dn1   v124
        BYTE   W01
        BYTE                   Dn1   v103
        BYTE   W02
        BYTE                   Dn1   v110
        BYTE   W01
        BYTE                   Dn1   v086
        BYTE   W02
        BYTE                   Dn1   v093
        BYTE   W01
        BYTE                   Dn1   v075
        BYTE   W02
        BYTE                   Dn1   v082
        BYTE   W01
        BYTE                   Dn1   v070
        BYTE   W02
        BYTE                   Dn1   v093
        BYTE   W01
        BYTE           N07     Dn1   v111
        BYTE   W11
        BYTE           N04     Dn1   v060
        BYTE   W06
        BYTE                   Dn1   v069
        BYTE   W06
        BYTE                   Dn1   v060
        BYTE   W06
        BYTE                   Dn1   v069
        BYTE   W06
        BYTE                   Dn1
        BYTE   W12
        BYTE           N01     Dn1   v127
        BYTE   W01
        BYTE           N09     Dn1   v120
        BYTE   W11
        BYTE           N01     Dn1   v124
        BYTE   W01
        BYTE                   Dn1   v103
        BYTE   W02
        BYTE                   Dn1   v110
        BYTE   W01
        BYTE                   Dn1   v086
        BYTE   W02
        BYTE                   Dn1   v093
        BYTE   W01
        BYTE                   Dn1   v075
        BYTE   W02
        BYTE                   Dn1   v082
        BYTE   W01
        BYTE                   Dn1   v070
        BYTE   W02
        BYTE           N08     Dn1   v120
        BYTE   W12
// 013   ----------------------------------------
        BYTE   PATT
         POIN2  SEQ_BGM_D_CHAMPROAD_8_1
// 014   ----------------------------------------
        BYTE           N04     Dn1   v120
        BYTE   W06
        BYTE                   Dn1   v096
        BYTE   W06
        BYTE           N11     Dn1   v120
        BYTE   W12
        BYTE           N01     Dn1   v124
        BYTE   W01
        BYTE                   Dn1   v103
        BYTE   W02
        BYTE                   Dn1   v110
        BYTE   W01
        BYTE                   Dn1   v086
        BYTE   W02
        BYTE                   Dn1   v093
        BYTE   W01
        BYTE                   Dn1   v075
        BYTE   W02
        BYTE                   Dn1   v082
        BYTE   W01
        BYTE                   Dn1   v070
        BYTE   W02
        BYTE           N08     Dn1   v120
        BYTE   W12
        BYTE           N04     Dn1   v060
        BYTE   W06
        BYTE                   Dn1   v069
        BYTE   W06
        BYTE                   Dn1   v113
        BYTE   W09
        BYTE           N01     Dn1   v069
        BYTE   W01
        BYTE                   Dn1
        BYTE   W02
        BYTE           N04     Dn1   v107
        BYTE   W06
        BYTE                   Dn1   v085
        BYTE   W06
        BYTE           N02     Dn1   v110
        BYTE   W09
        BYTE           N01     Dn1   v069
        BYTE   W01
        BYTE                   Dn1
        BYTE   W02
// 015   ----------------------------------------
        BYTE           N04     Dn1   v112
        BYTE   W06
        BYTE           N02     Dn1   v090
        BYTE   W06
        BYTE           N01     Dn1   v127
        BYTE   W01
        BYTE           N07     Dn1   v099
        BYTE   W11
        BYTE           N04     Dn1   v060
        BYTE   W06
        BYTE                   Dn1   v069
        BYTE   W06
        BYTE                   Dn1   v060
        BYTE   W06
        BYTE                   Dn1   v069
        BYTE   W06
        BYTE                   Dn1   v051
        BYTE   W06
        BYTE                   Dn1   v075
        BYTE   W06
        BYTE           N01     Dn1   v120
        BYTE   W01
        BYTE           N04     Dn1   v127
        BYTE   W05
        BYTE                   Dn1
        BYTE   W06
        BYTE           N02
        BYTE   W06
        BYTE                   Dn1   v123
        BYTE   W03
        BYTE           N01     Dn1   v069
        BYTE   W01
        BYTE                   Dn1
        BYTE   W02
        BYTE           N08     Dn1   v120
        BYTE   W12
// 016   ----------------------------------------
        BYTE           N04     Dn1   v060
        BYTE   W06
        BYTE                   Dn1   v069
        BYTE   W06
        BYTE                   Dn1   v060
        BYTE   W06
        BYTE                   Dn1   v069
        BYTE   W06
        BYTE                   Dn1   v120
        BYTE   W12
        BYTE           N01     Dn1   v127
        BYTE   W01
        BYTE                   Dn1   v104
        BYTE   W02
        BYTE                   Dn1   v108
        BYTE   W01
        BYTE                   Dn1   v096
        BYTE   W02
        BYTE                   Dn1   v103
        BYTE   W01
        BYTE                   Dn1   v085
        BYTE   W02
        BYTE                   Dn1   v091
        BYTE   W01
        BYTE                   Dn1   v075
        BYTE   W02
        BYTE                   Dn1   v084
        BYTE   W01
        BYTE                   Dn1   v070
        BYTE   W02
        BYTE                   Dn1   v077
        BYTE   W03
        BYTE           N02     Dn1   v127
        BYTE   W03
        BYTE           N01     Dn1   v072
        BYTE   W01
        BYTE                   Dn1   v051
        BYTE   W02
        BYTE                   Dn1   v127
        BYTE   W01
        BYTE                   Dn1   v095
        BYTE   W02
        BYTE                   Dn1   v100
        BYTE   W01
        BYTE                   Dn1   v090
        BYTE   W02
        BYTE                   Dn1   v096
        BYTE   W01
        BYTE                   Dn1   v079
        BYTE   W02
        BYTE                   Dn1   v087
        BYTE   W01
        BYTE                   Dn1   v075
        BYTE   W02
        BYTE           N04     Dn1   v118
        BYTE   W06
        BYTE                   Dn1   v097
        BYTE   W06
        BYTE                   Dn1   v117
        BYTE   W12
// 017   ----------------------------------------
        BYTE           N01     Dn1   v127
        BYTE   W01
        BYTE                   Dn1   v100
        BYTE   W02
        BYTE                   Dn1   v107
        BYTE   W01
        BYTE                   Dn1   v095
        BYTE   W02
        BYTE                   Dn1   v098
        BYTE   W01
        BYTE                   Dn1   v090
        BYTE   W02
        BYTE                   Dn1   v082
        BYTE   W01
        BYTE                   Dn1   v075
        BYTE   W02
        BYTE           N04     Dn1   v118
        BYTE   W06
        BYTE                   Dn1   v091
        BYTE   W06
        BYTE                   Dn1   v118
        BYTE   W06
        BYTE                   Dn1   v090
        BYTE   W06
        BYTE           N08     Dn1   v120
        BYTE   W12
        BYTE           N04     Dn1   v123
        BYTE   W06
        BYTE           N02     Dn1   v109
        BYTE   W03
        BYTE           N01     Dn1   v080
        BYTE   W01
        BYTE                   Dn1   v064
        BYTE   W02
        BYTE           N08     Dn1   v120
        BYTE   W18
        BYTE           N04     Dn1   v094
        BYTE   W06
        BYTE           N11     Dn1   v125
        BYTE   W12
// 018   ----------------------------------------
        BYTE           N01     Dn1   v124
        BYTE   W01
        BYTE                   Dn1   v103
        BYTE   W02
        BYTE                   Dn1   v110
        BYTE   W01
        BYTE                   Dn1   v086
        BYTE   W02
        BYTE                   Dn1   v093
        BYTE   W01
        BYTE                   Dn1   v075
        BYTE   W02
        BYTE                   Dn1   v082
        BYTE   W01
        BYTE                   Dn1   v070
        BYTE   W15
        BYTE   FINE

//***************** Track 9 (Midi-Chn.10) ******************//

SEQ_BGM_D_CHAMPROAD_9:
        BYTE   KEYSH   SEQ_BGM_D_CHAMPROAD_key+0
// 000   ----------------------------------------
        BYTE           BENDR   12
        BYTE           VOICE   76
        BYTE           VOL     79
        BYTE   W09
        BYTE           PAN     c_v-62
        BYTE   W03
        BYTE           VOL     9
        BYTE           BEND    c_v-9
        BYTE           TIE     En2   v092
        BYTE   W03
        BYTE           VOL     11
        BYTE           BEND    c_v-7
        BYTE           PAN     c_v-59
        BYTE   W03
        BYTE           VOL     13
        BYTE           BEND    c_v-3
        BYTE           PAN     c_v-56
        BYTE   W03
        BYTE           VOL     14
        BYTE           BEND    c_v-2
        BYTE           PAN     c_v-53
        BYTE   W03
        BYTE           VOL     16
        BYTE           BEND    c_v+0
        BYTE           PAN     c_v-50
        BYTE   W03
        BYTE           VOL     17
        BYTE           BEND    c_v+2
        BYTE           PAN     c_v-46
        BYTE   W03
        BYTE           VOL     19
        BYTE           PAN     c_v-43
        BYTE   W03
        BYTE           VOL     21
        BYTE           BEND    c_v+4
        BYTE           PAN     c_v-40
        BYTE   W03
        BYTE           VOL     23
        BYTE           BEND    c_v+5
        BYTE           PAN     c_v-37
        BYTE   W03
        BYTE           VOL     24
        BYTE           BEND    c_v+7
        BYTE           PAN     c_v-34
        BYTE   W03
        BYTE           VOL     26
        BYTE           PAN     c_v-31
        BYTE           BEND    c_v+10
        BYTE   W03
        BYTE           VOL     28
        BYTE           PAN     c_v-28
        BYTE           BEND    c_v+12
        BYTE   W03
        BYTE           VOL     30
        BYTE           PAN     c_v-25
        BYTE           BEND    c_v+15
        BYTE   W03
        BYTE           VOL     31
        BYTE           PAN     c_v-21
        BYTE           BEND    c_v+18
        BYTE   W03
        BYTE           VOL     33
        BYTE           PAN     c_v-18
        BYTE           BEND    c_v+20
        BYTE   W03
        BYTE           VOL     34
        BYTE           PAN     c_v-15
        BYTE           BEND    c_v+23
        BYTE   W03
        BYTE           VOL     37
        BYTE           PAN     c_v-12
        BYTE           BEND    c_v+27
        BYTE   W03
        BYTE           VOL     39
        BYTE           PAN     c_v-9
        BYTE           BEND    c_v+30
        BYTE   W03
        BYTE           VOL     40
        BYTE           PAN     c_v-6
        BYTE           BEND    c_v+32
        BYTE   W03
        BYTE           VOL     42
        BYTE           PAN     c_v-3
        BYTE           BEND    c_v+34
        BYTE   W03
        BYTE           VOL     43
        BYTE           PAN     c_v+1
        BYTE           BEND    c_v+36
        BYTE   W03
        BYTE           VOL     46
        BYTE           PAN     c_v+4
        BYTE           BEND    c_v+39
        BYTE   W03
        BYTE           VOL     48
        BYTE           PAN     c_v+7
        BYTE           BEND    c_v+41
        BYTE   W03
        BYTE           VOL     49
        BYTE           PAN     c_v+10
        BYTE           BEND    c_v+43
        BYTE   W03
        BYTE           VOL     51
        BYTE           PAN     c_v+13
        BYTE           BEND    c_v+44
        BYTE   W03
        BYTE           VOL     52
        BYTE           PAN     c_v+16
        BYTE   W03
        BYTE           VOL     54
        BYTE           PAN     c_v+19
        BYTE   W03
        BYTE           VOL     56
        BYTE           PAN     c_v+23
        BYTE   W03
// 001   ----------------------------------------
        BYTE           VOL     58
        BYTE           PAN     c_v+26
        BYTE   W03
        BYTE           VOL     59
        BYTE           PAN     c_v+29
        BYTE           BEND    c_v+43
        BYTE   W03
        BYTE           VOL     61
        BYTE           PAN     c_v+32
        BYTE           BEND    c_v+42
        BYTE   W03
        BYTE           VOL     63
        BYTE           PAN     c_v+35
        BYTE           BEND    c_v+41
        BYTE   W03
        BYTE           VOL     65
        BYTE           PAN     c_v+38
        BYTE           BEND    c_v+39
        BYTE   W03
        BYTE           VOL     64
        BYTE           PAN     c_v+41
        BYTE   W03
        BYTE           VOL     63
        BYTE           PAN     c_v+44
        BYTE           BEND    c_v+37
        BYTE   W03
        BYTE           PAN     c_v+48
        BYTE           BEND    c_v+34
        BYTE   W03
        BYTE           VOL     61
        BYTE           PAN     c_v+51
        BYTE           BEND    c_v+31
        BYTE   W03
        BYTE           VOL     60
        BYTE           BEND    c_v+29
        BYTE           PAN     c_v+54
        BYTE   W03
        BYTE           VOL     59
        BYTE           PAN     c_v+57
        BYTE           BEND    c_v+24
        BYTE   W03
        BYTE           VOL     58
        BYTE   W03
        BYTE                   57
        BYTE           BEND    c_v+20
        BYTE   W03
        BYTE           VOL     56
        BYTE           BEND    c_v+18
        BYTE   W03
        BYTE           VOL     55
        BYTE           BEND    c_v+15
        BYTE   W03
        BYTE           VOL     54
        BYTE           BEND    c_v+14
        BYTE   W03
        BYTE           VOL     52
        BYTE           BEND    c_v+10
        BYTE   W03
        BYTE           VOL     51
        BYTE   W03
        BYTE                   50
        BYTE           BEND    c_v+7
        BYTE   W03
        BYTE           VOL     49
        BYTE           BEND    c_v+5
        BYTE   W03
        BYTE           VOL     48
        BYTE           BEND    c_v+3
        BYTE   W03
        BYTE                   c_v+2
        BYTE   W03
        BYTE           VOL     46
        BYTE           BEND    c_v-1
        BYTE   W03
        BYTE           VOL     45
        BYTE           BEND    c_v-2
        BYTE   W03
        BYTE           VOL     44
        BYTE           BEND    c_v-4
        BYTE   W03
        BYTE           VOL     43
        BYTE   W03
        BYTE                   42
        BYTE           BEND    c_v-5
        BYTE   W03
        BYTE           VOL     41
        BYTE           BEND    c_v-7
        BYTE   W03
        BYTE           VOL     39
        BYTE           BEND    c_v-9
        BYTE   W06
        BYTE           VOL     38
        BYTE           BEND    c_v-12
        BYTE   W03
        BYTE           VOL     37
        BYTE           BEND    c_v-14
        BYTE   W03
// 002   ----------------------------------------
        BYTE           VOL     36
        BYTE           BEND    c_v-15
        BYTE   W03
        BYTE           VOL     34
        BYTE           BEND    c_v-16
        BYTE   W03
        BYTE           VOL     33
        BYTE   W03
        BYTE                   32
        BYTE           BEND    c_v-19
        BYTE   W03
        BYTE           VOL     31
        BYTE   W03
        BYTE                   30
        BYTE   W03
        BYTE                   29
        BYTE           BEND    c_v-20
        BYTE   W03
        BYTE           VOL     28
        BYTE   W03
        BYTE                   27
        BYTE   W03
        BYTE                   26
        BYTE           BEND    c_v-21
        BYTE   W03
        BYTE           VOL     24
        BYTE   W06
        BYTE                   23
        BYTE   W03
        BYTE                   22
        BYTE   W03
        BYTE                   21
        BYTE   W03
        BYTE                   19
        BYTE           BEND    c_v-20
        BYTE   W03
        BYTE                   c_v-19
        BYTE   W03
        BYTE           VOL     17
        BYTE   W03
        BYTE                   16
        BYTE           BEND    c_v-18
        BYTE   W03
        BYTE           VOL     15
        BYTE           BEND    c_v-16
        BYTE   W02
        BYTE           EOT
        BYTE   W01
        BYTE           VOL     14
        BYTE           TIE
        BYTE   W03
        BYTE           BEND    c_v-14
        BYTE           VOL     15
        BYTE   W03
        BYTE                   16
        BYTE           BEND    c_v-11
        BYTE   W03
        BYTE           VOL     18
        BYTE           BEND    c_v-9
        BYTE   W03
        BYTE                   c_v-7
        BYTE           VOL     19
        BYTE   W03
        BYTE                   20
        BYTE           BEND    c_v-5
        BYTE   W03
        BYTE           VOL     21
        BYTE           BEND    c_v-3
        BYTE   W03
        BYTE                   c_v-1
        BYTE           VOL     23
        BYTE   W03
        BYTE                   24
        BYTE           BEND    c_v+2
        BYTE           PAN     c_v+56
        BYTE   W03
        BYTE           VOL     25
        BYTE           BEND    c_v+5
        BYTE           PAN     c_v+49
        BYTE   W03
        BYTE           VOL     27
        BYTE           BEND    c_v+8
        BYTE           PAN     c_v+46
        BYTE   W03
        BYTE           VOL     28
        BYTE           BEND    c_v+11
        BYTE           PAN     c_v+42
        BYTE   W03
// 003   ----------------------------------------
        BYTE           BEND    c_v+13
        BYTE           PAN     c_v+37
        BYTE           VOL     29
        BYTE   W03
        BYTE                   31
        BYTE           BEND    c_v+17
        BYTE           PAN     c_v+32
        BYTE   W03
        BYTE           VOL     32
        BYTE           BEND    c_v+19
        BYTE           PAN     c_v+29
        BYTE   W03
        BYTE           BEND    c_v+22
        BYTE           PAN     c_v+27
        BYTE           VOL     33
        BYTE   W03
        BYTE                   34
        BYTE           BEND    c_v+26
        BYTE           PAN     c_v+25
        BYTE   W03
        BYTE           VOL     36
        BYTE           BEND    c_v+29
        BYTE           PAN     c_v+21
        BYTE   W03
        BYTE           BEND    c_v+30
        BYTE           PAN     c_v+18
        BYTE           VOL     37
        BYTE   W03
        BYTE                   38
        BYTE           BEND    c_v+35
        BYTE           PAN     c_v+16
        BYTE   W03
        BYTE           BEND    c_v+39
        BYTE           PAN     c_v+13
        BYTE           VOL     39
        BYTE   W03
        BYTE           BEND    c_v+44
        BYTE           PAN     c_v+10
        BYTE           VOL     41
        BYTE   W03
        BYTE           BEND    c_v+48
        BYTE           PAN     c_v+7
        BYTE           VOL     42
        BYTE   W03
        BYTE           BEND    c_v+51
        BYTE           PAN     c_v+0
        BYTE           VOL     43
        BYTE   W03
        BYTE           BEND    c_v+53
        BYTE           PAN     c_v-1
        BYTE           VOL     44
        BYTE   W03
        BYTE           BEND    c_v+54
        BYTE           PAN     c_v-7
        BYTE           VOL     46
        BYTE   W03
        BYTE           BEND    c_v+55
        BYTE           PAN     c_v-9
        BYTE           VOL     47
        BYTE   W03
        BYTE           BEND    c_v+54
        BYTE           PAN     c_v-15
        BYTE           VOL     49
        BYTE   W03
        BYTE                   50
        BYTE           BEND    c_v+53
        BYTE           PAN     c_v-17
        BYTE   W03
        BYTE           VOL     51
        BYTE           PAN     c_v-20
        BYTE   W03
        BYTE           BEND    c_v+51
        BYTE           PAN     c_v-23
        BYTE           VOL     53
        BYTE   W03
        BYTE                   54
        BYTE           BEND    c_v+47
        BYTE           PAN     c_v-29
        BYTE   W03
        BYTE           VOL     55
        BYTE           BEND    c_v+41
        BYTE           PAN     c_v-34
        BYTE   W03
        BYTE           BEND    c_v+36
        BYTE           PAN     c_v-37
        BYTE           VOL     56
        BYTE   W03
        BYTE                   58
        BYTE           BEND    c_v+31
        BYTE           PAN     c_v-42
        BYTE   W03
        BYTE           VOL     59
        BYTE           BEND    c_v+24
        BYTE           PAN     c_v-45
        BYTE   W03
        BYTE           BEND    c_v+17
        BYTE           PAN     c_v-48
        BYTE           VOL     60
        BYTE   W03
        BYTE                   61
        BYTE           BEND    c_v+14
        BYTE           PAN     c_v-53
        BYTE   W03
        BYTE           VOL     63
        BYTE           BEND    c_v+10
        BYTE           PAN     c_v-56
        BYTE   W03
        BYTE           VOL     64
        BYTE           BEND    c_v+8
        BYTE           PAN     c_v-59
        BYTE   W03
        BYTE           VOL     66
        BYTE           BEND    c_v+5
        BYTE           PAN     c_v-62
        BYTE   W03
        BYTE           BEND    c_v+4
        BYTE           VOL     65
        BYTE   W03
        BYTE                   64
        BYTE           BEND    c_v-1
        BYTE   W03
        BYTE           VOL     63
        BYTE           BEND    c_v-3
        BYTE   W03
// 004   ----------------------------------------
        BYTE                   c_v-4
        BYTE           VOL     61
        BYTE   W03
        BYTE                   60
        BYTE           BEND    c_v-5
        BYTE   W03
        BYTE           VOL     59
        BYTE           BEND    c_v-8
        BYTE   W03
        BYTE                   c_v-9
        BYTE           VOL     58
        BYTE   W03
        BYTE                   56
        BYTE           BEND    c_v-11
        BYTE           PAN     c_v-60
        BYTE   W03
        BYTE           VOL     55
        BYTE           BEND    c_v-13
        BYTE           PAN     c_v-56
        BYTE   W03
        BYTE           BEND    c_v-14
        BYTE           PAN     c_v-53
        BYTE           VOL     54
        BYTE   W03
        BYTE                   53
        BYTE           PAN     c_v-48
        BYTE   W03
        BYTE           VOL     51
        BYTE           PAN     c_v-41
        BYTE   W03
        BYTE           VOL     50
        BYTE           PAN     c_v-35
        BYTE   W03
        BYTE           VOL     49
        BYTE           PAN     c_v-30
        BYTE   W03
        BYTE                   c_v-25
        BYTE           VOL     48
        BYTE   W03
        BYTE                   46
        BYTE           PAN     c_v-17
        BYTE   W03
        BYTE           VOL     45
        BYTE           PAN     c_v-9
        BYTE   W03
        BYTE           BEND    c_v-12
        BYTE           PAN     c_v-1
        BYTE           VOL     44
        BYTE   W03
        BYTE                   43
        BYTE           BEND    c_v-11
        BYTE           PAN     c_v+0
        BYTE   W03
        BYTE           VOL     42
        BYTE           BEND    c_v-9
        BYTE           PAN     c_v+7
        BYTE   W03
        BYTE           BEND    c_v-7
        BYTE           PAN     c_v+16
        BYTE           VOL     41
        BYTE   W03
        BYTE                   39
        BYTE           BEND    c_v-5
        BYTE           PAN     c_v+35
        BYTE   W03
        BYTE           VOL     38
        BYTE           BEND    c_v-3
        BYTE           PAN     c_v+46
        BYTE   W03
        BYTE           VOL     37
        BYTE           BEND    c_v-1
        BYTE           PAN     c_v+54
        BYTE   W03
        BYTE           BEND    c_v+5
        BYTE           VOL     36
        BYTE   W03
        BYTE                   34
        BYTE           BEND    c_v+9
        BYTE   W03
        BYTE           VOL     33
        BYTE           BEND    c_v+12
        BYTE   W03
        BYTE           VOL     32
        BYTE           BEND    c_v+17
        BYTE   W03
        BYTE                   c_v+22
        BYTE           VOL     31
        BYTE   W03
        BYTE                   29
        BYTE           BEND    c_v+27
        BYTE   W03
        BYTE           VOL     28
        BYTE           BEND    c_v+31
        BYTE   W03
        BYTE                   c_v+34
        BYTE           VOL     27
        BYTE   W03
        BYTE                   26
        BYTE           BEND    c_v+36
        BYTE   W03
        BYTE           VOL     24
        BYTE           BEND    c_v+37
        BYTE   W03
        BYTE                   c_v+39
        BYTE           VOL     23
        BYTE   W03
// 005   ----------------------------------------
        BYTE                   22
        BYTE   W03
        BYTE                   21
        BYTE           BEND    c_v+40
        BYTE   W03
        BYTE           VOL     20
        BYTE   W03
        BYTE                   19
        BYTE   W03
        BYTE                   18
        BYTE           BEND    c_v+39
        BYTE   W03
        BYTE           VOL     16
        BYTE   W03
        BYTE                   15
        BYTE           BEND    c_v+37
        BYTE   W02
        BYTE           EOT
        BYTE   W01
        BYTE           BEND    c_v+36
        BYTE           VOL     14
        BYTE           N84     En2   v092   gtp2
        BYTE   W03
        BYTE           VOL     15
        BYTE           BEND    c_v+34
        BYTE   W03
        BYTE           VOL     16
        BYTE           BEND    c_v+31
        BYTE   W03
        BYTE                   c_v+28
        BYTE           VOL     17
        BYTE   W03
        BYTE                   18
        BYTE           BEND    c_v+25
        BYTE   W03
        BYTE           VOL     19
        BYTE           BEND    c_v+22
        BYTE   W03
        BYTE           VOL     20
        BYTE           BEND    c_v+19
        BYTE   W03
        BYTE           VOL     21
        BYTE           BEND    c_v+15
        BYTE   W03
        BYTE           VOL     22
        BYTE           BEND    c_v+14
        BYTE           PAN     c_v+49
        BYTE   W03
        BYTE           VOL     23
        BYTE           BEND    c_v+12
        BYTE           PAN     c_v+43
        BYTE   W03
        BYTE           VOL     24
        BYTE           BEND    c_v+11
        BYTE           PAN     c_v+36
        BYTE   W03
        BYTE           VOL     25
        BYTE           BEND    c_v+7
        BYTE           PAN     c_v+29
        BYTE   W03
        BYTE           VOL     26
        BYTE           BEND    c_v+5
        BYTE           PAN     c_v+22
        BYTE   W03
        BYTE           VOL     28
        BYTE           BEND    c_v+3
        BYTE           PAN     c_v+15
        BYTE   W03
        BYTE           BEND    c_v+2
        BYTE           PAN     c_v+10
        BYTE   W03
        BYTE           VOL     26
        BYTE           BEND    c_v-2
        BYTE           PAN     c_v+5
        BYTE   W03
        BYTE           VOL     24
        BYTE           BEND    c_v-4
        BYTE           PAN     c_v-1
        BYTE   W03
        BYTE           VOL     23
        BYTE           BEND    c_v-6
        BYTE           PAN     c_v-4
        BYTE   W03
        BYTE           VOL     21
        BYTE           BEND    c_v-8
        BYTE           PAN     c_v-7
        BYTE   W03
        BYTE           VOL     19
        BYTE           BEND    c_v-9
        BYTE           PAN     c_v-13
        BYTE   W03
        BYTE           VOL     18
        BYTE           BEND    c_v-11
        BYTE           PAN     c_v-18
        BYTE   W03
        BYTE           VOL     16
        BYTE           BEND    c_v-13
        BYTE           PAN     c_v-26
        BYTE   W03
        BYTE           VOL     15
        BYTE           BEND    c_v-14
        BYTE           PAN     c_v-31
        BYTE   W03
        BYTE           VOL     13
        BYTE           BEND    c_v-16
        BYTE           PAN     c_v-40
        BYTE   W03
        BYTE           VOL     11
        BYTE           PAN     c_v-48
        BYTE   W03
// 006   ----------------------------------------
        BYTE           VOL     10
        BYTE           BEND    c_v-15
        BYTE           PAN     c_v-53
        BYTE   W03
        BYTE           VOL     8
        BYTE           BEND    c_v-14
        BYTE           PAN     c_v-57
        BYTE   W03
        BYTE           VOL     7
        BYTE           BEND    c_v-12
        BYTE           PAN     c_v-61
        BYTE   W03
        BYTE           VOL     5
        BYTE           BEND    c_v-11
        BYTE           PAN     c_v-64
        BYTE   W03
        BYTE           BEND    c_v-9
        BYTE           TIE
        BYTE   W03
        BYTE           VOL     7
        BYTE           BEND    c_v-7
        BYTE   W03
        BYTE           VOL     9
        BYTE           BEND    c_v-3
        BYTE   W03
        BYTE           VOL     10
        BYTE           BEND    c_v-2
        BYTE   W03
        BYTE           VOL     12
        BYTE           BEND    c_v+0
        BYTE   W03
        BYTE           VOL     14
        BYTE           BEND    c_v+2
        BYTE   W03
        BYTE           VOL     16
        BYTE   W03
        BYTE                   18
        BYTE           BEND    c_v+4
        BYTE   W03
        BYTE           VOL     19
        BYTE           BEND    c_v+5
        BYTE   W03
        BYTE           VOL     21
        BYTE           BEND    c_v+7
        BYTE   W03
        BYTE           VOL     23
        BYTE           PAN     c_v-62
        BYTE           BEND    c_v+10
        BYTE   W03
        BYTE           VOL     24
        BYTE           PAN     c_v-59
        BYTE           BEND    c_v+12
        BYTE   W03
        BYTE           VOL     26
        BYTE           PAN     c_v-55
        BYTE           BEND    c_v+15
        BYTE   W03
        BYTE           VOL     28
        BYTE           PAN     c_v-52
        BYTE           BEND    c_v+18
        BYTE   W03
        BYTE           VOL     29
        BYTE           PAN     c_v-48
        BYTE           BEND    c_v+20
        BYTE   W03
        BYTE           VOL     31
        BYTE           PAN     c_v-45
        BYTE           BEND    c_v+23
        BYTE   W03
        BYTE           VOL     33
        BYTE           PAN     c_v-41
        BYTE           BEND    c_v+27
        BYTE   W03
        BYTE           VOL     35
        BYTE           PAN     c_v-38
        BYTE           BEND    c_v+30
        BYTE   W03
        BYTE           VOL     36
        BYTE           PAN     c_v-36
        BYTE           BEND    c_v+32
        BYTE   W03
        BYTE           VOL     38
        BYTE           PAN     c_v-33
        BYTE           BEND    c_v+34
        BYTE   W03
        BYTE           VOL     40
        BYTE           PAN     c_v-30
        BYTE           BEND    c_v+36
        BYTE   W03
        BYTE           VOL     42
        BYTE           PAN     c_v-28
        BYTE           BEND    c_v+39
        BYTE   W03
        BYTE           VOL     43
        BYTE           PAN     c_v-24
        BYTE           BEND    c_v+41
        BYTE   W03
        BYTE           VOL     45
        BYTE           PAN     c_v-20
        BYTE           BEND    c_v+43
        BYTE   W03
        BYTE           VOL     47
        BYTE           PAN     c_v-18
        BYTE           BEND    c_v+44
        BYTE   W03
        BYTE           VOL     49
        BYTE           PAN     c_v-12
        BYTE   W03
        BYTE           VOL     51
        BYTE           PAN     c_v-7
        BYTE   W03
        BYTE           VOL     52
        BYTE           PAN     c_v-3
        BYTE   W03
// 007   ----------------------------------------
        BYTE           VOL     54
        BYTE           PAN     c_v+7
        BYTE   W03
        BYTE           VOL     56
        BYTE           PAN     c_v+12
        BYTE           BEND    c_v+43
        BYTE   W03
        BYTE           VOL     58
        BYTE           PAN     c_v+18
        BYTE           BEND    c_v+42
        BYTE   W03
        BYTE           VOL     59
        BYTE           PAN     c_v+24
        BYTE           BEND    c_v+41
        BYTE   W03
        BYTE           VOL     61
        BYTE           PAN     c_v+29
        BYTE           BEND    c_v+39
        BYTE   W03
        BYTE           VOL     63
        BYTE           PAN     c_v+35
        BYTE   W03
        BYTE                   c_v+41
        BYTE           BEND    c_v+37
        BYTE   W03
        BYTE           VOL     61
        BYTE           PAN     c_v+46
        BYTE           BEND    c_v+34
        BYTE   W03
        BYTE           PAN     c_v+50
        BYTE           BEND    c_v+31
        BYTE   W03
        BYTE           VOL     59
        BYTE           BEND    c_v+29
        BYTE           PAN     c_v+54
        BYTE   W03
        BYTE                   c_v+60
        BYTE           BEND    c_v+24
        BYTE   W03
        BYTE           VOL     58
        BYTE   W03
        BYTE                   56
        BYTE           BEND    c_v+20
        BYTE   W03
        BYTE                   c_v+18
        BYTE   W03
        BYTE           VOL     54
        BYTE           BEND    c_v+15
        BYTE   W03
        BYTE                   c_v+14
        BYTE   W03
        BYTE           VOL     53
        BYTE           BEND    c_v+10
        BYTE   W03
        BYTE           VOL     51
        BYTE   W03
        BYTE           BEND    c_v+7
        BYTE   W03
        BYTE           VOL     49
        BYTE           BEND    c_v+5
        BYTE   W03
        BYTE           VOL     48
        BYTE           BEND    c_v+3
        BYTE   W03
        BYTE                   c_v+2
        BYTE   W03
        BYTE           VOL     46
        BYTE           BEND    c_v-1
        BYTE   W03
        BYTE                   c_v-2
        BYTE   W03
        BYTE           VOL     44
        BYTE           BEND    c_v-4
        BYTE   W03
        BYTE           VOL     43
        BYTE   W03
        BYTE           BEND    c_v-5
        BYTE   W03
        BYTE           VOL     41
        BYTE           BEND    c_v-7
        BYTE   W03
        BYTE                   c_v-9
        BYTE   W03
        BYTE           VOL     39
        BYTE   W03
        BYTE                   38
        BYTE           BEND    c_v-12
        BYTE   W03
        BYTE                   c_v-14
        BYTE   W03
// 008   ----------------------------------------
        BYTE           VOL     36
        BYTE           BEND    c_v-15
        BYTE   W03
        BYTE                   c_v-16
        BYTE   W03
        BYTE           VOL     34
        BYTE   W03
        BYTE                   33
        BYTE           BEND    c_v-19
        BYTE   W06
        BYTE           VOL     31
        BYTE   W03
        BYTE           BEND    c_v-20
        BYTE   W03
        BYTE           VOL     29
        BYTE   W03
        BYTE                   28
        BYTE   W03
        BYTE           BEND    c_v-21
        BYTE   W03
        BYTE           VOL     26
        BYTE   W03
        BYTE                   25
        BYTE   W03
        BYTE                   24
        BYTE   W03
        BYTE                   23
        BYTE   W06
        BYTE                   21
        BYTE           BEND    c_v-20
        BYTE   W03
        BYTE           VOL     20
        BYTE           BEND    c_v-19
        BYTE   W03
        BYTE           VOL     19
        BYTE   W03
        BYTE                   18
        BYTE           BEND    c_v-18
        BYTE   W03
        BYTE                   c_v-16
        BYTE   W02
        BYTE           EOT
        BYTE   W01
        BYTE           VOL     19
        BYTE           TIE
        BYTE   W03
        BYTE           VOL     20
        BYTE           BEND    c_v-14
        BYTE   W03
        BYTE           VOL     21
        BYTE           BEND    c_v-11
        BYTE   W03
        BYTE           VOL     22
        BYTE           BEND    c_v-9
        BYTE   W03
        BYTE           VOL     23
        BYTE           BEND    c_v-7
        BYTE   W03
        BYTE           VOL     24
        BYTE           BEND    c_v-5
        BYTE   W03
        BYTE           VOL     25
        BYTE           BEND    c_v-3
        BYTE   W03
        BYTE           VOL     26
        BYTE           BEND    c_v-1
        BYTE   W03
        BYTE           VOL     27
        BYTE           PAN     c_v+57
        BYTE           BEND    c_v+2
        BYTE   W03
        BYTE           VOL     28
        BYTE           PAN     c_v+52
        BYTE           BEND    c_v+5
        BYTE   W03
        BYTE           VOL     29
        BYTE           PAN     c_v+46
        BYTE           BEND    c_v+8
        BYTE   W03
        BYTE           PAN     c_v+41
        BYTE           BEND    c_v+11
        BYTE   W03
// 009   ----------------------------------------
        BYTE           VOL     31
        BYTE           PAN     c_v+36
        BYTE           BEND    c_v+13
        BYTE   W03
        BYTE           VOL     32
        BYTE           PAN     c_v+32
        BYTE           BEND    c_v+17
        BYTE   W03
        BYTE           VOL     33
        BYTE           PAN     c_v+29
        BYTE           BEND    c_v+19
        BYTE   W03
        BYTE           PAN     c_v+27
        BYTE           BEND    c_v+22
        BYTE   W03
        BYTE           VOL     34
        BYTE           PAN     c_v+24
        BYTE           BEND    c_v+26
        BYTE   W03
        BYTE           VOL     36
        BYTE           PAN     c_v+21
        BYTE           BEND    c_v+29
        BYTE   W03
        BYTE           PAN     c_v+19
        BYTE           BEND    c_v+30
        BYTE   W03
        BYTE           VOL     37
        BYTE           PAN     c_v+16
        BYTE           BEND    c_v+35
        BYTE   W03
        BYTE           VOL     38
        BYTE           PAN     c_v+13
        BYTE           BEND    c_v+39
        BYTE   W03
        BYTE           VOL     39
        BYTE           PAN     c_v+10
        BYTE           BEND    c_v+44
        BYTE   W03
        BYTE           VOL     40
        BYTE           PAN     c_v+7
        BYTE           BEND    c_v+48
        BYTE   W03
        BYTE           VOL     41
        BYTE           PAN     c_v+0
        BYTE           BEND    c_v+51
        BYTE   W03
        BYTE           VOL     42
        BYTE           PAN     c_v-4
        BYTE           BEND    c_v+53
        BYTE   W03
        BYTE           VOL     43
        BYTE           PAN     c_v-7
        BYTE           BEND    c_v+54
        BYTE   W03
        BYTE           VOL     44
        BYTE           PAN     c_v-9
        BYTE           BEND    c_v+55
        BYTE   W03
        BYTE           VOL     45
        BYTE           PAN     c_v-12
        BYTE           BEND    c_v+54
        BYTE   W03
        BYTE           VOL     46
        BYTE           PAN     c_v-15
        BYTE           BEND    c_v+53
        BYTE   W03
        BYTE           VOL     47
        BYTE           PAN     c_v-20
        BYTE   W03
        BYTE           VOL     48
        BYTE           PAN     c_v-23
        BYTE           BEND    c_v+51
        BYTE   W03
        BYTE           VOL     49
        BYTE           PAN     c_v-27
        BYTE           BEND    c_v+47
        BYTE   W03
        BYTE           PAN     c_v-32
        BYTE           BEND    c_v+41
        BYTE   W03
        BYTE           VOL     51
        BYTE           PAN     c_v-37
        BYTE           BEND    c_v+36
        BYTE   W03
        BYTE           PAN     c_v-42
        BYTE           BEND    c_v+31
        BYTE   W03
        BYTE           VOL     53
        BYTE           PAN     c_v-45
        BYTE           BEND    c_v+24
        BYTE   W03
        BYTE           PAN     c_v-48
        BYTE           BEND    c_v+17
        BYTE   W03
        BYTE           VOL     54
        BYTE           PAN     c_v-53
        BYTE           BEND    c_v+14
        BYTE   W03
        BYTE           VOL     55
        BYTE           PAN     c_v-56
        BYTE           BEND    c_v+10
        BYTE   W03
        BYTE           VOL     56
        BYTE           PAN     c_v-59
        BYTE           BEND    c_v+8
        BYTE   W03
        BYTE           VOL     57
        BYTE           PAN     c_v-62
        BYTE           BEND    c_v+5
        BYTE   W03
        BYTE           VOL     58
        BYTE           BEND    c_v+4
        BYTE   W03
        BYTE           VOL     59
        BYTE           BEND    c_v-1
        BYTE   W03
        BYTE           VOL     60
        BYTE           BEND    c_v-3
        BYTE   W03
// 010   ----------------------------------------
        BYTE           VOL     61
        BYTE           BEND    c_v-4
        BYTE   W03
        BYTE           VOL     62
        BYTE   W03
        BYTE                   63
        BYTE           BEND    c_v-8
        BYTE   W03
        BYTE           VOL     64
        BYTE           BEND    c_v-9
        BYTE   W03
        BYTE           VOL     63
        BYTE           PAN     c_v-59
        BYTE           BEND    c_v-11
        BYTE   W03
        BYTE           VOL     61
        BYTE           PAN     c_v-56
        BYTE           BEND    c_v-13
        BYTE   W03
        BYTE           VOL     59
        BYTE           PAN     c_v-49
        BYTE           BEND    c_v-14
        BYTE   W03
        BYTE           VOL     58
        BYTE           PAN     c_v-42
        BYTE   W03
        BYTE           VOL     57
        BYTE           PAN     c_v-34
        BYTE   W03
        BYTE           VOL     56
        BYTE           PAN     c_v-26
        BYTE   W03
        BYTE           VOL     54
        BYTE           PAN     c_v-20
        BYTE   W03
        BYTE           VOL     53
        BYTE           PAN     c_v-15
        BYTE   W03
        BYTE           VOL     51
        BYTE           PAN     c_v-9
        BYTE   W03
        BYTE           VOL     50
        BYTE           PAN     c_v-4
        BYTE   W03
        BYTE           VOL     49
        BYTE           PAN     c_v-1
        BYTE           BEND    c_v-12
        BYTE   W03
        BYTE           VOL     48
        BYTE           PAN     c_v+0
        BYTE           BEND    c_v-11
        BYTE   W03
        BYTE           VOL     46
        BYTE           PAN     c_v+7
        BYTE           BEND    c_v-9
        BYTE   W03
        BYTE           VOL     45
        BYTE           PAN     c_v+16
        BYTE           BEND    c_v-7
        BYTE   W03
        BYTE           VOL     43
        BYTE           PAN     c_v+35
        BYTE           BEND    c_v-5
        BYTE   W03
        BYTE           VOL     42
        BYTE           PAN     c_v+46
        BYTE           BEND    c_v-3
        BYTE   W03
        BYTE           VOL     41
        BYTE           PAN     c_v+54
        BYTE           BEND    c_v-1
        BYTE   W03
        BYTE           VOL     39
        BYTE           BEND    c_v+5
        BYTE   W03
        BYTE           VOL     38
        BYTE           BEND    c_v+9
        BYTE   W03
        BYTE           VOL     37
        BYTE           BEND    c_v+12
        BYTE   W03
        BYTE           VOL     36
        BYTE           BEND    c_v+17
        BYTE   W03
        BYTE           VOL     34
        BYTE           BEND    c_v+22
        BYTE   W03
        BYTE           VOL     33
        BYTE           BEND    c_v+27
        BYTE   W03
        BYTE           VOL     31
        BYTE           BEND    c_v+31
        BYTE   W03
        BYTE           VOL     30
        BYTE           BEND    c_v+34
        BYTE   W03
        BYTE           VOL     29
        BYTE           BEND    c_v+36
        BYTE   W03
        BYTE           VOL     28
        BYTE           BEND    c_v+37
        BYTE   W03
        BYTE           VOL     26
        BYTE           BEND    c_v+39
        BYTE   W03
// 011   ----------------------------------------
        BYTE           VOL     25
        BYTE   W03
        BYTE                   23
        BYTE           BEND    c_v+40
        BYTE   W03
        BYTE           VOL     22
        BYTE   W03
        BYTE                   21
        BYTE   W03
        BYTE                   19
        BYTE           BEND    c_v+39
        BYTE   W03
        BYTE           VOL     18
        BYTE   W03
        BYTE                   16
        BYTE           BEND    c_v+37
        BYTE   W02
        BYTE           EOT
        BYTE   W01
        BYTE           BEND    c_v+36
        BYTE           N84     En2   v092   gtp2
        BYTE   W03
        BYTE           VOL     17
        BYTE           BEND    c_v+34
        BYTE   W03
        BYTE           VOL     18
        BYTE           BEND    c_v+31
        BYTE   W03
        BYTE           VOL     19
        BYTE           BEND    c_v+28
        BYTE   W03
        BYTE           VOL     20
        BYTE           BEND    c_v+25
        BYTE   W03
        BYTE           VOL     21
        BYTE           BEND    c_v+22
        BYTE   W03
        BYTE                   c_v+19
        BYTE   W03
        BYTE           VOL     23
        BYTE           BEND    c_v+15
        BYTE   W03
        BYTE           PAN     c_v+49
        BYTE           BEND    c_v+14
        BYTE   W03
        BYTE           VOL     24
        BYTE           PAN     c_v+43
        BYTE           BEND    c_v+12
        BYTE   W03
        BYTE           VOL     25
        BYTE           PAN     c_v+35
        BYTE           BEND    c_v+11
        BYTE   W03
        BYTE           VOL     26
        BYTE           PAN     c_v+29
        BYTE           BEND    c_v+7
        BYTE   W03
        BYTE           VOL     27
        BYTE           PAN     c_v+23
        BYTE           BEND    c_v+5
        BYTE   W03
        BYTE           VOL     28
        BYTE           PAN     c_v+17
        BYTE           BEND    c_v+3
        BYTE   W03
        BYTE           VOL     27
        BYTE           PAN     c_v+12
        BYTE           BEND    c_v+2
        BYTE   W03
        BYTE           VOL     25
        BYTE           PAN     c_v+5
        BYTE           BEND    c_v-2
        BYTE   W03
        BYTE           VOL     24
        BYTE           PAN     c_v-1
        BYTE           BEND    c_v-4
        BYTE   W03
        BYTE           VOL     22
        BYTE           PAN     c_v-4
        BYTE           BEND    c_v-6
        BYTE   W03
        BYTE           VOL     21
        BYTE           PAN     c_v-7
        BYTE           BEND    c_v-8
        BYTE   W03
        BYTE           VOL     19
        BYTE           PAN     c_v-9
        BYTE           BEND    c_v-9
        BYTE   W03
        BYTE           VOL     18
        BYTE           PAN     c_v-18
        BYTE           BEND    c_v-11
        BYTE   W03
        BYTE           VOL     16
        BYTE           PAN     c_v-26
        BYTE           BEND    c_v-13
        BYTE   W03
        BYTE           VOL     14
        BYTE           PAN     c_v-31
        BYTE           BEND    c_v-14
        BYTE   W03
        BYTE           VOL     13
        BYTE           PAN     c_v-40
        BYTE           BEND    c_v-16
        BYTE   W03
        BYTE           VOL     11
        BYTE           PAN     c_v-48
        BYTE   W03
// 012   ----------------------------------------
        BYTE           VOL     9
        BYTE           PAN     c_v-53
        BYTE   W03
        BYTE           VOL     8
        BYTE           PAN     c_v-59
        BYTE           BEND    c_v-12
        BYTE   W03
        BYTE           VOL     6
        BYTE           PAN     c_v-64
        BYTE           BEND    c_v-9
        BYTE   W03
        BYTE           VOL     5
        BYTE           BEND    c_v-6
        BYTE   W03
        BYTE                   c_v-9
        BYTE           VOL     9
        BYTE           TIE
        BYTE   W03
        BYTE           PAN     c_v-59
        BYTE           BEND    c_v-7
        BYTE           VOL     11
        BYTE   W03
        BYTE           PAN     c_v-56
        BYTE           BEND    c_v-3
        BYTE           VOL     13
        BYTE   W03
        BYTE           PAN     c_v-53
        BYTE           BEND    c_v-2
        BYTE           VOL     14
        BYTE   W03
        BYTE           PAN     c_v-50
        BYTE           BEND    c_v+0
        BYTE           VOL     16
        BYTE   W03
        BYTE           PAN     c_v-46
        BYTE           BEND    c_v+2
        BYTE           VOL     17
        BYTE   W03
        BYTE           PAN     c_v-43
        BYTE           VOL     19
        BYTE   W03
        BYTE           PAN     c_v-40
        BYTE           BEND    c_v+4
        BYTE           VOL     21
        BYTE   W03
        BYTE           PAN     c_v-37
        BYTE           BEND    c_v+5
        BYTE           VOL     23
        BYTE   W03
        BYTE           PAN     c_v-34
        BYTE           BEND    c_v+7
        BYTE           VOL     24
        BYTE   W03
        BYTE           PAN     c_v-31
        BYTE           BEND    c_v+10
        BYTE           VOL     26
        BYTE   W03
        BYTE           PAN     c_v-28
        BYTE           BEND    c_v+12
        BYTE           VOL     28
        BYTE   W03
        BYTE           PAN     c_v-25
        BYTE           BEND    c_v+15
        BYTE           VOL     30
        BYTE   W03
        BYTE           PAN     c_v-21
        BYTE           BEND    c_v+18
        BYTE           VOL     31
        BYTE   W03
        BYTE           PAN     c_v-18
        BYTE           BEND    c_v+20
        BYTE           VOL     33
        BYTE   W03
        BYTE           PAN     c_v-15
        BYTE           BEND    c_v+23
        BYTE           VOL     34
        BYTE   W03
        BYTE           PAN     c_v-12
        BYTE           BEND    c_v+27
        BYTE           VOL     37
        BYTE   W03
        BYTE           PAN     c_v-9
        BYTE           BEND    c_v+30
        BYTE           VOL     39
        BYTE   W03
        BYTE           PAN     c_v-6
        BYTE           BEND    c_v+32
        BYTE           VOL     40
        BYTE   W03
        BYTE           PAN     c_v-3
        BYTE           BEND    c_v+34
        BYTE           VOL     42
        BYTE   W03
        BYTE           PAN     c_v+1
        BYTE           BEND    c_v+36
        BYTE           VOL     43
        BYTE   W03
        BYTE           PAN     c_v+4
        BYTE           BEND    c_v+39
        BYTE           VOL     46
        BYTE   W03
        BYTE           PAN     c_v+7
        BYTE           BEND    c_v+41
        BYTE           VOL     48
        BYTE   W03
        BYTE           PAN     c_v+10
        BYTE           BEND    c_v+43
        BYTE           VOL     49
        BYTE   W03
        BYTE           PAN     c_v+13
        BYTE           BEND    c_v+44
        BYTE           VOL     51
        BYTE   W03
        BYTE           PAN     c_v+16
        BYTE           VOL     52
        BYTE   W03
        BYTE           PAN     c_v+19
        BYTE           VOL     54
        BYTE   W03
        BYTE           PAN     c_v+23
        BYTE           VOL     56
        BYTE   W03
// 013   ----------------------------------------
        BYTE           PAN     c_v+26
        BYTE           VOL     58
        BYTE   W03
        BYTE           PAN     c_v+29
        BYTE           BEND    c_v+43
        BYTE           VOL     59
        BYTE   W03
        BYTE           PAN     c_v+32
        BYTE           BEND    c_v+42
        BYTE           VOL     61
        BYTE   W03
        BYTE           PAN     c_v+35
        BYTE           BEND    c_v+41
        BYTE           VOL     63
        BYTE   W03
        BYTE           PAN     c_v+38
        BYTE           BEND    c_v+39
        BYTE           VOL     65
        BYTE   W03
        BYTE           PAN     c_v+41
        BYTE           VOL     64
        BYTE   W03
        BYTE           PAN     c_v+44
        BYTE           BEND    c_v+37
        BYTE           VOL     63
        BYTE   W03
        BYTE           PAN     c_v+48
        BYTE           BEND    c_v+34
        BYTE   W03
        BYTE           PAN     c_v+51
        BYTE           BEND    c_v+31
        BYTE           VOL     61
        BYTE   W03
        BYTE           PAN     c_v+54
        BYTE           BEND    c_v+29
        BYTE           VOL     60
        BYTE   W03
        BYTE           PAN     c_v+57
        BYTE           BEND    c_v+24
        BYTE           VOL     59
        BYTE   W03
        BYTE                   58
        BYTE   W03
        BYTE           BEND    c_v+20
        BYTE           VOL     57
        BYTE   W03
        BYTE           BEND    c_v+18
        BYTE           VOL     56
        BYTE   W03
        BYTE           BEND    c_v+15
        BYTE           VOL     55
        BYTE   W03
        BYTE           BEND    c_v+14
        BYTE           VOL     54
        BYTE   W03
        BYTE           BEND    c_v+10
        BYTE           VOL     52
        BYTE   W03
        BYTE                   51
        BYTE   W03
        BYTE           BEND    c_v+7
        BYTE           VOL     50
        BYTE   W03
        BYTE           BEND    c_v+5
        BYTE           VOL     49
        BYTE   W03
        BYTE           BEND    c_v+3
        BYTE           VOL     48
        BYTE   W03
        BYTE           BEND    c_v+2
        BYTE   W03
        BYTE                   c_v-1
        BYTE           VOL     46
        BYTE   W03
        BYTE           BEND    c_v-2
        BYTE           VOL     45
        BYTE   W03
        BYTE           BEND    c_v-4
        BYTE           VOL     44
        BYTE   W03
        BYTE                   43
        BYTE   W03
        BYTE           BEND    c_v-5
        BYTE           VOL     42
        BYTE   W03
        BYTE           BEND    c_v-7
        BYTE           VOL     41
        BYTE   W03
        BYTE           BEND    c_v-9
        BYTE           VOL     39
        BYTE   W06
        BYTE           BEND    c_v-12
        BYTE           VOL     38
        BYTE   W03
        BYTE           BEND    c_v-14
        BYTE           VOL     37
        BYTE   W03
// 014   ----------------------------------------
        BYTE           BEND    c_v-15
        BYTE           VOL     36
        BYTE   W03
        BYTE           BEND    c_v-16
        BYTE           VOL     34
        BYTE   W03
        BYTE                   33
        BYTE   W03
        BYTE           BEND    c_v-19
        BYTE           VOL     32
        BYTE   W03
        BYTE                   31
        BYTE   W03
        BYTE                   30
        BYTE   W03
        BYTE           BEND    c_v-20
        BYTE           VOL     29
        BYTE   W03
        BYTE                   28
        BYTE   W03
        BYTE                   27
        BYTE   W03
        BYTE           BEND    c_v-21
        BYTE           VOL     26
        BYTE   W03
        BYTE                   24
        BYTE   W06
        BYTE                   23
        BYTE   W03
        BYTE                   22
        BYTE   W03
        BYTE                   21
        BYTE   W03
        BYTE           BEND    c_v-20
        BYTE           VOL     19
        BYTE   W03
        BYTE           BEND    c_v-19
        BYTE   W03
        BYTE           VOL     17
        BYTE   W03
        BYTE           BEND    c_v-18
        BYTE           VOL     16
        BYTE   W03
        BYTE           BEND    c_v-16
        BYTE           VOL     15
        BYTE   W02
        BYTE           EOT
        BYTE   W01
        BYTE           VOL     14
        BYTE           TIE
        BYTE   W03
        BYTE           BEND    c_v-14
        BYTE           VOL     15
        BYTE   W03
        BYTE           BEND    c_v-11
        BYTE           VOL     16
        BYTE   W03
        BYTE           BEND    c_v-9
        BYTE           VOL     18
        BYTE   W03
        BYTE           BEND    c_v-7
        BYTE           VOL     19
        BYTE   W03
        BYTE           BEND    c_v-5
        BYTE           VOL     20
        BYTE   W03
        BYTE           BEND    c_v-3
        BYTE           VOL     21
        BYTE   W03
        BYTE           BEND    c_v-1
        BYTE           VOL     23
        BYTE   W03
        BYTE           PAN     c_v+56
        BYTE           BEND    c_v+2
        BYTE           VOL     24
        BYTE   W03
        BYTE           PAN     c_v+49
        BYTE           BEND    c_v+5
        BYTE           VOL     25
        BYTE   W03
        BYTE           PAN     c_v+46
        BYTE           BEND    c_v+8
        BYTE           VOL     27
        BYTE   W03
        BYTE           PAN     c_v+42
        BYTE           BEND    c_v+11
        BYTE           VOL     28
        BYTE   W03
// 015   ----------------------------------------
        BYTE           PAN     c_v+37
        BYTE           BEND    c_v+13
        BYTE           VOL     29
        BYTE   W03
        BYTE           PAN     c_v+32
        BYTE           BEND    c_v+17
        BYTE           VOL     31
        BYTE   W03
        BYTE           PAN     c_v+29
        BYTE           BEND    c_v+19
        BYTE           VOL     32
        BYTE   W03
        BYTE           PAN     c_v+27
        BYTE           BEND    c_v+22
        BYTE           VOL     33
        BYTE   W03
        BYTE           PAN     c_v+25
        BYTE           BEND    c_v+26
        BYTE           VOL     34
        BYTE   W03
        BYTE           PAN     c_v+21
        BYTE           BEND    c_v+29
        BYTE           VOL     36
        BYTE   W03
        BYTE           PAN     c_v+18
        BYTE           BEND    c_v+30
        BYTE           VOL     37
        BYTE   W03
        BYTE           PAN     c_v+16
        BYTE           BEND    c_v+35
        BYTE           VOL     38
        BYTE   W03
        BYTE           PAN     c_v+13
        BYTE           BEND    c_v+39
        BYTE           VOL     39
        BYTE   W03
        BYTE           PAN     c_v+10
        BYTE           BEND    c_v+44
        BYTE           VOL     41
        BYTE   W03
        BYTE           PAN     c_v+7
        BYTE           BEND    c_v+48
        BYTE           VOL     42
        BYTE   W03
        BYTE           PAN     c_v+0
        BYTE           BEND    c_v+51
        BYTE           VOL     43
        BYTE   W03
        BYTE           PAN     c_v-1
        BYTE           BEND    c_v+53
        BYTE           VOL     44
        BYTE   W03
        BYTE           PAN     c_v-7
        BYTE           BEND    c_v+54
        BYTE           VOL     46
        BYTE   W03
        BYTE           PAN     c_v-9
        BYTE           BEND    c_v+55
        BYTE           VOL     47
        BYTE   W03
        BYTE           PAN     c_v-15
        BYTE           BEND    c_v+54
        BYTE           VOL     49
        BYTE   W03
        BYTE           PAN     c_v-17
        BYTE           BEND    c_v+53
        BYTE           VOL     50
        BYTE   W03
        BYTE           PAN     c_v-20
        BYTE           VOL     51
        BYTE   W03
        BYTE           PAN     c_v-23
        BYTE           BEND    c_v+51
        BYTE           VOL     53
        BYTE   W03
        BYTE           PAN     c_v-29
        BYTE           BEND    c_v+47
        BYTE           VOL     54
        BYTE   W03
        BYTE           PAN     c_v-34
        BYTE           BEND    c_v+41
        BYTE           VOL     55
        BYTE   W03
        BYTE           PAN     c_v-37
        BYTE           BEND    c_v+36
        BYTE           VOL     56
        BYTE   W03
        BYTE           PAN     c_v-42
        BYTE           BEND    c_v+31
        BYTE           VOL     58
        BYTE   W03
        BYTE           PAN     c_v-45
        BYTE           BEND    c_v+24
        BYTE           VOL     59
        BYTE   W03
        BYTE           PAN     c_v-48
        BYTE           BEND    c_v+17
        BYTE           VOL     60
        BYTE   W03
        BYTE           PAN     c_v-53
        BYTE           BEND    c_v+14
        BYTE           VOL     61
        BYTE   W03
        BYTE           PAN     c_v-56
        BYTE           BEND    c_v+10
        BYTE           VOL     63
        BYTE   W03
        BYTE           PAN     c_v-59
        BYTE           BEND    c_v+8
        BYTE           VOL     64
        BYTE   W03
        BYTE           PAN     c_v-62
        BYTE           BEND    c_v+5
        BYTE           VOL     66
        BYTE   W03
        BYTE           BEND    c_v+4
        BYTE           VOL     65
        BYTE   W03
        BYTE           BEND    c_v-1
        BYTE           VOL     64
        BYTE   W03
        BYTE           BEND    c_v-3
        BYTE           VOL     63
        BYTE   W03
// 016   ----------------------------------------
        BYTE           BEND    c_v-4
        BYTE           VOL     61
        BYTE   W03
        BYTE           BEND    c_v-5
        BYTE           VOL     60
        BYTE   W03
        BYTE           BEND    c_v-8
        BYTE           VOL     59
        BYTE   W03
        BYTE           BEND    c_v-9
        BYTE           VOL     58
        BYTE   W03
        BYTE           PAN     c_v-60
        BYTE           BEND    c_v-11
        BYTE           VOL     56
        BYTE   W03
        BYTE           PAN     c_v-56
        BYTE           BEND    c_v-13
        BYTE           VOL     55
        BYTE   W03
        BYTE           PAN     c_v-53
        BYTE           BEND    c_v-14
        BYTE           VOL     54
        BYTE   W03
        BYTE           PAN     c_v-48
        BYTE           VOL     53
        BYTE   W03
        BYTE           PAN     c_v-41
        BYTE           VOL     51
        BYTE   W03
        BYTE           PAN     c_v-35
        BYTE           VOL     50
        BYTE   W03
        BYTE           PAN     c_v-30
        BYTE           VOL     49
        BYTE   W03
        BYTE           PAN     c_v-25
        BYTE           VOL     48
        BYTE   W03
        BYTE           PAN     c_v-17
        BYTE           VOL     46
        BYTE   W03
        BYTE           PAN     c_v-9
        BYTE           VOL     45
        BYTE   W03
        BYTE           PAN     c_v-1
        BYTE           BEND    c_v-12
        BYTE           VOL     44
        BYTE   W03
        BYTE           PAN     c_v+0
        BYTE           BEND    c_v-11
        BYTE           VOL     43
        BYTE   W03
        BYTE           PAN     c_v+7
        BYTE           BEND    c_v-9
        BYTE           VOL     42
        BYTE   W03
        BYTE           PAN     c_v+16
        BYTE           BEND    c_v-7
        BYTE           VOL     41
        BYTE   W03
        BYTE           PAN     c_v+35
        BYTE           BEND    c_v-5
        BYTE           VOL     39
        BYTE   W03
        BYTE           PAN     c_v+46
        BYTE           BEND    c_v-3
        BYTE           VOL     38
        BYTE   W03
        BYTE           PAN     c_v+54
        BYTE           BEND    c_v-1
        BYTE           VOL     37
        BYTE   W03
        BYTE           BEND    c_v+5
        BYTE           VOL     36
        BYTE   W03
        BYTE           BEND    c_v+9
        BYTE           VOL     34
        BYTE   W03
        BYTE           BEND    c_v+12
        BYTE           VOL     33
        BYTE   W03
        BYTE           BEND    c_v+17
        BYTE           VOL     32
        BYTE   W03
        BYTE           BEND    c_v+22
        BYTE           VOL     31
        BYTE   W03
        BYTE           BEND    c_v+27
        BYTE           VOL     29
        BYTE   W03
        BYTE           BEND    c_v+31
        BYTE           VOL     28
        BYTE   W03
        BYTE           BEND    c_v+34
        BYTE           VOL     27
        BYTE   W03
        BYTE           BEND    c_v+36
        BYTE           VOL     26
        BYTE   W03
        BYTE           BEND    c_v+37
        BYTE           VOL     24
        BYTE   W03
        BYTE           BEND    c_v+39
        BYTE           VOL     23
        BYTE   W03
// 017   ----------------------------------------
        BYTE                   22
        BYTE   W03
        BYTE           BEND    c_v+40
        BYTE           VOL     21
        BYTE   W03
        BYTE                   20
        BYTE   W03
        BYTE                   19
        BYTE   W03
        BYTE           BEND    c_v+39
        BYTE           VOL     18
        BYTE   W03
        BYTE                   16
        BYTE   W03
        BYTE           BEND    c_v+37
        BYTE           VOL     15
        BYTE   W02
        BYTE           EOT
        BYTE   W01
        BYTE           BEND    c_v+36
        BYTE           VOL     14
        BYTE           N84     En2   v092   gtp2
        BYTE   W03
        BYTE           BEND    c_v+34
        BYTE           VOL     15
        BYTE   W03
        BYTE           BEND    c_v+31
        BYTE           VOL     16
        BYTE   W03
        BYTE           BEND    c_v+28
        BYTE           VOL     17
        BYTE   W03
        BYTE           BEND    c_v+25
        BYTE           VOL     18
        BYTE   W03
        BYTE           BEND    c_v+22
        BYTE           VOL     19
        BYTE   W03
        BYTE           BEND    c_v+19
        BYTE           VOL     20
        BYTE   W03
        BYTE           BEND    c_v+15
        BYTE           VOL     21
        BYTE   W03
        BYTE           PAN     c_v+49
        BYTE           BEND    c_v+14
        BYTE           VOL     22
        BYTE   W03
        BYTE           PAN     c_v+43
        BYTE           BEND    c_v+12
        BYTE           VOL     23
        BYTE   W03
        BYTE           PAN     c_v+36
        BYTE           BEND    c_v+11
        BYTE           VOL     24
        BYTE   W03
        BYTE           PAN     c_v+29
        BYTE           BEND    c_v+7
        BYTE           VOL     25
        BYTE   W03
        BYTE           PAN     c_v+22
        BYTE           BEND    c_v+5
        BYTE           VOL     26
        BYTE   W03
        BYTE           PAN     c_v+15
        BYTE           BEND    c_v+3
        BYTE           VOL     28
        BYTE   W03
        BYTE           PAN     c_v+10
        BYTE           BEND    c_v+2
        BYTE   W03
        BYTE           PAN     c_v+5
        BYTE           BEND    c_v-2
        BYTE           VOL     26
        BYTE   W03
        BYTE           PAN     c_v-1
        BYTE           BEND    c_v-4
        BYTE           VOL     24
        BYTE   W03
        BYTE           PAN     c_v-4
        BYTE           BEND    c_v-6
        BYTE           VOL     23
        BYTE   W03
        BYTE           PAN     c_v-7
        BYTE           BEND    c_v-8
        BYTE           VOL     21
        BYTE   W03
        BYTE           PAN     c_v-13
        BYTE           BEND    c_v-9
        BYTE           VOL     19
        BYTE   W03
        BYTE           PAN     c_v-18
        BYTE           BEND    c_v-11
        BYTE           VOL     18
        BYTE   W03
        BYTE           PAN     c_v-26
        BYTE           BEND    c_v-13
        BYTE           VOL     16
        BYTE   W03
        BYTE           PAN     c_v-31
        BYTE           BEND    c_v-14
        BYTE           VOL     15
        BYTE   W03
        BYTE           PAN     c_v-40
        BYTE           BEND    c_v-16
        BYTE           VOL     13
        BYTE   W03
        BYTE           PAN     c_v-48
        BYTE           VOL     11
        BYTE   W03
// 018   ----------------------------------------
        BYTE           PAN     c_v-53
        BYTE           BEND    c_v-15
        BYTE           VOL     10
        BYTE   W03
        BYTE           PAN     c_v-57
        BYTE           BEND    c_v-14
        BYTE           VOL     8
        BYTE   W03
        BYTE           PAN     c_v-61
        BYTE           BEND    c_v-12
        BYTE           VOL     7
        BYTE   W03
        BYTE           PAN     c_v-64
        BYTE           BEND    c_v-11
        BYTE           VOL     5
        BYTE   W16
        BYTE   FINE


//********************** End of Song ***********************//

        ALIGN 4
SEQ_BGM_D_CHAMPROAD:
        BYTE   10                      // Num Tracks
        BYTE   0                       // Unknown
        BYTE   SEQ_BGM_D_CHAMPROAD_pri // Priority
        BYTE   SEQ_BGM_D_CHAMPROAD_rev // Reverb

        POIN2   SEQ_BGM_D_CHAMPROAD_grp

        POIN2   SEQ_BGM_D_CHAMPROAD_0
        POIN2   SEQ_BGM_D_CHAMPROAD_1
        POIN2   SEQ_BGM_D_CHAMPROAD_2
        POIN2   SEQ_BGM_D_CHAMPROAD_3
        POIN2   SEQ_BGM_D_CHAMPROAD_4
        POIN2   SEQ_BGM_D_CHAMPROAD_5
        POIN2   SEQ_BGM_D_CHAMPROAD_6
        POIN2   SEQ_BGM_D_CHAMPROAD_7
        POIN2   SEQ_BGM_D_CHAMPROAD_8
        POIN2   SEQ_BGM_D_CHAMPROAD_9

        
