//Event file generated from Sappy .s format.
        #include "MPlayDef.event"

        #define    SEQ_BGM_DIVING_grp  PkmnBWsoundbank
        #define    SEQ_BGM_DIVING_pri  0
        #define    SEQ_BGM_DIVING_rev  0
        #define    SEQ_BGM_DIVING_key  0

        // .rodata
        // SEQ_BGM_DIVING
        ALIGN 4

//****************** Track 0 (Midi-Chn.0) ******************//

SEQ_BGM_DIVING_0:
        BYTE   KEYSH   SEQ_BGM_DIVING_key+0
// 000   ----------------------------------------
        BYTE   TEMPO   90/2
        BYTE           BENDR   12
        BYTE           VOICE   30
        BYTE           PAN     c_v+20
        BYTE           VOL     59
        BYTE   W96
// 001   ----------------------------------------
        BYTE   W96
// 002   ----------------------------------------
        BYTE   W96
// 003   ----------------------------------------
        BYTE   W96
// 004   ----------------------------------------
        BYTE   W96
// 005   ----------------------------------------
        BYTE   W96
// 006   ----------------------------------------
        BYTE   W96
// 007   ----------------------------------------
        BYTE   W96
// 008   ----------------------------------------
        BYTE   W48
        BYTE                   58
        BYTE           N23     Bn2   v102
        BYTE   W24
        BYTE           N32     An2   v113   gtp3
        BYTE   W12
        BYTE           VOL     59
        BYTE   W12
// 009   ----------------------------------------
        BYTE                   57
        BYTE   W12
        BYTE                   56
        BYTE           N11     Gs2   v108
        BYTE   W12
        BYTE           VOL     57
        BYTE           N11     An2   v104
        BYTE   W12
        BYTE           VOL     58
        BYTE           N32     Dn3   v102   gtp3
        BYTE   W12
        BYTE           VOL     59
        BYTE   W12
        BYTE                   58
        BYTE   W12
        BYTE           N05     En3   v110
        BYTE   W06
        BYTE           N02     Ds3   v095
        BYTE   W03
        BYTE                   Dn3   v080
        BYTE   W03
        BYTE           TIE     Cs3   v113
        BYTE   W12
// 010   ----------------------------------------
        BYTE   W36
        BYTE           VOL     57
        BYTE   W06
        BYTE                   56
        BYTE   W03
        BYTE                   55
        BYTE   W03
        BYTE                   54
        BYTE   W03
        BYTE                   53
        BYTE   W03
        BYTE                   51
        BYTE   W03
        BYTE                   50
        BYTE   W03
        BYTE                   48
        BYTE   W03
        BYTE                   46
        BYTE   W03
        BYTE                   44
        BYTE   W03
        BYTE                   42
        BYTE   W03
        BYTE                   40
        BYTE   W03
        BYTE                   37
        BYTE   W03
        BYTE                   35
        BYTE   W03
        BYTE                   32
        BYTE   W03
        BYTE                   29
        BYTE   W03
        BYTE                   26
        BYTE   W03
        BYTE                   22
        BYTE   W03
        BYTE                   19
        BYTE   W03
// 011   ----------------------------------------
        BYTE                   15
        BYTE   W03
        BYTE                   12
        BYTE   W03
        BYTE                   7
        BYTE   W02
        BYTE           EOT
        BYTE   W01
        BYTE           VOL     2
        BYTE   W84
        BYTE   W03
// 012   ----------------------------------------
        BYTE                   59
        BYTE   W12
        BYTE                   57
        BYTE   W12
        BYTE                   58
        BYTE   W12
        BYTE                   59
        BYTE   W12
        BYTE           N23     Cs3   v103
        BYTE   W12
        BYTE           VOL     58
        BYTE   W12
        BYTE                   57
        BYTE           N32     Bn2   v117   gtp3
        BYTE   W12
        BYTE           VOL     58
        BYTE   W12
// 013   ----------------------------------------
        BYTE   W12
        BYTE                   59
        BYTE           N11     An2   v098
        BYTE   W12
        BYTE                   Bn2
        BYTE   W12
        BYTE           N32     En3   v107   gtp3
        BYTE   W12
        BYTE           VOL     58
        BYTE   W12
        BYTE                   57
        BYTE   W12
        BYTE                   56
        BYTE           N05     Fs3   v106
        BYTE   W06
        BYTE           N02     En3   v096
        BYTE   W03
        BYTE                   Ds3   v085
        BYTE   W03
        BYTE           VOL     58
        BYTE           TIE     Dn3   v106
        BYTE   W12
// 014   ----------------------------------------
        BYTE           VOL     59
        BYTE   W24
        BYTE   W03
        BYTE                   58
        BYTE   W09
        BYTE                   57
        BYTE   W06
        BYTE                   56
        BYTE   W03
        BYTE                   55
        BYTE   W03
        BYTE                   54
        BYTE   W03
        BYTE                   53
        BYTE   W03
        BYTE                   51
        BYTE   W03
        BYTE                   50
        BYTE   W03
        BYTE                   48
        BYTE   W03
        BYTE                   46
        BYTE   W03
        BYTE                   44
        BYTE   W03
        BYTE                   42
        BYTE   W03
        BYTE                   40
        BYTE   W03
        BYTE                   37
        BYTE   W03
        BYTE                   35
        BYTE   W03
        BYTE                   32
        BYTE   W03
        BYTE                   29
        BYTE   W03
        BYTE                   26
        BYTE   W03
        BYTE                   22
        BYTE   W03
        BYTE                   19
        BYTE   W03
// 015   ----------------------------------------
        BYTE                   15
        BYTE   W03
        BYTE                   12
        BYTE   W03
        BYTE                   7
        BYTE   W03
        BYTE                   2
        BYTE   W02
        BYTE           EOT
        BYTE   W84
        BYTE   W01
// 016   ----------------------------------------
SEQ_BGM_DIVING_0_LOOP:
        BYTE           PAN     c_v+22
        BYTE           VOL     32
        BYTE           N68     Bn2   v103   gtp3
        BYTE   W03
        BYTE           VOL     37
        BYTE   W03
        BYTE                   47
        BYTE   W03
        BYTE                   51
        BYTE   W03
        BYTE                   56
        BYTE           PAN     c_v+26
        BYTE   W12
        BYTE           VOL     54
        BYTE           PAN     c_v+27
        BYTE   W12
        BYTE                   c_v+23
        BYTE   W12
        BYTE                   c_v+19
        BYTE   W12
        BYTE           VOL     58
        BYTE           PAN     c_v+13
        BYTE   W12
        BYTE           VOL     60
        BYTE           PAN     c_v+12
        BYTE           N11     Cn3   v116
        BYTE   W12
        BYTE           PAN     c_v+13
        BYTE           N05     Bn2   v106
        BYTE   W06
        BYTE                   An2   v092
        BYTE   W06
// 017   ----------------------------------------
        BYTE           VOL     59
        BYTE           PAN     c_v+16
        BYTE           N11     Gs2   v107
        BYTE   W12
        BYTE           VOL     58
        BYTE           PAN     c_v+23
        BYTE           N11     An2
        BYTE   W12
        BYTE           VOL     57
        BYTE           PAN     c_v+27
        BYTE           N11     Bn2   v104
        BYTE   W12
        BYTE           N02     Dn3   v083
        BYTE   W03
        BYTE                   Ds3   v071
        BYTE   W03
        BYTE           PAN     c_v+29
        BYTE           VOL     58
        BYTE           N14     En3   v100
        BYTE   W12
        BYTE           VOL     60
        BYTE   W03
        BYTE           N02     Ds3   v080
        BYTE   W03
        BYTE           VOL     61
        BYTE           PAN     c_v+27
        BYTE           N05     Dn3   v107
        BYTE   W06
        BYTE                   En3   v109
        BYTE   W06
        BYTE           VOL     62
        BYTE           PAN     c_v+22
        BYTE           N11     Dn3   v111
        BYTE   W12
        BYTE           VOL     59
        BYTE           PAN     c_v+18
        BYTE           N05     Cs3   v112
        BYTE   W06
        BYTE                   Dn3   v109
        BYTE   W06
// 018   ----------------------------------------
        BYTE           VOL     56
        BYTE           PAN     c_v+22
        BYTE           N80     Cs3   v104   gtp3
        BYTE   W12
        BYTE           VOL     51
        BYTE           PAN     c_v+26
        BYTE   W12
        BYTE                   c_v+27
        BYTE   W12
        BYTE           VOL     55
        BYTE           PAN     c_v+23
        BYTE   W12
        BYTE           VOL     59
        BYTE           PAN     c_v+19
        BYTE   W12
        BYTE           VOL     63
        BYTE           PAN     c_v+13
        BYTE   W12
        BYTE                   c_v+12
        BYTE   W12
        BYTE           VOL     61
        BYTE           PAN     c_v+13
        BYTE           N08     Dn3   v099
        BYTE   W09
        BYTE           N02     Cs3   v081
        BYTE   W03
// 019   ----------------------------------------
        BYTE           VOL     60
        BYTE           PAN     c_v+16
        BYTE           N32     Cn3   v110   gtp3
        BYTE   W12
        BYTE           VOL     59
        BYTE           PAN     c_v+23
        BYTE   W12
        BYTE           VOL     58
        BYTE           PAN     c_v+27
        BYTE   W12
        BYTE           VOL     59
        BYTE           PAN     c_v+29
        BYTE           N05     Dn3   v115
        BYTE   W06
        BYTE           N02     Cs3   v110
        BYTE   W03
        BYTE                   Cn3   v102
        BYTE   W03
        BYTE           VOL     61
        BYTE           N56     Bn2
        BYTE   W12
        BYTE           VOL     62
        BYTE           PAN     c_v+27
        BYTE   W12
        BYTE                   c_v+22
        BYTE   W12
        BYTE           VOL     61
        BYTE           PAN     c_v+18
        BYTE   W03
        BYTE           VOL     52
        BYTE   W03
        BYTE                   41
        BYTE   W03
        BYTE                   32
        BYTE   W03
// 020   ----------------------------------------
        BYTE                   16
        BYTE   W03
        BYTE                   4
        BYTE   W03
        BYTE                   0
        BYTE   W90
// 021   ----------------------------------------
        BYTE   W96
// 022   ----------------------------------------
        BYTE           PAN     c_v+22
        BYTE   W01
        BYTE           VOL     59
        BYTE   W11
        BYTE           PAN     c_v+26
        BYTE           N23     Fn3   v114
        BYTE   W01
        BYTE           VOL     60
        BYTE   W11
        BYTE           PAN     c_v+27
        BYTE   W01
        BYTE           VOL     62
        BYTE   W11
        BYTE           PAN     c_v+23
        BYTE           N08     En3   v107
        BYTE   W09
        BYTE           N02     Ds3   v074
        BYTE   W03
        BYTE           PAN     c_v+19
        BYTE           N11     Dn3   v101
        BYTE   W12
        BYTE           PAN     c_v+13
        BYTE           N05     Cs3   v103
        BYTE   W01
        BYTE           VOL     61
        BYTE   W05
        BYTE           N05     Dn3   v105
        BYTE   W06
        BYTE           PAN     c_v+12
        BYTE           N32     En3   v106   gtp3
        BYTE   W01
        BYTE           VOL     59
        BYTE   W11
        BYTE           PAN     c_v+13
        BYTE   W01
        BYTE           VOL     58
        BYTE   W11
// 023   ----------------------------------------
        BYTE           PAN     c_v+16
        BYTE   W12
        BYTE           N02     Ds3   v083
        BYTE   W03
        BYTE           N08     Dn3   v103
        BYTE   W09
        BYTE           PAN     c_v+27
        BYTE           N11     Cs3   v117
        BYTE   W01
        BYTE           VOL     61
        BYTE   W11
        BYTE           PAN     c_v+29
        BYTE           N05     Bn2   v116
        BYTE   W06
        BYTE                   Cs3   v113
        BYTE   W06
        BYTE           N02     Ds3   v081
        BYTE   W03
        BYTE           N08     En3   v110
        BYTE   W01
        BYTE           VOL     62
        BYTE   W08
        BYTE           PAN     c_v+27
        BYTE           N11     Dn3   v108
        BYTE   W12
        BYTE           PAN     c_v+22
        BYTE           N11     Cs3   v102
        BYTE   W12
        BYTE           PAN     c_v+18
        BYTE           N02     Bn2
        BYTE   W01
        BYTE           VOL     59
        BYTE   W02
        BYTE           N02     Cs3   v101
        BYTE   W03
        BYTE           N05     Bn2   v088
        BYTE   W06
// 024   ----------------------------------------
        BYTE           PAN     c_v+22
        BYTE           TIE     As2   v110
        BYTE   W12
        BYTE           PAN     c_v+26
        BYTE   W12
        BYTE                   c_v+27
        BYTE   W12
        BYTE                   c_v+23
        BYTE   W01
        BYTE           VOL     61
        BYTE   W11
        BYTE           PAN     c_v+19
        BYTE   W01
        BYTE           VOL     62
        BYTE   W11
        BYTE           PAN     c_v+13
        BYTE   W01
        BYTE           VOL     61
        BYTE   W11
        BYTE           PAN     c_v+12
        BYTE   W01
        BYTE           VOL     59
        BYTE   W11
        BYTE           PAN     c_v+13
        BYTE   W01
        BYTE           VOL     52
        BYTE   W05
        BYTE                   51
        BYTE   W06
// 025   ----------------------------------------
        BYTE           PAN     c_v+16
        BYTE           VOL     46
        BYTE   W06
        BYTE                   39
        BYTE   W06
        BYTE           PAN     c_v+23
        BYTE           VOL     28
        BYTE   W06
        BYTE                   11
        BYTE   W06
        BYTE           PAN     c_v+27
        BYTE   W02
        BYTE           EOT
        BYTE   W10
        BYTE           PAN     c_v+29
        BYTE   W24
        BYTE                   c_v+27
        BYTE   W12
        BYTE                   c_v+22
        BYTE   W12
        BYTE                   c_v+18
        BYTE   W12
// 026   ----------------------------------------
        BYTE   W96
// 027   ----------------------------------------
        BYTE   W96
// 028   ----------------------------------------
        BYTE   W96
// 029   ----------------------------------------
        BYTE   W96
// 030   ----------------------------------------
        BYTE   W96
// 031   ----------------------------------------
        BYTE           VOL     63
        BYTE   W96
// 032   ----------------------------------------
        BYTE   W72
        BYTE                   46
        BYTE   W24
// 033   ----------------------------------------
        BYTE           PAN     c_v+12
        BYTE           N14     En6   v070
        BYTE           N14     Fn6
        BYTE   W15
        BYTE           N02     En6   v050
        BYTE           N02     Fn6
        BYTE   W03
        BYTE           PAN     c_v+20
        BYTE           N14     En6   v060
        BYTE           N14     Fn6
        BYTE   W15
        BYTE           N02     En6   v040
        BYTE           N02     Fn6
        BYTE   W03
        BYTE           PAN     c_v+32
        BYTE           N14     En6   v050
        BYTE           N14     Fn6
        BYTE   W15
        BYTE           N02     En6   v040
        BYTE           N02     Fn6
        BYTE   W03
        BYTE           PAN     c_v+36
        BYTE           N14     En6   v035
        BYTE           N14     Fn6
        BYTE   W15
        BYTE           N02     En6   v020
        BYTE           N02     Fn6
        BYTE   W03
        BYTE           PAN     c_v+44
        BYTE           N14     En6   v015
        BYTE           N14     Fn6
        BYTE   W24
// 034   ----------------------------------------
        BYTE   W24
        BYTE           PAN     c_v-40
        BYTE           VOICE   17
        BYTE           N05     En6   v070
        BYTE   W06
        BYTE                   Bn6
        BYTE   W06
        BYTE                   Bn5
        BYTE   W06
        BYTE                   Bn4
        BYTE   W06
        BYTE                   Fs7
        BYTE   W06
        BYTE                   Bn6
        BYTE   W12
        BYTE                   Fs7   v057
        BYTE   W06
        BYTE                   Bn6
        BYTE   W12
        BYTE                   Fs7   v042
        BYTE   W06
        BYTE                   Bn6
        BYTE   W06
// 035   ----------------------------------------
        BYTE   W06
        BYTE                   Fs7   v030
        BYTE   W06
        BYTE                   Bn6
        BYTE   W84
// 036   ----------------------------------------
        BYTE   W96
// 037   ----------------------------------------
        BYTE   W24
        BYTE           PAN     c_v+12
        BYTE           VOICE   30
        BYTE           N14     En6   v070
        BYTE           N14     Fn6
        BYTE   W15
        BYTE           N02     En6   v050
        BYTE           N02     Fn6
        BYTE   W03
        BYTE           PAN     c_v+20
        BYTE           N14     En6   v060
        BYTE           N14     Fn6
        BYTE   W15
        BYTE           N02     En6   v040
        BYTE           N02     Fn6
        BYTE   W03
        BYTE           PAN     c_v+32
        BYTE           N14     En6   v050
        BYTE           N14     Fn6
        BYTE   W15
        BYTE           N02     En6   v040
        BYTE           N02     Fn6
        BYTE   W03
        BYTE           PAN     c_v+36
        BYTE           N14     En6   v035
        BYTE           N14     Fn6
        BYTE   W15
        BYTE           N02     En6   v020
        BYTE           N02     Fn6
        BYTE   W03
// 038   ----------------------------------------
        BYTE           PAN     c_v+44
        BYTE           N14     En6   v015
        BYTE           N14     Fn6
        BYTE   W48
        BYTE           PAN     c_v-40
        BYTE           VOICE   17
        BYTE           N05     En6   v070
        BYTE   W06
        BYTE                   Bn6
        BYTE   W06
        BYTE                   Bn5
        BYTE   W06
        BYTE                   Bn4
        BYTE   W06
        BYTE                   Fs7
        BYTE   W06
        BYTE                   Bn6
        BYTE   W12
        BYTE                   Fs7   v057
        BYTE   W06
// 039   ----------------------------------------
        BYTE                   Bn6
        BYTE   W12
        BYTE                   Fs7   v042
        BYTE   W06
        BYTE                   Bn6
        BYTE   W12
        BYTE                   Fs7   v030
        BYTE   W06
        BYTE                   Bn6
        BYTE   W05
        BYTE           VOICE   30
        BYTE   W54
        BYTE           VOL     32
        BYTE           PAN     c_v+22
        BYTE   GoTo
         POIN2  SEQ_BGM_DIVING_0_LOOP
        BYTE   FINE

//****************** Track 1 (Midi-Chn.1) ******************//

SEQ_BGM_DIVING_1:
        BYTE   KEYSH   SEQ_BGM_DIVING_key+0
// 000   ----------------------------------------
        BYTE           BENDR   12
        BYTE           VOICE   75
        BYTE           PAN     c_v-40
        BYTE           VOL     53
        BYTE   W96
// 001   ----------------------------------------
        BYTE   W96
// 002   ----------------------------------------
        BYTE   W96
// 003   ----------------------------------------
        BYTE   W96
// 004   ----------------------------------------
        BYTE   W96
// 005   ----------------------------------------
        BYTE   W96
// 006   ----------------------------------------
        BYTE   W96
// 007   ----------------------------------------
        BYTE   W96
// 008   ----------------------------------------
        BYTE   W96
// 009   ----------------------------------------
        BYTE   W96
// 010   ----------------------------------------
        BYTE   W96
// 011   ----------------------------------------
        BYTE   W96
// 012   ----------------------------------------
        BYTE   W96
// 013   ----------------------------------------
        BYTE   W96
// 014   ----------------------------------------
        BYTE   W96
// 015   ----------------------------------------
        BYTE   W96
// 016   ----------------------------------------
SEQ_BGM_DIVING_1_LOOP:
        BYTE           VOL     50
        BYTE   W96
// 017   ----------------------------------------
        BYTE   W96
// 018   ----------------------------------------
        BYTE   W96
// 019   ----------------------------------------
        BYTE   W72
        BYTE           PAN     c_v-45
        BYTE           N11     En2   v104
        BYTE   W12
        BYTE           PAN     c_v-39
        BYTE           N11     En3   v114
        BYTE   W12
// 020   ----------------------------------------
        BYTE           PAN     c_v-34
        BYTE           N02     Bn2   v107
        BYTE   W03
        BYTE                   Cn3   v101
        BYTE   W03
        BYTE           N05     Bn2   v114
        BYTE   W06
        BYTE           PAN     c_v-43
        BYTE           N32     Dn3   v114   gtp3
        BYTE   W12
        BYTE           PAN     c_v-45
        BYTE   W12
        BYTE                   c_v-42
        BYTE   W12
        BYTE                   c_v-40
        BYTE           N17     Cs3
        BYTE   W12
        BYTE           PAN     c_v-45
        BYTE   W06
        BYTE           N02     Cn3   v106
        BYTE   W03
        BYTE                   Cs3   v099
        BYTE   W03
        BYTE           PAN     c_v-40
        BYTE           N23     Cn3   v110
        BYTE   W12
        BYTE           PAN     c_v-37
        BYTE   W12
// 021   ----------------------------------------
        BYTE                   c_v-35
        BYTE           N40     Dn3   v114   gtp1
        BYTE   W12
        BYTE           PAN     c_v-40
        BYTE   W12
        BYTE                   c_v-42
        BYTE   W12
        BYTE                   c_v-37
        BYTE   W06
        BYTE           N02     Cs3   v108
        BYTE   W03
        BYTE                   Cn3   v100
        BYTE   W03
        BYTE           PAN     c_v-41
        BYTE           N14     Bn2   v111
        BYTE   W12
        BYTE           PAN     c_v-45
        BYTE   W03
        BYTE           N02     Cn3   v108
        BYTE   W03
        BYTE                   Bn2   v103
        BYTE   W03
        BYTE                   An2   v093
        BYTE   W03
        BYTE           PAN     c_v-39
        BYTE           N40     Gs2   v108   gtp1
        BYTE   W12
        BYTE           PAN     c_v-41
        BYTE   W12
// 022   ----------------------------------------
        BYTE                   c_v-37
        BYTE   W12
        BYTE                   c_v-42
        BYTE   W12
        BYTE                   c_v-38
        BYTE   W72
// 023   ----------------------------------------
        BYTE   W96
// 024   ----------------------------------------
        BYTE   W96
// 025   ----------------------------------------
        BYTE   W96
// 026   ----------------------------------------
        BYTE   W96
// 027   ----------------------------------------
        BYTE   W36
        BYTE                   c_v-45
        BYTE   W09
        BYTE           N28     An4   v110   gtp1
        BYTE   W03
        BYTE           PAN     c_v-39
        BYTE   W12
        BYTE                   c_v-34
        BYTE   W12
        BYTE                   c_v-43
        BYTE   W03
        BYTE           N02     Gn4   v068
        BYTE   W03
        BYTE                   An4   v090
        BYTE   W03
        BYTE           N23     As4   v099
        BYTE   W03
        BYTE           PAN     c_v-45
        BYTE   W12
// 028   ----------------------------------------
        BYTE                   c_v-42
        BYTE   W09
        BYTE           N02     Cn5   v084
        BYTE   W03
        BYTE           PAN     c_v-40
        BYTE           N02     As4   v074
        BYTE   W03
        BYTE                   Gn4   v066
        BYTE   W03
        BYTE           N32     An4   v105
        BYTE   W06
        BYTE           PAN     c_v-45
        BYTE   W12
        BYTE                   c_v-40
        BYTE   W12
        BYTE                   c_v-37
        BYTE   W12
        BYTE                   c_v-35
        BYTE   W12
        BYTE                   c_v-40
        BYTE   W12
        BYTE                   c_v-42
        BYTE   W12
// 029   ----------------------------------------
        BYTE                   c_v-37
        BYTE   W06
        BYTE           N02     Cn4   v106
        BYTE   W03
        BYTE                   As3   v095
        BYTE   W03
        BYTE           PAN     c_v-41
        BYTE           N02     An3   v082
        BYTE   W03
        BYTE           N36     Gn3   v086   gtp2
        BYTE   W09
        BYTE           PAN     c_v-45
        BYTE   W12
        BYTE                   c_v-39
        BYTE   W12
        BYTE                   c_v-41
        BYTE   W06
        BYTE           N20     Fs3   v110
        BYTE   W06
        BYTE           PAN     c_v-37
        BYTE   W12
        BYTE                   c_v-42
        BYTE   W03
        BYTE           N02     Gn3   v100
        BYTE   W03
        BYTE           N20     An3   v092
        BYTE   W06
        BYTE           PAN     c_v-38
        BYTE   W12
// 030   ----------------------------------------
        BYTE                   c_v-45
        BYTE   W03
        BYTE           N02     Gn3   v079
        BYTE   W03
        BYTE           N52     An3   v071   gtp1
        BYTE   W06
        BYTE           PAN     c_v-39
        BYTE   W12
        BYTE                   c_v-34
        BYTE   W12
        BYTE                   c_v-43
        BYTE   W12
        BYTE                   c_v-45
        BYTE   W12
        BYTE                   c_v-42
        BYTE   W12
        BYTE                   c_v-40
        BYTE   W12
        BYTE                   c_v-45
        BYTE   W12
// 031   ----------------------------------------
        BYTE                   c_v-40
        BYTE   W12
        BYTE                   c_v-37
        BYTE   W12
        BYTE                   c_v-35
        BYTE   W12
        BYTE                   c_v-40
        BYTE   W03
        BYTE           N02     Ds4   v106
        BYTE   W03
        BYTE                   Dn4   v095
        BYTE   W03
        BYTE                   Cn4   v082
        BYTE   W03
        BYTE           PAN     c_v-42
        BYTE           N32     As3   v086
        BYTE   W12
        BYTE           PAN     c_v-37
        BYTE   W12
        BYTE                   c_v-41
        BYTE   W09
        BYTE           N02     Gn3   v084
        BYTE   W03
        BYTE           PAN     c_v-45
        BYTE           N02     An3   v072
        BYTE   W03
        BYTE                   As3   v079
        BYTE   W03
        BYTE           N14     An3   v094
        BYTE   W06
// 032   ----------------------------------------
        BYTE           PAN     c_v-39
        BYTE   W09
        BYTE           N02     Gn3   v079
        BYTE   W03
        BYTE           PAN     c_v-41
        BYTE           N28     An3   v071   gtp1
        BYTE   W12
        BYTE           PAN     c_v-37
        BYTE   W12
        BYTE                   c_v-42
        BYTE   W12
        BYTE                   c_v-38
        BYTE   W12
        BYTE                   c_v-37
        BYTE   W12
        BYTE                   c_v+18
        BYTE           VOL     74
        BYTE   W12
        BYTE           PAN     c_v-4
        BYTE           N05     Dn1   v084
        BYTE   W06
        BYTE                   Ds1   v071
        BYTE   W06
// 033   ----------------------------------------
        BYTE           PAN     c_v-15
        BYTE           N17     En1   v098
        BYTE   W18
        BYTE                   An1   v103
        BYTE   W06
        BYTE           PAN     c_v-4
        BYTE   W12
        BYTE                   c_v+13
        BYTE           N05     Cs2   v100
        BYTE   W06
        BYTE                   Dn2   v076
        BYTE   W06
        BYTE           PAN     c_v+32
        BYTE           N05     En2   v093
        BYTE   W06
        BYTE                   Fn2   v071
        BYTE   W06
        BYTE           PAN     c_v+18
        BYTE           N23     En2   v096
        BYTE   W12
        BYTE           PAN     c_v+10
        BYTE   W12
        BYTE                   c_v-15
        BYTE           N05     Bn1   v087
        BYTE   W06
        BYTE                   Cn2   v075
        BYTE   W06
// 034   ----------------------------------------
        BYTE           PAN     c_v-23
        BYTE           N32     Dn2   v110   gtp3
        BYTE   W24
        BYTE           PAN     c_v-12
        BYTE   W12
        BYTE                   c_v-7
        BYTE           N05     Cn2   v094
        BYTE   W06
        BYTE                   Dn2   v089
        BYTE   W06
        BYTE           PAN     c_v+5
        BYTE           N23     Cn2   v101
        BYTE   W12
        BYTE           PAN     c_v+10
        BYTE   W12
        BYTE                   c_v+0
        BYTE           N23     Bn1   v093
        BYTE   W12
        BYTE           PAN     c_v-26
        BYTE   W12
// 035   ----------------------------------------
        BYTE                   c_v-15
        BYTE   W96
// 036   ----------------------------------------
        BYTE   W80
        BYTE   W01
        BYTE                   c_v+18
        BYTE   W03
        BYTE           N05     Gn1   v098
        BYTE   W06
        BYTE                   Gs1   v078
        BYTE   W03
        BYTE           PAN     c_v-4
        BYTE   W03
// 037   ----------------------------------------
        BYTE           N17     An1   v096
        BYTE   W09
        BYTE           PAN     c_v-15
        BYTE   W09
        BYTE           N17     En2   v089
        BYTE   W15
        BYTE           PAN     c_v-4
        BYTE   W03
        BYTE           N05     Fn2   v101
        BYTE   W06
        BYTE                   Gn2   v078
        BYTE   W03
        BYTE           PAN     c_v+13
        BYTE   W03
        BYTE           N05     An2   v089
        BYTE   W06
        BYTE                   As2   v085
        BYTE   W03
        BYTE           PAN     c_v+32
        BYTE   W03
        BYTE           N23     An2   v098
        BYTE   W09
        BYTE           PAN     c_v+18
        BYTE   W12
        BYTE                   c_v+10
        BYTE   W03
        BYTE           N05     En2   v080
        BYTE   W06
        BYTE                   Fn2   v094
        BYTE   W03
        BYTE           PAN     c_v-15
        BYTE   W03
// 038   ----------------------------------------
        BYTE           N32     Gn2   v110   gtp3
        BYTE   W09
        BYTE           PAN     c_v-23
        BYTE   W24
        BYTE                   c_v-12
        BYTE   W03
        BYTE           N05     Fn2   v091
        BYTE   W06
        BYTE                   Gn2   v080
        BYTE   W03
        BYTE           PAN     c_v-7
        BYTE   W03
        BYTE           N23     Fn2   v110
        BYTE   W09
        BYTE           PAN     c_v+5
        BYTE   W12
        BYTE                   c_v+10
        BYTE   W03
        BYTE           N23     En2   v100
        BYTE   W09
        BYTE           PAN     c_v+0
        BYTE   W12
        BYTE                   c_v-26
        BYTE   W03
// 039   ----------------------------------------
        BYTE   W09
        BYTE                   c_v-15
        BYTE   W84
        BYTE   W02
        BYTE           VOL     50
        BYTE           PAN     c_v-40
        BYTE   GoTo
         POIN2  SEQ_BGM_DIVING_1_LOOP
        BYTE   FINE

//****************** Track 2 (Midi-Chn.2) ******************//

SEQ_BGM_DIVING_2:
        BYTE   KEYSH   SEQ_BGM_DIVING_key+0
// 000   ----------------------------------------
        BYTE           BENDR   12
        BYTE           VOICE   17
        BYTE           VOL     45
        BYTE   W96
// 001   ----------------------------------------
SEQ_BGM_DIVING_2_1:
        BYTE   W24
        BYTE           N05     En6   v060
        BYTE   W06
        BYTE                   Bn6
        BYTE   W06
        BYTE                   Bn5
        BYTE   W06
        BYTE                   Bn4
        BYTE   W06
        BYTE                   Fs7
        BYTE   W06
        BYTE                   Bn6
        BYTE   W12
        BYTE                   Fs7   v030
        BYTE   W06
        BYTE                   Bn6
        BYTE   W12
        BYTE                   Fs7   v020
        BYTE   W06
        BYTE                   Bn6
        BYTE   W06
        BYTE   PEND
// 002   ----------------------------------------
        BYTE   W96
// 003   ----------------------------------------
        BYTE   W18
        BYTE                   En6   v060
        BYTE   W06
        BYTE                   Bn6
        BYTE   W06
        BYTE                   Bn5
        BYTE   W06
        BYTE                   Bn4
        BYTE   W06
        BYTE                   Fs7
        BYTE   W06
        BYTE                   Bn6
        BYTE   W12
        BYTE                   Fs7   v030
        BYTE   W06
        BYTE                   Bn6
        BYTE   W12
        BYTE                   Fs7   v020
        BYTE   W06
        BYTE                   Bn6
        BYTE   W12
// 004   ----------------------------------------
        BYTE   W96
// 005   ----------------------------------------
        BYTE   W96
// 006   ----------------------------------------
        BYTE   W96
// 007   ----------------------------------------
        BYTE   W96
// 008   ----------------------------------------
        BYTE   W96
// 009   ----------------------------------------
        BYTE   W96
// 010   ----------------------------------------
        BYTE   W96
// 011   ----------------------------------------
        BYTE   W96
// 012   ----------------------------------------
        BYTE   W96
// 013   ----------------------------------------
        BYTE   W96
// 014   ----------------------------------------
        BYTE   W96
// 015   ----------------------------------------
        BYTE   W96
// 016   ----------------------------------------
SEQ_BGM_DIVING_2_LOOP:
        BYTE   W96
// 017   ----------------------------------------
        BYTE   W96
// 018   ----------------------------------------
        BYTE   W96
// 019   ----------------------------------------
        BYTE   W96
// 020   ----------------------------------------
        BYTE   W96
// 021   ----------------------------------------
        BYTE   W96
// 022   ----------------------------------------
        BYTE   W96
// 023   ----------------------------------------
        BYTE   W96
// 024   ----------------------------------------
        BYTE   W96
// 025   ----------------------------------------
        BYTE   W96
// 026   ----------------------------------------
        BYTE   PATT
         POIN2  SEQ_BGM_DIVING_2_1
// 027   ----------------------------------------
        BYTE   W96
// 028   ----------------------------------------
        BYTE   PATT
         POIN2  SEQ_BGM_DIVING_2_1
// 029   ----------------------------------------
        BYTE   W96
// 030   ----------------------------------------
        BYTE   PATT
         POIN2  SEQ_BGM_DIVING_2_1
// 031   ----------------------------------------
        BYTE   W96
// 032   ----------------------------------------
        BYTE   W96
// 033   ----------------------------------------
        BYTE   W96
// 034   ----------------------------------------
        BYTE   W96
// 035   ----------------------------------------
        BYTE   W96
// 036   ----------------------------------------
        BYTE   W96
// 037   ----------------------------------------
        BYTE   W96
// 038   ----------------------------------------
        BYTE   W96
// 039   ----------------------------------------
        BYTE   W92
        BYTE   W03
        BYTE   GoTo
         POIN2  SEQ_BGM_DIVING_2_LOOP
        BYTE   FINE

//****************** Track 3 (Midi-Chn.3) ******************//

SEQ_BGM_DIVING_3:
        BYTE   KEYSH   SEQ_BGM_DIVING_key+0
// 000   ----------------------------------------
        BYTE           BENDR   12
        BYTE           VOICE   3
        BYTE           VOL     63
        BYTE           PAN     c_v+26
        BYTE           N05     En4   v095
        BYTE   W06
        BYTE                   Fs5   v090
        BYTE   W06
        BYTE                   Bn5   v087
        BYTE   W06
        BYTE                   Fs6   v070
        BYTE   W06
        BYTE           PAN     c_v-30
        BYTE           N05     En4   v080
        BYTE   W06
        BYTE                   Bn5   v069
        BYTE   W06
        BYTE                   Fs6   v056
        BYTE   W06
        BYTE           PAN     c_v+18
        BYTE           N05     En4   v068
        BYTE   W06
        BYTE                   Bn5   v061
        BYTE   W06
        BYTE                   Fs6   v045
        BYTE   W06
        BYTE           PAN     c_v-20
        BYTE           N05     En4   v055
        BYTE   W06
        BYTE                   Bn5   v041
        BYTE   W06
        BYTE                   Fs6   v025
        BYTE   W06
        BYTE           PAN     c_v+10
        BYTE           N05     En4   v044
        BYTE   W06
        BYTE                   Bn5   v033
        BYTE   W06
        BYTE                   Fs6   v016
        BYTE   W06
// 001   ----------------------------------------
SEQ_BGM_DIVING_3_1:
        BYTE           PAN     c_v+26
        BYTE           N05     En4   v095
        BYTE   W06
        BYTE                   Fs5   v090
        BYTE   W06
        BYTE                   Bn5   v087
        BYTE   W06
        BYTE                   Fs6   v070
        BYTE   W06
        BYTE           PAN     c_v-30
        BYTE           N05     En4   v080
        BYTE   W06
        BYTE                   Bn5   v069
        BYTE   W06
        BYTE                   Fs6   v056
        BYTE   W06
        BYTE           PAN     c_v+18
        BYTE           N05     En4   v068
        BYTE   W06
        BYTE                   Bn5   v061
        BYTE   W06
        BYTE                   Fs6   v045
        BYTE   W06
        BYTE           PAN     c_v-20
        BYTE           N05     En4   v055
        BYTE   W06
        BYTE                   Bn5   v041
        BYTE   W06
        BYTE                   Fs6   v025
        BYTE   W06
        BYTE           PAN     c_v+10
        BYTE           N05     En4   v044
        BYTE   W06
        BYTE                   Bn5   v033
        BYTE   W06
        BYTE                   Fs6   v016
        BYTE   W06
        BYTE   PEND
// 002   ----------------------------------------
SEQ_BGM_DIVING_3_2:
        BYTE           PAN     c_v+26
        BYTE           N05     Bn3   v095
        BYTE   W06
        BYTE                   Fs5   v090
        BYTE   W06
        BYTE                   Bn5   v087
        BYTE   W06
        BYTE                   Fs6   v070
        BYTE   W06
        BYTE           PAN     c_v-30
        BYTE           N05     Bn3   v080
        BYTE   W06
        BYTE                   Bn5   v069
        BYTE   W06
        BYTE                   Fs6   v056
        BYTE   W06
        BYTE           PAN     c_v+18
        BYTE           N05     Bn3   v068
        BYTE   W06
        BYTE                   Bn5   v061
        BYTE   W06
        BYTE                   Fs6   v045
        BYTE   W06
        BYTE           PAN     c_v-20
        BYTE           N05     Bn3   v055
        BYTE   W06
        BYTE                   Bn5   v041
        BYTE   W06
        BYTE                   Fs6   v025
        BYTE   W06
        BYTE           PAN     c_v+10
        BYTE           N05     Bn3   v044
        BYTE   W06
        BYTE                   Bn5   v033
        BYTE   W06
        BYTE                   Fs6   v016
        BYTE   W06
        BYTE   PEND
// 003   ----------------------------------------
        BYTE   PATT
         POIN2  SEQ_BGM_DIVING_3_2
// 004   ----------------------------------------
        BYTE   PATT
         POIN2  SEQ_BGM_DIVING_3_1
// 005   ----------------------------------------
        BYTE   PATT
         POIN2  SEQ_BGM_DIVING_3_1
// 006   ----------------------------------------
        BYTE   PATT
         POIN2  SEQ_BGM_DIVING_3_2
// 007   ----------------------------------------
        BYTE   PATT
         POIN2  SEQ_BGM_DIVING_3_2
// 008   ----------------------------------------
SEQ_BGM_DIVING_3_8:
        BYTE           PAN     c_v+26
        BYTE           N05     En3   v100
        BYTE   W06
        BYTE                   Fs4   v094
        BYTE   W06
        BYTE                   Bn4   v091
        BYTE   W06
        BYTE                   Fs5   v074
        BYTE   W06
        BYTE           PAN     c_v-30
        BYTE           N05     En3   v085
        BYTE   W06
        BYTE                   Bn4   v073
        BYTE   W06
        BYTE                   Fs5   v060
        BYTE   W06
        BYTE           PAN     c_v+18
        BYTE           N05     En3   v073
        BYTE   W06
        BYTE                   Bn4   v065
        BYTE   W06
        BYTE                   Fs5   v049
        BYTE   W06
        BYTE           PAN     c_v-20
        BYTE           N05     En3   v060
        BYTE   W06
        BYTE                   Bn4   v045
        BYTE   W06
        BYTE                   Fs5   v029
        BYTE   W06
        BYTE           PAN     c_v+10
        BYTE           N05     En3   v049
        BYTE   W06
        BYTE                   Bn4   v037
        BYTE   W06
        BYTE                   Fs5   v020
        BYTE   W06
        BYTE   PEND
// 009   ----------------------------------------
        BYTE   PATT
         POIN2  SEQ_BGM_DIVING_3_8
// 010   ----------------------------------------
SEQ_BGM_DIVING_3_10:
        BYTE           PAN     c_v+26
        BYTE           N05     Bn2   v100
        BYTE   W06
        BYTE                   Fs4   v094
        BYTE   W06
        BYTE                   Bn4   v091
        BYTE   W06
        BYTE                   Fs5   v074
        BYTE   W06
        BYTE           PAN     c_v-30
        BYTE           N05     Bn2   v085
        BYTE   W06
        BYTE                   Bn4   v073
        BYTE   W06
        BYTE                   Fs5   v060
        BYTE   W06
        BYTE           PAN     c_v+18
        BYTE           N05     Bn2   v073
        BYTE   W06
        BYTE                   Bn4   v065
        BYTE   W06
        BYTE                   Fs5   v049
        BYTE   W06
        BYTE           PAN     c_v-20
        BYTE           N05     Bn2   v060
        BYTE   W06
        BYTE                   Bn4   v045
        BYTE   W06
        BYTE                   Fs5   v029
        BYTE   W06
        BYTE           PAN     c_v+10
        BYTE           N05     Bn2   v049
        BYTE   W06
        BYTE                   Bn4   v037
        BYTE   W06
        BYTE                   Fs5   v020
        BYTE   W06
        BYTE   PEND
// 011   ----------------------------------------
        BYTE   PATT
         POIN2  SEQ_BGM_DIVING_3_10
// 012   ----------------------------------------
        BYTE   PATT
         POIN2  SEQ_BGM_DIVING_3_8
// 013   ----------------------------------------
        BYTE   PATT
         POIN2  SEQ_BGM_DIVING_3_8
// 014   ----------------------------------------
        BYTE   PATT
         POIN2  SEQ_BGM_DIVING_3_10
// 015   ----------------------------------------
        BYTE   PATT
         POIN2  SEQ_BGM_DIVING_3_10
// 016   ----------------------------------------
SEQ_BGM_DIVING_3_LOOP:
        BYTE   W96
// 017   ----------------------------------------
        BYTE   W96
// 018   ----------------------------------------
        BYTE   W96
// 019   ----------------------------------------
        BYTE   W96
// 020   ----------------------------------------
        BYTE   W96
// 021   ----------------------------------------
        BYTE   W96
// 022   ----------------------------------------
        BYTE   W96
// 023   ----------------------------------------
        BYTE   W96
// 024   ----------------------------------------
        BYTE   W96
// 025   ----------------------------------------
        BYTE   W96
// 026   ----------------------------------------
        BYTE   W96
// 027   ----------------------------------------
        BYTE   W96
// 028   ----------------------------------------
        BYTE   W96
// 029   ----------------------------------------
        BYTE   W96
// 030   ----------------------------------------
        BYTE   W96
// 031   ----------------------------------------
        BYTE   W96
// 032   ----------------------------------------
        BYTE   W96
// 033   ----------------------------------------
        BYTE   W96
// 034   ----------------------------------------
        BYTE   W96
// 035   ----------------------------------------
        BYTE   W06
        BYTE           N02     En2   v089
        BYTE           N02     An2
        BYTE   W12
        BYTE                   En2   v069
        BYTE           N02     An2
        BYTE   W36
        BYTE                   En2   v073
        BYTE           N02     An2
        BYTE   W12
        BYTE                   En2   v051
        BYTE           N02     An2
        BYTE   W30
// 036   ----------------------------------------
        BYTE   W06
        BYTE                   Dn2   v089
        BYTE           N02     Bn2
        BYTE   W12
        BYTE                   Dn2   v069
        BYTE           N02     Bn2
        BYTE   W36
        BYTE                   Dn2   v073
        BYTE           N02     Bn2
        BYTE   W12
        BYTE                   Dn2   v051
        BYTE           N02     Bn2
        BYTE   W30
// 037   ----------------------------------------
        BYTE   W96
// 038   ----------------------------------------
        BYTE   W96
// 039   ----------------------------------------
        BYTE   W06
        BYTE                   En2   v089
        BYTE           N02     An2
        BYTE   W12
        BYTE                   En2   v069
        BYTE           N02     An2
        BYTE   W36
        BYTE                   En2   v073
        BYTE           N02     An2
        BYTE   W12
        BYTE                   En2   v051
        BYTE           N02     An2
        BYTE   W28
        BYTE   W01
        BYTE   GoTo
         POIN2  SEQ_BGM_DIVING_3_LOOP
        BYTE   FINE

//****************** Track 4 (Midi-Chn.4) ******************//

SEQ_BGM_DIVING_4:
        BYTE   KEYSH   SEQ_BGM_DIVING_key+0
// 000   ----------------------------------------
        BYTE           BENDR   12
        BYTE           VOICE   56
        BYTE           PAN     c_v+63
        BYTE           VOL     63
        BYTE   W96
// 001   ----------------------------------------
        BYTE   W96
// 002   ----------------------------------------
        BYTE   W96
// 003   ----------------------------------------
        BYTE           N56     En5   v122   gtp3
        BYTE   W96
// 004   ----------------------------------------
        BYTE                   En3   v117
        BYTE   W96
// 005   ----------------------------------------
        BYTE                   En5   v122
        BYTE   W96
// 006   ----------------------------------------
        BYTE                   En3   v117
        BYTE   W96
// 007   ----------------------------------------
        BYTE                   En5   v122
        BYTE   W96
// 008   ----------------------------------------
        BYTE                   En3   v117
        BYTE   W96
// 009   ----------------------------------------
        BYTE                   En5   v122
        BYTE   W96
// 010   ----------------------------------------
        BYTE                   En3   v117
        BYTE   W96
// 011   ----------------------------------------
        BYTE                   En5   v122
        BYTE   W96
// 012   ----------------------------------------
        BYTE                   En2   v127
        BYTE   W96
// 013   ----------------------------------------
        BYTE                   En2
        BYTE   W96
// 014   ----------------------------------------
        BYTE                   En1
        BYTE   W96
// 015   ----------------------------------------
        BYTE                   En1
        BYTE   W96
// 016   ----------------------------------------
SEQ_BGM_DIVING_4_LOOP:
        BYTE   W24
        BYTE           PAN     c_v-60
        BYTE           N44     En2   v127   gtp3
        BYTE   W48
        BYTE           PAN     c_v+63
        BYTE           N44     Bn4   v127   gtp3
        BYTE   W24
// 017   ----------------------------------------
SEQ_BGM_DIVING_4_17:
        BYTE   W24
        BYTE           PAN     c_v-60
        BYTE           N44     En2   v127   gtp3
        BYTE   W48
        BYTE           PAN     c_v+63
        BYTE           N44     Bn4   v127   gtp3
        BYTE   W24
        BYTE   PEND
// 018   ----------------------------------------
        BYTE   PATT
         POIN2  SEQ_BGM_DIVING_4_17
// 019   ----------------------------------------
        BYTE   PATT
         POIN2  SEQ_BGM_DIVING_4_17
// 020   ----------------------------------------
        BYTE   PATT
         POIN2  SEQ_BGM_DIVING_4_17
// 021   ----------------------------------------
        BYTE   PATT
         POIN2  SEQ_BGM_DIVING_4_17
// 022   ----------------------------------------
        BYTE   PATT
         POIN2  SEQ_BGM_DIVING_4_17
// 023   ----------------------------------------
        BYTE   PATT
         POIN2  SEQ_BGM_DIVING_4_17
// 024   ----------------------------------------
        BYTE   W90
        BYTE           VOL     79
        BYTE   W06
// 025   ----------------------------------------
        BYTE           N44     Cn1   v120   gtp3
        BYTE   W96
// 026   ----------------------------------------
        BYTE   W96
// 027   ----------------------------------------
        BYTE                   Cn1
        BYTE   W96
// 028   ----------------------------------------
        BYTE   W96
// 029   ----------------------------------------
        BYTE                   Cn1
        BYTE   W96
// 030   ----------------------------------------
        BYTE   W96
// 031   ----------------------------------------
SEQ_BGM_DIVING_4_31:
        BYTE   W48
        BYTE           N44     Cn1   v120   gtp3
        BYTE   W48
        BYTE   PEND
// 032   ----------------------------------------
        BYTE   W96
// 033   ----------------------------------------
        BYTE   PATT
         POIN2  SEQ_BGM_DIVING_4_31
// 034   ----------------------------------------
        BYTE   W96
// 035   ----------------------------------------
        BYTE   PATT
         POIN2  SEQ_BGM_DIVING_4_31
// 036   ----------------------------------------
        BYTE   W06
        BYTE           PAN     c_v-60
        BYTE   W06
        BYTE           VOL     63
        BYTE   W12
        BYTE           N44     En2   v127   gtp3
        BYTE   W72
// 037   ----------------------------------------
SEQ_BGM_DIVING_4_37:
        BYTE   W24
        BYTE           N44     En2   v127   gtp3
        BYTE   W72
        BYTE   PEND
// 038   ----------------------------------------
        BYTE   PATT
         POIN2  SEQ_BGM_DIVING_4_37
// 039   ----------------------------------------
        BYTE   W24
        BYTE           N44     En2   v127   gtp3
        BYTE   W68
        BYTE   W03
        BYTE           PAN     c_v+63
        BYTE   GoTo
         POIN2  SEQ_BGM_DIVING_4_LOOP
        BYTE   FINE

//****************** Track 5 (Midi-Chn.5) ******************//

SEQ_BGM_DIVING_5:
        BYTE   KEYSH   SEQ_BGM_DIVING_key+0
// 000   ----------------------------------------
        BYTE           BENDR   12
        BYTE           VOICE   30
        BYTE           VOL     0
        BYTE           PAN     c_v-8
        BYTE           TIE     En4   v102
        BYTE           TIE     An4
        BYTE           TIE     Bn4
        BYTE   W12
        BYTE           PAN     c_v-7
        BYTE   W06
        BYTE           VOL     1
        BYTE   W06
        BYTE                   2
        BYTE           PAN     c_v-4
        BYTE   W06
        BYTE           VOL     4
        BYTE   W06
        BYTE                   5
        BYTE           PAN     c_v+1
        BYTE   W06
        BYTE           VOL     7
        BYTE   W06
        BYTE                   9
        BYTE           PAN     c_v+7
        BYTE   W06
        BYTE           VOL     11
        BYTE   W06
        BYTE                   15
        BYTE           PAN     c_v+8
        BYTE   W06
        BYTE           VOL     17
        BYTE   W06
        BYTE                   22
        BYTE   W06
        BYTE                   28
        BYTE   W06
        BYTE                   32
        BYTE   W06
        BYTE                   37
        BYTE   W06
// 001   ----------------------------------------
        BYTE                   41
        BYTE   W06
        BYTE                   45
        BYTE   W06
        BYTE           PAN     c_v+7
        BYTE   W12
        BYTE                   c_v+4
        BYTE   W12
        BYTE                   c_v+1
        BYTE   W12
        BYTE                   c_v-2
        BYTE   W12
        BYTE                   c_v-3
        BYTE   W12
        BYTE                   c_v-4
        BYTE   W12
        BYTE                   c_v-7
        BYTE   W11
        BYTE           EOT     En4
        BYTE                   An4
        BYTE                   Bn4
        BYTE   W01
// 002   ----------------------------------------
SEQ_BGM_DIVING_5_2:
        BYTE           PAN     c_v-8
        BYTE           TIE     An4   v102
        BYTE           TIE     Bn4
        BYTE           TIE     Dn5
        BYTE   W12
        BYTE           PAN     c_v-7
        BYTE   W12
        BYTE                   c_v-4
        BYTE   W12
        BYTE                   c_v+1
        BYTE   W12
        BYTE                   c_v+7
        BYTE   W12
        BYTE                   c_v+8
        BYTE   W36
        BYTE   PEND
// 003   ----------------------------------------
SEQ_BGM_DIVING_5_3:
        BYTE   W12
        BYTE           PAN     c_v+7
        BYTE   W12
        BYTE                   c_v+4
        BYTE   W12
        BYTE                   c_v+1
        BYTE   W12
        BYTE                   c_v-2
        BYTE   W12
        BYTE                   c_v-3
        BYTE   W12
        BYTE                   c_v-4
        BYTE   W12
        BYTE                   c_v-7
        BYTE   W11
        BYTE           EOT     An4
        BYTE                   Bn4
        BYTE                   Dn5
        BYTE   W01
        BYTE   PEND
// 004   ----------------------------------------
        BYTE           PAN     c_v-8
        BYTE           TIE     En4   v102
        BYTE           TIE     An4
        BYTE           TIE     Bn4
        BYTE   W12
        BYTE           PAN     c_v-7
        BYTE   W12
        BYTE                   c_v-4
        BYTE   W12
        BYTE                   c_v+1
        BYTE   W12
        BYTE                   c_v+7
        BYTE   W12
        BYTE                   c_v+8
        BYTE   W36
// 005   ----------------------------------------
        BYTE   W12
        BYTE                   c_v+7
        BYTE   W12
        BYTE                   c_v+4
        BYTE   W12
        BYTE                   c_v+1
        BYTE   W12
        BYTE                   c_v-2
        BYTE   W12
        BYTE                   c_v-3
        BYTE   W12
        BYTE                   c_v-4
        BYTE   W12
        BYTE                   c_v-7
        BYTE   W11
        BYTE           EOT     En4
        BYTE                   An4
        BYTE                   Bn4
        BYTE   W01
// 006   ----------------------------------------
        BYTE   PATT
         POIN2  SEQ_BGM_DIVING_5_2
// 007   ----------------------------------------
        BYTE   PATT
         POIN2  SEQ_BGM_DIVING_5_3
// 008   ----------------------------------------
        BYTE           PAN     c_v-8
        BYTE           TIE     Dn3   v110
        BYTE           TIE     En3
        BYTE           TIE     An3
        BYTE   W12
        BYTE           PAN     c_v-7
        BYTE   W12
        BYTE                   c_v-4
        BYTE   W12
        BYTE                   c_v+1
        BYTE   W12
        BYTE                   c_v+7
        BYTE   W12
        BYTE                   c_v+8
        BYTE   W36
// 009   ----------------------------------------
        BYTE   W12
        BYTE                   c_v+7
        BYTE   W12
        BYTE                   c_v+4
        BYTE   W12
        BYTE                   c_v+1
        BYTE   W12
        BYTE                   c_v-2
        BYTE   W12
        BYTE                   c_v-3
        BYTE   W12
        BYTE                   c_v-4
        BYTE   W12
        BYTE                   c_v-7
        BYTE   W11
        BYTE           EOT     Dn3
        BYTE                   En3
        BYTE                   An3
        BYTE   W01
// 010   ----------------------------------------
        BYTE           PAN     c_v-8
        BYTE           TIE     Gn2
        BYTE           TIE     Dn3
        BYTE           TIE     En3
        BYTE   W12
        BYTE           PAN     c_v-7
        BYTE   W12
        BYTE                   c_v-4
        BYTE   W12
        BYTE                   c_v+1
        BYTE   W12
        BYTE                   c_v+7
        BYTE   W12
        BYTE                   c_v+8
        BYTE   W36
// 011   ----------------------------------------
        BYTE   W12
        BYTE                   c_v+7
        BYTE   W12
        BYTE                   c_v+4
        BYTE   W12
        BYTE                   c_v+1
        BYTE   W12
        BYTE                   c_v-2
        BYTE   W12
        BYTE                   c_v-3
        BYTE   W12
        BYTE                   c_v-4
        BYTE   W12
        BYTE                   c_v-7
        BYTE   W11
        BYTE           EOT     Gn2
        BYTE                   Dn3
        BYTE                   En3
        BYTE   W01
// 012   ----------------------------------------
        BYTE           PAN     c_v-8
        BYTE           TIE     An2
        BYTE           TIE     Cs3
        BYTE           TIE     Fs3
        BYTE   W12
        BYTE           PAN     c_v-7
        BYTE   W12
        BYTE                   c_v-4
        BYTE   W12
        BYTE                   c_v+1
        BYTE   W12
        BYTE                   c_v+7
        BYTE   W12
        BYTE                   c_v+8
        BYTE   W36
// 013   ----------------------------------------
        BYTE   W12
        BYTE                   c_v+7
        BYTE   W12
        BYTE                   c_v+4
        BYTE   W12
        BYTE                   c_v+1
        BYTE   W12
        BYTE                   c_v-2
        BYTE   W12
        BYTE                   c_v-3
        BYTE   W12
        BYTE                   c_v-4
        BYTE   W12
        BYTE                   c_v-7
        BYTE   W11
        BYTE           EOT     An2
        BYTE                   Cs3
        BYTE                   Fs3
        BYTE   W01
// 014   ----------------------------------------
        BYTE           PAN     c_v-8
        BYTE           N92     Bn2   v110   gtp3
        BYTE                   Dn3
        BYTE           N92     Gn3   v110   gtp3
        BYTE   W12
        BYTE           PAN     c_v-7
        BYTE   W12
        BYTE                   c_v-4
        BYTE   W12
        BYTE                   c_v+1
        BYTE   W12
        BYTE                   c_v+7
        BYTE   W12
        BYTE                   c_v+8
        BYTE   W36
// 015   ----------------------------------------
        BYTE           N92     An2   v110   gtp3
        BYTE                   Cs3
        BYTE           N92     En3   v110   gtp3
        BYTE   W12
        BYTE           PAN     c_v+7
        BYTE   W12
        BYTE                   c_v+4
        BYTE   W12
        BYTE                   c_v+1
        BYTE   W12
        BYTE                   c_v-2
        BYTE   W12
        BYTE                   c_v-3
        BYTE   W12
        BYTE                   c_v-4
        BYTE   W12
        BYTE                   c_v-7
        BYTE   W12
// 016   ----------------------------------------
SEQ_BGM_DIVING_5_LOOP:
        BYTE           PAN     c_v-8
        BYTE           VOL     51
        BYTE           N92     Bn1   v110   gtp3
        BYTE                   En2
        BYTE   W12
        BYTE           PAN     c_v-7
        BYTE   W12
        BYTE                   c_v-4
        BYTE   W12
        BYTE                   c_v+1
        BYTE   W12
        BYTE                   c_v+7
        BYTE   W12
        BYTE                   c_v+8
        BYTE   W36
// 017   ----------------------------------------
SEQ_BGM_DIVING_5_17:
        BYTE           N92     Gs1   v110   gtp3
        BYTE                   Dn2
        BYTE   W12
        BYTE           PAN     c_v+7
        BYTE   W12
        BYTE                   c_v+4
        BYTE   W12
        BYTE                   c_v+1
        BYTE   W12
        BYTE                   c_v-2
        BYTE   W12
        BYTE                   c_v-3
        BYTE   W12
        BYTE                   c_v-4
        BYTE   W12
        BYTE                   c_v-7
        BYTE   W12
        BYTE   PEND
// 018   ----------------------------------------
SEQ_BGM_DIVING_5_18:
        BYTE           PAN     c_v-8
        BYTE           N92     Bn1   v110   gtp3
        BYTE                   En2
        BYTE   W12
        BYTE           PAN     c_v-7
        BYTE   W12
        BYTE                   c_v-4
        BYTE   W12
        BYTE                   c_v+1
        BYTE   W12
        BYTE                   c_v+7
        BYTE   W12
        BYTE                   c_v+8
        BYTE   W36
        BYTE   PEND
// 019   ----------------------------------------
        BYTE   PATT
         POIN2  SEQ_BGM_DIVING_5_17
// 020   ----------------------------------------
        BYTE   PATT
         POIN2  SEQ_BGM_DIVING_5_18
// 021   ----------------------------------------
        BYTE   PATT
         POIN2  SEQ_BGM_DIVING_5_17
// 022   ----------------------------------------
        BYTE   PATT
         POIN2  SEQ_BGM_DIVING_5_18
// 023   ----------------------------------------
        BYTE           N92     Cn2   v110   gtp3
        BYTE                   Fn2
        BYTE   W12
        BYTE           PAN     c_v+7
        BYTE   W12
        BYTE                   c_v+4
        BYTE   W12
        BYTE                   c_v+1
        BYTE   W12
        BYTE                   c_v-2
        BYTE   W12
        BYTE                   c_v-3
        BYTE   W12
        BYTE                   c_v-4
        BYTE   W12
        BYTE                   c_v-7
        BYTE   W12
// 024   ----------------------------------------
SEQ_BGM_DIVING_5_24:
        BYTE           PAN     c_v-8
        BYTE           VOL     55
        BYTE           N92     En1   v110   gtp3
        BYTE                   An1
        BYTE           N92     Bn1   v110   gtp3
        BYTE                   Dn2
        BYTE   W12
        BYTE           PAN     c_v-7
        BYTE           VOL     54
        BYTE   W12
        BYTE           PAN     c_v-4
        BYTE           VOL     53
        BYTE   W12
        BYTE           PAN     c_v+1
        BYTE   W12
        BYTE                   c_v+7
        BYTE           VOL     54
        BYTE   W12
        BYTE           PAN     c_v+8
        BYTE           VOL     55
        BYTE   W12
        BYTE                   54
        BYTE   W12
        BYTE                   55
        BYTE   W12
        BYTE   PEND
// 025   ----------------------------------------
SEQ_BGM_DIVING_5_25:
        BYTE           VOL     54
        BYTE           N92     Fn1   v110   gtp3
        BYTE                   As1
        BYTE           N92     Cn2   v110   gtp3
        BYTE                   Ds2
        BYTE   W12
        BYTE           PAN     c_v+7
        BYTE           VOL     53
        BYTE   W12
        BYTE           PAN     c_v+4
        BYTE           VOL     54
        BYTE   W12
        BYTE           PAN     c_v+1
        BYTE   W12
        BYTE                   c_v-2
        BYTE           VOL     55
        BYTE   W12
        BYTE           PAN     c_v-3
        BYTE   W12
        BYTE                   c_v-4
        BYTE           VOL     54
        BYTE   W12
        BYTE           PAN     c_v-7
        BYTE   W12
        BYTE   PEND
// 026   ----------------------------------------
        BYTE           VOL     55
        BYTE           PAN     c_v-8
        BYTE           N92     En1   v110   gtp3
        BYTE                   An1
        BYTE           N92     Bn1   v110   gtp3
        BYTE                   Dn2
        BYTE   W12
        BYTE           VOL     54
        BYTE           PAN     c_v-7
        BYTE   W12
        BYTE           VOL     53
        BYTE           PAN     c_v-4
        BYTE   W12
        BYTE                   c_v+1
        BYTE   W12
        BYTE           VOL     54
        BYTE           PAN     c_v+7
        BYTE   W12
        BYTE           VOL     55
        BYTE           PAN     c_v+8
        BYTE   W12
        BYTE           VOL     54
        BYTE   W12
        BYTE                   55
        BYTE   W12
// 027   ----------------------------------------
SEQ_BGM_DIVING_5_27:
        BYTE           VOL     54
        BYTE           N92     Fn1   v110   gtp3
        BYTE                   As1
        BYTE           N92     Cn2   v110   gtp3
        BYTE                   Ds2
        BYTE   W12
        BYTE           PAN     c_v+7
        BYTE           VOL     53
        BYTE   W12
        BYTE           PAN     c_v+4
        BYTE           VOL     54
        BYTE   W12
        BYTE           PAN     c_v+1
        BYTE   W12
        BYTE                   c_v-2
        BYTE           VOL     55
        BYTE   W12
        BYTE           PAN     c_v-3
        BYTE   W12
        BYTE                   c_v-4
        BYTE           VOL     54
        BYTE   W12
        BYTE           PAN     c_v-7
        BYTE           VOL     53
        BYTE   W12
        BYTE   PEND
// 028   ----------------------------------------
        BYTE           PAN     c_v-8
        BYTE           VOL     55
        BYTE           N92     Fs1   v110   gtp3
        BYTE                   Bn1
        BYTE           N92     Cs2   v110   gtp3
        BYTE                   En2
        BYTE   W12
        BYTE           PAN     c_v-7
        BYTE           VOL     54
        BYTE   W12
        BYTE           PAN     c_v-4
        BYTE           VOL     53
        BYTE   W12
        BYTE           PAN     c_v+1
        BYTE   W12
        BYTE                   c_v+7
        BYTE           VOL     54
        BYTE   W12
        BYTE           PAN     c_v+8
        BYTE           VOL     55
        BYTE   W12
        BYTE                   54
        BYTE   W12
        BYTE                   55
        BYTE   W12
// 029   ----------------------------------------
        BYTE   PATT
         POIN2  SEQ_BGM_DIVING_5_25
// 030   ----------------------------------------
        BYTE   PATT
         POIN2  SEQ_BGM_DIVING_5_24
// 031   ----------------------------------------
        BYTE   PATT
         POIN2  SEQ_BGM_DIVING_5_27
// 032   ----------------------------------------
        BYTE           PAN     c_v-8
        BYTE           VOL     18
        BYTE           N92     Gn1   v085   gtp3
        BYTE                   Bn1
        BYTE           N92     Dn2   v085   gtp3
        BYTE   W03
        BYTE           VOL     23
        BYTE   W03
        BYTE                   27
        BYTE   W03
        BYTE                   33
        BYTE   W03
        BYTE           PAN     c_v-7
        BYTE           VOL     40
        BYTE   W03
        BYTE                   43
        BYTE   W03
        BYTE                   49
        BYTE   W03
        BYTE                   51
        BYTE   W03
        BYTE           PAN     c_v-4
        BYTE           VOL     54
        BYTE   W12
        BYTE           PAN     c_v+1
        BYTE   W12
        BYTE                   c_v+7
        BYTE   W12
        BYTE                   c_v+8
        BYTE           VOL     53
        BYTE   W06
        BYTE                   52
        BYTE   W06
        BYTE                   49
        BYTE   W06
        BYTE                   44
        BYTE   W06
        BYTE                   39
        BYTE   W06
        BYTE                   31
        BYTE   W06
// 033   ----------------------------------------
        BYTE                   21
        BYTE           N92     An1   v085   gtp3
        BYTE                   Cs2
        BYTE           N92     En2   v085   gtp3
        BYTE   W03
        BYTE           VOL     22
        BYTE   W03
        BYTE                   27
        BYTE   W03
        BYTE                   31
        BYTE   W03
        BYTE           PAN     c_v+7
        BYTE           VOL     36
        BYTE   W03
        BYTE                   42
        BYTE   W03
        BYTE                   46
        BYTE   W03
        BYTE                   50
        BYTE   W03
        BYTE           PAN     c_v+4
        BYTE           VOL     54
        BYTE   W12
        BYTE           PAN     c_v+1
        BYTE   W12
        BYTE                   c_v-2
        BYTE   W12
        BYTE                   c_v-3
        BYTE           VOL     53
        BYTE   W06
        BYTE                   52
        BYTE   W06
        BYTE           PAN     c_v-4
        BYTE           VOL     49
        BYTE   W06
        BYTE                   44
        BYTE   W06
        BYTE           PAN     c_v-7
        BYTE           VOL     39
        BYTE   W06
        BYTE                   31
        BYTE   W06
// 034   ----------------------------------------
        BYTE           PAN     c_v-8
        BYTE           VOL     18
        BYTE           N92     Bn1   v085   gtp3
        BYTE                   Dn2
        BYTE           N92     Gn2   v085   gtp3
        BYTE   W03
        BYTE           VOL     23
        BYTE   W03
        BYTE                   27
        BYTE   W03
        BYTE                   33
        BYTE   W03
        BYTE           PAN     c_v-7
        BYTE           VOL     40
        BYTE   W03
        BYTE                   43
        BYTE   W03
        BYTE                   49
        BYTE   W03
        BYTE                   51
        BYTE   W03
        BYTE           PAN     c_v-4
        BYTE           VOL     54
        BYTE   W12
        BYTE           PAN     c_v+1
        BYTE   W12
        BYTE                   c_v+7
        BYTE   W12
        BYTE                   c_v+8
        BYTE           VOL     53
        BYTE   W06
        BYTE                   52
        BYTE   W06
        BYTE                   49
        BYTE   W06
        BYTE                   44
        BYTE   W06
        BYTE                   39
        BYTE   W06
        BYTE                   31
        BYTE   W06
// 035   ----------------------------------------
        BYTE                   21
        BYTE           N92     Cs2   v085   gtp3
        BYTE                   En2
        BYTE           N92     An2   v085   gtp3
        BYTE   W03
        BYTE           VOL     22
        BYTE   W03
        BYTE                   27
        BYTE   W03
        BYTE                   31
        BYTE   W03
        BYTE           PAN     c_v+7
        BYTE           VOL     36
        BYTE   W03
        BYTE                   42
        BYTE   W03
        BYTE                   46
        BYTE   W03
        BYTE                   50
        BYTE   W03
        BYTE           PAN     c_v+4
        BYTE           VOL     54
        BYTE   W12
        BYTE           PAN     c_v+1
        BYTE   W12
        BYTE                   c_v-2
        BYTE   W12
        BYTE                   c_v-3
        BYTE           VOL     53
        BYTE   W06
        BYTE                   52
        BYTE   W06
        BYTE           PAN     c_v-4
        BYTE           VOL     49
        BYTE   W06
        BYTE                   44
        BYTE   W06
        BYTE           PAN     c_v-7
        BYTE           VOL     39
        BYTE   W06
        BYTE                   31
        BYTE   W06
// 036   ----------------------------------------
        BYTE           PAN     c_v-8
        BYTE           VOL     18
        BYTE           N92     Dn2   v085   gtp3
        BYTE                   Gn2
        BYTE           N92     Bn2   v085   gtp3
        BYTE   W03
        BYTE           VOL     23
        BYTE   W03
        BYTE                   27
        BYTE   W03
        BYTE                   33
        BYTE   W03
        BYTE           PAN     c_v-7
        BYTE           VOL     40
        BYTE   W03
        BYTE                   43
        BYTE   W03
        BYTE                   49
        BYTE   W03
        BYTE                   51
        BYTE   W03
        BYTE           PAN     c_v-4
        BYTE           VOL     54
        BYTE   W12
        BYTE           PAN     c_v+1
        BYTE   W12
        BYTE                   c_v+7
        BYTE   W12
        BYTE                   c_v+8
        BYTE           VOL     53
        BYTE   W06
        BYTE                   52
        BYTE   W06
        BYTE                   49
        BYTE   W06
        BYTE                   44
        BYTE   W06
        BYTE                   39
        BYTE   W06
        BYTE                   31
        BYTE   W06
// 037   ----------------------------------------
        BYTE                   21
        BYTE           N92     En2   v085   gtp3
        BYTE                   An2
        BYTE           N92     Cs3   v085   gtp3
        BYTE   W03
        BYTE           VOL     22
        BYTE   W03
        BYTE                   27
        BYTE   W03
        BYTE                   31
        BYTE   W03
        BYTE           PAN     c_v+7
        BYTE           VOL     36
        BYTE   W03
        BYTE                   42
        BYTE   W03
        BYTE                   46
        BYTE   W03
        BYTE                   50
        BYTE   W03
        BYTE           PAN     c_v+4
        BYTE           VOL     54
        BYTE   W12
        BYTE           PAN     c_v+1
        BYTE   W12
        BYTE                   c_v-2
        BYTE   W12
        BYTE                   c_v-3
        BYTE           VOL     53
        BYTE   W06
        BYTE                   52
        BYTE   W06
        BYTE           PAN     c_v-4
        BYTE           VOL     49
        BYTE   W06
        BYTE                   44
        BYTE   W06
        BYTE           PAN     c_v-7
        BYTE           VOL     39
        BYTE   W06
        BYTE                   31
        BYTE   W06
// 038   ----------------------------------------
        BYTE           PAN     c_v-8
        BYTE           VOL     18
        BYTE           N92     Fs2   v085   gtp3
        BYTE                   Bn2
        BYTE           N92     Dn3   v085   gtp3
        BYTE   W03
        BYTE           VOL     23
        BYTE   W03
        BYTE                   27
        BYTE   W03
        BYTE                   33
        BYTE   W03
        BYTE           PAN     c_v-7
        BYTE           VOL     40
        BYTE   W03
        BYTE                   43
        BYTE   W03
        BYTE                   49
        BYTE   W03
        BYTE                   51
        BYTE   W03
        BYTE           PAN     c_v-4
        BYTE           VOL     54
        BYTE   W12
        BYTE           PAN     c_v+1
        BYTE   W12
        BYTE                   c_v+7
        BYTE   W12
        BYTE                   c_v+8
        BYTE           VOL     53
        BYTE   W06
        BYTE                   52
        BYTE   W06
        BYTE                   49
        BYTE   W06
        BYTE                   44
        BYTE   W06
        BYTE                   39
        BYTE   W06
        BYTE                   31
        BYTE   W06
// 039   ----------------------------------------
        BYTE                   21
        BYTE           N92     En2   v085   gtp3
        BYTE                   An2
        BYTE           N92     Cs3   v085   gtp3
        BYTE   W03
        BYTE           VOL     22
        BYTE   W03
        BYTE                   27
        BYTE   W03
        BYTE                   31
        BYTE   W03
        BYTE           PAN     c_v+7
        BYTE           VOL     36
        BYTE   W03
        BYTE                   42
        BYTE   W03
        BYTE                   46
        BYTE   W03
        BYTE                   50
        BYTE   W03
        BYTE           PAN     c_v+4
        BYTE           VOL     54
        BYTE   W12
        BYTE           PAN     c_v+1
        BYTE   W12
        BYTE                   c_v-2
        BYTE   W12
        BYTE                   c_v-3
        BYTE           VOL     53
        BYTE   W06
        BYTE                   52
        BYTE   W06
        BYTE           PAN     c_v-4
        BYTE           VOL     49
        BYTE   W06
        BYTE                   44
        BYTE   W06
        BYTE           PAN     c_v-7
        BYTE           VOL     39
        BYTE   W06
        BYTE                   31
        BYTE   W05
        BYTE                   51
        BYTE           PAN     c_v-8
        BYTE   GoTo
         POIN2  SEQ_BGM_DIVING_5_LOOP
        BYTE   FINE

//****************** Track 6 (Midi-Chn.6) ******************//

SEQ_BGM_DIVING_6:
        BYTE   KEYSH   SEQ_BGM_DIVING_key+0
// 000   ----------------------------------------
        BYTE           BENDR   12
        BYTE           VOICE   30
        BYTE           VOL     44
        BYTE   W96
// 001   ----------------------------------------
        BYTE   W96
// 002   ----------------------------------------
        BYTE   W96
// 003   ----------------------------------------
        BYTE   W96
// 004   ----------------------------------------
        BYTE   W96
// 005   ----------------------------------------
        BYTE   W96
// 006   ----------------------------------------
        BYTE   W96
// 007   ----------------------------------------
        BYTE   W96
// 008   ----------------------------------------
        BYTE           PAN     c_v-43
        BYTE   W60
        BYTE           VOL     43
        BYTE           N23     Bn2   v102
        BYTE   W12
        BYTE           VOL     42
        BYTE   W12
        BYTE                   43
        BYTE           N32     An2   v113   gtp3
        BYTE   W12
// 009   ----------------------------------------
        BYTE           VOL     44
        BYTE   W12
        BYTE                   42
        BYTE   W12
        BYTE                   41
        BYTE           N11     Gs2   v108
        BYTE   W12
        BYTE           VOL     42
        BYTE           N11     An2   v104
        BYTE   W12
        BYTE           VOL     43
        BYTE           N32     Dn3   v102   gtp3
        BYTE   W36
        BYTE           N05     En3   v110
        BYTE   W06
        BYTE           N02     Ds3   v095
        BYTE   W03
        BYTE                   Dn3   v080
        BYTE   W03
// 010   ----------------------------------------
        BYTE           TIE     Cs3   v113
        BYTE   W36
        BYTE   W03
        BYTE           VOL     42
        BYTE   W15
        BYTE                   41
        BYTE   W03
        BYTE                   40
        BYTE   W06
        BYTE                   39
        BYTE   W03
        BYTE                   38
        BYTE   W03
        BYTE                   37
        BYTE   W03
        BYTE                   35
        BYTE   W03
        BYTE                   34
        BYTE   W03
        BYTE                   33
        BYTE   W03
        BYTE                   31
        BYTE   W03
        BYTE                   29
        BYTE   W03
        BYTE                   28
        BYTE   W03
        BYTE                   25
        BYTE   W03
        BYTE                   23
        BYTE   W03
// 011   ----------------------------------------
        BYTE                   21
        BYTE   W03
        BYTE                   19
        BYTE   W03
        BYTE                   17
        BYTE   W03
        BYTE                   14
        BYTE   W03
        BYTE                   11
        BYTE   W03
        BYTE                   9
        BYTE   W03
        BYTE                   6
        BYTE   W02
        BYTE           EOT
        BYTE   W01
        BYTE           VOL     1
        BYTE   W72
        BYTE   W03
// 012   ----------------------------------------
        BYTE   W12
        BYTE                   44
        BYTE   W12
        BYTE                   42
        BYTE   W12
        BYTE                   43
        BYTE   W12
        BYTE                   44
        BYTE   W12
        BYTE                   43
        BYTE           N23     Cs3   v103
        BYTE   W12
        BYTE           VOL     42
        BYTE   W12
        BYTE           N32     Bn2   v117   gtp3
        BYTE   W12
// 013   ----------------------------------------
        BYTE   W12
        BYTE           VOL     43
        BYTE   W12
        BYTE                   44
        BYTE           N11     An2   v098
        BYTE   W12
        BYTE                   Bn2
        BYTE   W12
        BYTE           N32     En3   v107   gtp3
        BYTE   W12
        BYTE           VOL     43
        BYTE   W12
        BYTE                   42
        BYTE   W12
        BYTE                   41
        BYTE           N05     Fs3   v106
        BYTE   W06
        BYTE           N02     En3   v096
        BYTE   W03
        BYTE                   Ds3   v085
        BYTE   W03
// 014   ----------------------------------------
        BYTE           VOL     43
        BYTE           TIE     Dn3   v106
        BYTE   W24
        BYTE           VOL     44
        BYTE   W15
        BYTE                   42
        BYTE   W15
        BYTE                   41
        BYTE   W03
        BYTE                   40
        BYTE   W06
        BYTE                   39
        BYTE   W03
        BYTE                   38
        BYTE   W03
        BYTE                   37
        BYTE   W03
        BYTE                   35
        BYTE   W03
        BYTE                   34
        BYTE   W03
        BYTE                   33
        BYTE   W03
        BYTE                   31
        BYTE   W03
        BYTE                   29
        BYTE   W03
        BYTE                   28
        BYTE   W03
        BYTE                   25
        BYTE   W03
        BYTE                   23
        BYTE   W03
// 015   ----------------------------------------
        BYTE                   21
        BYTE   W03
        BYTE                   19
        BYTE   W03
        BYTE                   17
        BYTE   W03
        BYTE                   14
        BYTE   W03
        BYTE                   11
        BYTE   W03
        BYTE                   9
        BYTE   W03
        BYTE                   6
        BYTE   W03
        BYTE                   1
        BYTE   W02
        BYTE           EOT
        BYTE   W72
        BYTE   W01
// 016   ----------------------------------------
SEQ_BGM_DIVING_6_LOOP:
        BYTE   W09
        BYTE           PAN     c_v-20
        BYTE           VOL     23
        BYTE           N68     Bn2   v103   gtp3
        BYTE   W03
        BYTE           VOL     26
        BYTE   W03
        BYTE                   33
        BYTE   W03
        BYTE                   36
        BYTE   W03
        BYTE           PAN     c_v-16
        BYTE           VOL     39
        BYTE   W12
        BYTE           PAN     c_v-15
        BYTE           VOL     38
        BYTE   W12
        BYTE           PAN     c_v-19
        BYTE   W12
        BYTE                   c_v-23
        BYTE   W12
        BYTE                   c_v-29
        BYTE           VOL     40
        BYTE   W12
        BYTE           PAN     c_v-30
        BYTE           VOL     42
        BYTE           N11     Cn3   v116
        BYTE   W12
        BYTE           PAN     c_v-29
        BYTE           N05     Bn2   v106
        BYTE   W03
// 017   ----------------------------------------
        BYTE   W03
        BYTE                   An2   v092
        BYTE   W06
        BYTE           PAN     c_v-26
        BYTE           VOL     41
        BYTE           N11     Gs2   v107
        BYTE   W12
        BYTE           PAN     c_v-19
        BYTE           VOL     40
        BYTE           N11     An2
        BYTE   W12
        BYTE           PAN     c_v-15
        BYTE           N11     Bn2   v104
        BYTE   W12
        BYTE           N02     Dn3   v083
        BYTE   W03
        BYTE                   Ds3   v071
        BYTE   W03
        BYTE           PAN     c_v-13
        BYTE           N14     En3   v100
        BYTE   W12
        BYTE           VOL     42
        BYTE   W03
        BYTE           N02     Ds3   v080
        BYTE   W03
        BYTE           PAN     c_v-15
        BYTE           VOL     43
        BYTE           N05     Dn3   v107
        BYTE   W06
        BYTE                   En3   v109
        BYTE   W06
        BYTE           PAN     c_v-20
        BYTE           N11     Dn3   v111
        BYTE   W12
        BYTE           PAN     c_v-24
        BYTE           VOL     41
        BYTE           N05     Cs3   v112
        BYTE   W03
// 018   ----------------------------------------
        BYTE   W03
        BYTE                   Dn3   v109
        BYTE   W06
        BYTE           PAN     c_v-20
        BYTE           VOL     39
        BYTE           N80     Cs3   v104   gtp3
        BYTE   W12
        BYTE           PAN     c_v-16
        BYTE           VOL     36
        BYTE   W12
        BYTE           PAN     c_v-15
        BYTE   W12
        BYTE                   c_v-19
        BYTE           VOL     39
        BYTE   W12
        BYTE           PAN     c_v-23
        BYTE           VOL     41
        BYTE   W12
        BYTE           PAN     c_v-29
        BYTE           VOL     44
        BYTE   W12
        BYTE           PAN     c_v-30
        BYTE   W12
        BYTE                   c_v-29
        BYTE           VOL     42
        BYTE           N08     Dn3   v099
        BYTE   W03
// 019   ----------------------------------------
        BYTE   W06
        BYTE           N02     Cs3   v081
        BYTE   W03
        BYTE           PAN     c_v-26
        BYTE           N32     Cn3   v110   gtp3
        BYTE   W12
        BYTE           PAN     c_v-19
        BYTE           VOL     41
        BYTE   W12
        BYTE           PAN     c_v-15
        BYTE           VOL     40
        BYTE   W12
        BYTE           PAN     c_v-13
        BYTE           VOL     41
        BYTE           N05     Dn3   v115
        BYTE   W06
        BYTE           N02     Cs3   v110
        BYTE   W03
        BYTE                   Cn3   v102
        BYTE   W03
        BYTE           VOL     42
        BYTE           N56     Bn2
        BYTE   W12
        BYTE           PAN     c_v-15
        BYTE           VOL     43
        BYTE   W12
        BYTE           PAN     c_v-20
        BYTE   W12
        BYTE                   c_v-22
        BYTE           VOL     42
        BYTE   W03
// 020   ----------------------------------------
        BYTE                   36
        BYTE   W03
        BYTE                   29
        BYTE   W03
        BYTE                   23
        BYTE   W03
        BYTE                   11
        BYTE   W03
        BYTE                   3
        BYTE   W03
        BYTE                   0
        BYTE   W80
        BYTE   W01
// 021   ----------------------------------------
        BYTE   W96
// 022   ----------------------------------------
        BYTE   W09
        BYTE           PAN     c_v-30
        BYTE   W01
        BYTE           VOL     41
        BYTE   W11
        BYTE           PAN     c_v-26
        BYTE           N23     Fn3   v114
        BYTE   W01
        BYTE           VOL     42
        BYTE   W11
        BYTE           PAN     c_v-25
        BYTE   W01
        BYTE           VOL     43
        BYTE   W11
        BYTE           PAN     c_v-29
        BYTE           N08     En3   v107
        BYTE   W09
        BYTE           N02     Ds3   v074
        BYTE   W03
        BYTE           PAN     c_v-33
        BYTE           N11     Dn3   v101
        BYTE   W12
        BYTE           PAN     c_v-39
        BYTE           N05     Cs3   v103
        BYTE   W01
        BYTE           VOL     42
        BYTE   W05
        BYTE           N05     Dn3   v105
        BYTE   W06
        BYTE           PAN     c_v-40
        BYTE           N32     En3   v106   gtp3
        BYTE   W01
        BYTE           VOL     41
        BYTE   W11
        BYTE           PAN     c_v-39
        BYTE   W03
// 023   ----------------------------------------
        BYTE   W09
        BYTE                   c_v-36
        BYTE   W12
        BYTE           N02     Ds3   v083
        BYTE   W03
        BYTE           N08     Dn3   v103
        BYTE   W09
        BYTE           PAN     c_v-25
        BYTE           N11     Cs3   v117
        BYTE   W01
        BYTE           VOL     42
        BYTE   W11
        BYTE           PAN     c_v-23
        BYTE           N05     Bn2   v116
        BYTE   W01
        BYTE           VOL     43
        BYTE   W05
        BYTE           N05     Cs3   v113
        BYTE   W06
        BYTE           N02     Ds3   v081
        BYTE   W03
        BYTE           N08     En3   v110
        BYTE   W09
        BYTE           PAN     c_v-25
        BYTE           N11     Dn3   v108
        BYTE   W12
        BYTE           PAN     c_v-30
        BYTE           N11     Cs3   v102
        BYTE   W12
        BYTE           PAN     c_v-34
        BYTE           N02     Bn2
        BYTE   W01
        BYTE           VOL     41
        BYTE   W02
// 024   ----------------------------------------
        BYTE           N02     Cs3   v101
        BYTE   W03
        BYTE           N05     Bn2   v088
        BYTE   W06
        BYTE           PAN     c_v-30
        BYTE           TIE     As2   v110
        BYTE   W12
        BYTE           PAN     c_v-26
        BYTE   W12
        BYTE                   c_v-25
        BYTE   W12
        BYTE                   c_v-29
        BYTE   W01
        BYTE           VOL     42
        BYTE   W11
        BYTE           PAN     c_v-33
        BYTE   W01
        BYTE           VOL     43
        BYTE   W11
        BYTE           PAN     c_v-39
        BYTE   W12
        BYTE                   c_v-40
        BYTE   W01
        BYTE           VOL     41
        BYTE   W11
        BYTE           PAN     c_v-39
        BYTE   W01
        BYTE           VOL     36
        BYTE   W02
// 025   ----------------------------------------
        BYTE   W03
        BYTE                   35
        BYTE   W06
        BYTE           PAN     c_v-36
        BYTE           VOL     32
        BYTE   W06
        BYTE                   27
        BYTE   W06
        BYTE           PAN     c_v-29
        BYTE           VOL     20
        BYTE   W06
        BYTE                   8
        BYTE   W06
        BYTE           PAN     c_v-25
        BYTE   W02
        BYTE           EOT
        BYTE   W13
        BYTE           PAN     c_v-23
        BYTE   W24
        BYTE                   c_v-25
        BYTE   W12
        BYTE                   c_v-30
        BYTE   W12
// 026   ----------------------------------------
        BYTE                   c_v-2
        BYTE   W96
// 027   ----------------------------------------
        BYTE   W96
// 028   ----------------------------------------
        BYTE   W96
// 029   ----------------------------------------
        BYTE   W96
// 030   ----------------------------------------
        BYTE   W96
// 031   ----------------------------------------
        BYTE   W96
// 032   ----------------------------------------
        BYTE   W96
// 033   ----------------------------------------
        BYTE   W96
// 034   ----------------------------------------
        BYTE   W96
// 035   ----------------------------------------
        BYTE   W96
// 036   ----------------------------------------
        BYTE   W96
// 037   ----------------------------------------
        BYTE   W96
// 038   ----------------------------------------
        BYTE   W96
// 039   ----------------------------------------
        BYTE   W92
        BYTE   W03
        BYTE           VOL     1
        BYTE           PAN     c_v-43
        BYTE   GoTo
         POIN2  SEQ_BGM_DIVING_6_LOOP
        BYTE   FINE

//****************** Track 7 (Midi-Chn.7) ******************//

SEQ_BGM_DIVING_7:
        BYTE   KEYSH   SEQ_BGM_DIVING_key+0
// 000   ----------------------------------------
        BYTE           BENDR   12
        BYTE           VOICE   75
        BYTE           PAN     c_v+50
        BYTE           VOL     50
        BYTE   W96
// 001   ----------------------------------------
        BYTE   W96
// 002   ----------------------------------------
        BYTE   W96
// 003   ----------------------------------------
        BYTE   W96
// 004   ----------------------------------------
        BYTE   W96
// 005   ----------------------------------------
        BYTE   W96
// 006   ----------------------------------------
        BYTE   W96
// 007   ----------------------------------------
        BYTE   W96
// 008   ----------------------------------------
        BYTE   W96
// 009   ----------------------------------------
        BYTE   W96
// 010   ----------------------------------------
        BYTE   W96
// 011   ----------------------------------------
        BYTE   W96
// 012   ----------------------------------------
        BYTE   W96
// 013   ----------------------------------------
        BYTE   W96
// 014   ----------------------------------------
        BYTE   W96
// 015   ----------------------------------------
        BYTE   W96
// 016   ----------------------------------------
SEQ_BGM_DIVING_7_LOOP:
        BYTE   W06
        BYTE           VOL     31
        BYTE   W90
// 017   ----------------------------------------
        BYTE   W96
// 018   ----------------------------------------
        BYTE   W96
// 019   ----------------------------------------
        BYTE   W72
        BYTE           PAN     c_v+30
        BYTE   W04
        BYTE           N12     En2   v104
        BYTE   W09
        BYTE           PAN     c_v+36
        BYTE   W03
        BYTE           N12     En3   v114
        BYTE   W08
// 020   ----------------------------------------
        BYTE   W01
        BYTE           PAN     c_v+41
        BYTE   W03
        BYTE           N03     Bn2   v107
        BYTE   W03
        BYTE                   Cn3   v101
        BYTE   W03
        BYTE           N06     Bn2   v114
        BYTE   W03
        BYTE           PAN     c_v+32
        BYTE   W03
        BYTE           N36     Dn3
        BYTE   W09
        BYTE           PAN     c_v+30
        BYTE   W12
        BYTE                   c_v+33
        BYTE   W12
        BYTE                   c_v+35
        BYTE   W03
        BYTE           N18     Cs3
        BYTE   W09
        BYTE           PAN     c_v+30
        BYTE   W09
        BYTE           N03     Cn3   v106
        BYTE   W03
        BYTE           PAN     c_v+35
        BYTE           N03     Cs3   v099
        BYTE   W03
        BYTE           N24     Cn3   v110
        BYTE   W09
        BYTE           PAN     c_v+38
        BYTE   W11
// 021   ----------------------------------------
        BYTE   W01
        BYTE                   c_v+40
        BYTE   W03
        BYTE           N42     Dn3   v114
        BYTE   W09
        BYTE           PAN     c_v+35
        BYTE   W12
        BYTE                   c_v+33
        BYTE   W12
        BYTE                   c_v+38
        BYTE   W09
        BYTE           N03     Cs3   v108
        BYTE   W03
        BYTE           PAN     c_v+34
        BYTE           N03     Cn3   v100
        BYTE   W03
        BYTE           N15     Bn2   v111
        BYTE   W09
        BYTE           PAN     c_v+30
        BYTE   W06
        BYTE           N03     Cn3   v108
        BYTE   W03
        BYTE                   Bn2   v103
        BYTE   W03
        BYTE           PAN     c_v+36
        BYTE           N03     An2   v093
        BYTE   W03
        BYTE           N42     Gs2   v108
        BYTE   W09
        BYTE           PAN     c_v+34
        BYTE   W11
// 022   ----------------------------------------
        BYTE   W01
        BYTE                   c_v+38
        BYTE   W12
        BYTE                   c_v+33
        BYTE   W11
        BYTE                   c_v+32
        BYTE   W12
        BYTE                   c_v+30
        BYTE   W12
        BYTE                   c_v+33
        BYTE   W12
        BYTE                   c_v+15
        BYTE   W36
// 023   ----------------------------------------
        BYTE   W96
// 024   ----------------------------------------
        BYTE   W96
// 025   ----------------------------------------
        BYTE   W96
// 026   ----------------------------------------
        BYTE   W96
// 027   ----------------------------------------
        BYTE   W48
        BYTE   W01
        BYTE                   c_v+20
        BYTE           N30     An4   v105
        BYTE   W12
        BYTE           PAN     c_v+26
        BYTE   W12
        BYTE                   c_v+31
        BYTE   W06
        BYTE           N03     Gn4   v070
        BYTE   W03
        BYTE                   An4   v065
        BYTE   W03
        BYTE           PAN     c_v+22
        BYTE           N24     As4   v094
        BYTE   W11
// 028   ----------------------------------------
        BYTE   W01
        BYTE           PAN     c_v+20
        BYTE   W12
        BYTE                   c_v+23
        BYTE           N03     Cn5   v088
        BYTE   W03
        BYTE                   As4   v087
        BYTE   W03
        BYTE                   Gn4   v078
        BYTE   W03
        BYTE           N32     An4   v100   gtp1
        BYTE   W03
        BYTE           PAN     c_v+25
        BYTE   W12
        BYTE                   c_v+20
        BYTE   W12
        BYTE                   c_v+25
        BYTE   W12
        BYTE                   c_v+28
        BYTE   W12
        BYTE                   c_v+30
        BYTE   W12
        BYTE                   c_v+25
        BYTE   W11
// 029   ----------------------------------------
        BYTE   W01
        BYTE                   c_v+23
        BYTE   W09
        BYTE           N03     Cn4   v106
        BYTE   W03
        BYTE           PAN     c_v+28
        BYTE           N03     As3   v095
        BYTE   W03
        BYTE                   An3   v082
        BYTE   W03
        BYTE           N36     Gn3   v086   gtp3
        BYTE   W06
        BYTE           PAN     c_v+24
        BYTE   W12
        BYTE                   c_v+20
        BYTE   W12
        BYTE                   c_v+26
        BYTE   W09
        BYTE           N21     Fs3   v110
        BYTE   W03
        BYTE           PAN     c_v+24
        BYTE   W12
        BYTE                   c_v+28
        BYTE   W06
        BYTE           N03     Gn3   v100
        BYTE   W03
        BYTE           N21     An3   v092
        BYTE   W03
        BYTE           PAN     c_v+23
        BYTE   W11
// 030   ----------------------------------------
        BYTE   W01
        BYTE                   c_v+27
        BYTE   W06
        BYTE           N03     Gn3   v079
        BYTE   W03
        BYTE           N54     An3   v071
        BYTE   W03
        BYTE           PAN     c_v+20
        BYTE   W12
        BYTE                   c_v+26
        BYTE   W12
        BYTE                   c_v+31
        BYTE   W12
        BYTE                   c_v+22
        BYTE   W12
        BYTE                   c_v+20
        BYTE   W12
        BYTE                   c_v+23
        BYTE   W12
        BYTE                   c_v+25
        BYTE   W11
// 031   ----------------------------------------
        BYTE   W01
        BYTE                   c_v+20
        BYTE   W12
        BYTE                   c_v+25
        BYTE   W12
        BYTE                   c_v+28
        BYTE   W12
        BYTE                   c_v+30
        BYTE   W06
        BYTE           N03     Ds4   v106
        BYTE   W03
        BYTE                   Dn4   v095
        BYTE   W03
        BYTE           PAN     c_v+25
        BYTE           N03     Cn4   v082
        BYTE   W03
        BYTE           N32     As3   v086   gtp1
        BYTE   W09
        BYTE           PAN     c_v+23
        BYTE   W12
        BYTE                   c_v+28
        BYTE   W12
        BYTE                   c_v+24
        BYTE           N03     Gn3   v084
        BYTE   W03
        BYTE                   An3   v072
        BYTE   W03
        BYTE                   As3   v079
        BYTE   W03
        BYTE           N15     An3   v094
        BYTE   W02
// 032   ----------------------------------------
        BYTE   W01
        BYTE           PAN     c_v+20
        BYTE   W12
        BYTE                   c_v+26
        BYTE           N03     Gn3   v079
        BYTE   W03
        BYTE           N30     An3   v071
        BYTE   W09
        BYTE           PAN     c_v+24
        BYTE   W12
        BYTE                   c_v+28
        BYTE   W11
        BYTE                   c_v+23
        BYTE   W12
        BYTE                   c_v+27
        BYTE   W12
        BYTE                   c_v+28
        BYTE   W01
        BYTE           VOL     50
        BYTE   W05
        BYTE           PAN     c_v+40
        BYTE   W12
        BYTE                   c_v+8
        BYTE           N05     Dn1   v084
        BYTE   W06
// 033   ----------------------------------------
        BYTE                   Ds1   v071
        BYTE   W06
        BYTE           PAN     c_v-3
        BYTE           N17     En1   v098
        BYTE   W18
        BYTE                   An1   v103
        BYTE   W06
        BYTE           PAN     c_v+8
        BYTE   W12
        BYTE                   c_v+25
        BYTE           N05     Cs2   v100
        BYTE   W06
        BYTE                   Dn2   v076
        BYTE   W06
        BYTE           PAN     c_v+44
        BYTE           N05     En2   v093
        BYTE   W06
        BYTE                   Fn2   v071
        BYTE   W06
        BYTE           PAN     c_v+30
        BYTE           N23     En2   v096
        BYTE   W12
        BYTE           PAN     c_v+22
        BYTE   W12
        BYTE                   c_v-3
        BYTE           N05     Bn1   v087
        BYTE   W06
// 034   ----------------------------------------
        BYTE                   Cn2   v075
        BYTE   W06
        BYTE           PAN     c_v-11
        BYTE           N32     Dn2   v110   gtp3
        BYTE   W24
        BYTE           PAN     c_v+0
        BYTE   W12
        BYTE                   c_v+5
        BYTE           N05     Cn2   v094
        BYTE   W06
        BYTE                   Dn2   v089
        BYTE   W06
        BYTE           PAN     c_v+17
        BYTE           N23     Cn2   v101
        BYTE   W12
        BYTE           PAN     c_v+22
        BYTE   W12
        BYTE                   c_v+12
        BYTE           N23     Bn1   v093
        BYTE   W12
        BYTE           PAN     c_v-14
        BYTE   W06
// 035   ----------------------------------------
        BYTE   W06
        BYTE                   c_v-3
        BYTE   W90
// 036   ----------------------------------------
        BYTE   W84
        BYTE   W03
        BYTE                   c_v+30
        BYTE   W03
        BYTE           N05     Gn1   v098
        BYTE   W06
// 037   ----------------------------------------
        BYTE                   Gs1   v078
        BYTE   W03
        BYTE           PAN     c_v+8
        BYTE   W03
        BYTE           N17     An1   v096
        BYTE   W09
        BYTE           PAN     c_v-3
        BYTE   W09
        BYTE           N17     En2   v089
        BYTE   W15
        BYTE           PAN     c_v+8
        BYTE   W03
        BYTE           N05     Fn2   v101
        BYTE   W06
        BYTE                   Gn2   v078
        BYTE   W03
        BYTE           PAN     c_v+25
        BYTE   W03
        BYTE           N05     An2   v089
        BYTE   W06
        BYTE                   As2   v085
        BYTE   W03
        BYTE           PAN     c_v+44
        BYTE   W03
        BYTE           N23     An2   v098
        BYTE   W09
        BYTE           PAN     c_v+30
        BYTE   W12
        BYTE                   c_v+22
        BYTE   W03
        BYTE           N05     En2   v080
        BYTE   W06
// 038   ----------------------------------------
        BYTE                   Fn2   v094
        BYTE   W03
        BYTE           PAN     c_v-3
        BYTE   W03
        BYTE           N32     Gn2   v110   gtp3
        BYTE   W09
        BYTE           PAN     c_v-11
        BYTE   W24
        BYTE                   c_v+0
        BYTE   W03
        BYTE           N05     Fn2   v091
        BYTE   W06
        BYTE                   Gn2   v080
        BYTE   W03
        BYTE           PAN     c_v+5
        BYTE   W03
        BYTE           N23     Fn2   v110
        BYTE   W09
        BYTE           PAN     c_v+17
        BYTE   W12
        BYTE                   c_v+22
        BYTE   W03
        BYTE           N23     En2   v100
        BYTE   W09
        BYTE           PAN     c_v+12
        BYTE   W09
// 039   ----------------------------------------
        BYTE   W03
        BYTE                   c_v-14
        BYTE   W12
        BYTE                   c_v-3
        BYTE   W80
        BYTE                   c_v+50
        BYTE   GoTo
         POIN2  SEQ_BGM_DIVING_7_LOOP
        BYTE   FINE

//****************** Track 8 (Midi-Chn.8) ******************//

SEQ_BGM_DIVING_8:
        BYTE   KEYSH   SEQ_BGM_DIVING_key+0
// 000   ----------------------------------------
        BYTE           BENDR   12
        BYTE           VOICE   56
        BYTE           PAN     c_v-50
        BYTE           VOL     25
        BYTE   W96
// 001   ----------------------------------------
        BYTE   W96
// 002   ----------------------------------------
        BYTE   W96
// 003   ----------------------------------------
        BYTE           N17     En5   v127
        BYTE   W18
        BYTE           PAN     c_v-43
        BYTE           N17     En5   v110
        BYTE   W18
        BYTE           PAN     c_v-33
        BYTE           N28     En5   v070   gtp1
        BYTE   W60
// 004   ----------------------------------------
SEQ_BGM_DIVING_8_4:
        BYTE           PAN     c_v-50
        BYTE           N17     En3   v127
        BYTE   W18
        BYTE           PAN     c_v-43
        BYTE           N17     En3   v110
        BYTE   W18
        BYTE           PAN     c_v-33
        BYTE           N28     En3   v070   gtp1
        BYTE   W60
        BYTE   PEND
// 005   ----------------------------------------
SEQ_BGM_DIVING_8_5:
        BYTE           PAN     c_v-50
        BYTE           N17     En5   v127
        BYTE   W18
        BYTE           PAN     c_v-43
        BYTE           N17     En5   v110
        BYTE   W18
        BYTE           PAN     c_v-33
        BYTE           N28     En5   v070   gtp1
        BYTE   W60
        BYTE   PEND
// 006   ----------------------------------------
        BYTE   PATT
         POIN2  SEQ_BGM_DIVING_8_4
// 007   ----------------------------------------
        BYTE   PATT
         POIN2  SEQ_BGM_DIVING_8_5
// 008   ----------------------------------------
        BYTE           PAN     c_v-50
        BYTE   W06
        BYTE           N11     En3   v127
        BYTE   W12
        BYTE           PAN     c_v-43
        BYTE           N17     En3   v110
        BYTE   W18
        BYTE           PAN     c_v-33
        BYTE           N28     En3   v070   gtp1
        BYTE   W60
// 009   ----------------------------------------
        BYTE   PATT
         POIN2  SEQ_BGM_DIVING_8_5
// 010   ----------------------------------------
        BYTE   PATT
         POIN2  SEQ_BGM_DIVING_8_4
// 011   ----------------------------------------
        BYTE   PATT
         POIN2  SEQ_BGM_DIVING_8_5
// 012   ----------------------------------------
SEQ_BGM_DIVING_8_12:
        BYTE           PAN     c_v-50
        BYTE           N17     En2   v127
        BYTE   W18
        BYTE           PAN     c_v-43
        BYTE           N17     En2   v110
        BYTE   W18
        BYTE           PAN     c_v-33
        BYTE           N28     En2   v070   gtp1
        BYTE   W60
        BYTE   PEND
// 013   ----------------------------------------
        BYTE   PATT
         POIN2  SEQ_BGM_DIVING_8_12
// 014   ----------------------------------------
SEQ_BGM_DIVING_8_14:
        BYTE           PAN     c_v-50
        BYTE   W06
        BYTE           N11     En1   v127
        BYTE   W12
        BYTE           PAN     c_v-43
        BYTE           N17     En1   v110
        BYTE   W18
        BYTE           PAN     c_v-33
        BYTE           N28     En1   v070   gtp1
        BYTE   W60
        BYTE   PEND
// 015   ----------------------------------------
        BYTE   PATT
         POIN2  SEQ_BGM_DIVING_8_14
// 016   ----------------------------------------
SEQ_BGM_DIVING_8_LOOP:
        BYTE           VOL     31
        BYTE   W36
        BYTE           PAN     c_v+50
        BYTE           N44     En2   v127   gtp3
        BYTE   W48
        BYTE           PAN     c_v-30
        BYTE           N44     Bn4   v127   gtp3
        BYTE   W12
// 017   ----------------------------------------
SEQ_BGM_DIVING_8_17:
        BYTE   W36
        BYTE           PAN     c_v+50
        BYTE           N44     En2   v127   gtp3
        BYTE   W48
        BYTE           PAN     c_v-30
        BYTE           N44     Bn4   v127   gtp3
        BYTE   W12
        BYTE   PEND
// 018   ----------------------------------------
        BYTE   PATT
         POIN2  SEQ_BGM_DIVING_8_17
// 019   ----------------------------------------
        BYTE   PATT
         POIN2  SEQ_BGM_DIVING_8_17
// 020   ----------------------------------------
        BYTE   PATT
         POIN2  SEQ_BGM_DIVING_8_17
// 021   ----------------------------------------
        BYTE   PATT
         POIN2  SEQ_BGM_DIVING_8_17
// 022   ----------------------------------------
        BYTE   PATT
         POIN2  SEQ_BGM_DIVING_8_17
// 023   ----------------------------------------
        BYTE   W36
        BYTE           PAN     c_v+50
        BYTE           N44     En2   v127   gtp3
        BYTE   W48
        BYTE           PAN     c_v-50
        BYTE           N44     Bn4   v127   gtp3
        BYTE   W12
// 024   ----------------------------------------
        BYTE   W96
// 025   ----------------------------------------
        BYTE           VOL     66
        BYTE           N44     Cn1   v127   gtp3
        BYTE   W96
// 026   ----------------------------------------
        BYTE   W96
// 027   ----------------------------------------
        BYTE                   Cn1
        BYTE   W96
// 028   ----------------------------------------
        BYTE   W96
// 029   ----------------------------------------
        BYTE                   Cn1
        BYTE   W96
// 030   ----------------------------------------
        BYTE   W96
// 031   ----------------------------------------
SEQ_BGM_DIVING_8_31:
        BYTE   W48
        BYTE           N44     Cn1   v127   gtp3
        BYTE   W48
        BYTE   PEND
// 032   ----------------------------------------
        BYTE   W96
// 033   ----------------------------------------
        BYTE   PATT
         POIN2  SEQ_BGM_DIVING_8_31
// 034   ----------------------------------------
        BYTE   W96
// 035   ----------------------------------------
        BYTE   PATT
         POIN2  SEQ_BGM_DIVING_8_31
// 036   ----------------------------------------
        BYTE   W18
        BYTE           VOL     31
        BYTE           PAN     c_v+60
        BYTE   W12
        BYTE           N44     En2   v127   gtp3
        BYTE   W66
// 037   ----------------------------------------
SEQ_BGM_DIVING_8_37:
        BYTE   W30
        BYTE           N44     En2   v127   gtp3
        BYTE   W66
        BYTE   PEND
// 038   ----------------------------------------
        BYTE   PATT
         POIN2  SEQ_BGM_DIVING_8_37
// 039   ----------------------------------------
        BYTE   W30
        BYTE           N44     En2   v127   gtp3
        BYTE   W64
        BYTE   W01
        BYTE           PAN     c_v-33
        BYTE   GoTo
         POIN2  SEQ_BGM_DIVING_8_LOOP
        BYTE   FINE

//***************** Track 9 (Midi-Chn.10) ******************//

SEQ_BGM_DIVING_9:
        BYTE   KEYSH   SEQ_BGM_DIVING_key+0
// 000   ----------------------------------------
        BYTE           BENDR   12
        BYTE           VOICE   80
        BYTE           VOL     63
        BYTE   W96
// 001   ----------------------------------------
        BYTE   W96
// 002   ----------------------------------------
        BYTE   W96
// 003   ----------------------------------------
        BYTE   W96
// 004   ----------------------------------------
        BYTE   W96
// 005   ----------------------------------------
        BYTE   W72
        BYTE           N05     Fn3   v090
        BYTE   W06
        BYTE           N11     Cn4   v110
        BYTE   W06
        BYTE           PAN     c_v-30
        BYTE   W06
        BYTE           N05     Fn3   v060
        BYTE   W06
// 006   ----------------------------------------
SEQ_BGM_DIVING_9_6:
        BYTE           PAN     c_v+0
        BYTE           N11     Cn4   v080
        BYTE   W12
        BYTE           PAN     c_v-30
        BYTE           N05     Fn3   v050
        BYTE   W06
        BYTE           N11     Cn4   v070
        BYTE   W06
        BYTE           PAN     c_v+0
        BYTE   W06
        BYTE           N05     Fn3   v030
        BYTE   W06
        BYTE           N11     Cn4   v050
        BYTE   W36
        BYTE           N05     Fn3   v090
        BYTE   W06
        BYTE           N11     Cn4   v110
        BYTE   W12
        BYTE           PAN     c_v-30
        BYTE           N05     Fn3   v060
        BYTE   W06
        BYTE   PEND
// 007   ----------------------------------------
SEQ_BGM_DIVING_9_7:
        BYTE           N11     Cn4   v080
        BYTE   W06
        BYTE           PAN     c_v+0
        BYTE   W06
        BYTE           N05     Fn3   v050
        BYTE   W06
        BYTE           PAN     c_v-30
        BYTE           N11     Cn4   v070
        BYTE   W12
        BYTE           PAN     c_v+0
        BYTE           N05     Fn3   v030
        BYTE   W06
        BYTE           N11     Cn4   v050
        BYTE   W36
        BYTE           N05     Fn3   v090
        BYTE   W06
        BYTE           N11     Cn4   v110
        BYTE   W12
        BYTE           PAN     c_v-30
        BYTE           N05     Fn3   v060
        BYTE   W06
        BYTE   PEND
// 008   ----------------------------------------
        BYTE           N11     Cn4   v080
        BYTE   W06
        BYTE           PAN     c_v+0
        BYTE   W06
        BYTE           N05     Fn3   v050
        BYTE   W06
        BYTE           PAN     c_v-30
        BYTE           N11     Cn4   v070
        BYTE   W12
        BYTE           PAN     c_v+0
        BYTE           N05     Fn3   v030
        BYTE   W06
        BYTE           N11     Cn4   v050
        BYTE   W36
        BYTE           N05     Fn3   v090
        BYTE   W06
        BYTE           N11     Cn4   v110
        BYTE   W06
        BYTE           PAN     c_v-30
        BYTE   W06
        BYTE           N05     Fn3   v060
        BYTE   W06
// 009   ----------------------------------------
        BYTE   PATT
         POIN2  SEQ_BGM_DIVING_9_6
// 010   ----------------------------------------
        BYTE   PATT
         POIN2  SEQ_BGM_DIVING_9_7
// 011   ----------------------------------------
        BYTE   PATT
         POIN2  SEQ_BGM_DIVING_9_7
// 012   ----------------------------------------
        BYTE   PATT
         POIN2  SEQ_BGM_DIVING_9_7
// 013   ----------------------------------------
        BYTE   PATT
         POIN2  SEQ_BGM_DIVING_9_7
// 014   ----------------------------------------
        BYTE   PATT
         POIN2  SEQ_BGM_DIVING_9_7
// 015   ----------------------------------------
        BYTE           N11     Cn4   v080
        BYTE   W06
        BYTE           PAN     c_v+0
        BYTE   W06
        BYTE           N05     Fn3   v050
        BYTE   W06
        BYTE           PAN     c_v-30
        BYTE           N11     Cn4   v070
        BYTE   W12
        BYTE           PAN     c_v+0
        BYTE           N05     Fn3   v030
        BYTE   W06
        BYTE           N11     Cn4   v050
        BYTE           N60     Dn0   v080
        BYTE   W30
        BYTE           N02     En3   v110
        BYTE   W03
        BYTE                   En3   v080
        BYTE   W03
        BYTE           N05     Ds3   v110
        BYTE   W06
        BYTE                   En3
        BYTE   W06
        BYTE                   En3
        BYTE   W06
        BYTE                   Cn4
        BYTE   W06
// 016   ----------------------------------------
SEQ_BGM_DIVING_9_LOOP:
        BYTE           N05     En3   v090
        BYTE           N23     Cs5   v080
        BYTE   W06
        BYTE           N05     Cs3
        BYTE   W06
        BYTE           N02     Dn3   v090
        BYTE   W03
        BYTE                   Dn3   v060
        BYTE   W03
        BYTE           N05     Cs3   v080
        BYTE   W06
        BYTE                   En3   v090
        BYTE   W12
        BYTE                   Cs3   v080
        BYTE   W06
        BYTE           N02     Dn3   v090
        BYTE   W03
        BYTE                   Dn3   v060
        BYTE   W03
        BYTE           N05     En3   v090
        BYTE   W06
        BYTE                   Cs3   v080
        BYTE   W06
        BYTE           N02     Dn3   v090
        BYTE   W03
        BYTE                   Dn3   v060
        BYTE   W03
        BYTE           N05     Cs3   v080
        BYTE   W06
        BYTE                   En3   v090
        BYTE   W12
        BYTE                   Cs3   v080
        BYTE   W06
        BYTE           N02     Dn3   v090
        BYTE   W03
        BYTE                   Dn3   v060
        BYTE   W03
// 017   ----------------------------------------
SEQ_BGM_DIVING_9_17:
        BYTE           N05     En3   v090
        BYTE           N23     Cs5   v080
        BYTE   W06
        BYTE           N05     Cs3
        BYTE   W06
        BYTE           N02     Dn3   v090
        BYTE   W03
        BYTE                   Dn3   v060
        BYTE   W03
        BYTE           N05     Cs3   v080
        BYTE   W06
        BYTE                   En3   v090
        BYTE   W12
        BYTE                   Cs3   v080
        BYTE   W06
        BYTE           N02     Dn3   v090
        BYTE   W03
        BYTE                   Dn3   v060
        BYTE   W03
        BYTE           N05     En3   v090
        BYTE   W06
        BYTE                   Cs3   v080
        BYTE   W06
        BYTE           N02     Dn3   v090
        BYTE   W03
        BYTE                   Dn3   v060
        BYTE   W03
        BYTE           N05     Cs3   v080
        BYTE   W06
        BYTE                   En3   v090
        BYTE   W12
        BYTE                   Cs3   v080
        BYTE   W06
        BYTE           N02     Dn3   v090
        BYTE   W03
        BYTE                   Dn3   v060
        BYTE   W03
        BYTE   PEND
// 018   ----------------------------------------
        BYTE   PATT
         POIN2  SEQ_BGM_DIVING_9_17
// 019   ----------------------------------------
        BYTE   PATT
         POIN2  SEQ_BGM_DIVING_9_17
// 020   ----------------------------------------
        BYTE   PATT
         POIN2  SEQ_BGM_DIVING_9_17
// 021   ----------------------------------------
        BYTE   PATT
         POIN2  SEQ_BGM_DIVING_9_17
// 022   ----------------------------------------
        BYTE   PATT
         POIN2  SEQ_BGM_DIVING_9_17
// 023   ----------------------------------------
        BYTE   PATT
         POIN2  SEQ_BGM_DIVING_9_17
// 024   ----------------------------------------
        BYTE   W96
// 025   ----------------------------------------
        BYTE   W96
// 026   ----------------------------------------
        BYTE   W96
// 027   ----------------------------------------
        BYTE   W96
// 028   ----------------------------------------
        BYTE   W96
// 029   ----------------------------------------
        BYTE   W96
// 030   ----------------------------------------
        BYTE   W96
// 031   ----------------------------------------
        BYTE           VOL     12
        BYTE           N05     En3   v090
        BYTE   W03
        BYTE           VOL     13
        BYTE   W03
        BYTE                   16
        BYTE           N05     Cs3   v080
        BYTE   W06
        BYTE           VOL     18
        BYTE           N02     Dn3   v090
        BYTE   W03
        BYTE                   Dn3   v060
        BYTE   W03
        BYTE           VOL     21
        BYTE           N05     Cs3   v080
        BYTE   W06
        BYTE           VOL     27
        BYTE           N05     En3   v090
        BYTE   W06
        BYTE           VOL     30
        BYTE   W06
        BYTE                   34
        BYTE           N05     Cs3   v080
        BYTE   W06
        BYTE           VOL     39
        BYTE           N02     Dn3   v090
        BYTE   W03
        BYTE                   Dn3   v060
        BYTE   W03
        BYTE           VOL     45
        BYTE           N05     En3   v090
        BYTE   W06
        BYTE           VOL     50
        BYTE           N05     Cs3   v080
        BYTE   W06
        BYTE           VOL     53
        BYTE           N02     Dn3   v090
        BYTE   W03
        BYTE                   Dn3   v060
        BYTE   W03
        BYTE           VOL     58
        BYTE           N05     Cs3   v080
        BYTE   W06
        BYTE           VOL     63
        BYTE           N05     En3   v090
        BYTE   W12
        BYTE                   Cs3   v080
        BYTE   W06
        BYTE           N02     Dn3   v090
        BYTE   W03
        BYTE                   Dn3   v060
        BYTE   W03
// 032   ----------------------------------------
SEQ_BGM_DIVING_9_32:
        BYTE           N05     En3   v090
        BYTE   W06
        BYTE                   Cs3   v080
        BYTE   W06
        BYTE           N02     Dn3   v090
        BYTE   W03
        BYTE                   Dn3   v060
        BYTE   W03
        BYTE           N05     Cs3   v080
        BYTE   W06
        BYTE                   En3   v090
        BYTE   W12
        BYTE                   Cs3   v080
        BYTE   W06
        BYTE           N02     Dn3   v090
        BYTE   W03
        BYTE                   Dn3   v060
        BYTE   W03
        BYTE           N05     En3   v090
        BYTE   W06
        BYTE                   Cs3   v080
        BYTE   W06
        BYTE           N02     Dn3   v090
        BYTE   W03
        BYTE                   Dn3   v060
        BYTE   W03
        BYTE           N05     Cs3   v080
        BYTE   W06
        BYTE                   En3   v090
        BYTE   W12
        BYTE                   Cs3   v080
        BYTE   W06
        BYTE           N02     Dn3   v090
        BYTE   W03
        BYTE                   Dn3   v060
        BYTE   W03
        BYTE   PEND
// 033   ----------------------------------------
        BYTE   PATT
         POIN2  SEQ_BGM_DIVING_9_32
// 034   ----------------------------------------
        BYTE   PATT
         POIN2  SEQ_BGM_DIVING_9_32
// 035   ----------------------------------------
        BYTE   PATT
         POIN2  SEQ_BGM_DIVING_9_32
// 036   ----------------------------------------
        BYTE   PATT
         POIN2  SEQ_BGM_DIVING_9_17
// 037   ----------------------------------------
        BYTE   PATT
         POIN2  SEQ_BGM_DIVING_9_17
// 038   ----------------------------------------
        BYTE   PATT
         POIN2  SEQ_BGM_DIVING_9_17
// 039   ----------------------------------------
        BYTE           N05     En3   v090
        BYTE           N23     Cs5   v080
        BYTE   W06
        BYTE           N05     Cs3
        BYTE   W06
        BYTE           N02     Dn3   v090
        BYTE   W03
        BYTE                   Dn3   v060
        BYTE   W03
        BYTE           N05     Cs3   v080
        BYTE   W06
        BYTE                   En3   v090
        BYTE   W12
        BYTE                   Cs3   v080
        BYTE   W06
        BYTE           N02     Dn3   v090
        BYTE   W03
        BYTE                   Dn3   v060
        BYTE   W03
        BYTE           N05     En3   v090
        BYTE   W06
        BYTE                   Cs3   v080
        BYTE   W06
        BYTE           N02     Dn3   v090
        BYTE   W03
        BYTE                   Dn3   v060
        BYTE   W03
        BYTE           N05     Cs3   v080
        BYTE   W06
        BYTE                   En3   v090
        BYTE   W12
        BYTE                   Cs3   v080
        BYTE   W06
        BYTE           N02     Dn3   v090
        BYTE   W03
        BYTE                   Dn3   v060
        BYTE   W02
        BYTE   GoTo
         POIN2  SEQ_BGM_DIVING_9_LOOP
        BYTE   FINE


//********************** End of Song ***********************//

        ALIGN 4
SEQ_BGM_DIVING:
        BYTE   10                      // Num Tracks
        BYTE   0                       // Unknown
        BYTE   SEQ_BGM_DIVING_pri      // Priority
        BYTE   SEQ_BGM_DIVING_rev      // Reverb

        POIN2   SEQ_BGM_DIVING_grp     

        POIN2   SEQ_BGM_DIVING_0
        POIN2   SEQ_BGM_DIVING_1
        POIN2   SEQ_BGM_DIVING_2
        POIN2   SEQ_BGM_DIVING_3
        POIN2   SEQ_BGM_DIVING_4
        POIN2   SEQ_BGM_DIVING_5
        POIN2   SEQ_BGM_DIVING_6
        POIN2   SEQ_BGM_DIVING_7
        POIN2   SEQ_BGM_DIVING_8
        POIN2   SEQ_BGM_DIVING_9

        
