//Event file generated from Sappy .s format.
        #include "MPlayDef.event"

        #define    song023_grp  soundbank_028
        #define    song023_pri  0
        #define    song023_rev  0
        #define    song023_key  0

        // .rodata
        // song023
        ALIGN 4

//****************** Track 0 (Midi-Chn.0) ******************//

song023_0:
        BYTE   KEYSH   song023_key+0
// 000   ----------------------------------------
        BYTE   TEMPO   146/2
song023_0_LOOP:
        BYTE           VOICE   51
        BYTE           VOL     66
        BYTE           BENDR   30
        BYTE   W96
// 001   ----------------------------------------
        BYTE   W96
// 002   ----------------------------------------
        BYTE   W96
// 003   ----------------------------------------
        BYTE   W96
// 004   ----------------------------------------
        BYTE   W96
// 005   ----------------------------------------
        BYTE   W96
// 006   ----------------------------------------
        BYTE   W96
// 007   ----------------------------------------
        BYTE   W96
// 008   ----------------------------------------
song023_0_8:
        BYTE           N24     Cn1   v123
        BYTE   W36
        BYTE                   Cn1
        BYTE   W60
        BYTE   PEND
// 009   ----------------------------------------
song023_0_9:
        BYTE           N24     Cn1   v123
        BYTE   W36
        BYTE                   Cn1
        BYTE   W36
        BYTE                   Ds1
        BYTE   W24
        BYTE   PEND
// 010   ----------------------------------------
        BYTE   PATT
         POIN2  song023_0_8
// 011   ----------------------------------------
        BYTE   PATT
         POIN2  song023_0_9
// 012   ----------------------------------------
        BYTE   PATT
         POIN2  song023_0_8
// 013   ----------------------------------------
        BYTE   PATT
         POIN2  song023_0_9
// 014   ----------------------------------------
        BYTE   PATT
         POIN2  song023_0_8
// 015   ----------------------------------------
        BYTE   PATT
         POIN2  song023_0_9
// 016   ----------------------------------------
song023_0_16:
        BYTE           N24     Cs1   v123
        BYTE   W36
        BYTE                   Cs1
        BYTE   W60
        BYTE   PEND
// 017   ----------------------------------------
song023_0_17:
        BYTE           N24     Cs1   v123
        BYTE   W36
        BYTE                   Cs1
        BYTE   W36
        BYTE                   En1
        BYTE   W24
        BYTE   PEND
// 018   ----------------------------------------
        BYTE   PATT
         POIN2  song023_0_16
// 019   ----------------------------------------
        BYTE   PATT
         POIN2  song023_0_17
// 020   ----------------------------------------
        BYTE   PATT
         POIN2  song023_0_16
// 021   ----------------------------------------
        BYTE   PATT
         POIN2  song023_0_17
// 022   ----------------------------------------
        BYTE   PATT
         POIN2  song023_0_16
// 023   ----------------------------------------
        BYTE   PATT
         POIN2  song023_0_17
// 024   ----------------------------------------
song023_0_24:
        BYTE           N24     Dn1   v123
        BYTE   W36
        BYTE                   Fn1
        BYTE   W36
        BYTE                   Dn1
        BYTE   W24
        BYTE   PEND
// 025   ----------------------------------------
song023_0_25:
        BYTE   W12
        BYTE           N24     Fn1   v123
        BYTE   W36
        BYTE                   Dn1
        BYTE   W24
        BYTE                   Fn1
        BYTE   W24
        BYTE   PEND
// 026   ----------------------------------------
        BYTE   PATT
         POIN2  song023_0_24
// 027   ----------------------------------------
        BYTE   PATT
         POIN2  song023_0_25
// 028   ----------------------------------------
song023_0_28:
        BYTE           N24     Ds1   v123
        BYTE   W36
        BYTE                   Fs1
        BYTE   W36
        BYTE                   Ds1
        BYTE   W24
        BYTE   PEND
// 029   ----------------------------------------
song023_0_29:
        BYTE   W12
        BYTE           N24     Fs1   v123
        BYTE   W36
        BYTE                   Ds1
        BYTE   W24
        BYTE                   Fs1
        BYTE   W24
        BYTE   PEND
// 030   ----------------------------------------
        BYTE   PATT
         POIN2  song023_0_28
// 031   ----------------------------------------
        BYTE   PATT
         POIN2  song023_0_29
// 032   ----------------------------------------
        BYTE   GoTo
         POIN2  song023_0_LOOP
        BYTE   FINE

//****************** Track 1 (Midi-Chn.1) ******************//

song023_1:
        BYTE   KEYSH   song023_key+0
// 000   ----------------------------------------
song023_1_LOOP:
        BYTE           VOICE   127
        BYTE           VOL     51
        BYTE           BENDR   30
        BYTE           N05     Fs1   v105
        BYTE   W06
        BYTE                   Fs1
        BYTE   W06
        BYTE                   Fs1   v074
        BYTE   W06
        BYTE                   Fs1
        BYTE   W06
        BYTE                   Fs1   v105
        BYTE   W06
        BYTE                   Fs1
        BYTE   W06
        BYTE                   Fs1   v074
        BYTE   W06
        BYTE                   Fs1
        BYTE   W06
        BYTE                   Fs1   v105
        BYTE   W06
        BYTE                   Fs1
        BYTE   W06
        BYTE                   Fs1   v074
        BYTE   W06
        BYTE                   Fs1
        BYTE   W06
        BYTE                   Fs1   v105
        BYTE   W06
        BYTE                   Fs1
        BYTE   W06
        BYTE                   Fs1   v074
        BYTE   W06
        BYTE                   Fs1
        BYTE   W06
// 001   ----------------------------------------
song023_1_1:
        BYTE           N05     Fs1   v105
        BYTE   W06
        BYTE                   Fs1
        BYTE   W06
        BYTE                   Fs1   v074
        BYTE   W06
        BYTE                   Fs1
        BYTE   W06
        BYTE                   Fs1   v105
        BYTE   W06
        BYTE                   Fs1
        BYTE   W06
        BYTE                   Fs1   v074
        BYTE   W06
        BYTE                   Fs1
        BYTE   W06
        BYTE                   Fs1   v105
        BYTE   W06
        BYTE                   Fs1
        BYTE   W06
        BYTE                   Fs1   v074
        BYTE   W06
        BYTE                   Fs1
        BYTE   W06
        BYTE                   Fs1   v105
        BYTE   W06
        BYTE                   Fs1
        BYTE   W06
        BYTE                   Fs1   v074
        BYTE   W06
        BYTE                   Fs1
        BYTE   W06
        BYTE   PEND
// 002   ----------------------------------------
        BYTE   PATT
         POIN2  song023_1_1
// 003   ----------------------------------------
        BYTE   PATT
         POIN2  song023_1_1
// 004   ----------------------------------------
        BYTE   PATT
         POIN2  song023_1_1
// 005   ----------------------------------------
        BYTE   PATT
         POIN2  song023_1_1
// 006   ----------------------------------------
        BYTE   PATT
         POIN2  song023_1_1
// 007   ----------------------------------------
        BYTE   PATT
         POIN2  song023_1_1
// 008   ----------------------------------------
        BYTE   PATT
         POIN2  song023_1_1
// 009   ----------------------------------------
        BYTE   PATT
         POIN2  song023_1_1
// 010   ----------------------------------------
        BYTE   PATT
         POIN2  song023_1_1
// 011   ----------------------------------------
        BYTE   PATT
         POIN2  song023_1_1
// 012   ----------------------------------------
        BYTE   PATT
         POIN2  song023_1_1
// 013   ----------------------------------------
        BYTE   PATT
         POIN2  song023_1_1
// 014   ----------------------------------------
        BYTE   PATT
         POIN2  song023_1_1
// 015   ----------------------------------------
        BYTE   PATT
         POIN2  song023_1_1
// 016   ----------------------------------------
song023_1_16:
        BYTE           N06     Bn2   v095
        BYTE           N18     Cs2   v108
        BYTE   W06
        BYTE           N06     An2   v063
        BYTE   W06
        BYTE                   Bn2   v095
        BYTE   W06
        BYTE                   An2   v063
        BYTE   W06
        BYTE           N12     Gs2   v100
        BYTE   W12
        BYTE           N06     Bn2   v095
        BYTE           N18     Cs2   v108
        BYTE   W06
        BYTE           N06     An2   v063
        BYTE   W06
        BYTE                   Bn2   v095
        BYTE   W06
        BYTE                   An2   v063
        BYTE   W06
        BYTE           N12     Gs2   v100
        BYTE   W12
        BYTE           N06     Bn2   v095
        BYTE   W06
        BYTE                   An2   v063
        BYTE   W06
        BYTE                   Bn2   v095
        BYTE   W06
        BYTE                   An2   v063
        BYTE   W06
        BYTE   PEND
// 017   ----------------------------------------
song023_1_17:
        BYTE           N06     Bn2   v095
        BYTE   W06
        BYTE                   An2   v063
        BYTE   W06
        BYTE                   Bn2   v095
        BYTE   W06
        BYTE                   An2   v063
        BYTE   W06
        BYTE           N12     Gs2   v100
        BYTE   W12
        BYTE           N06     Bn2   v095
        BYTE   W06
        BYTE                   An2   v063
        BYTE   W06
        BYTE                   Bn2   v095
        BYTE   W06
        BYTE                   An2   v063
        BYTE   W06
        BYTE           N12     Gs2   v100
        BYTE   W12
        BYTE           N06     Bn2   v095
        BYTE   W06
        BYTE                   An2   v063
        BYTE   W06
        BYTE                   Bn2   v095
        BYTE   W06
        BYTE                   An2   v063
        BYTE   W06
        BYTE   PEND
// 018   ----------------------------------------
        BYTE                   Bn2   v095
        BYTE   W06
        BYTE                   An2   v063
        BYTE   W06
        BYTE                   Bn2   v095
        BYTE   W06
        BYTE                   An2   v063
        BYTE   W06
        BYTE           N12     Gs2   v100
        BYTE   W12
        BYTE           N06     Bn2   v095
        BYTE   W06
        BYTE                   An2   v063
        BYTE   W06
        BYTE                   Bn2   v095
        BYTE   W06
        BYTE                   An2   v063
        BYTE   W06
        BYTE           N12     Gs2   v100
        BYTE           N24     Cs2   v108
        BYTE   W12
        BYTE           N06     Bn2   v095
        BYTE   W06
        BYTE                   An2   v063
        BYTE   W06
        BYTE                   Bn2   v095
        BYTE   W06
        BYTE                   An2   v063
        BYTE   W06
// 019   ----------------------------------------
        BYTE                   Bn2   v095
        BYTE           N24     Cs2   v108
        BYTE   W06
        BYTE           N06     An2   v063
        BYTE   W06
        BYTE                   Bn2   v095
        BYTE   W06
        BYTE                   An2   v063
        BYTE   W06
        BYTE           N12     Gs2   v100
        BYTE   W12
        BYTE           N06     Bn2   v095
        BYTE   W06
        BYTE                   An2   v063
        BYTE   W06
        BYTE                   Bn2   v095
        BYTE   W06
        BYTE                   An2   v063
        BYTE   W06
        BYTE           N12     Gs2   v100
        BYTE   W12
        BYTE           N06     Bn2   v095
        BYTE   W06
        BYTE                   An2   v063
        BYTE   W06
        BYTE                   Bn2   v095
        BYTE   W06
        BYTE                   An2   v063
        BYTE   W06
// 020   ----------------------------------------
        BYTE   PATT
         POIN2  song023_1_16
// 021   ----------------------------------------
        BYTE   PATT
         POIN2  song023_1_17
// 022   ----------------------------------------
        BYTE           N06     Bn2   v095
        BYTE   W06
        BYTE                   An2   v063
        BYTE   W06
        BYTE                   Bn2   v095
        BYTE   W06
        BYTE                   An2   v063
        BYTE   W06
        BYTE           N12     Gs2   v100
        BYTE   W12
        BYTE           N06     Bn2   v095
        BYTE   W06
        BYTE                   An2   v063
        BYTE   W06
        BYTE                   Bn2   v095
        BYTE   W06
        BYTE                   An2   v063
        BYTE   W06
        BYTE           N12     Gs2   v100
        BYTE           N18     Cs2   v108
        BYTE   W12
        BYTE           N06     Bn2   v095
        BYTE   W06
        BYTE                   An2   v063
        BYTE   W06
        BYTE                   Bn2   v095
        BYTE   W06
        BYTE                   An2   v063
        BYTE   W06
// 023   ----------------------------------------
        BYTE   PATT
         POIN2  song023_1_16
// 024   ----------------------------------------
        BYTE           N06     Bn2   v095
        BYTE           N24     Cs2   v108
        BYTE           N05     Fs1   v105
        BYTE   W06
        BYTE                   Fs1
        BYTE   W06
        BYTE           N06     Bn2   v095
        BYTE           N05     Fs1   v074
        BYTE   W06
        BYTE                   Fs1
        BYTE   W06
        BYTE           N06     Bn2   v095
        BYTE           N05     Fs1   v105
        BYTE   W06
        BYTE                   Fs1
        BYTE   W06
        BYTE           N36     Gs2   v100
        BYTE           N05     Fs1   v074
        BYTE   W06
        BYTE                   Fs1
        BYTE   W06
        BYTE                   Fs1   v105
        BYTE   W06
        BYTE                   Fs1
        BYTE   W06
        BYTE                   Fs1   v074
        BYTE   W06
        BYTE                   Fs1
        BYTE   W06
        BYTE           N06     Bn2   v095
        BYTE           N05     Fs1   v105
        BYTE   W06
        BYTE                   Fs1
        BYTE   W06
        BYTE                   Fs1   v074
        BYTE   W06
        BYTE                   Fs1
        BYTE   W06
// 025   ----------------------------------------
        BYTE                   Fs1   v105
        BYTE   W06
        BYTE                   Fs1
        BYTE   W06
        BYTE           N06     Bn2   v095
        BYTE           N05     Fs1   v074
        BYTE   W06
        BYTE           N06     An2   v063
        BYTE           N05     Fs1   v074
        BYTE   W06
        BYTE           N06     Bn2   v095
        BYTE           N05     Fs1   v105
        BYTE   W06
        BYTE           N06     An2   v063
        BYTE           N05     Fs1   v105
        BYTE   W06
        BYTE           N06     Bn2   v095
        BYTE           N05     Fs1   v074
        BYTE   W06
        BYTE                   Fs1
        BYTE   W06
        BYTE                   Fs1   v105
        BYTE   W06
        BYTE                   Fs1
        BYTE   W06
        BYTE           N06     Bn2   v095
        BYTE           N05     Fs1   v074
        BYTE   W06
        BYTE           N06     An2   v063
        BYTE           N05     Fs1   v074
        BYTE   W06
        BYTE           N06     Bn2   v095
        BYTE           N05     Fs1   v105
        BYTE   W06
        BYTE                   Fs1
        BYTE   W06
        BYTE                   Fs1   v074
        BYTE   W06
        BYTE                   Fs1
        BYTE   W06
// 026   ----------------------------------------
        BYTE           N06     Bn2   v095
        BYTE           N05     Fs1   v105
        BYTE   W06
        BYTE                   Fs1
        BYTE   W06
        BYTE           N06     Bn2   v095
        BYTE           N05     Fs1   v074
        BYTE   W06
        BYTE                   Fs1
        BYTE   W06
        BYTE           N06     Bn2   v095
        BYTE           N05     Fs1   v105
        BYTE   W06
        BYTE                   Fs1
        BYTE   W06
        BYTE           N36     Gs2   v100
        BYTE           N05     Fs1   v074
        BYTE   W06
        BYTE                   Fs1
        BYTE   W06
        BYTE                   Fs1   v105
        BYTE   W06
        BYTE                   Fs1
        BYTE   W06
        BYTE                   Fs1   v074
        BYTE   W06
        BYTE                   Fs1
        BYTE   W06
        BYTE           N06     Bn2   v095
        BYTE           N05     Fs1   v105
        BYTE   W06
        BYTE                   Fs1
        BYTE   W06
        BYTE                   Fs1   v074
        BYTE   W06
        BYTE                   Fs1
        BYTE   W06
// 027   ----------------------------------------
        BYTE                   Fs1   v105
        BYTE   W06
        BYTE                   Fs1
        BYTE   W06
        BYTE           N06     Bn2   v095
        BYTE           N05     Fs1   v074
        BYTE   W06
        BYTE                   Fs1
        BYTE   W06
        BYTE           N06     Bn2   v095
        BYTE           N05     Fs1   v105
        BYTE   W06
        BYTE           N06     An2   v063
        BYTE           N05     Fs1   v105
        BYTE   W06
        BYTE           N06     Bn2   v095
        BYTE           N05     Fs1   v074
        BYTE   W06
        BYTE                   Fs1
        BYTE   W06
        BYTE                   Fs1   v105
        BYTE   W06
        BYTE                   Fs1
        BYTE   W06
        BYTE           N06     Bn2   v095
        BYTE           N05     Fs1   v074
        BYTE   W06
        BYTE           N06     An2   v063
        BYTE           N05     Fs1   v074
        BYTE   W06
        BYTE           N06     Bn2   v095
        BYTE           N05     Fs1   v105
        BYTE   W06
        BYTE           N06     An2   v063
        BYTE           N05     Fs1   v105
        BYTE   W06
        BYTE           N06     Bn2   v095
        BYTE           N05     Fs1   v074
        BYTE   W06
        BYTE                   Fs1
        BYTE   W06
// 028   ----------------------------------------
        BYTE           N06     Bn2   v095
        BYTE           N05     Fs1   v105
        BYTE   W06
        BYTE                   Fs1
        BYTE   W06
        BYTE           N06     Bn2   v095
        BYTE           N05     Fs1   v074
        BYTE   W06
        BYTE                   Fs1
        BYTE   W06
        BYTE           N06     An2   v063
        BYTE           N05     Fs1   v105
        BYTE   W06
        BYTE                   Fs1
        BYTE   W06
        BYTE           N36     Gs2   v100
        BYTE           N05     Fs1   v074
        BYTE   W06
        BYTE                   Fs1
        BYTE   W06
        BYTE                   Fs1   v105
        BYTE   W06
        BYTE                   Fs1
        BYTE   W06
        BYTE                   Fs1   v074
        BYTE   W06
        BYTE                   Fs1
        BYTE   W06
        BYTE           N06     Bn2   v095
        BYTE           N05     Fs1   v105
        BYTE   W06
        BYTE           N06     An2   v063
        BYTE           N05     Fs1   v105
        BYTE   W06
        BYTE           N06     Bn2   v095
        BYTE           N05     Fs1   v074
        BYTE   W06
        BYTE                   Fs1
        BYTE   W06
// 029   ----------------------------------------
        BYTE                   Fs1   v105
        BYTE   W06
        BYTE                   Fs1
        BYTE   W06
        BYTE           N06     Bn2   v095
        BYTE           N05     Fs1   v074
        BYTE   W06
        BYTE                   Fs1
        BYTE   W06
        BYTE           N06     Bn2   v095
        BYTE           N05     Fs1   v105
        BYTE   W06
        BYTE                   Fs1
        BYTE   W06
        BYTE           N06     An2   v063
        BYTE           N05     Fs1   v074
        BYTE   W06
        BYTE                   Fs1
        BYTE   W06
        BYTE           N06     Bn2   v095
        BYTE           N05     Fs1   v105
        BYTE   W06
        BYTE                   Fs1
        BYTE   W06
        BYTE           N06     An2   v063
        BYTE           N05     Fs1   v074
        BYTE   W06
        BYTE                   Fs1
        BYTE   W06
        BYTE           N06     Bn2   v095
        BYTE           N05     Fs1   v105
        BYTE   W06
        BYTE           N06     An2   v063
        BYTE           N05     Fs1   v105
        BYTE   W06
        BYTE           N06     Bn2   v095
        BYTE           N05     Fs1   v074
        BYTE   W06
        BYTE                   Fs1
        BYTE   W06
// 030   ----------------------------------------
        BYTE           N06     Bn2   v095
        BYTE           N05     Fs1   v105
        BYTE   W06
        BYTE                   Fs1
        BYTE   W06
        BYTE           N06     An2   v063
        BYTE           N05     Fs1   v074
        BYTE   W06
        BYTE                   Fs1
        BYTE   W06
        BYTE           N06     Bn2   v095
        BYTE           N05     Fs1   v105
        BYTE   W06
        BYTE                   Fs1
        BYTE   W06
        BYTE           N36     Gs2   v100
        BYTE           N05     Fs1   v074
        BYTE   W06
        BYTE                   Fs1
        BYTE   W06
        BYTE                   Fs1   v105
        BYTE   W06
        BYTE                   Fs1
        BYTE   W06
        BYTE                   Fs1   v074
        BYTE   W06
        BYTE                   Fs1
        BYTE   W06
        BYTE           N06     Bn2   v095
        BYTE           N05     Fs1   v105
        BYTE   W06
        BYTE                   Fs1
        BYTE   W06
        BYTE                   Fs1   v074
        BYTE   W06
        BYTE                   Fs1
        BYTE   W06
// 031   ----------------------------------------
        BYTE           N06     Bn2   v095
        BYTE           N05     Fs1   v105
        BYTE   W06
        BYTE                   Fs1
        BYTE   W06
        BYTE           N06     Bn2   v095
        BYTE           N05     Fs1   v074
        BYTE   W06
        BYTE           N06     An2   v063
        BYTE           N05     Fs1   v074
        BYTE   W06
        BYTE           N06     Bn2   v095
        BYTE           N05     Fs1   v105
        BYTE   W06
        BYTE           N06     An2   v063
        BYTE           N05     Fs1   v105
        BYTE   W06
        BYTE           N06     Bn2   v095
        BYTE           N05     Fs1   v074
        BYTE   W06
        BYTE                   Fs1
        BYTE   W06
        BYTE           N06     Bn2   v095
        BYTE           N05     Fs1   v105
        BYTE   W06
        BYTE           N06     An2   v063
        BYTE           N05     Fs1   v105
        BYTE   W06
        BYTE           N06     Bn2   v095
        BYTE           N05     Fs1   v074
        BYTE   W06
        BYTE                   Fs1
        BYTE   W06
        BYTE           N06     Bn2   v095
        BYTE           N05     Fs1   v105
        BYTE   W06
        BYTE                   Fs1
        BYTE   W06
        BYTE                   Fs1   v074
        BYTE   W06
        BYTE                   Fs1
        BYTE   W06
// 032   ----------------------------------------
        BYTE   GoTo
         POIN2  song023_1_LOOP
        BYTE   FINE

//****************** Track 2 (Midi-Chn.2) ******************//

song023_2:
        BYTE   KEYSH   song023_key+0
// 000   ----------------------------------------
song023_2_LOOP:
        BYTE           VOICE   89
        BYTE           VOL     58
        BYTE           BENDR   30
        BYTE   W96
// 001   ----------------------------------------
        BYTE   W96
// 002   ----------------------------------------
        BYTE   W96
// 003   ----------------------------------------
        BYTE   W96
// 004   ----------------------------------------
        BYTE   W96
// 005   ----------------------------------------
        BYTE   W96
// 006   ----------------------------------------
        BYTE   W96
// 007   ----------------------------------------
        BYTE   W96
// 008   ----------------------------------------
        BYTE   W96
// 009   ----------------------------------------
        BYTE   W96
// 010   ----------------------------------------
        BYTE   W96
// 011   ----------------------------------------
        BYTE   W96
// 012   ----------------------------------------
        BYTE   W96
// 013   ----------------------------------------
        BYTE   W48
        BYTE           N18     Cn3   v108
        BYTE   W18
        BYTE                   Fs3
        BYTE   W18
        BYTE           N12     As3
        BYTE   W12
// 014   ----------------------------------------
        BYTE           VOL     46
        BYTE           TIE     An3
        BYTE   W06
        BYTE           VOL     49
        BYTE   W06
        BYTE                   51
        BYTE   W06
        BYTE                   53
        BYTE   W06
        BYTE                   54
        BYTE   W06
        BYTE                   55
        BYTE   W06
        BYTE                   56
        BYTE   W12
        BYTE                   57
        BYTE   W06
        BYTE                   58
        BYTE   W42
// 015   ----------------------------------------
        BYTE   W54
        BYTE                   56
        BYTE   W12
        BYTE                   55
        BYTE   W06
        BYTE                   53
        BYTE   W06
        BYTE                   51
        BYTE   W06
        BYTE                   48
        BYTE   W06
        BYTE           EOT
        BYTE           VOL     44
        BYTE   W06
// 016   ----------------------------------------
        BYTE   W96
// 017   ----------------------------------------
        BYTE   W96
// 018   ----------------------------------------
        BYTE   W96
// 019   ----------------------------------------
        BYTE   W96
// 020   ----------------------------------------
        BYTE   W96
// 021   ----------------------------------------
        BYTE   W96
// 022   ----------------------------------------
        BYTE   W96
// 023   ----------------------------------------
        BYTE   W96
// 024   ----------------------------------------
        BYTE   W96
// 025   ----------------------------------------
        BYTE   W96
// 026   ----------------------------------------
        BYTE   W96
// 027   ----------------------------------------
        BYTE   W96
// 028   ----------------------------------------
        BYTE                   58
        BYTE           N24     Bn2
        BYTE   W24
        BYTE           N06     Fs3
        BYTE   W12
        BYTE                   Bn3
        BYTE   W12
        BYTE           N12     An3
        BYTE   W12
        BYTE           N06     Gs3
        BYTE   W06
        BYTE                   Fs3
        BYTE   W06
        BYTE           VOL     45
        BYTE           TIE     Fn3
        BYTE   W06
        BYTE           VOL     49
        BYTE   W06
        BYTE                   52
        BYTE   W06
        BYTE                   55
        BYTE   W06
// 029   ----------------------------------------
        BYTE                   58
        BYTE   W54
        BYTE                   54
        BYTE   W06
        BYTE                   49
        BYTE   W06
        BYTE                   43
        BYTE   W12
        BYTE           EOT
        BYTE   W06
        BYTE           VOL     58
        BYTE           N06     Cs3
        BYTE   W06
        BYTE           N05     Dn3
        BYTE   W06
// 030   ----------------------------------------
        BYTE           N84     Cs3
        BYTE   W66
        BYTE           VOL     51
        BYTE   W06
        BYTE                   43
        BYTE   W12
        BYTE                   58
        BYTE           N04     Fn3
        BYTE   W04
        BYTE                   Fs3
        BYTE   W04
        BYTE                   Gn3
        BYTE   W04
// 031   ----------------------------------------
        BYTE           N96     Gs3
        BYTE   W54
        BYTE           VOL     56
        BYTE   W12
        BYTE                   54
        BYTE   W06
        BYTE                   53
        BYTE   W06
        BYTE                   51
        BYTE   W06
        BYTE                   46
        BYTE   W06
        BYTE                   38
        BYTE   W06
// 032   ----------------------------------------
        BYTE                   58
        BYTE   GoTo
         POIN2  song023_2_LOOP
        BYTE   FINE

//****************** Track 3 (Midi-Chn.3) ******************//

song023_3:
        BYTE   KEYSH   song023_key+0
// 000   ----------------------------------------
song023_3_LOOP:
        BYTE           VOICE   22
        BYTE           VOL     66
        BYTE           BENDR   30
        BYTE   W96
// 001   ----------------------------------------
        BYTE   W96
// 002   ----------------------------------------
        BYTE   W96
// 003   ----------------------------------------
        BYTE   W96
// 004   ----------------------------------------
        BYTE   W96
// 005   ----------------------------------------
        BYTE   W96
// 006   ----------------------------------------
        BYTE   W96
// 007   ----------------------------------------
        BYTE   W96
// 008   ----------------------------------------
        BYTE   W96
// 009   ----------------------------------------
        BYTE   W96
// 010   ----------------------------------------
        BYTE   W96
// 011   ----------------------------------------
        BYTE   W96
// 012   ----------------------------------------
        BYTE   W96
// 013   ----------------------------------------
        BYTE   W96
// 014   ----------------------------------------
        BYTE   W96
// 015   ----------------------------------------
        BYTE   W96
// 016   ----------------------------------------
        BYTE           VOL     56
        BYTE           TIE     As3   v098
        BYTE   W06
        BYTE           VOL     58
        BYTE   W06
        BYTE                   59
        BYTE   W06
        BYTE                   58
        BYTE   W18
        BYTE                   59
        BYTE   W08
        BYTE           MOD     16
        BYTE   W04
        BYTE           VOL     61
        BYTE   W12
        BYTE                   63
        BYTE   W06
        BYTE                   64
        BYTE   W06
        BYTE                   65
        BYTE   W06
        BYTE                   66
        BYTE   W18
// 017   ----------------------------------------
        BYTE   W12
        BYTE                   64
        BYTE   W06
        BYTE                   60
        BYTE   W06
        BYTE                   58
        BYTE   W06
        BYTE                   52
        BYTE   W12
        BYTE           EOT
        BYTE           MOD     0
        BYTE   W06
        BYTE           VOL     66
        BYTE           N18     An3
        BYTE   W18
        BYTE                   En3
        BYTE   W18
        BYTE           N12     As2
        BYTE   W12
// 018   ----------------------------------------
        BYTE           VOL     53
        BYTE           TIE     Cs3
        BYTE   W06
        BYTE           VOL     55
        BYTE   W06
        BYTE                   56
        BYTE   W06
        BYTE                   57
        BYTE   W06
        BYTE                   58
        BYTE   W06
        BYTE                   59
        BYTE   W06
        BYTE                   61
        BYTE   W06
        BYTE                   64
        BYTE   W02
        BYTE           MOD     16
        BYTE   W04
        BYTE           VOL     66
        BYTE   W48
// 019   ----------------------------------------
        BYTE   W06
        BYTE                   64
        BYTE   W06
        BYTE                   61
        BYTE   W06
        BYTE                   58
        BYTE   W12
        BYTE           EOT
        BYTE           MOD     0
        BYTE   W06
        BYTE           VOL     66
        BYTE           N12     Ds3
        BYTE   W12
        BYTE           N18     En3
        BYTE   W18
        BYTE                   Gn3
        BYTE   W18
        BYTE           VOL     52
        BYTE           TIE     Ds4
        BYTE   W06
        BYTE           VOL     56
        BYTE   W06
// 020   ----------------------------------------
        BYTE                   59
        BYTE   W06
        BYTE                   62
        BYTE   W06
        BYTE                   64
        BYTE   W06
        BYTE                   66
        BYTE   W14
        BYTE           MOD     16
        BYTE   W64
// 021   ----------------------------------------
        BYTE   W06
        BYTE           VOL     64
        BYTE   W06
        BYTE                   60
        BYTE   W06
        BYTE                   55
        BYTE   W06
        BYTE                   46
        BYTE   W06
        BYTE           EOT
        BYTE           MOD     0
        BYTE   W06
        BYTE           VOL     66
        BYTE           N12     Cs4
        BYTE   W12
        BYTE           N18     Cn4
        BYTE   W18
        BYTE                   En3
        BYTE   W18
        BYTE           VOL     49
        BYTE           N96     An3
        BYTE   W06
        BYTE           VOL     54
        BYTE   W06
// 022   ----------------------------------------
        BYTE                   58
        BYTE   W06
        BYTE                   61
        BYTE   W06
        BYTE                   63
        BYTE   W06
        BYTE                   64
        BYTE   W06
        BYTE                   66
        BYTE   W08
        BYTE           MOD     16
        BYTE   W52
        BYTE                   0
        BYTE           N06     Gs3   v081
        BYTE   W06
        BYTE           N05     Gn3
        BYTE   W06
// 023   ----------------------------------------
        BYTE           N96     Fs3   v098
        BYTE   W44
        BYTE           MOD     16
        BYTE   W22
        BYTE           VOL     64
        BYTE   W06
        BYTE                   63
        BYTE   W06
        BYTE                   62
        BYTE   W06
        BYTE                   59
        BYTE   W06
        BYTE                   53
        BYTE   W06
// 024   ----------------------------------------
        BYTE           MOD     0
        BYTE           VOL     41
        BYTE   W96
// 025   ----------------------------------------
        BYTE                   56
        BYTE           TIE     Fn3   v084
        BYTE   W06
        BYTE           VOL     63
        BYTE   W06
        BYTE                   59
        BYTE   W06
        BYTE                   56
        BYTE   W06
        BYTE                   52
        BYTE   W06
        BYTE                   50
        BYTE   W06
        BYTE                   51
        BYTE   W08
        BYTE           MOD     16
        BYTE   W04
        BYTE           VOL     53
        BYTE   W06
        BYTE                   54
        BYTE   W06
        BYTE                   55
        BYTE   W06
        BYTE                   56
        BYTE   W06
        BYTE                   58
        BYTE   W06
        BYTE                   59
        BYTE   W06
        BYTE                   61
        BYTE   W06
        BYTE                   63
        BYTE   W06
// 026   ----------------------------------------
        BYTE                   66
        BYTE   W96
// 027   ----------------------------------------
        BYTE   W06
        BYTE                   64
        BYTE   W06
        BYTE                   62
        BYTE   W06
        BYTE                   58
        BYTE   W06
        BYTE                   54
        BYTE   W06
        BYTE                   48
        BYTE   W06
        BYTE                   38
        BYTE   W06
        BYTE           EOT
        BYTE           MOD     0
        BYTE   W06
        BYTE           VOL     66
        BYTE           N18     Fs3   v098
        BYTE   W18
        BYTE                   An3
        BYTE   W18
        BYTE           N12     Ds4
        BYTE   W12
// 028   ----------------------------------------
        BYTE           TIE     Bn3
        BYTE   W44
        BYTE           MOD     16
        BYTE   W52
// 029   ----------------------------------------
        BYTE   W30
        BYTE           VOL     64
        BYTE   W18
        BYTE                   63
        BYTE   W12
        BYTE                   61
        BYTE   W06
        BYTE                   60
        BYTE   W06
        BYTE                   59
        BYTE   W06
        BYTE                   58
        BYTE   W06
        BYTE           EOT
        BYTE           MOD     0
        BYTE           VOL     64
        BYTE           N04     An3   v090
        BYTE   W04
        BYTE           N02     Gs3   v078
        BYTE   W02
        BYTE           VOL     66
        BYTE   W02
        BYTE           N02     Gn3   v090
        BYTE   W04
// 030   ----------------------------------------
        BYTE           VOL     61
        BYTE           TIE     Fs3   v098
        BYTE   W06
        BYTE           VOL     58
        BYTE   W06
        BYTE                   53
        BYTE   W06
        BYTE                   52
        BYTE   W06
        BYTE                   54
        BYTE   W06
        BYTE                   55
        BYTE   W06
        BYTE                   58
        BYTE   W06
        BYTE                   59
        BYTE   W02
        BYTE           MOD     16
        BYTE   W04
        BYTE           VOL     61
        BYTE   W12
        BYTE                   63
        BYTE   W06
        BYTE                   64
        BYTE   W18
        BYTE                   66
        BYTE   W12
// 031   ----------------------------------------
        BYTE   W66
        BYTE                   65
        BYTE   W06
        BYTE                   64
        BYTE   W06
        BYTE                   59
        BYTE   W06
        BYTE                   55
        BYTE   W06
        BYTE                   46
        BYTE   W06
// 032   ----------------------------------------
        BYTE           EOT
        BYTE           VOL     66
        BYTE           MOD     0
        BYTE   GoTo
         POIN2  song023_3_LOOP
        BYTE   FINE

//****************** Track 4 (Midi-Chn.4) ******************//

song023_4:
        BYTE   KEYSH   song023_key+0
// 000   ----------------------------------------
song023_4_LOOP:
        BYTE           VOICE   11
        BYTE           VOL     49
        BYTE           BENDR   21
        BYTE   W96
// 001   ----------------------------------------
        BYTE   W96
// 002   ----------------------------------------
        BYTE   W96
// 003   ----------------------------------------
        BYTE   W96
// 004   ----------------------------------------
        BYTE   W96
// 005   ----------------------------------------
        BYTE   W96
// 006   ----------------------------------------
        BYTE   W96
// 007   ----------------------------------------
        BYTE   W96
// 008   ----------------------------------------
song023_4_8:
        BYTE           N24     Cn3   v090
        BYTE   W36
        BYTE                   Cn3
        BYTE   W60
        BYTE   PEND
// 009   ----------------------------------------
song023_4_9:
        BYTE   W72
        BYTE           N17     Ds3   v090
        BYTE   W24
        BYTE   PEND
// 010   ----------------------------------------
        BYTE   PATT
         POIN2  song023_4_8
// 011   ----------------------------------------
        BYTE   W96
// 012   ----------------------------------------
        BYTE   PATT
         POIN2  song023_4_8
// 013   ----------------------------------------
        BYTE   PATT
         POIN2  song023_4_9
// 014   ----------------------------------------
        BYTE   PATT
         POIN2  song023_4_8
// 015   ----------------------------------------
        BYTE   W96
// 016   ----------------------------------------
song023_4_16:
        BYTE           N24     Cs3   v090
        BYTE   W36
        BYTE                   Cs3
        BYTE   W60
        BYTE   PEND
// 017   ----------------------------------------
        BYTE   W72
        BYTE           N23     En3
        BYTE   W24
// 018   ----------------------------------------
        BYTE   PATT
         POIN2  song023_4_16
// 019   ----------------------------------------
        BYTE   W96
// 020   ----------------------------------------
        BYTE   PATT
         POIN2  song023_4_16
// 021   ----------------------------------------
        BYTE   W96
// 022   ----------------------------------------
        BYTE   PATT
         POIN2  song023_4_16
// 023   ----------------------------------------
        BYTE   W96
// 024   ----------------------------------------
        BYTE   W96
// 025   ----------------------------------------
        BYTE   W96
// 026   ----------------------------------------
        BYTE   W96
// 027   ----------------------------------------
        BYTE   W96
// 028   ----------------------------------------
        BYTE   W96
// 029   ----------------------------------------
        BYTE   W96
// 030   ----------------------------------------
        BYTE   W96
// 031   ----------------------------------------
        BYTE   W96
// 032   ----------------------------------------
        BYTE   GoTo
         POIN2  song023_4_LOOP
        BYTE   FINE

//****************** Track 5 (Midi-Chn.5) ******************//

song023_5:
        BYTE   KEYSH   song023_key+0
// 000   ----------------------------------------
song023_5_LOOP:
        BYTE           VOICE   103
        BYTE           VOL     59
        BYTE           BENDR   30
        BYTE   W96
// 001   ----------------------------------------
        BYTE   W96
// 002   ----------------------------------------
        BYTE   W96
// 003   ----------------------------------------
        BYTE   W96
// 004   ----------------------------------------
        BYTE   W96
// 005   ----------------------------------------
        BYTE   W96
// 006   ----------------------------------------
        BYTE   W96
// 007   ----------------------------------------
        BYTE   W96
// 008   ----------------------------------------
        BYTE   W96
// 009   ----------------------------------------
        BYTE   W96
// 010   ----------------------------------------
        BYTE   W96
// 011   ----------------------------------------
        BYTE   W96
// 012   ----------------------------------------
        BYTE   W96
// 013   ----------------------------------------
        BYTE   W96
// 014   ----------------------------------------
        BYTE   W96
// 015   ----------------------------------------
        BYTE   W96
// 016   ----------------------------------------
        BYTE   W96
// 017   ----------------------------------------
        BYTE   W96
// 018   ----------------------------------------
        BYTE   W96
// 019   ----------------------------------------
        BYTE   W96
// 020   ----------------------------------------
        BYTE   W96
// 021   ----------------------------------------
        BYTE   W96
// 022   ----------------------------------------
        BYTE   W96
// 023   ----------------------------------------
        BYTE   W96
// 024   ----------------------------------------
song023_5_24:
        BYTE           N23     Fn2   v100
        BYTE           N08     Cn2   v078
        BYTE           N08     Fs1
        BYTE   W36
        BYTE           N32     Fn2   v100
        BYTE           N10     Cn2   v078
        BYTE           N10     Fs1
        BYTE   W60
        BYTE   PEND
// 025   ----------------------------------------
        BYTE   W48
        BYTE           N22     Fn2   v100
        BYTE           N08     Cn2   v078
        BYTE           N08     Fs1
        BYTE   W24
        BYTE           N22     Gs2   v100
        BYTE           N08     Ds2   v078
        BYTE           N08     An1
        BYTE   W24
// 026   ----------------------------------------
        BYTE   PATT
         POIN2  song023_5_24
// 027   ----------------------------------------
        BYTE   W72
        BYTE           N16     Fn2   v100
        BYTE           N08     Cn2   v078
        BYTE           N08     Fs1
        BYTE   W24
// 028   ----------------------------------------
        BYTE           N23     Fs2   v100
        BYTE           N08     Cs2   v078
        BYTE           N08     Gn1
        BYTE   W36
        BYTE           N22     Fs2   v100
        BYTE           N10     Cs2   v078
        BYTE           N10     Gn1
        BYTE   W60
// 029   ----------------------------------------
        BYTE   W48
        BYTE           N16     Fs2   v100
        BYTE           N08     Cs2   v078
        BYTE           N08     Gn1
        BYTE   W24
        BYTE           N17     An2   v100
        BYTE           N08     En2   v078
        BYTE           N08     As1
        BYTE   W24
// 030   ----------------------------------------
        BYTE           N17     Fs2   v100
        BYTE           N08     Cs2   v078
        BYTE           N08     Gn1
        BYTE   W36
        BYTE           N22     Fs2   v100
        BYTE           N10     Cs2   v078
        BYTE           N10     Gn1
        BYTE   W60
// 031   ----------------------------------------
        BYTE   W96
// 032   ----------------------------------------
        BYTE   GoTo
         POIN2  song023_5_LOOP
        BYTE   FINE

//****************** Track 6 (Midi-Chn.6) ******************//

song023_6:
        BYTE   KEYSH   song023_key+0
// 000   ----------------------------------------
song023_6_LOOP:
        BYTE           VOICE   105
        BYTE           VOL     50
        BYTE           BENDR   30
        BYTE   W96
// 001   ----------------------------------------
        BYTE   W96
// 002   ----------------------------------------
song023_6_2:
        BYTE           N04     Cn3   v100
        BYTE   W06
        BYTE                   Cn3   v081
        BYTE   W06
        BYTE                   Gn2   v100
        BYTE   W06
        BYTE                   Gn2   v081
        BYTE   W06
        BYTE                   Cn2   v100
        BYTE   W06
        BYTE                   Cn2   v081
        BYTE   W06
        BYTE                   Fs2   v100
        BYTE   W06
        BYTE                   Fs2   v081
        BYTE   W30
        BYTE                   Cn3   v100
        BYTE   W06
        BYTE                   Cn3   v081
        BYTE   W06
        BYTE                   Gn2   v100
        BYTE   W06
        BYTE                   Gn2   v081
        BYTE   W06
        BYTE   PEND
// 003   ----------------------------------------
song023_6_3:
        BYTE           N04     Cn2   v100
        BYTE   W06
        BYTE                   Cn2   v081
        BYTE   W06
        BYTE                   Fs2   v100
        BYTE   W06
        BYTE                   Fs2   v081
        BYTE   W78
        BYTE   PEND
// 004   ----------------------------------------
        BYTE   PATT
         POIN2  song023_6_2
// 005   ----------------------------------------
        BYTE   PATT
         POIN2  song023_6_3
// 006   ----------------------------------------
        BYTE   PATT
         POIN2  song023_6_2
// 007   ----------------------------------------
        BYTE   PATT
         POIN2  song023_6_3
// 008   ----------------------------------------
song023_6_8:
        BYTE   W24
        BYTE           N13     Cn3   v105
        BYTE           N07     Fs2   v095
        BYTE   W36
        BYTE           N13     Cn3   v105
        BYTE           N07     Fs2   v095
        BYTE   W36
        BYTE   PEND
// 009   ----------------------------------------
        BYTE   PATT
         POIN2  song023_6_8
// 010   ----------------------------------------
        BYTE   PATT
         POIN2  song023_6_8
// 011   ----------------------------------------
        BYTE   PATT
         POIN2  song023_6_8
// 012   ----------------------------------------
        BYTE   PATT
         POIN2  song023_6_8
// 013   ----------------------------------------
        BYTE   PATT
         POIN2  song023_6_8
// 014   ----------------------------------------
        BYTE   PATT
         POIN2  song023_6_8
// 015   ----------------------------------------
        BYTE   PATT
         POIN2  song023_6_8
// 016   ----------------------------------------
song023_6_16:
        BYTE   W24
        BYTE           N07     Gn2   v095
        BYTE   W36
        BYTE           N13     Cs3   v098
        BYTE           N07     Gn2   v095
        BYTE   W36
        BYTE   PEND
// 017   ----------------------------------------
song023_6_17:
        BYTE   W24
        BYTE           N13     Cs3   v098
        BYTE           N07     Gn2   v095
        BYTE   W36
        BYTE           N13     Cs3   v098
        BYTE           N07     Gn2   v095
        BYTE   W36
        BYTE   PEND
// 018   ----------------------------------------
        BYTE   PATT
         POIN2  song023_6_17
// 019   ----------------------------------------
        BYTE   PATT
         POIN2  song023_6_17
// 020   ----------------------------------------
        BYTE   PATT
         POIN2  song023_6_16
// 021   ----------------------------------------
        BYTE   PATT
         POIN2  song023_6_17
// 022   ----------------------------------------
        BYTE   PATT
         POIN2  song023_6_17
// 023   ----------------------------------------
        BYTE   W24
        BYTE           N07     Gn2   v095
        BYTE   W36
        BYTE                   Gn2
        BYTE   W36
// 024   ----------------------------------------
        BYTE   W96
// 025   ----------------------------------------
        BYTE   W96
// 026   ----------------------------------------
        BYTE   W96
// 027   ----------------------------------------
        BYTE   W96
// 028   ----------------------------------------
        BYTE   W96
// 029   ----------------------------------------
        BYTE   W96
// 030   ----------------------------------------
        BYTE   W96
// 031   ----------------------------------------
        BYTE   W96
// 032   ----------------------------------------
        BYTE   GoTo
         POIN2  song023_6_LOOP
        BYTE   FINE

//****************** Track 7 (Midi-Chn.7) ******************//

song023_7:
        BYTE   KEYSH   song023_key+0
// 000   ----------------------------------------
song023_7_LOOP:
        BYTE           VOICE   98
        BYTE           VOL     50
        BYTE           BENDR   30
        BYTE           TIE     Cn2   v067
        BYTE   W06
        BYTE           VOL     54
        BYTE   W06
        BYTE                   56
        BYTE   W06
        BYTE                   58
        BYTE   W06
        BYTE                   56
        BYTE   W06
        BYTE                   55
        BYTE   W06
        BYTE                   54
        BYTE   W06
        BYTE                   55
        BYTE   W06
        BYTE                   56
        BYTE   W12
        BYTE                   58
        BYTE   W06
        BYTE                   60
        BYTE   W06
        BYTE                   61
        BYTE   W06
        BYTE                   63
        BYTE   W06
        BYTE                   65
        BYTE   W06
        BYTE                   66
        BYTE   W06
// 001   ----------------------------------------
        BYTE   W54
        BYTE                   64
        BYTE   W06
        BYTE                   63
        BYTE   W06
        BYTE                   62
        BYTE   W06
        BYTE                   60
        BYTE   W06
        BYTE                   58
        BYTE   W06
        BYTE                   56
        BYTE   W06
        BYTE                   54
        BYTE   W06
// 002   ----------------------------------------
        BYTE           EOT
        BYTE           VOL     61
        BYTE           N06     En2   v084
        BYTE   W06
        BYTE                   Ds2   v067
        BYTE   W06
        BYTE           N10     Cn2   v084
        BYTE   W03
        BYTE           VOL     51
        BYTE   W03
        BYTE                   43
        BYTE   W06
        BYTE                   51
        BYTE           N72     Ds3   v071
        BYTE   W06
        BYTE           VOL     54
        BYTE   W06
        BYTE                   56
        BYTE   W06
        BYTE                   59
        BYTE   W06
        BYTE                   62
        BYTE   W06
        BYTE                   63
        BYTE   W12
        BYTE                   61
        BYTE   W12
        BYTE                   59
        BYTE   W06
        BYTE                   56
        BYTE   W06
        BYTE                   54
        BYTE   W06
// 003   ----------------------------------------
        BYTE                   53
        BYTE           TIE     Cn3   v081
        BYTE   W06
        BYTE           VOL     52
        BYTE   W18
        BYTE                   53
        BYTE   W06
        BYTE                   54
        BYTE   W12
        BYTE                   56
        BYTE   W12
        BYTE                   57
        BYTE   W06
        BYTE                   58
        BYTE   W18
        BYTE                   59
        BYTE   W18
// 004   ----------------------------------------
        BYTE                   61
        BYTE   W12
        BYTE                   63
        BYTE   W06
        BYTE                   64
        BYTE   W12
        BYTE                   66
        BYTE   W66
// 005   ----------------------------------------
        BYTE   W12
        BYTE                   64
        BYTE   W06
        BYTE                   63
        BYTE   W12
        BYTE                   61
        BYTE   W06
        BYTE                   60
        BYTE   W06
        BYTE                   59
        BYTE   W06
        BYTE                   58
        BYTE   W06
        BYTE                   56
        BYTE   W06
        BYTE                   53
        BYTE   W06
        BYTE                   48
        BYTE   W06
        BYTE                   53
        BYTE   W06
        BYTE                   56
        BYTE   W06
        BYTE           EOT
        BYTE           VOL     66
        BYTE           N06     Fs2   v071
        BYTE   W06
        BYTE                   Gn2   v059
        BYTE   W06
// 006   ----------------------------------------
        BYTE                   An2   v071
        BYTE   W06
        BYTE                   As2   v059
        BYTE   W06
        BYTE           VOL     59
        BYTE           TIE     An2   v078
        BYTE   W06
        BYTE           VOL     63
        BYTE   W12
        BYTE                   61
        BYTE   W24
        BYTE                   63
        BYTE   W12
        BYTE                   64
        BYTE   W06
        BYTE                   65
        BYTE   W06
        BYTE                   66
        BYTE   W18
// 007   ----------------------------------------
        BYTE   W60
        BYTE                   64
        BYTE   W06
        BYTE                   61
        BYTE   W06
        BYTE                   58
        BYTE   W06
        BYTE                   54
        BYTE   W06
        BYTE                   48
        BYTE   W06
        BYTE                   42
        BYTE   W06
// 008   ----------------------------------------
        BYTE           EOT
        BYTE   W96
// 009   ----------------------------------------
        BYTE   W96
// 010   ----------------------------------------
        BYTE   W96
// 011   ----------------------------------------
        BYTE   W96
// 012   ----------------------------------------
        BYTE   W96
// 013   ----------------------------------------
        BYTE   W96
// 014   ----------------------------------------
        BYTE   W96
// 015   ----------------------------------------
        BYTE   W96
// 016   ----------------------------------------
        BYTE   W96
// 017   ----------------------------------------
        BYTE   W96
// 018   ----------------------------------------
        BYTE   W96
// 019   ----------------------------------------
        BYTE   W96
// 020   ----------------------------------------
        BYTE   W96
// 021   ----------------------------------------
        BYTE   W96
// 022   ----------------------------------------
        BYTE   W96
// 023   ----------------------------------------
        BYTE           VOL     56
        BYTE           N92     As2   v067
        BYTE           N92     Dn2
        BYTE   W06
        BYTE           VOL     59
        BYTE   W06
        BYTE                   61
        BYTE   W06
        BYTE                   64
        BYTE   W06
        BYTE                   66
        BYTE   W54
        BYTE                   64
        BYTE   W06
        BYTE                   58
        BYTE   W06
        BYTE                   43
        BYTE   W06
// 024   ----------------------------------------
        BYTE   W96
// 025   ----------------------------------------
        BYTE   W96
// 026   ----------------------------------------
        BYTE   W96
// 027   ----------------------------------------
        BYTE   W96
// 028   ----------------------------------------
        BYTE   W96
// 029   ----------------------------------------
        BYTE   W96
// 030   ----------------------------------------
        BYTE   W96
// 031   ----------------------------------------
        BYTE   W96
// 032   ----------------------------------------
        BYTE                   50
        BYTE   GoTo
         POIN2  song023_7_LOOP
        BYTE   FINE

//****************** Track 8 (Midi-Chn.8) ******************//

song023_8:
        BYTE   KEYSH   song023_key+0
// 000   ----------------------------------------
song023_8_LOOP:
        BYTE           VOICE   32
        BYTE           VOL     48
        BYTE           BENDR   30
        BYTE           N10     Cn2   v112
        BYTE   W12
        BYTE           N04     Cn3   v100
        BYTE   W12
        BYTE           N10     Cn2   v112
        BYTE   W12
        BYTE           N04     Cn3   v100
        BYTE   W12
        BYTE           N10     Cn2   v112
        BYTE   W12
        BYTE           N04     Cn3   v100
        BYTE   W12
        BYTE           N10     Cn2   v112
        BYTE   W12
        BYTE           N04     Cn3   v100
        BYTE   W12
// 001   ----------------------------------------
song023_8_1:
        BYTE           N10     Cn2   v112
        BYTE   W12
        BYTE           N04     Cn3   v100
        BYTE   W12
        BYTE           N10     Cn2   v112
        BYTE   W12
        BYTE           N04     Cn3   v100
        BYTE   W12
        BYTE           N10     Cn2   v112
        BYTE   W12
        BYTE           N04     Cn3   v100
        BYTE   W12
        BYTE           N10     Cs2   v112
        BYTE   W12
        BYTE           N04     Cs3   v100
        BYTE   W12
        BYTE   PEND
// 002   ----------------------------------------
song023_8_2:
        BYTE           N10     Cn2   v112
        BYTE   W12
        BYTE           N04     Cn3   v100
        BYTE   W12
        BYTE           N10     Cn2   v112
        BYTE   W12
        BYTE           N04     Cn3   v100
        BYTE   W12
        BYTE           N10     Cn2   v112
        BYTE   W12
        BYTE           N04     Cn3   v100
        BYTE   W12
        BYTE           N10     Cn2   v112
        BYTE   W12
        BYTE           N04     Cn3   v100
        BYTE   W12
        BYTE   PEND
// 003   ----------------------------------------
        BYTE   PATT
         POIN2  song023_8_1
// 004   ----------------------------------------
        BYTE   PATT
         POIN2  song023_8_2
// 005   ----------------------------------------
        BYTE   PATT
         POIN2  song023_8_1
// 006   ----------------------------------------
        BYTE   PATT
         POIN2  song023_8_2
// 007   ----------------------------------------
        BYTE   PATT
         POIN2  song023_8_1
// 008   ----------------------------------------
song023_8_8:
        BYTE           N07     Cn2   v112
        BYTE   W12
        BYTE                   Cn2
        BYTE   W12
        BYTE           N04     Ds2
        BYTE   W12
        BYTE           N07     Cn2
        BYTE   W12
        BYTE                   Cn2
        BYTE   W12
        BYTE           N04     Ds2
        BYTE   W12
        BYTE           N07     Cn2
        BYTE   W12
        BYTE                   Cn2
        BYTE   W12
        BYTE   PEND
// 009   ----------------------------------------
song023_8_9:
        BYTE           N04     Ds2   v112
        BYTE   W12
        BYTE           N07     Cn2
        BYTE   W12
        BYTE                   Cn2
        BYTE   W12
        BYTE           N04     Ds2
        BYTE   W12
        BYTE           N07     Cn2
        BYTE   W12
        BYTE           N04     Ds2
        BYTE   W12
        BYTE           N07     Gn2
        BYTE   W12
        BYTE                   Fs2
        BYTE   W12
        BYTE   PEND
// 010   ----------------------------------------
        BYTE   PATT
         POIN2  song023_8_8
// 011   ----------------------------------------
        BYTE   PATT
         POIN2  song023_8_9
// 012   ----------------------------------------
        BYTE   PATT
         POIN2  song023_8_8
// 013   ----------------------------------------
        BYTE   PATT
         POIN2  song023_8_9
// 014   ----------------------------------------
        BYTE   PATT
         POIN2  song023_8_8
// 015   ----------------------------------------
        BYTE   PATT
         POIN2  song023_8_9
// 016   ----------------------------------------
song023_8_16:
        BYTE           N07     Cs2   v112
        BYTE   W12
        BYTE                   Cs2
        BYTE   W12
        BYTE           N04     En2
        BYTE   W12
        BYTE           N07     Cs2
        BYTE   W12
        BYTE                   Cs2
        BYTE   W12
        BYTE           N04     En2
        BYTE   W12
        BYTE           N07     Cs2
        BYTE   W12
        BYTE                   Cs2
        BYTE   W12
        BYTE   PEND
// 017   ----------------------------------------
song023_8_17:
        BYTE           N04     En2   v112
        BYTE   W12
        BYTE           N07     Cs2
        BYTE   W12
        BYTE                   Cs2
        BYTE   W12
        BYTE           N04     En2
        BYTE   W12
        BYTE           N07     Cs2
        BYTE   W12
        BYTE           N04     En2
        BYTE   W12
        BYTE           N07     Gs2
        BYTE   W12
        BYTE                   Gn2
        BYTE   W12
        BYTE   PEND
// 018   ----------------------------------------
        BYTE   PATT
         POIN2  song023_8_16
// 019   ----------------------------------------
        BYTE   PATT
         POIN2  song023_8_17
// 020   ----------------------------------------
        BYTE   PATT
         POIN2  song023_8_16
// 021   ----------------------------------------
        BYTE   PATT
         POIN2  song023_8_17
// 022   ----------------------------------------
        BYTE   PATT
         POIN2  song023_8_16
// 023   ----------------------------------------
        BYTE   PATT
         POIN2  song023_8_17
// 024   ----------------------------------------
song023_8_24:
        BYTE           N07     Dn2   v112
        BYTE   W12
        BYTE                   Dn2
        BYTE   W12
        BYTE           N04     Fn2
        BYTE   W12
        BYTE           N07     Dn2
        BYTE   W12
        BYTE                   Dn2
        BYTE   W12
        BYTE           N04     Fn2
        BYTE   W12
        BYTE           N07     Dn2
        BYTE   W12
        BYTE                   Dn2
        BYTE   W12
        BYTE   PEND
// 025   ----------------------------------------
        BYTE           N04     Fn2
        BYTE   W12
        BYTE           N07     Dn2
        BYTE   W12
        BYTE                   Dn2
        BYTE   W12
        BYTE           N04     Fn2
        BYTE   W12
        BYTE           N07     Dn2
        BYTE   W12
        BYTE           N04     Fn2
        BYTE   W12
        BYTE           N07     An2
        BYTE   W12
        BYTE                   Gs2
        BYTE   W12
// 026   ----------------------------------------
        BYTE   PATT
         POIN2  song023_8_24
// 027   ----------------------------------------
        BYTE           N04     Fn2   v112
        BYTE   W12
        BYTE           N07     Dn2
        BYTE   W12
        BYTE                   Dn2
        BYTE   W12
        BYTE           N04     Fn2
        BYTE   W12
        BYTE           N07     Dn2
        BYTE   W12
        BYTE           N04     Fn2
        BYTE   W24
        BYTE           N07     Gs2
        BYTE   W12
// 028   ----------------------------------------
song023_8_28:
        BYTE           N07     Ds2   v112
        BYTE   W12
        BYTE                   Ds2
        BYTE   W12
        BYTE           N04     Fs2
        BYTE   W12
        BYTE           N07     Ds2
        BYTE   W12
        BYTE                   Ds2
        BYTE   W12
        BYTE           N04     Fs2
        BYTE   W12
        BYTE           N07     Ds2
        BYTE   W12
        BYTE                   Ds2
        BYTE   W12
        BYTE   PEND
// 029   ----------------------------------------
        BYTE           N04     Fs2
        BYTE   W12
        BYTE           N07     Ds2
        BYTE   W12
        BYTE                   Ds2
        BYTE   W12
        BYTE           N04     Fs2
        BYTE   W12
        BYTE           N07     Ds2
        BYTE   W12
        BYTE           N04     Fs2
        BYTE   W24
        BYTE           N07     An2
        BYTE   W12
// 030   ----------------------------------------
        BYTE   PATT
         POIN2  song023_8_28
// 031   ----------------------------------------
        BYTE           N04     Fs2   v112
        BYTE   W12
        BYTE           N07     Ds2
        BYTE   W12
        BYTE                   Ds2
        BYTE   W12
        BYTE           N04     Fs2
        BYTE   W12
        BYTE           N07     Ds2
        BYTE   W12
        BYTE           N04     Fs2
        BYTE   W12
        BYTE           N07     As2
        BYTE   W12
        BYTE                   An2
        BYTE   W12
// 032   ----------------------------------------
        BYTE   GoTo
         POIN2  song023_8_LOOP
        BYTE   FINE

//****************** Track 9 (Midi-Chn.9) ******************//

song023_9:
        BYTE   KEYSH   song023_key+0
// 000   ----------------------------------------
song023_9_LOOP:
        BYTE           VOICE   108
        BYTE           VOL     59
        BYTE           BENDR   30
        BYTE           N06     Cn4   v112
        BYTE   W06
        BYTE                   Gn3
        BYTE   W06
        BYTE           N12     Cn4
        BYTE   W84
// 001   ----------------------------------------
        BYTE   W96
// 002   ----------------------------------------
        BYTE   W96
// 003   ----------------------------------------
        BYTE   W96
// 004   ----------------------------------------
        BYTE   W96
// 005   ----------------------------------------
        BYTE   W96
// 006   ----------------------------------------
        BYTE   W96
// 007   ----------------------------------------
        BYTE   W96
// 008   ----------------------------------------
song023_9_8:
        BYTE           N12     Cn4   v112
        BYTE   W12
        BYTE                   Gn3
        BYTE   W24
        BYTE                   Cn4
        BYTE   W60
        BYTE   PEND
// 009   ----------------------------------------
song023_9_9:
        BYTE   W36
        BYTE           N12     Gn3   v095
        BYTE   W12
        BYTE                   Cn4   v098
        BYTE   W12
        BYTE                   Gn3   v100
        BYTE   W12
        BYTE                   Cn4   v105
        BYTE   W12
        BYTE                   Gn3   v108
        BYTE   W12
        BYTE   PEND
// 010   ----------------------------------------
        BYTE   PATT
         POIN2  song023_9_8
// 011   ----------------------------------------
        BYTE   W84
        BYTE           N12     Gn3   v112
        BYTE   W12
// 012   ----------------------------------------
        BYTE   PATT
         POIN2  song023_9_8
// 013   ----------------------------------------
        BYTE   PATT
         POIN2  song023_9_9
// 014   ----------------------------------------
        BYTE           N12     Cn4   v112
        BYTE   W36
        BYTE                   Cn4
        BYTE   W60
// 015   ----------------------------------------
        BYTE   W72
        BYTE                   Cn4
        BYTE   W24
// 016   ----------------------------------------
song023_9_16:
        BYTE           N12     Cs4   v112
        BYTE   W36
        BYTE                   Cs4
        BYTE   W60
        BYTE   PEND
// 017   ----------------------------------------
song023_9_17:
        BYTE   W48
        BYTE           N12     Cs4   v112
        BYTE   W24
        BYTE                   En4
        BYTE   W24
        BYTE   PEND
// 018   ----------------------------------------
song023_9_18:
        BYTE           N12     Cs4   v112
        BYTE   W12
        BYTE                   Gs3
        BYTE   W24
        BYTE                   Cs4
        BYTE   W60
        BYTE   PEND
// 019   ----------------------------------------
        BYTE   W96
// 020   ----------------------------------------
        BYTE   PATT
         POIN2  song023_9_16
// 021   ----------------------------------------
        BYTE   PATT
         POIN2  song023_9_17
// 022   ----------------------------------------
        BYTE   PATT
         POIN2  song023_9_18
// 023   ----------------------------------------
        BYTE   PATT
         POIN2  song023_9_16
// 024   ----------------------------------------
song023_9_24:
        BYTE           N12     Dn4   v112
        BYTE   W12
        BYTE                   An3
        BYTE   W24
        BYTE                   Dn4
        BYTE   W60
        BYTE   PEND
// 025   ----------------------------------------
        BYTE   W60
        BYTE                   An3   v100
        BYTE   W12
        BYTE                   Dn4   v105
        BYTE   W12
        BYTE                   An3   v108
        BYTE   W12
// 026   ----------------------------------------
        BYTE   PATT
         POIN2  song023_9_24
// 027   ----------------------------------------
        BYTE   W60
        BYTE           N12     An3   v100
        BYTE   W12
        BYTE                   Dn4   v105
        BYTE   W12
        BYTE           N11     An3   v108
        BYTE   W12
// 028   ----------------------------------------
song023_9_28:
        BYTE           N12     Ds4   v112
        BYTE   W12
        BYTE                   As3
        BYTE   W24
        BYTE                   Ds4
        BYTE   W60
        BYTE   PEND
// 029   ----------------------------------------
        BYTE   W60
        BYTE                   As3   v100
        BYTE   W12
        BYTE                   Ds4   v105
        BYTE   W12
        BYTE           N11     As3   v108
        BYTE   W12
// 030   ----------------------------------------
        BYTE   PATT
         POIN2  song023_9_28
// 031   ----------------------------------------
        BYTE   W60
        BYTE           N12     As3   v112
        BYTE   W12
        BYTE                   Ds4
        BYTE   W24
// 032   ----------------------------------------
        BYTE   GoTo
         POIN2  song023_9_LOOP
        BYTE   FINE

//***************** Track 10 (Midi-Chn.10) *****************//

song023_10:
        BYTE   KEYSH   song023_key+0
// 000   ----------------------------------------
song023_10_LOOP:
        BYTE           VOICE   5
        BYTE           VOL     59
        BYTE           BENDR   30
        BYTE           N48     Cn3   v112
        BYTE   W96
// 001   ----------------------------------------
        BYTE   W96
// 002   ----------------------------------------
        BYTE   W96
// 003   ----------------------------------------
        BYTE   W96
// 004   ----------------------------------------
        BYTE   W96
// 005   ----------------------------------------
        BYTE   W96
// 006   ----------------------------------------
        BYTE   W96
// 007   ----------------------------------------
        BYTE   W96
// 008   ----------------------------------------
        BYTE   W96
// 009   ----------------------------------------
        BYTE   W96
// 010   ----------------------------------------
        BYTE   W96
// 011   ----------------------------------------
        BYTE   W96
// 012   ----------------------------------------
        BYTE   W96
// 013   ----------------------------------------
        BYTE   W96
// 014   ----------------------------------------
        BYTE   W96
// 015   ----------------------------------------
        BYTE   W96
// 016   ----------------------------------------
        BYTE   W96
// 017   ----------------------------------------
        BYTE   W96
// 018   ----------------------------------------
        BYTE   W96
// 019   ----------------------------------------
        BYTE   W96
// 020   ----------------------------------------
        BYTE   W96
// 021   ----------------------------------------
        BYTE   W96
// 022   ----------------------------------------
        BYTE   W96
// 023   ----------------------------------------
        BYTE   W96
// 024   ----------------------------------------
song023_10_24:
        BYTE   W36
        BYTE           N48     Cn3   v112
        BYTE   W60
        BYTE   PEND
// 025   ----------------------------------------
        BYTE   W96
// 026   ----------------------------------------
        BYTE   PATT
         POIN2  song023_10_24
// 027   ----------------------------------------
        BYTE   W96
// 028   ----------------------------------------
        BYTE   PATT
         POIN2  song023_10_24
// 029   ----------------------------------------
        BYTE   W96
// 030   ----------------------------------------
        BYTE   PATT
         POIN2  song023_10_24
// 031   ----------------------------------------
        BYTE   W96
// 032   ----------------------------------------
        BYTE   GoTo
         POIN2  song023_10_LOOP
        BYTE   FINE

//***************** Track 11 (Midi-Chn.11) *****************//

song023_11:
        BYTE   KEYSH   song023_key+0
// 000   ----------------------------------------
song023_11_LOOP:
        BYTE           VOICE   63
        BYTE           VOL     42
        BYTE           BENDR   30
        BYTE           N08     Cn3   v087
        BYTE           N06     Gn2
        BYTE   W06
        BYTE           N08     Fs3
        BYTE   W06
        BYTE           N11     Cn4   v095
        BYTE   W12
        BYTE           N06     Cn4   v081
        BYTE   W12
        BYTE                   Cn4   v071
        BYTE   W12
        BYTE                   Cn4   v063
        BYTE   W48
// 001   ----------------------------------------
        BYTE   W96
// 002   ----------------------------------------
        BYTE   W96
// 003   ----------------------------------------
        BYTE   W96
// 004   ----------------------------------------
song023_11_4:
        BYTE           N06     Cn3   v081
        BYTE   W06
        BYTE                   Cs3   v059
        BYTE   W06
        BYTE                   Cn3   v081
        BYTE   W06
        BYTE                   Cs3   v059
        BYTE   W06
        BYTE                   Ds3   v081
        BYTE   W06
        BYTE                   Cs3   v059
        BYTE   W06
        BYTE                   Ds3   v081
        BYTE   W06
        BYTE                   Cs3   v059
        BYTE   W06
        BYTE                   Cn3   v081
        BYTE   W06
        BYTE                   Cs3
        BYTE   W06
        BYTE                   Cn3   v059
        BYTE   W06
        BYTE                   Cs3   v081
        BYTE   W06
        BYTE                   Ds3
        BYTE   W06
        BYTE                   Cs3   v059
        BYTE   W06
        BYTE                   Ds3   v081
        BYTE   W06
        BYTE                   Cs3   v059
        BYTE   W06
        BYTE   PEND
// 005   ----------------------------------------
song023_11_5:
        BYTE           N06     Cn3   v081
        BYTE   W06
        BYTE                   Cs3   v059
        BYTE   W06
        BYTE                   Cn3   v081
        BYTE   W06
        BYTE                   Cs3   v059
        BYTE   W06
        BYTE                   Ds3   v081
        BYTE   W06
        BYTE                   En3   v059
        BYTE   W06
        BYTE                   Ds3   v081
        BYTE   W06
        BYTE                   En3   v059
        BYTE   W06
        BYTE                   Fs3   v081
        BYTE   W06
        BYTE                   En3
        BYTE   W06
        BYTE                   Fs3   v059
        BYTE   W06
        BYTE                   En3   v081
        BYTE   W06
        BYTE                   Ds3   v059
        BYTE   W06
        BYTE                   En3   v081
        BYTE   W06
        BYTE                   Ds3   v059
        BYTE   W06
        BYTE                   Cs3   v081
        BYTE   W06
        BYTE   PEND
// 006   ----------------------------------------
        BYTE   PATT
         POIN2  song023_11_4
// 007   ----------------------------------------
song023_11_7:
        BYTE           N06     Cn3   v081
        BYTE   W06
        BYTE                   Cs3   v059
        BYTE   W06
        BYTE                   Cn3   v081
        BYTE   W06
        BYTE                   Cs3   v059
        BYTE   W06
        BYTE                   Ds3   v081
        BYTE   W06
        BYTE                   En3   v059
        BYTE   W06
        BYTE                   Ds3   v081
        BYTE   W06
        BYTE                   En3   v059
        BYTE   W06
        BYTE                   Fs3   v081
        BYTE   W06
        BYTE                   Gn3
        BYTE   W06
        BYTE                   Fs3   v059
        BYTE   W06
        BYTE                   En3   v081
        BYTE   W06
        BYTE                   Ds3   v059
        BYTE   W06
        BYTE                   En3   v081
        BYTE   W06
        BYTE                   Ds3   v059
        BYTE   W06
        BYTE                   Cs3   v081
        BYTE   W06
        BYTE   PEND
// 008   ----------------------------------------
        BYTE   PATT
         POIN2  song023_11_4
// 009   ----------------------------------------
        BYTE   PATT
         POIN2  song023_11_5
// 010   ----------------------------------------
        BYTE   PATT
         POIN2  song023_11_4
// 011   ----------------------------------------
        BYTE   PATT
         POIN2  song023_11_7
// 012   ----------------------------------------
        BYTE   PATT
         POIN2  song023_11_4
// 013   ----------------------------------------
        BYTE   PATT
         POIN2  song023_11_5
// 014   ----------------------------------------
        BYTE   PATT
         POIN2  song023_11_4
// 015   ----------------------------------------
        BYTE   PATT
         POIN2  song023_11_7
// 016   ----------------------------------------
song023_11_16:
        BYTE           N06     Cs3   v081
        BYTE   W06
        BYTE                   Dn3   v059
        BYTE   W06
        BYTE                   Cs3   v081
        BYTE   W06
        BYTE                   Dn3   v059
        BYTE   W06
        BYTE                   En3   v081
        BYTE   W06
        BYTE                   Dn3   v059
        BYTE   W06
        BYTE                   En3   v081
        BYTE   W06
        BYTE                   Dn3   v059
        BYTE   W06
        BYTE                   Cs3   v081
        BYTE   W06
        BYTE                   Dn3
        BYTE   W06
        BYTE                   Cs3   v059
        BYTE   W06
        BYTE                   Dn3   v081
        BYTE   W06
        BYTE                   En3
        BYTE   W06
        BYTE                   Dn3   v059
        BYTE   W06
        BYTE                   En3   v081
        BYTE   W06
        BYTE                   Dn3   v059
        BYTE   W06
        BYTE   PEND
// 017   ----------------------------------------
song023_11_17:
        BYTE           N06     Cs3   v081
        BYTE   W06
        BYTE                   Dn3   v059
        BYTE   W06
        BYTE                   Cs3   v081
        BYTE   W06
        BYTE                   Dn3   v059
        BYTE   W06
        BYTE                   En3   v081
        BYTE   W06
        BYTE                   Fn3   v059
        BYTE   W06
        BYTE                   En3   v081
        BYTE   W06
        BYTE                   Fn3   v059
        BYTE   W06
        BYTE                   Gn3   v081
        BYTE   W06
        BYTE                   Fn3
        BYTE   W06
        BYTE                   Gn3   v059
        BYTE   W06
        BYTE                   Fn3   v081
        BYTE   W06
        BYTE                   En3   v059
        BYTE   W06
        BYTE                   Fn3   v081
        BYTE   W06
        BYTE                   En3   v059
        BYTE   W06
        BYTE                   Dn3   v081
        BYTE   W06
        BYTE   PEND
// 018   ----------------------------------------
        BYTE   PATT
         POIN2  song023_11_16
// 019   ----------------------------------------
        BYTE           N06     Cs3   v081
        BYTE   W06
        BYTE                   Dn3   v059
        BYTE   W06
        BYTE                   Cs3   v081
        BYTE   W06
        BYTE                   Dn3   v059
        BYTE   W06
        BYTE                   En3   v081
        BYTE   W06
        BYTE                   Fn3   v059
        BYTE   W06
        BYTE                   En3   v081
        BYTE   W06
        BYTE                   Fn3   v059
        BYTE   W06
        BYTE                   Gn3   v081
        BYTE   W06
        BYTE                   Gs3
        BYTE   W06
        BYTE                   Gn3   v059
        BYTE   W06
        BYTE                   Fn3   v081
        BYTE   W06
        BYTE                   En3   v059
        BYTE   W06
        BYTE                   Fn3   v081
        BYTE   W06
        BYTE                   En3   v059
        BYTE   W06
        BYTE                   Dn3   v081
        BYTE   W06
// 020   ----------------------------------------
        BYTE   PATT
         POIN2  song023_11_16
// 021   ----------------------------------------
        BYTE   PATT
         POIN2  song023_11_17
// 022   ----------------------------------------
        BYTE           N06     Cs3   v081
        BYTE   W06
        BYTE                   Dn3   v059
        BYTE   W06
        BYTE                   Cs3   v081
        BYTE   W06
        BYTE                   Dn3   v059
        BYTE   W06
        BYTE                   En3   v081
        BYTE   W06
        BYTE                   Dn3   v059
        BYTE   W06
        BYTE                   En3   v081
        BYTE   W06
        BYTE                   Dn3   v059
        BYTE   W06
        BYTE                   Cs3   v081
        BYTE   W06
        BYTE                   Dn3
        BYTE   W06
        BYTE                   Cs3   v059
        BYTE   W06
        BYTE                   Dn3   v081
        BYTE   W06
        BYTE                   En3
        BYTE   W06
        BYTE                   Dn3   v059
        BYTE   W06
        BYTE                   En3   v081
        BYTE   W12
// 023   ----------------------------------------
        BYTE   W24
        BYTE                   En3
        BYTE   W06
        BYTE                   Fn3   v059
        BYTE   W06
        BYTE                   En3   v081
        BYTE   W06
        BYTE                   Fn3   v059
        BYTE   W06
        BYTE                   Gn3   v081
        BYTE   W06
        BYTE                   Gs3
        BYTE   W06
        BYTE                   Gn3   v059
        BYTE   W06
        BYTE                   Fn3   v081
        BYTE   W06
        BYTE                   En3   v059
        BYTE   W06
        BYTE                   Fn3   v081
        BYTE   W06
        BYTE                   En3   v059
        BYTE   W06
        BYTE                   Dn3   v081
        BYTE   W06
// 024   ----------------------------------------
        BYTE   W96
// 025   ----------------------------------------
        BYTE   W96
// 026   ----------------------------------------
        BYTE   W96
// 027   ----------------------------------------
        BYTE   W96
// 028   ----------------------------------------
        BYTE   W96
// 029   ----------------------------------------
        BYTE   W96
// 030   ----------------------------------------
        BYTE   W96
// 031   ----------------------------------------
        BYTE   W96
// 032   ----------------------------------------
        BYTE   GoTo
         POIN2  song023_11_LOOP
        BYTE   FINE

//***************** Track 12 (Midi-Chn.12) *****************//

song023_12:
        BYTE   KEYSH   song023_key+0
// 000   ----------------------------------------
song023_12_LOOP:
        BYTE           VOICE   22
        BYTE           VOL     66
        BYTE           BENDR   30
        BYTE   W96
// 001   ----------------------------------------
        BYTE   W96
// 002   ----------------------------------------
        BYTE   W96
// 003   ----------------------------------------
        BYTE   W96
// 004   ----------------------------------------
        BYTE   W96
// 005   ----------------------------------------
        BYTE   W96
// 006   ----------------------------------------
        BYTE   W96
// 007   ----------------------------------------
        BYTE   W96
// 008   ----------------------------------------
        BYTE   W96
// 009   ----------------------------------------
        BYTE   W96
// 010   ----------------------------------------
        BYTE   W96
// 011   ----------------------------------------
        BYTE   W96
// 012   ----------------------------------------
        BYTE   W96
// 013   ----------------------------------------
        BYTE   W96
// 014   ----------------------------------------
        BYTE   W96
// 015   ----------------------------------------
        BYTE   W96
// 016   ----------------------------------------
        BYTE   W06
        BYTE           VOL     56
        BYTE           TIE     As3   v067
        BYTE   W06
        BYTE           VOL     58
        BYTE   W06
        BYTE                   59
        BYTE   W06
        BYTE                   58
        BYTE   W18
        BYTE                   59
        BYTE   W12
        BYTE                   61
        BYTE   W12
        BYTE                   63
        BYTE   W06
        BYTE                   64
        BYTE   W06
        BYTE                   65
        BYTE   W06
        BYTE                   66
        BYTE   W12
// 017   ----------------------------------------
        BYTE   W18
        BYTE                   64
        BYTE   W06
        BYTE                   60
        BYTE   W06
        BYTE                   58
        BYTE   W04
        BYTE           EOT
        BYTE   W02
        BYTE           VOL     52
        BYTE   W18
        BYTE                   66
        BYTE           N16     An3
        BYTE   W18
        BYTE                   En3
        BYTE   W24
// 018   ----------------------------------------
        BYTE   W06
        BYTE           VOL     53
        BYTE           TIE     Cs3
        BYTE   W06
        BYTE           VOL     55
        BYTE   W06
        BYTE                   56
        BYTE   W06
        BYTE                   57
        BYTE   W06
        BYTE                   58
        BYTE   W06
        BYTE                   59
        BYTE   W06
        BYTE                   61
        BYTE   W06
        BYTE                   64
        BYTE   W06
        BYTE                   66
        BYTE   W42
// 019   ----------------------------------------
        BYTE   W12
        BYTE                   64
        BYTE   W06
        BYTE                   61
        BYTE   W06
        BYTE                   58
        BYTE   W10
        BYTE           EOT
        BYTE   W08
        BYTE           VOL     66
        BYTE           N10     Ds3
        BYTE   W12
        BYTE           N16     En3
        BYTE   W36
        BYTE           VOL     52
        BYTE           TIE     Ds4
        BYTE   W06
// 020   ----------------------------------------
        BYTE           VOL     56
        BYTE   W06
        BYTE                   59
        BYTE   W06
        BYTE                   62
        BYTE   W06
        BYTE                   64
        BYTE   W06
        BYTE                   66
        BYTE   W72
// 021   ----------------------------------------
        BYTE   W12
        BYTE                   64
        BYTE   W06
        BYTE                   60
        BYTE   W04
        BYTE           EOT
        BYTE   W02
        BYTE           VOL     55
        BYTE   W06
        BYTE                   46
        BYTE   W12
        BYTE                   66
        BYTE           N10     Cs4
        BYTE   W12
        BYTE           N16     Cn4
        BYTE   W36
        BYTE           VOL     49
        BYTE           N80     An3
        BYTE   W06
// 022   ----------------------------------------
        BYTE           VOL     54
        BYTE   W06
        BYTE                   58
        BYTE   W06
        BYTE                   61
        BYTE   W06
        BYTE                   63
        BYTE   W06
        BYTE                   64
        BYTE   W06
        BYTE                   66
        BYTE   W66
// 023   ----------------------------------------
        BYTE   W06
        BYTE           N80     Fs3
        BYTE   W66
        BYTE           VOL     64
        BYTE   W06
        BYTE                   63
        BYTE   W06
        BYTE                   62
        BYTE   W06
        BYTE                   59
        BYTE   W06
// 024   ----------------------------------------
        BYTE                   53
        BYTE   W06
        BYTE                   41
        BYTE   W90
// 025   ----------------------------------------
        BYTE   W06
        BYTE                   56
        BYTE           TIE     Fn3
        BYTE   W06
        BYTE           VOL     63
        BYTE   W06
        BYTE                   59
        BYTE   W06
        BYTE                   56
        BYTE   W06
        BYTE                   52
        BYTE   W06
        BYTE                   50
        BYTE   W06
        BYTE                   51
        BYTE   W12
        BYTE                   53
        BYTE   W06
        BYTE                   54
        BYTE   W06
        BYTE                   55
        BYTE   W06
        BYTE                   56
        BYTE   W06
        BYTE                   58
        BYTE   W06
        BYTE                   59
        BYTE   W06
        BYTE                   61
        BYTE   W06
// 026   ----------------------------------------
        BYTE                   63
        BYTE   W06
        BYTE                   66
        BYTE   W90
// 027   ----------------------------------------
        BYTE   W12
        BYTE                   64
        BYTE   W06
        BYTE                   62
        BYTE   W06
        BYTE                   58
        BYTE   W04
        BYTE           EOT
        BYTE   W02
        BYTE           VOL     54
        BYTE   W06
        BYTE                   48
        BYTE   W06
        BYTE                   38
        BYTE   W12
        BYTE                   66
        BYTE           N16     Fs3
        BYTE   W18
        BYTE                   An3
        BYTE   W24
// 028   ----------------------------------------
        BYTE   W96
// 029   ----------------------------------------
        BYTE   W36
        BYTE           VOL     64
        BYTE   W18
        BYTE                   63
        BYTE   W12
        BYTE                   61
        BYTE   W06
        BYTE                   60
        BYTE   W06
        BYTE                   59
        BYTE   W06
        BYTE                   58
        BYTE   W06
        BYTE                   64
        BYTE   W06
// 030   ----------------------------------------
        BYTE                   66
        BYTE   W06
        BYTE                   61
        BYTE   W06
        BYTE                   58
        BYTE   W06
        BYTE                   53
        BYTE   W06
        BYTE                   52
        BYTE   W06
        BYTE                   54
        BYTE   W06
        BYTE                   55
        BYTE   W06
        BYTE                   58
        BYTE   W06
        BYTE                   59
        BYTE   W06
        BYTE                   61
        BYTE   W12
        BYTE                   63
        BYTE   W06
        BYTE                   64
        BYTE   W18
        BYTE                   66
        BYTE   W06
// 031   ----------------------------------------
        BYTE   W06
        BYTE                   65
        BYTE   W48
        BYTE                   64
        BYTE   W18
        BYTE                   63
        BYTE   W06
        BYTE                   61
        BYTE   W06
        BYTE                   56
        BYTE   W06
        BYTE                   52
        BYTE   W06
// 032   ----------------------------------------
        BYTE                   66
        BYTE   GoTo
         POIN2  song023_12_LOOP
        BYTE   FINE


//********************** End of Song ***********************//

        ALIGN 4
song023:
        BYTE   13                      // Num Tracks
        BYTE   0                       // Unknown
        BYTE   song023_pri             // Priority
        BYTE   song023_rev             // Reverb

        POIN2   song023_grp            

        POIN2   song023_0
        POIN2   song023_1
        POIN2   song023_2
        POIN2   song023_3
        POIN2   song023_4
        POIN2   song023_5
        POIN2   song023_6
        POIN2   song023_7
        POIN2   song023_8
        POIN2   song023_9
        POIN2   song023_10
        POIN2   song023_11
        POIN2   song023_12

        
