//Event file generated from Sappy .s format.
        #include "MPlayDef.event"

        #define    song008_grp  soundbank_014
        #define    song008_pri  0
        #define    song008_rev  0
        #define    song008_key  0

        // .rodata
        // song008
        ALIGN 4

//****************** Track 0 (Midi-Chn.0) ******************//

song008_0:
        BYTE   KEYSH   song008_key+0
// 000   ----------------------------------------
        BYTE   TEMPO   126/2
song008_0_LOOP:
        BYTE           VOICE   4
        BYTE           VOL     62
        BYTE           BENDR   30
        BYTE   W96
// 001   ----------------------------------------
        BYTE   W96
// 002   ----------------------------------------
        BYTE   W96
// 003   ----------------------------------------
        BYTE   W96
// 004   ----------------------------------------
        BYTE   W96
// 005   ----------------------------------------
        BYTE   W96
// 006   ----------------------------------------
        BYTE   W96
// 007   ----------------------------------------
        BYTE   W96
// 008   ----------------------------------------
        BYTE   W96
// 009   ----------------------------------------
        BYTE   W96
// 010   ----------------------------------------
        BYTE   W96
// 011   ----------------------------------------
        BYTE   W96
// 012   ----------------------------------------
        BYTE   W96
// 013   ----------------------------------------
        BYTE   W96
// 014   ----------------------------------------
        BYTE   W96
// 015   ----------------------------------------
        BYTE   W96
// 016   ----------------------------------------
        BYTE           VOL     40
        BYTE           TIE     En3   v081
        BYTE   W12
        BYTE           VOL     43
        BYTE   W12
        BYTE                   46
        BYTE   W12
        BYTE                   49
        BYTE   W12
        BYTE                   52
        BYTE   W12
        BYTE                   55
        BYTE   W12
        BYTE                   58
        BYTE   W12
        BYTE                   60
        BYTE   W12
// 017   ----------------------------------------
        BYTE                   63
        BYTE   W12
        BYTE                   62
        BYTE   W12
        BYTE                   61
        BYTE   W24
        BYTE                   60
        BYTE   W12
        BYTE                   59
        BYTE   W24
        BYTE                   58
        BYTE   W12
// 018   ----------------------------------------
        BYTE   W12
        BYTE                   57
        BYTE   W12
        BYTE                   56
        BYTE   W12
        BYTE                   55
        BYTE   W24
        BYTE                   54
        BYTE   W12
        BYTE                   53
        BYTE   W24
// 019   ----------------------------------------
        BYTE                   52
        BYTE   W12
        BYTE                   49
        BYTE   W12
        BYTE                   46
        BYTE   W12
        BYTE                   43
        BYTE   W12
        BYTE                   39
        BYTE   W12
        BYTE                   35
        BYTE   W12
        BYTE                   29
        BYTE   W23
        BYTE           EOT
        BYTE   W01
// 020   ----------------------------------------
        BYTE   W96
// 021   ----------------------------------------
        BYTE   W96
// 022   ----------------------------------------
        BYTE   W96
// 023   ----------------------------------------
        BYTE   W96
// 024   ----------------------------------------
        BYTE   W96
// 025   ----------------------------------------
        BYTE   W96
// 026   ----------------------------------------
        BYTE   W24
        BYTE           VOL     44
        BYTE           TIE
        BYTE   W12
        BYTE           VOL     46
        BYTE   W12
        BYTE                   49
        BYTE   W12
        BYTE                   50
        BYTE   W12
        BYTE                   52
        BYTE   W12
        BYTE                   54
        BYTE   W12
// 027   ----------------------------------------
        BYTE                   56
        BYTE   W12
        BYTE                   58
        BYTE   W12
        BYTE                   59
        BYTE   W12
        BYTE                   61
        BYTE   W12
        BYTE                   63
        BYTE   W12
        BYTE                   61
        BYTE   W24
        BYTE                   60
        BYTE   W12
// 028   ----------------------------------------
        BYTE                   59
        BYTE   W24
        BYTE                   58
        BYTE   W12
        BYTE                   56
        BYTE   W24
        BYTE                   55
        BYTE   W12
        BYTE                   54
        BYTE   W12
        BYTE                   53
        BYTE   W11
        BYTE           EOT
        BYTE   W01
// 029   ----------------------------------------
        BYTE           VOL     52
        BYTE           TIE     Fs3
        BYTE   W12
        BYTE           VOL     53
        BYTE   W12
        BYTE                   54
        BYTE   W24
        BYTE                   55
        BYTE   W12
        BYTE                   56
        BYTE   W12
        BYTE                   57
        BYTE   W12
        BYTE                   58
        BYTE   W12
// 030   ----------------------------------------
        BYTE                   59
        BYTE   W12
        BYTE                   60
        BYTE   W24
        BYTE                   61
        BYTE   W12
        BYTE                   63
        BYTE   W12
        BYTE                   61
        BYTE   W12
        BYTE                   59
        BYTE   W12
        BYTE                   57
        BYTE   W12
// 031   ----------------------------------------
        BYTE                   55
        BYTE   W12
        BYTE                   54
        BYTE   W12
        BYTE                   51
        BYTE   W12
        BYTE                   49
        BYTE   W12
        BYTE                   47
        BYTE   W12
        BYTE                   38
        BYTE   W06
        BYTE                   34
        BYTE   W22
        BYTE           EOT
        BYTE   W08
// 032   ----------------------------------------
        BYTE           VOL     62
        BYTE   GoTo
         POIN2  song008_0_LOOP
        BYTE   FINE

//****************** Track 1 (Midi-Chn.1) ******************//

song008_1:
        BYTE   KEYSH   song008_key+0
// 000   ----------------------------------------
song008_1_LOOP:
        BYTE           VOICE   110
        BYTE           VOL     63
        BYTE           BENDR   30
        BYTE   W96
// 001   ----------------------------------------
        BYTE   W96
// 002   ----------------------------------------
        BYTE   W96
// 003   ----------------------------------------
        BYTE   W96
// 004   ----------------------------------------
        BYTE           N92     Gn2   v098
        BYTE   W96
// 005   ----------------------------------------
        BYTE           N44     Bn2
        BYTE   W48
        BYTE                   En3   v095
        BYTE   W48
// 006   ----------------------------------------
        BYTE           TIE     Fs3   v087
        BYTE   W96
// 007   ----------------------------------------
        BYTE   W84
        BYTE           EOT
        BYTE   W12
// 008   ----------------------------------------
        BYTE   W96
// 009   ----------------------------------------
        BYTE   W96
// 010   ----------------------------------------
        BYTE   W96
// 011   ----------------------------------------
        BYTE   W96
// 012   ----------------------------------------
        BYTE           N92     Gn2   v098
        BYTE   W96
// 013   ----------------------------------------
        BYTE           N44     Bn2
        BYTE   W48
        BYTE                   En3
        BYTE   W48
// 014   ----------------------------------------
        BYTE           N11     Fs3
        BYTE   W12
        BYTE                   Gn3   v090
        BYTE   W12
        BYTE           TIE     Fs3   v098
        BYTE   W72
// 015   ----------------------------------------
        BYTE   W40
        BYTE   W01
        BYTE           EOT
        BYTE   W07
        BYTE           N44     Dn3
        BYTE   W48
// 016   ----------------------------------------
        BYTE           TIE     En3
        BYTE   W96
// 017   ----------------------------------------
        BYTE   W90
        BYTE   W01
        BYTE           EOT
        BYTE   W05
// 018   ----------------------------------------
        BYTE   W96
// 019   ----------------------------------------
        BYTE   W96
// 020   ----------------------------------------
        BYTE   W96
// 021   ----------------------------------------
        BYTE   W96
// 022   ----------------------------------------
        BYTE   W96
// 023   ----------------------------------------
        BYTE   W96
// 024   ----------------------------------------
        BYTE   W96
// 025   ----------------------------------------
        BYTE   W96
// 026   ----------------------------------------
        BYTE   W96
// 027   ----------------------------------------
        BYTE   W96
// 028   ----------------------------------------
        BYTE   W96
// 029   ----------------------------------------
        BYTE   W96
// 030   ----------------------------------------
        BYTE   W96
// 031   ----------------------------------------
        BYTE   W96
// 032   ----------------------------------------
        BYTE   GoTo
         POIN2  song008_1_LOOP
        BYTE   FINE

//****************** Track 2 (Midi-Chn.2) ******************//

song008_2:
        BYTE   KEYSH   song008_key+0
// 000   ----------------------------------------
song008_2_LOOP:
        BYTE           VOICE   95
        BYTE           VOL     62
        BYTE           BENDR   30
        BYTE           N12     En2   v095
        BYTE   W12
        BYTE                   Dn3   v100
        BYTE   W12
        BYTE                   Gn2   v087
        BYTE   W12
        BYTE                   An2   v100
        BYTE   W12
        BYTE                   En2   v095
        BYTE   W12
        BYTE                   Dn3   v100
        BYTE   W12
        BYTE                   Gn2   v087
        BYTE   W12
        BYTE                   An2   v100
        BYTE   W12
// 001   ----------------------------------------
song008_2_1:
        BYTE           N12     En2   v095
        BYTE   W12
        BYTE                   Dn3   v100
        BYTE   W12
        BYTE                   Gn2   v087
        BYTE   W12
        BYTE                   An2   v100
        BYTE   W12
        BYTE                   En2   v095
        BYTE   W12
        BYTE                   Dn3   v100
        BYTE   W12
        BYTE                   Gn2   v087
        BYTE   W12
        BYTE                   An2   v100
        BYTE   W12
        BYTE   PEND
// 002   ----------------------------------------
song008_2_2:
        BYTE           N12     Ds2   v095
        BYTE   W12
        BYTE                   Cs3   v100
        BYTE   W12
        BYTE                   Gn2   v087
        BYTE   W12
        BYTE                   An2   v100
        BYTE   W12
        BYTE                   Ds2   v095
        BYTE   W12
        BYTE                   Cs3   v100
        BYTE   W12
        BYTE                   Gn2   v087
        BYTE   W12
        BYTE                   An2   v100
        BYTE   W12
        BYTE   PEND
// 003   ----------------------------------------
        BYTE   PATT
         POIN2  song008_2_2
// 004   ----------------------------------------
        BYTE   PATT
         POIN2  song008_2_1
// 005   ----------------------------------------
        BYTE   PATT
         POIN2  song008_2_1
// 006   ----------------------------------------
        BYTE   PATT
         POIN2  song008_2_2
// 007   ----------------------------------------
        BYTE   PATT
         POIN2  song008_2_2
// 008   ----------------------------------------
        BYTE   PATT
         POIN2  song008_2_1
// 009   ----------------------------------------
        BYTE   PATT
         POIN2  song008_2_1
// 010   ----------------------------------------
        BYTE   PATT
         POIN2  song008_2_2
// 011   ----------------------------------------
        BYTE   PATT
         POIN2  song008_2_2
// 012   ----------------------------------------
        BYTE   PATT
         POIN2  song008_2_1
// 013   ----------------------------------------
        BYTE   PATT
         POIN2  song008_2_1
// 014   ----------------------------------------
        BYTE   PATT
         POIN2  song008_2_2
// 015   ----------------------------------------
        BYTE           N12     Ds2   v095
        BYTE   W12
        BYTE                   Cs3   v100
        BYTE   W12
        BYTE                   Gn2   v087
        BYTE   W12
        BYTE                   An2   v100
        BYTE   W12
        BYTE                   Dn2   v095
        BYTE   W12
        BYTE                   Fs2   v100
        BYTE   W12
        BYTE                   Gs2
        BYTE   W12
        BYTE                   Bn2
        BYTE   W12
// 016   ----------------------------------------
        BYTE                   En2   v095
        BYTE   W12
        BYTE                   Cs3   v100
        BYTE   W12
        BYTE                   Gn2   v087
        BYTE   W12
        BYTE                   Bn2   v100
        BYTE   W12
        BYTE                   En2   v095
        BYTE   W12
        BYTE                   Cs3   v100
        BYTE   W12
        BYTE                   Gn2   v087
        BYTE   W12
        BYTE                   Bn2   v100
        BYTE   W12
// 017   ----------------------------------------
        BYTE                   En2   v095
        BYTE   W12
        BYTE                   Cs3   v100
        BYTE   W12
        BYTE                   Gn2   v087
        BYTE   W12
        BYTE                   Bn2   v100
        BYTE   W24
        BYTE                   Cs3
        BYTE   W12
        BYTE                   Gn2   v087
        BYTE   W12
        BYTE                   Bn2   v100
        BYTE   W12
// 018   ----------------------------------------
        BYTE   PATT
         POIN2  song008_2_1
// 019   ----------------------------------------
        BYTE   W12
        BYTE           N12     Dn3   v100
        BYTE   W12
        BYTE                   Gn2   v087
        BYTE   W12
        BYTE                   An2   v100
        BYTE   W12
        BYTE                   En2   v095
        BYTE   W12
        BYTE                   Dn3   v100
        BYTE   W12
        BYTE                   Gn2   v087
        BYTE   W12
        BYTE                   An2   v100
        BYTE   W12
// 020   ----------------------------------------
        BYTE   W96
// 021   ----------------------------------------
        BYTE   W96
// 022   ----------------------------------------
        BYTE   W96
// 023   ----------------------------------------
        BYTE   W96
// 024   ----------------------------------------
        BYTE   W96
// 025   ----------------------------------------
        BYTE   W72
        BYTE   W03
        BYTE           N03     Bn1
        BYTE   W03
        BYTE                   Cn2
        BYTE   W03
        BYTE                   Dn2
        BYTE   W03
        BYTE                   En2
        BYTE   W03
        BYTE                   Fs2
        BYTE   W03
        BYTE                   Gn2
        BYTE   W03
        BYTE                   An2
        BYTE   W03
// 026   ----------------------------------------
song008_2_26:
        BYTE           N12     En2   v095
        BYTE   W12
        BYTE                   Dn3   v100
        BYTE   W12
        BYTE                   Gn2   v087
        BYTE   W12
        BYTE                   An2   v100
        BYTE   W12
        BYTE                   En2   v095
        BYTE   W12
        BYTE                   Dn3   v100
        BYTE   W12
        BYTE                   Gn2   v081
        BYTE   W12
        BYTE                   An2   v100
        BYTE   W12
        BYTE   PEND
// 027   ----------------------------------------
song008_2_27:
        BYTE           N12     En2   v095
        BYTE   W12
        BYTE                   Dn3   v100
        BYTE   W12
        BYTE                   Gn2   v081
        BYTE   W12
        BYTE                   An2   v100
        BYTE   W12
        BYTE                   En2   v095
        BYTE   W12
        BYTE                   Dn3   v100
        BYTE   W12
        BYTE                   Gn2   v087
        BYTE   W12
        BYTE                   An2   v100
        BYTE   W12
        BYTE   PEND
// 028   ----------------------------------------
song008_2_28:
        BYTE           N12     En2   v095
        BYTE   W12
        BYTE                   Dn3   v100
        BYTE   W12
        BYTE                   Gn2   v081
        BYTE   W12
        BYTE                   An2   v100
        BYTE   W12
        BYTE                   En2   v095
        BYTE   W12
        BYTE                   Dn3   v100
        BYTE   W12
        BYTE                   Gn2   v081
        BYTE   W12
        BYTE                   An2   v100
        BYTE   W12
        BYTE   PEND
// 029   ----------------------------------------
        BYTE   PATT
         POIN2  song008_2_26
// 030   ----------------------------------------
        BYTE   PATT
         POIN2  song008_2_27
// 031   ----------------------------------------
        BYTE   PATT
         POIN2  song008_2_28
// 032   ----------------------------------------
        BYTE   GoTo
         POIN2  song008_2_LOOP
        BYTE   FINE

//****************** Track 3 (Midi-Chn.3) ******************//

song008_3:
        BYTE   KEYSH   song008_key+0
// 000   ----------------------------------------
song008_3_LOOP:
        BYTE           VOICE   105
        BYTE           VOL     55
        BYTE           BENDR   30
        BYTE           N24     En1   v105
        BYTE   W48
        BYTE           N08     Dn2
        BYTE           N08     Bn1
        BYTE   W48
// 001   ----------------------------------------
song008_3_1:
        BYTE           N08     Cs2   v105
        BYTE           N08     As1
        BYTE   W48
        BYTE                   Dn2
        BYTE           N08     Bn1
        BYTE   W48
        BYTE   PEND
// 002   ----------------------------------------
        BYTE           N24     Ds1
        BYTE   W48
        BYTE           N08     Cs2
        BYTE           N08     As1
        BYTE   W48
// 003   ----------------------------------------
song008_3_3:
        BYTE           N08     Cn2   v105
        BYTE           N08     An1
        BYTE   W48
        BYTE                   Cs2
        BYTE           N08     As1
        BYTE   W48
        BYTE   PEND
// 004   ----------------------------------------
        BYTE   W96
// 005   ----------------------------------------
        BYTE   PATT
         POIN2  song008_3_1
// 006   ----------------------------------------
        BYTE   W96
// 007   ----------------------------------------
        BYTE   PATT
         POIN2  song008_3_3
// 008   ----------------------------------------
        BYTE   W96
// 009   ----------------------------------------
        BYTE   PATT
         POIN2  song008_3_1
// 010   ----------------------------------------
        BYTE   W96
// 011   ----------------------------------------
        BYTE   PATT
         POIN2  song008_3_3
// 012   ----------------------------------------
        BYTE   W96
// 013   ----------------------------------------
        BYTE   PATT
         POIN2  song008_3_1
// 014   ----------------------------------------
        BYTE   W96
// 015   ----------------------------------------
        BYTE           N08     Ds2   v105
        BYTE           N08     As1
        BYTE   W48
        BYTE                   Dn2
        BYTE           N08     As1
        BYTE   W48
// 016   ----------------------------------------
        BYTE   W96
// 017   ----------------------------------------
        BYTE   PATT
         POIN2  song008_3_1
// 018   ----------------------------------------
        BYTE   W96
// 019   ----------------------------------------
        BYTE           N08     Cn2   v105
        BYTE           N08     An1
        BYTE   W48
        BYTE                   Dn2
        BYTE           N08     Bn1
        BYTE   W48
// 020   ----------------------------------------
song008_3_20:
        BYTE           N18     As0   v117
        BYTE   W24
        BYTE           N08     Gn1   v112
        BYTE           N08     En1
        BYTE   W24
        BYTE           N18     As0   v117
        BYTE   W24
        BYTE           N08     Gn1   v112
        BYTE           N08     En1
        BYTE   W24
        BYTE   PEND
// 021   ----------------------------------------
song008_3_21:
        BYTE   W48
        BYTE           N18     Bn0   v117
        BYTE   W24
        BYTE           N08     Gn1   v112
        BYTE           N08     En1
        BYTE   W24
        BYTE   PEND
// 022   ----------------------------------------
song008_3_22:
        BYTE           N18     Bn0   v117
        BYTE   W24
        BYTE           N08     Gn1   v112
        BYTE           N08     En1
        BYTE   W72
        BYTE   PEND
// 023   ----------------------------------------
        BYTE   PATT
         POIN2  song008_3_20
// 024   ----------------------------------------
        BYTE   PATT
         POIN2  song008_3_21
// 025   ----------------------------------------
        BYTE   PATT
         POIN2  song008_3_22
// 026   ----------------------------------------
        BYTE   W96
// 027   ----------------------------------------
        BYTE   W96
// 028   ----------------------------------------
        BYTE   W96
// 029   ----------------------------------------
        BYTE   W96
// 030   ----------------------------------------
        BYTE   W96
// 031   ----------------------------------------
        BYTE   W96
// 032   ----------------------------------------
        BYTE   GoTo
         POIN2  song008_3_LOOP
        BYTE   FINE

//****************** Track 4 (Midi-Chn.4) ******************//

song008_4:
        BYTE   KEYSH   song008_key+0
// 000   ----------------------------------------
song008_4_LOOP:
        BYTE           VOICE   101
        BYTE           VOL     62
        BYTE           BENDR   30
        BYTE   W96
// 001   ----------------------------------------
        BYTE   W96
// 002   ----------------------------------------
        BYTE   W96
// 003   ----------------------------------------
        BYTE   W96
// 004   ----------------------------------------
        BYTE   W96
// 005   ----------------------------------------
        BYTE   W96
// 006   ----------------------------------------
        BYTE   W96
// 007   ----------------------------------------
        BYTE   W48
        BYTE           N44     Fs2   v103
        BYTE   W48
// 008   ----------------------------------------
        BYTE           TIE     Bn2   v100
        BYTE   W96
// 009   ----------------------------------------
        BYTE   W40
        BYTE           EOT
        BYTE   W08
        BYTE           N44     En3
        BYTE   W48
// 010   ----------------------------------------
        BYTE           TIE     Fs3   v092
        BYTE   W96
// 011   ----------------------------------------
        BYTE   W84
        BYTE   W02
        BYTE           EOT
        BYTE   W10
// 012   ----------------------------------------
        BYTE   W96
// 013   ----------------------------------------
        BYTE   W96
// 014   ----------------------------------------
        BYTE   W96
// 015   ----------------------------------------
        BYTE   W96
// 016   ----------------------------------------
        BYTE           TIE     Bn2   v081
        BYTE   W96
// 017   ----------------------------------------
        BYTE   W44
        BYTE           EOT
        BYTE   W04
        BYTE           N44     En3   v095
        BYTE   W48
// 018   ----------------------------------------
        BYTE           N68     Bn3   v090
        BYTE   W72
        BYTE           N08     An3   v081
        BYTE   W08
        BYTE                   Gn3   v084
        BYTE   W08
        BYTE                   Fs3   v063
        BYTE   W08
// 019   ----------------------------------------
        BYTE           N76     En3   v087
        BYTE   W96
// 020   ----------------------------------------
        BYTE   W96
// 021   ----------------------------------------
        BYTE   W96
// 022   ----------------------------------------
        BYTE   W96
// 023   ----------------------------------------
        BYTE   W96
// 024   ----------------------------------------
        BYTE   W96
// 025   ----------------------------------------
        BYTE   W96
// 026   ----------------------------------------
        BYTE           VOICE   22
        BYTE   W24
        BYTE           N44     Gn3   v092
        BYTE   W48
        BYTE           N40     Gn3   v090
        BYTE   W24
// 027   ----------------------------------------
        BYTE   W24
        BYTE           N24
        BYTE   W48
        BYTE           N40     Gn3   v098
        BYTE   W24
// 028   ----------------------------------------
        BYTE   W24
        BYTE           N42     Gn3   v090
        BYTE   W48
        BYTE           N21
        BYTE   W24
// 029   ----------------------------------------
        BYTE   W24
        BYTE           N40     Fs3   v092
        BYTE   W48
        BYTE                   Fs3   v090
        BYTE   W24
// 030   ----------------------------------------
        BYTE   W24
        BYTE           N24     Fs3   v092
        BYTE   W48
        BYTE           N44     Fs3   v090
        BYTE   W24
// 031   ----------------------------------------
        BYTE   W24
        BYTE           N36
        BYTE   W48
        BYTE           N15
        BYTE   W24
// 032   ----------------------------------------
        BYTE           VOICE   101
        BYTE   GoTo
         POIN2  song008_4_LOOP
        BYTE   FINE

//****************** Track 5 (Midi-Chn.5) ******************//

song008_5:
        BYTE   KEYSH   song008_key+0
// 000   ----------------------------------------
song008_5_LOOP:
        BYTE           VOICE   17
        BYTE           VOL     69
        BYTE           BENDR   30
        BYTE   W96
// 001   ----------------------------------------
        BYTE   W96
// 002   ----------------------------------------
        BYTE   W96
// 003   ----------------------------------------
        BYTE   W96
// 004   ----------------------------------------
        BYTE           TIE     En3   v123
        BYTE   W96
// 005   ----------------------------------------
        BYTE   W88
        BYTE   W01
        BYTE           EOT
        BYTE   W07
// 006   ----------------------------------------
        BYTE           TIE     Ds3
        BYTE   W96
// 007   ----------------------------------------
        BYTE   W88
        BYTE   W01
        BYTE           EOT
        BYTE   W07
// 008   ----------------------------------------
        BYTE           TIE     En3
        BYTE   W96
// 009   ----------------------------------------
        BYTE   W88
        BYTE   W01
        BYTE           EOT
        BYTE   W07
// 010   ----------------------------------------
        BYTE           TIE     Ds3
        BYTE   W96
// 011   ----------------------------------------
        BYTE   W88
        BYTE   W01
        BYTE           EOT
        BYTE   W07
// 012   ----------------------------------------
        BYTE           TIE     En3
        BYTE   W96
// 013   ----------------------------------------
        BYTE   W88
        BYTE   W01
        BYTE           EOT
        BYTE   W07
// 014   ----------------------------------------
        BYTE           TIE     Ds3
        BYTE   W96
// 015   ----------------------------------------
        BYTE   W88
        BYTE   W01
        BYTE           EOT
        BYTE   W07
// 016   ----------------------------------------
        BYTE           TIE     Cs4   v095
        BYTE   W96
// 017   ----------------------------------------
        BYTE   W88
        BYTE   W01
        BYTE           EOT
        BYTE   W07
// 018   ----------------------------------------
        BYTE           TIE     Cn4
        BYTE   W96
// 019   ----------------------------------------
        BYTE   W88
        BYTE   W01
        BYTE           EOT
        BYTE   W07
// 020   ----------------------------------------
        BYTE   W96
// 021   ----------------------------------------
        BYTE   W96
// 022   ----------------------------------------
        BYTE   W96
// 023   ----------------------------------------
        BYTE   W96
// 024   ----------------------------------------
        BYTE   W96
// 025   ----------------------------------------
        BYTE   W96
// 026   ----------------------------------------
        BYTE           TIE     An3   v123
        BYTE   W96
// 027   ----------------------------------------
        BYTE   W36
        BYTE   W03
        BYTE           EOT
        BYTE   W09
        BYTE           TIE
        BYTE   W48
// 028   ----------------------------------------
        BYTE   W84
        BYTE   W01
        BYTE           EOT
        BYTE   W11
// 029   ----------------------------------------
        BYTE           TIE
        BYTE   W96
// 030   ----------------------------------------
        BYTE   W36
        BYTE   W02
        BYTE           EOT
        BYTE   W10
        BYTE           TIE
        BYTE   W48
// 031   ----------------------------------------
        BYTE   W84
        BYTE           EOT
        BYTE   W12
// 032   ----------------------------------------
        BYTE   GoTo
         POIN2  song008_5_LOOP
        BYTE   FINE

//****************** Track 6 (Midi-Chn.6) ******************//

song008_6:
        BYTE   KEYSH   song008_key+0
// 000   ----------------------------------------
song008_6_LOOP:
        BYTE           VOICE   113
        BYTE           VOL     52
        BYTE           BENDR   48
        BYTE   W96
// 001   ----------------------------------------
        BYTE   W96
// 002   ----------------------------------------
        BYTE   W96
// 003   ----------------------------------------
        BYTE   W96
// 004   ----------------------------------------
        BYTE   W96
// 005   ----------------------------------------
        BYTE   W96
// 006   ----------------------------------------
        BYTE   W96
// 007   ----------------------------------------
        BYTE   W96
// 008   ----------------------------------------
        BYTE   W96
// 009   ----------------------------------------
        BYTE   W96
// 010   ----------------------------------------
        BYTE   W96
// 011   ----------------------------------------
        BYTE   W96
// 012   ----------------------------------------
        BYTE   W96
// 013   ----------------------------------------
        BYTE   W96
// 014   ----------------------------------------
        BYTE   W96
// 015   ----------------------------------------
        BYTE   W96
// 016   ----------------------------------------
        BYTE   W96
// 017   ----------------------------------------
        BYTE   W96
// 018   ----------------------------------------
        BYTE   W96
// 019   ----------------------------------------
        BYTE   W96
// 020   ----------------------------------------
song008_6_20:
        BYTE           VOL     55
        BYTE           N96     En2   v095
        BYTE   W96
        BYTE   PEND
// 021   ----------------------------------------
        BYTE           N48     Ds2
        BYTE   W48
        BYTE           N96     Dn2
        BYTE   W48
// 022   ----------------------------------------
        BYTE   W24
        BYTE           VOL     49
        BYTE   W02
        BYTE                   48
        BYTE   W01
        BYTE                   46
        BYTE   W02
        BYTE                   44
        BYTE   W13
        BYTE                   38
        BYTE   W01
        BYTE                   41
        BYTE   W01
        BYTE                   44
        BYTE   W01
        BYTE                   46
        BYTE   W01
        BYTE                   49
        BYTE   W01
        BYTE                   51
        BYTE   W01
        BYTE                   52
        BYTE           N24     An1
        BYTE   W12
        BYTE           VOL     59
        BYTE   W02
        BYTE                   60
        BYTE   W01
        BYTE                   61
        BYTE   W02
        BYTE                   63
        BYTE   W01
        BYTE                   62
        BYTE   W01
        BYTE                   61
        BYTE   W01
        BYTE                   60
        BYTE   W01
        BYTE                   59
        BYTE   W01
        BYTE                   57
        BYTE   W01
        BYTE                   56
        BYTE   W01
        BYTE                   55
        BYTE           N24     As1
        BYTE   W12
        BYTE           VOL     59
        BYTE   W01
        BYTE                   60
        BYTE   W02
        BYTE                   61
        BYTE   W02
        BYTE                   63
        BYTE   W01
        BYTE                   61
        BYTE   W01
        BYTE                   59
        BYTE   W01
        BYTE                   58
        BYTE   W01
        BYTE                   56
        BYTE   W01
        BYTE                   54
        BYTE   W01
        BYTE                   53
        BYTE   W01
// 023   ----------------------------------------
        BYTE   PATT
         POIN2  song008_6_20
// 024   ----------------------------------------
        BYTE           N48     Ds2   v095
        BYTE   W48
        BYTE                   Dn2
        BYTE   W48
// 025   ----------------------------------------
        BYTE           N96     An2
        BYTE   W68
        BYTE   W03
        BYTE           VOL     52
        BYTE   W01
        BYTE                   46
        BYTE   W12
        BYTE                   39
        BYTE   W12
// 026   ----------------------------------------
        BYTE                   55
        BYTE           TIE     Bn2
        BYTE   W96
// 027   ----------------------------------------
        BYTE   W96
// 028   ----------------------------------------
song008_6_28:
        BYTE   W24
        BYTE           VOL     52
        BYTE   W24
        BYTE                   48
        BYTE   W24
        BYTE                   44
        BYTE   W24
        BYTE   PEND
// 029   ----------------------------------------
        BYTE           EOT     Bn2
        BYTE           VOL     55
        BYTE           TIE     Dn3   v095
        BYTE   W96
// 030   ----------------------------------------
        BYTE   W96
// 031   ----------------------------------------
        BYTE   PATT
         POIN2  song008_6_28
// 032   ----------------------------------------
        BYTE           EOT     Dn3
        BYTE           VOL     52
        BYTE   GoTo
         POIN2  song008_6_LOOP
        BYTE   FINE

//****************** Track 7 (Midi-Chn.7) ******************//

song008_7:
        BYTE   KEYSH   song008_key+0
// 000   ----------------------------------------
song008_7_LOOP:
        BYTE           VOICE   3
        BYTE           VOL     59
        BYTE           BENDR   30
        BYTE   W48
        BYTE           N44     Bn3   v087
        BYTE   W48
// 001   ----------------------------------------
        BYTE                   Bn2   v123
        BYTE   W48
        BYTE                   Bn3   v087
        BYTE   W48
// 002   ----------------------------------------
song008_7_2:
        BYTE   W48
        BYTE           N44     As3   v087
        BYTE   W48
        BYTE   PEND
// 003   ----------------------------------------
        BYTE                   As2   v123
        BYTE   W48
        BYTE                   As3   v087
        BYTE   W48
// 004   ----------------------------------------
song008_7_4:
        BYTE   W48
        BYTE           N36     Bn3   v087
        BYTE   W48
        BYTE   PEND
// 005   ----------------------------------------
song008_7_5:
        BYTE           N44     Bn2   v112
        BYTE   W48
        BYTE                   Bn3   v087
        BYTE   W48
        BYTE   PEND
// 006   ----------------------------------------
        BYTE   PATT
         POIN2  song008_7_2
// 007   ----------------------------------------
song008_7_7:
        BYTE           N44     As2   v112
        BYTE   W48
        BYTE                   As3   v087
        BYTE   W48
        BYTE   PEND
// 008   ----------------------------------------
song008_7_8:
        BYTE   W48
        BYTE           N44     Bn3   v087
        BYTE   W48
        BYTE   PEND
// 009   ----------------------------------------
        BYTE   PATT
         POIN2  song008_7_5
// 010   ----------------------------------------
        BYTE   PATT
         POIN2  song008_7_2
// 011   ----------------------------------------
        BYTE   PATT
         POIN2  song008_7_7
// 012   ----------------------------------------
        BYTE   PATT
         POIN2  song008_7_8
// 013   ----------------------------------------
        BYTE   PATT
         POIN2  song008_7_5
// 014   ----------------------------------------
        BYTE   PATT
         POIN2  song008_7_2
// 015   ----------------------------------------
        BYTE   PATT
         POIN2  song008_7_7
// 016   ----------------------------------------
        BYTE   PATT
         POIN2  song008_7_4
// 017   ----------------------------------------
        BYTE           N40     Bn2   v112
        BYTE   W48
        BYTE           N44     Bn3   v087
        BYTE   W48
// 018   ----------------------------------------
        BYTE   PATT
         POIN2  song008_7_4
// 019   ----------------------------------------
        BYTE   PATT
         POIN2  song008_7_5
// 020   ----------------------------------------
        BYTE   W96
// 021   ----------------------------------------
        BYTE   W96
// 022   ----------------------------------------
        BYTE   W96
// 023   ----------------------------------------
        BYTE   W96
// 024   ----------------------------------------
        BYTE   W96
// 025   ----------------------------------------
        BYTE   W96
// 026   ----------------------------------------
        BYTE   W96
// 027   ----------------------------------------
        BYTE   W96
// 028   ----------------------------------------
        BYTE   W96
// 029   ----------------------------------------
        BYTE   W96
// 030   ----------------------------------------
        BYTE   W96
// 031   ----------------------------------------
        BYTE   W96
// 032   ----------------------------------------
        BYTE   GoTo
         POIN2  song008_7_LOOP
        BYTE   FINE

//****************** Track 8 (Midi-Chn.8) ******************//

song008_8:
        BYTE   KEYSH   song008_key+0
// 000   ----------------------------------------
song008_8_LOOP:
        BYTE           VOICE   66
        BYTE           VOL     62
        BYTE           BENDR   30
        BYTE   W96
// 001   ----------------------------------------
        BYTE   W96
// 002   ----------------------------------------
        BYTE   W96
// 003   ----------------------------------------
        BYTE   W96
// 004   ----------------------------------------
        BYTE           TIE     En2   v095
        BYTE   W96
// 005   ----------------------------------------
        BYTE   W44
        BYTE   W03
        BYTE           EOT
        BYTE   W01
        BYTE           N48     Bn2   v081
        BYTE   W48
// 006   ----------------------------------------
        BYTE           TIE     As2   v095
        BYTE   W96
// 007   ----------------------------------------
        BYTE   W92
        BYTE           EOT
        BYTE   W04
// 008   ----------------------------------------
        BYTE   W96
// 009   ----------------------------------------
        BYTE   W96
// 010   ----------------------------------------
        BYTE   W96
// 011   ----------------------------------------
        BYTE   W96
// 012   ----------------------------------------
        BYTE           TIE     En2
        BYTE   W96
// 013   ----------------------------------------
        BYTE   W44
        BYTE   W03
        BYTE           EOT
        BYTE   W01
        BYTE           N48     Bn2
        BYTE   W48
// 014   ----------------------------------------
        BYTE           TIE     As2
        BYTE   W96
// 015   ----------------------------------------
        BYTE   W88
        BYTE           EOT
        BYTE   W08
// 016   ----------------------------------------
        BYTE           TIE     Bn2
        BYTE   W96
// 017   ----------------------------------------
        BYTE   W96
// 018   ----------------------------------------
        BYTE   W96
// 019   ----------------------------------------
        BYTE   W68
        BYTE   W02
        BYTE           EOT
        BYTE   W24
        BYTE   W02
// 020   ----------------------------------------
        BYTE           N44     En2   v084
        BYTE   W48
        BYTE           N84     Fs2   v095
        BYTE   W48
// 021   ----------------------------------------
song008_8_21:
        BYTE   W48
        BYTE           N44     En2   v095
        BYTE   W48
        BYTE   PEND
// 022   ----------------------------------------
        BYTE           N68     Fs2
        BYTE   W72
        BYTE           N23     Gn2
        BYTE   W24
// 023   ----------------------------------------
        BYTE           N44     En2
        BYTE   W48
        BYTE           N80     Fs2
        BYTE   W48
// 024   ----------------------------------------
        BYTE   PATT
         POIN2  song008_8_21
// 025   ----------------------------------------
        BYTE           N44     Fs2   v095
        BYTE   W48
        BYTE           N23     Gn2
        BYTE   W24
        BYTE                   An2
        BYTE   W24
// 026   ----------------------------------------
        BYTE   W24
        BYTE           N42     Bn2   v084
        BYTE           N42     En2
        BYTE   W48
        BYTE           N44     Bn2
        BYTE           N44     En2
        BYTE   W24
// 027   ----------------------------------------
        BYTE   W24
        BYTE           N24     Bn2
        BYTE           N24     En2
        BYTE   W48
        BYTE           N42     Bn2
        BYTE           N42     En2
        BYTE   W24
// 028   ----------------------------------------
        BYTE   W24
        BYTE                   Bn2
        BYTE           N42     En2
        BYTE   W48
        BYTE           N24     Bn2
        BYTE           N24     En2
        BYTE   W24
// 029   ----------------------------------------
        BYTE   W24
        BYTE           N40     An2
        BYTE           N40     Dn2
        BYTE   W48
        BYTE           N42     An2
        BYTE           N42     Dn2
        BYTE   W24
// 030   ----------------------------------------
        BYTE   W24
        BYTE           N28     An2
        BYTE           N28     Dn2
        BYTE   W48
        BYTE           N42     An2
        BYTE           N40     Dn2
        BYTE   W24
// 031   ----------------------------------------
        BYTE   W24
        BYTE           N44     An2
        BYTE           N42     Dn2
        BYTE   W48
        BYTE           N18     An2
        BYTE           N18     Dn2
        BYTE   W24
// 032   ----------------------------------------
        BYTE   GoTo
         POIN2  song008_8_LOOP
        BYTE   FINE

//****************** Track 9 (Midi-Chn.9) ******************//

song008_9:
        BYTE   KEYSH   song008_key+0
// 000   ----------------------------------------
song008_9_LOOP:
        BYTE           VOICE   127
        BYTE           VOL     70
        BYTE           BENDR   30
        BYTE   W48
        BYTE           N03     En1   v123
        BYTE   W12
        BYTE                   En1   v081
        BYTE   W12
        BYTE                   En1   v071
        BYTE   W12
        BYTE                   En1   v063
        BYTE   W12
// 001   ----------------------------------------
song008_9_1:
        BYTE           N03     En1   v050
        BYTE   W12
        BYTE                   En1   v039
        BYTE   W84
        BYTE   PEND
// 002   ----------------------------------------
song008_9_2:
        BYTE   W48
        BYTE           N03     En1   v123
        BYTE   W12
        BYTE                   En1   v081
        BYTE   W12
        BYTE                   En1   v071
        BYTE   W12
        BYTE                   En1   v063
        BYTE   W12
        BYTE   PEND
// 003   ----------------------------------------
        BYTE   PATT
         POIN2  song008_9_1
// 004   ----------------------------------------
        BYTE   PATT
         POIN2  song008_9_2
// 005   ----------------------------------------
        BYTE   PATT
         POIN2  song008_9_1
// 006   ----------------------------------------
        BYTE   PATT
         POIN2  song008_9_2
// 007   ----------------------------------------
        BYTE   PATT
         POIN2  song008_9_1
// 008   ----------------------------------------
        BYTE   PATT
         POIN2  song008_9_2
// 009   ----------------------------------------
        BYTE   PATT
         POIN2  song008_9_1
// 010   ----------------------------------------
        BYTE   PATT
         POIN2  song008_9_2
// 011   ----------------------------------------
        BYTE   PATT
         POIN2  song008_9_1
// 012   ----------------------------------------
        BYTE   PATT
         POIN2  song008_9_2
// 013   ----------------------------------------
        BYTE   PATT
         POIN2  song008_9_1
// 014   ----------------------------------------
        BYTE   PATT
         POIN2  song008_9_2
// 015   ----------------------------------------
        BYTE   PATT
         POIN2  song008_9_1
// 016   ----------------------------------------
        BYTE   PATT
         POIN2  song008_9_2
// 017   ----------------------------------------
        BYTE   W96
// 018   ----------------------------------------
        BYTE   PATT
         POIN2  song008_9_2
// 019   ----------------------------------------
        BYTE   W96
// 020   ----------------------------------------
        BYTE   PATT
         POIN2  song008_9_2
// 021   ----------------------------------------
        BYTE   PATT
         POIN2  song008_9_1
// 022   ----------------------------------------
song008_9_22:
        BYTE           N03     En1   v123
        BYTE   W12
        BYTE                   En1   v081
        BYTE   W12
        BYTE                   En1   v071
        BYTE   W12
        BYTE                   En1   v063
        BYTE   W12
        BYTE                   En1   v050
        BYTE   W12
        BYTE                   En1   v039
        BYTE   W36
        BYTE   PEND
// 023   ----------------------------------------
        BYTE   PATT
         POIN2  song008_9_2
// 024   ----------------------------------------
        BYTE   PATT
         POIN2  song008_9_1
// 025   ----------------------------------------
        BYTE   PATT
         POIN2  song008_9_22
// 026   ----------------------------------------
        BYTE   PATT
         POIN2  song008_9_2
// 027   ----------------------------------------
        BYTE   PATT
         POIN2  song008_9_1
// 028   ----------------------------------------
        BYTE   PATT
         POIN2  song008_9_22
// 029   ----------------------------------------
        BYTE   PATT
         POIN2  song008_9_2
// 030   ----------------------------------------
        BYTE   PATT
         POIN2  song008_9_1
// 031   ----------------------------------------
        BYTE   PATT
         POIN2  song008_9_22
// 032   ----------------------------------------
        BYTE   GoTo
         POIN2  song008_9_LOOP
        BYTE   FINE

//***************** Track 10 (Midi-Chn.10) *****************//

song008_10:
        BYTE   KEYSH   song008_key+0
// 000   ----------------------------------------
song008_10_LOOP:
        BYTE           VOICE   1
        BYTE           VOL     31
        BYTE           BENDR   30
        BYTE   W48
        BYTE           N36     Bn2   v081
        BYTE   W48
// 001   ----------------------------------------
        BYTE   W96
// 002   ----------------------------------------
        BYTE   W48
        BYTE                   Bn2
        BYTE   W48
// 003   ----------------------------------------
        BYTE   W96
// 004   ----------------------------------------
song008_10_4:
        BYTE   W48
        BYTE           N32     Bn2   v081
        BYTE   W48
        BYTE   PEND
// 005   ----------------------------------------
        BYTE   W96
// 006   ----------------------------------------
        BYTE   PATT
         POIN2  song008_10_4
// 007   ----------------------------------------
        BYTE   W96
// 008   ----------------------------------------
        BYTE   PATT
         POIN2  song008_10_4
// 009   ----------------------------------------
        BYTE   W96
// 010   ----------------------------------------
        BYTE   PATT
         POIN2  song008_10_4
// 011   ----------------------------------------
        BYTE   W96
// 012   ----------------------------------------
        BYTE   PATT
         POIN2  song008_10_4
// 013   ----------------------------------------
        BYTE   W96
// 014   ----------------------------------------
        BYTE   PATT
         POIN2  song008_10_4
// 015   ----------------------------------------
        BYTE   W96
// 016   ----------------------------------------
        BYTE   PATT
         POIN2  song008_10_4
// 017   ----------------------------------------
        BYTE   W96
// 018   ----------------------------------------
        BYTE   PATT
         POIN2  song008_10_4
// 019   ----------------------------------------
        BYTE   W96
// 020   ----------------------------------------
        BYTE   PATT
         POIN2  song008_10_4
// 021   ----------------------------------------
        BYTE   W96
// 022   ----------------------------------------
        BYTE           N32     Bn2   v081
        BYTE   W96
// 023   ----------------------------------------
        BYTE   PATT
         POIN2  song008_10_4
// 024   ----------------------------------------
        BYTE   W96
// 025   ----------------------------------------
        BYTE           N32     Bn2   v081
        BYTE   W96
// 026   ----------------------------------------
        BYTE   PATT
         POIN2  song008_10_4
// 027   ----------------------------------------
        BYTE   W96
// 028   ----------------------------------------
        BYTE           N32     Bn2   v081
        BYTE   W96
// 029   ----------------------------------------
        BYTE   PATT
         POIN2  song008_10_4
// 030   ----------------------------------------
        BYTE   W96
// 031   ----------------------------------------
        BYTE           N32     Bn2   v081
        BYTE   W96
// 032   ----------------------------------------
        BYTE   GoTo
         POIN2  song008_10_LOOP
        BYTE   FINE

//***************** Track 11 (Midi-Chn.11) *****************//

song008_11:
        BYTE   KEYSH   song008_key+0
// 000   ----------------------------------------
song008_11_LOOP:
        BYTE           VOICE   110
        BYTE           VOL     54
        BYTE           BENDR   30
        BYTE   W96
// 001   ----------------------------------------
        BYTE   W96
// 002   ----------------------------------------
        BYTE   W96
// 003   ----------------------------------------
        BYTE   W96
// 004   ----------------------------------------
song008_11_4:
        BYTE   W06
        BYTE           N10     Gn2   v087
        BYTE   W90
        BYTE   PEND
// 005   ----------------------------------------
song008_11_5:
        BYTE   W06
        BYTE           N10     Bn2   v087
        BYTE   W48
        BYTE                   En3
        BYTE   W42
        BYTE   PEND
// 006   ----------------------------------------
        BYTE   W06
        BYTE                   Fs3
        BYTE   W90
// 007   ----------------------------------------
        BYTE   W96
// 008   ----------------------------------------
        BYTE   W96
// 009   ----------------------------------------
        BYTE   W96
// 010   ----------------------------------------
        BYTE   W96
// 011   ----------------------------------------
        BYTE   W96
// 012   ----------------------------------------
        BYTE   PATT
         POIN2  song008_11_4
// 013   ----------------------------------------
        BYTE   PATT
         POIN2  song008_11_5
// 014   ----------------------------------------
        BYTE   W06
        BYTE           N05     Fs3   v087
        BYTE   W12
        BYTE                   Gn3
        BYTE   W12
        BYTE           N10     Fs3
        BYTE   W66
// 015   ----------------------------------------
        BYTE   W54
        BYTE                   Dn3
        BYTE   W42
// 016   ----------------------------------------
        BYTE   W06
        BYTE                   En3
        BYTE   W90
// 017   ----------------------------------------
        BYTE   W96
// 018   ----------------------------------------
        BYTE   W96
// 019   ----------------------------------------
        BYTE   W96
// 020   ----------------------------------------
        BYTE   W96
// 021   ----------------------------------------
        BYTE   W96
// 022   ----------------------------------------
        BYTE   W96
// 023   ----------------------------------------
        BYTE   W96
// 024   ----------------------------------------
        BYTE   W96
// 025   ----------------------------------------
        BYTE   W96
// 026   ----------------------------------------
        BYTE   W96
// 027   ----------------------------------------
        BYTE   W96
// 028   ----------------------------------------
        BYTE   W96
// 029   ----------------------------------------
        BYTE   W96
// 030   ----------------------------------------
        BYTE   W96
// 031   ----------------------------------------
        BYTE   W96
// 032   ----------------------------------------
        BYTE   GoTo
         POIN2  song008_11_LOOP
        BYTE   FINE

//***************** Track 12 (Midi-Chn.12) *****************//

song008_12:
        BYTE   KEYSH   song008_key+0
// 000   ----------------------------------------
song008_12_LOOP:
        BYTE           VOICE   105
        BYTE           VOL     46
        BYTE           BENDR   30
        BYTE   W54
        BYTE           N12     Dn2   v071
        BYTE   W42
// 001   ----------------------------------------
        BYTE   W06
        BYTE                   Cs2
        BYTE   W48
        BYTE                   Dn2
        BYTE   W42
// 002   ----------------------------------------
        BYTE   W54
        BYTE                   Cs2
        BYTE   W42
// 003   ----------------------------------------
        BYTE   W06
        BYTE                   Cn2
        BYTE   W48
        BYTE                   Cs2
        BYTE   W42
// 004   ----------------------------------------
        BYTE   W96
// 005   ----------------------------------------
song008_12_5:
        BYTE   W06
        BYTE           N12     Cs2   v084
        BYTE   W48
        BYTE                   Dn2
        BYTE   W42
        BYTE   PEND
// 006   ----------------------------------------
        BYTE   W96
// 007   ----------------------------------------
song008_12_7:
        BYTE   W06
        BYTE           N12     Cn2   v084
        BYTE   W48
        BYTE                   Cs2
        BYTE   W42
        BYTE   PEND
// 008   ----------------------------------------
        BYTE   W96
// 009   ----------------------------------------
        BYTE   PATT
         POIN2  song008_12_5
// 010   ----------------------------------------
        BYTE   W96
// 011   ----------------------------------------
        BYTE   PATT
         POIN2  song008_12_7
// 012   ----------------------------------------
        BYTE   W96
// 013   ----------------------------------------
        BYTE   PATT
         POIN2  song008_12_5
// 014   ----------------------------------------
        BYTE   W96
// 015   ----------------------------------------
        BYTE   W06
        BYTE           N12     Ds2   v084
        BYTE   W48
        BYTE                   Dn2
        BYTE   W42
// 016   ----------------------------------------
        BYTE   W96
// 017   ----------------------------------------
        BYTE   W96
// 018   ----------------------------------------
        BYTE   W96
// 019   ----------------------------------------
        BYTE   W96
// 020   ----------------------------------------
song008_12_20:
        BYTE   W30
        BYTE           N12     Gn1   v084
        BYTE   W48
        BYTE                   Gn1
        BYTE   W18
        BYTE   PEND
// 021   ----------------------------------------
song008_12_21:
        BYTE   W78
        BYTE           N12     Gn1   v084
        BYTE   W18
        BYTE   PEND
// 022   ----------------------------------------
song008_12_22:
        BYTE   W30
        BYTE           N12     Gn1   v084
        BYTE   W66
        BYTE   PEND
// 023   ----------------------------------------
        BYTE   PATT
         POIN2  song008_12_20
// 024   ----------------------------------------
        BYTE   PATT
         POIN2  song008_12_21
// 025   ----------------------------------------
        BYTE   PATT
         POIN2  song008_12_22
// 026   ----------------------------------------
        BYTE   W96
// 027   ----------------------------------------
        BYTE   W96
// 028   ----------------------------------------
        BYTE   W96
// 029   ----------------------------------------
        BYTE   W96
// 030   ----------------------------------------
        BYTE   W96
// 031   ----------------------------------------
        BYTE   W96
// 032   ----------------------------------------
        BYTE   GoTo
         POIN2  song008_12_LOOP
        BYTE   FINE

//***************** Track 13 (Midi-Chn.13) *****************//

song008_13:
        BYTE   KEYSH   song008_key+0
// 000   ----------------------------------------
song008_13_LOOP:
        BYTE           VOICE   5
        BYTE           VOL     70
        BYTE           BENDR   30
        BYTE   W96
// 001   ----------------------------------------
        BYTE   W96
// 002   ----------------------------------------
        BYTE   W96
// 003   ----------------------------------------
        BYTE   W96
// 004   ----------------------------------------
        BYTE   W96
// 005   ----------------------------------------
        BYTE   W96
// 006   ----------------------------------------
        BYTE   W96
// 007   ----------------------------------------
        BYTE   W96
// 008   ----------------------------------------
        BYTE   W96
// 009   ----------------------------------------
        BYTE   W96
// 010   ----------------------------------------
        BYTE   W96
// 011   ----------------------------------------
        BYTE   W96
// 012   ----------------------------------------
        BYTE   W96
// 013   ----------------------------------------
        BYTE   W96
// 014   ----------------------------------------
        BYTE   W96
// 015   ----------------------------------------
        BYTE   W96
// 016   ----------------------------------------
        BYTE   W96
// 017   ----------------------------------------
        BYTE   W96
// 018   ----------------------------------------
        BYTE   W96
// 019   ----------------------------------------
        BYTE   W96
// 020   ----------------------------------------
        BYTE   W96
// 021   ----------------------------------------
        BYTE   W96
// 022   ----------------------------------------
        BYTE   W96
// 023   ----------------------------------------
        BYTE   W96
// 024   ----------------------------------------
        BYTE   W96
// 025   ----------------------------------------
        BYTE   W96
// 026   ----------------------------------------
        BYTE           N36     As2   v108
        BYTE   W96
// 027   ----------------------------------------
song008_13_27:
        BYTE   W48
        BYTE           N42     As2   v108
        BYTE   W48
        BYTE   PEND
// 028   ----------------------------------------
        BYTE   W96
// 029   ----------------------------------------
        BYTE                   As2
        BYTE   W96
// 030   ----------------------------------------
        BYTE   PATT
         POIN2  song008_13_27
// 031   ----------------------------------------
        BYTE   W96
// 032   ----------------------------------------
        BYTE   GoTo
         POIN2  song008_13_LOOP
        BYTE   FINE

//***************** Track 14 (Midi-Chn.14) *****************//

song008_14:
        BYTE   KEYSH   song008_key+0
// 000   ----------------------------------------
song008_14_LOOP:
        BYTE           VOICE   95
        BYTE           VOL     51
        BYTE           BENDR   30
        BYTE   W18
        BYTE           N12     Dn3   v087
        BYTE   W12
        BYTE                   Gn2   v071
        BYTE   W12
        BYTE                   An2   v087
        BYTE   W24
        BYTE                   Dn3
        BYTE   W12
        BYTE                   Gn2   v071
        BYTE   W12
        BYTE                   An2   v087
        BYTE   W06
// 001   ----------------------------------------
song008_14_1:
        BYTE   W18
        BYTE           N12     Dn3   v087
        BYTE   W12
        BYTE                   Gn2   v071
        BYTE   W12
        BYTE                   An2   v087
        BYTE   W24
        BYTE                   Dn3
        BYTE   W12
        BYTE                   Gn2   v071
        BYTE   W12
        BYTE                   An2   v087
        BYTE   W06
        BYTE   PEND
// 002   ----------------------------------------
song008_14_2:
        BYTE   W18
        BYTE           N12     Cs3   v087
        BYTE   W12
        BYTE                   Gn2   v071
        BYTE   W12
        BYTE                   An2   v087
        BYTE   W24
        BYTE                   Cs3
        BYTE   W12
        BYTE                   Gn2   v071
        BYTE   W12
        BYTE                   An2   v087
        BYTE   W06
        BYTE   PEND
// 003   ----------------------------------------
        BYTE   PATT
         POIN2  song008_14_2
// 004   ----------------------------------------
        BYTE   PATT
         POIN2  song008_14_1
// 005   ----------------------------------------
        BYTE   PATT
         POIN2  song008_14_1
// 006   ----------------------------------------
        BYTE   PATT
         POIN2  song008_14_2
// 007   ----------------------------------------
        BYTE   PATT
         POIN2  song008_14_2
// 008   ----------------------------------------
        BYTE   PATT
         POIN2  song008_14_1
// 009   ----------------------------------------
        BYTE   PATT
         POIN2  song008_14_1
// 010   ----------------------------------------
        BYTE   PATT
         POIN2  song008_14_2
// 011   ----------------------------------------
        BYTE   PATT
         POIN2  song008_14_2
// 012   ----------------------------------------
        BYTE   PATT
         POIN2  song008_14_1
// 013   ----------------------------------------
        BYTE   PATT
         POIN2  song008_14_1
// 014   ----------------------------------------
        BYTE   PATT
         POIN2  song008_14_2
// 015   ----------------------------------------
        BYTE   W18
        BYTE           N12     Cs3   v087
        BYTE   W12
        BYTE                   Gn2   v071
        BYTE   W12
        BYTE                   An2   v087
        BYTE   W24
        BYTE                   Fs2   v071
        BYTE   W12
        BYTE                   Gs2   v087
        BYTE   W12
        BYTE                   Bn2
        BYTE   W06
// 016   ----------------------------------------
song008_14_16:
        BYTE   W18
        BYTE           N12     Cs3   v087
        BYTE   W12
        BYTE                   Gn2   v071
        BYTE   W12
        BYTE                   Bn2   v087
        BYTE   W24
        BYTE                   Cs3
        BYTE   W12
        BYTE                   Gn2   v071
        BYTE   W12
        BYTE                   Bn2   v087
        BYTE   W06
        BYTE   PEND
// 017   ----------------------------------------
        BYTE   PATT
         POIN2  song008_14_16
// 018   ----------------------------------------
        BYTE   PATT
         POIN2  song008_14_1
// 019   ----------------------------------------
        BYTE   PATT
         POIN2  song008_14_1
// 020   ----------------------------------------
        BYTE   W96
// 021   ----------------------------------------
        BYTE   W96
// 022   ----------------------------------------
        BYTE   W96
// 023   ----------------------------------------
        BYTE   W96
// 024   ----------------------------------------
        BYTE   W96
// 025   ----------------------------------------
        BYTE   W96
// 026   ----------------------------------------
song008_14_26:
        BYTE   W18
        BYTE           N12     Dn3   v087
        BYTE   W24
        BYTE                   An2
        BYTE   W24
        BYTE                   Dn3
        BYTE   W24
        BYTE                   An2
        BYTE   W06
        BYTE   PEND
// 027   ----------------------------------------
        BYTE   PATT
         POIN2  song008_14_26
// 028   ----------------------------------------
        BYTE   PATT
         POIN2  song008_14_26
// 029   ----------------------------------------
        BYTE   PATT
         POIN2  song008_14_26
// 030   ----------------------------------------
        BYTE   PATT
         POIN2  song008_14_26
// 031   ----------------------------------------
        BYTE   W18
        BYTE           N12     Dn3   v087
        BYTE   W24
        BYTE                   An2
        BYTE   W24
        BYTE                   Dn3
        BYTE   W30
// 032   ----------------------------------------
        BYTE   GoTo
         POIN2  song008_14_LOOP
        BYTE   FINE

//***************** Track 15 (Midi-Chn.15) *****************//

song008_15:
        BYTE   KEYSH   song008_key+0
// 000   ----------------------------------------
song008_15_LOOP:
        BYTE           VOICE   22
        BYTE           VOL     49
        BYTE           BENDR   30
        BYTE   W96
// 001   ----------------------------------------
        BYTE   W96
// 002   ----------------------------------------
        BYTE   W96
// 003   ----------------------------------------
        BYTE   W96
// 004   ----------------------------------------
        BYTE   W96
// 005   ----------------------------------------
        BYTE   W96
// 006   ----------------------------------------
        BYTE   W96
// 007   ----------------------------------------
        BYTE   W54
        BYTE           N44     Fs2   v103
        BYTE   W42
// 008   ----------------------------------------
        BYTE   W06
        BYTE           TIE     Bn2   v100
        BYTE   W90
// 009   ----------------------------------------
        BYTE   W44
        BYTE   W02
        BYTE           EOT
        BYTE   W08
        BYTE           N44     En3
        BYTE   W42
// 010   ----------------------------------------
        BYTE   W06
        BYTE           TIE     Fs3   v092
        BYTE   W90
// 011   ----------------------------------------
        BYTE   W92
        BYTE           EOT
        BYTE   W04
// 012   ----------------------------------------
        BYTE   W96
// 013   ----------------------------------------
        BYTE   W96
// 014   ----------------------------------------
        BYTE   W96
// 015   ----------------------------------------
        BYTE   W96
// 016   ----------------------------------------
        BYTE   W06
        BYTE           N20     Bn2   v081
        BYTE   W90
// 017   ----------------------------------------
        BYTE   W54
        BYTE           N22     En3   v095
        BYTE   W42
// 018   ----------------------------------------
        BYTE   W06
        BYTE                   Bn3   v098
        BYTE   W90
// 019   ----------------------------------------
        BYTE   W06
        BYTE           N76     En3   v087
        BYTE   W90
// 020   ----------------------------------------
        BYTE   W96
// 021   ----------------------------------------
        BYTE   W96
// 022   ----------------------------------------
        BYTE   W96
// 023   ----------------------------------------
        BYTE   W96
// 024   ----------------------------------------
        BYTE   W96
// 025   ----------------------------------------
        BYTE   W96
// 026   ----------------------------------------
        BYTE   W96
// 027   ----------------------------------------
        BYTE   W96
// 028   ----------------------------------------
        BYTE   W96
// 029   ----------------------------------------
        BYTE   W96
// 030   ----------------------------------------
        BYTE   W96
// 031   ----------------------------------------
        BYTE   W96
// 032   ----------------------------------------
        BYTE   GoTo
         POIN2  song008_15_LOOP
        BYTE   FINE


//********************** End of Song ***********************//

        ALIGN 4
song008:
        BYTE   16                      // Num Tracks
        BYTE   0                       // Unknown
        BYTE   song008_pri             // Priority
        BYTE   song008_rev             // Reverb

        POIN2   song008_grp            

        POIN2   song008_0
        POIN2   song008_1
        POIN2   song008_2
        POIN2   song008_3
        POIN2   song008_4
        POIN2   song008_5
        POIN2   song008_6
        POIN2   song008_7
        POIN2   song008_8
        POIN2   song008_9
        POIN2   song008_10
        POIN2   song008_11
        POIN2   song008_12
        POIN2   song008_13
        POIN2   song008_14
        POIN2   song008_15

        
