//Event file generated from Sappy .s format.
        #include "MPlayDef.event"

        #define    song033_grp  soundbank_SC
        #define    song033_pri  0
        #define    song033_rev  0
        #define    song033_key  0

        // .rodata
        // song033
        ALIGN 4

//****************** Track 0 (Midi-Chn.0) ******************//

song033_0:
        BYTE   KEYSH   song033_key+0
// 000   ----------------------------------------
        BYTE   TEMPO   126/2
        BYTE           VOICE   89
        BYTE           VOL     66
        BYTE           BENDR   33
        BYTE   W96
// 001   ----------------------------------------
        BYTE   W24
song033_0_LOOP:
        BYTE   W72
// 002   ----------------------------------------
        BYTE   W96
// 003   ----------------------------------------
        BYTE   W96
// 004   ----------------------------------------
        BYTE   W96
// 005   ----------------------------------------
        BYTE   W96
// 006   ----------------------------------------
        BYTE   W96
// 007   ----------------------------------------
        BYTE   W96
// 008   ----------------------------------------
        BYTE   W96
// 009   ----------------------------------------
        BYTE   W96
// 010   ----------------------------------------
        BYTE   W96
// 011   ----------------------------------------
        BYTE   W96
// 012   ----------------------------------------
        BYTE   W96
// 013   ----------------------------------------
        BYTE   W96
// 014   ----------------------------------------
        BYTE   W96
// 015   ----------------------------------------
        BYTE   W96
// 016   ----------------------------------------
        BYTE   W96
// 017   ----------------------------------------
        BYTE   W96
// 018   ----------------------------------------
        BYTE   W96
// 019   ----------------------------------------
        BYTE   W96
// 020   ----------------------------------------
        BYTE   W96
// 021   ----------------------------------------
        BYTE   W96
// 022   ----------------------------------------
        BYTE   W96
// 023   ----------------------------------------
        BYTE   W96
// 024   ----------------------------------------
        BYTE   W96
// 025   ----------------------------------------
        BYTE   W96
// 026   ----------------------------------------
        BYTE   W96
// 027   ----------------------------------------
        BYTE   W36
        BYTE           N06     En3   v092
        BYTE   W06
        BYTE                   Bn3   v090
        BYTE   W06
        BYTE           TIE     En4   v067
        BYTE   W48
// 028   ----------------------------------------
        BYTE   W96
// 029   ----------------------------------------
        BYTE   W12
        BYTE           EOT
        BYTE           N04     Dn4   v087
        BYTE   W04
        BYTE                   Cs4   v084
        BYTE   W04
        BYTE                   Bn3
        BYTE   W04
        BYTE           N36     An3   v081
        BYTE   W36
        BYTE           N06     Bn3   v084
        BYTE   W06
        BYTE                   Cs4
        BYTE   W06
        BYTE           TIE     Bn3   v078
        BYTE   W24
// 030   ----------------------------------------
        BYTE   W96
// 031   ----------------------------------------
        BYTE           VOL     53
        BYTE   W03
        BYTE                   52
        BYTE   W06
        BYTE                   51
        BYTE   W12
        BYTE                   50
        BYTE   W06
        BYTE                   49
        BYTE   W12
        BYTE                   48
        BYTE   W09
        BYTE                   47
        BYTE   W03
        BYTE                   46
        BYTE   W12
        BYTE                   45
        BYTE   W06
        BYTE                   44
        BYTE   W03
        BYTE           EOT
        BYTE   W03
        BYTE           VOL     43
        BYTE   W09
        BYTE                   42
        BYTE   W06
        BYTE                   41
        BYTE   W06
// 032   ----------------------------------------
        BYTE   W03
        BYTE                   40
        BYTE   W03
        BYTE                   39
        BYTE   W09
        BYTE                   38
        BYTE   W09
        BYTE                   53
        BYTE   W72
// 033   ----------------------------------------
        BYTE   W96
// 034   ----------------------------------------
        BYTE   W96
// 035   ----------------------------------------
        BYTE   W96
// 036   ----------------------------------------
        BYTE   W96
// 037   ----------------------------------------
        BYTE   W96
// 038   ----------------------------------------
        BYTE   W96
// 039   ----------------------------------------
        BYTE   W96
// 040   ----------------------------------------
        BYTE   W96
// 041   ----------------------------------------
        BYTE   W96
// 042   ----------------------------------------
        BYTE   W96
// 043   ----------------------------------------
        BYTE   W96
// 044   ----------------------------------------
        BYTE   W96
// 045   ----------------------------------------
        BYTE   W96
// 046   ----------------------------------------
        BYTE   W96
// 047   ----------------------------------------
        BYTE   W96
// 048   ----------------------------------------
        BYTE   W96
// 049   ----------------------------------------
        BYTE   W96
// 050   ----------------------------------------
        BYTE   W96
// 051   ----------------------------------------
        BYTE   W96
// 052   ----------------------------------------
        BYTE   W96
// 053   ----------------------------------------
        BYTE   W96
// 054   ----------------------------------------
        BYTE   W96
// 055   ----------------------------------------
        BYTE   W96
// 056   ----------------------------------------
        BYTE   W96
// 057   ----------------------------------------
        BYTE   W96
// 058   ----------------------------------------
        BYTE   W96
// 059   ----------------------------------------
        BYTE   W24
        BYTE                   66
        BYTE   GoTo
         POIN2  song033_0_LOOP
        BYTE   FINE

//****************** Track 1 (Midi-Chn.1) ******************//

song033_1:
        BYTE   KEYSH   song033_key+0
// 000   ----------------------------------------
        BYTE           VOICE   89
        BYTE           VOL     59
        BYTE           BENDR   24
        BYTE   W96
// 001   ----------------------------------------
        BYTE   W24
song033_1_LOOP:
        BYTE   W72
// 002   ----------------------------------------
        BYTE   W96
// 003   ----------------------------------------
        BYTE   W96
// 004   ----------------------------------------
        BYTE   W96
// 005   ----------------------------------------
        BYTE   W96
// 006   ----------------------------------------
        BYTE   W96
// 007   ----------------------------------------
        BYTE   W96
// 008   ----------------------------------------
        BYTE   W96
// 009   ----------------------------------------
        BYTE   W96
// 010   ----------------------------------------
        BYTE   W96
// 011   ----------------------------------------
        BYTE   W24
        BYTE           N36     En2   v092
        BYTE   W36
        BYTE           TIE     Bn2   v084
        BYTE   W36
// 012   ----------------------------------------
        BYTE   W96
// 013   ----------------------------------------
        BYTE   W24
        BYTE           EOT
        BYTE           N24     En3   v081
        BYTE   W24
        BYTE                   Gn3   v098
        BYTE   W24
        BYTE           TIE     Fs3   v074
        BYTE   W24
// 014   ----------------------------------------
        BYTE   W96
// 015   ----------------------------------------
        BYTE   W96
// 016   ----------------------------------------
        BYTE           EOT
        BYTE           N24     Bn2   v087
        BYTE   W24
        BYTE           N36     En3   v092
        BYTE   W36
        BYTE           TIE     Bn3   v095
        BYTE   W36
// 017   ----------------------------------------
        BYTE   W96
// 018   ----------------------------------------
        BYTE   W24
        BYTE           EOT
        BYTE           N24     Fs3   v087
        BYTE   W24
        BYTE                   Gn3   v098
        BYTE   W24
        BYTE           TIE     An3
        BYTE   W24
// 019   ----------------------------------------
        BYTE   W96
// 020   ----------------------------------------
        BYTE   W72
        BYTE           EOT
        BYTE           N48     Dn3
        BYTE   W24
// 021   ----------------------------------------
        BYTE   W24
        BYTE           TIE     En3   v084
        BYTE   W72
// 022   ----------------------------------------
        BYTE           VOL     53
        BYTE   W06
        BYTE                   51
        BYTE   W06
        BYTE                   50
        BYTE   W06
        BYTE                   48
        BYTE   W06
        BYTE                   46
        BYTE   W06
        BYTE                   43
        BYTE   W06
        BYTE                   41
        BYTE   W06
        BYTE                   39
        BYTE   W06
        BYTE                   36
        BYTE   W06
        BYTE                   34
        BYTE   W06
        BYTE                   31
        BYTE   W06
        BYTE                   27
        BYTE   W06
        BYTE           EOT
        BYTE           VOL     59
        BYTE   W24
// 023   ----------------------------------------
        BYTE   W96
// 024   ----------------------------------------
        BYTE   W96
// 025   ----------------------------------------
        BYTE   W96
// 026   ----------------------------------------
        BYTE   W96
// 027   ----------------------------------------
        BYTE   W96
// 028   ----------------------------------------
        BYTE   W96
// 029   ----------------------------------------
        BYTE   W96
// 030   ----------------------------------------
        BYTE   W96
// 031   ----------------------------------------
        BYTE   W96
// 032   ----------------------------------------
        BYTE   W96
// 033   ----------------------------------------
        BYTE   W96
// 034   ----------------------------------------
        BYTE   W96
// 035   ----------------------------------------
        BYTE   W96
// 036   ----------------------------------------
        BYTE   W96
// 037   ----------------------------------------
        BYTE   W96
// 038   ----------------------------------------
        BYTE   W96
// 039   ----------------------------------------
        BYTE   W96
// 040   ----------------------------------------
        BYTE   W96
// 041   ----------------------------------------
        BYTE   W96
// 042   ----------------------------------------
        BYTE   W24
        BYTE           N12     En3   v071
        BYTE   W12
        BYTE                   Fs3   v067
        BYTE   W12
        BYTE                   Gn3   v084
        BYTE   W12
        BYTE                   En3   v071
        BYTE   W12
        BYTE                   Fs3   v067
        BYTE   W12
        BYTE                   Dn3   v084
        BYTE   W12
// 043   ----------------------------------------
        BYTE                   Bn2   v092
        BYTE   W12
        BYTE                   En3   v071
        BYTE   W12
        BYTE                   Dn3   v084
        BYTE   W12
        BYTE                   Fs3   v067
        BYTE   W12
        BYTE                   Gn3   v084
        BYTE   W12
        BYTE                   An3   v087
        BYTE   W12
        BYTE                   Gn3   v084
        BYTE   W12
        BYTE                   En3   v071
        BYTE   W12
// 044   ----------------------------------------
        BYTE                   Fs3   v067
        BYTE   W12
        BYTE                   Dn3   v084
        BYTE   W12
        BYTE                   En3   v071
        BYTE   W12
        BYTE                   Bn2   v092
        BYTE   W12
        BYTE                   Dn3   v084
        BYTE   W12
        BYTE                   Fs3   v067
        BYTE   W12
        BYTE                   En3   v071
        BYTE   W12
        BYTE                   Gn3   v084
        BYTE   W12
// 045   ----------------------------------------
        BYTE                   An3   v081
        BYTE   W12
        BYTE                   As3   v084
        BYTE   W12
        BYTE                   An3   v081
        BYTE   W12
        BYTE                   Fs3   v067
        BYTE   W12
        BYTE                   Gn3   v084
        BYTE   W12
        BYTE                   En3   v071
        BYTE   W12
        BYTE                   Fs3   v067
        BYTE   W12
        BYTE                   Dn3   v084
        BYTE   W12
// 046   ----------------------------------------
        BYTE                   Bn2   v092
        BYTE   W12
        BYTE                   En3   v071
        BYTE   W12
        BYTE                   Dn3   v084
        BYTE   W12
        BYTE                   Fs3   v067
        BYTE   W12
        BYTE                   Gn3   v084
        BYTE   W12
        BYTE                   An3   v092
        BYTE   W12
        BYTE                   Gn3   v084
        BYTE   W12
        BYTE                   En3   v071
        BYTE   W12
// 047   ----------------------------------------
        BYTE                   Fs3   v067
        BYTE   W12
        BYTE                   Dn3   v084
        BYTE   W12
        BYTE                   En3   v071
        BYTE   W12
        BYTE                   Bn2   v092
        BYTE   W12
        BYTE                   As2
        BYTE   W12
        BYTE                   En3   v071
        BYTE   W12
        BYTE                   Fs3   v067
        BYTE   W12
        BYTE                   Gn3   v081
        BYTE   W12
// 048   ----------------------------------------
        BYTE                   An3   v084
        BYTE   W12
        BYTE                   As3
        BYTE   W12
        BYTE           TIE     Bn3   v071
        BYTE   W72
// 049   ----------------------------------------
        BYTE   W48
        BYTE           VOL     43
        BYTE   W06
        BYTE                   38
        BYTE   W06
        BYTE                   32
        BYTE   W06
        BYTE                   25
        BYTE   W06
        BYTE           EOT
        BYTE           VOL     59
        BYTE   W24
// 050   ----------------------------------------
        BYTE   W96
// 051   ----------------------------------------
        BYTE   W96
// 052   ----------------------------------------
        BYTE   W96
// 053   ----------------------------------------
        BYTE   W96
// 054   ----------------------------------------
        BYTE   W96
// 055   ----------------------------------------
        BYTE   W96
// 056   ----------------------------------------
        BYTE   W96
// 057   ----------------------------------------
        BYTE   W96
// 058   ----------------------------------------
        BYTE   W96
// 059   ----------------------------------------
        BYTE   W24
        BYTE   GoTo
         POIN2  song033_1_LOOP
        BYTE   FINE

//****************** Track 2 (Midi-Chn.2) ******************//

song033_2:
        BYTE   KEYSH   song033_key+0
// 000   ----------------------------------------
        BYTE           VOICE   86
        BYTE           VOL     60
        BYTE   W96
// 001   ----------------------------------------
        BYTE   W24
song033_2_LOOP:
        BYTE           N18     Bn1   v127
        BYTE           N18     En1
        BYTE   W36
        BYTE                   Bn1
        BYTE           N18     En1
        BYTE   W36
// 002   ----------------------------------------
song033_2_2:
        BYTE           N18     Cs2   v119
        BYTE           N18     Fs1   v127
        BYTE   W24
        BYTE                   Cs2   v119
        BYTE           N18     Fs1   v127
        BYTE   W24
        BYTE                   Dn2   v119
        BYTE           N18     Gn1   v127
        BYTE   W36
        BYTE                   Dn2   v119
        BYTE           N18     Gn1   v127
        BYTE   W12
        BYTE   PEND
// 003   ----------------------------------------
song033_2_3:
        BYTE   W24
        BYTE           N18     Cs2   v119
        BYTE           N18     Fs1   v127
        BYTE   W24
        BYTE                   Cs2   v119
        BYTE           N18     Fs1   v127
        BYTE   W24
        BYTE                   Bn1
        BYTE           N18     En1
        BYTE   W24
        BYTE   PEND
// 004   ----------------------------------------
song033_2_4:
        BYTE   W12
        BYTE           N18     Bn1   v127
        BYTE           N18     En1
        BYTE   W36
        BYTE                   An1
        BYTE           N18     Dn1
        BYTE   W24
        BYTE                   Cs2   v119
        BYTE           N18     Fs1   v127
        BYTE   W24
        BYTE   PEND
// 005   ----------------------------------------
song033_2_5:
        BYTE           N18     Bn1   v127
        BYTE           N18     En1
        BYTE   W36
        BYTE                   Bn1
        BYTE           N18     En1
        BYTE   W36
        BYTE                   Gn1
        BYTE           N18     Cn1
        BYTE   W24
        BYTE   PEND
// 006   ----------------------------------------
song033_2_6:
        BYTE           N18     An1   v127
        BYTE           N18     Dn1
        BYTE   W24
        BYTE                   Bn1
        BYTE           N18     En1
        BYTE   W36
        BYTE                   Bn1
        BYTE           N18     En1
        BYTE   W36
        BYTE   PEND
// 007   ----------------------------------------
        BYTE   PATT
         POIN2  song033_2_2
// 008   ----------------------------------------
        BYTE   PATT
         POIN2  song033_2_3
// 009   ----------------------------------------
        BYTE   PATT
         POIN2  song033_2_4
// 010   ----------------------------------------
        BYTE   PATT
         POIN2  song033_2_5
// 011   ----------------------------------------
        BYTE   PATT
         POIN2  song033_2_6
// 012   ----------------------------------------
        BYTE   PATT
         POIN2  song033_2_2
// 013   ----------------------------------------
        BYTE   PATT
         POIN2  song033_2_3
// 014   ----------------------------------------
        BYTE   PATT
         POIN2  song033_2_4
// 015   ----------------------------------------
        BYTE   PATT
         POIN2  song033_2_5
// 016   ----------------------------------------
        BYTE           N12     An1   v127
        BYTE           N12     Dn1
        BYTE   W24
        BYTE           N18     Bn1
        BYTE   W36
        BYTE                   Bn1
        BYTE           N18     En1
        BYTE   W36
// 017   ----------------------------------------
        BYTE   PATT
         POIN2  song033_2_2
// 018   ----------------------------------------
        BYTE   PATT
         POIN2  song033_2_3
// 019   ----------------------------------------
        BYTE   PATT
         POIN2  song033_2_4
// 020   ----------------------------------------
        BYTE   PATT
         POIN2  song033_2_5
// 021   ----------------------------------------
        BYTE           N18     An1   v127
        BYTE           N18     Dn1
        BYTE   W24
        BYTE                   En2   v119
        BYTE           N18     Bn1   v127
        BYTE   W72
// 022   ----------------------------------------
        BYTE                   En2   v119
        BYTE           N18     Bn1   v127
        BYTE   W24
        BYTE                   En2   v119
        BYTE           N18     Bn1   v127
        BYTE   W48
        BYTE                   En2   v119
        BYTE           N18     Bn1   v127
        BYTE   W24
// 023   ----------------------------------------
        BYTE   W48
        BYTE                   En2   v119
        BYTE           N18     Bn1   v127
        BYTE   W24
        BYTE                   Gn2   v119
        BYTE           N18     Dn2
        BYTE   W24
// 024   ----------------------------------------
        BYTE   W24
        BYTE                   En2
        BYTE           N18     As1   v127
        BYTE   W72
// 025   ----------------------------------------
        BYTE                   En2   v119
        BYTE           N18     As1   v127
        BYTE   W24
        BYTE                   En2   v119
        BYTE           N18     As1   v127
        BYTE   W48
        BYTE                   En2   v119
        BYTE           N18     As1   v127
        BYTE   W24
// 026   ----------------------------------------
        BYTE   W48
        BYTE                   En2   v119
        BYTE           N18     As1   v127
        BYTE   W24
        BYTE                   Gn2   v119
        BYTE           N18     Cs2
        BYTE   W24
// 027   ----------------------------------------
song033_2_27:
        BYTE   W24
        BYTE           N18     Bn1   v127
        BYTE           N18     En1
        BYTE   W36
        BYTE                   Bn1
        BYTE           N18     En1
        BYTE   W36
        BYTE   PEND
// 028   ----------------------------------------
        BYTE   PATT
         POIN2  song033_2_2
// 029   ----------------------------------------
        BYTE   PATT
         POIN2  song033_2_3
// 030   ----------------------------------------
        BYTE   PATT
         POIN2  song033_2_4
// 031   ----------------------------------------
        BYTE           N18     Bn1   v127
        BYTE           N18     En1
        BYTE   W36
        BYTE                   Bn1
        BYTE           N18     En1
        BYTE   W36
        BYTE                   Bn1
        BYTE           N18     En1
        BYTE   W24
// 032   ----------------------------------------
        BYTE                   Cs2   v119
        BYTE           N18     Fs1   v127
        BYTE   W96
// 033   ----------------------------------------
        BYTE   W96
// 034   ----------------------------------------
        BYTE   W96
// 035   ----------------------------------------
        BYTE   W96
// 036   ----------------------------------------
        BYTE   W96
// 037   ----------------------------------------
        BYTE   W96
// 038   ----------------------------------------
        BYTE   W96
// 039   ----------------------------------------
        BYTE   W96
// 040   ----------------------------------------
        BYTE   W96
// 041   ----------------------------------------
        BYTE   W96
// 042   ----------------------------------------
song033_2_42:
        BYTE   W24
        BYTE           N18     En2   v119
        BYTE           N18     Bn1   v127
        BYTE   W36
        BYTE                   En2   v119
        BYTE           N18     Bn1   v127
        BYTE   W36
        BYTE   PEND
// 043   ----------------------------------------
song033_2_43:
        BYTE           N18     En2   v119
        BYTE           N18     Bn1   v127
        BYTE   W36
        BYTE                   En2   v119
        BYTE           N18     Bn1   v127
        BYTE   W36
        BYTE                   En2   v119
        BYTE           N18     Bn1   v127
        BYTE   W24
        BYTE   PEND
// 044   ----------------------------------------
        BYTE   W12
        BYTE                   En2   v119
        BYTE           N18     Bn1   v127
        BYTE   W36
        BYTE                   En2   v119
        BYTE           N18     Bn1   v127
        BYTE   W24
        BYTE                   Fn2   v119
        BYTE           N18     Cn2
        BYTE   W24
// 045   ----------------------------------------
        BYTE   PATT
         POIN2  song033_2_42
// 046   ----------------------------------------
        BYTE   PATT
         POIN2  song033_2_43
// 047   ----------------------------------------
        BYTE   W12
        BYTE           N18     En2   v119
        BYTE           N18     Bn1   v127
        BYTE   W36
        BYTE                   En2   v119
        BYTE           N18     Bn1   v127
        BYTE   W24
        BYTE                   Gn2   v112
        BYTE           N18     Dn2   v119
        BYTE   W24
// 048   ----------------------------------------
song033_2_48:
        BYTE   W24
        BYTE           N06     En2   v119
        BYTE   W06
        BYTE                   Fs2
        BYTE   W06
        BYTE           N18     Gn2   v112
        BYTE   W60
        BYTE   PEND
// 049   ----------------------------------------
        BYTE           N06     En2   v119
        BYTE   W06
        BYTE                   Fs2
        BYTE   W06
        BYTE           N18     Gn2   v112
        BYTE   W36
        BYTE           N12     Fs2   v119
        BYTE   W12
        BYTE                   Dn2   v127
        BYTE   W12
        BYTE           N06     En2   v119
        BYTE   W06
        BYTE                   Fs2
        BYTE   W06
        BYTE           N18     Gn2   v112
        BYTE   W12
// 050   ----------------------------------------
        BYTE   W48
        BYTE           N06     Gn2   v110
        BYTE           N06     En2   v114
        BYTE   W06
        BYTE                   An2   v110
        BYTE           N06     Fs2   v114
        BYTE   W06
        BYTE           N18     As2   v095
        BYTE           N18     Gn2   v110
        BYTE   W36
// 051   ----------------------------------------
        BYTE   PATT
         POIN2  song033_2_48
// 052   ----------------------------------------
        BYTE           N06     En2   v119
        BYTE   W06
        BYTE                   Fs2
        BYTE   W06
        BYTE           N18     Gn2   v112
        BYTE   W36
        BYTE           N12     Fs2   v119
        BYTE   W12
        BYTE                   Dn2   v127
        BYTE   W12
        BYTE           N06     As2   v087
        BYTE           N06     En2   v112
        BYTE   W06
        BYTE                   Cn3   v087
        BYTE           N06     Fs2   v112
        BYTE   W06
        BYTE           N18     Cs3   v087
        BYTE           N18     Gn2   v108
        BYTE   W12
// 053   ----------------------------------------
        BYTE   W48
        BYTE           N06     As2   v087
        BYTE           N06     En2   v112
        BYTE   W06
        BYTE                   Cn3   v087
        BYTE           N06     Fs2   v112
        BYTE   W06
        BYTE           N18     Cs3   v087
        BYTE           N18     Gn2   v108
        BYTE   W36
// 054   ----------------------------------------
        BYTE   PATT
         POIN2  song033_2_27
// 055   ----------------------------------------
        BYTE   PATT
         POIN2  song033_2_2
// 056   ----------------------------------------
        BYTE   PATT
         POIN2  song033_2_3
// 057   ----------------------------------------
        BYTE   PATT
         POIN2  song033_2_4
// 058   ----------------------------------------
        BYTE   PATT
         POIN2  song033_2_5
// 059   ----------------------------------------
        BYTE           N18     An1   v127
        BYTE           N18     Dn1
        BYTE   W24
        BYTE   GoTo
         POIN2  song033_2_LOOP
        BYTE   FINE

//****************** Track 3 (Midi-Chn.3) ******************//

song033_3:
        BYTE   KEYSH   song033_key+0
// 000   ----------------------------------------
        BYTE           VOICE   22
        BYTE           VOL     59
        BYTE           BENDR   25
        BYTE   W96
// 001   ----------------------------------------
        BYTE   W24
song033_3_LOOP:
        BYTE   W72
// 002   ----------------------------------------
        BYTE   W96
// 003   ----------------------------------------
        BYTE   W72
        BYTE           TIE     Bn2   v078
        BYTE   W24
// 004   ----------------------------------------
        BYTE   W96
// 005   ----------------------------------------
        BYTE   W24
        BYTE           VOL     56
        BYTE   W06
        BYTE                   58
        BYTE   W06
        BYTE                   60
        BYTE   W06
        BYTE                   61
        BYTE   W06
        BYTE                   63
        BYTE   W06
        BYTE                   64
        BYTE   W06
        BYTE                   66
        BYTE   W12
        BYTE           EOT
        BYTE           VOL     59
        BYTE           N24     En3   v095
        BYTE   W24
// 006   ----------------------------------------
        BYTE                   Bn3   v084
        BYTE   W24
        BYTE           N12     An3
        BYTE   W12
        BYTE           N06     Gn3   v074
        BYTE   W06
        BYTE                   Fs3   v081
        BYTE   W06
        BYTE           N12     Gn3   v084
        BYTE   W12
        BYTE           N06     Fs3
        BYTE   W06
        BYTE                   En3   v090
        BYTE   W06
        BYTE           TIE     Fs3   v081
        BYTE   W24
// 007   ----------------------------------------
        BYTE   W96
// 008   ----------------------------------------
        BYTE           VOL     56
        BYTE   W06
        BYTE                   54
        BYTE   W06
        BYTE                   53
        BYTE   W06
        BYTE                   50
        BYTE   W06
        BYTE                   48
        BYTE   W06
        BYTE                   46
        BYTE   W06
        BYTE                   43
        BYTE   W06
        BYTE                   41
        BYTE   W06
        BYTE                   38
        BYTE   W06
        BYTE                   34
        BYTE   W06
        BYTE                   31
        BYTE   W06
        BYTE                   27
        BYTE   W06
        BYTE           EOT
        BYTE           VOL     58
        BYTE           TIE     Bn2   v092
        BYTE   W12
        BYTE           VOL     56
        BYTE   W12
// 009   ----------------------------------------
        BYTE                   55
        BYTE   W06
        BYTE                   54
        BYTE   W06
        BYTE                   53
        BYTE   W12
        BYTE                   52
        BYTE   W06
        BYTE                   51
        BYTE   W06
        BYTE                   50
        BYTE   W54
        BYTE                   49
        BYTE   W06
// 010   ----------------------------------------
        BYTE           EOT
        BYTE           VOL     59
        BYTE           N36     En2   v108
        BYTE   W36
        BYTE                   Bn2   v095
        BYTE   W36
        BYTE           N48     An2   v103
        BYTE   W24
// 011   ----------------------------------------
        BYTE   W96
// 012   ----------------------------------------
        BYTE   W96
// 013   ----------------------------------------
        BYTE   W72
        BYTE           TIE     Bn2   v084
        BYTE   W24
// 014   ----------------------------------------
        BYTE   W96
// 015   ----------------------------------------
        BYTE   W72
        BYTE           EOT
        BYTE           N24     En3   v074
        BYTE   W24
// 016   ----------------------------------------
        BYTE                   Bn3   v063
        BYTE   W24
        BYTE           N12     An3   v074
        BYTE   W12
        BYTE           N06     Gn3
        BYTE   W06
        BYTE                   Fs3
        BYTE   W06
        BYTE           N12     Gn3
        BYTE   W12
        BYTE           N06     Fs3
        BYTE   W06
        BYTE                   En3
        BYTE   W06
        BYTE           TIE     Fs3
        BYTE   W24
// 017   ----------------------------------------
        BYTE   W96
// 018   ----------------------------------------
        BYTE   W72
        BYTE           EOT
        BYTE           TIE     Bn2   v084
        BYTE   W24
// 019   ----------------------------------------
        BYTE   W96
// 020   ----------------------------------------
        BYTE           EOT
        BYTE           N36     En2
        BYTE   W36
        BYTE                   Bn2
        BYTE   W36
        BYTE           N48     An2
        BYTE   W24
// 021   ----------------------------------------
        BYTE   W96
// 022   ----------------------------------------
        BYTE   W96
// 023   ----------------------------------------
        BYTE   W96
// 024   ----------------------------------------
        BYTE   W24
        BYTE           TIE     Gn3   v071
        BYTE   W72
// 025   ----------------------------------------
        BYTE   W96
// 026   ----------------------------------------
        BYTE   W96
// 027   ----------------------------------------
        BYTE   W24
        BYTE           EOT
        BYTE   W72
// 028   ----------------------------------------
        BYTE   W96
// 029   ----------------------------------------
        BYTE   W96
// 030   ----------------------------------------
        BYTE   W96
// 031   ----------------------------------------
        BYTE   W96
// 032   ----------------------------------------
        BYTE   W96
// 033   ----------------------------------------
        BYTE   W96
// 034   ----------------------------------------
        BYTE   W96
// 035   ----------------------------------------
        BYTE   W96
// 036   ----------------------------------------
        BYTE   W96
// 037   ----------------------------------------
        BYTE   W96
// 038   ----------------------------------------
        BYTE   W96
// 039   ----------------------------------------
        BYTE   W96
// 040   ----------------------------------------
        BYTE   W96
// 041   ----------------------------------------
        BYTE   W96
// 042   ----------------------------------------
        BYTE   W96
// 043   ----------------------------------------
        BYTE   W96
// 044   ----------------------------------------
        BYTE   W96
// 045   ----------------------------------------
        BYTE   W96
// 046   ----------------------------------------
        BYTE   W96
// 047   ----------------------------------------
        BYTE   W96
// 048   ----------------------------------------
        BYTE   W96
// 049   ----------------------------------------
        BYTE   W96
// 050   ----------------------------------------
        BYTE   W96
// 051   ----------------------------------------
        BYTE   W24
        BYTE           TIE
        BYTE   W72
// 052   ----------------------------------------
        BYTE   W96
// 053   ----------------------------------------
        BYTE   W96
// 054   ----------------------------------------
        BYTE   W24
        BYTE           EOT
        BYTE           TIE     En3   v078
        BYTE   W72
// 055   ----------------------------------------
        BYTE   W96
// 056   ----------------------------------------
        BYTE   W72
        BYTE           EOT
        BYTE           TIE     Bn2   v081
        BYTE   W24
// 057   ----------------------------------------
        BYTE   W96
// 058   ----------------------------------------
        BYTE           EOT
        BYTE           N36     En2   v100
        BYTE   W36
        BYTE                   Bn2   v090
        BYTE   W36
        BYTE           N48     Dn3   v092
        BYTE   W24
// 059   ----------------------------------------
        BYTE   W24
        BYTE   GoTo
         POIN2  song033_3_LOOP
        BYTE   FINE

//****************** Track 4 (Midi-Chn.4) ******************//

song033_4:
        BYTE   KEYSH   song033_key+0
// 000   ----------------------------------------
        BYTE           VOICE   86
        BYTE           VOL     66
        BYTE   W96
// 001   ----------------------------------------
        BYTE   W24
song033_4_LOOP:
        BYTE   W72
// 002   ----------------------------------------
        BYTE   W96
// 003   ----------------------------------------
        BYTE   W96
// 004   ----------------------------------------
        BYTE   W96
// 005   ----------------------------------------
        BYTE   W96
// 006   ----------------------------------------
        BYTE   W96
// 007   ----------------------------------------
        BYTE   W96
// 008   ----------------------------------------
        BYTE   W96
// 009   ----------------------------------------
        BYTE   W96
// 010   ----------------------------------------
        BYTE   W96
// 011   ----------------------------------------
        BYTE   W96
// 012   ----------------------------------------
        BYTE   W96
// 013   ----------------------------------------
        BYTE   W96
// 014   ----------------------------------------
        BYTE   W96
// 015   ----------------------------------------
        BYTE   W96
// 016   ----------------------------------------
        BYTE   W96
// 017   ----------------------------------------
        BYTE   W96
// 018   ----------------------------------------
        BYTE   W96
// 019   ----------------------------------------
        BYTE   W96
// 020   ----------------------------------------
        BYTE   W96
// 021   ----------------------------------------
        BYTE   W96
// 022   ----------------------------------------
        BYTE   W96
// 023   ----------------------------------------
        BYTE   W96
// 024   ----------------------------------------
        BYTE   W48
        BYTE           N06     En1   v110
        BYTE   W06
        BYTE                   Fs1
        BYTE   W06
        BYTE                   En1
        BYTE   W06
        BYTE                   Fs1
        BYTE   W06
        BYTE                   Gn1
        BYTE   W06
        BYTE                   An1   v121
        BYTE   W06
        BYTE                   Gn1   v110
        BYTE   W06
        BYTE                   An1   v121
        BYTE   W06
// 025   ----------------------------------------
        BYTE                   As1
        BYTE   W06
        BYTE                   Cn2   v110
        BYTE   W06
        BYTE                   As1   v121
        BYTE   W06
        BYTE                   Cn2   v110
        BYTE   W06
        BYTE                   Cs2
        BYTE   W06
        BYTE                   Cn2
        BYTE   W06
        BYTE                   Cs2
        BYTE   W06
        BYTE                   Cn2
        BYTE   W06
        BYTE                   As1   v121
        BYTE   W06
        BYTE                   Cn2   v110
        BYTE   W06
        BYTE                   As1   v121
        BYTE   W06
        BYTE                   An1
        BYTE   W06
        BYTE                   As1
        BYTE   W06
        BYTE                   An1
        BYTE   W06
        BYTE                   Gn1   v110
        BYTE   W06
        BYTE                   An1   v121
        BYTE   W06
// 026   ----------------------------------------
song033_4_26:
        BYTE           N06     Gn1   v110
        BYTE   W06
        BYTE                   Fs1
        BYTE   W06
        BYTE                   Gn1
        BYTE   W06
        BYTE                   Fs1
        BYTE   W06
        BYTE                   En1
        BYTE   W06
        BYTE                   Fs1
        BYTE   W06
        BYTE                   En1
        BYTE   W06
        BYTE                   Ds1
        BYTE   W06
        BYTE                   En1
        BYTE   W06
        BYTE                   Ds1
        BYTE   W06
        BYTE                   Cs1   v121
        BYTE   W06
        BYTE                   Ds1   v110
        BYTE   W06
        BYTE                   Cs1   v121
        BYTE   W06
        BYTE                   Cn1
        BYTE   W06
        BYTE                   Cs1
        BYTE   W06
        BYTE                   Cn1
        BYTE   W06
        BYTE   PEND
// 027   ----------------------------------------
song033_4_27:
        BYTE           N06     As0   v121
        BYTE   W06
        BYTE                   Cn1
        BYTE   W06
        BYTE                   As0
        BYTE   W06
        BYTE                   An0
        BYTE   W78
        BYTE   PEND
// 028   ----------------------------------------
        BYTE   W96
// 029   ----------------------------------------
        BYTE   W96
// 030   ----------------------------------------
        BYTE   W96
// 031   ----------------------------------------
        BYTE   W96
// 032   ----------------------------------------
        BYTE   W96
// 033   ----------------------------------------
        BYTE   W96
// 034   ----------------------------------------
        BYTE   W96
// 035   ----------------------------------------
        BYTE   W96
// 036   ----------------------------------------
        BYTE   W96
// 037   ----------------------------------------
        BYTE   W96
// 038   ----------------------------------------
        BYTE   W96
// 039   ----------------------------------------
        BYTE   W96
// 040   ----------------------------------------
        BYTE   W96
// 041   ----------------------------------------
        BYTE   W96
// 042   ----------------------------------------
        BYTE   W96
// 043   ----------------------------------------
        BYTE   W96
// 044   ----------------------------------------
        BYTE   W96
// 045   ----------------------------------------
        BYTE   W96
// 046   ----------------------------------------
        BYTE   W96
// 047   ----------------------------------------
        BYTE   W96
// 048   ----------------------------------------
        BYTE   W96
// 049   ----------------------------------------
        BYTE   W96
// 050   ----------------------------------------
        BYTE   W96
// 051   ----------------------------------------
        BYTE   W48
        BYTE                   En1   v110
        BYTE   W06
        BYTE                   Fs1
        BYTE   W06
        BYTE                   En1
        BYTE   W06
        BYTE                   Fs1
        BYTE   W06
        BYTE                   Gn1
        BYTE   W06
        BYTE                   An1
        BYTE   W06
        BYTE                   Gn1
        BYTE   W06
        BYTE                   An1
        BYTE   W06
// 052   ----------------------------------------
        BYTE                   As1
        BYTE   W06
        BYTE                   Cn2
        BYTE   W06
        BYTE                   As1
        BYTE   W06
        BYTE                   Cn2
        BYTE   W06
        BYTE                   Cs2
        BYTE   W06
        BYTE                   Cn2
        BYTE   W06
        BYTE                   Cs2
        BYTE   W06
        BYTE                   Cn2
        BYTE   W06
        BYTE                   As1
        BYTE   W06
        BYTE                   Cn2
        BYTE   W06
        BYTE                   As1
        BYTE   W06
        BYTE                   An1
        BYTE   W06
        BYTE                   As1
        BYTE   W06
        BYTE                   An1
        BYTE   W06
        BYTE                   Gn1
        BYTE   W06
        BYTE                   An1
        BYTE   W06
// 053   ----------------------------------------
        BYTE   PATT
         POIN2  song033_4_26
// 054   ----------------------------------------
        BYTE   PATT
         POIN2  song033_4_27
// 055   ----------------------------------------
        BYTE   W96
// 056   ----------------------------------------
        BYTE   W96
// 057   ----------------------------------------
        BYTE   W96
// 058   ----------------------------------------
        BYTE   W96
// 059   ----------------------------------------
        BYTE   W24
        BYTE   GoTo
         POIN2  song033_4_LOOP
        BYTE   FINE

//****************** Track 5 (Midi-Chn.5) ******************//

song033_5:
        BYTE   KEYSH   song033_key+0
// 000   ----------------------------------------
        BYTE           VOICE   17
        BYTE           VOL     59
        BYTE   W96
// 001   ----------------------------------------
        BYTE   W12
        BYTE           N12     Bn3   v112
        BYTE   W12
song033_5_LOOP:
        BYTE           TIE     En3   v127
        BYTE   W72
// 002   ----------------------------------------
        BYTE   W48
        BYTE           EOT
        BYTE   W48
// 003   ----------------------------------------
song033_5_3:
        BYTE   W60
        BYTE           N12     Bn3   v112
        BYTE   W12
        BYTE           TIE     En3   v127
        BYTE   W24
        BYTE   PEND
// 004   ----------------------------------------
        BYTE   W96
// 005   ----------------------------------------
        BYTE           EOT
        BYTE   W96
// 006   ----------------------------------------
song033_5_6:
        BYTE   W12
        BYTE           N12     Bn3   v112
        BYTE   W12
        BYTE           TIE     En3   v127
        BYTE   W72
        BYTE   PEND
// 007   ----------------------------------------
        BYTE   W48
        BYTE           EOT
        BYTE   W48
// 008   ----------------------------------------
        BYTE   PATT
         POIN2  song033_5_3
// 009   ----------------------------------------
        BYTE   W96
// 010   ----------------------------------------
        BYTE           EOT     En3
        BYTE   W96
// 011   ----------------------------------------
        BYTE   W24
        BYTE           TIE     En3   v127
        BYTE   W72
// 012   ----------------------------------------
        BYTE   W48
        BYTE           EOT
        BYTE   W48
// 013   ----------------------------------------
        BYTE   PATT
         POIN2  song033_5_3
// 014   ----------------------------------------
        BYTE   W96
// 015   ----------------------------------------
        BYTE           EOT     En3
        BYTE   W96
// 016   ----------------------------------------
        BYTE   PATT
         POIN2  song033_5_6
// 017   ----------------------------------------
        BYTE   W48
        BYTE           EOT     En3
        BYTE   W48
// 018   ----------------------------------------
        BYTE   PATT
         POIN2  song033_5_3
// 019   ----------------------------------------
        BYTE   W96
// 020   ----------------------------------------
        BYTE           EOT     En3
        BYTE   W96
// 021   ----------------------------------------
        BYTE   W96
// 022   ----------------------------------------
        BYTE   W96
// 023   ----------------------------------------
        BYTE   W96
// 024   ----------------------------------------
        BYTE   W96
// 025   ----------------------------------------
        BYTE   W96
// 026   ----------------------------------------
        BYTE   W96
// 027   ----------------------------------------
        BYTE   W24
        BYTE           TIE     En3   v127
        BYTE   W72
// 028   ----------------------------------------
        BYTE   W48
        BYTE           EOT
        BYTE   W48
// 029   ----------------------------------------
        BYTE   PATT
         POIN2  song033_5_3
// 030   ----------------------------------------
        BYTE   W96
// 031   ----------------------------------------
        BYTE           EOT     En3
        BYTE   W96
// 032   ----------------------------------------
        BYTE   W96
// 033   ----------------------------------------
        BYTE   W96
// 034   ----------------------------------------
        BYTE   W96
// 035   ----------------------------------------
        BYTE   W96
// 036   ----------------------------------------
        BYTE   W96
// 037   ----------------------------------------
        BYTE   W96
// 038   ----------------------------------------
        BYTE   W96
// 039   ----------------------------------------
        BYTE   W96
// 040   ----------------------------------------
        BYTE   W96
// 041   ----------------------------------------
        BYTE   W96
// 042   ----------------------------------------
        BYTE   W96
// 043   ----------------------------------------
        BYTE   W96
// 044   ----------------------------------------
        BYTE   W96
// 045   ----------------------------------------
        BYTE   W96
// 046   ----------------------------------------
        BYTE   W96
// 047   ----------------------------------------
        BYTE   W96
// 048   ----------------------------------------
        BYTE   W96
// 049   ----------------------------------------
        BYTE   W96
// 050   ----------------------------------------
        BYTE   W96
// 051   ----------------------------------------
        BYTE   W96
// 052   ----------------------------------------
        BYTE   W96
// 053   ----------------------------------------
        BYTE   W96
// 054   ----------------------------------------
        BYTE   W24
        BYTE           TIE     En3   v127
        BYTE   W72
// 055   ----------------------------------------
        BYTE   W48
        BYTE           EOT
        BYTE   W48
// 056   ----------------------------------------
        BYTE   PATT
         POIN2  song033_5_3
// 057   ----------------------------------------
        BYTE   W96
// 058   ----------------------------------------
        BYTE           EOT     En3
        BYTE   W96
// 059   ----------------------------------------
        BYTE   W24
        BYTE   GoTo
         POIN2  song033_5_LOOP
        BYTE   FINE

//****************** Track 6 (Midi-Chn.6) ******************//

song033_6:
        BYTE   KEYSH   song033_key+0
// 000   ----------------------------------------
        BYTE           VOICE   90
        BYTE           VOL     66
        BYTE   W96
// 001   ----------------------------------------
        BYTE   W24
song033_6_LOOP:
        BYTE   W72
// 002   ----------------------------------------
        BYTE   W96
// 003   ----------------------------------------
        BYTE   W96
// 004   ----------------------------------------
        BYTE   W96
// 005   ----------------------------------------
        BYTE   W96
// 006   ----------------------------------------
        BYTE   W96
// 007   ----------------------------------------
        BYTE   W96
// 008   ----------------------------------------
        BYTE   W96
// 009   ----------------------------------------
        BYTE   W96
// 010   ----------------------------------------
        BYTE   W96
// 011   ----------------------------------------
        BYTE   W96
// 012   ----------------------------------------
        BYTE   W96
// 013   ----------------------------------------
        BYTE   W96
// 014   ----------------------------------------
        BYTE   W96
// 015   ----------------------------------------
        BYTE   W96
// 016   ----------------------------------------
        BYTE   W96
// 017   ----------------------------------------
        BYTE   W96
// 018   ----------------------------------------
        BYTE   W96
// 019   ----------------------------------------
        BYTE   W96
// 020   ----------------------------------------
        BYTE   W96
// 021   ----------------------------------------
        BYTE   W96
// 022   ----------------------------------------
        BYTE   W96
// 023   ----------------------------------------
        BYTE   W96
// 024   ----------------------------------------
        BYTE   W96
// 025   ----------------------------------------
        BYTE   W96
// 026   ----------------------------------------
        BYTE   W96
// 027   ----------------------------------------
        BYTE   W96
// 028   ----------------------------------------
        BYTE   W96
// 029   ----------------------------------------
        BYTE   W96
// 030   ----------------------------------------
        BYTE   W96
// 031   ----------------------------------------
        BYTE   W96
// 032   ----------------------------------------
        BYTE   W24
        BYTE           N36     Cn0   v127
        BYTE   W36
        BYTE                   Gn0
        BYTE   W36
// 033   ----------------------------------------
        BYTE           N24     En1
        BYTE   W24
        BYTE                   Gn0
        BYTE   W24
        BYTE           N36     Cn0
        BYTE   W36
        BYTE                   Gn0
        BYTE   W12
// 034   ----------------------------------------
        BYTE   W24
        BYTE           N24     En1
        BYTE   W24
        BYTE                   Gn0
        BYTE   W24
        BYTE           N36     Dn0
        BYTE   W24
// 035   ----------------------------------------
        BYTE   W12
        BYTE                   An0
        BYTE   W36
        BYTE           N24     Fs1
        BYTE   W24
        BYTE                   An0
        BYTE   W24
// 036   ----------------------------------------
song033_6_36:
        BYTE           N36     Dn0   v127
        BYTE   W36
        BYTE                   An0
        BYTE   W36
        BYTE           N24     Fs1
        BYTE   W24
        BYTE   PEND
// 037   ----------------------------------------
        BYTE                   An0
        BYTE   W24
        BYTE           N36
        BYTE   W36
        BYTE                   En1
        BYTE   W36
// 038   ----------------------------------------
        BYTE           N24     An1
        BYTE   W24
        BYTE                   En0
        BYTE   W24
        BYTE           N36     An0
        BYTE   W36
        BYTE                   En1
        BYTE   W12
// 039   ----------------------------------------
        BYTE   W24
        BYTE           N24     An1
        BYTE   W24
        BYTE                   An0
        BYTE   W24
        BYTE           N36     Cn0
        BYTE   W24
// 040   ----------------------------------------
        BYTE   W12
        BYTE                   Gn0
        BYTE   W36
        BYTE           N24     En1
        BYTE   W24
        BYTE                   Gn0
        BYTE   W24
// 041   ----------------------------------------
        BYTE   PATT
         POIN2  song033_6_36
// 042   ----------------------------------------
        BYTE           N24     Dn0   v127
        BYTE   W96
// 043   ----------------------------------------
        BYTE   W96
// 044   ----------------------------------------
        BYTE   W96
// 045   ----------------------------------------
        BYTE   W96
// 046   ----------------------------------------
        BYTE   W96
// 047   ----------------------------------------
        BYTE   W96
// 048   ----------------------------------------
        BYTE   W96
// 049   ----------------------------------------
        BYTE   W96
// 050   ----------------------------------------
        BYTE   W96
// 051   ----------------------------------------
        BYTE   W96
// 052   ----------------------------------------
        BYTE   W96
// 053   ----------------------------------------
        BYTE   W96
// 054   ----------------------------------------
        BYTE   W96
// 055   ----------------------------------------
        BYTE   W96
// 056   ----------------------------------------
        BYTE   W96
// 057   ----------------------------------------
        BYTE   W96
// 058   ----------------------------------------
        BYTE   W96
// 059   ----------------------------------------
        BYTE   W24
        BYTE   GoTo
         POIN2  song033_6_LOOP
        BYTE   FINE

//****************** Track 7 (Midi-Chn.7) ******************//

song033_7:
        BYTE   KEYSH   song033_key+0
// 000   ----------------------------------------
        BYTE           VOICE   100
        BYTE           VOL     59
        BYTE           BENDR   15
        BYTE   W96
// 001   ----------------------------------------
        BYTE   W24
song033_7_LOOP:
        BYTE           VOL     49
        BYTE           TIE     En1   v108
        BYTE   W18
        BYTE           VOL     50
        BYTE   W06
        BYTE                   51
        BYTE   W18
        BYTE                   52
        BYTE   W06
        BYTE                   53
        BYTE   W18
        BYTE                   54
        BYTE   W06
// 002   ----------------------------------------
song033_7_2:
        BYTE   W06
        BYTE           VOL     55
        BYTE   W06
        BYTE                   56
        BYTE   W18
        BYTE                   57
        BYTE   W06
        BYTE                   58
        BYTE   W24
        BYTE                   56
        BYTE   W18
        BYTE                   55
        BYTE   W06
        BYTE                   54
        BYTE   W06
        BYTE                   53
        BYTE   W06
        BYTE   PEND
// 003   ----------------------------------------
        BYTE   W06
        BYTE                   52
        BYTE   W06
        BYTE                   51
        BYTE   W12
        BYTE           EOT     En1
        BYTE           VOL     59
        BYTE           N24     Bn1   v103
        BYTE   W24
        BYTE                   En2   v092
        BYTE   W24
        BYTE           VOL     53
        BYTE           TIE     Dn2   v110
        BYTE   W18
        BYTE           VOL     52
        BYTE   W06
// 004   ----------------------------------------
        BYTE                   51
        BYTE   W18
        BYTE                   50
        BYTE   W06
        BYTE                   49
        BYTE   W06
        BYTE                   51
        BYTE   W06
        BYTE                   52
        BYTE   W06
        BYTE                   53
        BYTE   W12
        BYTE                   54
        BYTE   W06
        BYTE                   55
        BYTE   W06
        BYTE                   56
        BYTE   W18
        BYTE                   55
        BYTE   W12
// 005   ----------------------------------------
        BYTE                   54
        BYTE   W18
        BYTE                   53
        BYTE   W24
        BYTE                   52
        BYTE   W12
        BYTE                   51
        BYTE   W24
        BYTE                   50
        BYTE   W12
        BYTE                   48
        BYTE   W06
// 006   ----------------------------------------
        BYTE                   46
        BYTE   W12
        BYTE                   44
        BYTE   W06
        BYTE                   43
        BYTE   W06
        BYTE           EOT
        BYTE           VOL     50
        BYTE           TIE     Bn1   v084
        BYTE   W12
        BYTE           VOL     51
        BYTE   W18
        BYTE                   52
        BYTE   W06
        BYTE                   53
        BYTE   W18
        BYTE                   54
        BYTE   W18
// 007   ----------------------------------------
song033_7_7:
        BYTE           VOL     55
        BYTE   W06
        BYTE                   56
        BYTE   W24
        BYTE                   57
        BYTE   W06
        BYTE                   58
        BYTE   W12
        BYTE                   59
        BYTE   W06
        BYTE                   58
        BYTE   W06
        BYTE                   57
        BYTE   W06
        BYTE                   56
        BYTE   W12
        BYTE                   54
        BYTE   W06
        BYTE                   53
        BYTE   W12
        BYTE   PEND
// 008   ----------------------------------------
        BYTE                   52
        BYTE   W06
        BYTE                   51
        BYTE   W06
        BYTE                   50
        BYTE   W06
        BYTE                   49
        BYTE   W06
        BYTE           EOT     Bn1
        BYTE           VOL     59
        BYTE           N24     En2   v084
        BYTE   W24
        BYTE                   Bn2   v100
        BYTE   W24
        BYTE           N12     An2
        BYTE   W12
        BYTE           N06     Gn2   v087
        BYTE   W06
        BYTE                   Fs2   v081
        BYTE   W06
// 009   ----------------------------------------
        BYTE           N12     Gn2   v087
        BYTE   W12
        BYTE           N06     Fs2   v081
        BYTE   W06
        BYTE                   En2   v100
        BYTE   W06
        BYTE           N12     Fs2   v081
        BYTE   W12
        BYTE           N06     En2   v100
        BYTE   W06
        BYTE                   Dn2   v108
        BYTE   W06
        BYTE           VOL     55
        BYTE           TIE     En2   v098
        BYTE   W30
        BYTE           VOL     56
        BYTE   W18
// 010   ----------------------------------------
        BYTE   W18
        BYTE                   55
        BYTE   W06
        BYTE                   54
        BYTE   W12
        BYTE                   53
        BYTE   W12
        BYTE                   52
        BYTE   W06
        BYTE                   51
        BYTE   W12
        BYTE                   50
        BYTE   W12
        BYTE                   49
        BYTE   W12
        BYTE                   48
        BYTE   W06
// 011   ----------------------------------------
        BYTE   W06
        BYTE                   46
        BYTE   W12
        BYTE                   45
        BYTE   W06
        BYTE           EOT
        BYTE           VOL     59
        BYTE           TIE     En1   v090
        BYTE   W06
        BYTE           VOL     49
        BYTE   W12
        BYTE                   50
        BYTE   W06
        BYTE                   51
        BYTE   W18
        BYTE                   52
        BYTE   W06
        BYTE                   53
        BYTE   W18
        BYTE                   54
        BYTE   W06
// 012   ----------------------------------------
        BYTE   PATT
         POIN2  song033_7_2
// 013   ----------------------------------------
        BYTE   W06
        BYTE           VOL     52
        BYTE   W06
        BYTE                   51
        BYTE   W12
        BYTE           EOT     En1
        BYTE           VOL     59
        BYTE           N24     Bn1   v092
        BYTE   W24
        BYTE                   En2   v098
        BYTE   W24
        BYTE           VOL     44
        BYTE           TIE     Dn2   v092
        BYTE   W06
        BYTE           VOL     45
        BYTE   W06
        BYTE                   46
        BYTE   W12
// 014   ----------------------------------------
        BYTE                   48
        BYTE   W12
        BYTE                   49
        BYTE   W06
        BYTE                   50
        BYTE   W06
        BYTE                   51
        BYTE   W12
        BYTE                   52
        BYTE   W06
        BYTE                   53
        BYTE   W12
        BYTE                   54
        BYTE   W06
        BYTE                   55
        BYTE   W06
        BYTE                   56
        BYTE   W18
        BYTE                   58
        BYTE   W12
// 015   ----------------------------------------
        BYTE                   59
        BYTE   W12
        BYTE                   58
        BYTE   W12
        BYTE                   57
        BYTE   W06
        BYTE                   56
        BYTE   W18
        BYTE                   55
        BYTE   W12
        BYTE                   54
        BYTE   W06
        BYTE                   53
        BYTE   W18
        BYTE                   52
        BYTE   W06
        BYTE                   51
        BYTE   W06
// 016   ----------------------------------------
        BYTE   W12
        BYTE                   50
        BYTE   W06
        BYTE           EOT
        BYTE           VOL     49
        BYTE   W06
        BYTE                   50
        BYTE           TIE     Bn1   v084
        BYTE   W12
        BYTE           VOL     51
        BYTE   W18
        BYTE                   52
        BYTE   W06
        BYTE                   53
        BYTE   W18
        BYTE                   54
        BYTE   W18
// 017   ----------------------------------------
        BYTE   PATT
         POIN2  song033_7_7
// 018   ----------------------------------------
        BYTE           VOL     52
        BYTE   W06
        BYTE                   51
        BYTE   W06
        BYTE                   50
        BYTE   W06
        BYTE                   49
        BYTE   W06
        BYTE           EOT     Bn1
        BYTE           VOL     59
        BYTE           N24     En2   v081
        BYTE   W24
        BYTE                   Bn2
        BYTE   W24
        BYTE           N12     An2   v090
        BYTE   W12
        BYTE           N06     Gn2   v071
        BYTE   W06
        BYTE                   Fs2
        BYTE   W06
// 019   ----------------------------------------
        BYTE           N12     Gn2
        BYTE   W12
        BYTE           N06     Fs2
        BYTE   W06
        BYTE                   En2
        BYTE   W06
        BYTE           N12     Fs2
        BYTE   W12
        BYTE           N06     En2
        BYTE   W06
        BYTE                   Dn2   v100
        BYTE   W06
        BYTE           VOL     49
        BYTE           TIE     En2   v081
        BYTE   W18
        BYTE           VOL     50
        BYTE   W06
        BYTE                   51
        BYTE   W12
        BYTE                   52
        BYTE   W12
// 020   ----------------------------------------
        BYTE                   53
        BYTE   W12
        BYTE                   54
        BYTE   W12
        BYTE                   55
        BYTE   W06
        BYTE                   56
        BYTE   W18
        BYTE                   57
        BYTE   W06
        BYTE                   58
        BYTE   W06
        BYTE                   59
        BYTE   W06
        BYTE                   56
        BYTE   W06
        BYTE                   53
        BYTE   W06
        BYTE                   50
        BYTE   W06
        BYTE                   48
        BYTE   W06
        BYTE                   44
        BYTE   W06
// 021   ----------------------------------------
        BYTE                   40
        BYTE   W06
        BYTE                   36
        BYTE   W06
        BYTE                   32
        BYTE   W06
        BYTE                   26
        BYTE   W06
        BYTE           EOT
        BYTE           VOL     59
        BYTE   W72
// 022   ----------------------------------------
        BYTE   W96
// 023   ----------------------------------------
        BYTE   W96
// 024   ----------------------------------------
        BYTE   W96
// 025   ----------------------------------------
        BYTE   W96
// 026   ----------------------------------------
        BYTE   W96
// 027   ----------------------------------------
        BYTE   W24
        BYTE           TIE     En1   v078
        BYTE   W72
// 028   ----------------------------------------
        BYTE   W96
// 029   ----------------------------------------
        BYTE   W96
// 030   ----------------------------------------
        BYTE   W96
// 031   ----------------------------------------
        BYTE   W72
        BYTE           EOT
        BYTE           N24     Bn1   v095
        BYTE   W24
// 032   ----------------------------------------
        BYTE                   En2   v092
        BYTE   W24
        BYTE           VOL     53
        BYTE           TIE     Gn2   v098
        BYTE   W24
        BYTE           VOL     54
        BYTE   W18
        BYTE                   55
        BYTE   W12
        BYTE                   56
        BYTE   W18
// 033   ----------------------------------------
        BYTE   W18
        BYTE                   57
        BYTE   W06
        BYTE                   58
        BYTE   W24
        BYTE                   59
        BYTE   W12
        BYTE                   54
        BYTE   W06
        BYTE                   51
        BYTE   W06
        BYTE                   49
        BYTE   W06
        BYTE                   46
        BYTE   W06
        BYTE                   43
        BYTE   W06
        BYTE                   39
        BYTE   W06
// 034   ----------------------------------------
        BYTE           EOT
        BYTE           VOL     58
        BYTE           N24     Gn1   v112
        BYTE   W24
        BYTE                   Cn2   v108
        BYTE   W24
        BYTE                   En2   v098
        BYTE   W24
        BYTE           N36     Fs2   v095
        BYTE   W24
// 035   ----------------------------------------
        BYTE   W12
        BYTE           TIE     Dn2   v108
        BYTE   W06
        BYTE           VOL     54
        BYTE   W06
        BYTE                   55
        BYTE   W06
        BYTE                   56
        BYTE   W12
        BYTE                   57
        BYTE   W06
        BYTE                   58
        BYTE   W06
        BYTE                   59
        BYTE   W12
        BYTE                   58
        BYTE   W12
        BYTE                   56
        BYTE   W12
        BYTE                   55
        BYTE   W06
// 036   ----------------------------------------
        BYTE                   54
        BYTE   W06
        BYTE                   53
        BYTE   W12
        BYTE                   51
        BYTE   W18
        BYTE                   50
        BYTE   W06
        BYTE                   49
        BYTE   W12
        BYTE                   48
        BYTE   W12
        BYTE                   46
        BYTE   W12
        BYTE                   45
        BYTE   W06
        BYTE                   44
        BYTE   W06
        BYTE                   43
        BYTE   W06
// 037   ----------------------------------------
        BYTE           EOT
        BYTE           VOL     59
        BYTE           N12     An1   v114
        BYTE   W12
        BYTE                   Bn1   v110
        BYTE   W12
        BYTE           N36     Cn2   v100
        BYTE   W36
        BYTE                   An1   v112
        BYTE   W36
// 038   ----------------------------------------
        BYTE           VOL     53
        BYTE           TIE     An2   v114
        BYTE   W12
        BYTE           VOL     54
        BYTE   W06
        BYTE                   55
        BYTE   W12
        BYTE                   56
        BYTE   W12
        BYTE                   57
        BYTE   W06
        BYTE                   58
        BYTE   W12
        BYTE                   59
        BYTE   W18
        BYTE                   58
        BYTE   W06
        BYTE                   56
        BYTE   W12
// 039   ----------------------------------------
        BYTE                   54
        BYTE   W06
        BYTE                   53
        BYTE   W06
        BYTE                   51
        BYTE   W06
        BYTE                   49
        BYTE   W06
        BYTE           EOT
        BYTE           VOL     59
        BYTE           N24     En2   v112
        BYTE   W24
        BYTE                   Fs2   v098
        BYTE   W24
        BYTE           VOL     53
        BYTE           N60     Gn2   v110
        BYTE   W12
        BYTE           VOL     54
        BYTE   W12
// 040   ----------------------------------------
        BYTE                   55
        BYTE   W06
        BYTE                   56
        BYTE   W18
        BYTE                   57
        BYTE   W06
        BYTE                   58
        BYTE   W06
        BYTE           N60     En2   v112
        BYTE   W06
        BYTE           VOL     59
        BYTE   W12
        BYTE                   58
        BYTE   W06
        BYTE                   56
        BYTE   W06
        BYTE                   55
        BYTE   W06
        BYTE                   53
        BYTE   W06
        BYTE                   52
        BYTE   W06
        BYTE                   51
        BYTE   W06
        BYTE                   49
        BYTE   W06
// 041   ----------------------------------------
        BYTE                   55
        BYTE           N06     Dn2   v110
        BYTE   W06
        BYTE                   En2   v105
        BYTE   W06
        BYTE           VOL     56
        BYTE           N96     Fs2   v095
        BYTE   W12
        BYTE           VOL     58
        BYTE   W36
        BYTE                   56
        BYTE   W06
        BYTE                   54
        BYTE   W06
        BYTE                   53
        BYTE   W06
        BYTE                   51
        BYTE   W06
        BYTE                   49
        BYTE   W06
        BYTE                   47
        BYTE   W06
// 042   ----------------------------------------
        BYTE                   44
        BYTE   W06
        BYTE                   41
        BYTE   W06
        BYTE                   36
        BYTE   W84
// 043   ----------------------------------------
        BYTE   W96
// 044   ----------------------------------------
        BYTE   W96
// 045   ----------------------------------------
        BYTE   W96
// 046   ----------------------------------------
        BYTE   W96
// 047   ----------------------------------------
        BYTE   W96
// 048   ----------------------------------------
        BYTE   W96
// 049   ----------------------------------------
        BYTE   W96
// 050   ----------------------------------------
        BYTE   W96
// 051   ----------------------------------------
        BYTE   W96
// 052   ----------------------------------------
        BYTE   W96
// 053   ----------------------------------------
        BYTE   W96
// 054   ----------------------------------------
        BYTE   W24
        BYTE           TIE     En1   v078
        BYTE   W72
// 055   ----------------------------------------
        BYTE   W96
// 056   ----------------------------------------
        BYTE   W96
// 057   ----------------------------------------
        BYTE   W96
// 058   ----------------------------------------
        BYTE   W96
// 059   ----------------------------------------
        BYTE   W24
        BYTE           EOT
        BYTE           VOL     49
        BYTE   GoTo
         POIN2  song033_7_LOOP
        BYTE   FINE

//****************** Track 8 (Midi-Chn.8) ******************//

song033_8:
        BYTE   KEYSH   song033_key+0
// 000   ----------------------------------------
        BYTE           VOICE   92
        BYTE           VOL     59
        BYTE   W96
// 001   ----------------------------------------
        BYTE   W12
        BYTE           N36     Bn0   v127
        BYTE   W12
song033_8_LOOP:
        BYTE           N42     En1   v127
        BYTE   W72
// 002   ----------------------------------------
        BYTE   W96
// 003   ----------------------------------------
song033_8_3:
        BYTE   W60
        BYTE           N12     Bn0   v127
        BYTE   W12
        BYTE           N42     En1
        BYTE   W24
        BYTE   PEND
// 004   ----------------------------------------
        BYTE   W96
// 005   ----------------------------------------
        BYTE   W96
// 006   ----------------------------------------
song033_8_6:
        BYTE   W12
        BYTE           N12     Bn0   v127
        BYTE   W12
        BYTE           N42     En1
        BYTE   W72
        BYTE   PEND
// 007   ----------------------------------------
        BYTE   W96
// 008   ----------------------------------------
        BYTE   PATT
         POIN2  song033_8_3
// 009   ----------------------------------------
        BYTE   W96
// 010   ----------------------------------------
        BYTE   W96
// 011   ----------------------------------------
        BYTE   PATT
         POIN2  song033_8_6
// 012   ----------------------------------------
        BYTE   W96
// 013   ----------------------------------------
        BYTE   PATT
         POIN2  song033_8_3
// 014   ----------------------------------------
        BYTE   W96
// 015   ----------------------------------------
        BYTE   W96
// 016   ----------------------------------------
        BYTE   PATT
         POIN2  song033_8_6
// 017   ----------------------------------------
        BYTE   W96
// 018   ----------------------------------------
        BYTE   PATT
         POIN2  song033_8_3
// 019   ----------------------------------------
        BYTE   W96
// 020   ----------------------------------------
        BYTE   W96
// 021   ----------------------------------------
        BYTE   W12
        BYTE           N12     Bn0   v127
        BYTE   W12
        BYTE                   En1
        BYTE   W12
        BYTE           N24     Gn1
        BYTE   W24
        BYTE           N12     En1
        BYTE   W12
        BYTE           N24     As1
        BYTE   W24
// 022   ----------------------------------------
song033_8_22:
        BYTE           N12     En1   v127
        BYTE   W12
        BYTE           N24     Gn1
        BYTE   W24
        BYTE           N12     En1
        BYTE   W12
        BYTE           N24     As1
        BYTE   W24
        BYTE           N12     En1
        BYTE   W12
        BYTE           N24     Gn1
        BYTE   W12
        BYTE   PEND
// 023   ----------------------------------------
song033_8_23:
        BYTE   W12
        BYTE           N12     En1   v127
        BYTE   W12
        BYTE           N24     As1
        BYTE   W24
        BYTE           N12     En1
        BYTE   W12
        BYTE           N24     Gn1
        BYTE   W24
        BYTE           N12     En1
        BYTE   W12
        BYTE   PEND
// 024   ----------------------------------------
        BYTE                   As1
        BYTE   W12
        BYTE                   Cs1
        BYTE   W12
        BYTE                   En1   v119
        BYTE   W12
        BYTE           N24     Gn1
        BYTE   W24
        BYTE           N12     En1
        BYTE   W12
        BYTE           N24     As1
        BYTE   W24
// 025   ----------------------------------------
        BYTE           N12     En1   v110
        BYTE   W12
        BYTE           N24     Gn1
        BYTE   W24
        BYTE           N12     En1
        BYTE   W12
        BYTE           N24     As1
        BYTE   W24
        BYTE           N12     En1
        BYTE   W12
        BYTE           N24     Gn1
        BYTE   W12
// 026   ----------------------------------------
        BYTE   W12
        BYTE           N12     En1
        BYTE   W12
        BYTE           N24     As1
        BYTE   W24
        BYTE           N12     En1   v108
        BYTE   W12
        BYTE           N24     Gn1
        BYTE   W24
        BYTE           N12     En1
        BYTE   W12
// 027   ----------------------------------------
        BYTE           N24     As1
        BYTE   W12
        BYTE           N12     Cs1
        BYTE   W12
        BYTE           N42     En1
        BYTE   W72
// 028   ----------------------------------------
        BYTE   W96
// 029   ----------------------------------------
        BYTE   PATT
         POIN2  song033_8_3
// 030   ----------------------------------------
        BYTE   W96
// 031   ----------------------------------------
        BYTE   W96
// 032   ----------------------------------------
        BYTE   W12
        BYTE           N12     Gn1   v119
        BYTE   W12
        BYTE           N42     Cn2   v114
        BYTE   W72
// 033   ----------------------------------------
        BYTE   W24
        BYTE           N24     Gn1   v119
        BYTE   W24
        BYTE           N42     Cn2   v114
        BYTE   W48
// 034   ----------------------------------------
        BYTE   W72
        BYTE                   Dn2
        BYTE   W24
// 035   ----------------------------------------
        BYTE   W72
        BYTE           N24     An1
        BYTE   W24
// 036   ----------------------------------------
        BYTE           N42     Dn2
        BYTE   W96
// 037   ----------------------------------------
        BYTE   W24
        BYTE                   An1
        BYTE   W72
// 038   ----------------------------------------
        BYTE   W24
        BYTE           N24     En1   v127
        BYTE   W24
        BYTE           N42     An1   v114
        BYTE   W48
// 039   ----------------------------------------
        BYTE   W72
        BYTE                   Cn2
        BYTE   W24
// 040   ----------------------------------------
        BYTE   W72
        BYTE           N24
        BYTE   W24
// 041   ----------------------------------------
        BYTE           N42     Dn2
        BYTE   W96
// 042   ----------------------------------------
song033_8_42:
        BYTE   W24
        BYTE           N36     En1   v127
        BYTE   W36
        BYTE                   En1
        BYTE   W36
        BYTE   PEND
// 043   ----------------------------------------
song033_8_43:
        BYTE           N36     En1   v127
        BYTE   W36
        BYTE                   En1
        BYTE   W36
        BYTE                   En1
        BYTE   W24
        BYTE   PEND
// 044   ----------------------------------------
        BYTE   W12
        BYTE                   En1
        BYTE   W36
        BYTE           N24
        BYTE   W24
        BYTE           N42     Fn1
        BYTE   W24
// 045   ----------------------------------------
        BYTE   PATT
         POIN2  song033_8_42
// 046   ----------------------------------------
        BYTE   PATT
         POIN2  song033_8_43
// 047   ----------------------------------------
        BYTE   W12
        BYTE           N36     En1   v127
        BYTE   W36
        BYTE           N24
        BYTE   W24
        BYTE           N48     Gn1
        BYTE   W24
// 048   ----------------------------------------
        BYTE   W24
        BYTE           N12     En1
        BYTE   W12
        BYTE           N24     Gn1
        BYTE   W24
        BYTE           N12     En1
        BYTE   W12
        BYTE           N24     As1
        BYTE   W24
// 049   ----------------------------------------
        BYTE   PATT
         POIN2  song033_8_22
// 050   ----------------------------------------
        BYTE   PATT
         POIN2  song033_8_23
// 051   ----------------------------------------
        BYTE           N12     As1   v127
        BYTE   W12
        BYTE                   Cs1
        BYTE   W12
        BYTE                   En1
        BYTE   W12
        BYTE           N24     Gn1
        BYTE   W24
        BYTE           N12     En1
        BYTE   W12
        BYTE           N24     As1
        BYTE   W24
// 052   ----------------------------------------
        BYTE   PATT
         POIN2  song033_8_22
// 053   ----------------------------------------
        BYTE   PATT
         POIN2  song033_8_23
// 054   ----------------------------------------
        BYTE           N12     As1   v127
        BYTE   W12
        BYTE                   Cs1
        BYTE   W12
        BYTE           N48     En1
        BYTE   W72
// 055   ----------------------------------------
        BYTE   W96
// 056   ----------------------------------------
        BYTE   W60
        BYTE           N12     Bn0
        BYTE   W12
        BYTE           N48     En1
        BYTE   W24
// 057   ----------------------------------------
        BYTE   W96
// 058   ----------------------------------------
        BYTE   W96
// 059   ----------------------------------------
        BYTE   W12
        BYTE           N12     Bn0
        BYTE   W12
        BYTE   GoTo
         POIN2  song033_8_LOOP
        BYTE   FINE

//****************** Track 9 (Midi-Chn.9) ******************//

song033_9:
        BYTE   KEYSH   song033_key+0
// 000   ----------------------------------------
        BYTE           VOICE   89
        BYTE           VOL     59
        BYTE   W96
// 001   ----------------------------------------
        BYTE   W24
song033_9_LOOP:
        BYTE   W72
// 002   ----------------------------------------
        BYTE   W96
// 003   ----------------------------------------
        BYTE   W96
// 004   ----------------------------------------
        BYTE   W96
// 005   ----------------------------------------
        BYTE   W96
// 006   ----------------------------------------
        BYTE   W96
// 007   ----------------------------------------
        BYTE   W96
// 008   ----------------------------------------
        BYTE   W96
// 009   ----------------------------------------
        BYTE   W96
// 010   ----------------------------------------
        BYTE   W96
// 011   ----------------------------------------
        BYTE   W96
// 012   ----------------------------------------
        BYTE   W96
// 013   ----------------------------------------
        BYTE   W96
// 014   ----------------------------------------
        BYTE   W96
// 015   ----------------------------------------
        BYTE   W96
// 016   ----------------------------------------
        BYTE   W96
// 017   ----------------------------------------
        BYTE   W96
// 018   ----------------------------------------
        BYTE   W96
// 019   ----------------------------------------
        BYTE   W96
// 020   ----------------------------------------
        BYTE   W96
// 021   ----------------------------------------
        BYTE   W96
// 022   ----------------------------------------
        BYTE   W96
// 023   ----------------------------------------
        BYTE   W96
// 024   ----------------------------------------
        BYTE   W96
// 025   ----------------------------------------
        BYTE   W96
// 026   ----------------------------------------
        BYTE   W96
// 027   ----------------------------------------
        BYTE   W96
// 028   ----------------------------------------
        BYTE   W96
// 029   ----------------------------------------
        BYTE   W96
// 030   ----------------------------------------
        BYTE   W96
// 031   ----------------------------------------
        BYTE   W96
// 032   ----------------------------------------
        BYTE   W36
        BYTE           N03     Gn2   v087
        BYTE           N03     En2   v090
        BYTE   W12
        BYTE                   Gn2   v087
        BYTE           N03     En2   v090
        BYTE   W24
        BYTE                   Gn2   v087
        BYTE           N03     En2   v090
        BYTE   W12
        BYTE                   Gn2   v087
        BYTE           N03     En2   v090
        BYTE   W12
// 033   ----------------------------------------
song033_9_33:
        BYTE   W12
        BYTE           N03     Gn2   v087
        BYTE           N03     En2   v090
        BYTE   W24
        BYTE                   Gn2   v087
        BYTE           N03     En2   v090
        BYTE   W24
        BYTE                   Gn2   v087
        BYTE           N03     En2   v090
        BYTE   W12
        BYTE                   Gn2   v087
        BYTE           N03     En2   v090
        BYTE   W24
        BYTE   PEND
// 034   ----------------------------------------
        BYTE                   Gn2   v087
        BYTE           N03     En2   v090
        BYTE   W12
        BYTE                   Gn2   v087
        BYTE           N03     En2   v090
        BYTE   W24
        BYTE                   Gn2   v087
        BYTE           N03     En2   v090
        BYTE   W24
        BYTE                   Gn2   v087
        BYTE           N03     En2   v090
        BYTE   W24
        BYTE                   Fs2   v087
        BYTE           N03     Dn2   v090
        BYTE   W12
// 035   ----------------------------------------
        BYTE                   Fs2   v087
        BYTE           N03     Dn2   v090
        BYTE   W24
        BYTE                   Fs2   v087
        BYTE           N03     Dn2   v090
        BYTE   W12
        BYTE                   Fs2   v087
        BYTE           N03     Dn2   v090
        BYTE   W24
        BYTE                   Fs2   v087
        BYTE           N03     Dn2   v090
        BYTE   W24
        BYTE                   Fs2   v087
        BYTE           N03     Dn2   v090
        BYTE   W12
// 036   ----------------------------------------
        BYTE   W12
        BYTE                   Fs2   v087
        BYTE           N03     Dn2   v090
        BYTE   W12
        BYTE                   Fs2   v087
        BYTE           N03     Dn2   v090
        BYTE   W24
        BYTE                   Fs2   v087
        BYTE           N03     Dn2   v090
        BYTE   W12
        BYTE                   Fs2   v087
        BYTE           N03     Dn2   v090
        BYTE   W24
        BYTE                   Fs2   v087
        BYTE           N03     Dn2   v090
        BYTE   W12
// 037   ----------------------------------------
        BYTE   W12
        BYTE                   Fs2   v087
        BYTE           N03     Dn2   v090
        BYTE   W24
        BYTE                   Gn2   v087
        BYTE           N03     En2   v090
        BYTE   W12
        BYTE                   Gn2   v087
        BYTE           N03     En2   v090
        BYTE   W24
        BYTE                   Gn2   v087
        BYTE           N03     En2   v090
        BYTE   W12
        BYTE                   Gn2   v087
        BYTE           N03     En2   v090
        BYTE   W12
// 038   ----------------------------------------
        BYTE   PATT
         POIN2  song033_9_33
// 039   ----------------------------------------
        BYTE           N03     Gn2   v087
        BYTE           N03     En2   v090
        BYTE   W12
        BYTE                   Gn2   v087
        BYTE           N03     En2   v090
        BYTE   W24
        BYTE                   Gn2   v087
        BYTE           N03     En2   v090
        BYTE   W24
        BYTE                   Gn2   v087
        BYTE           N03     En2   v090
        BYTE   W24
        BYTE                   Gn2   v087
        BYTE           N03     En2   v090
        BYTE   W12
// 040   ----------------------------------------
        BYTE                   Gn2   v087
        BYTE           N03     En2   v090
        BYTE   W24
        BYTE                   Gn2   v087
        BYTE           N03     En2   v090
        BYTE   W12
        BYTE                   Gn2   v087
        BYTE           N03     En2   v090
        BYTE   W24
        BYTE                   Gn2   v087
        BYTE           N03     En2   v090
        BYTE   W24
        BYTE                   Gn2   v087
        BYTE           N03     En2   v090
        BYTE   W12
// 041   ----------------------------------------
        BYTE   W12
        BYTE                   An2
        BYTE           N03     Fs2   v098
        BYTE   W12
        BYTE                   An2   v090
        BYTE           N03     Fs2   v098
        BYTE   W24
        BYTE                   An2   v090
        BYTE           N03     Fs2   v098
        BYTE   W12
        BYTE                   An2   v090
        BYTE           N03     Fs2   v098
        BYTE   W24
        BYTE                   An2   v090
        BYTE           N03     Fs2   v098
        BYTE   W12
// 042   ----------------------------------------
        BYTE   W12
        BYTE                   An2   v090
        BYTE           N03     Fs2   v098
        BYTE   W84
// 043   ----------------------------------------
        BYTE   W96
// 044   ----------------------------------------
        BYTE   W96
// 045   ----------------------------------------
        BYTE   W96
// 046   ----------------------------------------
        BYTE   W96
// 047   ----------------------------------------
        BYTE   W96
// 048   ----------------------------------------
        BYTE   W96
// 049   ----------------------------------------
        BYTE   W96
// 050   ----------------------------------------
        BYTE   W96
// 051   ----------------------------------------
        BYTE   W96
// 052   ----------------------------------------
        BYTE   W96
// 053   ----------------------------------------
        BYTE   W96
// 054   ----------------------------------------
        BYTE   W96
// 055   ----------------------------------------
        BYTE   W96
// 056   ----------------------------------------
        BYTE   W96
// 057   ----------------------------------------
        BYTE   W96
// 058   ----------------------------------------
        BYTE   W96
// 059   ----------------------------------------
        BYTE   W24
        BYTE   GoTo
         POIN2  song033_9_LOOP
        BYTE   FINE

//***************** Track 10 (Midi-Chn.10) *****************//

song033_10:
        BYTE   KEYSH   song033_key+0
// 000   ----------------------------------------
        BYTE           VOICE   93
        BYTE           VOL     59
        BYTE           BENDR   33
        BYTE   W96
// 001   ----------------------------------------
        BYTE   W24
song033_10_LOOP:
        BYTE   W72
// 002   ----------------------------------------
        BYTE   W96
// 003   ----------------------------------------
        BYTE   W96
// 004   ----------------------------------------
        BYTE   W96
// 005   ----------------------------------------
        BYTE   W96
// 006   ----------------------------------------
        BYTE   W96
// 007   ----------------------------------------
        BYTE   W96
// 008   ----------------------------------------
        BYTE   W96
// 009   ----------------------------------------
        BYTE   W96
// 010   ----------------------------------------
        BYTE   W96
// 011   ----------------------------------------
        BYTE   W96
// 012   ----------------------------------------
        BYTE   W96
// 013   ----------------------------------------
        BYTE   W96
// 014   ----------------------------------------
        BYTE   W24
        BYTE           N06     En3   v087
        BYTE   W06
        BYTE                   Fs3
        BYTE   W06
        BYTE                   En3
        BYTE   W06
        BYTE                   Fs3
        BYTE   W06
        BYTE                   Gn3   v084
        BYTE   W06
        BYTE                   An3
        BYTE   W06
        BYTE                   Gn3
        BYTE   W06
        BYTE                   An3
        BYTE   W06
        BYTE                   Bn3   v081
        BYTE   W06
        BYTE                   Cs4
        BYTE   W06
        BYTE                   Bn3
        BYTE   W06
        BYTE                   Cs4
        BYTE   W06
// 015   ----------------------------------------
        BYTE           N04     Dn4   v074
        BYTE   W04
        BYTE                   En4
        BYTE   W04
        BYTE                   Dn4
        BYTE   W04
        BYTE                   Cs4   v081
        BYTE   W04
        BYTE                   Dn4   v074
        BYTE   W04
        BYTE                   Cs4   v081
        BYTE   W04
        BYTE                   Bn3
        BYTE   W04
        BYTE                   Cs4
        BYTE   W04
        BYTE                   Bn3
        BYTE   W04
        BYTE                   An3   v084
        BYTE   W04
        BYTE                   Bn3   v081
        BYTE   W04
        BYTE                   An3   v084
        BYTE   W04
        BYTE                   Gn3
        BYTE   W04
        BYTE                   An3
        BYTE   W04
        BYTE                   Gn3
        BYTE   W04
        BYTE                   Fs3   v087
        BYTE   W04
        BYTE                   Gn3   v084
        BYTE   W04
        BYTE                   Fs3   v087
        BYTE   W04
        BYTE                   En3
        BYTE   W04
        BYTE                   Fs3
        BYTE   W04
        BYTE                   En3
        BYTE   W04
        BYTE                   Dn3
        BYTE   W04
        BYTE                   En3
        BYTE   W04
        BYTE                   Dn3
        BYTE   W04
// 016   ----------------------------------------
        BYTE                   Cn3
        BYTE   W04
        BYTE                   Dn3
        BYTE   W04
        BYTE                   Cn3
        BYTE   W04
        BYTE           N13     Bn2
        BYTE   W12
        BYTE           N04     Cs3
        BYTE   W04
        BYTE                   Bn2
        BYTE   W04
        BYTE                   Cs3
        BYTE   W04
        BYTE                   Bn2
        BYTE   W04
        BYTE                   Cs3
        BYTE   W04
        BYTE                   Bn2
        BYTE   W04
        BYTE                   Cs3
        BYTE   W04
        BYTE                   Bn2
        BYTE   W04
        BYTE                   Cs3
        BYTE   W04
        BYTE                   Bn2
        BYTE   W04
        BYTE                   Cs3
        BYTE   W04
        BYTE                   Bn2
        BYTE   W04
        BYTE                   Cs3
        BYTE   W04
        BYTE                   Bn2
        BYTE   W04
        BYTE                   Cs3
        BYTE   W04
        BYTE                   Bn2
        BYTE   W04
        BYTE                   Cs3
        BYTE   W04
        BYTE                   Bn2
        BYTE   W04
// 017   ----------------------------------------
        BYTE                   Cs3
        BYTE   W04
        BYTE                   Bn2
        BYTE   W04
        BYTE                   Cs3
        BYTE   W04
        BYTE                   Bn2
        BYTE   W04
        BYTE                   Cs3
        BYTE   W04
        BYTE                   Bn2
        BYTE   W04
        BYTE                   Cs3
        BYTE   W04
        BYTE                   Bn2
        BYTE   W04
        BYTE                   Cs3
        BYTE   W04
        BYTE                   Bn2
        BYTE   W60
// 018   ----------------------------------------
        BYTE   W96
// 019   ----------------------------------------
        BYTE   W24
        BYTE           N06     Fs3   v084
        BYTE   W06
        BYTE                   Gn3   v081
        BYTE   W06
        BYTE                   Fs3   v084
        BYTE   W06
        BYTE                   Gn3   v081
        BYTE   W06
        BYTE                   An3   v074
        BYTE   W06
        BYTE                   Bn3
        BYTE   W06
        BYTE                   An3
        BYTE   W06
        BYTE                   Bn3
        BYTE   W06
        BYTE                   Cs4
        BYTE   W06
        BYTE                   Dn4   v078
        BYTE   W06
        BYTE                   En4   v071
        BYTE   W06
        BYTE                   Fs4
        BYTE   W06
// 020   ----------------------------------------
        BYTE           N04     Gn4
        BYTE   W04
        BYTE                   Fs4   v067
        BYTE   W04
        BYTE                   En4
        BYTE   W04
        BYTE                   Fs4
        BYTE   W04
        BYTE                   En4
        BYTE   W04
        BYTE                   Dn4   v074
        BYTE   W04
        BYTE                   En4   v067
        BYTE   W04
        BYTE                   Dn4   v074
        BYTE   W04
        BYTE                   Cs4
        BYTE   W04
        BYTE                   Dn4
        BYTE   W04
        BYTE                   Cs4
        BYTE   W04
        BYTE                   Bn3
        BYTE   W04
        BYTE                   Cs4
        BYTE   W04
        BYTE                   Bn3
        BYTE   W04
        BYTE                   An3
        BYTE   W04
        BYTE                   Bn3
        BYTE   W04
        BYTE                   An3
        BYTE   W04
        BYTE                   Gn3   v081
        BYTE   W04
        BYTE                   An3   v074
        BYTE   W04
        BYTE                   Gn3   v081
        BYTE   W04
        BYTE                   Fs3
        BYTE   W04
        BYTE                   Gn3
        BYTE   W04
        BYTE                   Fs3
        BYTE   W04
        BYTE                   En3
        BYTE   W04
// 021   ----------------------------------------
        BYTE                   Fs3
        BYTE   W04
        BYTE                   En3
        BYTE   W04
        BYTE                   Dn3
        BYTE   W04
        BYTE                   En3
        BYTE   W04
        BYTE                   Dn3
        BYTE   W04
        BYTE           N08     Cs3
        BYTE   W08
        BYTE           N04     Bn2   v087
        BYTE   W04
        BYTE                   Cs3
        BYTE   W04
        BYTE                   Bn2
        BYTE   W04
        BYTE                   Cs3
        BYTE   W04
        BYTE                   Bn2
        BYTE   W04
        BYTE                   Cs3
        BYTE   W04
        BYTE                   Bn2
        BYTE   W04
        BYTE                   Cs3
        BYTE   W04
        BYTE                   Bn2
        BYTE   W04
        BYTE                   Cs3
        BYTE   W04
        BYTE                   Bn2
        BYTE   W04
        BYTE                   Cs3
        BYTE   W04
        BYTE                   Bn2
        BYTE   W04
        BYTE                   Cs3
        BYTE   W04
        BYTE                   Bn2
        BYTE   W04
        BYTE                   Cs3
        BYTE   W04
        BYTE                   Bn2
        BYTE   W04
// 022   ----------------------------------------
        BYTE                   Cs3
        BYTE   W04
        BYTE                   Bn2
        BYTE   W04
        BYTE                   Cs3
        BYTE   W04
        BYTE                   Bn2
        BYTE   W04
        BYTE                   Cs3
        BYTE   W04
        BYTE                   Bn2
        BYTE   W04
        BYTE                   Cs3
        BYTE   W04
        BYTE                   Bn2
        BYTE   W04
        BYTE                   Cs3
        BYTE   W04
        BYTE                   Bn2
        BYTE   W04
        BYTE                   Cs3
        BYTE   W04
        BYTE                   Bn2
        BYTE   W04
        BYTE                   Cs3
        BYTE   W04
        BYTE                   Bn2
        BYTE   W04
        BYTE                   Cs3
        BYTE   W04
        BYTE                   Bn2
        BYTE   W04
        BYTE                   Cs3
        BYTE   W04
        BYTE                   Bn2
        BYTE   W28
// 023   ----------------------------------------
        BYTE   W96
// 024   ----------------------------------------
        BYTE   W36
        BYTE           VOL     58
        BYTE           N04     En3   v105
        BYTE   W06
        BYTE                   As3   v087
        BYTE   W06
        BYTE                   En4   v092
        BYTE   W06
        BYTE                   As3   v050
        BYTE   W06
        BYTE                   En4   v059
        BYTE   W36
// 025   ----------------------------------------
        BYTE   W12
        BYTE                   En3   v105
        BYTE   W06
        BYTE                   As3   v087
        BYTE   W06
        BYTE                   En4   v092
        BYTE   W06
        BYTE                   As3   v050
        BYTE   W06
        BYTE                   En4   v059
        BYTE   W48
        BYTE                   Gn3   v095
        BYTE   W06
        BYTE                   Cs4   v084
        BYTE   W06
// 026   ----------------------------------------
        BYTE                   Gn4   v078
        BYTE   W06
        BYTE                   Cs4   v031
        BYTE   W06
        BYTE                   Gn4
        BYTE   W48
        BYTE                   Gn3   v095
        BYTE   W06
        BYTE                   Cs4   v084
        BYTE   W06
        BYTE                   Gn4   v078
        BYTE   W06
        BYTE                   Cs4   v031
        BYTE   W06
        BYTE                   Gn4
        BYTE   W12
// 027   ----------------------------------------
        BYTE   W24
        BYTE           VOL     59
        BYTE   W72
// 028   ----------------------------------------
        BYTE   W96
// 029   ----------------------------------------
        BYTE   W96
// 030   ----------------------------------------
        BYTE   W96
// 031   ----------------------------------------
        BYTE   W96
// 032   ----------------------------------------
        BYTE   W96
// 033   ----------------------------------------
        BYTE   W96
// 034   ----------------------------------------
        BYTE   W96
// 035   ----------------------------------------
        BYTE   W72
        BYTE           N06     An3   v071
        BYTE   W06
        BYTE                   Bn3   v067
        BYTE   W06
        BYTE                   An3
        BYTE   W06
        BYTE                   Bn3
        BYTE   W06
// 036   ----------------------------------------
        BYTE                   Cn4   v071
        BYTE   W06
        BYTE                   Dn4   v078
        BYTE   W06
        BYTE                   Cn4   v071
        BYTE   W06
        BYTE                   Dn4   v078
        BYTE   W06
        BYTE                   En4   v063
        BYTE   W06
        BYTE                   Dn4   v078
        BYTE   W06
        BYTE                   Cn4   v071
        BYTE   W06
        BYTE                   Bn3   v067
        BYTE   W06
        BYTE                   An3   v074
        BYTE   W04
        BYTE                   Bn3   v067
        BYTE   W04
        BYTE                   An3   v074
        BYTE   W04
        BYTE                   Bn3   v067
        BYTE   W04
        BYTE                   An3   v074
        BYTE   W04
        BYTE                   Bn3   v067
        BYTE   W04
        BYTE                   An3   v074
        BYTE   W04
        BYTE                   Bn3   v067
        BYTE   W04
        BYTE                   An3   v074
        BYTE   W04
        BYTE                   Bn3   v067
        BYTE   W04
        BYTE                   An3   v074
        BYTE   W04
        BYTE                   Bn3   v067
        BYTE   W04
// 037   ----------------------------------------
        BYTE                   An3   v074
        BYTE   W04
        BYTE                   Bn3   v067
        BYTE   W04
        BYTE                   An3   v074
        BYTE   W04
        BYTE                   Bn3   v067
        BYTE   W04
        BYTE                   An3   v074
        BYTE   W80
// 038   ----------------------------------------
        BYTE   W96
// 039   ----------------------------------------
        BYTE   W12
        BYTE                   An3
        BYTE   W06
        BYTE                   Bn3
        BYTE   W06
        BYTE           TIE     Cn4   v059
        BYTE   W72
// 040   ----------------------------------------
        BYTE   W54
        BYTE           EOT
        BYTE   W06
        BYTE           N06     Cn4   v074
        BYTE   W06
        BYTE                   Dn4   v081
        BYTE   W06
        BYTE           N72     En4   v063
        BYTE   W24
// 041   ----------------------------------------
        BYTE   W60
        BYTE           N05     An3   v071
        BYTE   W04
        BYTE                   Bn3
        BYTE   W04
        BYTE                   Cn4   v067
        BYTE   W04
        BYTE                   Dn4   v071
        BYTE   W04
        BYTE                   En4   v063
        BYTE   W04
        BYTE                   Dn4   v071
        BYTE   W04
        BYTE                   En4   v063
        BYTE   W04
        BYTE                   Dn4   v071
        BYTE   W04
        BYTE                   En4   v063
        BYTE   W04
// 042   ----------------------------------------
        BYTE                   Dn4   v071
        BYTE   W04
        BYTE                   En4   v063
        BYTE   W04
        BYTE                   Dn4   v071
        BYTE   W04
        BYTE                   En4   v063
        BYTE   W04
        BYTE                   Dn4   v071
        BYTE   W04
        BYTE                   En4   v063
        BYTE   W04
        BYTE                   Dn4   v071
        BYTE           N12     Bn2   v095
        BYTE   W12
        BYTE                   Cs3
        BYTE   W12
        BYTE                   Dn3
        BYTE   W12
        BYTE                   Bn2
        BYTE   W12
        BYTE                   Cs3
        BYTE   W12
        BYTE                   An2
        BYTE   W12
// 043   ----------------------------------------
song033_10_43:
        BYTE           N12     Fs2   v095
        BYTE   W12
        BYTE                   Bn2
        BYTE   W12
        BYTE                   An2
        BYTE   W12
        BYTE                   Cs3
        BYTE   W12
        BYTE                   Dn3
        BYTE   W12
        BYTE                   En3
        BYTE   W12
        BYTE                   Dn3
        BYTE   W12
        BYTE                   Bn2
        BYTE   W12
        BYTE   PEND
// 044   ----------------------------------------
        BYTE                   Cs3
        BYTE   W12
        BYTE                   An2
        BYTE   W12
        BYTE                   Bn2
        BYTE   W12
        BYTE                   Fs2
        BYTE   W12
        BYTE                   An2
        BYTE   W12
        BYTE                   Cs3
        BYTE   W12
        BYTE                   Bn2
        BYTE   W12
        BYTE                   Dn3
        BYTE   W12
// 045   ----------------------------------------
        BYTE                   En3
        BYTE   W12
        BYTE                   Fn3
        BYTE   W12
        BYTE                   En3
        BYTE   W12
        BYTE                   Cs3
        BYTE   W12
        BYTE                   Dn3
        BYTE   W12
        BYTE                   Bn2
        BYTE   W12
        BYTE                   Cs3
        BYTE   W12
        BYTE                   An2
        BYTE   W12
// 046   ----------------------------------------
        BYTE   PATT
         POIN2  song033_10_43
// 047   ----------------------------------------
        BYTE           N12     Cs3   v095
        BYTE   W12
        BYTE                   An2
        BYTE   W12
        BYTE                   Bn2
        BYTE   W12
        BYTE                   Fs2
        BYTE   W12
        BYTE                   Fn2
        BYTE   W12
        BYTE                   Bn2
        BYTE   W12
        BYTE                   Cs3   v092
        BYTE   W12
        BYTE                   Dn3   v084
        BYTE   W12
// 048   ----------------------------------------
        BYTE                   En3
        BYTE   W12
        BYTE                   Fn3
        BYTE   W12
        BYTE           TIE     Fs3   v078
        BYTE   W72
// 049   ----------------------------------------
        BYTE   W48
        BYTE           VOL     42
        BYTE   W06
        BYTE                   36
        BYTE   W06
        BYTE                   29
        BYTE   W06
        BYTE                   18
        BYTE   W06
        BYTE           EOT
        BYTE           VOL     59
        BYTE   W24
// 050   ----------------------------------------
        BYTE   W96
// 051   ----------------------------------------
        BYTE   W96
// 052   ----------------------------------------
        BYTE   W96
// 053   ----------------------------------------
        BYTE   W96
// 054   ----------------------------------------
        BYTE   W96
// 055   ----------------------------------------
        BYTE   W96
// 056   ----------------------------------------
        BYTE   W96
// 057   ----------------------------------------
        BYTE   W96
// 058   ----------------------------------------
        BYTE   W96
// 059   ----------------------------------------
        BYTE   W24
        BYTE   GoTo
         POIN2  song033_10_LOOP
        BYTE   FINE

//***************** Track 11 (Midi-Chn.11) *****************//

song033_11:
        BYTE   KEYSH   song033_key+0
// 000   ----------------------------------------
        BYTE           VOICE   127
        BYTE           VOL     59
        BYTE           N06     Bn2   v095
        BYTE   W12
        BYTE                   Bn2   v045
        BYTE   W12
        BYTE                   Bn2   v031
        BYTE   W12
        BYTE                   Bn2   v095
        BYTE   W12
        BYTE                   Bn2   v050
        BYTE   W12
        BYTE                   Bn2   v031
        BYTE   W12
        BYTE                   Bn2   v095
        BYTE   W12
        BYTE                   Bn2   v055
        BYTE   W12
// 001   ----------------------------------------
        BYTE                   Bn2   v095
        BYTE   W12
        BYTE                   Bn2   v050
        BYTE   W12
song033_11_LOOP:
        BYTE           N06     Bn2   v095
        BYTE   W12
        BYTE                   Bn2   v045
        BYTE   W12
        BYTE                   Bn2   v031
        BYTE   W12
        BYTE                   Bn2   v081
        BYTE   W12
        BYTE                   Bn2   v059
        BYTE   W12
        BYTE                   Bn2   v031
        BYTE   W12
// 002   ----------------------------------------
song033_11_2:
        BYTE           N06     Bn2   v078
        BYTE   W12
        BYTE                   Bn2   v055
        BYTE   W12
        BYTE                   Bn2   v081
        BYTE   W12
        BYTE                   Bn2   v050
        BYTE   W12
        BYTE                   Bn2   v081
        BYTE   W12
        BYTE                   Bn2   v050
        BYTE   W12
        BYTE                   Bn2   v031
        BYTE   W12
        BYTE                   Bn2   v081
        BYTE   W12
        BYTE   PEND
// 003   ----------------------------------------
song033_11_3:
        BYTE           N06     Bn2   v059
        BYTE   W12
        BYTE                   Bn2   v031
        BYTE   W12
        BYTE                   Bn2   v078
        BYTE   W12
        BYTE                   Bn2   v055
        BYTE   W12
        BYTE                   Bn2   v081
        BYTE   W12
        BYTE                   Bn2   v050
        BYTE   W12
        BYTE                   Bn2   v081
        BYTE   W12
        BYTE                   Bn2   v050
        BYTE   W12
        BYTE   PEND
// 004   ----------------------------------------
song033_11_4:
        BYTE           N06     Bn2   v031
        BYTE   W12
        BYTE                   Bn2   v081
        BYTE   W12
        BYTE                   Bn2   v059
        BYTE   W12
        BYTE                   Bn2   v031
        BYTE   W12
        BYTE                   Bn2   v078
        BYTE   W12
        BYTE                   Bn2   v055
        BYTE   W12
        BYTE                   Bn2   v081
        BYTE   W12
        BYTE                   Bn2   v050
        BYTE   W12
        BYTE   PEND
// 005   ----------------------------------------
song033_11_5:
        BYTE           N06     Bn2   v081
        BYTE   W12
        BYTE                   Bn2   v050
        BYTE   W12
        BYTE                   Bn2   v031
        BYTE   W12
        BYTE                   Bn2   v081
        BYTE   W12
        BYTE                   Bn2   v059
        BYTE   W12
        BYTE                   Bn2   v031
        BYTE   W12
        BYTE                   Bn2   v078
        BYTE   W12
        BYTE                   Bn2   v055
        BYTE   W12
        BYTE   PEND
// 006   ----------------------------------------
song033_11_6:
        BYTE           N06     Bn2   v081
        BYTE   W12
        BYTE                   Bn2   v050
        BYTE   W12
        BYTE                   Bn2   v081
        BYTE   W12
        BYTE                   Bn2   v050
        BYTE   W12
        BYTE                   Bn2   v031
        BYTE   W12
        BYTE                   Bn2   v081
        BYTE   W12
        BYTE                   Bn2   v059
        BYTE   W12
        BYTE                   Bn2   v031
        BYTE   W12
        BYTE   PEND
// 007   ----------------------------------------
        BYTE   PATT
         POIN2  song033_11_2
// 008   ----------------------------------------
        BYTE   PATT
         POIN2  song033_11_3
// 009   ----------------------------------------
        BYTE   PATT
         POIN2  song033_11_4
// 010   ----------------------------------------
        BYTE   PATT
         POIN2  song033_11_5
// 011   ----------------------------------------
        BYTE   PATT
         POIN2  song033_11_6
// 012   ----------------------------------------
        BYTE   PATT
         POIN2  song033_11_2
// 013   ----------------------------------------
        BYTE   PATT
         POIN2  song033_11_3
// 014   ----------------------------------------
        BYTE   PATT
         POIN2  song033_11_4
// 015   ----------------------------------------
        BYTE   PATT
         POIN2  song033_11_5
// 016   ----------------------------------------
        BYTE   PATT
         POIN2  song033_11_6
// 017   ----------------------------------------
        BYTE   PATT
         POIN2  song033_11_2
// 018   ----------------------------------------
        BYTE   PATT
         POIN2  song033_11_3
// 019   ----------------------------------------
        BYTE   PATT
         POIN2  song033_11_4
// 020   ----------------------------------------
        BYTE   PATT
         POIN2  song033_11_5
// 021   ----------------------------------------
        BYTE           N06     Bn2   v081
        BYTE   W12
        BYTE                   Bn2   v050
        BYTE   W12
        BYTE                   Bn2   v081
        BYTE   W12
        BYTE                   Bn2   v050
        BYTE   W12
        BYTE                   Bn2   v081
        BYTE   W12
        BYTE                   Bn2   v050
        BYTE   W12
        BYTE                   Bn2   v078
        BYTE   W12
        BYTE                   Bn2   v031
        BYTE   W12
// 022   ----------------------------------------
song033_11_22:
        BYTE           N06     Bn2   v078
        BYTE   W12
        BYTE                   Bn2   v055
        BYTE   W12
        BYTE                   Bn2   v078
        BYTE   W12
        BYTE                   Bn2   v050
        BYTE   W12
        BYTE                   Bn2   v081
        BYTE   W12
        BYTE                   Bn2   v050
        BYTE   W12
        BYTE                   Bn2   v081
        BYTE   W12
        BYTE                   Bn2   v055
        BYTE   W12
        BYTE   PEND
// 023   ----------------------------------------
song033_11_23:
        BYTE           N06     Bn2   v078
        BYTE   W12
        BYTE                   Bn2   v055
        BYTE   W12
        BYTE                   Bn2   v078
        BYTE   W12
        BYTE                   Bn2   v031
        BYTE   W12
        BYTE                   Bn2   v078
        BYTE   W12
        BYTE                   Bn2   v055
        BYTE   W12
        BYTE                   Bn2   v078
        BYTE   W12
        BYTE                   Bn2   v050
        BYTE   W12
        BYTE   PEND
// 024   ----------------------------------------
song033_11_24:
        BYTE           N06     Bn2   v081
        BYTE   W06
        BYTE                   Bn2   v071
        BYTE   W06
        BYTE                   Bn2
        BYTE   W06
        BYTE                   Bn2   v050
        BYTE   W06
        BYTE                   Bn2   v081
        BYTE   W12
        BYTE                   Bn2   v050
        BYTE   W12
        BYTE                   Bn2   v081
        BYTE   W12
        BYTE                   Bn2   v050
        BYTE   W12
        BYTE                   Bn2   v078
        BYTE   W12
        BYTE                   Bn2   v031
        BYTE   W12
        BYTE   PEND
// 025   ----------------------------------------
        BYTE   PATT
         POIN2  song033_11_22
// 026   ----------------------------------------
        BYTE   PATT
         POIN2  song033_11_23
// 027   ----------------------------------------
song033_11_27:
        BYTE           N06     Bn2   v081
        BYTE   W06
        BYTE                   Bn2   v071
        BYTE   W06
        BYTE                   Bn2
        BYTE   W06
        BYTE                   Bn2   v050
        BYTE   W06
        BYTE                   Bn2   v081
        BYTE   W12
        BYTE                   Bn2   v050
        BYTE   W12
        BYTE                   Bn2   v031
        BYTE   W12
        BYTE                   Bn2   v081
        BYTE   W12
        BYTE                   Bn2   v059
        BYTE   W12
        BYTE                   Bn2   v031
        BYTE   W12
        BYTE   PEND
// 028   ----------------------------------------
        BYTE   PATT
         POIN2  song033_11_2
// 029   ----------------------------------------
        BYTE   PATT
         POIN2  song033_11_3
// 030   ----------------------------------------
        BYTE   PATT
         POIN2  song033_11_4
// 031   ----------------------------------------
        BYTE   PATT
         POIN2  song033_11_5
// 032   ----------------------------------------
        BYTE           N06     Bn2   v081
        BYTE   W12
        BYTE                   Bn2   v050
        BYTE   W24
        BYTE                   Bn2   v081
        BYTE   W12
        BYTE                   Bn2
        BYTE   W24
        BYTE                   Bn2
        BYTE   W12
        BYTE                   Bn2   v078
        BYTE   W12
// 033   ----------------------------------------
        BYTE   W12
        BYTE                   Bn2   v081
        BYTE   W24
        BYTE                   Bn2
        BYTE   W24
        BYTE                   Bn2   v074
        BYTE   W12
        BYTE                   Bn2   v078
        BYTE   W24
// 034   ----------------------------------------
        BYTE                   Bn2
        BYTE   W12
        BYTE                   Bn2   v081
        BYTE   W24
        BYTE                   Bn2
        BYTE   W24
        BYTE                   Bn2   v078
        BYTE   W24
        BYTE                   Bn2
        BYTE   W12
// 035   ----------------------------------------
        BYTE                   Bn2
        BYTE   W24
        BYTE                   Bn2   v074
        BYTE   W12
        BYTE                   Bn2   v078
        BYTE   W24
        BYTE                   Bn2
        BYTE   W24
        BYTE                   Bn2   v081
        BYTE   W12
// 036   ----------------------------------------
        BYTE   W12
        BYTE                   Bn2   v074
        BYTE   W12
        BYTE                   Bn2   v078
        BYTE   W24
        BYTE                   Bn2   v074
        BYTE   W12
        BYTE                   Bn2
        BYTE   W24
        BYTE                   Bn2   v078
        BYTE   W12
// 037   ----------------------------------------
        BYTE   W12
        BYTE           N12     Gs2   v074
        BYTE   W24
        BYTE           N06     Bn2
        BYTE   W12
        BYTE                   Bn2
        BYTE   W24
        BYTE                   Bn2   v078
        BYTE   W12
        BYTE                   Bn2   v071
        BYTE   W12
// 038   ----------------------------------------
        BYTE   W12
        BYTE                   Bn2   v078
        BYTE   W24
        BYTE                   Bn2
        BYTE   W24
        BYTE                   Bn2   v074
        BYTE   W12
        BYTE                   Bn2   v081
        BYTE   W24
// 039   ----------------------------------------
        BYTE                   Bn2   v074
        BYTE   W12
        BYTE                   Bn2
        BYTE   W24
        BYTE                   Bn2
        BYTE   W24
        BYTE                   Bn2   v078
        BYTE   W24
        BYTE                   Bn2   v074
        BYTE   W12
// 040   ----------------------------------------
        BYTE                   Bn2   v078
        BYTE   W24
        BYTE                   Bn2   v074
        BYTE   W12
        BYTE                   Bn2
        BYTE   W24
        BYTE                   Bn2   v078
        BYTE   W24
        BYTE                   Bn2
        BYTE   W12
// 041   ----------------------------------------
        BYTE   W12
        BYTE                   Bn2   v074
        BYTE   W12
        BYTE                   Bn2   v078
        BYTE   W24
        BYTE                   Bn2
        BYTE   W12
        BYTE                   Bn2   v081
        BYTE   W24
        BYTE                   Bn2   v078
        BYTE   W12
// 042   ----------------------------------------
        BYTE   W12
        BYTE           N12     Gs2   v067
        BYTE   W12
        BYTE           N06     Bn2   v081
        BYTE   W12
        BYTE                   Bn2   v050
        BYTE   W12
        BYTE                   Bn2   v081
        BYTE   W12
        BYTE                   Bn2   v050
        BYTE   W12
        BYTE                   Bn2   v078
        BYTE   W12
        BYTE                   Bn2   v031
        BYTE   W12
// 043   ----------------------------------------
        BYTE   PATT
         POIN2  song033_11_22
// 044   ----------------------------------------
        BYTE   PATT
         POIN2  song033_11_23
// 045   ----------------------------------------
song033_11_45:
        BYTE           N06     Bn2   v081
        BYTE   W06
        BYTE                   Bn2   v071
        BYTE   W06
        BYTE                   Bn2
        BYTE   W06
        BYTE                   Bn2   v031
        BYTE   W06
        BYTE                   Bn2   v081
        BYTE   W12
        BYTE                   Bn2   v050
        BYTE   W12
        BYTE                   Bn2   v081
        BYTE   W12
        BYTE                   Bn2   v050
        BYTE   W12
        BYTE                   Bn2   v078
        BYTE   W12
        BYTE                   Bn2   v031
        BYTE   W12
        BYTE   PEND
// 046   ----------------------------------------
        BYTE   PATT
         POIN2  song033_11_22
// 047   ----------------------------------------
        BYTE   PATT
         POIN2  song033_11_23
// 048   ----------------------------------------
        BYTE   PATT
         POIN2  song033_11_45
// 049   ----------------------------------------
        BYTE   PATT
         POIN2  song033_11_22
// 050   ----------------------------------------
        BYTE   PATT
         POIN2  song033_11_23
// 051   ----------------------------------------
        BYTE   PATT
         POIN2  song033_11_24
// 052   ----------------------------------------
        BYTE   PATT
         POIN2  song033_11_22
// 053   ----------------------------------------
        BYTE   PATT
         POIN2  song033_11_23
// 054   ----------------------------------------
        BYTE   PATT
         POIN2  song033_11_27
// 055   ----------------------------------------
        BYTE   PATT
         POIN2  song033_11_2
// 056   ----------------------------------------
        BYTE   PATT
         POIN2  song033_11_3
// 057   ----------------------------------------
        BYTE   PATT
         POIN2  song033_11_4
// 058   ----------------------------------------
        BYTE   PATT
         POIN2  song033_11_5
// 059   ----------------------------------------
        BYTE           N06     Bn2   v081
        BYTE   W12
        BYTE                   Bn2   v050
        BYTE   W12
        BYTE   GoTo
         POIN2  song033_11_LOOP
        BYTE   FINE

//***************** Track 12 (Midi-Chn.12) *****************//

song033_12:
        BYTE   KEYSH   song033_key+0
// 000   ----------------------------------------
        BYTE           VOICE   127
        BYTE           VOL     41
        BYTE   W96
// 001   ----------------------------------------
        BYTE   W24
song033_12_LOOP:
        BYTE   W72
// 002   ----------------------------------------
        BYTE   W96
// 003   ----------------------------------------
        BYTE   W24
        BYTE           TIE     As2   v112
        BYTE   W72
// 004   ----------------------------------------
        BYTE   W48
        BYTE           EOT
        BYTE   W48
// 005   ----------------------------------------
        BYTE   W96
// 006   ----------------------------------------
        BYTE   W96
// 007   ----------------------------------------
        BYTE   W96
// 008   ----------------------------------------
        BYTE   W24
        BYTE           TIE
        BYTE   W72
// 009   ----------------------------------------
        BYTE   W48
        BYTE           EOT
        BYTE   W48
// 010   ----------------------------------------
        BYTE   W96
// 011   ----------------------------------------
        BYTE   W96
// 012   ----------------------------------------
        BYTE   W96
// 013   ----------------------------------------
        BYTE   W96
// 014   ----------------------------------------
        BYTE   W96
// 015   ----------------------------------------
        BYTE   W96
// 016   ----------------------------------------
        BYTE   W96
// 017   ----------------------------------------
        BYTE   W96
// 018   ----------------------------------------
        BYTE   W96
// 019   ----------------------------------------
        BYTE   W96
// 020   ----------------------------------------
        BYTE   W96
// 021   ----------------------------------------
        BYTE   W60
        BYTE           N36
        BYTE   W06
        BYTE           VOL     39
        BYTE   W06
        BYTE                   36
        BYTE   W06
        BYTE                   34
        BYTE   W06
        BYTE                   31
        BYTE   W06
        BYTE                   27
        BYTE   W06
// 022   ----------------------------------------
song033_12_22:
        BYTE   W36
        BYTE           VOL     41
        BYTE           N36     As2   v112
        BYTE   W06
        BYTE           VOL     39
        BYTE   W06
        BYTE                   36
        BYTE   W06
        BYTE                   34
        BYTE   W06
        BYTE                   31
        BYTE   W06
        BYTE                   27
        BYTE   W30
        BYTE   PEND
// 023   ----------------------------------------
song033_12_23:
        BYTE   W12
        BYTE           VOL     41
        BYTE           N36     As2   v112
        BYTE   W06
        BYTE           VOL     39
        BYTE   W06
        BYTE                   36
        BYTE   W06
        BYTE                   34
        BYTE   W06
        BYTE                   31
        BYTE   W06
        BYTE                   27
        BYTE   W42
        BYTE                   41
        BYTE           N36
        BYTE   W06
        BYTE           VOL     39
        BYTE   W06
        BYTE   PEND
// 024   ----------------------------------------
        BYTE                   36
        BYTE   W06
        BYTE                   34
        BYTE   W06
        BYTE                   31
        BYTE   W06
        BYTE                   27
        BYTE   W42
        BYTE                   41
        BYTE           N36
        BYTE   W06
        BYTE           VOL     39
        BYTE   W06
        BYTE                   36
        BYTE   W06
        BYTE                   34
        BYTE   W06
        BYTE                   31
        BYTE   W06
        BYTE                   27
        BYTE   W06
// 025   ----------------------------------------
        BYTE   PATT
         POIN2  song033_12_22
// 026   ----------------------------------------
        BYTE   PATT
         POIN2  song033_12_23
// 027   ----------------------------------------
song033_12_27:
        BYTE           VOL     36
        BYTE   W06
        BYTE                   34
        BYTE   W06
        BYTE                   31
        BYTE   W06
        BYTE                   27
        BYTE   W06
        BYTE                   41
        BYTE           TIE     As2   v112
        BYTE   W06
        BYTE           VOL     39
        BYTE   W06
        BYTE                   36
        BYTE   W06
        BYTE                   34
        BYTE   W06
        BYTE                   31
        BYTE   W06
        BYTE                   27
        BYTE   W42
        BYTE   PEND
// 028   ----------------------------------------
        BYTE   W48
        BYTE           EOT
        BYTE   W48
// 029   ----------------------------------------
        BYTE   W96
// 030   ----------------------------------------
        BYTE   W96
// 031   ----------------------------------------
        BYTE   W96
// 032   ----------------------------------------
        BYTE   W24
        BYTE           VOL     41
        BYTE           TIE
        BYTE   W72
// 033   ----------------------------------------
        BYTE   W48
        BYTE           EOT
        BYTE   W48
// 034   ----------------------------------------
        BYTE   W96
// 035   ----------------------------------------
        BYTE   W96
// 036   ----------------------------------------
        BYTE   W96
// 037   ----------------------------------------
        BYTE   W24
        BYTE           TIE
        BYTE   W72
// 038   ----------------------------------------
        BYTE   W48
        BYTE           EOT
        BYTE   W48
// 039   ----------------------------------------
        BYTE   W96
// 040   ----------------------------------------
        BYTE   W96
// 041   ----------------------------------------
        BYTE   W96
// 042   ----------------------------------------
        BYTE   W24
        BYTE           TIE
        BYTE   W72
// 043   ----------------------------------------
song033_12_43:
        BYTE   W48
        BYTE           EOT     As2
        BYTE   W24
        BYTE           TIE     As2   v112
        BYTE   W24
        BYTE   PEND
// 044   ----------------------------------------
        BYTE   W96
// 045   ----------------------------------------
        BYTE           EOT
        BYTE   W24
        BYTE           TIE
        BYTE   W72
// 046   ----------------------------------------
        BYTE   PATT
         POIN2  song033_12_43
// 047   ----------------------------------------
        BYTE   W96
// 048   ----------------------------------------
        BYTE           EOT     As2
        BYTE   W60
        BYTE           N36     As2   v112
        BYTE   W06
        BYTE           VOL     39
        BYTE   W06
        BYTE                   36
        BYTE   W06
        BYTE                   34
        BYTE   W06
        BYTE                   31
        BYTE   W06
        BYTE                   27
        BYTE   W06
// 049   ----------------------------------------
        BYTE   PATT
         POIN2  song033_12_22
// 050   ----------------------------------------
        BYTE   W12
        BYTE           VOL     41
        BYTE           N36     As2   v112
        BYTE   W06
        BYTE           VOL     39
        BYTE   W06
        BYTE                   36
        BYTE   W06
        BYTE                   34
        BYTE   W06
        BYTE                   31
        BYTE   W06
        BYTE                   27
        BYTE   W42
        BYTE                   41
        BYTE           N32
        BYTE   W06
        BYTE           VOL     39
        BYTE   W06
// 051   ----------------------------------------
        BYTE                   36
        BYTE   W06
        BYTE                   34
        BYTE   W06
        BYTE                   31
        BYTE   W06
        BYTE                   27
        BYTE   W42
        BYTE                   41
        BYTE           N30
        BYTE   W06
        BYTE           VOL     39
        BYTE   W06
        BYTE                   36
        BYTE   W06
        BYTE                   34
        BYTE   W06
        BYTE                   31
        BYTE   W06
        BYTE                   27
        BYTE   W06
// 052   ----------------------------------------
        BYTE   W36
        BYTE                   41
        BYTE           N32
        BYTE   W06
        BYTE           VOL     39
        BYTE   W06
        BYTE                   36
        BYTE   W06
        BYTE                   34
        BYTE   W06
        BYTE                   31
        BYTE   W06
        BYTE                   27
        BYTE   W30
// 053   ----------------------------------------
        BYTE   W12
        BYTE                   41
        BYTE           N30
        BYTE   W06
        BYTE           VOL     39
        BYTE   W06
        BYTE                   36
        BYTE   W06
        BYTE                   34
        BYTE   W06
        BYTE                   31
        BYTE   W06
        BYTE                   27
        BYTE   W42
        BYTE                   41
        BYTE           N24
        BYTE   W06
        BYTE           VOL     39
        BYTE   W06
// 054   ----------------------------------------
        BYTE   PATT
         POIN2  song033_12_27
// 055   ----------------------------------------
        BYTE   W48
        BYTE           EOT     As2
        BYTE   W48
// 056   ----------------------------------------
        BYTE   W96
// 057   ----------------------------------------
        BYTE   W96
// 058   ----------------------------------------
        BYTE   W72
        BYTE           VOL     42
        BYTE           N48     As2   v112
        BYTE   W12
        BYTE           VOL     41
        BYTE   W06
        BYTE                   38
        BYTE   W06
// 059   ----------------------------------------
        BYTE                   36
        BYTE   W06
        BYTE                   34
        BYTE   W06
        BYTE                   31
        BYTE   W06
        BYTE                   26
        BYTE   W06
        BYTE                   41
        BYTE   GoTo
         POIN2  song033_12_LOOP
        BYTE   FINE

//***************** Track 13 (Midi-Chn.13) *****************//

song033_13:
        BYTE   KEYSH   song033_key+0
// 000   ----------------------------------------
        BYTE           VOICE   89
        BYTE   W96
// 001   ----------------------------------------
        BYTE   W24
song033_13_LOOP:
        BYTE           VOL     37
        BYTE           BENDR   28
        BYTE   W72
// 002   ----------------------------------------
        BYTE   W96
// 003   ----------------------------------------
        BYTE   W96
// 004   ----------------------------------------
        BYTE   W96
// 005   ----------------------------------------
        BYTE   W96
// 006   ----------------------------------------
        BYTE   W96
// 007   ----------------------------------------
        BYTE   W96
// 008   ----------------------------------------
        BYTE   W96
// 009   ----------------------------------------
        BYTE   W96
// 010   ----------------------------------------
        BYTE   W96
// 011   ----------------------------------------
        BYTE   W96
// 012   ----------------------------------------
        BYTE   W96
// 013   ----------------------------------------
        BYTE   W96
// 014   ----------------------------------------
        BYTE   W96
// 015   ----------------------------------------
        BYTE   W96
// 016   ----------------------------------------
        BYTE   W96
// 017   ----------------------------------------
        BYTE   W96
// 018   ----------------------------------------
        BYTE   W96
// 019   ----------------------------------------
        BYTE   W96
// 020   ----------------------------------------
        BYTE   W96
// 021   ----------------------------------------
        BYTE   W96
// 022   ----------------------------------------
        BYTE   W96
// 023   ----------------------------------------
        BYTE   W96
// 024   ----------------------------------------
        BYTE   W96
// 025   ----------------------------------------
        BYTE   W96
// 026   ----------------------------------------
        BYTE   W96
// 027   ----------------------------------------
        BYTE   W48
        BYTE           N06     En3   v092
        BYTE   W06
        BYTE                   Bn3
        BYTE   W06
        BYTE           TIE     En4   v081
        BYTE   W36
// 028   ----------------------------------------
        BYTE   W96
// 029   ----------------------------------------
        BYTE   W24
        BYTE           EOT
        BYTE           N04     Dn4   v092
        BYTE   W04
        BYTE                   Cs4
        BYTE   W04
        BYTE                   Bn3
        BYTE   W04
        BYTE           N36     An3
        BYTE   W36
        BYTE           N06     Bn3
        BYTE   W06
        BYTE                   Cs4
        BYTE   W06
        BYTE           TIE     Bn3   v084
        BYTE   W12
// 030   ----------------------------------------
        BYTE   W96
// 031   ----------------------------------------
        BYTE   W84
        BYTE           EOT
        BYTE   W12
// 032   ----------------------------------------
        BYTE   W96
// 033   ----------------------------------------
        BYTE   W96
// 034   ----------------------------------------
        BYTE   W96
// 035   ----------------------------------------
        BYTE   W96
// 036   ----------------------------------------
        BYTE   W96
// 037   ----------------------------------------
        BYTE   W96
// 038   ----------------------------------------
        BYTE   W96
// 039   ----------------------------------------
        BYTE   W96
// 040   ----------------------------------------
        BYTE   W96
// 041   ----------------------------------------
        BYTE   W96
// 042   ----------------------------------------
        BYTE   W96
// 043   ----------------------------------------
        BYTE   W96
// 044   ----------------------------------------
        BYTE   W96
// 045   ----------------------------------------
        BYTE   W96
// 046   ----------------------------------------
        BYTE   W96
// 047   ----------------------------------------
        BYTE   W96
// 048   ----------------------------------------
        BYTE   W24
        BYTE           BENDR   22
        BYTE   W12
        BYTE           TIE     Bn3   v071
        BYTE   W60
// 049   ----------------------------------------
        BYTE   W84
        BYTE           EOT
        BYTE   W12
// 050   ----------------------------------------
        BYTE   W96
// 051   ----------------------------------------
        BYTE   W96
// 052   ----------------------------------------
        BYTE   W96
// 053   ----------------------------------------
        BYTE   W96
// 054   ----------------------------------------
        BYTE   W96
// 055   ----------------------------------------
        BYTE   W96
// 056   ----------------------------------------
        BYTE   W96
// 057   ----------------------------------------
        BYTE   W96
// 058   ----------------------------------------
        BYTE   W96
// 059   ----------------------------------------
        BYTE   W24
        BYTE           BENDR   28
        BYTE   GoTo
         POIN2  song033_13_LOOP
        BYTE   FINE

//***************** Track 14 (Midi-Chn.14) *****************//

song033_14:
        BYTE   KEYSH   song033_key+0
// 000   ----------------------------------------
        BYTE           VOICE   89
        BYTE   W96
// 001   ----------------------------------------
        BYTE   W24
song033_14_LOOP:
        BYTE           VOL     37
        BYTE           BENDR   18
        BYTE   W72
// 002   ----------------------------------------
        BYTE   W96
// 003   ----------------------------------------
        BYTE   W96
// 004   ----------------------------------------
        BYTE   W96
// 005   ----------------------------------------
        BYTE   W96
// 006   ----------------------------------------
        BYTE   W96
// 007   ----------------------------------------
        BYTE   W96
// 008   ----------------------------------------
        BYTE   W96
// 009   ----------------------------------------
        BYTE   W96
// 010   ----------------------------------------
        BYTE   W96
// 011   ----------------------------------------
        BYTE   W96
// 012   ----------------------------------------
        BYTE   W96
// 013   ----------------------------------------
        BYTE   W96
// 014   ----------------------------------------
        BYTE   W96
// 015   ----------------------------------------
        BYTE   W96
// 016   ----------------------------------------
        BYTE   W96
// 017   ----------------------------------------
        BYTE   W96
// 018   ----------------------------------------
        BYTE   W96
// 019   ----------------------------------------
        BYTE   W96
// 020   ----------------------------------------
        BYTE   W96
// 021   ----------------------------------------
        BYTE   W36
        BYTE           TIE     En3   v084
        BYTE   W60
// 022   ----------------------------------------
        BYTE   W84
        BYTE           EOT
        BYTE   W12
// 023   ----------------------------------------
        BYTE   W96
// 024   ----------------------------------------
        BYTE   W96
// 025   ----------------------------------------
        BYTE   W96
// 026   ----------------------------------------
        BYTE   W96
// 027   ----------------------------------------
        BYTE   W96
// 028   ----------------------------------------
        BYTE   W96
// 029   ----------------------------------------
        BYTE   W96
// 030   ----------------------------------------
        BYTE   W96
// 031   ----------------------------------------
        BYTE           VOICE   100
        BYTE           BENDR   22
        BYTE   W84
        BYTE           N24     Bn1   v095
        BYTE   W12
// 032   ----------------------------------------
        BYTE   W12
        BYTE                   En2   v098
        BYTE   W24
        BYTE           TIE     Gn2   v081
        BYTE   W60
// 033   ----------------------------------------
        BYTE   W96
// 034   ----------------------------------------
        BYTE   W12
        BYTE           EOT
        BYTE           N24     Gn1   v112
        BYTE   W24
        BYTE                   Cn2   v110
        BYTE   W24
        BYTE                   En2   v103
        BYTE   W24
        BYTE           N36     Fs2   v095
        BYTE   W12
// 035   ----------------------------------------
        BYTE   W24
        BYTE           N96     Dn2   v105
        BYTE   W72
// 036   ----------------------------------------
        BYTE   W96
// 037   ----------------------------------------
        BYTE   W12
        BYTE           N12     An1   v121
        BYTE   W12
        BYTE                   Bn1   v117
        BYTE   W12
        BYTE           N36     Cn2   v103
        BYTE   W36
        BYTE                   An1   v119
        BYTE   W24
// 038   ----------------------------------------
        BYTE   W12
        BYTE           TIE     An2   v117
        BYTE   W84
// 039   ----------------------------------------
        BYTE   W36
        BYTE           EOT
        BYTE           N24     En2   v112
        BYTE   W24
        BYTE                   Fs2   v095
        BYTE   W24
        BYTE           N60     Gn2   v108
        BYTE   W12
// 040   ----------------------------------------
        BYTE   W48
        BYTE                   En2
        BYTE   W48
// 041   ----------------------------------------
        BYTE   W12
        BYTE           N06     Dn2
        BYTE   W06
        BYTE                   En2
        BYTE   W06
        BYTE           N24     Fs2   v103
        BYTE   W72
// 042   ----------------------------------------
        BYTE   W96
// 043   ----------------------------------------
        BYTE   W96
// 044   ----------------------------------------
        BYTE   W96
// 045   ----------------------------------------
        BYTE   W96
// 046   ----------------------------------------
        BYTE   W96
// 047   ----------------------------------------
        BYTE   W96
// 048   ----------------------------------------
        BYTE   W96
// 049   ----------------------------------------
        BYTE   W96
// 050   ----------------------------------------
        BYTE   W96
// 051   ----------------------------------------
        BYTE   W96
// 052   ----------------------------------------
        BYTE   W96
// 053   ----------------------------------------
        BYTE   W96
// 054   ----------------------------------------
        BYTE   W36
        BYTE           TIE     En1   v078
        BYTE   W60
// 055   ----------------------------------------
        BYTE   W96
// 056   ----------------------------------------
        BYTE   W96
// 057   ----------------------------------------
        BYTE   W96
// 058   ----------------------------------------
        BYTE   W96
// 059   ----------------------------------------
        BYTE   W24
        BYTE           EOT
        BYTE           VOICE   89
        BYTE           BENDR   18
        BYTE   GoTo
         POIN2  song033_14_LOOP
        BYTE   FINE

//***************** Track 15 (Midi-Chn.15) *****************//

song033_15:
        BYTE   KEYSH   song033_key+0
// 000   ----------------------------------------
        BYTE           VOICE   22
        BYTE           VOL     41
        BYTE           BENDR   22
        BYTE   W96
// 001   ----------------------------------------
        BYTE   W24
song033_15_LOOP:
        BYTE   W72
// 002   ----------------------------------------
        BYTE   W96
// 003   ----------------------------------------
        BYTE   W84
        BYTE           TIE     Bn2   v063
        BYTE   W12
// 004   ----------------------------------------
        BYTE   W96
// 005   ----------------------------------------
        BYTE   W84
        BYTE           EOT
        BYTE           N24     En3   v084
        BYTE   W12
// 006   ----------------------------------------
        BYTE   W12
        BYTE                   Bn3   v071
        BYTE   W24
        BYTE           N12     An3   v074
        BYTE   W12
        BYTE           N06     Gn3   v067
        BYTE   W06
        BYTE                   Fs3
        BYTE   W06
        BYTE           N12     Gn3   v078
        BYTE   W12
        BYTE           N06     Fs3   v071
        BYTE   W06
        BYTE                   En3   v081
        BYTE   W06
        BYTE           TIE     Fs3   v071
        BYTE   W12
// 007   ----------------------------------------
        BYTE   W96
// 008   ----------------------------------------
        BYTE   W84
        BYTE           EOT
        BYTE           TIE     Bn2   v084
        BYTE   W12
// 009   ----------------------------------------
        BYTE   W96
// 010   ----------------------------------------
        BYTE   W12
        BYTE           EOT
        BYTE           N36     En2   v105
        BYTE   W36
        BYTE                   Bn2   v087
        BYTE   W36
        BYTE           N48     An2   v103
        BYTE   W12
// 011   ----------------------------------------
        BYTE   W96
// 012   ----------------------------------------
        BYTE   W96
// 013   ----------------------------------------
        BYTE   W96
// 014   ----------------------------------------
        BYTE   W96
// 015   ----------------------------------------
        BYTE   W96
// 016   ----------------------------------------
        BYTE   W96
// 017   ----------------------------------------
        BYTE   W96
// 018   ----------------------------------------
        BYTE   W96
// 019   ----------------------------------------
        BYTE   W96
// 020   ----------------------------------------
        BYTE   W96
// 021   ----------------------------------------
        BYTE   W96
// 022   ----------------------------------------
        BYTE   W96
// 023   ----------------------------------------
        BYTE   W96
// 024   ----------------------------------------
        BYTE   W36
        BYTE           TIE     Gn3   v071
        BYTE   W60
// 025   ----------------------------------------
        BYTE   W96
// 026   ----------------------------------------
        BYTE   W96
// 027   ----------------------------------------
        BYTE   W36
        BYTE           EOT
        BYTE   W60
// 028   ----------------------------------------
        BYTE   W96
// 029   ----------------------------------------
        BYTE   W96
// 030   ----------------------------------------
        BYTE   W96
// 031   ----------------------------------------
        BYTE   W96
// 032   ----------------------------------------
        BYTE   W96
// 033   ----------------------------------------
        BYTE   W96
// 034   ----------------------------------------
        BYTE   W96
// 035   ----------------------------------------
        BYTE   W96
// 036   ----------------------------------------
        BYTE   W96
// 037   ----------------------------------------
        BYTE   W96
// 038   ----------------------------------------
        BYTE   W96
// 039   ----------------------------------------
        BYTE   W96
// 040   ----------------------------------------
        BYTE   W96
// 041   ----------------------------------------
        BYTE   W96
// 042   ----------------------------------------
        BYTE   W96
// 043   ----------------------------------------
        BYTE   W96
// 044   ----------------------------------------
        BYTE   W96
// 045   ----------------------------------------
        BYTE   W96
// 046   ----------------------------------------
        BYTE   W96
// 047   ----------------------------------------
        BYTE   W96
// 048   ----------------------------------------
        BYTE   W96
// 049   ----------------------------------------
        BYTE   W96
// 050   ----------------------------------------
        BYTE   W96
// 051   ----------------------------------------
        BYTE   W36
        BYTE           TIE     Gn3   v063
        BYTE   W60
// 052   ----------------------------------------
        BYTE   W96
// 053   ----------------------------------------
        BYTE   W96
// 054   ----------------------------------------
        BYTE   W36
        BYTE           EOT
        BYTE           TIE     En3   v078
        BYTE   W60
// 055   ----------------------------------------
        BYTE   W96
// 056   ----------------------------------------
        BYTE   W84
        BYTE           EOT
        BYTE           TIE     Bn2   v081
        BYTE   W12
// 057   ----------------------------------------
        BYTE   W96
// 058   ----------------------------------------
        BYTE   W12
        BYTE           EOT
        BYTE           N36     En2   v100
        BYTE   W36
        BYTE                   Bn2   v090
        BYTE   W36
        BYTE                   Dn3   v092
        BYTE   W12
// 059   ----------------------------------------
        BYTE   W24
        BYTE   GoTo
         POIN2  song033_15_LOOP
        BYTE   FINE


//********************** End of Song ***********************//

        ALIGN 4
song033:
        BYTE   16                      // Num Tracks
        BYTE   0                       // Unknown
        BYTE   song033_pri             // Priority
        BYTE   song033_rev             // Reverb

        POIN2   song033_grp            

        POIN2   song033_0
        POIN2   song033_1
        POIN2   song033_2
        POIN2   song033_3
        POIN2   song033_4
        POIN2   song033_5
        POIN2   song033_6
        POIN2   song033_7
        POIN2   song033_8
        POIN2   song033_9
        POIN2   song033_10
        POIN2   song033_11
        POIN2   song033_12
        POIN2   song033_13
        POIN2   song033_14
        POIN2   song033_15

        
